%
M48
M72
T01C0.0157
T02C0.0197
T03C0.0315
T04C0.0433
T05C0.1260
T06C0.1575
%
T01
X5652Y7388
X4471Y8412
X7266Y14278
X8565Y15774
X7502Y16758
X8053Y18530
X7502Y21876
X7305Y23254
X7305Y23648
X6479Y24436
X5927Y25223
X4943Y25223
X4589Y25577
X4786Y25971
X4746Y26601
X4353Y26601
X4156Y26995
X4156Y27388
X4156Y27782
X4904Y29357
X4904Y29750
X5416Y29514
X6006Y29278
X6321Y29554
X7069Y29554
X6321Y30932
X7109Y31443
X7109Y32388
X7109Y33254
X6321Y33687
X5534Y34514
X5179Y34908
X5179Y35341
X6006Y34869
X6479Y35223
X6990Y35420
X7526Y34373
X8014Y33254
X8014Y32388
X8920Y32388
X9471Y32113
X9668Y31719
X9668Y31325
X9668Y30932
X9668Y30538
X10297Y29711
X10534Y29987
X10770Y30262
X11006Y30538
X10770Y30813
X11006Y30971
X11242Y30813
X11006Y29357
X11833Y28254
X12305Y27231
X12612Y26365
X12896Y26365
X12660Y25813
X12660Y25459
X12187Y24987
X13093Y24947
X12620Y24042
X12620Y23254
X12620Y22467
X12227Y22467
X12227Y21876
X12620Y21876
X13093Y22388
X13959Y22388
X13959Y22821
X14825Y21798
X16164Y21798
X17384Y21798
X18368Y21798
X19431Y21601
X19628Y22152
X20179Y22152
X20376Y21837
X21479Y21561
X21872Y21995
X22305Y21798
X23920Y21798
X24471Y21798
X25140Y20459
X25612Y19002
X26794Y18333
X28250Y20065
X28762Y23845
X28762Y24632
X29746Y24239
X30731Y24632
X30731Y23845
X30691Y26247
X30297Y26443
X29904Y26247
X30140Y26995
X29943Y27310
X29431Y26995
X29195Y27310
X28408Y27231
X27699Y26995
X27463Y27979
X27975Y27979
X27699Y28491
X28053Y29436
X28053Y29750
X28053Y30065
X28467Y30046
X29234Y29947
X29510Y29790
X29510Y30144
X30691Y30184
X31085Y29790
X31085Y29436
X31046Y28412
X30691Y28136
X30297Y28097
X30337Y28412
X29589Y28451
X31164Y27191
X31085Y26443
X32227Y27979
X32542Y27782
X32069Y28333
X32305Y28609
X32542Y28924
X32857Y29239
X34116Y29278
X34038Y28727
X34628Y28884
X34864Y28569
X35140Y28254
X35061Y27624
X34038Y27743
X34038Y26876
X35061Y26601
X35061Y24239
X35061Y23058
X33880Y22270
X33486Y23058
X33093Y22270
X33486Y24239
X35455Y21483
X36636Y21483
X36636Y22270
X36636Y23058
X36636Y24239
X38605Y24632
X38605Y25813
X38605Y26995
X38605Y28176
X38605Y29357
X38605Y30538
X38605Y31719
X38605Y33294
X37423Y33294
X36636Y34869
X37030Y36247
X36046Y37821
X37030Y38215
X35061Y38215
X35061Y37428
X34274Y37349
X33723Y37861
X33053Y38215
X32423Y37231
X31754Y36758
X31636Y38254
X29904Y38333
X28841Y37861
X29943Y36916
X29353Y35774
X28644Y35577
X28762Y34672
X29353Y34672
X29353Y33884
X28762Y33884
X28880Y32900
X28486Y32506
X28093Y32388
X27699Y32388
X27699Y32900
X28093Y32900
X27542Y33420
X26636Y32821
X26203Y32900
X26203Y33491
X25612Y33491
X25022Y33884
X25612Y34475
X24549Y35656
X23349Y35754
X23349Y35361
X23290Y36247
X23408Y36719
X24234Y37310
X23723Y37821
X22975Y37821
X22463Y37428
X22266Y37113
X22266Y35577
X22305Y35144
X22305Y34632
X22305Y34160
X22345Y33727
X22384Y32939
X21794Y32388
X21085Y33530
X20809Y33845
X20494Y34121
X20534Y33530
X21124Y34121
X21675Y35105
X21203Y35695
X21006Y36168
X20455Y36247
X20455Y35695
X19943Y35144
X19786Y34790
X19431Y36168
X18920Y37231
X18644Y37821
X17935Y37821
X17148Y37231
X16557Y37585
X15376Y37506
X15416Y37900
X14589Y37664
X14254Y37113
X13486Y37861
X13112Y38097
X13309Y38333
X12876Y38333
X12837Y37939
X11675Y37388
X11479Y38294
X9904Y38294
X8644Y37861
X7738Y37939
X6990Y37388
X6990Y37073
X6321Y38215
X5534Y38215
X8526Y34081
X9195Y34081
X9549Y33884
X9471Y33294
X8920Y33254
X10652Y33294
X10297Y35144
X10691Y35341
X11479Y35735
X9864Y36955
X12817Y33491
X12817Y33097
X12817Y32703
X12817Y32310
X12817Y31916
X12817Y31522
X13211Y31719
X13211Y32388
X13447Y32703
X13211Y33058
X13250Y33451
X14195Y35971
X15376Y36050
X16557Y36050
X17935Y36247
X17345Y33294
X17345Y32703
X18034Y32605
X18998Y32349
X19668Y32585
X19707Y32939
X18920Y33136
X18526Y31522
X18526Y30853
X18742Y30282
X17857Y30853
X17857Y31522
X17109Y31522
X17109Y30853
X16360Y30853
X16360Y31522
X15731Y29436
X16754Y29160
X17148Y28766
X17345Y29239
X17975Y28569
X18723Y29160
X19707Y27979
X20731Y27743
X21085Y28373
X21754Y28845
X22502Y28491
X22738Y28766
X23250Y28373
X23683Y28530
X24116Y28176
X24786Y28215
X24786Y27900
X24864Y28569
X25160Y29298
X25416Y29554
X25416Y29947
X25416Y30538
X25416Y30932
X24983Y30813
X23742Y30932
X23742Y30538
X23742Y29947
X23742Y29554
X22620Y28097
X21715Y27585
X21675Y26207
X21675Y25223
X21675Y24829
X22227Y24160
X22660Y24829
X23211Y23884
X23762Y23924
X24234Y24632
X24628Y24436
X24471Y23924
X24431Y25223
X24234Y25813
X24628Y25813
X25349Y26924
X25569Y27097
X25790Y26924
X26038Y27054
X25821Y27227
X26231Y27254
X26337Y26995
X26144Y26794
X27384Y26010
X27975Y26010
X26242Y29278
X27699Y31168
X28211Y31168
X28880Y32113
X29274Y32506
X29668Y32113
X30061Y32506
X30455Y32113
X30849Y32506
X31242Y32113
X30849Y31719
X31636Y31719
X32030Y32113
X31636Y32506
X31242Y32900
X30455Y32900
X29668Y32900
X30061Y31719
X29274Y31719
X30337Y34081
X30337Y34672
X31321Y34475
X31912Y34869
X31912Y34081
X32030Y32900
X33486Y32113
X33526Y31128
X33132Y31050
X32384Y30577
X32187Y30892
X33880Y33294
X33880Y34081
X33880Y34869
X34786Y34908
X35849Y33294
X35849Y32113
X34786Y32191
X35416Y30065
X35731Y29829
X35101Y29829
X38801Y35262
X38801Y36247
X38605Y23058
X38644Y21286
X37148Y17073
X35849Y17152
X33565Y20026
X24195Y13254
X23290Y12428
X23290Y14081
X22148Y14081
X20494Y12428
X18368Y12546
X17778Y10853
X16095Y10699
X16124Y12388
X16597Y14042
X17542Y16050
X18329Y15892
X18329Y16680
X18959Y17821
X18053Y18530
X20140Y17152
X21557Y18530
X23644Y20026
X20691Y24632
X20691Y25223
X19707Y25223
X19707Y24829
X18920Y24121
X18526Y23924
X18723Y24829
X17738Y24436
X17148Y24436
X16557Y24436
X15967Y24436
X15967Y25420
X16557Y25420
X17148Y25420
X17542Y25420
X17345Y26207
X17542Y26995
X17148Y26995
X16557Y26995
X16282Y26207
X15652Y26168
X15494Y26798
X15258Y27231
X15967Y26995
X13447Y27880
X13132Y27703
X13211Y29436
X13486Y29711
X13486Y30105
X13014Y30380
X13644Y30656
X12817Y29436
X12423Y29436
X11716Y26207
X10652Y25302
X10258Y25853
X10337Y26719
X10022Y26719
X8526Y27506
X8723Y28254
X8053Y28254
X8408Y29396
X8014Y31443
X8920Y31443
X5691Y32506
X5140Y33687
X5140Y30932
X6124Y26798
X6754Y26798
X7423Y26798
X9431Y24121
X8880Y22861
X9195Y22113
X10258Y22861
X10849Y22861
X11636Y23451
X10652Y24042
X6321Y22664
X5534Y21876
X4628Y22979
X4879Y23451
X4864Y23845
X3565Y21876
X2778Y22664
X2778Y23845
X2778Y25026
X4234Y14593
X11439Y13215
X13171Y18530
X16282Y16640
X19707Y9672
X17738Y7191
X15770Y8491
X14431Y7191
X23250Y7191
X24195Y9554
X26164Y7191
X26794Y8097
X36479Y7979
X23841Y27388
X21597Y30932
X20691Y29947
X20297Y29160
X20691Y26207
X19707Y26207
X23290Y31522
X22857Y31561
X23250Y32506
X23644Y32506
X25022Y32900
X27030Y35617
X26597Y36640
X25612Y36640
X25573Y37782
T02
X25101Y36601
X25101Y35538
X28171Y35971
X19116Y28136
X15691Y31798
X16479Y32585
X13526Y26719
T03
X35301Y36317
X36219Y36325
T04
X23191Y26707
X22191Y26707
X22191Y25707
X23191Y25707
X21191Y25707
X20191Y25707
X20191Y26707
X21191Y26707
X19191Y26707
X18191Y26707
X18191Y25707
X19191Y25707
T05
X10652Y37624
X3171Y27782
X30731Y37624
X37817Y34869
X37817Y21876
T06
X37817Y37231
X3565Y37231
M30
