G75*
%MOIN*%
%OFA0B0*%
%FSLAX24Y24*%
%IPPOS*%
%LPD*%
%AMOC8*
5,1,8,0,0,1.08239X$1,22.5*
%
%ADD10C,0.0160*%
%ADD11C,0.0100*%
%ADD12C,0.0000*%
%ADD13C,0.0039*%
%ADD14C,0.0060*%
%ADD15C,0.0040*%
%ADD16R,0.0827X0.0866*%
%ADD17C,0.0110*%
%ADD18C,0.0080*%
%ADD19C,0.0050*%
D10*
X009156Y005735D02*
X009156Y021325D01*
X032187Y021325D01*
X032187Y005695D01*
X009156Y005735D01*
X017771Y027758D02*
X017773Y027771D01*
X017778Y027784D01*
X017787Y027795D01*
X017798Y027802D01*
X017811Y027807D01*
X017824Y027808D01*
X017838Y027805D01*
X017850Y027799D01*
X017860Y027790D01*
X017867Y027778D01*
X017871Y027765D01*
X017871Y027751D01*
X017867Y027738D01*
X017860Y027726D01*
X017850Y027717D01*
X017838Y027711D01*
X017824Y027708D01*
X017811Y027709D01*
X017798Y027714D01*
X017787Y027721D01*
X017778Y027732D01*
X017773Y027745D01*
X017771Y027758D01*
X021918Y035046D02*
X021920Y035064D01*
X021926Y035080D01*
X021935Y035095D01*
X021948Y035108D01*
X021963Y035117D01*
X021979Y035123D01*
X021997Y035125D01*
X022015Y035123D01*
X022031Y035117D01*
X022046Y035108D01*
X022059Y035095D01*
X022068Y035080D01*
X022074Y035064D01*
X022076Y035046D01*
X022074Y035028D01*
X022068Y035012D01*
X022059Y034997D01*
X022046Y034984D01*
X022031Y034975D01*
X022015Y034969D01*
X021997Y034967D01*
X021979Y034969D01*
X021963Y034975D01*
X021948Y034984D01*
X021935Y034997D01*
X021926Y035012D01*
X021920Y035028D01*
X021918Y035046D01*
X031686Y034357D02*
X031688Y034444D01*
X031694Y034532D01*
X031704Y034618D01*
X031718Y034705D01*
X031736Y034790D01*
X031757Y034875D01*
X031783Y034958D01*
X031812Y035041D01*
X031845Y035122D01*
X031881Y035201D01*
X031922Y035278D01*
X031965Y035354D01*
X032012Y035428D01*
X032063Y035499D01*
X032116Y035568D01*
X032173Y035635D01*
X032233Y035698D01*
X032295Y035759D01*
X032360Y035818D01*
X032428Y035873D01*
X032498Y035925D01*
X032571Y035974D01*
X032645Y036019D01*
X032722Y036061D01*
X032801Y036099D01*
X032881Y036134D01*
X032962Y036165D01*
X033045Y036193D01*
X033129Y036216D01*
X033215Y036236D01*
X033300Y036252D01*
X033387Y036264D01*
X033474Y036272D01*
X033561Y036276D01*
X033649Y036276D01*
X033736Y036272D01*
X033823Y036264D01*
X033910Y036252D01*
X033995Y036236D01*
X034081Y036216D01*
X034165Y036193D01*
X034248Y036165D01*
X034329Y036134D01*
X034409Y036099D01*
X034488Y036061D01*
X034564Y036019D01*
X034639Y035974D01*
X034712Y035925D01*
X034782Y035873D01*
X034850Y035818D01*
X034915Y035759D01*
X034977Y035698D01*
X035037Y035635D01*
X035094Y035568D01*
X035147Y035499D01*
X035198Y035428D01*
X035245Y035354D01*
X035288Y035278D01*
X035329Y035201D01*
X035365Y035122D01*
X035398Y035041D01*
X035427Y034958D01*
X035453Y034875D01*
X035474Y034790D01*
X035492Y034705D01*
X035506Y034618D01*
X035516Y034532D01*
X035522Y034444D01*
X035524Y034357D01*
X035522Y034270D01*
X035516Y034182D01*
X035506Y034096D01*
X035492Y034009D01*
X035474Y033924D01*
X035453Y033839D01*
X035427Y033756D01*
X035398Y033673D01*
X035365Y033592D01*
X035329Y033513D01*
X035288Y033436D01*
X035245Y033360D01*
X035198Y033286D01*
X035147Y033215D01*
X035094Y033146D01*
X035037Y033079D01*
X034977Y033016D01*
X034915Y032955D01*
X034850Y032896D01*
X034782Y032841D01*
X034712Y032789D01*
X034639Y032740D01*
X034565Y032695D01*
X034488Y032653D01*
X034409Y032615D01*
X034329Y032580D01*
X034248Y032549D01*
X034165Y032521D01*
X034081Y032498D01*
X033995Y032478D01*
X033910Y032462D01*
X033823Y032450D01*
X033736Y032442D01*
X033649Y032438D01*
X033561Y032438D01*
X033474Y032442D01*
X033387Y032450D01*
X033300Y032462D01*
X033215Y032478D01*
X033129Y032498D01*
X033045Y032521D01*
X032962Y032549D01*
X032881Y032580D01*
X032801Y032615D01*
X032722Y032653D01*
X032645Y032695D01*
X032571Y032740D01*
X032498Y032789D01*
X032428Y032841D01*
X032360Y032896D01*
X032295Y032955D01*
X032233Y033016D01*
X032173Y033079D01*
X032116Y033146D01*
X032063Y033215D01*
X032012Y033286D01*
X031965Y033360D01*
X031922Y033436D01*
X031881Y033513D01*
X031845Y033592D01*
X031812Y033673D01*
X031783Y033756D01*
X031757Y033839D01*
X031736Y033924D01*
X031718Y034009D01*
X031704Y034096D01*
X031694Y034182D01*
X031688Y034270D01*
X031686Y034357D01*
D11*
X035455Y004947D02*
X005927Y004947D01*
X005803Y004949D01*
X005680Y004955D01*
X005556Y004964D01*
X005434Y004978D01*
X005311Y004995D01*
X005189Y005017D01*
X005068Y005042D01*
X004948Y005071D01*
X004829Y005103D01*
X004710Y005140D01*
X004593Y005180D01*
X004478Y005223D01*
X004363Y005271D01*
X004251Y005322D01*
X004140Y005376D01*
X004030Y005434D01*
X003923Y005495D01*
X003817Y005560D01*
X003714Y005628D01*
X003613Y005699D01*
X003514Y005773D01*
X003417Y005850D01*
X003323Y005931D01*
X003232Y006014D01*
X003143Y006100D01*
X003057Y006189D01*
X002974Y006280D01*
X002893Y006374D01*
X002816Y006471D01*
X002742Y006570D01*
X002671Y006671D01*
X002603Y006774D01*
X002538Y006880D01*
X002477Y006987D01*
X002419Y007097D01*
X002365Y007208D01*
X002314Y007320D01*
X002266Y007435D01*
X002223Y007550D01*
X002183Y007667D01*
X002146Y007786D01*
X002114Y007905D01*
X002085Y008025D01*
X002060Y008146D01*
X002038Y008268D01*
X002021Y008391D01*
X002007Y008513D01*
X001998Y008637D01*
X001992Y008760D01*
X001990Y008884D01*
X001990Y037231D01*
X001992Y037308D01*
X001998Y037385D01*
X002007Y037462D01*
X002020Y037538D01*
X002037Y037614D01*
X002058Y037688D01*
X002082Y037762D01*
X002110Y037834D01*
X002141Y037904D01*
X002176Y037973D01*
X002214Y038041D01*
X002255Y038106D01*
X002300Y038169D01*
X002348Y038230D01*
X002398Y038289D01*
X002451Y038345D01*
X002507Y038398D01*
X002566Y038448D01*
X002627Y038496D01*
X002690Y038541D01*
X002755Y038582D01*
X002823Y038620D01*
X002892Y038655D01*
X002962Y038686D01*
X003034Y038714D01*
X003108Y038738D01*
X003182Y038759D01*
X003258Y038776D01*
X003334Y038789D01*
X003411Y038798D01*
X003488Y038804D01*
X003565Y038806D01*
X037817Y038806D01*
X037894Y038804D01*
X037971Y038798D01*
X038048Y038789D01*
X038124Y038776D01*
X038200Y038759D01*
X038274Y038738D01*
X038348Y038714D01*
X038420Y038686D01*
X038490Y038655D01*
X038559Y038620D01*
X038627Y038582D01*
X038692Y038541D01*
X038755Y038496D01*
X038816Y038448D01*
X038875Y038398D01*
X038931Y038345D01*
X038984Y038289D01*
X039034Y038230D01*
X039082Y038169D01*
X039127Y038106D01*
X039168Y038041D01*
X039206Y037973D01*
X039241Y037904D01*
X039272Y037834D01*
X039300Y037762D01*
X039324Y037688D01*
X039345Y037614D01*
X039362Y037538D01*
X039375Y037462D01*
X039384Y037385D01*
X039390Y037308D01*
X039392Y037231D01*
X039392Y008884D01*
X039390Y008760D01*
X039384Y008637D01*
X039375Y008513D01*
X039361Y008391D01*
X039344Y008268D01*
X039322Y008146D01*
X039297Y008025D01*
X039268Y007905D01*
X039236Y007786D01*
X039199Y007667D01*
X039159Y007550D01*
X039116Y007435D01*
X039068Y007320D01*
X039017Y007208D01*
X038963Y007097D01*
X038905Y006987D01*
X038844Y006880D01*
X038779Y006774D01*
X038711Y006671D01*
X038640Y006570D01*
X038566Y006471D01*
X038489Y006374D01*
X038408Y006280D01*
X038325Y006189D01*
X038239Y006100D01*
X038150Y006014D01*
X038059Y005931D01*
X037965Y005850D01*
X037868Y005773D01*
X037769Y005699D01*
X037668Y005628D01*
X037565Y005560D01*
X037459Y005495D01*
X037352Y005434D01*
X037242Y005376D01*
X037131Y005322D01*
X037019Y005271D01*
X036904Y005223D01*
X036789Y005180D01*
X036672Y005140D01*
X036553Y005103D01*
X036434Y005071D01*
X036314Y005042D01*
X036193Y005017D01*
X036071Y004995D01*
X035948Y004978D01*
X035826Y004964D01*
X035702Y004955D01*
X035579Y004949D01*
X035455Y004947D01*
X004107Y034491D02*
X002357Y034491D01*
X002357Y035491D01*
X004357Y035491D01*
X003857Y033491D02*
X002357Y033491D01*
X002357Y034491D01*
X003857Y033491D02*
X003857Y032491D01*
X002357Y032491D01*
X002357Y031491D01*
X003857Y031491D01*
X003857Y030491D01*
X002357Y030491D01*
X002357Y029491D01*
X003857Y029491D01*
D12*
X002541Y027782D02*
X002543Y027832D01*
X002549Y027882D01*
X002559Y027931D01*
X002573Y027979D01*
X002590Y028026D01*
X002611Y028071D01*
X002636Y028115D01*
X002664Y028156D01*
X002696Y028195D01*
X002730Y028232D01*
X002767Y028266D01*
X002807Y028296D01*
X002849Y028323D01*
X002893Y028347D01*
X002939Y028368D01*
X002986Y028384D01*
X003034Y028397D01*
X003084Y028406D01*
X003133Y028411D01*
X003184Y028412D01*
X003234Y028409D01*
X003283Y028402D01*
X003332Y028391D01*
X003380Y028376D01*
X003426Y028358D01*
X003471Y028336D01*
X003514Y028310D01*
X003555Y028281D01*
X003594Y028249D01*
X003630Y028214D01*
X003662Y028176D01*
X003692Y028136D01*
X003719Y028093D01*
X003742Y028049D01*
X003761Y028003D01*
X003777Y027955D01*
X003789Y027906D01*
X003797Y027857D01*
X003801Y027807D01*
X003801Y027757D01*
X003797Y027707D01*
X003789Y027658D01*
X003777Y027609D01*
X003761Y027561D01*
X003742Y027515D01*
X003719Y027471D01*
X003692Y027428D01*
X003662Y027388D01*
X003630Y027350D01*
X003594Y027315D01*
X003555Y027283D01*
X003514Y027254D01*
X003471Y027228D01*
X003426Y027206D01*
X003380Y027188D01*
X003332Y027173D01*
X003283Y027162D01*
X003234Y027155D01*
X003184Y027152D01*
X003133Y027153D01*
X003084Y027158D01*
X003034Y027167D01*
X002986Y027180D01*
X002939Y027196D01*
X002893Y027217D01*
X002849Y027241D01*
X002807Y027268D01*
X002767Y027298D01*
X002730Y027332D01*
X002696Y027369D01*
X002664Y027408D01*
X002636Y027449D01*
X002611Y027493D01*
X002590Y027538D01*
X002573Y027585D01*
X002559Y027633D01*
X002549Y027682D01*
X002543Y027732D01*
X002541Y027782D01*
X002778Y037231D02*
X002780Y037287D01*
X002786Y037342D01*
X002796Y037396D01*
X002809Y037450D01*
X002827Y037503D01*
X002848Y037554D01*
X002872Y037604D01*
X002900Y037652D01*
X002932Y037698D01*
X002966Y037742D01*
X003004Y037783D01*
X003044Y037821D01*
X003087Y037856D01*
X003132Y037888D01*
X003180Y037917D01*
X003229Y037943D01*
X003280Y037965D01*
X003332Y037983D01*
X003386Y037997D01*
X003441Y038008D01*
X003496Y038015D01*
X003551Y038018D01*
X003607Y038017D01*
X003662Y038012D01*
X003717Y038003D01*
X003771Y037991D01*
X003824Y037974D01*
X003876Y037954D01*
X003926Y037930D01*
X003974Y037903D01*
X004021Y037873D01*
X004065Y037839D01*
X004107Y037802D01*
X004145Y037762D01*
X004182Y037720D01*
X004215Y037675D01*
X004244Y037629D01*
X004271Y037580D01*
X004293Y037529D01*
X004313Y037477D01*
X004328Y037423D01*
X004340Y037369D01*
X004348Y037314D01*
X004352Y037259D01*
X004352Y037203D01*
X004348Y037148D01*
X004340Y037093D01*
X004328Y037039D01*
X004313Y036985D01*
X004293Y036933D01*
X004271Y036882D01*
X004244Y036833D01*
X004215Y036787D01*
X004182Y036742D01*
X004145Y036700D01*
X004107Y036660D01*
X004065Y036623D01*
X004021Y036589D01*
X003974Y036559D01*
X003926Y036532D01*
X003876Y036508D01*
X003824Y036488D01*
X003771Y036471D01*
X003717Y036459D01*
X003662Y036450D01*
X003607Y036445D01*
X003551Y036444D01*
X003496Y036447D01*
X003441Y036454D01*
X003386Y036465D01*
X003332Y036479D01*
X003280Y036497D01*
X003229Y036519D01*
X003180Y036545D01*
X003132Y036574D01*
X003087Y036606D01*
X003044Y036641D01*
X003004Y036679D01*
X002966Y036720D01*
X002932Y036764D01*
X002900Y036810D01*
X002872Y036858D01*
X002848Y036908D01*
X002827Y036959D01*
X002809Y037012D01*
X002796Y037066D01*
X002786Y037120D01*
X002780Y037175D01*
X002778Y037231D01*
X010022Y037624D02*
X010024Y037674D01*
X010030Y037724D01*
X010040Y037773D01*
X010054Y037821D01*
X010071Y037868D01*
X010092Y037913D01*
X010117Y037957D01*
X010145Y037998D01*
X010177Y038037D01*
X010211Y038074D01*
X010248Y038108D01*
X010288Y038138D01*
X010330Y038165D01*
X010374Y038189D01*
X010420Y038210D01*
X010467Y038226D01*
X010515Y038239D01*
X010565Y038248D01*
X010614Y038253D01*
X010665Y038254D01*
X010715Y038251D01*
X010764Y038244D01*
X010813Y038233D01*
X010861Y038218D01*
X010907Y038200D01*
X010952Y038178D01*
X010995Y038152D01*
X011036Y038123D01*
X011075Y038091D01*
X011111Y038056D01*
X011143Y038018D01*
X011173Y037978D01*
X011200Y037935D01*
X011223Y037891D01*
X011242Y037845D01*
X011258Y037797D01*
X011270Y037748D01*
X011278Y037699D01*
X011282Y037649D01*
X011282Y037599D01*
X011278Y037549D01*
X011270Y037500D01*
X011258Y037451D01*
X011242Y037403D01*
X011223Y037357D01*
X011200Y037313D01*
X011173Y037270D01*
X011143Y037230D01*
X011111Y037192D01*
X011075Y037157D01*
X011036Y037125D01*
X010995Y037096D01*
X010952Y037070D01*
X010907Y037048D01*
X010861Y037030D01*
X010813Y037015D01*
X010764Y037004D01*
X010715Y036997D01*
X010665Y036994D01*
X010614Y036995D01*
X010565Y037000D01*
X010515Y037009D01*
X010467Y037022D01*
X010420Y037038D01*
X010374Y037059D01*
X010330Y037083D01*
X010288Y037110D01*
X010248Y037140D01*
X010211Y037174D01*
X010177Y037211D01*
X010145Y037250D01*
X010117Y037291D01*
X010092Y037335D01*
X010071Y037380D01*
X010054Y037427D01*
X010040Y037475D01*
X010030Y037524D01*
X010024Y037574D01*
X010022Y037624D01*
X017974Y026707D02*
X017976Y026736D01*
X017982Y026764D01*
X017991Y026792D01*
X018004Y026818D01*
X018021Y026841D01*
X018040Y026863D01*
X018062Y026882D01*
X018087Y026897D01*
X018113Y026910D01*
X018141Y026918D01*
X018169Y026923D01*
X018198Y026924D01*
X018227Y026921D01*
X018255Y026914D01*
X018282Y026904D01*
X018308Y026890D01*
X018331Y026873D01*
X018352Y026853D01*
X018370Y026830D01*
X018385Y026805D01*
X018396Y026778D01*
X018404Y026750D01*
X018408Y026721D01*
X018408Y026693D01*
X018404Y026664D01*
X018396Y026636D01*
X018385Y026609D01*
X018370Y026584D01*
X018352Y026561D01*
X018331Y026541D01*
X018308Y026524D01*
X018282Y026510D01*
X018255Y026500D01*
X018227Y026493D01*
X018198Y026490D01*
X018169Y026491D01*
X018141Y026496D01*
X018113Y026504D01*
X018087Y026517D01*
X018062Y026532D01*
X018040Y026551D01*
X018021Y026573D01*
X018004Y026596D01*
X017991Y026622D01*
X017982Y026650D01*
X017976Y026678D01*
X017974Y026707D01*
X017974Y025707D02*
X017976Y025736D01*
X017982Y025764D01*
X017991Y025792D01*
X018004Y025818D01*
X018021Y025841D01*
X018040Y025863D01*
X018062Y025882D01*
X018087Y025897D01*
X018113Y025910D01*
X018141Y025918D01*
X018169Y025923D01*
X018198Y025924D01*
X018227Y025921D01*
X018255Y025914D01*
X018282Y025904D01*
X018308Y025890D01*
X018331Y025873D01*
X018352Y025853D01*
X018370Y025830D01*
X018385Y025805D01*
X018396Y025778D01*
X018404Y025750D01*
X018408Y025721D01*
X018408Y025693D01*
X018404Y025664D01*
X018396Y025636D01*
X018385Y025609D01*
X018370Y025584D01*
X018352Y025561D01*
X018331Y025541D01*
X018308Y025524D01*
X018282Y025510D01*
X018255Y025500D01*
X018227Y025493D01*
X018198Y025490D01*
X018169Y025491D01*
X018141Y025496D01*
X018113Y025504D01*
X018087Y025517D01*
X018062Y025532D01*
X018040Y025551D01*
X018021Y025573D01*
X018004Y025596D01*
X017991Y025622D01*
X017982Y025650D01*
X017976Y025678D01*
X017974Y025707D01*
X018974Y025707D02*
X018976Y025736D01*
X018982Y025764D01*
X018991Y025792D01*
X019004Y025818D01*
X019021Y025841D01*
X019040Y025863D01*
X019062Y025882D01*
X019087Y025897D01*
X019113Y025910D01*
X019141Y025918D01*
X019169Y025923D01*
X019198Y025924D01*
X019227Y025921D01*
X019255Y025914D01*
X019282Y025904D01*
X019308Y025890D01*
X019331Y025873D01*
X019352Y025853D01*
X019370Y025830D01*
X019385Y025805D01*
X019396Y025778D01*
X019404Y025750D01*
X019408Y025721D01*
X019408Y025693D01*
X019404Y025664D01*
X019396Y025636D01*
X019385Y025609D01*
X019370Y025584D01*
X019352Y025561D01*
X019331Y025541D01*
X019308Y025524D01*
X019282Y025510D01*
X019255Y025500D01*
X019227Y025493D01*
X019198Y025490D01*
X019169Y025491D01*
X019141Y025496D01*
X019113Y025504D01*
X019087Y025517D01*
X019062Y025532D01*
X019040Y025551D01*
X019021Y025573D01*
X019004Y025596D01*
X018991Y025622D01*
X018982Y025650D01*
X018976Y025678D01*
X018974Y025707D01*
X018974Y026707D02*
X018976Y026736D01*
X018982Y026764D01*
X018991Y026792D01*
X019004Y026818D01*
X019021Y026841D01*
X019040Y026863D01*
X019062Y026882D01*
X019087Y026897D01*
X019113Y026910D01*
X019141Y026918D01*
X019169Y026923D01*
X019198Y026924D01*
X019227Y026921D01*
X019255Y026914D01*
X019282Y026904D01*
X019308Y026890D01*
X019331Y026873D01*
X019352Y026853D01*
X019370Y026830D01*
X019385Y026805D01*
X019396Y026778D01*
X019404Y026750D01*
X019408Y026721D01*
X019408Y026693D01*
X019404Y026664D01*
X019396Y026636D01*
X019385Y026609D01*
X019370Y026584D01*
X019352Y026561D01*
X019331Y026541D01*
X019308Y026524D01*
X019282Y026510D01*
X019255Y026500D01*
X019227Y026493D01*
X019198Y026490D01*
X019169Y026491D01*
X019141Y026496D01*
X019113Y026504D01*
X019087Y026517D01*
X019062Y026532D01*
X019040Y026551D01*
X019021Y026573D01*
X019004Y026596D01*
X018991Y026622D01*
X018982Y026650D01*
X018976Y026678D01*
X018974Y026707D01*
X019974Y026707D02*
X019976Y026736D01*
X019982Y026764D01*
X019991Y026792D01*
X020004Y026818D01*
X020021Y026841D01*
X020040Y026863D01*
X020062Y026882D01*
X020087Y026897D01*
X020113Y026910D01*
X020141Y026918D01*
X020169Y026923D01*
X020198Y026924D01*
X020227Y026921D01*
X020255Y026914D01*
X020282Y026904D01*
X020308Y026890D01*
X020331Y026873D01*
X020352Y026853D01*
X020370Y026830D01*
X020385Y026805D01*
X020396Y026778D01*
X020404Y026750D01*
X020408Y026721D01*
X020408Y026693D01*
X020404Y026664D01*
X020396Y026636D01*
X020385Y026609D01*
X020370Y026584D01*
X020352Y026561D01*
X020331Y026541D01*
X020308Y026524D01*
X020282Y026510D01*
X020255Y026500D01*
X020227Y026493D01*
X020198Y026490D01*
X020169Y026491D01*
X020141Y026496D01*
X020113Y026504D01*
X020087Y026517D01*
X020062Y026532D01*
X020040Y026551D01*
X020021Y026573D01*
X020004Y026596D01*
X019991Y026622D01*
X019982Y026650D01*
X019976Y026678D01*
X019974Y026707D01*
X019974Y025707D02*
X019976Y025736D01*
X019982Y025764D01*
X019991Y025792D01*
X020004Y025818D01*
X020021Y025841D01*
X020040Y025863D01*
X020062Y025882D01*
X020087Y025897D01*
X020113Y025910D01*
X020141Y025918D01*
X020169Y025923D01*
X020198Y025924D01*
X020227Y025921D01*
X020255Y025914D01*
X020282Y025904D01*
X020308Y025890D01*
X020331Y025873D01*
X020352Y025853D01*
X020370Y025830D01*
X020385Y025805D01*
X020396Y025778D01*
X020404Y025750D01*
X020408Y025721D01*
X020408Y025693D01*
X020404Y025664D01*
X020396Y025636D01*
X020385Y025609D01*
X020370Y025584D01*
X020352Y025561D01*
X020331Y025541D01*
X020308Y025524D01*
X020282Y025510D01*
X020255Y025500D01*
X020227Y025493D01*
X020198Y025490D01*
X020169Y025491D01*
X020141Y025496D01*
X020113Y025504D01*
X020087Y025517D01*
X020062Y025532D01*
X020040Y025551D01*
X020021Y025573D01*
X020004Y025596D01*
X019991Y025622D01*
X019982Y025650D01*
X019976Y025678D01*
X019974Y025707D01*
X020974Y025707D02*
X020976Y025736D01*
X020982Y025764D01*
X020991Y025792D01*
X021004Y025818D01*
X021021Y025841D01*
X021040Y025863D01*
X021062Y025882D01*
X021087Y025897D01*
X021113Y025910D01*
X021141Y025918D01*
X021169Y025923D01*
X021198Y025924D01*
X021227Y025921D01*
X021255Y025914D01*
X021282Y025904D01*
X021308Y025890D01*
X021331Y025873D01*
X021352Y025853D01*
X021370Y025830D01*
X021385Y025805D01*
X021396Y025778D01*
X021404Y025750D01*
X021408Y025721D01*
X021408Y025693D01*
X021404Y025664D01*
X021396Y025636D01*
X021385Y025609D01*
X021370Y025584D01*
X021352Y025561D01*
X021331Y025541D01*
X021308Y025524D01*
X021282Y025510D01*
X021255Y025500D01*
X021227Y025493D01*
X021198Y025490D01*
X021169Y025491D01*
X021141Y025496D01*
X021113Y025504D01*
X021087Y025517D01*
X021062Y025532D01*
X021040Y025551D01*
X021021Y025573D01*
X021004Y025596D01*
X020991Y025622D01*
X020982Y025650D01*
X020976Y025678D01*
X020974Y025707D01*
X020974Y026707D02*
X020976Y026736D01*
X020982Y026764D01*
X020991Y026792D01*
X021004Y026818D01*
X021021Y026841D01*
X021040Y026863D01*
X021062Y026882D01*
X021087Y026897D01*
X021113Y026910D01*
X021141Y026918D01*
X021169Y026923D01*
X021198Y026924D01*
X021227Y026921D01*
X021255Y026914D01*
X021282Y026904D01*
X021308Y026890D01*
X021331Y026873D01*
X021352Y026853D01*
X021370Y026830D01*
X021385Y026805D01*
X021396Y026778D01*
X021404Y026750D01*
X021408Y026721D01*
X021408Y026693D01*
X021404Y026664D01*
X021396Y026636D01*
X021385Y026609D01*
X021370Y026584D01*
X021352Y026561D01*
X021331Y026541D01*
X021308Y026524D01*
X021282Y026510D01*
X021255Y026500D01*
X021227Y026493D01*
X021198Y026490D01*
X021169Y026491D01*
X021141Y026496D01*
X021113Y026504D01*
X021087Y026517D01*
X021062Y026532D01*
X021040Y026551D01*
X021021Y026573D01*
X021004Y026596D01*
X020991Y026622D01*
X020982Y026650D01*
X020976Y026678D01*
X020974Y026707D01*
X021974Y026707D02*
X021976Y026736D01*
X021982Y026764D01*
X021991Y026792D01*
X022004Y026818D01*
X022021Y026841D01*
X022040Y026863D01*
X022062Y026882D01*
X022087Y026897D01*
X022113Y026910D01*
X022141Y026918D01*
X022169Y026923D01*
X022198Y026924D01*
X022227Y026921D01*
X022255Y026914D01*
X022282Y026904D01*
X022308Y026890D01*
X022331Y026873D01*
X022352Y026853D01*
X022370Y026830D01*
X022385Y026805D01*
X022396Y026778D01*
X022404Y026750D01*
X022408Y026721D01*
X022408Y026693D01*
X022404Y026664D01*
X022396Y026636D01*
X022385Y026609D01*
X022370Y026584D01*
X022352Y026561D01*
X022331Y026541D01*
X022308Y026524D01*
X022282Y026510D01*
X022255Y026500D01*
X022227Y026493D01*
X022198Y026490D01*
X022169Y026491D01*
X022141Y026496D01*
X022113Y026504D01*
X022087Y026517D01*
X022062Y026532D01*
X022040Y026551D01*
X022021Y026573D01*
X022004Y026596D01*
X021991Y026622D01*
X021982Y026650D01*
X021976Y026678D01*
X021974Y026707D01*
X021974Y025707D02*
X021976Y025736D01*
X021982Y025764D01*
X021991Y025792D01*
X022004Y025818D01*
X022021Y025841D01*
X022040Y025863D01*
X022062Y025882D01*
X022087Y025897D01*
X022113Y025910D01*
X022141Y025918D01*
X022169Y025923D01*
X022198Y025924D01*
X022227Y025921D01*
X022255Y025914D01*
X022282Y025904D01*
X022308Y025890D01*
X022331Y025873D01*
X022352Y025853D01*
X022370Y025830D01*
X022385Y025805D01*
X022396Y025778D01*
X022404Y025750D01*
X022408Y025721D01*
X022408Y025693D01*
X022404Y025664D01*
X022396Y025636D01*
X022385Y025609D01*
X022370Y025584D01*
X022352Y025561D01*
X022331Y025541D01*
X022308Y025524D01*
X022282Y025510D01*
X022255Y025500D01*
X022227Y025493D01*
X022198Y025490D01*
X022169Y025491D01*
X022141Y025496D01*
X022113Y025504D01*
X022087Y025517D01*
X022062Y025532D01*
X022040Y025551D01*
X022021Y025573D01*
X022004Y025596D01*
X021991Y025622D01*
X021982Y025650D01*
X021976Y025678D01*
X021974Y025707D01*
X022974Y025707D02*
X022976Y025736D01*
X022982Y025764D01*
X022991Y025792D01*
X023004Y025818D01*
X023021Y025841D01*
X023040Y025863D01*
X023062Y025882D01*
X023087Y025897D01*
X023113Y025910D01*
X023141Y025918D01*
X023169Y025923D01*
X023198Y025924D01*
X023227Y025921D01*
X023255Y025914D01*
X023282Y025904D01*
X023308Y025890D01*
X023331Y025873D01*
X023352Y025853D01*
X023370Y025830D01*
X023385Y025805D01*
X023396Y025778D01*
X023404Y025750D01*
X023408Y025721D01*
X023408Y025693D01*
X023404Y025664D01*
X023396Y025636D01*
X023385Y025609D01*
X023370Y025584D01*
X023352Y025561D01*
X023331Y025541D01*
X023308Y025524D01*
X023282Y025510D01*
X023255Y025500D01*
X023227Y025493D01*
X023198Y025490D01*
X023169Y025491D01*
X023141Y025496D01*
X023113Y025504D01*
X023087Y025517D01*
X023062Y025532D01*
X023040Y025551D01*
X023021Y025573D01*
X023004Y025596D01*
X022991Y025622D01*
X022982Y025650D01*
X022976Y025678D01*
X022974Y025707D01*
X022974Y026707D02*
X022976Y026736D01*
X022982Y026764D01*
X022991Y026792D01*
X023004Y026818D01*
X023021Y026841D01*
X023040Y026863D01*
X023062Y026882D01*
X023087Y026897D01*
X023113Y026910D01*
X023141Y026918D01*
X023169Y026923D01*
X023198Y026924D01*
X023227Y026921D01*
X023255Y026914D01*
X023282Y026904D01*
X023308Y026890D01*
X023331Y026873D01*
X023352Y026853D01*
X023370Y026830D01*
X023385Y026805D01*
X023396Y026778D01*
X023404Y026750D01*
X023408Y026721D01*
X023408Y026693D01*
X023404Y026664D01*
X023396Y026636D01*
X023385Y026609D01*
X023370Y026584D01*
X023352Y026561D01*
X023331Y026541D01*
X023308Y026524D01*
X023282Y026510D01*
X023255Y026500D01*
X023227Y026493D01*
X023198Y026490D01*
X023169Y026491D01*
X023141Y026496D01*
X023113Y026504D01*
X023087Y026517D01*
X023062Y026532D01*
X023040Y026551D01*
X023021Y026573D01*
X023004Y026596D01*
X022991Y026622D01*
X022982Y026650D01*
X022976Y026678D01*
X022974Y026707D01*
X030101Y037624D02*
X030103Y037674D01*
X030109Y037724D01*
X030119Y037773D01*
X030133Y037821D01*
X030150Y037868D01*
X030171Y037913D01*
X030196Y037957D01*
X030224Y037998D01*
X030256Y038037D01*
X030290Y038074D01*
X030327Y038108D01*
X030367Y038138D01*
X030409Y038165D01*
X030453Y038189D01*
X030499Y038210D01*
X030546Y038226D01*
X030594Y038239D01*
X030644Y038248D01*
X030693Y038253D01*
X030744Y038254D01*
X030794Y038251D01*
X030843Y038244D01*
X030892Y038233D01*
X030940Y038218D01*
X030986Y038200D01*
X031031Y038178D01*
X031074Y038152D01*
X031115Y038123D01*
X031154Y038091D01*
X031190Y038056D01*
X031222Y038018D01*
X031252Y037978D01*
X031279Y037935D01*
X031302Y037891D01*
X031321Y037845D01*
X031337Y037797D01*
X031349Y037748D01*
X031357Y037699D01*
X031361Y037649D01*
X031361Y037599D01*
X031357Y037549D01*
X031349Y037500D01*
X031337Y037451D01*
X031321Y037403D01*
X031302Y037357D01*
X031279Y037313D01*
X031252Y037270D01*
X031222Y037230D01*
X031190Y037192D01*
X031154Y037157D01*
X031115Y037125D01*
X031074Y037096D01*
X031031Y037070D01*
X030986Y037048D01*
X030940Y037030D01*
X030892Y037015D01*
X030843Y037004D01*
X030794Y036997D01*
X030744Y036994D01*
X030693Y036995D01*
X030644Y037000D01*
X030594Y037009D01*
X030546Y037022D01*
X030499Y037038D01*
X030453Y037059D01*
X030409Y037083D01*
X030367Y037110D01*
X030327Y037140D01*
X030290Y037174D01*
X030256Y037211D01*
X030224Y037250D01*
X030196Y037291D01*
X030171Y037335D01*
X030150Y037380D01*
X030133Y037427D01*
X030119Y037475D01*
X030109Y037524D01*
X030103Y037574D01*
X030101Y037624D01*
X036518Y032034D02*
X036518Y031561D01*
X037187Y034869D02*
X037189Y034919D01*
X037195Y034969D01*
X037205Y035018D01*
X037219Y035066D01*
X037236Y035113D01*
X037257Y035158D01*
X037282Y035202D01*
X037310Y035243D01*
X037342Y035282D01*
X037376Y035319D01*
X037413Y035353D01*
X037453Y035383D01*
X037495Y035410D01*
X037539Y035434D01*
X037585Y035455D01*
X037632Y035471D01*
X037680Y035484D01*
X037730Y035493D01*
X037779Y035498D01*
X037830Y035499D01*
X037880Y035496D01*
X037929Y035489D01*
X037978Y035478D01*
X038026Y035463D01*
X038072Y035445D01*
X038117Y035423D01*
X038160Y035397D01*
X038201Y035368D01*
X038240Y035336D01*
X038276Y035301D01*
X038308Y035263D01*
X038338Y035223D01*
X038365Y035180D01*
X038388Y035136D01*
X038407Y035090D01*
X038423Y035042D01*
X038435Y034993D01*
X038443Y034944D01*
X038447Y034894D01*
X038447Y034844D01*
X038443Y034794D01*
X038435Y034745D01*
X038423Y034696D01*
X038407Y034648D01*
X038388Y034602D01*
X038365Y034558D01*
X038338Y034515D01*
X038308Y034475D01*
X038276Y034437D01*
X038240Y034402D01*
X038201Y034370D01*
X038160Y034341D01*
X038117Y034315D01*
X038072Y034293D01*
X038026Y034275D01*
X037978Y034260D01*
X037929Y034249D01*
X037880Y034242D01*
X037830Y034239D01*
X037779Y034240D01*
X037730Y034245D01*
X037680Y034254D01*
X037632Y034267D01*
X037585Y034283D01*
X037539Y034304D01*
X037495Y034328D01*
X037453Y034355D01*
X037413Y034385D01*
X037376Y034419D01*
X037342Y034456D01*
X037310Y034495D01*
X037282Y034536D01*
X037257Y034580D01*
X037236Y034625D01*
X037219Y034672D01*
X037205Y034720D01*
X037195Y034769D01*
X037189Y034819D01*
X037187Y034869D01*
X037030Y037231D02*
X037032Y037287D01*
X037038Y037342D01*
X037048Y037396D01*
X037061Y037450D01*
X037079Y037503D01*
X037100Y037554D01*
X037124Y037604D01*
X037152Y037652D01*
X037184Y037698D01*
X037218Y037742D01*
X037256Y037783D01*
X037296Y037821D01*
X037339Y037856D01*
X037384Y037888D01*
X037432Y037917D01*
X037481Y037943D01*
X037532Y037965D01*
X037584Y037983D01*
X037638Y037997D01*
X037693Y038008D01*
X037748Y038015D01*
X037803Y038018D01*
X037859Y038017D01*
X037914Y038012D01*
X037969Y038003D01*
X038023Y037991D01*
X038076Y037974D01*
X038128Y037954D01*
X038178Y037930D01*
X038226Y037903D01*
X038273Y037873D01*
X038317Y037839D01*
X038359Y037802D01*
X038397Y037762D01*
X038434Y037720D01*
X038467Y037675D01*
X038496Y037629D01*
X038523Y037580D01*
X038545Y037529D01*
X038565Y037477D01*
X038580Y037423D01*
X038592Y037369D01*
X038600Y037314D01*
X038604Y037259D01*
X038604Y037203D01*
X038600Y037148D01*
X038592Y037093D01*
X038580Y037039D01*
X038565Y036985D01*
X038545Y036933D01*
X038523Y036882D01*
X038496Y036833D01*
X038467Y036787D01*
X038434Y036742D01*
X038397Y036700D01*
X038359Y036660D01*
X038317Y036623D01*
X038273Y036589D01*
X038226Y036559D01*
X038178Y036532D01*
X038128Y036508D01*
X038076Y036488D01*
X038023Y036471D01*
X037969Y036459D01*
X037914Y036450D01*
X037859Y036445D01*
X037803Y036444D01*
X037748Y036447D01*
X037693Y036454D01*
X037638Y036465D01*
X037584Y036479D01*
X037532Y036497D01*
X037481Y036519D01*
X037432Y036545D01*
X037384Y036574D01*
X037339Y036606D01*
X037296Y036641D01*
X037256Y036679D01*
X037218Y036720D01*
X037184Y036764D01*
X037152Y036810D01*
X037124Y036858D01*
X037100Y036908D01*
X037079Y036959D01*
X037061Y037012D01*
X037048Y037066D01*
X037038Y037120D01*
X037032Y037175D01*
X037030Y037231D01*
X037187Y021876D02*
X037189Y021926D01*
X037195Y021976D01*
X037205Y022025D01*
X037219Y022073D01*
X037236Y022120D01*
X037257Y022165D01*
X037282Y022209D01*
X037310Y022250D01*
X037342Y022289D01*
X037376Y022326D01*
X037413Y022360D01*
X037453Y022390D01*
X037495Y022417D01*
X037539Y022441D01*
X037585Y022462D01*
X037632Y022478D01*
X037680Y022491D01*
X037730Y022500D01*
X037779Y022505D01*
X037830Y022506D01*
X037880Y022503D01*
X037929Y022496D01*
X037978Y022485D01*
X038026Y022470D01*
X038072Y022452D01*
X038117Y022430D01*
X038160Y022404D01*
X038201Y022375D01*
X038240Y022343D01*
X038276Y022308D01*
X038308Y022270D01*
X038338Y022230D01*
X038365Y022187D01*
X038388Y022143D01*
X038407Y022097D01*
X038423Y022049D01*
X038435Y022000D01*
X038443Y021951D01*
X038447Y021901D01*
X038447Y021851D01*
X038443Y021801D01*
X038435Y021752D01*
X038423Y021703D01*
X038407Y021655D01*
X038388Y021609D01*
X038365Y021565D01*
X038338Y021522D01*
X038308Y021482D01*
X038276Y021444D01*
X038240Y021409D01*
X038201Y021377D01*
X038160Y021348D01*
X038117Y021322D01*
X038072Y021300D01*
X038026Y021282D01*
X037978Y021267D01*
X037929Y021256D01*
X037880Y021249D01*
X037830Y021246D01*
X037779Y021247D01*
X037730Y021252D01*
X037680Y021261D01*
X037632Y021274D01*
X037585Y021290D01*
X037539Y021311D01*
X037495Y021335D01*
X037453Y021362D01*
X037413Y021392D01*
X037376Y021426D01*
X037342Y021463D01*
X037310Y021502D01*
X037282Y021543D01*
X037257Y021587D01*
X037236Y021632D01*
X037219Y021679D01*
X037205Y021727D01*
X037195Y021776D01*
X037189Y021826D01*
X037187Y021876D01*
D13*
X036518Y024711D02*
X036518Y032034D01*
X038171Y032034D01*
X038171Y024711D01*
X036518Y024711D01*
D14*
X032095Y025617D02*
X032040Y025617D01*
X032040Y025437D01*
X031940Y025437D02*
X031940Y025617D01*
X031885Y025617D01*
X031940Y025617D02*
X031940Y025797D01*
X032040Y025797D02*
X032040Y025617D01*
X032040Y026145D02*
X032040Y026325D01*
X032095Y026325D01*
X032040Y026325D02*
X032040Y026505D01*
X031940Y026505D02*
X031940Y026325D01*
X031885Y026325D01*
X031940Y026325D02*
X031940Y026145D01*
X031940Y026854D02*
X031940Y027034D01*
X031885Y027034D01*
X031940Y027034D02*
X031940Y027214D01*
X032040Y027214D02*
X032040Y027034D01*
X032095Y027034D01*
X032040Y027034D02*
X032040Y026854D01*
X030832Y027141D02*
X030652Y027141D01*
X030652Y027086D01*
X030652Y027141D02*
X030472Y027141D01*
X030472Y027241D02*
X030652Y027241D01*
X030652Y027296D01*
X030652Y027241D02*
X030832Y027241D01*
X031940Y029256D02*
X031940Y029436D01*
X031885Y029436D01*
X031940Y029436D02*
X031940Y029616D01*
X032040Y029616D02*
X032040Y029436D01*
X032095Y029436D01*
X032040Y029436D02*
X032040Y029256D01*
X032040Y029964D02*
X032040Y030144D01*
X032095Y030144D01*
X032040Y030144D02*
X032040Y030324D01*
X031940Y030324D02*
X031940Y030144D01*
X031885Y030144D01*
X031940Y030144D02*
X031940Y029964D01*
X029178Y030665D02*
X029178Y030805D01*
X028898Y030805D02*
X028898Y030665D01*
X028565Y029304D02*
X028565Y029249D01*
X028745Y029249D01*
X028745Y029149D02*
X028565Y029149D01*
X028565Y029094D01*
X028565Y029149D02*
X028385Y029149D01*
X028385Y029249D02*
X028565Y029249D01*
X028751Y028356D02*
X028751Y028176D01*
X028696Y028176D01*
X028751Y028176D02*
X028751Y027996D01*
X028851Y027996D02*
X028851Y028176D01*
X028906Y028176D01*
X028851Y028176D02*
X028851Y028356D01*
X028891Y026387D02*
X028891Y026207D01*
X028946Y026207D01*
X028891Y026207D02*
X028891Y026027D01*
X028791Y026027D02*
X028791Y026207D01*
X028736Y026207D01*
X028791Y026207D02*
X028791Y026387D01*
X025871Y025175D02*
X025871Y025035D01*
X025591Y025035D02*
X025591Y025175D01*
X025201Y025175D02*
X025201Y025035D01*
X024921Y025035D02*
X024921Y025175D01*
X025346Y024261D02*
X025486Y024261D01*
X025486Y023981D02*
X025346Y023981D01*
X025562Y028035D02*
X025562Y028215D01*
X025507Y028215D01*
X025562Y028215D02*
X025562Y028395D01*
X025662Y028395D02*
X025662Y028215D01*
X025717Y028215D01*
X025662Y028215D02*
X025662Y028035D01*
X023991Y028599D02*
X023991Y028770D01*
X023935Y028826D01*
X023821Y028826D01*
X023765Y028770D01*
X023623Y028826D02*
X023453Y028826D01*
X023396Y028770D01*
X023453Y028713D01*
X023566Y028713D01*
X023623Y028656D01*
X023566Y028599D01*
X023396Y028599D01*
X023255Y028599D02*
X023085Y028599D01*
X023028Y028656D01*
X023085Y028713D01*
X023255Y028713D01*
X023255Y028770D02*
X023255Y028599D01*
X023255Y028770D02*
X023198Y028826D01*
X023085Y028826D01*
X022839Y028940D02*
X022839Y028599D01*
X022782Y028599D02*
X022896Y028599D01*
X022839Y028940D02*
X022782Y028940D01*
X022641Y028940D02*
X022414Y028940D01*
X022414Y028599D01*
X022414Y028770D02*
X022528Y028770D01*
X022865Y029099D02*
X023005Y029099D01*
X023005Y029379D02*
X022865Y029379D01*
X022865Y029768D02*
X023005Y029768D01*
X023005Y030048D02*
X022865Y030048D01*
X022885Y030319D02*
X022885Y030499D01*
X022830Y030499D01*
X022885Y030499D02*
X022885Y030679D01*
X022985Y030679D02*
X022985Y030499D01*
X023040Y030499D01*
X022985Y030499D02*
X022985Y030319D01*
X023005Y030988D02*
X022865Y030988D01*
X022865Y031268D02*
X023005Y031268D01*
X021667Y031776D02*
X021527Y031776D01*
X021527Y032056D02*
X021667Y032056D01*
X023101Y032799D02*
X023241Y032799D01*
X023241Y033079D02*
X023101Y033079D01*
X023101Y034729D02*
X023241Y034729D01*
X023241Y035009D02*
X023101Y035009D01*
X024331Y034899D02*
X024331Y034759D01*
X024611Y034759D02*
X024611Y034899D01*
X026654Y034191D02*
X026654Y034051D01*
X026934Y034051D02*
X026934Y034191D01*
X028150Y034191D02*
X028150Y034051D01*
X028430Y034051D02*
X028430Y034191D01*
X029685Y034191D02*
X029685Y034051D01*
X029965Y034051D02*
X029965Y034191D01*
X031684Y036146D02*
X031824Y036146D01*
X031824Y036426D02*
X031684Y036426D01*
X033397Y037090D02*
X033397Y037270D01*
X033342Y037270D01*
X033397Y037270D02*
X033397Y037450D01*
X033497Y037450D02*
X033497Y037270D01*
X033552Y037270D01*
X033497Y037270D02*
X033497Y037090D01*
X028513Y037310D02*
X028458Y037310D01*
X028458Y037130D01*
X028358Y037130D02*
X028358Y037310D01*
X028303Y037310D01*
X028358Y037310D02*
X028358Y037490D01*
X028458Y037490D02*
X028458Y037310D01*
X025438Y031926D02*
X025258Y031926D01*
X025258Y031981D01*
X025258Y031926D02*
X025078Y031926D01*
X025078Y031826D02*
X025258Y031826D01*
X025258Y031771D01*
X025258Y031826D02*
X025438Y031826D01*
X023765Y028940D02*
X023765Y028599D01*
X020171Y030673D02*
X020031Y030673D01*
X020031Y030953D02*
X020171Y030953D01*
X018371Y030598D02*
X018257Y030598D01*
X018314Y030655D02*
X018314Y030428D01*
X018371Y030371D01*
X018116Y030484D02*
X017889Y030484D01*
X017889Y030428D02*
X017889Y030541D01*
X017946Y030598D01*
X018059Y030598D01*
X018116Y030541D01*
X018116Y030484D01*
X018059Y030371D02*
X017946Y030371D01*
X017889Y030428D01*
X017748Y030428D02*
X017691Y030484D01*
X017578Y030484D01*
X017521Y030541D01*
X017578Y030598D01*
X017748Y030598D01*
X017748Y030428D02*
X017691Y030371D01*
X017521Y030371D01*
X017379Y030484D02*
X017152Y030484D01*
X017152Y030428D02*
X017152Y030541D01*
X017209Y030598D01*
X017323Y030598D01*
X017379Y030541D01*
X017379Y030484D01*
X017323Y030371D02*
X017209Y030371D01*
X017152Y030428D01*
X017011Y030371D02*
X016898Y030484D01*
X016954Y030484D02*
X016784Y030484D01*
X016784Y030371D02*
X016784Y030711D01*
X016954Y030711D01*
X017011Y030655D01*
X017011Y030541D01*
X016954Y030484D01*
X018425Y033381D02*
X018425Y033521D01*
X018705Y033521D02*
X018705Y033381D01*
X019094Y033381D02*
X019094Y033521D01*
X019374Y033521D02*
X019374Y033381D01*
X018714Y034256D02*
X018574Y034256D01*
X018574Y034536D02*
X018714Y034536D01*
X018733Y034807D02*
X018733Y034987D01*
X018788Y034987D01*
X018733Y034987D02*
X018733Y035167D01*
X018633Y035167D02*
X018633Y034987D01*
X018578Y034987D01*
X018633Y034987D02*
X018633Y034807D01*
X017450Y034987D02*
X017395Y034987D01*
X017395Y035167D01*
X017295Y035167D02*
X017295Y034987D01*
X017240Y034987D01*
X017295Y034987D02*
X017295Y034807D01*
X017395Y034807D02*
X017395Y034987D01*
X017415Y034536D02*
X017275Y034536D01*
X017275Y034256D02*
X017415Y034256D01*
X019763Y035763D02*
X019943Y035763D01*
X019943Y035708D01*
X019943Y035763D02*
X020123Y035763D01*
X020123Y035863D02*
X019943Y035863D01*
X019943Y035918D01*
X019943Y035863D02*
X019763Y035863D01*
X018143Y037090D02*
X018143Y037270D01*
X018198Y037270D01*
X018143Y037270D02*
X018143Y037450D01*
X018043Y037450D02*
X018043Y037270D01*
X017988Y037270D01*
X018043Y037270D02*
X018043Y037090D01*
X014329Y034499D02*
X014149Y034499D01*
X014149Y034554D01*
X014149Y034499D02*
X013969Y034499D01*
X013969Y034399D02*
X014149Y034399D01*
X014149Y034344D01*
X014149Y034399D02*
X014329Y034399D01*
X013320Y034261D02*
X013180Y034261D01*
X013180Y033981D02*
X013320Y033981D01*
X013320Y034610D02*
X013180Y034610D01*
X013180Y034890D02*
X013320Y034890D01*
X013300Y035870D02*
X013300Y036050D01*
X013355Y036050D01*
X013300Y036050D02*
X013300Y036230D01*
X013200Y036230D02*
X013200Y036050D01*
X013145Y036050D01*
X013200Y036050D02*
X013200Y035870D01*
X013180Y036579D02*
X013320Y036579D01*
X013320Y036859D02*
X013180Y036859D01*
X013200Y037169D02*
X013200Y037349D01*
X013145Y037349D01*
X013200Y037349D02*
X013200Y037529D01*
X013300Y037529D02*
X013300Y037349D01*
X013355Y037349D01*
X013300Y037349D02*
X013300Y037169D01*
X013338Y031150D02*
X013478Y031150D01*
X013478Y030870D02*
X013338Y030870D01*
X012091Y027655D02*
X012091Y027515D01*
X011811Y027515D02*
X011811Y027655D01*
X011422Y027655D02*
X011422Y027515D01*
X011142Y027515D02*
X011142Y027655D01*
X010792Y027655D02*
X010792Y027515D01*
X010512Y027515D02*
X010512Y027655D01*
X010162Y027655D02*
X010162Y027515D01*
X009882Y027515D02*
X009882Y027655D01*
X008193Y027655D02*
X008193Y027515D01*
X007913Y027515D02*
X007913Y027655D01*
X007603Y027635D02*
X007423Y027635D01*
X007423Y027690D01*
X007423Y027635D02*
X007243Y027635D01*
X007243Y027535D02*
X007423Y027535D01*
X007423Y027480D01*
X007423Y027535D02*
X007603Y027535D01*
X006934Y027535D02*
X006754Y027535D01*
X006754Y027480D01*
X006754Y027535D02*
X006574Y027535D01*
X006574Y027635D02*
X006754Y027635D01*
X006754Y027690D01*
X006754Y027635D02*
X006934Y027635D01*
X006304Y027635D02*
X006124Y027635D01*
X006124Y027690D01*
X006124Y027635D02*
X005944Y027635D01*
X005944Y027535D02*
X006124Y027535D01*
X006124Y027480D01*
X006124Y027535D02*
X006304Y027535D01*
X008898Y025844D02*
X008898Y025704D01*
X009178Y025704D02*
X009178Y025844D01*
X009178Y024545D02*
X009178Y024405D01*
X008898Y024405D02*
X008898Y024545D01*
X009342Y023631D02*
X009342Y023451D01*
X009287Y023451D01*
X009342Y023451D02*
X009342Y023271D01*
X009442Y023271D02*
X009442Y023451D01*
X009497Y023451D01*
X009442Y023451D02*
X009442Y023631D01*
X011180Y024543D02*
X011360Y024543D01*
X011360Y024488D01*
X011360Y024543D02*
X011540Y024543D01*
X011540Y024643D02*
X011360Y024643D01*
X011360Y024698D01*
X011360Y024643D02*
X011180Y024643D01*
X011220Y025743D02*
X011220Y025883D01*
X011500Y025883D02*
X011500Y025743D01*
X012013Y025776D02*
X012193Y025776D01*
X012193Y025721D01*
X012193Y025776D02*
X012373Y025776D01*
X012373Y025876D02*
X012193Y025876D01*
X012193Y025931D01*
X012193Y025876D02*
X012013Y025876D01*
X012964Y027051D02*
X012964Y027231D01*
X012909Y027231D01*
X012964Y027231D02*
X012964Y027411D01*
X013064Y027411D02*
X013064Y027231D01*
X013119Y027231D01*
X013064Y027231D02*
X013064Y027051D01*
X020669Y022438D02*
X020849Y022438D01*
X020849Y022493D01*
X020849Y022438D02*
X021029Y022438D01*
X021029Y022338D02*
X020849Y022338D01*
X020849Y022283D01*
X020849Y022338D02*
X020669Y022338D01*
X021299Y022318D02*
X021299Y022458D01*
X021579Y022458D02*
X021579Y022318D01*
X019186Y017292D02*
X019046Y017292D01*
X019046Y017012D02*
X019186Y017012D01*
X019166Y016072D02*
X019166Y015892D01*
X019221Y015892D01*
X019166Y015892D02*
X019166Y015712D01*
X019066Y015712D02*
X019066Y015892D01*
X019011Y015892D01*
X019066Y015892D02*
X019066Y016072D01*
X023240Y037090D02*
X023240Y037270D01*
X023185Y037270D01*
X023240Y037270D02*
X023240Y037450D01*
X023340Y037450D02*
X023340Y037270D01*
X023395Y037270D01*
X023340Y037270D02*
X023340Y037090D01*
X008158Y037310D02*
X008103Y037310D01*
X008103Y037130D01*
X008003Y037130D02*
X008003Y037310D01*
X007948Y037310D01*
X008003Y037310D02*
X008003Y037490D01*
X008103Y037490D02*
X008103Y037310D01*
D15*
X008044Y037619D02*
X008178Y037752D01*
X008178Y037786D01*
X008144Y037819D01*
X008078Y037819D01*
X008044Y037786D01*
X007957Y037786D02*
X007923Y037819D01*
X007857Y037819D01*
X007823Y037786D01*
X007823Y037652D01*
X007857Y037619D01*
X007923Y037619D01*
X007957Y037652D01*
X008044Y037619D02*
X008178Y037619D01*
X008182Y036845D02*
X008182Y036644D01*
X008249Y036711D01*
X008316Y036644D01*
X008316Y036845D01*
X008403Y036845D02*
X008503Y036845D01*
X008537Y036811D01*
X008537Y036745D01*
X008503Y036711D01*
X008403Y036711D01*
X008403Y036644D02*
X008403Y036845D01*
X008470Y036711D02*
X008537Y036644D01*
X008624Y036678D02*
X008658Y036644D01*
X008724Y036644D01*
X008758Y036678D01*
X008758Y036811D01*
X008724Y036845D01*
X008658Y036845D01*
X008624Y036811D01*
X008624Y036678D01*
X008845Y036678D02*
X008879Y036644D01*
X008945Y036644D01*
X008979Y036678D01*
X008979Y036811D01*
X008945Y036845D01*
X008879Y036845D01*
X008845Y036811D01*
X008845Y036678D01*
X009066Y036644D02*
X009066Y036845D01*
X009133Y036778D01*
X009200Y036845D01*
X009200Y036644D01*
X009287Y036678D02*
X009321Y036644D01*
X009387Y036644D01*
X009421Y036678D01*
X009421Y036711D01*
X009387Y036745D01*
X009354Y036745D01*
X009387Y036745D02*
X009421Y036778D01*
X009421Y036811D01*
X009387Y036845D01*
X009321Y036845D01*
X009287Y036811D01*
X009508Y036811D02*
X009542Y036845D01*
X009608Y036845D01*
X009642Y036811D01*
X009642Y036778D01*
X009508Y036644D01*
X009642Y036644D01*
X008095Y036644D02*
X007961Y036644D01*
X008095Y036778D01*
X008095Y036811D01*
X008061Y036845D01*
X007995Y036845D01*
X007961Y036811D01*
X007874Y036811D02*
X007874Y036778D01*
X007840Y036745D01*
X007874Y036711D01*
X007874Y036678D01*
X007840Y036644D01*
X007774Y036644D01*
X007740Y036678D01*
X007807Y036745D02*
X007840Y036745D01*
X007874Y036811D02*
X007840Y036845D01*
X007774Y036845D01*
X007740Y036811D01*
X007653Y036811D02*
X007653Y036745D01*
X007619Y036711D01*
X007519Y036711D01*
X007519Y036644D02*
X007519Y036845D01*
X007619Y036845D01*
X007653Y036811D01*
X007432Y036811D02*
X007398Y036845D01*
X007332Y036845D01*
X007298Y036811D01*
X007298Y036778D01*
X007332Y036745D01*
X007398Y036745D01*
X007432Y036711D01*
X007432Y036678D01*
X007398Y036644D01*
X007332Y036644D01*
X007298Y036678D01*
X007211Y036644D02*
X007077Y036644D01*
X007077Y036845D01*
X007211Y036845D01*
X007144Y036745D02*
X007077Y036745D01*
X012386Y036253D02*
X012420Y036253D01*
X012553Y036119D01*
X012587Y036119D01*
X012553Y036032D02*
X012587Y035999D01*
X012587Y035932D01*
X012553Y035898D01*
X012420Y035898D01*
X012386Y035932D01*
X012386Y035999D01*
X012420Y036032D01*
X012386Y036119D02*
X012386Y036253D01*
X012427Y035562D02*
X012394Y035529D01*
X012394Y035462D01*
X012427Y035429D01*
X012427Y035341D02*
X012394Y035308D01*
X012394Y035208D01*
X012594Y035208D01*
X012594Y035308D01*
X012561Y035341D01*
X012427Y035341D01*
X012594Y035429D02*
X012461Y035562D01*
X012427Y035562D01*
X012594Y035562D02*
X012594Y035429D01*
X012645Y035124D02*
X012511Y035124D01*
X012511Y035024D01*
X012578Y035057D01*
X012611Y035057D01*
X012645Y035024D01*
X012645Y034957D01*
X012611Y034924D01*
X012545Y034924D01*
X012511Y034957D01*
X012424Y034924D02*
X012357Y034990D01*
X012390Y034990D02*
X012290Y034990D01*
X012290Y034924D02*
X012290Y035124D01*
X012390Y035124D01*
X012424Y035090D01*
X012424Y035024D01*
X012390Y034990D01*
X013038Y033825D02*
X013138Y033825D01*
X013172Y033791D01*
X013172Y033724D01*
X013138Y033691D01*
X013038Y033691D01*
X013038Y033624D02*
X013038Y033825D01*
X013105Y033691D02*
X013172Y033624D01*
X013259Y033658D02*
X013259Y033691D01*
X013293Y033724D01*
X013359Y033724D01*
X013393Y033691D01*
X013393Y033658D01*
X013359Y033624D01*
X013293Y033624D01*
X013259Y033658D01*
X013293Y033724D02*
X013259Y033758D01*
X013259Y033791D01*
X013293Y033825D01*
X013359Y033825D01*
X013393Y033791D01*
X013393Y033758D01*
X013359Y033724D01*
X014466Y034174D02*
X014499Y034140D01*
X014633Y034140D01*
X014666Y034174D01*
X014666Y034240D01*
X014633Y034274D01*
X014666Y034361D02*
X014666Y034495D01*
X014666Y034428D02*
X014466Y034428D01*
X014533Y034361D01*
X014499Y034274D02*
X014466Y034240D01*
X014466Y034174D01*
X014499Y034582D02*
X014466Y034616D01*
X014466Y034682D01*
X014499Y034716D01*
X014533Y034716D01*
X014666Y034582D01*
X014666Y034716D01*
X014101Y036546D02*
X013901Y036546D01*
X013901Y036647D01*
X013934Y036680D01*
X014001Y036680D01*
X014034Y036647D01*
X014034Y036546D01*
X014034Y036613D02*
X014101Y036680D01*
X014101Y036767D02*
X014101Y036901D01*
X014101Y036834D02*
X013901Y036834D01*
X013967Y036767D01*
X013955Y037158D02*
X014089Y037158D01*
X014122Y037192D01*
X014122Y037258D01*
X014089Y037292D01*
X014122Y037379D02*
X014122Y037513D01*
X014122Y037446D02*
X013922Y037446D01*
X013989Y037379D01*
X013955Y037292D02*
X013922Y037258D01*
X013922Y037192D01*
X013955Y037158D01*
X017115Y035463D02*
X017115Y035329D01*
X017148Y035296D01*
X017215Y035296D01*
X017248Y035329D01*
X017336Y035296D02*
X017469Y035296D01*
X017402Y035296D02*
X017402Y035496D01*
X017336Y035430D01*
X017248Y035463D02*
X017215Y035496D01*
X017148Y035496D01*
X017115Y035463D01*
X017557Y035463D02*
X017590Y035496D01*
X017657Y035496D01*
X017690Y035463D01*
X017557Y035329D01*
X017590Y035296D01*
X017657Y035296D01*
X017690Y035329D01*
X017690Y035463D01*
X017694Y035575D02*
X017828Y035575D01*
X017861Y035609D01*
X017861Y035675D01*
X017828Y035709D01*
X017828Y035796D02*
X017861Y035830D01*
X017861Y035896D01*
X017828Y035930D01*
X017694Y035930D01*
X017661Y035896D01*
X017661Y035830D01*
X017694Y035796D01*
X017727Y035796D01*
X017761Y035830D01*
X017761Y035930D01*
X017694Y035709D02*
X017661Y035675D01*
X017661Y035609D01*
X017694Y035575D01*
X017557Y035463D02*
X017557Y035329D01*
X017430Y034040D02*
X017363Y034006D01*
X017296Y033939D01*
X017396Y033939D01*
X017430Y033906D01*
X017430Y033873D01*
X017396Y033839D01*
X017330Y033839D01*
X017296Y033873D01*
X017296Y033939D01*
X017209Y033939D02*
X017175Y033906D01*
X017075Y033906D01*
X017075Y033839D02*
X017075Y034040D01*
X017175Y034040D01*
X017209Y034006D01*
X017209Y033939D01*
X017142Y033906D02*
X017209Y033839D01*
X017355Y033496D02*
X017388Y033496D01*
X017421Y033462D01*
X017421Y033362D01*
X017455Y033275D02*
X017488Y033275D01*
X017522Y033241D01*
X017522Y033174D01*
X017488Y033141D01*
X017421Y033174D02*
X017421Y033241D01*
X017455Y033275D01*
X017355Y033275D02*
X017321Y033241D01*
X017321Y033174D01*
X017355Y033141D01*
X017388Y033141D01*
X017421Y033174D01*
X017488Y033054D02*
X017321Y033054D01*
X017321Y032920D02*
X017488Y032920D01*
X017522Y032953D01*
X017522Y033020D01*
X017488Y033054D01*
X017532Y032751D02*
X017632Y032751D01*
X017665Y032717D01*
X017665Y032584D01*
X017632Y032551D01*
X017532Y032551D01*
X017532Y032751D01*
X017753Y032651D02*
X017853Y032651D01*
X017886Y032617D01*
X017886Y032584D01*
X017853Y032551D01*
X017786Y032551D01*
X017753Y032584D01*
X017753Y032651D01*
X017819Y032717D01*
X017886Y032751D01*
X018241Y032785D02*
X018342Y032785D01*
X018375Y032752D01*
X018375Y032685D01*
X018342Y032652D01*
X018241Y032652D01*
X018241Y032585D02*
X018241Y032785D01*
X018308Y032652D02*
X018375Y032585D01*
X018462Y032585D02*
X018596Y032585D01*
X018529Y032585D02*
X018529Y032785D01*
X018462Y032718D01*
X018683Y032752D02*
X018717Y032785D01*
X018784Y032785D01*
X018817Y032752D01*
X018817Y032718D01*
X018683Y032585D01*
X018817Y032585D01*
X018947Y032594D02*
X018947Y032795D01*
X019047Y032795D01*
X019080Y032761D01*
X019080Y032695D01*
X019047Y032661D01*
X018947Y032661D01*
X019014Y032661D02*
X019080Y032594D01*
X019168Y032594D02*
X019301Y032594D01*
X019235Y032594D02*
X019235Y032795D01*
X019168Y032728D01*
X019389Y032761D02*
X019422Y032795D01*
X019489Y032795D01*
X019522Y032761D01*
X019522Y032728D01*
X019489Y032695D01*
X019522Y032661D01*
X019522Y032628D01*
X019489Y032594D01*
X019422Y032594D01*
X019389Y032628D01*
X019456Y032695D02*
X019489Y032695D01*
X019387Y032064D02*
X019420Y032030D01*
X019420Y031964D01*
X019387Y031930D01*
X019387Y031843D02*
X019420Y031809D01*
X019420Y031743D01*
X019387Y031709D01*
X019253Y031709D01*
X019220Y031743D01*
X019220Y031809D01*
X019253Y031843D01*
X019387Y031843D01*
X019420Y031843D02*
X019353Y031776D01*
X019253Y031930D02*
X019220Y031964D01*
X019220Y032030D01*
X019253Y032064D01*
X019287Y032064D01*
X019320Y032030D01*
X019353Y032064D01*
X019387Y032064D01*
X019320Y032030D02*
X019320Y031997D01*
X019708Y030485D02*
X019808Y030485D01*
X019841Y030451D01*
X019841Y030384D01*
X019808Y030351D01*
X019708Y030351D01*
X019774Y030351D02*
X019841Y030284D01*
X019929Y030284D02*
X020062Y030284D01*
X019995Y030284D02*
X019995Y030485D01*
X019929Y030418D01*
X020150Y030418D02*
X020150Y030451D01*
X020183Y030485D01*
X020250Y030485D01*
X020283Y030451D01*
X020283Y030418D01*
X020250Y030384D01*
X020183Y030384D01*
X020150Y030418D01*
X020183Y030384D02*
X020150Y030351D01*
X020150Y030318D01*
X020183Y030284D01*
X020250Y030284D01*
X020283Y030318D01*
X020283Y030351D01*
X020250Y030384D01*
X019708Y030284D02*
X019708Y030485D01*
X021011Y030486D02*
X021045Y030519D01*
X021111Y030519D01*
X021145Y030486D01*
X021145Y030353D01*
X021111Y030319D01*
X021045Y030319D01*
X021011Y030353D01*
X021011Y030486D01*
X021078Y030386D02*
X021145Y030319D01*
X021232Y030419D02*
X021366Y030419D01*
X021332Y030319D02*
X021332Y030519D01*
X021232Y030419D01*
X021891Y029381D02*
X021858Y029348D01*
X021858Y029281D01*
X021891Y029248D01*
X021891Y029160D02*
X021858Y029127D01*
X021858Y029060D01*
X021891Y029027D01*
X021924Y029027D01*
X021958Y029060D01*
X021958Y029127D01*
X021991Y029160D01*
X022024Y029160D01*
X022058Y029127D01*
X022058Y029060D01*
X022024Y029027D01*
X022058Y029248D02*
X021924Y029381D01*
X021891Y029381D01*
X022058Y029381D02*
X022058Y029248D01*
X023611Y029182D02*
X023711Y029182D01*
X023744Y029215D01*
X023744Y029282D01*
X023711Y029315D01*
X023611Y029315D01*
X023611Y029115D01*
X023678Y029182D02*
X023744Y029115D01*
X023832Y029115D02*
X023965Y029248D01*
X023965Y029282D01*
X023932Y029315D01*
X023865Y029315D01*
X023832Y029282D01*
X023832Y029115D02*
X023965Y029115D01*
X024053Y029115D02*
X024186Y029115D01*
X024119Y029115D02*
X024119Y029315D01*
X024053Y029248D01*
X024086Y029745D02*
X024053Y029778D01*
X024186Y029912D01*
X024186Y029778D01*
X024153Y029745D01*
X024086Y029745D01*
X024053Y029778D02*
X024053Y029912D01*
X024086Y029945D01*
X024153Y029945D01*
X024186Y029912D01*
X023965Y029912D02*
X023932Y029945D01*
X023865Y029945D01*
X023832Y029912D01*
X023744Y029912D02*
X023744Y029845D01*
X023711Y029812D01*
X023611Y029812D01*
X023678Y029812D02*
X023744Y029745D01*
X023832Y029745D02*
X023965Y029878D01*
X023965Y029912D01*
X023965Y029745D02*
X023832Y029745D01*
X023744Y029912D02*
X023711Y029945D01*
X023611Y029945D01*
X023611Y029745D01*
X023644Y030454D02*
X023711Y030454D01*
X023744Y030487D01*
X023832Y030454D02*
X023965Y030454D01*
X023898Y030454D02*
X023898Y030654D01*
X023832Y030587D01*
X023744Y030620D02*
X023711Y030654D01*
X023644Y030654D01*
X023611Y030620D01*
X023611Y030487D01*
X023644Y030454D01*
X024053Y030487D02*
X024086Y030454D01*
X024153Y030454D01*
X024186Y030487D01*
X024186Y030520D01*
X024153Y030554D01*
X024053Y030554D01*
X024053Y030487D01*
X024053Y030554D02*
X024119Y030620D01*
X024186Y030654D01*
X024153Y031103D02*
X024186Y031137D01*
X024186Y031170D01*
X024153Y031203D01*
X024053Y031203D01*
X024053Y031137D01*
X024086Y031103D01*
X024153Y031103D01*
X024053Y031203D02*
X024119Y031270D01*
X024186Y031303D01*
X023898Y031303D02*
X023898Y031103D01*
X023832Y031103D02*
X023965Y031103D01*
X023832Y031237D02*
X023898Y031303D01*
X023744Y031270D02*
X023744Y031203D01*
X023711Y031170D01*
X023611Y031170D01*
X023678Y031170D02*
X023744Y031103D01*
X023611Y031103D02*
X023611Y031303D01*
X023711Y031303D01*
X023744Y031270D01*
X023731Y032133D02*
X023731Y032333D01*
X023797Y032333D02*
X023664Y032333D01*
X023885Y032333D02*
X024018Y032133D01*
X023885Y032133D02*
X024018Y032333D01*
X024032Y032531D02*
X023831Y032531D01*
X023831Y032631D01*
X023865Y032665D01*
X023932Y032665D01*
X023965Y032631D01*
X023965Y032531D01*
X023965Y032598D02*
X024032Y032665D01*
X024032Y032752D02*
X024032Y032886D01*
X024032Y032819D02*
X023831Y032819D01*
X023898Y032752D01*
X023932Y032973D02*
X023932Y033107D01*
X024032Y033073D02*
X023831Y033073D01*
X023932Y032973D01*
X023845Y033451D02*
X023845Y033551D01*
X023879Y033585D01*
X024012Y033585D01*
X024046Y033551D01*
X024046Y033451D01*
X023845Y033451D01*
X023845Y033672D02*
X023946Y033672D01*
X023912Y033739D01*
X023912Y033772D01*
X023946Y033806D01*
X024012Y033806D01*
X024046Y033772D01*
X024046Y033706D01*
X024012Y033672D01*
X023845Y033672D02*
X023845Y033806D01*
X023836Y034032D02*
X023836Y034133D01*
X023869Y034166D01*
X024003Y034166D01*
X024036Y034133D01*
X024036Y034032D01*
X023836Y034032D01*
X023936Y034253D02*
X023936Y034387D01*
X023836Y034354D02*
X023936Y034253D01*
X024036Y034354D02*
X023836Y034354D01*
X023850Y034700D02*
X023850Y034800D01*
X023883Y034833D01*
X023950Y034833D01*
X023983Y034800D01*
X023983Y034700D01*
X023983Y034766D02*
X024050Y034833D01*
X024017Y034921D02*
X024050Y034954D01*
X024050Y035021D01*
X024017Y035054D01*
X023983Y035054D01*
X023950Y035021D01*
X023950Y034987D01*
X023950Y035021D02*
X023917Y035054D01*
X023883Y035054D01*
X023850Y035021D01*
X023850Y034954D01*
X023883Y034921D01*
X023850Y034700D02*
X024050Y034700D01*
X024018Y035282D02*
X023885Y035482D01*
X023797Y035449D02*
X023797Y035382D01*
X023764Y035349D01*
X023664Y035349D01*
X023731Y035349D02*
X023797Y035282D01*
X023885Y035282D02*
X024018Y035482D01*
X023797Y035449D02*
X023764Y035482D01*
X023664Y035482D01*
X023664Y035282D01*
X023160Y035347D02*
X023160Y035447D01*
X023127Y035480D01*
X022993Y035480D01*
X022960Y035447D01*
X022960Y035347D01*
X023160Y035347D01*
X023160Y035568D02*
X023160Y035701D01*
X023160Y035635D02*
X022960Y035635D01*
X023027Y035568D01*
X022887Y036767D02*
X022753Y036767D01*
X022820Y036767D02*
X022820Y036967D01*
X022753Y036900D01*
X022666Y036967D02*
X022532Y036967D01*
X022532Y036767D01*
X022532Y036867D02*
X022599Y036867D01*
X023172Y037580D02*
X023238Y037580D01*
X023272Y037613D01*
X023359Y037613D02*
X023393Y037580D01*
X023459Y037580D01*
X023493Y037613D01*
X023493Y037680D01*
X023459Y037713D01*
X023426Y037713D01*
X023359Y037680D01*
X023359Y037780D01*
X023493Y037780D01*
X023272Y037746D02*
X023238Y037780D01*
X023172Y037780D01*
X023138Y037746D01*
X023138Y037613D01*
X023172Y037580D01*
X024843Y036272D02*
X024977Y036272D01*
X024910Y036272D02*
X024910Y036072D01*
X025064Y036072D02*
X025198Y036072D01*
X025131Y036072D02*
X025131Y036272D01*
X025064Y036205D01*
X024841Y035012D02*
X024841Y034878D01*
X024741Y034978D01*
X024941Y034978D01*
X024941Y034791D02*
X024874Y034724D01*
X024874Y034757D02*
X024874Y034657D01*
X024941Y034657D02*
X024741Y034657D01*
X024741Y034757D01*
X024774Y034791D01*
X024841Y034791D01*
X024874Y034757D01*
X025501Y034055D02*
X025601Y034055D01*
X025635Y034022D01*
X025635Y033888D01*
X025601Y033855D01*
X025501Y033855D01*
X025501Y034055D01*
X025722Y034022D02*
X025755Y034055D01*
X025822Y034055D01*
X025856Y034022D01*
X025856Y033988D01*
X025822Y033955D01*
X025856Y033922D01*
X025856Y033888D01*
X025822Y033855D01*
X025755Y033855D01*
X025722Y033888D01*
X025789Y033955D02*
X025822Y033955D01*
X026621Y033510D02*
X026721Y033510D01*
X026754Y033476D01*
X026754Y033410D01*
X026721Y033376D01*
X026621Y033376D01*
X026621Y033309D02*
X026621Y033510D01*
X026688Y033376D02*
X026754Y033309D01*
X026842Y033343D02*
X026875Y033309D01*
X026942Y033309D01*
X026975Y033343D01*
X026975Y033476D01*
X026942Y033510D01*
X026875Y033510D01*
X026842Y033476D01*
X026842Y033443D01*
X026875Y033410D01*
X026975Y033410D01*
X027377Y033429D02*
X027377Y033296D01*
X027410Y033263D01*
X027477Y033263D01*
X027510Y033296D01*
X027598Y033263D02*
X027731Y033263D01*
X027664Y033263D02*
X027664Y033463D01*
X027598Y033396D01*
X027510Y033429D02*
X027477Y033463D01*
X027410Y033463D01*
X027377Y033429D01*
X027819Y033429D02*
X027852Y033463D01*
X027919Y033463D01*
X027952Y033429D01*
X027952Y033396D01*
X027919Y033363D01*
X027952Y033329D01*
X027952Y033296D01*
X027919Y033263D01*
X027852Y033263D01*
X027819Y033296D01*
X027885Y033363D02*
X027919Y033363D01*
X028117Y033376D02*
X028217Y033376D01*
X028251Y033410D01*
X028251Y033476D01*
X028217Y033510D01*
X028117Y033510D01*
X028117Y033309D01*
X028184Y033376D02*
X028251Y033309D01*
X028338Y033309D02*
X028472Y033309D01*
X028405Y033309D02*
X028405Y033510D01*
X028338Y033443D01*
X028559Y033476D02*
X028592Y033510D01*
X028659Y033510D01*
X028693Y033476D01*
X028559Y033343D01*
X028592Y033309D01*
X028659Y033309D01*
X028693Y033343D01*
X028693Y033476D01*
X028559Y033476D02*
X028559Y033343D01*
X028585Y032936D02*
X028552Y032903D01*
X028585Y032936D02*
X028652Y032936D01*
X028685Y032903D01*
X028685Y032870D01*
X028552Y032736D01*
X028685Y032736D01*
X028464Y032770D02*
X028431Y032736D01*
X028364Y032736D01*
X028331Y032770D01*
X028331Y032903D01*
X028364Y032936D01*
X028431Y032936D01*
X028464Y032903D01*
X028250Y032936D02*
X028184Y032936D01*
X028217Y032936D02*
X028217Y032736D01*
X028184Y032736D02*
X028250Y032736D01*
X029653Y033309D02*
X029653Y033510D01*
X029753Y033510D01*
X029786Y033476D01*
X029786Y033410D01*
X029753Y033376D01*
X029653Y033376D01*
X029719Y033376D02*
X029786Y033309D01*
X029874Y033309D02*
X030007Y033309D01*
X029940Y033309D02*
X029940Y033510D01*
X029874Y033443D01*
X030094Y033443D02*
X030161Y033510D01*
X030161Y033309D01*
X030094Y033309D02*
X030228Y033309D01*
X030826Y030830D02*
X030826Y030697D01*
X030926Y030697D01*
X030892Y030764D01*
X030892Y030797D01*
X030926Y030830D01*
X030992Y030830D01*
X031026Y030797D01*
X031026Y030730D01*
X030992Y030697D01*
X030992Y030609D02*
X031026Y030576D01*
X031026Y030509D01*
X030992Y030476D01*
X030859Y030476D01*
X030826Y030509D01*
X030826Y030576D01*
X030859Y030609D01*
X030992Y030609D01*
X031026Y030609D02*
X030959Y030543D01*
X031465Y030601D02*
X031465Y030467D01*
X031498Y030434D01*
X031565Y030434D01*
X031599Y030467D01*
X031686Y030434D02*
X031820Y030434D01*
X031753Y030434D02*
X031753Y030634D01*
X031686Y030567D01*
X031599Y030601D02*
X031565Y030634D01*
X031498Y030634D01*
X031465Y030601D01*
X031907Y030601D02*
X031907Y030567D01*
X031940Y030534D01*
X032041Y030534D01*
X032041Y030467D02*
X032041Y030601D01*
X032007Y030634D01*
X031940Y030634D01*
X031907Y030601D01*
X031907Y030467D02*
X031940Y030434D01*
X032007Y030434D01*
X032041Y030467D01*
X031954Y029138D02*
X031954Y028938D01*
X031887Y028938D02*
X032021Y028938D01*
X031887Y029071D02*
X031954Y029138D01*
X031800Y029105D02*
X031767Y029138D01*
X031700Y029138D01*
X031666Y029105D01*
X031579Y029105D02*
X031546Y029138D01*
X031479Y029138D01*
X031445Y029105D01*
X031445Y028971D01*
X031479Y028938D01*
X031546Y028938D01*
X031579Y028971D01*
X031666Y028938D02*
X031800Y029071D01*
X031800Y029105D01*
X031800Y028938D02*
X031666Y028938D01*
X031122Y027531D02*
X031122Y027398D01*
X030988Y027531D01*
X030955Y027531D01*
X030922Y027498D01*
X030922Y027431D01*
X030955Y027398D01*
X030955Y027310D02*
X030988Y027310D01*
X031022Y027277D01*
X031055Y027310D01*
X031088Y027310D01*
X031122Y027277D01*
X031122Y027210D01*
X031088Y027177D01*
X031088Y027089D02*
X031122Y027056D01*
X031122Y026989D01*
X031088Y026956D01*
X030955Y026956D01*
X030922Y026989D01*
X030922Y027056D01*
X030955Y027089D01*
X030955Y027177D02*
X030922Y027210D01*
X030922Y027277D01*
X030955Y027310D01*
X031022Y027277D02*
X031022Y027244D01*
X030105Y026495D02*
X030072Y026529D01*
X030005Y026529D01*
X029972Y026495D01*
X029972Y026462D01*
X030005Y026428D01*
X030105Y026428D01*
X030105Y026362D02*
X030105Y026495D01*
X030105Y026362D02*
X030072Y026328D01*
X030005Y026328D01*
X029972Y026362D01*
X029884Y026362D02*
X029884Y026495D01*
X029851Y026529D01*
X029751Y026529D01*
X029751Y026328D01*
X029851Y026328D01*
X029884Y026362D01*
X029088Y025969D02*
X029021Y025935D01*
X028954Y025869D01*
X029054Y025869D01*
X029088Y025835D01*
X029088Y025802D01*
X029054Y025769D01*
X028988Y025769D01*
X028954Y025802D01*
X028954Y025869D01*
X028867Y025902D02*
X028833Y025869D01*
X028867Y025835D01*
X028867Y025802D01*
X028833Y025769D01*
X028767Y025769D01*
X028733Y025802D01*
X028646Y025802D02*
X028612Y025769D01*
X028546Y025769D01*
X028512Y025802D01*
X028512Y025935D01*
X028546Y025969D01*
X028612Y025969D01*
X028646Y025935D01*
X028733Y025935D02*
X028767Y025969D01*
X028833Y025969D01*
X028867Y025935D01*
X028867Y025902D01*
X028833Y025869D02*
X028800Y025869D01*
X028066Y026980D02*
X028066Y027080D01*
X028033Y027113D01*
X027900Y027113D01*
X027866Y027080D01*
X027866Y026980D01*
X028066Y026980D01*
X028066Y027201D02*
X028033Y027201D01*
X027900Y027334D01*
X027866Y027334D01*
X027866Y027201D01*
X027573Y026939D02*
X027373Y026939D01*
X027473Y026838D01*
X027473Y026972D01*
X027506Y026751D02*
X027539Y026751D01*
X027573Y026718D01*
X027573Y026651D01*
X027539Y026617D01*
X027539Y026530D02*
X027573Y026497D01*
X027573Y026430D01*
X027539Y026396D01*
X027406Y026396D01*
X027373Y026430D01*
X027373Y026497D01*
X027406Y026530D01*
X027406Y026617D02*
X027373Y026651D01*
X027373Y026718D01*
X027406Y026751D01*
X027439Y026751D01*
X027473Y026718D01*
X027506Y026751D01*
X027473Y026718D02*
X027473Y026684D01*
X026462Y026047D02*
X026262Y026047D01*
X026362Y025947D01*
X026362Y026081D01*
X026296Y025860D02*
X026262Y025826D01*
X026262Y025759D01*
X026296Y025726D01*
X026429Y025726D01*
X026462Y025759D01*
X026462Y025826D01*
X026429Y025860D01*
X026462Y025646D02*
X026462Y025579D01*
X026462Y025612D02*
X026262Y025612D01*
X026262Y025579D02*
X026262Y025646D01*
X026175Y025450D02*
X026209Y025417D01*
X026209Y025350D01*
X026175Y025317D01*
X026042Y025450D01*
X026175Y025450D01*
X026175Y025317D02*
X026042Y025317D01*
X026008Y025350D01*
X026008Y025417D01*
X026042Y025450D01*
X026042Y025229D02*
X026075Y025229D01*
X026108Y025196D01*
X026142Y025229D01*
X026175Y025229D01*
X026209Y025196D01*
X026209Y025129D01*
X026175Y025096D01*
X026209Y025008D02*
X026142Y024942D01*
X026142Y024975D02*
X026142Y024875D01*
X026209Y024875D02*
X026008Y024875D01*
X026008Y024975D01*
X026042Y025008D01*
X026108Y025008D01*
X026142Y024975D01*
X026042Y025096D02*
X026008Y025129D01*
X026008Y025196D01*
X026042Y025229D01*
X026108Y025196D02*
X026108Y025163D01*
X025531Y023764D02*
X025464Y023764D01*
X025431Y023731D01*
X025343Y023731D02*
X025343Y023697D01*
X025310Y023664D01*
X025343Y023631D01*
X025343Y023597D01*
X025310Y023564D01*
X025243Y023564D01*
X025210Y023597D01*
X025122Y023564D02*
X025055Y023631D01*
X025089Y023631D02*
X024989Y023631D01*
X024989Y023564D02*
X024989Y023764D01*
X025089Y023764D01*
X025122Y023731D01*
X025122Y023664D01*
X025089Y023631D01*
X025210Y023731D02*
X025243Y023764D01*
X025310Y023764D01*
X025343Y023731D01*
X025310Y023664D02*
X025276Y023664D01*
X025431Y023564D02*
X025564Y023697D01*
X025564Y023731D01*
X025531Y023764D01*
X025564Y023564D02*
X025431Y023564D01*
X026316Y022349D02*
X026416Y022249D01*
X026416Y022382D01*
X026516Y022349D02*
X026316Y022349D01*
X026316Y022161D02*
X026516Y022028D01*
X026516Y022161D02*
X026316Y022028D01*
X024752Y024875D02*
X024552Y024875D01*
X024552Y024975D01*
X024585Y025008D01*
X024652Y025008D01*
X024685Y024975D01*
X024685Y024875D01*
X024685Y024942D02*
X024752Y025008D01*
X024752Y025096D02*
X024618Y025229D01*
X024585Y025229D01*
X024552Y025196D01*
X024552Y025129D01*
X024585Y025096D01*
X024752Y025096D02*
X024752Y025229D01*
X024719Y025317D02*
X024752Y025350D01*
X024752Y025417D01*
X024719Y025450D01*
X024585Y025450D01*
X024552Y025417D01*
X024552Y025350D01*
X024585Y025317D01*
X024618Y025317D01*
X024652Y025350D01*
X024652Y025450D01*
X024029Y026336D02*
X023829Y026336D01*
X023829Y026469D01*
X023863Y026557D02*
X023829Y026590D01*
X023829Y026657D01*
X023863Y026690D01*
X023896Y026690D01*
X024029Y026557D01*
X024029Y026690D01*
X023929Y026403D02*
X023929Y026336D01*
X025390Y028520D02*
X025457Y028520D01*
X025490Y028554D01*
X025578Y028520D02*
X025711Y028654D01*
X025711Y028687D01*
X025678Y028721D01*
X025611Y028721D01*
X025578Y028687D01*
X025490Y028687D02*
X025457Y028721D01*
X025390Y028721D01*
X025357Y028687D01*
X025357Y028554D01*
X025390Y028520D01*
X025578Y028520D02*
X025711Y028520D01*
X025799Y028554D02*
X025832Y028520D01*
X025899Y028520D01*
X025932Y028554D01*
X025932Y028587D01*
X025899Y028621D01*
X025866Y028621D01*
X025899Y028621D02*
X025932Y028654D01*
X025932Y028687D01*
X025899Y028721D01*
X025832Y028721D01*
X025799Y028687D01*
X025603Y029852D02*
X025470Y029852D01*
X025436Y029886D01*
X025436Y029952D01*
X025470Y029986D01*
X025503Y030073D02*
X025436Y030140D01*
X025636Y030140D01*
X025636Y030073D02*
X025636Y030207D01*
X025603Y030294D02*
X025570Y030294D01*
X025536Y030328D01*
X025536Y030394D01*
X025570Y030428D01*
X025603Y030428D01*
X025636Y030394D01*
X025636Y030328D01*
X025603Y030294D01*
X025536Y030328D02*
X025503Y030294D01*
X025470Y030294D01*
X025436Y030328D01*
X025436Y030394D01*
X025470Y030428D01*
X025503Y030428D01*
X025536Y030394D01*
X025603Y029986D02*
X025636Y029952D01*
X025636Y029886D01*
X025603Y029852D01*
X026865Y029315D02*
X026865Y029182D01*
X026898Y029148D01*
X026965Y029148D01*
X026998Y029182D01*
X027086Y029148D02*
X027219Y029282D01*
X027219Y029315D01*
X027186Y029349D01*
X027119Y029349D01*
X027086Y029315D01*
X026998Y029315D02*
X026965Y029349D01*
X026898Y029349D01*
X026865Y029315D01*
X027086Y029148D02*
X027219Y029148D01*
X027307Y029182D02*
X027440Y029315D01*
X027440Y029182D01*
X027407Y029148D01*
X027340Y029148D01*
X027307Y029182D01*
X027307Y029315D01*
X027340Y029349D01*
X027407Y029349D01*
X027440Y029315D01*
X027374Y028687D02*
X027374Y028553D01*
X027274Y028654D01*
X027474Y028654D01*
X027474Y028466D02*
X027474Y028332D01*
X027341Y028466D01*
X027307Y028466D01*
X027274Y028433D01*
X027274Y028366D01*
X027307Y028332D01*
X027307Y028245D02*
X027274Y028212D01*
X027274Y028145D01*
X027307Y028111D01*
X027441Y028111D01*
X027474Y028145D01*
X027474Y028212D01*
X027441Y028245D01*
X027627Y028278D02*
X027627Y028144D01*
X027660Y028111D01*
X027727Y028111D01*
X027760Y028144D01*
X027848Y028111D02*
X027981Y028244D01*
X027981Y028278D01*
X027948Y028311D01*
X027881Y028311D01*
X027848Y028278D01*
X027760Y028278D02*
X027727Y028311D01*
X027660Y028311D01*
X027627Y028278D01*
X027848Y028111D02*
X027981Y028111D01*
X028069Y028144D02*
X028102Y028111D01*
X028169Y028111D01*
X028202Y028144D01*
X028202Y028211D01*
X028169Y028244D01*
X028135Y028244D01*
X028069Y028211D01*
X028069Y028311D01*
X028202Y028311D01*
X028240Y028709D02*
X028273Y028742D01*
X028273Y028809D01*
X028240Y028842D01*
X028273Y028930D02*
X028140Y029063D01*
X028106Y029063D01*
X028073Y029030D01*
X028073Y028963D01*
X028106Y028930D01*
X028106Y028842D02*
X028073Y028809D01*
X028073Y028742D01*
X028106Y028709D01*
X028240Y028709D01*
X028273Y028930D02*
X028273Y029063D01*
X028273Y029151D02*
X028140Y029284D01*
X028106Y029284D01*
X028073Y029251D01*
X028073Y029184D01*
X028106Y029151D01*
X028273Y029151D02*
X028273Y029284D01*
X028004Y030231D02*
X027870Y030231D01*
X027837Y030265D01*
X027837Y030332D01*
X027870Y030365D01*
X027903Y030452D02*
X027837Y030519D01*
X028037Y030519D01*
X028037Y030452D02*
X028037Y030586D01*
X028037Y030673D02*
X028004Y030673D01*
X027870Y030807D01*
X027837Y030807D01*
X027837Y030673D01*
X028004Y030365D02*
X028037Y030332D01*
X028037Y030265D01*
X028004Y030231D01*
X028423Y030442D02*
X028423Y030542D01*
X028457Y030575D01*
X028523Y030575D01*
X028557Y030542D01*
X028557Y030442D01*
X028623Y030442D02*
X028423Y030442D01*
X028557Y030508D02*
X028623Y030575D01*
X028623Y030663D02*
X028623Y030796D01*
X028623Y030729D02*
X028423Y030729D01*
X028490Y030663D01*
X028490Y030884D02*
X028523Y030917D01*
X028523Y031017D01*
X028457Y031017D02*
X028423Y030984D01*
X028423Y030917D01*
X028457Y030884D01*
X028490Y030884D01*
X028590Y030884D02*
X028623Y030917D01*
X028623Y030984D01*
X028590Y031017D01*
X028457Y031017D01*
X029786Y029931D02*
X029786Y029731D01*
X029919Y029731D01*
X030007Y029731D02*
X030140Y029731D01*
X030074Y029731D02*
X030074Y029931D01*
X030007Y029865D01*
X029624Y028005D02*
X029658Y027972D01*
X029658Y027905D01*
X029624Y027872D01*
X029591Y027872D01*
X029558Y027905D01*
X029558Y027972D01*
X029591Y028005D01*
X029624Y028005D01*
X029558Y027972D02*
X029524Y028005D01*
X029491Y028005D01*
X029457Y027972D01*
X029457Y027905D01*
X029491Y027872D01*
X029524Y027872D01*
X029558Y027905D01*
X029624Y027784D02*
X029491Y027784D01*
X029457Y027751D01*
X029457Y027651D01*
X029658Y027651D01*
X029658Y027751D01*
X029624Y027784D01*
X032642Y027307D02*
X032676Y027340D01*
X032709Y027340D01*
X032742Y027307D01*
X032776Y027340D01*
X032809Y027340D01*
X032842Y027307D01*
X032842Y027240D01*
X032809Y027207D01*
X032809Y027119D02*
X032842Y027086D01*
X032842Y027019D01*
X032809Y026986D01*
X032809Y026898D02*
X032842Y026865D01*
X032842Y026798D01*
X032809Y026765D01*
X032676Y026765D01*
X032642Y026798D01*
X032642Y026865D01*
X032676Y026898D01*
X032676Y026986D02*
X032642Y027019D01*
X032642Y027086D01*
X032676Y027119D01*
X032709Y027119D01*
X032742Y027086D01*
X032776Y027119D01*
X032809Y027119D01*
X032742Y027086D02*
X032742Y027052D01*
X032676Y027207D02*
X032642Y027240D01*
X032642Y027307D01*
X032742Y027307D02*
X032742Y027273D01*
X032723Y026631D02*
X032789Y026631D01*
X032823Y026598D01*
X032823Y026531D01*
X032789Y026498D01*
X032723Y026498D02*
X032689Y026565D01*
X032689Y026598D01*
X032723Y026631D01*
X032623Y026631D02*
X032623Y026498D01*
X032723Y026498D01*
X032756Y026410D02*
X032789Y026410D01*
X032823Y026377D01*
X032823Y026310D01*
X032789Y026277D01*
X032789Y026189D02*
X032823Y026156D01*
X032823Y026089D01*
X032789Y026056D01*
X032656Y026056D01*
X032623Y026089D01*
X032623Y026156D01*
X032656Y026189D01*
X032656Y026277D02*
X032623Y026310D01*
X032623Y026377D01*
X032656Y026410D01*
X032689Y026410D01*
X032723Y026377D01*
X032756Y026410D01*
X032723Y026377D02*
X032723Y026344D01*
X032709Y025903D02*
X032742Y025870D01*
X032742Y025803D01*
X032709Y025770D01*
X032676Y025770D01*
X032642Y025803D01*
X032642Y025870D01*
X032676Y025903D01*
X032709Y025903D01*
X032742Y025870D02*
X032776Y025903D01*
X032809Y025903D01*
X032842Y025870D01*
X032842Y025803D01*
X032809Y025770D01*
X032776Y025770D01*
X032742Y025803D01*
X032709Y025682D02*
X032742Y025649D01*
X032776Y025682D01*
X032809Y025682D01*
X032842Y025649D01*
X032842Y025582D01*
X032809Y025549D01*
X032809Y025461D02*
X032842Y025428D01*
X032842Y025361D01*
X032809Y025328D01*
X032676Y025328D01*
X032642Y025361D01*
X032642Y025428D01*
X032676Y025461D01*
X032676Y025549D02*
X032642Y025582D01*
X032642Y025649D01*
X032676Y025682D01*
X032709Y025682D01*
X032742Y025649D02*
X032742Y025615D01*
X034294Y024653D02*
X034428Y024452D01*
X034515Y024452D02*
X034649Y024452D01*
X034582Y024452D02*
X034582Y024653D01*
X034515Y024586D01*
X034428Y024653D02*
X034294Y024452D01*
X026080Y032664D02*
X026047Y032631D01*
X025980Y032631D01*
X025946Y032664D01*
X025946Y032731D02*
X026013Y032764D01*
X026047Y032764D01*
X026080Y032731D01*
X026080Y032664D01*
X025946Y032731D02*
X025946Y032831D01*
X026080Y032831D01*
X025792Y032831D02*
X025792Y032631D01*
X025726Y032631D02*
X025859Y032631D01*
X025726Y032764D02*
X025792Y032831D01*
X025638Y032798D02*
X025605Y032831D01*
X025538Y032831D01*
X025505Y032798D01*
X025505Y032664D01*
X025538Y032631D01*
X025605Y032631D01*
X025638Y032664D01*
X024952Y032272D02*
X024752Y032272D01*
X024852Y032172D01*
X024852Y032305D01*
X024952Y032084D02*
X024952Y031951D01*
X024952Y032018D02*
X024752Y032018D01*
X024818Y031951D01*
X024785Y031863D02*
X024752Y031830D01*
X024752Y031763D01*
X024785Y031730D01*
X024919Y031730D01*
X024952Y031763D01*
X024952Y031830D01*
X024919Y031863D01*
X021529Y032318D02*
X021495Y032284D01*
X021429Y032284D01*
X021395Y032318D01*
X021395Y032384D02*
X021462Y032418D01*
X021495Y032418D01*
X021529Y032384D01*
X021529Y032318D01*
X021395Y032384D02*
X021395Y032484D01*
X021529Y032484D01*
X021241Y032484D02*
X021241Y032284D01*
X021174Y032284D02*
X021308Y032284D01*
X021174Y032418D02*
X021241Y032484D01*
X021087Y032451D02*
X021087Y032384D01*
X021053Y032351D01*
X020953Y032351D01*
X020953Y032284D02*
X020953Y032484D01*
X021053Y032484D01*
X021087Y032451D01*
X021020Y032351D02*
X021087Y032284D01*
X019476Y034206D02*
X019276Y034206D01*
X019276Y034306D01*
X019309Y034339D01*
X019376Y034339D01*
X019410Y034306D01*
X019410Y034206D01*
X019410Y034272D02*
X019476Y034339D01*
X019476Y034426D02*
X019443Y034426D01*
X019309Y034560D01*
X019276Y034560D01*
X019276Y034426D01*
X019393Y034640D02*
X019527Y034640D01*
X019560Y034673D01*
X019560Y034740D01*
X019527Y034773D01*
X019560Y034861D02*
X019560Y034994D01*
X019560Y034928D02*
X019360Y034928D01*
X019427Y034861D01*
X019393Y034773D02*
X019360Y034740D01*
X019360Y034673D01*
X019393Y034640D01*
X019427Y035082D02*
X019360Y035148D01*
X019560Y035148D01*
X019560Y035082D02*
X019560Y035215D01*
X019599Y035537D02*
X019466Y035537D01*
X019432Y035571D01*
X019432Y035637D01*
X019466Y035671D01*
X019466Y035758D02*
X019499Y035758D01*
X019533Y035792D01*
X019533Y035858D01*
X019566Y035892D01*
X019599Y035892D01*
X019633Y035858D01*
X019633Y035792D01*
X019599Y035758D01*
X019566Y035758D01*
X019533Y035792D01*
X019533Y035858D02*
X019499Y035892D01*
X019466Y035892D01*
X019432Y035858D01*
X019432Y035792D01*
X019466Y035758D01*
X019599Y035671D02*
X019633Y035637D01*
X019633Y035571D01*
X019599Y035537D01*
X020791Y035396D02*
X020858Y035396D01*
X020825Y035396D02*
X020825Y035196D01*
X020858Y035196D02*
X020791Y035196D01*
X020939Y035229D02*
X020972Y035196D01*
X021039Y035196D01*
X021072Y035229D01*
X021160Y035196D02*
X021293Y035196D01*
X021227Y035196D02*
X021227Y035396D01*
X021160Y035330D01*
X021072Y035363D02*
X021039Y035396D01*
X020972Y035396D01*
X020939Y035363D01*
X020939Y035229D01*
X018831Y037607D02*
X018864Y037640D01*
X018864Y037707D01*
X018831Y037740D01*
X018664Y037740D01*
X018697Y037828D02*
X018730Y037828D01*
X018764Y037861D01*
X018764Y037928D01*
X018797Y037961D01*
X018831Y037961D01*
X018864Y037928D01*
X018864Y037861D01*
X018831Y037828D01*
X018697Y037828D02*
X018664Y037861D01*
X018664Y037928D01*
X018697Y037961D01*
X018664Y038049D02*
X018664Y038149D01*
X018697Y038182D01*
X018730Y038182D01*
X018764Y038149D01*
X018764Y038049D01*
X018864Y038049D02*
X018664Y038049D01*
X018764Y038149D02*
X018797Y038182D01*
X018831Y038182D01*
X018864Y038149D01*
X018864Y038049D01*
X018864Y038270D02*
X018864Y038403D01*
X018864Y038337D02*
X018664Y038337D01*
X018730Y038270D01*
X018664Y037607D02*
X018831Y037607D01*
X018152Y037646D02*
X018019Y037646D01*
X018119Y037746D01*
X018119Y037546D01*
X017931Y037579D02*
X017898Y037546D01*
X017831Y037546D01*
X017798Y037579D01*
X017798Y037713D01*
X017831Y037746D01*
X017898Y037746D01*
X017931Y037713D01*
X017488Y033496D02*
X017522Y033462D01*
X017522Y033362D01*
X017321Y033362D01*
X017321Y033462D01*
X017355Y033496D01*
X017421Y033462D02*
X017455Y033496D01*
X017488Y033496D01*
X016336Y029364D02*
X016336Y029230D01*
X016336Y029297D02*
X016135Y029297D01*
X016202Y029230D01*
X016169Y029143D02*
X016135Y029109D01*
X016135Y029043D01*
X016169Y029009D01*
X016202Y029009D01*
X016236Y029043D01*
X016236Y029109D01*
X016269Y029143D01*
X016302Y029143D01*
X016336Y029109D01*
X016336Y029043D01*
X016302Y029009D01*
X017342Y026698D02*
X017376Y026698D01*
X017409Y026664D01*
X017442Y026698D01*
X017476Y026698D01*
X017509Y026664D01*
X017509Y026598D01*
X017476Y026564D01*
X017509Y026477D02*
X017309Y026343D01*
X017309Y026477D02*
X017509Y026343D01*
X017342Y026564D02*
X017309Y026598D01*
X017309Y026664D01*
X017342Y026698D01*
X017409Y026664D02*
X017409Y026631D01*
X020364Y022925D02*
X020331Y022892D01*
X020331Y022825D01*
X020364Y022792D01*
X020431Y022704D02*
X020431Y022571D01*
X020331Y022671D01*
X020531Y022671D01*
X020531Y022792D02*
X020398Y022925D01*
X020364Y022925D01*
X020531Y022925D02*
X020531Y022792D01*
X020498Y022483D02*
X020531Y022450D01*
X020531Y022383D01*
X020498Y022350D01*
X020364Y022350D01*
X020331Y022383D01*
X020331Y022450D01*
X020364Y022483D01*
X020869Y024062D02*
X020935Y024062D01*
X020902Y024062D02*
X020902Y024262D01*
X020869Y024262D02*
X020935Y024262D01*
X021016Y024229D02*
X021016Y024095D01*
X021049Y024062D01*
X021116Y024062D01*
X021149Y024095D01*
X021237Y024095D02*
X021270Y024062D01*
X021337Y024062D01*
X021370Y024095D01*
X021370Y024162D01*
X021337Y024195D01*
X021304Y024195D01*
X021237Y024162D01*
X021237Y024262D01*
X021370Y024262D01*
X021149Y024229D02*
X021116Y024262D01*
X021049Y024262D01*
X021016Y024229D01*
X021790Y022891D02*
X021823Y022891D01*
X021857Y022858D01*
X021890Y022891D01*
X021923Y022891D01*
X021957Y022858D01*
X021957Y022791D01*
X021923Y022758D01*
X021923Y022670D02*
X021957Y022637D01*
X021957Y022570D01*
X021923Y022537D01*
X021857Y022603D02*
X021857Y022637D01*
X021890Y022670D01*
X021923Y022670D01*
X021857Y022637D02*
X021823Y022670D01*
X021790Y022670D01*
X021756Y022637D01*
X021756Y022570D01*
X021790Y022537D01*
X021790Y022449D02*
X021857Y022449D01*
X021890Y022416D01*
X021890Y022316D01*
X021890Y022382D02*
X021957Y022449D01*
X021957Y022316D02*
X021756Y022316D01*
X021756Y022416D01*
X021790Y022449D01*
X021790Y022758D02*
X021756Y022791D01*
X021756Y022858D01*
X021790Y022891D01*
X021857Y022858D02*
X021857Y022824D01*
X019428Y017622D02*
X019328Y017522D01*
X019462Y017522D01*
X019428Y017422D02*
X019428Y017622D01*
X019241Y017589D02*
X019241Y017555D01*
X019207Y017522D01*
X019241Y017489D01*
X019241Y017455D01*
X019207Y017422D01*
X019141Y017422D01*
X019107Y017455D01*
X019020Y017422D02*
X018953Y017489D01*
X018986Y017489D02*
X018886Y017489D01*
X018886Y017422D02*
X018886Y017622D01*
X018986Y017622D01*
X019020Y017589D01*
X019020Y017522D01*
X018986Y017489D01*
X019107Y017589D02*
X019141Y017622D01*
X019207Y017622D01*
X019241Y017589D01*
X019207Y017522D02*
X019174Y017522D01*
X019951Y016803D02*
X019951Y016736D01*
X019985Y016703D01*
X020051Y016770D02*
X020051Y016803D01*
X020085Y016836D01*
X020118Y016836D01*
X020151Y016803D01*
X020151Y016736D01*
X020118Y016703D01*
X020051Y016615D02*
X020051Y016482D01*
X019951Y016582D01*
X020151Y016582D01*
X020118Y016394D02*
X020151Y016361D01*
X020151Y016294D01*
X020118Y016261D01*
X019985Y016261D01*
X019951Y016294D01*
X019951Y016361D01*
X019985Y016394D01*
X019951Y016803D02*
X019985Y016836D01*
X020018Y016836D01*
X020051Y016803D01*
X019265Y015622D02*
X019165Y015522D01*
X019299Y015522D01*
X019265Y015422D02*
X019265Y015622D01*
X019078Y015522D02*
X018944Y015522D01*
X019044Y015622D01*
X019044Y015422D01*
X018857Y015456D02*
X018823Y015422D01*
X018757Y015422D01*
X018723Y015456D01*
X018723Y015589D01*
X018757Y015622D01*
X018823Y015622D01*
X018857Y015589D01*
X019013Y013653D02*
X018989Y013582D01*
X018989Y013488D01*
X019060Y013559D01*
X019107Y013559D01*
X019131Y013535D01*
X019131Y013488D01*
X019084Y013441D01*
X019036Y013441D01*
X018989Y013488D01*
X018880Y013473D02*
X018833Y013473D01*
X018786Y013426D01*
X018786Y013379D01*
X018880Y013284D01*
X018927Y013284D01*
X018975Y013332D01*
X018975Y013379D01*
X018847Y013204D02*
X018800Y013157D01*
X018823Y013180D02*
X018682Y013322D01*
X018705Y013345D02*
X018658Y013298D01*
X009852Y023791D02*
X009786Y023791D01*
X009752Y023824D01*
X009819Y023891D02*
X009852Y023891D01*
X009886Y023858D01*
X009886Y023824D01*
X009852Y023791D01*
X009852Y023891D02*
X009886Y023925D01*
X009886Y023958D01*
X009852Y023991D01*
X009786Y023991D01*
X009752Y023958D01*
X009665Y023991D02*
X009531Y023991D01*
X009598Y023991D02*
X009598Y023791D01*
X009462Y023122D02*
X009496Y023089D01*
X009362Y022956D01*
X009396Y022922D01*
X009462Y022922D01*
X009496Y022956D01*
X009496Y023089D01*
X009462Y023122D02*
X009396Y023122D01*
X009362Y023089D01*
X009362Y022956D01*
X009275Y023022D02*
X009141Y023022D01*
X009241Y023122D01*
X009241Y022922D01*
X009054Y022956D02*
X009020Y022922D01*
X008954Y022922D01*
X008920Y022956D01*
X008920Y023089D01*
X008954Y023122D01*
X009020Y023122D01*
X009054Y023089D01*
X008720Y024082D02*
X008520Y024082D01*
X008520Y024182D01*
X008553Y024215D01*
X008620Y024215D01*
X008654Y024182D01*
X008654Y024082D01*
X008654Y024149D02*
X008720Y024215D01*
X008687Y024303D02*
X008720Y024336D01*
X008720Y024403D01*
X008687Y024436D01*
X008654Y024436D01*
X008620Y024403D01*
X008620Y024370D01*
X008620Y024403D02*
X008587Y024436D01*
X008553Y024436D01*
X008520Y024403D01*
X008520Y024336D01*
X008553Y024303D01*
X008587Y024524D02*
X008520Y024591D01*
X008720Y024591D01*
X008720Y024657D02*
X008720Y024524D01*
X009329Y025481D02*
X009329Y025581D01*
X009362Y025615D01*
X009429Y025615D01*
X009462Y025581D01*
X009462Y025481D01*
X009462Y025548D02*
X009529Y025615D01*
X009529Y025702D02*
X009395Y025836D01*
X009362Y025836D01*
X009329Y025802D01*
X009329Y025735D01*
X009362Y025702D01*
X009529Y025702D02*
X009529Y025836D01*
X009496Y025923D02*
X009462Y025923D01*
X009429Y025956D01*
X009429Y026023D01*
X009462Y026057D01*
X009496Y026057D01*
X009529Y026023D01*
X009529Y025956D01*
X009496Y025923D01*
X009429Y025956D02*
X009395Y025923D01*
X009362Y025923D01*
X009329Y025956D01*
X009329Y026023D01*
X009362Y026057D01*
X009395Y026057D01*
X009429Y026023D01*
X009529Y025481D02*
X009329Y025481D01*
X009599Y025362D02*
X009632Y025395D01*
X009699Y025395D01*
X009732Y025362D01*
X009732Y025228D01*
X009699Y025195D01*
X009632Y025195D01*
X009599Y025228D01*
X009599Y025362D01*
X009666Y025262D02*
X009732Y025195D01*
X009820Y025228D02*
X009853Y025195D01*
X009920Y025195D01*
X009953Y025228D01*
X009953Y025262D01*
X009920Y025295D01*
X009820Y025295D01*
X009820Y025228D01*
X009820Y025295D02*
X009886Y025362D01*
X009953Y025395D01*
X008359Y026733D02*
X008226Y026733D01*
X008359Y026867D01*
X008359Y026900D01*
X008326Y026933D01*
X008259Y026933D01*
X008226Y026900D01*
X008138Y026900D02*
X008105Y026933D01*
X008038Y026933D01*
X008005Y026900D01*
X007917Y026900D02*
X007917Y026833D01*
X007884Y026800D01*
X007784Y026800D01*
X007851Y026800D02*
X007917Y026733D01*
X008005Y026733D02*
X008138Y026867D01*
X008138Y026900D01*
X008138Y026733D02*
X008005Y026733D01*
X007917Y026900D02*
X007884Y026933D01*
X007784Y026933D01*
X007784Y026733D01*
X007775Y028190D02*
X007808Y028223D01*
X007808Y028357D01*
X007775Y028390D01*
X007708Y028390D01*
X007675Y028357D01*
X007675Y028323D01*
X007708Y028290D01*
X007808Y028290D01*
X007775Y028190D02*
X007708Y028190D01*
X007675Y028223D01*
X007587Y028190D02*
X007454Y028190D01*
X007587Y028323D01*
X007587Y028357D01*
X007554Y028390D01*
X007487Y028390D01*
X007454Y028357D01*
X007366Y028357D02*
X007333Y028390D01*
X007266Y028390D01*
X007233Y028357D01*
X007233Y028223D01*
X007266Y028190D01*
X007333Y028190D01*
X007366Y028223D01*
X007139Y028223D02*
X007106Y028190D01*
X007039Y028190D01*
X007006Y028223D01*
X007006Y028256D01*
X007039Y028290D01*
X007106Y028290D01*
X007139Y028256D01*
X007139Y028223D01*
X007106Y028290D02*
X007139Y028323D01*
X007139Y028357D01*
X007106Y028390D01*
X007039Y028390D01*
X007006Y028357D01*
X007006Y028323D01*
X007039Y028290D01*
X006918Y028323D02*
X006918Y028357D01*
X006885Y028390D01*
X006818Y028390D01*
X006785Y028357D01*
X006697Y028357D02*
X006664Y028390D01*
X006597Y028390D01*
X006564Y028357D01*
X006564Y028223D01*
X006597Y028190D01*
X006664Y028190D01*
X006697Y028223D01*
X006785Y028190D02*
X006918Y028323D01*
X006918Y028190D02*
X006785Y028190D01*
X006371Y028337D02*
X006238Y028203D01*
X006238Y028170D01*
X006150Y028170D02*
X006017Y028170D01*
X006150Y028304D01*
X006150Y028337D01*
X006117Y028370D01*
X006050Y028370D01*
X006017Y028337D01*
X005929Y028337D02*
X005896Y028370D01*
X005829Y028370D01*
X005796Y028337D01*
X005796Y028203D01*
X005829Y028170D01*
X005896Y028170D01*
X005929Y028203D01*
X006238Y028370D02*
X006371Y028370D01*
X006371Y028337D01*
X005567Y026803D02*
X005600Y026769D01*
X005467Y026636D01*
X005500Y026603D01*
X005567Y026603D01*
X005600Y026636D01*
X005600Y026769D01*
X005567Y026803D02*
X005500Y026803D01*
X005467Y026769D01*
X005467Y026636D01*
X005379Y026636D02*
X005346Y026603D01*
X005279Y026603D01*
X005246Y026636D01*
X005158Y026636D02*
X005125Y026603D01*
X005058Y026603D01*
X005025Y026636D01*
X005025Y026769D01*
X005058Y026803D01*
X005125Y026803D01*
X005158Y026769D01*
X005246Y026769D02*
X005279Y026803D01*
X005346Y026803D01*
X005379Y026769D01*
X005379Y026736D01*
X005346Y026703D01*
X005379Y026669D01*
X005379Y026636D01*
X005346Y026703D02*
X005313Y026703D01*
X004664Y028366D02*
X004698Y028399D01*
X004698Y028432D01*
X004664Y028466D01*
X004564Y028466D01*
X004564Y028399D01*
X004598Y028366D01*
X004664Y028366D01*
X004564Y028466D02*
X004631Y028533D01*
X004698Y028566D01*
X004477Y028533D02*
X004443Y028566D01*
X004377Y028566D01*
X004343Y028533D01*
X004256Y028533D02*
X004222Y028566D01*
X004156Y028566D01*
X004122Y028533D01*
X004122Y028399D01*
X004156Y028366D01*
X004222Y028366D01*
X004256Y028399D01*
X004343Y028366D02*
X004477Y028499D01*
X004477Y028533D01*
X004477Y028366D02*
X004343Y028366D01*
X008516Y021861D02*
X008483Y021828D01*
X008483Y021761D01*
X008516Y021728D01*
X008483Y021640D02*
X008683Y021507D01*
X008683Y021640D02*
X008483Y021507D01*
X008683Y021728D02*
X008550Y021861D01*
X008516Y021861D01*
X008683Y021861D02*
X008683Y021728D01*
X011691Y024331D02*
X011725Y024298D01*
X011858Y024298D01*
X011892Y024331D01*
X011892Y024398D01*
X011858Y024431D01*
X011858Y024519D02*
X011892Y024552D01*
X011892Y024619D01*
X011858Y024652D01*
X011825Y024652D01*
X011792Y024619D01*
X011792Y024586D01*
X011792Y024619D02*
X011758Y024652D01*
X011725Y024652D01*
X011691Y024619D01*
X011691Y024552D01*
X011725Y024519D01*
X011725Y024431D02*
X011691Y024398D01*
X011691Y024331D01*
X011725Y024740D02*
X011758Y024740D01*
X011792Y024773D01*
X011792Y024873D01*
X011858Y024873D02*
X011725Y024873D01*
X011691Y024840D01*
X011691Y024773D01*
X011725Y024740D01*
X011858Y024740D02*
X011892Y024773D01*
X011892Y024840D01*
X011858Y024873D01*
X011864Y025520D02*
X011864Y025621D01*
X011830Y025654D01*
X011764Y025654D01*
X011730Y025621D01*
X011730Y025520D01*
X011930Y025520D01*
X011864Y025587D02*
X011930Y025654D01*
X011930Y025741D02*
X011797Y025875D01*
X011764Y025875D01*
X011730Y025842D01*
X011730Y025775D01*
X011764Y025741D01*
X011930Y025741D02*
X011930Y025875D01*
X011930Y025962D02*
X011897Y025962D01*
X011764Y026096D01*
X011730Y026096D01*
X011730Y025962D01*
X012469Y025979D02*
X012469Y026113D01*
X012502Y026113D01*
X012635Y025979D01*
X012669Y025979D01*
X012635Y025892D02*
X012669Y025858D01*
X012669Y025791D01*
X012635Y025758D01*
X012635Y025671D02*
X012669Y025637D01*
X012669Y025570D01*
X012635Y025537D01*
X012502Y025537D01*
X012469Y025570D01*
X012469Y025637D01*
X012502Y025671D01*
X012502Y025758D02*
X012469Y025791D01*
X012469Y025858D01*
X012502Y025892D01*
X012535Y025892D01*
X012569Y025858D01*
X012602Y025892D01*
X012635Y025892D01*
X012569Y025858D02*
X012569Y025825D01*
X012674Y026719D02*
X012740Y026719D01*
X012774Y026753D01*
X012861Y026753D02*
X012895Y026719D01*
X012961Y026719D01*
X012995Y026753D01*
X012995Y026786D01*
X012961Y026819D01*
X012928Y026819D01*
X012961Y026819D02*
X012995Y026853D01*
X012995Y026886D01*
X012961Y026919D01*
X012895Y026919D01*
X012861Y026886D01*
X012774Y026886D02*
X012740Y026919D01*
X012674Y026919D01*
X012640Y026886D01*
X012640Y026753D01*
X012674Y026719D01*
X013082Y026719D02*
X013216Y026719D01*
X013149Y026719D02*
X013149Y026919D01*
X013082Y026853D01*
X012447Y027255D02*
X012247Y027255D01*
X012247Y027355D01*
X012280Y027389D01*
X012347Y027389D01*
X012380Y027355D01*
X012380Y027255D01*
X012380Y027322D02*
X012447Y027389D01*
X012447Y027476D02*
X012314Y027610D01*
X012280Y027610D01*
X012247Y027576D01*
X012247Y027509D01*
X012280Y027476D01*
X012447Y027476D02*
X012447Y027610D01*
X012414Y027697D02*
X012447Y027730D01*
X012447Y027797D01*
X012414Y027831D01*
X012380Y027831D01*
X012347Y027797D01*
X012347Y027697D01*
X012414Y027697D01*
X012347Y027697D02*
X012280Y027764D01*
X012247Y027831D01*
X011606Y028225D02*
X011573Y028191D01*
X011506Y028191D01*
X011472Y028225D01*
X011472Y028291D02*
X011539Y028325D01*
X011573Y028325D01*
X011606Y028291D01*
X011606Y028225D01*
X011472Y028291D02*
X011472Y028392D01*
X011606Y028392D01*
X011385Y028358D02*
X011352Y028392D01*
X011285Y028392D01*
X011251Y028358D01*
X011164Y028358D02*
X011164Y028291D01*
X011131Y028258D01*
X011030Y028258D01*
X011030Y028191D02*
X011030Y028392D01*
X011131Y028392D01*
X011164Y028358D01*
X011097Y028258D02*
X011164Y028191D01*
X011251Y028191D02*
X011385Y028325D01*
X011385Y028358D01*
X011385Y028191D02*
X011251Y028191D01*
X010918Y028310D02*
X010785Y028310D01*
X010885Y028410D01*
X010885Y028209D01*
X010698Y028209D02*
X010564Y028209D01*
X010698Y028343D01*
X010698Y028376D01*
X010664Y028410D01*
X010597Y028410D01*
X010564Y028376D01*
X010477Y028376D02*
X010477Y028310D01*
X010443Y028276D01*
X010343Y028276D01*
X010343Y028209D02*
X010343Y028410D01*
X010443Y028410D01*
X010477Y028376D01*
X010410Y028276D02*
X010477Y028209D01*
X010210Y028243D02*
X010176Y028209D01*
X010110Y028209D01*
X010076Y028243D01*
X009989Y028209D02*
X009855Y028209D01*
X009989Y028343D01*
X009989Y028376D01*
X009955Y028410D01*
X009889Y028410D01*
X009855Y028376D01*
X009768Y028376D02*
X009768Y028310D01*
X009734Y028276D01*
X009634Y028276D01*
X009634Y028209D02*
X009634Y028410D01*
X009734Y028410D01*
X009768Y028376D01*
X009701Y028276D02*
X009768Y028209D01*
X010076Y028376D02*
X010110Y028410D01*
X010176Y028410D01*
X010210Y028376D01*
X010210Y028343D01*
X010176Y028310D01*
X010210Y028276D01*
X010210Y028243D01*
X010176Y028310D02*
X010143Y028310D01*
X012383Y029123D02*
X012417Y029089D01*
X012484Y029089D01*
X012517Y029123D01*
X012517Y029156D01*
X012484Y029189D01*
X012417Y029189D01*
X012383Y029223D01*
X012383Y029256D01*
X012417Y029290D01*
X012484Y029290D01*
X012517Y029256D01*
X012671Y029290D02*
X012738Y029290D01*
X012704Y029290D02*
X012704Y029123D01*
X012671Y029089D01*
X012638Y029089D01*
X012604Y029123D01*
X012825Y029089D02*
X012959Y029089D01*
X012892Y029089D02*
X012892Y029290D01*
X012825Y029223D01*
X012754Y029637D02*
X012754Y029703D01*
X012754Y029670D02*
X012955Y029670D01*
X012955Y029637D02*
X012955Y029703D01*
X012921Y029784D02*
X012955Y029817D01*
X012955Y029884D01*
X012921Y029917D01*
X012921Y030005D02*
X012955Y030038D01*
X012955Y030105D01*
X012921Y030138D01*
X012888Y030138D01*
X012855Y030105D01*
X012855Y030072D01*
X012855Y030105D02*
X012821Y030138D01*
X012788Y030138D01*
X012754Y030105D01*
X012754Y030038D01*
X012788Y030005D01*
X012788Y029917D02*
X012754Y029884D01*
X012754Y029817D01*
X012788Y029784D01*
X012921Y029784D01*
X013156Y031341D02*
X013156Y031541D01*
X013257Y031541D01*
X013290Y031508D01*
X013290Y031441D01*
X013257Y031408D01*
X013156Y031408D01*
X013223Y031408D02*
X013290Y031341D01*
X013377Y031341D02*
X013511Y031341D01*
X013444Y031341D02*
X013444Y031541D01*
X013377Y031474D01*
X013598Y031541D02*
X013732Y031541D01*
X013732Y031508D01*
X013598Y031374D01*
X013598Y031341D01*
X026910Y036219D02*
X026910Y036419D01*
X026976Y036419D02*
X026843Y036419D01*
X027064Y036385D02*
X027097Y036419D01*
X027164Y036419D01*
X027197Y036385D01*
X027197Y036352D01*
X027064Y036219D01*
X027197Y036219D01*
X027609Y037177D02*
X027575Y037210D01*
X027575Y037277D01*
X027609Y037310D01*
X027609Y037398D02*
X027575Y037431D01*
X027575Y037498D01*
X027609Y037531D01*
X027642Y037531D01*
X027675Y037498D01*
X027709Y037531D01*
X027742Y037531D01*
X027775Y037498D01*
X027775Y037431D01*
X027742Y037398D01*
X027742Y037310D02*
X027775Y037277D01*
X027775Y037210D01*
X027742Y037177D01*
X027609Y037177D01*
X027675Y037465D02*
X027675Y037498D01*
X028372Y036458D02*
X028439Y036458D01*
X028472Y036425D01*
X028472Y036291D01*
X028439Y036258D01*
X028372Y036258D01*
X028339Y036291D01*
X028339Y036425D01*
X028372Y036458D01*
X028406Y036325D02*
X028472Y036258D01*
X028560Y036258D02*
X028693Y036258D01*
X028627Y036258D02*
X028627Y036458D01*
X028560Y036391D01*
X029874Y036425D02*
X029908Y036458D01*
X029974Y036458D01*
X030008Y036425D01*
X030008Y036291D01*
X029974Y036258D01*
X029908Y036258D01*
X029874Y036291D01*
X029874Y036425D01*
X029941Y036325D02*
X030008Y036258D01*
X030095Y036258D02*
X030229Y036391D01*
X030229Y036425D01*
X030195Y036458D01*
X030129Y036458D01*
X030095Y036425D01*
X030095Y036258D02*
X030229Y036258D01*
X031682Y035916D02*
X031782Y035916D01*
X031816Y035883D01*
X031816Y035816D01*
X031782Y035783D01*
X031682Y035783D01*
X031749Y035783D02*
X031816Y035716D01*
X031903Y035716D02*
X032037Y035849D01*
X032037Y035883D01*
X032003Y035916D01*
X031937Y035916D01*
X031903Y035883D01*
X031903Y035716D02*
X032037Y035716D01*
X031682Y035716D02*
X031682Y035916D01*
X033250Y037580D02*
X033317Y037580D01*
X033351Y037613D01*
X033438Y037613D02*
X033471Y037580D01*
X033538Y037580D01*
X033572Y037613D01*
X033572Y037646D01*
X033538Y037680D01*
X033438Y037680D01*
X033438Y037613D01*
X033438Y037680D02*
X033505Y037746D01*
X033572Y037780D01*
X033351Y037746D02*
X033317Y037780D01*
X033250Y037780D01*
X033217Y037746D01*
X033217Y037613D01*
X033250Y037580D01*
D16*
X035947Y034357D03*
D17*
X035825Y035770D02*
X035431Y035770D01*
X036494Y035770D02*
X036888Y035770D01*
X036691Y035967D02*
X036691Y035573D01*
X036421Y019066D02*
X036421Y018476D01*
X036170Y018476D02*
X035874Y018476D01*
X035776Y018574D01*
X035776Y018771D01*
X035874Y018869D01*
X036170Y018869D01*
X036170Y018377D01*
X036071Y018279D01*
X035973Y018279D01*
X035883Y018016D02*
X035883Y017426D01*
X036179Y017426D01*
X036277Y017524D01*
X036277Y017721D01*
X036179Y017819D01*
X035883Y017819D01*
X035525Y018476D02*
X035525Y018869D01*
X035525Y018476D02*
X035230Y018476D01*
X035131Y018574D01*
X035131Y018869D01*
X034881Y018771D02*
X034782Y018869D01*
X034585Y018869D01*
X034487Y018771D01*
X034487Y018574D01*
X034585Y018476D01*
X034782Y018476D01*
X034881Y018574D01*
X034881Y018771D01*
X034245Y018869D02*
X034147Y018869D01*
X033950Y018672D01*
X033950Y018476D02*
X033950Y018869D01*
X033699Y018869D02*
X033600Y018771D01*
X033305Y018771D01*
X033305Y019066D02*
X033600Y019066D01*
X033699Y018968D01*
X033699Y018869D01*
X033600Y018771D02*
X033699Y018672D01*
X033699Y018574D01*
X033600Y018476D01*
X033305Y018476D01*
X033305Y019066D01*
X033305Y017819D02*
X033305Y017524D01*
X033404Y017426D01*
X033699Y017426D01*
X033699Y017327D02*
X033600Y017229D01*
X033502Y017229D01*
X033699Y017327D02*
X033699Y017819D01*
X033950Y017721D02*
X033950Y017524D01*
X034048Y017426D01*
X034245Y017426D01*
X034343Y017524D01*
X034343Y017721D01*
X034245Y017819D01*
X034048Y017819D01*
X033950Y017721D01*
X034594Y017819D02*
X034594Y017524D01*
X034693Y017426D01*
X034988Y017426D01*
X034988Y017819D01*
X036528Y017819D02*
X036528Y017524D01*
X036626Y017426D01*
X036922Y017426D01*
X036922Y017327D02*
X036823Y017229D01*
X036725Y017229D01*
X036922Y017327D02*
X036922Y017819D01*
X037173Y017819D02*
X037173Y017721D01*
X037271Y017721D01*
X037271Y017819D01*
X037173Y017819D01*
X037173Y017524D02*
X037173Y017426D01*
X037271Y017426D01*
X037271Y017524D01*
X037173Y017524D01*
X037262Y018476D02*
X037164Y018574D01*
X037164Y018968D01*
X037262Y018869D02*
X037065Y018869D01*
X036814Y018771D02*
X036814Y018476D01*
X036814Y018771D02*
X036716Y018869D01*
X036519Y018869D01*
X036421Y018771D01*
X038139Y018869D02*
X038336Y018869D01*
X038238Y018968D02*
X038238Y018574D01*
X038336Y018476D01*
X038569Y018574D02*
X038569Y018771D01*
X038667Y018869D01*
X038864Y018869D01*
X038963Y018771D01*
X038963Y018574D01*
X038864Y018476D01*
X038667Y018476D01*
X038569Y018574D01*
X038640Y015405D02*
X038345Y015405D01*
X038247Y015306D01*
X038247Y015109D01*
X038345Y015011D01*
X038640Y015011D01*
X037996Y015208D02*
X037996Y015306D01*
X037897Y015405D01*
X037701Y015405D01*
X037602Y015306D01*
X037602Y015109D01*
X037701Y015011D01*
X037897Y015011D01*
X037996Y015208D02*
X037602Y015208D01*
X037351Y015208D02*
X037253Y015306D01*
X036958Y015306D01*
X036707Y015405D02*
X036412Y015405D01*
X036313Y015306D01*
X036412Y015208D01*
X036608Y015208D01*
X036707Y015109D01*
X036608Y015011D01*
X036313Y015011D01*
X036062Y015011D02*
X036062Y015405D01*
X035669Y015405D02*
X035669Y015109D01*
X035767Y015011D01*
X036062Y015011D01*
X036403Y014551D02*
X036304Y014453D01*
X036304Y013961D01*
X036206Y014256D02*
X036403Y014256D01*
X036635Y014256D02*
X036832Y014256D01*
X036734Y014453D02*
X036832Y014551D01*
X036734Y014453D02*
X036734Y013961D01*
X037065Y014059D02*
X037065Y014256D01*
X037164Y014355D01*
X037360Y014355D01*
X037459Y014256D01*
X037459Y014158D01*
X037065Y014158D01*
X037065Y014059D02*
X037164Y013961D01*
X037360Y013961D01*
X037710Y013961D02*
X037906Y013961D01*
X037808Y013961D02*
X037808Y014551D01*
X037710Y014551D01*
X037253Y015011D02*
X036958Y015011D01*
X036958Y015601D01*
X037253Y015601D01*
X037351Y015503D01*
X037351Y015405D01*
X037253Y015306D01*
X037351Y015208D02*
X037351Y015109D01*
X037253Y015011D01*
X037387Y013501D02*
X037781Y012911D01*
X037387Y012911D02*
X037781Y013501D01*
X037137Y013206D02*
X037137Y012911D01*
X037137Y013206D02*
X037038Y013305D01*
X036743Y013305D01*
X036743Y012911D01*
X036510Y012911D02*
X036313Y012911D01*
X036412Y012911D02*
X036412Y013305D01*
X036313Y013305D01*
X036412Y013501D02*
X036412Y013600D01*
X036062Y013501D02*
X035865Y013501D01*
X035964Y013501D02*
X035964Y013009D01*
X035865Y012911D01*
X035767Y012911D01*
X035669Y013009D01*
X035418Y012813D02*
X035024Y012813D01*
X034675Y012911D02*
X034478Y012911D01*
X034379Y013009D01*
X034379Y013206D01*
X034478Y013305D01*
X034675Y013305D01*
X034773Y013206D01*
X034773Y013108D01*
X034379Y013108D01*
X034129Y013206D02*
X034129Y012911D01*
X034129Y013206D02*
X034030Y013305D01*
X033833Y013305D01*
X033735Y013206D01*
X033502Y013305D02*
X033305Y013305D01*
X033404Y013403D02*
X033404Y013009D01*
X033502Y012911D01*
X033735Y012911D02*
X033735Y013501D01*
X033699Y013961D02*
X033404Y014256D01*
X033305Y014158D02*
X033699Y014551D01*
X033305Y014551D02*
X033305Y013961D01*
X033950Y014059D02*
X034048Y014158D01*
X034343Y014158D01*
X034343Y014256D02*
X034343Y013961D01*
X034048Y013961D01*
X033950Y014059D01*
X034048Y014355D02*
X034245Y014355D01*
X034343Y014256D01*
X034594Y014158D02*
X034791Y014355D01*
X034890Y014355D01*
X035131Y014355D02*
X035328Y014355D01*
X035230Y014453D02*
X035230Y014059D01*
X035328Y013961D01*
X035561Y014059D02*
X035660Y013961D01*
X035856Y013961D01*
X035955Y014059D01*
X035955Y014256D01*
X035856Y014355D01*
X035660Y014355D01*
X035561Y014256D01*
X035561Y014059D01*
X035427Y015011D02*
X035131Y015208D01*
X035427Y015405D01*
X035131Y015601D02*
X035131Y015011D01*
X034890Y015405D02*
X034791Y015405D01*
X034594Y015208D01*
X034594Y015011D02*
X034594Y015405D01*
X034343Y015306D02*
X034343Y015011D01*
X034048Y015011D01*
X033950Y015109D01*
X034048Y015208D01*
X034343Y015208D01*
X034343Y015306D02*
X034245Y015405D01*
X034048Y015405D01*
X033699Y015601D02*
X033699Y015011D01*
X033305Y015011D02*
X033305Y015601D01*
X033502Y015405D01*
X033699Y015601D01*
X034594Y014355D02*
X034594Y013961D01*
X034773Y012451D02*
X034773Y011861D01*
X034478Y011861D01*
X034379Y011959D01*
X034379Y012156D01*
X034478Y012255D01*
X034773Y012255D01*
X034129Y012255D02*
X033833Y012255D01*
X033735Y012156D01*
X033833Y012058D01*
X034030Y012058D01*
X034129Y011959D01*
X034030Y011861D01*
X033735Y011861D01*
X033502Y011861D02*
X033404Y011959D01*
X033404Y012353D01*
X033502Y012255D02*
X033305Y012255D01*
X033305Y011401D02*
X033600Y011401D01*
X033699Y011303D01*
X033699Y011106D01*
X033600Y011008D01*
X033305Y011008D01*
X033305Y010811D02*
X033305Y011401D01*
X033502Y011008D02*
X033699Y010811D01*
X033950Y010909D02*
X034048Y010811D01*
X034245Y010811D01*
X034343Y010909D01*
X034343Y011106D01*
X034245Y011205D01*
X034048Y011205D01*
X033950Y011106D01*
X033950Y010909D01*
X034594Y010909D02*
X034693Y010811D01*
X034890Y010811D01*
X034988Y010909D01*
X034988Y011106D01*
X034890Y011205D01*
X034693Y011205D01*
X034594Y011106D01*
X034594Y010909D01*
X035239Y010811D02*
X035534Y010811D01*
X035633Y010909D01*
X035534Y011008D01*
X035337Y011008D01*
X035239Y011106D01*
X035337Y011205D01*
X035633Y011205D01*
X035883Y011205D02*
X036080Y011205D01*
X035982Y011303D02*
X035982Y010909D01*
X036080Y010811D01*
X036313Y010909D02*
X036313Y011106D01*
X036412Y011205D01*
X036608Y011205D01*
X036707Y011106D01*
X036707Y011008D01*
X036313Y011008D01*
X036313Y010909D02*
X036412Y010811D01*
X036608Y010811D01*
X036958Y010909D02*
X036958Y011106D01*
X037056Y011205D01*
X037351Y011205D01*
X037351Y011401D02*
X037351Y010811D01*
X037056Y010811D01*
X036958Y010909D01*
X037378Y010253D02*
X037378Y009859D01*
X037477Y009761D01*
X037710Y009761D02*
X037710Y010155D01*
X037808Y010155D01*
X037906Y010056D01*
X038005Y010155D01*
X038103Y010056D01*
X038103Y009761D01*
X037906Y009761D02*
X037906Y010056D01*
X037477Y010155D02*
X037280Y010155D01*
X037029Y009663D02*
X036635Y009663D01*
X036286Y009761D02*
X036089Y009761D01*
X035991Y009859D01*
X035991Y010056D01*
X036089Y010155D01*
X036286Y010155D01*
X036385Y010056D01*
X036385Y009958D01*
X035991Y009958D01*
X035758Y010155D02*
X035561Y010155D01*
X035660Y010253D02*
X035660Y009859D01*
X035758Y009761D01*
X035328Y009761D02*
X035131Y009761D01*
X035230Y009761D02*
X035230Y010155D01*
X035131Y010155D01*
X035230Y010351D02*
X035230Y010450D01*
X034890Y010155D02*
X034791Y010155D01*
X034594Y009958D01*
X034594Y009761D02*
X034594Y010155D01*
X034343Y010056D02*
X034343Y009859D01*
X034245Y009761D01*
X033950Y009761D01*
X033950Y009564D02*
X033950Y010155D01*
X034245Y010155D01*
X034343Y010056D01*
X033699Y009958D02*
X033699Y009859D01*
X033600Y009761D01*
X033404Y009761D01*
X033305Y009859D01*
X033404Y010056D02*
X033600Y010056D01*
X033699Y009958D01*
X033699Y010253D02*
X033600Y010351D01*
X033404Y010351D01*
X033305Y010253D01*
X033305Y010155D01*
X033404Y010056D01*
X033305Y009301D02*
X033305Y008809D01*
X033404Y008711D01*
X033600Y008711D01*
X033699Y008809D01*
X033699Y009301D01*
X033950Y009105D02*
X034245Y009105D01*
X034343Y009006D01*
X034343Y008711D01*
X034594Y008809D02*
X034594Y009006D01*
X034693Y009105D01*
X034988Y009105D01*
X034988Y009301D02*
X034988Y008711D01*
X034693Y008711D01*
X034594Y008809D01*
X035239Y008809D02*
X035239Y009006D01*
X035337Y009105D01*
X035534Y009105D01*
X035633Y009006D01*
X035633Y008908D01*
X035239Y008908D01*
X035239Y008809D02*
X035337Y008711D01*
X035534Y008711D01*
X035883Y008711D02*
X035883Y009105D01*
X035883Y008908D02*
X036080Y009105D01*
X036179Y009105D01*
X036421Y009006D02*
X036519Y009105D01*
X036716Y009105D01*
X036814Y009006D01*
X036814Y008711D01*
X037065Y008809D02*
X037164Y008908D01*
X037459Y008908D01*
X037459Y009006D02*
X037459Y008711D01*
X037164Y008711D01*
X037065Y008809D01*
X037164Y009105D02*
X037360Y009105D01*
X037459Y009006D01*
X037710Y009105D02*
X037710Y008711D01*
X038103Y008711D02*
X038103Y009006D01*
X038005Y009105D01*
X037710Y009105D01*
X038354Y009006D02*
X038354Y008809D01*
X038453Y008711D01*
X038748Y008711D01*
X038748Y009301D01*
X038748Y009105D02*
X038453Y009105D01*
X038354Y009006D01*
X036421Y009301D02*
X036421Y008711D01*
X033950Y008711D02*
X033950Y009105D01*
X003424Y009273D02*
X002774Y009273D01*
X002774Y009598D01*
X002882Y009707D01*
X003099Y009707D01*
X003207Y009598D01*
X003207Y009273D01*
X003207Y009023D02*
X003099Y008915D01*
X002665Y008915D01*
X002774Y009023D02*
X002774Y008806D01*
X002774Y008557D02*
X002774Y008340D01*
X002665Y008448D02*
X003099Y008448D01*
X003207Y008557D01*
X003207Y008074D02*
X002882Y008074D01*
X002774Y007965D01*
X002774Y007749D01*
X002882Y007640D01*
X002557Y007640D02*
X003207Y007640D01*
X003207Y009973D02*
X003207Y010298D01*
X003099Y010406D01*
X002990Y010298D01*
X002990Y010081D01*
X002882Y009973D01*
X002774Y010081D01*
X002774Y010406D01*
X002774Y010673D02*
X002882Y010673D01*
X002882Y010781D01*
X002774Y010781D01*
X002774Y010673D01*
X003099Y010673D02*
X003207Y010673D01*
X003207Y010781D01*
X003099Y010781D01*
X003099Y010673D01*
X003207Y011022D02*
X002557Y011456D01*
X002557Y012156D02*
X003207Y011722D01*
X003207Y012422D02*
X003207Y012747D01*
X003099Y012856D01*
X002990Y012747D01*
X002990Y012530D01*
X002882Y012422D01*
X002774Y012530D01*
X002774Y012856D01*
X002882Y013122D02*
X002774Y013230D01*
X002774Y013447D01*
X002882Y013556D01*
X003207Y013556D01*
X003099Y013822D02*
X002990Y013930D01*
X002990Y014255D01*
X002882Y014255D02*
X003207Y014255D01*
X003207Y013930D01*
X003099Y013822D01*
X002774Y013930D02*
X002774Y014147D01*
X002882Y014255D01*
X002665Y014521D02*
X002557Y014630D01*
X002557Y014847D01*
X002665Y014955D01*
X002774Y014955D01*
X003207Y014521D01*
X003207Y014955D01*
X003099Y015221D02*
X003207Y015330D01*
X003207Y015547D01*
X003099Y015655D01*
X002665Y015655D01*
X003099Y015221D01*
X002665Y015221D01*
X002557Y015330D01*
X002557Y015547D01*
X002665Y015655D01*
X002774Y015921D02*
X002557Y016138D01*
X003207Y016138D01*
X003207Y015921D02*
X003207Y016355D01*
X003207Y016621D02*
X003099Y016621D01*
X002665Y017055D01*
X002557Y017055D01*
X002557Y016621D01*
X003099Y017321D02*
X003099Y017429D01*
X003207Y017429D01*
X003207Y017321D01*
X003099Y017321D01*
X003099Y017671D02*
X003207Y017779D01*
X003207Y017996D01*
X003099Y018104D01*
X002882Y018104D01*
X002774Y017996D01*
X002774Y017779D01*
X002882Y017671D01*
X003099Y017671D01*
X003207Y018370D02*
X002774Y018370D01*
X002990Y018370D02*
X002774Y018587D01*
X002774Y018696D01*
X002882Y018954D02*
X002774Y019062D01*
X002774Y019387D01*
X003316Y019387D01*
X003424Y019279D01*
X003424Y019170D01*
X003207Y019062D02*
X003207Y019387D01*
X003207Y019653D02*
X002557Y020087D01*
X002882Y018954D02*
X003099Y018954D01*
X003207Y019062D01*
X003207Y013122D02*
X002557Y013122D01*
D18*
X003093Y020971D02*
X008290Y020971D01*
X008290Y022900D01*
X008290Y023963D02*
X008290Y025144D01*
X008290Y026207D02*
X008290Y026483D01*
X003526Y026483D01*
X002935Y025853D02*
X002935Y022546D01*
X002936Y022546D02*
X002933Y022508D01*
X002927Y022470D01*
X002917Y022433D01*
X002903Y022397D01*
X002887Y022362D01*
X002867Y022330D01*
X002844Y022299D01*
X002818Y022270D01*
X002789Y022244D01*
X002758Y022221D01*
X002726Y022201D01*
X002691Y022185D01*
X002655Y022171D01*
X002618Y022161D01*
X002580Y022155D01*
X002542Y022152D01*
X002510Y022153D01*
X002479Y022149D01*
X002448Y022142D01*
X002418Y022131D01*
X002390Y022117D01*
X002364Y022099D01*
X002340Y022078D01*
X002319Y022054D01*
X002301Y022028D01*
X002287Y022000D01*
X002276Y021970D01*
X002269Y021939D01*
X002265Y021908D01*
X002266Y021876D01*
X002266Y021561D01*
X008644Y027388D02*
X008644Y028018D01*
X008644Y028019D02*
X008650Y028037D01*
X008659Y028055D01*
X008671Y028070D01*
X008687Y028082D01*
X008704Y028091D01*
X008723Y028097D01*
X008742Y028099D01*
X008762Y028097D01*
X008644Y027388D02*
X008650Y027370D01*
X008659Y027352D01*
X008671Y027337D01*
X008687Y027325D01*
X008704Y027316D01*
X008723Y027310D01*
X008742Y027308D01*
X008762Y027310D01*
X009313Y027310D02*
X009331Y027308D01*
X009348Y027309D01*
X009365Y027313D01*
X009381Y027320D01*
X009396Y027330D01*
X009408Y027342D01*
X009418Y027356D01*
X009426Y027372D01*
X009431Y027388D01*
X009431Y028018D01*
X009431Y028019D02*
X009426Y028035D01*
X009418Y028051D01*
X009408Y028065D01*
X009396Y028077D01*
X009381Y028087D01*
X009365Y028094D01*
X009348Y028098D01*
X009331Y028099D01*
X009313Y028097D01*
X009707Y025892D02*
X009707Y025577D01*
X009943Y025577D01*
X010573Y025577D02*
X010809Y025577D01*
X010809Y025892D01*
X010809Y024514D02*
X010809Y024199D01*
X010573Y024199D01*
X009943Y024199D02*
X009707Y024199D01*
X009707Y024514D01*
X012423Y028176D02*
X013053Y028176D01*
X013054Y028176D02*
X013070Y028181D01*
X013086Y028189D01*
X013100Y028199D01*
X013112Y028211D01*
X013122Y028226D01*
X013129Y028242D01*
X013133Y028259D01*
X013134Y028276D01*
X013132Y028294D01*
X013132Y028845D02*
X013134Y028863D01*
X013133Y028880D01*
X013129Y028897D01*
X013122Y028913D01*
X013112Y028928D01*
X013100Y028940D01*
X013086Y028950D01*
X013070Y028958D01*
X013054Y028963D01*
X013053Y028963D02*
X012423Y028963D01*
X012407Y028958D01*
X012391Y028950D01*
X012377Y028940D01*
X012365Y028928D01*
X012355Y028913D01*
X012348Y028897D01*
X012344Y028880D01*
X012343Y028863D01*
X012345Y028845D01*
X012345Y028294D02*
X012343Y028276D01*
X012344Y028259D01*
X012348Y028242D01*
X012355Y028226D01*
X012365Y028211D01*
X012377Y028199D01*
X012391Y028189D01*
X012407Y028181D01*
X012423Y028176D01*
X016542Y028711D02*
X016542Y029687D01*
X016935Y030199D02*
X018148Y030199D01*
X018542Y029687D02*
X018542Y028699D01*
X018148Y028199D02*
X016935Y028199D01*
X017042Y029199D02*
X017044Y029243D01*
X017050Y029287D01*
X017060Y029330D01*
X017073Y029372D01*
X017090Y029413D01*
X017111Y029452D01*
X017135Y029489D01*
X017162Y029524D01*
X017192Y029556D01*
X017225Y029586D01*
X017261Y029612D01*
X017298Y029636D01*
X017338Y029655D01*
X017379Y029672D01*
X017422Y029684D01*
X017465Y029693D01*
X017509Y029698D01*
X017553Y029699D01*
X017597Y029696D01*
X017641Y029689D01*
X017684Y029678D01*
X017726Y029664D01*
X017766Y029646D01*
X017805Y029624D01*
X017841Y029600D01*
X017875Y029572D01*
X017907Y029541D01*
X017936Y029507D01*
X017962Y029471D01*
X017984Y029433D01*
X018003Y029393D01*
X018018Y029351D01*
X018030Y029309D01*
X018038Y029265D01*
X018042Y029221D01*
X018042Y029177D01*
X018038Y029133D01*
X018030Y029089D01*
X018018Y029047D01*
X018003Y029005D01*
X017984Y028965D01*
X017962Y028927D01*
X017936Y028891D01*
X017907Y028857D01*
X017875Y028826D01*
X017841Y028798D01*
X017805Y028774D01*
X017766Y028752D01*
X017726Y028734D01*
X017684Y028720D01*
X017641Y028709D01*
X017597Y028702D01*
X017553Y028699D01*
X017509Y028700D01*
X017465Y028705D01*
X017422Y028714D01*
X017379Y028726D01*
X017338Y028743D01*
X017298Y028762D01*
X017261Y028786D01*
X017225Y028812D01*
X017192Y028842D01*
X017162Y028874D01*
X017135Y028909D01*
X017111Y028946D01*
X017090Y028985D01*
X017073Y029026D01*
X017060Y029068D01*
X017050Y029111D01*
X017044Y029155D01*
X017042Y029199D01*
X019549Y031758D02*
X019549Y032073D01*
X019786Y032073D01*
X019864Y032900D02*
X020061Y032900D01*
X019864Y032900D02*
X019864Y033136D01*
X020416Y032073D02*
X020652Y032073D01*
X020652Y031758D01*
X021046Y030971D02*
X021046Y030656D01*
X021282Y030656D01*
X021337Y030199D02*
X020124Y030199D01*
X019731Y029687D02*
X019731Y028711D01*
X020124Y028199D02*
X021337Y028199D01*
X021731Y028699D02*
X021731Y029687D01*
X021912Y030656D02*
X022148Y030656D01*
X022148Y030971D01*
X021754Y032900D02*
X021557Y032900D01*
X021754Y032900D02*
X021754Y033097D01*
X023105Y033467D02*
X023105Y033648D01*
X023227Y033740D01*
X023105Y033829D02*
X023105Y033648D01*
X023111Y033638D02*
X023227Y033562D01*
X023105Y034058D02*
X023105Y034239D01*
X023227Y034331D01*
X023105Y034420D02*
X023105Y034239D01*
X023111Y034229D02*
X023227Y034153D01*
X022660Y035282D02*
X022502Y035282D01*
X022502Y035794D01*
X021951Y035794D01*
X022055Y035947D02*
X022555Y035947D01*
X022502Y035794D02*
X022660Y035794D01*
X022502Y035282D02*
X021951Y035282D01*
X022055Y036547D02*
X022555Y036547D01*
X025022Y035813D02*
X025022Y035499D01*
X025022Y035813D02*
X025258Y035813D01*
X025888Y035813D02*
X026124Y035813D01*
X026124Y035499D01*
X026479Y035577D02*
X026479Y035262D01*
X026715Y035262D01*
X027345Y035262D02*
X027581Y035262D01*
X027581Y035577D01*
X028093Y035499D02*
X028093Y035813D01*
X028329Y035813D01*
X028959Y035813D02*
X029195Y035813D01*
X029195Y035499D01*
X029628Y035499D02*
X029628Y035813D01*
X029864Y035813D01*
X030494Y035813D02*
X030731Y035813D01*
X030731Y035499D01*
X030534Y030577D02*
X030534Y030262D01*
X030416Y030262D01*
X030494Y029632D02*
X029234Y029632D01*
X029668Y030262D02*
X029668Y030577D01*
X029668Y030262D02*
X029786Y030262D01*
X029234Y028609D02*
X030494Y028609D01*
X030199Y027546D02*
X030199Y026995D01*
X029687Y026995D01*
X029687Y027546D01*
X029451Y027546D02*
X029451Y027388D01*
X028939Y027388D01*
X028939Y026837D01*
X028664Y026837D02*
X028664Y026995D01*
X028152Y026995D01*
X028152Y027546D01*
X028664Y027546D02*
X028664Y026995D01*
X028939Y027388D02*
X028939Y027546D01*
X029451Y027388D02*
X029451Y026837D01*
X029687Y026837D02*
X029687Y026995D01*
X030199Y026995D02*
X030199Y026837D01*
X028152Y026837D02*
X028152Y026995D01*
X024771Y027126D02*
X024771Y026626D01*
X024171Y026626D02*
X024171Y027126D01*
X020231Y029199D02*
X020233Y029243D01*
X020239Y029287D01*
X020249Y029330D01*
X020262Y029372D01*
X020279Y029413D01*
X020300Y029452D01*
X020324Y029489D01*
X020351Y029524D01*
X020381Y029556D01*
X020414Y029586D01*
X020450Y029612D01*
X020487Y029636D01*
X020527Y029655D01*
X020568Y029672D01*
X020611Y029684D01*
X020654Y029693D01*
X020698Y029698D01*
X020742Y029699D01*
X020786Y029696D01*
X020830Y029689D01*
X020873Y029678D01*
X020915Y029664D01*
X020955Y029646D01*
X020994Y029624D01*
X021030Y029600D01*
X021064Y029572D01*
X021096Y029541D01*
X021125Y029507D01*
X021151Y029471D01*
X021173Y029433D01*
X021192Y029393D01*
X021207Y029351D01*
X021219Y029309D01*
X021227Y029265D01*
X021231Y029221D01*
X021231Y029177D01*
X021227Y029133D01*
X021219Y029089D01*
X021207Y029047D01*
X021192Y029005D01*
X021173Y028965D01*
X021151Y028927D01*
X021125Y028891D01*
X021096Y028857D01*
X021064Y028826D01*
X021030Y028798D01*
X020994Y028774D01*
X020955Y028752D01*
X020915Y028734D01*
X020873Y028720D01*
X020830Y028709D01*
X020786Y028702D01*
X020742Y028699D01*
X020698Y028700D01*
X020654Y028705D01*
X020611Y028714D01*
X020568Y028726D01*
X020527Y028743D01*
X020487Y028762D01*
X020450Y028786D01*
X020414Y028812D01*
X020381Y028842D01*
X020351Y028874D01*
X020324Y028909D01*
X020300Y028946D01*
X020279Y028985D01*
X020262Y029026D01*
X020249Y029068D01*
X020239Y029111D01*
X020233Y029155D01*
X020231Y029199D01*
X018077Y033384D02*
X017896Y033384D01*
X017804Y033506D01*
X017715Y033384D02*
X017896Y033384D01*
X017906Y033390D02*
X017982Y033506D01*
X019864Y034593D02*
X019864Y034790D01*
X020061Y034790D01*
X025219Y034731D02*
X025770Y034731D01*
X025770Y034219D01*
X025219Y034219D01*
X025770Y034219D02*
X025927Y034219D01*
X025927Y034731D02*
X025770Y034731D01*
X013605Y035124D02*
X013447Y035124D01*
X013447Y035636D01*
X012896Y035636D01*
X012896Y035124D02*
X013447Y035124D01*
X013447Y035636D02*
X013605Y035636D01*
X018093Y015011D02*
X017954Y014872D01*
X018093Y015011D02*
X018232Y014872D01*
X018844Y014260D02*
X018844Y013981D01*
X018232Y013369D02*
X018093Y013230D01*
X017954Y013369D01*
X017341Y013981D02*
X017202Y014121D01*
X017341Y014260D01*
D19*
X011812Y022756D02*
X011632Y022756D01*
X011722Y022756D02*
X011722Y023026D01*
X011632Y022936D01*
X011518Y022891D02*
X011338Y022891D01*
X011473Y023026D01*
X011473Y022756D01*
X011223Y022801D02*
X011178Y022756D01*
X011088Y022756D01*
X011043Y022801D01*
X011043Y022981D01*
X011088Y023026D01*
X011178Y023026D01*
X011223Y022981D01*
X009435Y026890D02*
X009255Y026890D01*
X009435Y027070D01*
X009435Y027115D01*
X009390Y027160D01*
X009300Y027160D01*
X009255Y027115D01*
X009141Y027160D02*
X009051Y027160D01*
X009096Y027160D02*
X009096Y026935D01*
X009051Y026890D01*
X009005Y026890D01*
X008960Y026935D01*
X008846Y026935D02*
X008801Y026890D01*
X008711Y026890D01*
X008666Y026935D01*
X008711Y027025D02*
X008801Y027025D01*
X008846Y026980D01*
X008846Y026935D01*
X008711Y027025D02*
X008666Y027070D01*
X008666Y027115D01*
X008711Y027160D01*
X008801Y027160D01*
X008846Y027115D01*
X012069Y028884D02*
X004392Y028884D01*
X004392Y035971D01*
X012069Y035971D01*
X012069Y028884D01*
X017691Y027191D02*
X017691Y025223D01*
X017900Y025223D01*
X018467Y025223D02*
X018916Y025223D01*
X019463Y025223D02*
X019908Y025223D01*
X020467Y025223D02*
X020916Y025223D01*
X021479Y025223D02*
X021912Y025223D01*
X022455Y025223D02*
X022884Y025223D01*
X023451Y025223D02*
X023691Y025223D01*
X023691Y027191D01*
X023459Y027191D01*
X022896Y027191D02*
X022467Y027191D01*
X021927Y027191D02*
X021463Y027191D01*
X020920Y027191D02*
X020455Y027191D01*
X019908Y027191D02*
X019463Y027191D01*
X018892Y027191D02*
X018463Y027191D01*
X017900Y027191D02*
X017691Y027191D01*
X025002Y027428D02*
X025002Y026247D01*
X025937Y027156D02*
X025939Y027165D01*
X025944Y027172D01*
X025952Y027177D01*
X025961Y027178D01*
X025970Y027175D01*
X025977Y027169D01*
X025981Y027161D01*
X025981Y027151D01*
X025977Y027143D01*
X025970Y027137D01*
X025961Y027134D01*
X025952Y027135D01*
X025944Y027140D01*
X025939Y027147D01*
X025937Y027156D01*
X026302Y027428D02*
X026302Y026247D01*
X026766Y025642D02*
X026766Y021654D01*
X027366Y021654D01*
X027366Y025642D01*
X026766Y025642D01*
X027366Y025642D02*
X030166Y025642D01*
X030166Y021654D01*
X027366Y021654D01*
X033762Y024790D02*
X035337Y024790D01*
X035337Y032034D01*
X033762Y032034D01*
X004392Y028884D02*
X002030Y028884D01*
X002030Y035971D01*
X004392Y035971D01*
M02*
