G04 This is an RS-274x file exported by *
G04 gerbv version 2.6.0 *
G04 More information is available about gerbv at *
G04 http://gerbv.gpleda.org/ *
G04 --End of header info--*
%MOIN*%
%FSLAX34Y34*%
%IPPOS*%
G04 --Define apertures--*
%ADD10C,0.0100*%
%ADD11C,0.0000*%
%ADD12C,0.0039*%
%ADD13R,0.0102X0.0220*%
%ADD14R,0.0394X0.0394*%
%ADD15R,0.0118X0.0118*%
%ADD16R,0.0220X0.0102*%
%ADD17R,0.0142X0.0870*%
%ADD18R,0.0785X0.0598*%
%ADD19R,0.0465X0.0711*%
%ADD20R,0.0409X0.0488*%
%ADD21R,0.0315X0.0630*%
%ADD22R,0.0198X0.0277*%
%ADD23R,0.0252X0.0291*%
%ADD24R,0.0315X0.0354*%
%ADD25R,0.0354X0.0315*%
%ADD26R,0.0220X0.0220*%
%ADD27R,0.0277X0.0198*%
%ADD28R,0.0488X0.0409*%
%ADD29R,0.0969X0.0850*%
%ADD30R,0.0449X0.0094*%
%ADD31R,0.0378X0.0693*%
%ADD32R,0.0488X0.0252*%
%ADD33C,0.0480*%
%ADD34R,0.0486X0.0256*%
%ADD35R,0.0441X0.0598*%
%ADD36R,0.0638X0.0441*%
%ADD37R,0.0528X0.0252*%
%ADD38C,0.0094*%
%ADD39R,0.0283X0.0480*%
%ADD40R,0.0480X0.0283*%
%ADD41R,0.1890X0.1890*%
%ADD42R,0.0630X0.0315*%
%ADD43R,0.0096X0.0326*%
%ADD44R,0.1693X0.0315*%
%ADD45R,0.1339X0.0591*%
%ADD46C,0.0080*%
%ADD47R,0.0230X0.0230*%
%ADD48R,0.0091X0.0091*%
%ADD49R,0.0243X0.0071*%
%ADD50R,0.0071X0.0283*%
%ADD51R,0.0071X0.0243*%
%ADD52R,0.0540X0.0240*%
%ADD53R,0.0283X0.0638*%
G04 --Start main section--*
G54D10*
G01X0005927Y0004947D02*
G01X0035455Y0004947D01*
G01X0035455Y0004947D02*
G01X0035579Y0004949D01*
G01X0035579Y0004949D02*
G01X0035702Y0004955D01*
G01X0035702Y0004955D02*
G01X0035826Y0004964D01*
G01X0035826Y0004964D02*
G01X0035948Y0004978D01*
G01X0035948Y0004978D02*
G01X0036071Y0004995D01*
G01X0036071Y0004995D02*
G01X0036193Y0005017D01*
G01X0036193Y0005017D02*
G01X0036314Y0005042D01*
G01X0036314Y0005042D02*
G01X0036434Y0005071D01*
G01X0036434Y0005071D02*
G01X0036553Y0005103D01*
G01X0036553Y0005103D02*
G01X0036672Y0005140D01*
G01X0036672Y0005140D02*
G01X0036789Y0005180D01*
G01X0036789Y0005180D02*
G01X0036904Y0005223D01*
G01X0036904Y0005223D02*
G01X0037019Y0005271D01*
G01X0037019Y0005271D02*
G01X0037131Y0005322D01*
G01X0037131Y0005322D02*
G01X0037242Y0005376D01*
G01X0037242Y0005376D02*
G01X0037352Y0005434D01*
G01X0037352Y0005434D02*
G01X0037459Y0005495D01*
G01X0037459Y0005495D02*
G01X0037565Y0005560D01*
G01X0037565Y0005560D02*
G01X0037668Y0005628D01*
G01X0037668Y0005628D02*
G01X0037769Y0005699D01*
G01X0037769Y0005699D02*
G01X0037868Y0005773D01*
G01X0037868Y0005773D02*
G01X0037965Y0005850D01*
G01X0037965Y0005850D02*
G01X0038059Y0005931D01*
G01X0038059Y0005931D02*
G01X0038150Y0006014D01*
G01X0038150Y0006014D02*
G01X0038239Y0006100D01*
G01X0038239Y0006100D02*
G01X0038325Y0006189D01*
G01X0038325Y0006189D02*
G01X0038408Y0006280D01*
G01X0038408Y0006280D02*
G01X0038489Y0006374D01*
G01X0038489Y0006374D02*
G01X0038566Y0006471D01*
G01X0038566Y0006471D02*
G01X0038640Y0006570D01*
G01X0038640Y0006570D02*
G01X0038711Y0006671D01*
G01X0038711Y0006671D02*
G01X0038779Y0006774D01*
G01X0038779Y0006774D02*
G01X0038844Y0006880D01*
G01X0038844Y0006880D02*
G01X0038905Y0006987D01*
G01X0038905Y0006987D02*
G01X0038963Y0007097D01*
G01X0038963Y0007097D02*
G01X0039017Y0007208D01*
G01X0039017Y0007208D02*
G01X0039068Y0007320D01*
G01X0039068Y0007320D02*
G01X0039116Y0007435D01*
G01X0039116Y0007435D02*
G01X0039159Y0007550D01*
G01X0039159Y0007550D02*
G01X0039199Y0007667D01*
G01X0039199Y0007667D02*
G01X0039236Y0007786D01*
G01X0039236Y0007786D02*
G01X0039268Y0007905D01*
G01X0039268Y0007905D02*
G01X0039297Y0008025D01*
G01X0039297Y0008025D02*
G01X0039322Y0008146D01*
G01X0039322Y0008146D02*
G01X0039344Y0008268D01*
G01X0039344Y0008268D02*
G01X0039361Y0008391D01*
G01X0039361Y0008391D02*
G01X0039375Y0008513D01*
G01X0039375Y0008513D02*
G01X0039384Y0008637D01*
G01X0039384Y0008637D02*
G01X0039390Y0008760D01*
G01X0039390Y0008760D02*
G01X0039392Y0008884D01*
G01X0039392Y0008884D02*
G01X0039392Y0037231D01*
G01X0039392Y0037231D02*
G01X0039390Y0037308D01*
G01X0039390Y0037308D02*
G01X0039384Y0037385D01*
G01X0039384Y0037385D02*
G01X0039375Y0037462D01*
G01X0039375Y0037462D02*
G01X0039362Y0037538D01*
G01X0039362Y0037538D02*
G01X0039345Y0037614D01*
G01X0039345Y0037614D02*
G01X0039324Y0037688D01*
G01X0039324Y0037688D02*
G01X0039300Y0037762D01*
G01X0039300Y0037762D02*
G01X0039272Y0037834D01*
G01X0039272Y0037834D02*
G01X0039241Y0037904D01*
G01X0039241Y0037904D02*
G01X0039206Y0037973D01*
G01X0039206Y0037973D02*
G01X0039168Y0038041D01*
G01X0039168Y0038041D02*
G01X0039127Y0038106D01*
G01X0039127Y0038106D02*
G01X0039082Y0038169D01*
G01X0039082Y0038169D02*
G01X0039034Y0038230D01*
G01X0039034Y0038230D02*
G01X0038984Y0038289D01*
G01X0038984Y0038289D02*
G01X0038931Y0038345D01*
G01X0038931Y0038345D02*
G01X0038875Y0038398D01*
G01X0038875Y0038398D02*
G01X0038816Y0038448D01*
G01X0038816Y0038448D02*
G01X0038755Y0038496D01*
G01X0038755Y0038496D02*
G01X0038692Y0038541D01*
G01X0038692Y0038541D02*
G01X0038627Y0038582D01*
G01X0038627Y0038582D02*
G01X0038559Y0038620D01*
G01X0038559Y0038620D02*
G01X0038490Y0038655D01*
G01X0038490Y0038655D02*
G01X0038420Y0038686D01*
G01X0038420Y0038686D02*
G01X0038348Y0038714D01*
G01X0038348Y0038714D02*
G01X0038274Y0038738D01*
G01X0038274Y0038738D02*
G01X0038200Y0038759D01*
G01X0038200Y0038759D02*
G01X0038124Y0038776D01*
G01X0038124Y0038776D02*
G01X0038048Y0038789D01*
G01X0038048Y0038789D02*
G01X0037971Y0038798D01*
G01X0037971Y0038798D02*
G01X0037894Y0038804D01*
G01X0037894Y0038804D02*
G01X0037817Y0038806D01*
G01X0037817Y0038806D02*
G01X0003565Y0038806D01*
G01X0003565Y0038806D02*
G01X0003488Y0038804D01*
G01X0003488Y0038804D02*
G01X0003411Y0038798D01*
G01X0003411Y0038798D02*
G01X0003334Y0038789D01*
G01X0003334Y0038789D02*
G01X0003258Y0038776D01*
G01X0003258Y0038776D02*
G01X0003182Y0038759D01*
G01X0003182Y0038759D02*
G01X0003108Y0038738D01*
G01X0003108Y0038738D02*
G01X0003034Y0038714D01*
G01X0003034Y0038714D02*
G01X0002962Y0038686D01*
G01X0002962Y0038686D02*
G01X0002892Y0038655D01*
G01X0002892Y0038655D02*
G01X0002823Y0038620D01*
G01X0002823Y0038620D02*
G01X0002755Y0038582D01*
G01X0002755Y0038582D02*
G01X0002690Y0038541D01*
G01X0002690Y0038541D02*
G01X0002627Y0038496D01*
G01X0002627Y0038496D02*
G01X0002566Y0038448D01*
G01X0002566Y0038448D02*
G01X0002507Y0038398D01*
G01X0002507Y0038398D02*
G01X0002451Y0038345D01*
G01X0002451Y0038345D02*
G01X0002398Y0038289D01*
G01X0002398Y0038289D02*
G01X0002348Y0038230D01*
G01X0002348Y0038230D02*
G01X0002300Y0038169D01*
G01X0002300Y0038169D02*
G01X0002255Y0038106D01*
G01X0002255Y0038106D02*
G01X0002214Y0038041D01*
G01X0002214Y0038041D02*
G01X0002176Y0037973D01*
G01X0002176Y0037973D02*
G01X0002141Y0037904D01*
G01X0002141Y0037904D02*
G01X0002110Y0037834D01*
G01X0002110Y0037834D02*
G01X0002082Y0037762D01*
G01X0002082Y0037762D02*
G01X0002058Y0037688D01*
G01X0002058Y0037688D02*
G01X0002037Y0037614D01*
G01X0002037Y0037614D02*
G01X0002020Y0037538D01*
G01X0002020Y0037538D02*
G01X0002007Y0037462D01*
G01X0002007Y0037462D02*
G01X0001998Y0037385D01*
G01X0001998Y0037385D02*
G01X0001992Y0037308D01*
G01X0001992Y0037308D02*
G01X0001990Y0037231D01*
G01X0001990Y0037231D02*
G01X0001990Y0008884D01*
G01X0001990Y0008884D02*
G01X0001992Y0008760D01*
G01X0001992Y0008760D02*
G01X0001998Y0008637D01*
G01X0001998Y0008637D02*
G01X0002007Y0008513D01*
G01X0002007Y0008513D02*
G01X0002021Y0008391D01*
G01X0002021Y0008391D02*
G01X0002038Y0008268D01*
G01X0002038Y0008268D02*
G01X0002060Y0008146D01*
G01X0002060Y0008146D02*
G01X0002085Y0008025D01*
G01X0002085Y0008025D02*
G01X0002114Y0007905D01*
G01X0002114Y0007905D02*
G01X0002146Y0007786D01*
G01X0002146Y0007786D02*
G01X0002183Y0007667D01*
G01X0002183Y0007667D02*
G01X0002223Y0007550D01*
G01X0002223Y0007550D02*
G01X0002266Y0007435D01*
G01X0002266Y0007435D02*
G01X0002314Y0007320D01*
G01X0002314Y0007320D02*
G01X0002365Y0007208D01*
G01X0002365Y0007208D02*
G01X0002419Y0007097D01*
G01X0002419Y0007097D02*
G01X0002477Y0006987D01*
G01X0002477Y0006987D02*
G01X0002538Y0006880D01*
G01X0002538Y0006880D02*
G01X0002603Y0006774D01*
G01X0002603Y0006774D02*
G01X0002671Y0006671D01*
G01X0002671Y0006671D02*
G01X0002742Y0006570D01*
G01X0002742Y0006570D02*
G01X0002816Y0006471D01*
G01X0002816Y0006471D02*
G01X0002893Y0006374D01*
G01X0002893Y0006374D02*
G01X0002974Y0006280D01*
G01X0002974Y0006280D02*
G01X0003057Y0006189D01*
G01X0003057Y0006189D02*
G01X0003143Y0006100D01*
G01X0003143Y0006100D02*
G01X0003232Y0006014D01*
G01X0003232Y0006014D02*
G01X0003323Y0005931D01*
G01X0003323Y0005931D02*
G01X0003417Y0005850D01*
G01X0003417Y0005850D02*
G01X0003514Y0005773D01*
G01X0003514Y0005773D02*
G01X0003613Y0005699D01*
G01X0003613Y0005699D02*
G01X0003714Y0005628D01*
G01X0003714Y0005628D02*
G01X0003817Y0005560D01*
G01X0003817Y0005560D02*
G01X0003923Y0005495D01*
G01X0003923Y0005495D02*
G01X0004030Y0005434D01*
G01X0004030Y0005434D02*
G01X0004140Y0005376D01*
G01X0004140Y0005376D02*
G01X0004251Y0005322D01*
G01X0004251Y0005322D02*
G01X0004363Y0005271D01*
G01X0004363Y0005271D02*
G01X0004478Y0005223D01*
G01X0004478Y0005223D02*
G01X0004593Y0005180D01*
G01X0004593Y0005180D02*
G01X0004710Y0005140D01*
G01X0004710Y0005140D02*
G01X0004829Y0005103D01*
G01X0004829Y0005103D02*
G01X0004948Y0005071D01*
G01X0004948Y0005071D02*
G01X0005068Y0005042D01*
G01X0005068Y0005042D02*
G01X0005189Y0005017D01*
G01X0005189Y0005017D02*
G01X0005311Y0004995D01*
G01X0005311Y0004995D02*
G01X0005434Y0004978D01*
G01X0005434Y0004978D02*
G01X0005556Y0004964D01*
G01X0005556Y0004964D02*
G01X0005680Y0004955D01*
G01X0005680Y0004955D02*
G01X0005803Y0004949D01*
G01X0005803Y0004949D02*
G01X0005927Y0004947D01*
G54D13*
G01X0021400Y0032939D03*
G01X0021203Y0032939D03*
G01X0021006Y0032939D03*
G01X0020809Y0032939D03*
G01X0020612Y0032939D03*
G01X0020416Y0032939D03*
G01X0020219Y0032939D03*
G01X0020219Y0034750D03*
G01X0020416Y0034750D03*
G01X0020612Y0034750D03*
G01X0020809Y0034750D03*
G01X0021006Y0034750D03*
G01X0021203Y0034750D03*
G01X0021400Y0034750D03*
G54D14*
G01X0020809Y0033845D03*
G54D15*
G01X0021636Y0034672D03*
G54D16*
G01X0021715Y0034436D03*
G01X0021715Y0034239D03*
G01X0021715Y0034042D03*
G01X0021715Y0033845D03*
G01X0021715Y0033648D03*
G01X0021715Y0033451D03*
G01X0021715Y0033254D03*
G01X0019904Y0033254D03*
G01X0019904Y0033451D03*
G01X0019904Y0033648D03*
G01X0019904Y0033845D03*
G01X0019904Y0034042D03*
G01X0019904Y0034239D03*
G01X0019904Y0034436D03*
G54D17*
G01X0020179Y0036995D03*
G01X0020435Y0036995D03*
G01X0020691Y0036995D03*
G01X0020947Y0036995D03*
G01X0021203Y0036995D03*
G54D18*
G01X0021853Y0038215D03*
G01X0019530Y0038215D03*
G54D19*
G01X0019707Y0037310D03*
G01X0021675Y0037310D03*
G54D20*
G01X0019057Y0035656D03*
G01X0018309Y0035656D03*
G01X0026774Y0030420D03*
G01X0026774Y0029711D03*
G01X0027522Y0029711D03*
G01X0027522Y0030420D03*
G01X0019569Y0016522D03*
G01X0018821Y0016522D03*
G01X0011183Y0023451D03*
G01X0010435Y0023451D03*
G01X0005435Y0027231D03*
G01X0005435Y0027979D03*
G01X0004687Y0027979D03*
G01X0004687Y0027231D03*
G54D21*
G01X0021754Y0036247D03*
G01X0022857Y0036247D03*
G54D22*
G01X0022758Y0035538D03*
G01X0021853Y0035538D03*
G01X0025120Y0034475D03*
G01X0026026Y0034475D03*
G01X0013703Y0035380D03*
G01X0012797Y0035380D03*
G54D23*
G01X0019727Y0031404D03*
G01X0020475Y0031404D03*
G01X0021223Y0031325D03*
G01X0021971Y0031325D03*
G01X0021597Y0030499D03*
G01X0020101Y0032231D03*
G01X0025199Y0035144D03*
G01X0025947Y0035144D03*
G01X0025573Y0035971D03*
G01X0026656Y0035932D03*
G01X0027030Y0035105D03*
G01X0027404Y0035932D03*
G01X0028270Y0035144D03*
G01X0028644Y0035971D03*
G01X0029018Y0035144D03*
G01X0029805Y0035144D03*
G01X0030179Y0035971D03*
G01X0030553Y0035144D03*
G01X0010632Y0026247D03*
G01X0009884Y0026247D03*
G01X0010258Y0025420D03*
G01X0009884Y0024869D03*
G01X0010632Y0024869D03*
G01X0010258Y0024042D03*
G54D24*
G01X0011360Y0024258D03*
G01X0011360Y0024928D03*
G01X0012193Y0025491D03*
G01X0012193Y0026160D03*
G01X0013073Y0031010D03*
G01X0013742Y0031010D03*
G01X0013585Y0034121D03*
G01X0013585Y0034750D03*
G01X0012916Y0034750D03*
G01X0012916Y0034121D03*
G01X0014149Y0034114D03*
G01X0014149Y0034784D03*
G01X0013585Y0036719D03*
G01X0012916Y0036719D03*
G01X0017010Y0034396D03*
G01X0017679Y0034396D03*
G01X0018309Y0034396D03*
G01X0018979Y0034396D03*
G01X0019943Y0035479D03*
G01X0019943Y0036148D03*
G01X0022837Y0034869D03*
G01X0023506Y0034869D03*
G01X0023506Y0032939D03*
G01X0022837Y0032939D03*
G01X0021931Y0031916D03*
G01X0021262Y0031916D03*
G01X0020435Y0030813D03*
G01X0019766Y0030813D03*
G01X0022601Y0031128D03*
G01X0023270Y0031128D03*
G01X0023270Y0029908D03*
G01X0023270Y0029239D03*
G01X0022601Y0029239D03*
G01X0022601Y0029908D03*
G01X0025258Y0031542D03*
G01X0025258Y0032211D03*
G01X0028565Y0029534D03*
G01X0028565Y0028865D03*
G01X0030652Y0027526D03*
G01X0030652Y0026857D03*
G01X0025750Y0024121D03*
G01X0025081Y0024121D03*
G01X0020849Y0022723D03*
G01X0020849Y0022054D03*
G01X0019451Y0017152D03*
G01X0018782Y0017152D03*
G01X0007423Y0027250D03*
G01X0007423Y0027920D03*
G01X0006754Y0027920D03*
G01X0006124Y0027920D03*
G01X0006124Y0027250D03*
G01X0006754Y0027250D03*
G01X0031420Y0036286D03*
G01X0032089Y0036286D03*
G54D25*
G01X0033112Y0037270D03*
G01X0033782Y0037270D03*
G01X0029825Y0034455D03*
G01X0029825Y0033786D03*
G01X0028290Y0033786D03*
G01X0028290Y0034455D03*
G01X0026794Y0034455D03*
G01X0026794Y0033786D03*
G01X0029038Y0031069D03*
G01X0029038Y0030400D03*
G01X0029136Y0028176D03*
G01X0028467Y0028176D03*
G01X0028506Y0026207D03*
G01X0029175Y0026207D03*
G01X0031656Y0026325D03*
G01X0032325Y0026325D03*
G01X0032325Y0027034D03*
G01X0031656Y0027034D03*
G01X0031656Y0025617D03*
G01X0032325Y0025617D03*
G01X0032325Y0029436D03*
G01X0031656Y0029436D03*
G01X0031656Y0030144D03*
G01X0032325Y0030144D03*
G01X0028742Y0037310D03*
G01X0028073Y0037310D03*
G01X0024471Y0035164D03*
G01X0024471Y0034495D03*
G01X0023624Y0037270D03*
G01X0022955Y0037270D03*
G01X0019234Y0033786D03*
G01X0019234Y0033117D03*
G01X0018565Y0033117D03*
G01X0018565Y0033786D03*
G01X0018349Y0034987D03*
G01X0017679Y0034987D03*
G01X0017010Y0034987D03*
G01X0019018Y0034987D03*
G01X0018427Y0037270D03*
G01X0017758Y0037270D03*
G01X0013585Y0037349D03*
G01X0012916Y0037349D03*
G01X0012916Y0036050D03*
G01X0013585Y0036050D03*
G01X0008388Y0037310D03*
G01X0007719Y0037310D03*
G01X0008053Y0027920D03*
G01X0008053Y0027250D03*
G01X0009038Y0026109D03*
G01X0009038Y0025439D03*
G01X0009038Y0024810D03*
G01X0009038Y0024140D03*
G01X0009057Y0023451D03*
G01X0009727Y0023451D03*
G01X0011360Y0025479D03*
G01X0011360Y0026148D03*
G01X0011282Y0027250D03*
G01X0011951Y0027250D03*
G01X0011951Y0027920D03*
G01X0011282Y0027920D03*
G01X0010652Y0027920D03*
G01X0010022Y0027920D03*
G01X0010022Y0027250D03*
G01X0010652Y0027250D03*
G01X0012679Y0027231D03*
G01X0013349Y0027231D03*
G01X0021439Y0022723D03*
G01X0021439Y0022054D03*
G01X0025061Y0024770D03*
G01X0025061Y0025439D03*
G01X0025731Y0025439D03*
G01X0025731Y0024770D03*
G01X0025947Y0028215D03*
G01X0025278Y0028215D03*
G01X0023270Y0030499D03*
G01X0022601Y0030499D03*
G01X0019451Y0015892D03*
G01X0018782Y0015892D03*
G54D26*
G01X0030101Y0030174D03*
G01X0030357Y0030902D03*
G01X0029845Y0030902D03*
G54D27*
G01X0029943Y0027644D03*
G01X0029195Y0027644D03*
G01X0028408Y0027644D03*
G01X0028408Y0026739D03*
G01X0029195Y0026739D03*
G01X0029943Y0026739D03*
G54D28*
G01X0026872Y0026384D03*
G01X0026872Y0027132D03*
G01X0026872Y0027841D03*
G01X0026872Y0028589D03*
G01X0025967Y0029928D03*
G01X0025967Y0030676D03*
G01X0025967Y0031502D03*
G01X0025967Y0032250D03*
G01X0027542Y0033786D03*
G01X0027542Y0034534D03*
G54D29*
G01X0034345Y0031436D03*
G01X0034345Y0025388D03*
G54D30*
G01X0033565Y0026148D03*
G01X0033565Y0026345D03*
G01X0033565Y0026542D03*
G01X0033565Y0026739D03*
G01X0033565Y0026936D03*
G01X0033565Y0027132D03*
G01X0033565Y0027329D03*
G01X0033565Y0027526D03*
G01X0033565Y0027723D03*
G01X0033565Y0027920D03*
G01X0033565Y0028117D03*
G01X0033565Y0028313D03*
G01X0033565Y0028510D03*
G01X0033565Y0028707D03*
G01X0033565Y0028904D03*
G01X0033565Y0029101D03*
G01X0033565Y0029298D03*
G01X0033565Y0029495D03*
G01X0033565Y0029691D03*
G01X0033565Y0029888D03*
G01X0033565Y0030085D03*
G01X0033565Y0030282D03*
G01X0033565Y0030479D03*
G01X0033565Y0030676D03*
G54D31*
G01X0030494Y0029121D03*
G01X0029234Y0029121D03*
G54D32*
G01X0026762Y0031168D03*
G01X0026762Y0032349D03*
G54D33*
G01X0027514Y0031838D02*
G01X0027514Y0031678D01*
G01X0027514Y0031838D02*
G01X0028310Y0031838D01*
G01X0028310Y0031838D02*
G01X0028310Y0031678D01*
G01X0028310Y0031678D02*
G01X0027514Y0031678D01*
G54D34*
G01X0026762Y0031758D03*
G54D35*
G01X0008132Y0025676D03*
G01X0008132Y0023432D03*
G54D36*
G01X0002955Y0026306D03*
G01X0002561Y0021128D03*
G54D37*
G01X0004077Y0022963D03*
G01X0004234Y0023396D03*
G01X0004077Y0023829D03*
G01X0003998Y0024262D03*
G01X0004077Y0024695D03*
G01X0003998Y0025128D03*
G01X0004077Y0025561D03*
G01X0004077Y0025995D03*
G54D38*
G01X0017786Y0033216D02*
G01X0018006Y0033216D01*
G01X0018006Y0033216D02*
G01X0018006Y0032996D01*
G01X0018006Y0032996D02*
G01X0017786Y0032996D01*
G01X0017786Y0032996D02*
G01X0017786Y0033216D01*
G01X0017786Y0033089D02*
G01X0018006Y0033089D01*
G01X0018006Y0033182D02*
G01X0017786Y0033182D01*
G01X0017786Y0033907D02*
G01X0018006Y0033907D01*
G01X0018006Y0033907D02*
G01X0018006Y0033687D01*
G01X0018006Y0033687D02*
G01X0017786Y0033687D01*
G01X0017786Y0033687D02*
G01X0017786Y0033907D01*
G01X0017786Y0033780D02*
G01X0018006Y0033780D01*
G01X0018006Y0033873D02*
G01X0017786Y0033873D01*
G01X0022936Y0033758D02*
G01X0022936Y0033538D01*
G01X0022936Y0033538D02*
G01X0022716Y0033538D01*
G01X0022716Y0033538D02*
G01X0022716Y0033758D01*
G01X0022716Y0033758D02*
G01X0022936Y0033758D01*
G01X0022936Y0033631D02*
G01X0022716Y0033631D01*
G01X0022716Y0033724D02*
G01X0022936Y0033724D01*
G01X0022936Y0034129D02*
G01X0022936Y0034349D01*
G01X0022936Y0034129D02*
G01X0022716Y0034129D01*
G01X0022716Y0034129D02*
G01X0022716Y0034349D01*
G01X0022716Y0034349D02*
G01X0022936Y0034349D01*
G01X0022936Y0034222D02*
G01X0022716Y0034222D01*
G01X0022716Y0034315D02*
G01X0022936Y0034315D01*
G01X0023627Y0034349D02*
G01X0023627Y0034129D01*
G01X0023627Y0034129D02*
G01X0023407Y0034129D01*
G01X0023407Y0034129D02*
G01X0023407Y0034349D01*
G01X0023407Y0034349D02*
G01X0023627Y0034349D01*
G01X0023627Y0034222D02*
G01X0023407Y0034222D01*
G01X0023407Y0034315D02*
G01X0023627Y0034315D01*
G01X0023627Y0033758D02*
G01X0023627Y0033538D01*
G01X0023627Y0033538D02*
G01X0023407Y0033538D01*
G01X0023407Y0033538D02*
G01X0023407Y0033758D01*
G01X0023407Y0033758D02*
G01X0023627Y0033758D01*
G01X0023627Y0033631D02*
G01X0023407Y0033631D01*
G01X0023407Y0033724D02*
G01X0023627Y0033724D01*
G54D39*
G01X0011486Y0036121D03*
G01X0010986Y0036121D03*
G01X0010486Y0036121D03*
G01X0009986Y0036121D03*
G01X0009486Y0036121D03*
G01X0008986Y0036121D03*
G01X0008486Y0036121D03*
G01X0007986Y0036121D03*
G01X0007486Y0036121D03*
G01X0006986Y0036121D03*
G01X0006486Y0036121D03*
G01X0005986Y0036121D03*
G01X0005486Y0036121D03*
G01X0004986Y0036121D03*
G01X0004986Y0028758D03*
G01X0005486Y0028758D03*
G01X0005986Y0028758D03*
G01X0006486Y0028758D03*
G01X0006986Y0028758D03*
G01X0007486Y0028758D03*
G01X0007986Y0028758D03*
G01X0008486Y0028758D03*
G01X0008986Y0028758D03*
G01X0009486Y0028758D03*
G01X0009986Y0028758D03*
G01X0010486Y0028758D03*
G01X0010986Y0028758D03*
G01X0011486Y0028758D03*
G54D40*
G01X0012195Y0030187D03*
G01X0012195Y0030687D03*
G01X0012195Y0031187D03*
G01X0012195Y0031687D03*
G01X0012195Y0032187D03*
G01X0012195Y0032687D03*
G01X0012195Y0033187D03*
G01X0012195Y0033687D03*
G01X0012195Y0034187D03*
G01X0012195Y0034687D03*
G54D41*
G01X0008014Y0032388D03*
G54D42*
G01X0024471Y0027428D03*
G01X0024471Y0026325D03*
G54D43*
G01X0025258Y0026007D03*
G01X0025455Y0026007D03*
G01X0025652Y0026007D03*
G01X0025849Y0026007D03*
G01X0026046Y0026007D03*
G01X0026046Y0027668D03*
G01X0025849Y0027668D03*
G01X0025652Y0027668D03*
G01X0025455Y0027668D03*
G01X0025258Y0027668D03*
G54D44*
G01X0027266Y0024436D03*
G01X0027266Y0023648D03*
G01X0027266Y0022861D03*
G54D45*
G01X0029727Y0021936D03*
G01X0029727Y0025361D03*
G54D46*
G01X0018817Y0014426D02*
G01X0018692Y0014302D01*
G01X0018554Y0014441D02*
G01X0018678Y0014565D01*
G01X0018539Y0014706D02*
G01X0018415Y0014581D01*
G01X0018269Y0014727D02*
G01X0018394Y0014852D01*
G01X0017918Y0014721D02*
G01X0017794Y0014845D01*
G01X0017655Y0014706D02*
G01X0017779Y0014582D01*
G01X0017633Y0014435D02*
G01X0017509Y0014560D01*
G01X0017368Y0014421D02*
G01X0017492Y0014296D01*
G01X0017487Y0013943D02*
G01X0017370Y0013825D01*
G01X0017518Y0013682D02*
G01X0017635Y0013799D01*
G01X0017774Y0013660D02*
G01X0017657Y0013543D01*
G01X0017797Y0013404D02*
G01X0017913Y0013520D01*
G01X0018271Y0013521D02*
G01X0018395Y0013397D01*
G01X0018535Y0013535D02*
G01X0018410Y0013659D01*
G01X0018551Y0013800D02*
G01X0018675Y0013676D01*
G01X0018813Y0013814D02*
G01X0018688Y0013938D01*
G54D47*
G36*
G01X0017931Y0014128D02*
G01X0018093Y0014290D01*
G01X0018255Y0014128D01*
G01X0018093Y0013966D01*
G01X0017931Y0014128D01*
G37*
G54D48*
G36*
G01X0017325Y0014121D02*
G01X0017388Y0014184D01*
G01X0017451Y0014121D01*
G01X0017388Y0014058D01*
G01X0017325Y0014121D01*
G37*
G36*
G01X0018030Y0014825D02*
G01X0018093Y0014888D01*
G01X0018156Y0014825D01*
G01X0018093Y0014762D01*
G01X0018030Y0014825D01*
G37*
G36*
G01X0018734Y0014121D02*
G01X0018797Y0014184D01*
G01X0018860Y0014121D01*
G01X0018797Y0014058D01*
G01X0018734Y0014121D01*
G37*
G36*
G01X0018030Y0013416D02*
G01X0018093Y0013479D01*
G01X0018156Y0013416D01*
G01X0018093Y0013353D01*
G01X0018030Y0013416D01*
G37*
G54D49*
G01X0021314Y0023294D03*
G01X0021314Y0023451D03*
G01X0021314Y0023609D03*
G01X0021314Y0023766D03*
G01X0022273Y0023766D03*
G01X0022273Y0023609D03*
G01X0022273Y0023451D03*
G01X0022273Y0023294D03*
G54D50*
G01X0022030Y0023833D03*
G54D51*
G01X0021872Y0023852D03*
G01X0021715Y0023852D03*
G01X0021557Y0023852D03*
G01X0021557Y0023208D03*
G01X0021715Y0023208D03*
G01X0021872Y0023208D03*
G01X0022030Y0023208D03*
G54D52*
G01X0021831Y0028449D03*
G01X0021831Y0029949D03*
G01X0019631Y0029949D03*
G01X0018642Y0029949D03*
G01X0018642Y0028449D03*
G01X0019631Y0028449D03*
G01X0016442Y0028449D03*
G01X0016442Y0029949D03*
G54D53*
G01X0018191Y0027467D03*
G01X0019191Y0027467D03*
G01X0020191Y0027467D03*
G01X0021191Y0027467D03*
G01X0022191Y0027467D03*
G01X0023191Y0027467D03*
G01X0023191Y0024947D03*
G01X0022191Y0024947D03*
G01X0021191Y0024947D03*
G01X0020191Y0024947D03*
G01X0019191Y0024947D03*
G01X0018191Y0024947D03*
M02*
