G04 This is an RS-274x file exported by *
G04 gerbv version 2.6.0 *
G04 More information is available about gerbv at *
G04 http://gerbv.gpleda.org/ *
G04 --End of header info--*
%MOIN*%
%FSLAX34Y34*%
%IPPOS*%
G04 --Define apertures--*
%ADD10C,0.0100*%
%ADD11C,0.0000*%
%ADD12C,0.0039*%
%ADD13R,0.0571X0.0315*%
G04 --Start main section--*
G54D10*
G01X0005927Y0004947D02*
G01X0035455Y0004947D01*
G01X0035455Y0004947D02*
G01X0035579Y0004949D01*
G01X0035579Y0004949D02*
G01X0035702Y0004955D01*
G01X0035702Y0004955D02*
G01X0035826Y0004964D01*
G01X0035826Y0004964D02*
G01X0035948Y0004978D01*
G01X0035948Y0004978D02*
G01X0036071Y0004995D01*
G01X0036071Y0004995D02*
G01X0036193Y0005017D01*
G01X0036193Y0005017D02*
G01X0036314Y0005042D01*
G01X0036314Y0005042D02*
G01X0036434Y0005071D01*
G01X0036434Y0005071D02*
G01X0036553Y0005103D01*
G01X0036553Y0005103D02*
G01X0036672Y0005140D01*
G01X0036672Y0005140D02*
G01X0036789Y0005180D01*
G01X0036789Y0005180D02*
G01X0036904Y0005223D01*
G01X0036904Y0005223D02*
G01X0037019Y0005271D01*
G01X0037019Y0005271D02*
G01X0037131Y0005322D01*
G01X0037131Y0005322D02*
G01X0037242Y0005376D01*
G01X0037242Y0005376D02*
G01X0037352Y0005434D01*
G01X0037352Y0005434D02*
G01X0037459Y0005495D01*
G01X0037459Y0005495D02*
G01X0037565Y0005560D01*
G01X0037565Y0005560D02*
G01X0037668Y0005628D01*
G01X0037668Y0005628D02*
G01X0037769Y0005699D01*
G01X0037769Y0005699D02*
G01X0037868Y0005773D01*
G01X0037868Y0005773D02*
G01X0037965Y0005850D01*
G01X0037965Y0005850D02*
G01X0038059Y0005931D01*
G01X0038059Y0005931D02*
G01X0038150Y0006014D01*
G01X0038150Y0006014D02*
G01X0038239Y0006100D01*
G01X0038239Y0006100D02*
G01X0038325Y0006189D01*
G01X0038325Y0006189D02*
G01X0038408Y0006280D01*
G01X0038408Y0006280D02*
G01X0038489Y0006374D01*
G01X0038489Y0006374D02*
G01X0038566Y0006471D01*
G01X0038566Y0006471D02*
G01X0038640Y0006570D01*
G01X0038640Y0006570D02*
G01X0038711Y0006671D01*
G01X0038711Y0006671D02*
G01X0038779Y0006774D01*
G01X0038779Y0006774D02*
G01X0038844Y0006880D01*
G01X0038844Y0006880D02*
G01X0038905Y0006987D01*
G01X0038905Y0006987D02*
G01X0038963Y0007097D01*
G01X0038963Y0007097D02*
G01X0039017Y0007208D01*
G01X0039017Y0007208D02*
G01X0039068Y0007320D01*
G01X0039068Y0007320D02*
G01X0039116Y0007435D01*
G01X0039116Y0007435D02*
G01X0039159Y0007550D01*
G01X0039159Y0007550D02*
G01X0039199Y0007667D01*
G01X0039199Y0007667D02*
G01X0039236Y0007786D01*
G01X0039236Y0007786D02*
G01X0039268Y0007905D01*
G01X0039268Y0007905D02*
G01X0039297Y0008025D01*
G01X0039297Y0008025D02*
G01X0039322Y0008146D01*
G01X0039322Y0008146D02*
G01X0039344Y0008268D01*
G01X0039344Y0008268D02*
G01X0039361Y0008391D01*
G01X0039361Y0008391D02*
G01X0039375Y0008513D01*
G01X0039375Y0008513D02*
G01X0039384Y0008637D01*
G01X0039384Y0008637D02*
G01X0039390Y0008760D01*
G01X0039390Y0008760D02*
G01X0039392Y0008884D01*
G01X0039392Y0008884D02*
G01X0039392Y0037231D01*
G01X0039392Y0037231D02*
G01X0039390Y0037308D01*
G01X0039390Y0037308D02*
G01X0039384Y0037385D01*
G01X0039384Y0037385D02*
G01X0039375Y0037462D01*
G01X0039375Y0037462D02*
G01X0039362Y0037538D01*
G01X0039362Y0037538D02*
G01X0039345Y0037614D01*
G01X0039345Y0037614D02*
G01X0039324Y0037688D01*
G01X0039324Y0037688D02*
G01X0039300Y0037762D01*
G01X0039300Y0037762D02*
G01X0039272Y0037834D01*
G01X0039272Y0037834D02*
G01X0039241Y0037904D01*
G01X0039241Y0037904D02*
G01X0039206Y0037973D01*
G01X0039206Y0037973D02*
G01X0039168Y0038041D01*
G01X0039168Y0038041D02*
G01X0039127Y0038106D01*
G01X0039127Y0038106D02*
G01X0039082Y0038169D01*
G01X0039082Y0038169D02*
G01X0039034Y0038230D01*
G01X0039034Y0038230D02*
G01X0038984Y0038289D01*
G01X0038984Y0038289D02*
G01X0038931Y0038345D01*
G01X0038931Y0038345D02*
G01X0038875Y0038398D01*
G01X0038875Y0038398D02*
G01X0038816Y0038448D01*
G01X0038816Y0038448D02*
G01X0038755Y0038496D01*
G01X0038755Y0038496D02*
G01X0038692Y0038541D01*
G01X0038692Y0038541D02*
G01X0038627Y0038582D01*
G01X0038627Y0038582D02*
G01X0038559Y0038620D01*
G01X0038559Y0038620D02*
G01X0038490Y0038655D01*
G01X0038490Y0038655D02*
G01X0038420Y0038686D01*
G01X0038420Y0038686D02*
G01X0038348Y0038714D01*
G01X0038348Y0038714D02*
G01X0038274Y0038738D01*
G01X0038274Y0038738D02*
G01X0038200Y0038759D01*
G01X0038200Y0038759D02*
G01X0038124Y0038776D01*
G01X0038124Y0038776D02*
G01X0038048Y0038789D01*
G01X0038048Y0038789D02*
G01X0037971Y0038798D01*
G01X0037971Y0038798D02*
G01X0037894Y0038804D01*
G01X0037894Y0038804D02*
G01X0037817Y0038806D01*
G01X0037817Y0038806D02*
G01X0003565Y0038806D01*
G01X0003565Y0038806D02*
G01X0003488Y0038804D01*
G01X0003488Y0038804D02*
G01X0003411Y0038798D01*
G01X0003411Y0038798D02*
G01X0003334Y0038789D01*
G01X0003334Y0038789D02*
G01X0003258Y0038776D01*
G01X0003258Y0038776D02*
G01X0003182Y0038759D01*
G01X0003182Y0038759D02*
G01X0003108Y0038738D01*
G01X0003108Y0038738D02*
G01X0003034Y0038714D01*
G01X0003034Y0038714D02*
G01X0002962Y0038686D01*
G01X0002962Y0038686D02*
G01X0002892Y0038655D01*
G01X0002892Y0038655D02*
G01X0002823Y0038620D01*
G01X0002823Y0038620D02*
G01X0002755Y0038582D01*
G01X0002755Y0038582D02*
G01X0002690Y0038541D01*
G01X0002690Y0038541D02*
G01X0002627Y0038496D01*
G01X0002627Y0038496D02*
G01X0002566Y0038448D01*
G01X0002566Y0038448D02*
G01X0002507Y0038398D01*
G01X0002507Y0038398D02*
G01X0002451Y0038345D01*
G01X0002451Y0038345D02*
G01X0002398Y0038289D01*
G01X0002398Y0038289D02*
G01X0002348Y0038230D01*
G01X0002348Y0038230D02*
G01X0002300Y0038169D01*
G01X0002300Y0038169D02*
G01X0002255Y0038106D01*
G01X0002255Y0038106D02*
G01X0002214Y0038041D01*
G01X0002214Y0038041D02*
G01X0002176Y0037973D01*
G01X0002176Y0037973D02*
G01X0002141Y0037904D01*
G01X0002141Y0037904D02*
G01X0002110Y0037834D01*
G01X0002110Y0037834D02*
G01X0002082Y0037762D01*
G01X0002082Y0037762D02*
G01X0002058Y0037688D01*
G01X0002058Y0037688D02*
G01X0002037Y0037614D01*
G01X0002037Y0037614D02*
G01X0002020Y0037538D01*
G01X0002020Y0037538D02*
G01X0002007Y0037462D01*
G01X0002007Y0037462D02*
G01X0001998Y0037385D01*
G01X0001998Y0037385D02*
G01X0001992Y0037308D01*
G01X0001992Y0037308D02*
G01X0001990Y0037231D01*
G01X0001990Y0037231D02*
G01X0001990Y0008884D01*
G01X0001990Y0008884D02*
G01X0001992Y0008760D01*
G01X0001992Y0008760D02*
G01X0001998Y0008637D01*
G01X0001998Y0008637D02*
G01X0002007Y0008513D01*
G01X0002007Y0008513D02*
G01X0002021Y0008391D01*
G01X0002021Y0008391D02*
G01X0002038Y0008268D01*
G01X0002038Y0008268D02*
G01X0002060Y0008146D01*
G01X0002060Y0008146D02*
G01X0002085Y0008025D01*
G01X0002085Y0008025D02*
G01X0002114Y0007905D01*
G01X0002114Y0007905D02*
G01X0002146Y0007786D01*
G01X0002146Y0007786D02*
G01X0002183Y0007667D01*
G01X0002183Y0007667D02*
G01X0002223Y0007550D01*
G01X0002223Y0007550D02*
G01X0002266Y0007435D01*
G01X0002266Y0007435D02*
G01X0002314Y0007320D01*
G01X0002314Y0007320D02*
G01X0002365Y0007208D01*
G01X0002365Y0007208D02*
G01X0002419Y0007097D01*
G01X0002419Y0007097D02*
G01X0002477Y0006987D01*
G01X0002477Y0006987D02*
G01X0002538Y0006880D01*
G01X0002538Y0006880D02*
G01X0002603Y0006774D01*
G01X0002603Y0006774D02*
G01X0002671Y0006671D01*
G01X0002671Y0006671D02*
G01X0002742Y0006570D01*
G01X0002742Y0006570D02*
G01X0002816Y0006471D01*
G01X0002816Y0006471D02*
G01X0002893Y0006374D01*
G01X0002893Y0006374D02*
G01X0002974Y0006280D01*
G01X0002974Y0006280D02*
G01X0003057Y0006189D01*
G01X0003057Y0006189D02*
G01X0003143Y0006100D01*
G01X0003143Y0006100D02*
G01X0003232Y0006014D01*
G01X0003232Y0006014D02*
G01X0003323Y0005931D01*
G01X0003323Y0005931D02*
G01X0003417Y0005850D01*
G01X0003417Y0005850D02*
G01X0003514Y0005773D01*
G01X0003514Y0005773D02*
G01X0003613Y0005699D01*
G01X0003613Y0005699D02*
G01X0003714Y0005628D01*
G01X0003714Y0005628D02*
G01X0003817Y0005560D01*
G01X0003817Y0005560D02*
G01X0003923Y0005495D01*
G01X0003923Y0005495D02*
G01X0004030Y0005434D01*
G01X0004030Y0005434D02*
G01X0004140Y0005376D01*
G01X0004140Y0005376D02*
G01X0004251Y0005322D01*
G01X0004251Y0005322D02*
G01X0004363Y0005271D01*
G01X0004363Y0005271D02*
G01X0004478Y0005223D01*
G01X0004478Y0005223D02*
G01X0004593Y0005180D01*
G01X0004593Y0005180D02*
G01X0004710Y0005140D01*
G01X0004710Y0005140D02*
G01X0004829Y0005103D01*
G01X0004829Y0005103D02*
G01X0004948Y0005071D01*
G01X0004948Y0005071D02*
G01X0005068Y0005042D01*
G01X0005068Y0005042D02*
G01X0005189Y0005017D01*
G01X0005189Y0005017D02*
G01X0005311Y0004995D01*
G01X0005311Y0004995D02*
G01X0005434Y0004978D01*
G01X0005434Y0004978D02*
G01X0005556Y0004964D01*
G01X0005556Y0004964D02*
G01X0005680Y0004955D01*
G01X0005680Y0004955D02*
G01X0005803Y0004949D01*
G01X0005803Y0004949D02*
G01X0005927Y0004947D01*
G54D13*
G01X0034501Y0036601D03*
G01X0034501Y0037861D03*
G01X0032472Y0037861D03*
G01X0032472Y0036601D03*
G01X0029383Y0036601D03*
G01X0029383Y0037861D03*
G01X0027354Y0037861D03*
G01X0027354Y0036601D03*
G01X0024265Y0036601D03*
G01X0024265Y0037861D03*
G01X0022236Y0037861D03*
G01X0022236Y0036601D03*
G01X0019147Y0036601D03*
G01X0019147Y0037861D03*
G01X0017118Y0037861D03*
G01X0017118Y0036601D03*
G01X0014029Y0036601D03*
G01X0014029Y0037861D03*
G01X0011999Y0037861D03*
G01X0011999Y0036601D03*
G01X0008910Y0036601D03*
G01X0008910Y0037861D03*
G01X0006881Y0037861D03*
G01X0006881Y0036601D03*
M02*
