G75*
%MOIN*%
%OFA0B0*%
%FSLAX24Y24*%
%IPPOS*%
%LPD*%
%AMOC8*
5,1,8,0,0,1.08239X$1,22.5*
%
%ADD10C,0.0000*%
%ADD11R,0.0531X0.0394*%
%ADD12R,0.0787X0.0709*%
%ADD13R,0.0551X0.0630*%
%ADD14C,0.0740*%
%ADD15C,0.0120*%
%ADD16C,0.0100*%
%ADD17C,0.0277*%
%ADD18C,0.0240*%
%ADD19C,0.0356*%
%ADD20C,0.0320*%
%ADD21C,0.0160*%
%ADD22C,0.0320*%
%ADD23R,0.0860X0.0860*%
D10*
X000960Y001444D02*
X000960Y030972D01*
X000962Y031034D01*
X000968Y031095D01*
X000977Y031156D01*
X000991Y031217D01*
X001008Y031276D01*
X001029Y031334D01*
X001054Y031391D01*
X001082Y031446D01*
X001113Y031499D01*
X001148Y031550D01*
X001186Y031599D01*
X001227Y031646D01*
X001270Y031689D01*
X001317Y031730D01*
X001366Y031768D01*
X001417Y031803D01*
X001470Y031834D01*
X001525Y031862D01*
X001582Y031887D01*
X001640Y031908D01*
X001699Y031925D01*
X001760Y031939D01*
X001821Y031948D01*
X001882Y031954D01*
X001944Y031956D01*
X025567Y031956D01*
X025629Y031954D01*
X025690Y031948D01*
X025751Y031939D01*
X025812Y031925D01*
X025871Y031908D01*
X025929Y031887D01*
X025986Y031862D01*
X026041Y031834D01*
X026094Y031803D01*
X026145Y031768D01*
X026194Y031730D01*
X026241Y031689D01*
X026284Y031646D01*
X026325Y031599D01*
X026363Y031550D01*
X026398Y031499D01*
X026429Y031446D01*
X026457Y031391D01*
X026482Y031334D01*
X026503Y031276D01*
X026520Y031217D01*
X026534Y031156D01*
X026543Y031095D01*
X026549Y031034D01*
X026551Y030972D01*
X026551Y001444D01*
X026549Y001382D01*
X026543Y001321D01*
X026534Y001260D01*
X026520Y001199D01*
X026503Y001140D01*
X026482Y001082D01*
X026457Y001025D01*
X026429Y000970D01*
X026398Y000917D01*
X026363Y000866D01*
X026325Y000817D01*
X026284Y000770D01*
X026241Y000727D01*
X026194Y000686D01*
X026145Y000648D01*
X026094Y000613D01*
X026041Y000582D01*
X025986Y000554D01*
X025929Y000529D01*
X025871Y000508D01*
X025812Y000491D01*
X025751Y000477D01*
X025690Y000468D01*
X025629Y000462D01*
X025567Y000460D01*
X001944Y000460D01*
X001882Y000462D01*
X001821Y000468D01*
X001760Y000477D01*
X001699Y000491D01*
X001640Y000508D01*
X001582Y000529D01*
X001525Y000554D01*
X001470Y000582D01*
X001417Y000613D01*
X001366Y000648D01*
X001317Y000686D01*
X001270Y000727D01*
X001227Y000770D01*
X001186Y000817D01*
X001148Y000866D01*
X001113Y000917D01*
X001082Y000970D01*
X001054Y001025D01*
X001029Y001082D01*
X001008Y001140D01*
X000991Y001199D01*
X000977Y001260D01*
X000968Y001321D01*
X000962Y001382D01*
X000960Y001444D01*
X003799Y015619D02*
X003801Y015647D01*
X003807Y015675D01*
X003816Y015701D01*
X003829Y015727D01*
X003845Y015750D01*
X003865Y015770D01*
X003887Y015788D01*
X003911Y015803D01*
X003937Y015814D01*
X003964Y015822D01*
X003992Y015826D01*
X004020Y015826D01*
X004048Y015822D01*
X004075Y015814D01*
X004101Y015803D01*
X004125Y015788D01*
X004147Y015770D01*
X004167Y015750D01*
X004183Y015727D01*
X004196Y015701D01*
X004205Y015675D01*
X004211Y015647D01*
X004213Y015619D01*
X004211Y015591D01*
X004205Y015563D01*
X004196Y015537D01*
X004183Y015511D01*
X004167Y015488D01*
X004147Y015468D01*
X004125Y015450D01*
X004101Y015435D01*
X004075Y015424D01*
X004048Y015416D01*
X004020Y015412D01*
X003992Y015412D01*
X003964Y015416D01*
X003937Y015424D01*
X003911Y015435D01*
X003887Y015450D01*
X003865Y015468D01*
X003845Y015488D01*
X003829Y015511D01*
X003816Y015537D01*
X003807Y015563D01*
X003801Y015591D01*
X003799Y015619D01*
X002800Y016677D02*
X002802Y016701D01*
X002808Y016724D01*
X002817Y016746D01*
X002830Y016766D01*
X002845Y016784D01*
X002864Y016799D01*
X002885Y016811D01*
X002907Y016819D01*
X002930Y016824D01*
X002954Y016825D01*
X002978Y016822D01*
X003000Y016815D01*
X003022Y016805D01*
X003042Y016792D01*
X003059Y016775D01*
X003073Y016756D01*
X003084Y016735D01*
X003092Y016712D01*
X003096Y016689D01*
X003096Y016665D01*
X003092Y016642D01*
X003084Y016619D01*
X003073Y016598D01*
X003059Y016579D01*
X003042Y016562D01*
X003022Y016549D01*
X003000Y016539D01*
X002978Y016532D01*
X002954Y016529D01*
X002930Y016530D01*
X002907Y016535D01*
X002885Y016543D01*
X002864Y016555D01*
X002845Y016570D01*
X002830Y016588D01*
X002817Y016608D01*
X002808Y016630D01*
X002802Y016653D01*
X002800Y016677D01*
X003873Y019712D02*
X003875Y019751D01*
X003881Y019790D01*
X003891Y019828D01*
X003904Y019865D01*
X003921Y019900D01*
X003941Y019934D01*
X003965Y019965D01*
X003992Y019994D01*
X004021Y020020D01*
X004053Y020043D01*
X004087Y020063D01*
X004123Y020079D01*
X004160Y020091D01*
X004199Y020100D01*
X004238Y020105D01*
X004277Y020106D01*
X004316Y020103D01*
X004355Y020096D01*
X004392Y020085D01*
X004429Y020071D01*
X004464Y020053D01*
X004497Y020032D01*
X004528Y020007D01*
X004556Y019980D01*
X004581Y019950D01*
X004603Y019917D01*
X004622Y019883D01*
X004637Y019847D01*
X004649Y019809D01*
X004657Y019771D01*
X004661Y019732D01*
X004661Y019692D01*
X004657Y019653D01*
X004649Y019615D01*
X004637Y019577D01*
X004622Y019541D01*
X004603Y019507D01*
X004581Y019474D01*
X004556Y019444D01*
X004528Y019417D01*
X004497Y019392D01*
X004464Y019371D01*
X004429Y019353D01*
X004392Y019339D01*
X004355Y019328D01*
X004316Y019321D01*
X004277Y019318D01*
X004238Y019319D01*
X004199Y019324D01*
X004160Y019333D01*
X004123Y019345D01*
X004087Y019361D01*
X004053Y019381D01*
X004021Y019404D01*
X003992Y019430D01*
X003965Y019459D01*
X003941Y019490D01*
X003921Y019524D01*
X003904Y019559D01*
X003891Y019596D01*
X003881Y019634D01*
X003875Y019673D01*
X003873Y019712D01*
D11*
G36*
X003750Y017492D02*
X004124Y017866D01*
X004402Y017588D01*
X004028Y017214D01*
X003750Y017492D01*
G37*
G36*
X004147Y017095D02*
X004521Y017469D01*
X004799Y017191D01*
X004425Y016817D01*
X004147Y017095D01*
G37*
G36*
X004543Y016699D02*
X004917Y017073D01*
X005195Y016795D01*
X004821Y016421D01*
X004543Y016699D01*
G37*
G36*
X002553Y014708D02*
X002927Y015082D01*
X003205Y014804D01*
X002831Y014430D01*
X002553Y014708D01*
G37*
G36*
X002156Y015105D02*
X002530Y015479D01*
X002808Y015201D01*
X002434Y014827D01*
X002156Y015105D01*
G37*
G36*
X001759Y015502D02*
X002133Y015876D01*
X002411Y015598D01*
X002037Y015224D01*
X001759Y015502D01*
G37*
D12*
G36*
X001822Y017249D02*
X002377Y017804D01*
X002878Y017303D01*
X002323Y016748D01*
X001822Y017249D01*
G37*
G36*
X004077Y014994D02*
X004632Y015549D01*
X005133Y015048D01*
X004578Y014493D01*
X004077Y014994D01*
G37*
D13*
X008274Y015714D03*
X010046Y015714D03*
X011124Y014356D03*
X012010Y014356D03*
X012896Y014356D03*
X012896Y017664D03*
X011124Y017664D03*
X010046Y012406D03*
X009160Y012406D03*
X008274Y012406D03*
D14*
X007779Y006612D03*
X008779Y006512D03*
X009779Y006612D03*
X010779Y006512D03*
X011779Y006612D03*
X012779Y006512D03*
X013779Y006612D03*
X014779Y006512D03*
X014769Y007562D03*
X014869Y008562D03*
X014769Y009562D03*
X014869Y010562D03*
X014769Y011562D03*
X014869Y012562D03*
X014769Y013562D03*
X014869Y014562D03*
X014769Y015562D03*
X014869Y016562D03*
X014787Y018520D03*
X013787Y018620D03*
X012787Y018520D03*
X011787Y018620D03*
X010787Y018520D03*
X009787Y018620D03*
X008787Y018520D03*
X007787Y018620D03*
X006787Y018520D03*
X005787Y018620D03*
X004787Y018520D03*
X003787Y018620D03*
X002787Y018520D03*
X001787Y018620D03*
X001779Y006612D03*
X002779Y006512D03*
X003779Y006612D03*
X004779Y006512D03*
X005779Y006612D03*
X006779Y006512D03*
D15*
X001345Y001053D02*
X013295Y001053D01*
X013263Y001084D02*
X013334Y001014D01*
X014293Y001014D01*
X014313Y001034D01*
X014334Y001014D01*
X015293Y001014D01*
X015313Y001034D01*
X015334Y001014D01*
X016293Y001014D01*
X016313Y001034D01*
X016334Y001014D01*
X017293Y001014D01*
X017313Y001034D01*
X017334Y001014D01*
X018293Y001014D01*
X018313Y001034D01*
X018334Y001014D01*
X019293Y001014D01*
X019313Y001034D01*
X019334Y001014D01*
X020293Y001014D01*
X020313Y001034D01*
X020334Y001014D01*
X021293Y001014D01*
X021313Y001034D01*
X021334Y001014D01*
X022293Y001014D01*
X022313Y001034D01*
X022334Y001014D01*
X023293Y001014D01*
X023313Y001034D01*
X023334Y001014D01*
X024293Y001014D01*
X024313Y001034D01*
X024334Y001014D01*
X025293Y001014D01*
X025313Y001034D01*
X025334Y001014D01*
X026138Y001014D01*
X026079Y000932D01*
X025895Y000799D01*
X025680Y000729D01*
X025567Y000720D01*
X001944Y000720D01*
X001831Y000729D01*
X001616Y000799D01*
X001432Y000932D01*
X001299Y001115D01*
X001229Y001331D01*
X001220Y001444D01*
X001220Y007040D01*
X001466Y007040D01*
X001434Y007017D01*
X001375Y006958D01*
X001326Y006890D01*
X001288Y006816D01*
X001262Y006736D01*
X001249Y006654D01*
X001249Y006652D01*
X001739Y006652D01*
X001739Y006572D01*
X001819Y006572D01*
X001819Y006082D01*
X001821Y006082D01*
X001903Y006095D01*
X001983Y006121D01*
X002057Y006159D01*
X002124Y006208D01*
X002183Y006267D01*
X002232Y006335D01*
X002270Y006409D01*
X002289Y006467D01*
X002289Y006415D01*
X002364Y006235D01*
X002502Y006097D01*
X002682Y006022D01*
X002877Y006022D01*
X003057Y006097D01*
X003195Y006235D01*
X003269Y006415D01*
X003269Y006610D01*
X003195Y006790D01*
X003057Y006928D01*
X002877Y007002D01*
X002682Y007002D01*
X002502Y006928D01*
X002364Y006790D01*
X002309Y006657D01*
X002296Y006736D01*
X002270Y006816D01*
X002232Y006890D01*
X002183Y006958D01*
X002124Y007017D01*
X002092Y007040D01*
X002160Y007040D01*
X002209Y007039D01*
X002209Y007040D01*
X002210Y007040D01*
X002245Y007075D01*
X004459Y009240D01*
X004460Y009240D01*
X004495Y009275D01*
X004530Y009309D01*
X004530Y009310D01*
X004530Y009359D01*
X004531Y009408D01*
X004530Y009409D01*
X004530Y013863D01*
X004903Y013863D01*
X004942Y013824D01*
X004956Y013824D01*
X005290Y013490D01*
X005290Y009640D01*
X006110Y008820D01*
X006110Y006975D01*
X006057Y007028D01*
X005877Y007102D01*
X005682Y007102D01*
X005502Y007028D01*
X005364Y006890D01*
X005289Y006710D01*
X005289Y006515D01*
X005364Y006335D01*
X005502Y006197D01*
X005682Y006122D01*
X005877Y006122D01*
X006057Y006197D01*
X006110Y006250D01*
X006110Y006120D01*
X006590Y005640D01*
X006590Y004536D01*
X006523Y004469D01*
X006480Y004366D01*
X006480Y004254D01*
X006523Y004151D01*
X006602Y004073D01*
X006663Y004047D01*
X006495Y004047D01*
X006392Y004004D01*
X006313Y003926D01*
X005802Y003414D01*
X005759Y003311D01*
X005759Y003081D01*
X005802Y002979D01*
X005880Y002900D01*
X005983Y002857D01*
X006095Y002857D01*
X006198Y002900D01*
X006276Y002979D01*
X006319Y003081D01*
X006319Y003139D01*
X006667Y003487D01*
X012197Y003487D01*
X012300Y003530D01*
X012851Y004081D01*
X012930Y004160D01*
X012973Y004263D01*
X012973Y005265D01*
X013123Y005416D01*
X015268Y005416D01*
X015371Y005459D01*
X015883Y005971D01*
X015961Y006049D01*
X016004Y006152D01*
X016004Y015738D01*
X016749Y016482D01*
X016828Y016561D01*
X016870Y016664D01*
X016870Y019696D01*
X017454Y020280D01*
X017788Y020280D01*
X017890Y020323D01*
X017969Y020401D01*
X018012Y020504D01*
X018012Y020616D01*
X017988Y020673D01*
X019110Y020673D01*
X019146Y020628D01*
X019146Y019747D01*
X019304Y019590D01*
X019421Y019473D01*
X021856Y019473D01*
X022060Y019677D01*
X022060Y019677D01*
X023960Y021577D01*
X023960Y021944D01*
X023980Y021963D01*
X024019Y022059D01*
X024019Y022161D01*
X023980Y022257D01*
X023907Y022329D01*
X023812Y022369D01*
X023785Y022369D01*
X023830Y022413D01*
X023869Y022509D01*
X023869Y022518D01*
X024810Y021577D01*
X024810Y020576D01*
X024791Y020557D01*
X024751Y020461D01*
X024751Y020359D01*
X024791Y020263D01*
X024857Y020197D01*
X024814Y020179D01*
X024741Y020107D01*
X024701Y020011D01*
X024701Y019909D01*
X024741Y019813D01*
X024814Y019741D01*
X024909Y019701D01*
X025012Y019701D01*
X025107Y019741D01*
X025180Y019813D01*
X025203Y019870D01*
X025560Y020227D01*
X025560Y021743D01*
X024060Y023243D01*
X023943Y023360D01*
X023227Y023360D01*
X022527Y022660D01*
X022410Y022543D01*
X022410Y021782D01*
X022194Y021566D01*
X016606Y021566D01*
X016489Y021448D01*
X015685Y020645D01*
X015708Y020701D01*
X015708Y020819D01*
X015663Y020929D01*
X015579Y021013D01*
X015535Y021031D01*
X015469Y021097D01*
X015366Y021140D01*
X011793Y021140D01*
X011645Y021147D01*
X011257Y021535D01*
X010957Y021835D01*
X010045Y022747D01*
X009942Y022790D01*
X008176Y022790D01*
X007940Y023026D01*
X007940Y025216D01*
X007898Y025319D01*
X007819Y025397D01*
X007716Y025440D01*
X007605Y025440D01*
X007502Y025397D01*
X007444Y025340D01*
X005535Y025340D01*
X005340Y025535D01*
X005340Y026335D01*
X005235Y026440D01*
X004635Y027040D01*
X003696Y027040D01*
X003657Y027079D01*
X003562Y027119D01*
X003459Y027119D01*
X003364Y027079D01*
X003291Y027007D01*
X003251Y026911D01*
X003251Y026809D01*
X003291Y026713D01*
X003364Y026641D01*
X003459Y026601D01*
X003562Y026601D01*
X003569Y026604D01*
X003551Y026561D01*
X003551Y026459D01*
X003591Y026363D01*
X003664Y026291D01*
X003759Y026251D01*
X003862Y026251D01*
X003901Y026268D01*
X003901Y026259D01*
X003941Y026163D01*
X004014Y026091D01*
X004074Y026066D01*
X004051Y026011D01*
X004051Y025919D01*
X004009Y025919D01*
X003914Y025879D01*
X003841Y025807D01*
X003801Y025711D01*
X003801Y025619D01*
X003759Y025619D01*
X003664Y025579D01*
X003591Y025507D01*
X003551Y025411D01*
X003551Y025319D01*
X003459Y025319D01*
X003364Y025279D01*
X003291Y025207D01*
X003251Y025111D01*
X003251Y025009D01*
X003291Y024913D01*
X003330Y024874D01*
X003330Y022885D01*
X004947Y021269D01*
X004859Y021269D01*
X004764Y021229D01*
X004691Y021157D01*
X004651Y021061D01*
X004651Y020959D01*
X004691Y020863D01*
X004730Y020824D01*
X004730Y020585D01*
X005012Y020304D01*
X005012Y019000D01*
X004982Y018970D01*
X004884Y019010D01*
X004690Y019010D01*
X004509Y018936D01*
X004372Y018798D01*
X004297Y018618D01*
X004297Y018423D01*
X004372Y018243D01*
X004509Y018105D01*
X004690Y018030D01*
X004884Y018030D01*
X005065Y018105D01*
X005202Y018243D01*
X005277Y018423D01*
X005277Y018618D01*
X005237Y018715D01*
X005337Y018816D01*
X005337Y018815D01*
X005297Y018718D01*
X005297Y018523D01*
X005372Y018343D01*
X005509Y018205D01*
X005690Y018130D01*
X005884Y018130D01*
X006065Y018205D01*
X006202Y018343D01*
X006277Y018523D01*
X006277Y018718D01*
X006202Y018898D01*
X006065Y019036D01*
X005884Y019110D01*
X005690Y019110D01*
X005690Y020459D01*
X005709Y020451D01*
X005812Y020451D01*
X005907Y020491D01*
X005980Y020563D01*
X006019Y020659D01*
X006019Y020761D01*
X005980Y020857D01*
X005907Y020929D01*
X005812Y020969D01*
X005756Y020969D01*
X005695Y021030D01*
X006230Y021030D01*
X006501Y020728D01*
X006501Y020659D01*
X006541Y020563D01*
X006614Y020491D01*
X006709Y020451D01*
X006812Y020451D01*
X006907Y020491D01*
X006980Y020563D01*
X007019Y020659D01*
X007019Y020761D01*
X006980Y020857D01*
X006907Y020929D01*
X006812Y020969D01*
X006770Y020969D01*
X006490Y021279D01*
X006490Y021280D01*
X006936Y021280D01*
X007501Y020714D01*
X007501Y020659D01*
X007541Y020563D01*
X007614Y020491D01*
X007709Y020451D01*
X007812Y020451D01*
X007907Y020491D01*
X007980Y020563D01*
X008019Y020659D01*
X008019Y020761D01*
X007980Y020857D01*
X007907Y020929D01*
X007812Y020969D01*
X007756Y020969D01*
X007195Y021530D01*
X007686Y021530D01*
X008501Y020714D01*
X008501Y020659D01*
X008541Y020563D01*
X008614Y020491D01*
X008709Y020451D01*
X008812Y020451D01*
X008907Y020491D01*
X008980Y020563D01*
X009019Y020659D01*
X009019Y020761D01*
X008980Y020857D01*
X008907Y020929D01*
X008812Y020969D01*
X008756Y020969D01*
X007945Y021780D01*
X008436Y021780D01*
X009501Y020714D01*
X009501Y020659D01*
X009541Y020563D01*
X009614Y020491D01*
X009709Y020451D01*
X009812Y020451D01*
X009907Y020491D01*
X009980Y020563D01*
X010019Y020659D01*
X010019Y020761D01*
X009980Y020857D01*
X009907Y020929D01*
X009812Y020969D01*
X009756Y020969D01*
X008695Y022030D01*
X009186Y022030D01*
X010501Y020714D01*
X010501Y020659D01*
X010541Y020563D01*
X010614Y020491D01*
X010709Y020451D01*
X010812Y020451D01*
X010907Y020491D01*
X010980Y020563D01*
X011019Y020659D01*
X011019Y020761D01*
X010980Y020857D01*
X010907Y020929D01*
X010812Y020969D01*
X010756Y020969D01*
X009495Y022230D01*
X009770Y022230D01*
X010561Y021439D01*
X010861Y021139D01*
X011286Y020714D01*
X011320Y020680D01*
X011353Y020644D01*
X011360Y020641D01*
X011378Y020623D01*
X011481Y020580D01*
X011779Y020580D01*
X011828Y020578D01*
X011835Y020580D01*
X014234Y020580D01*
X014205Y020511D01*
X014205Y020409D01*
X014245Y020313D01*
X014264Y020294D01*
X014264Y019787D01*
X014324Y019727D01*
X014324Y019700D01*
X014363Y019605D01*
X014436Y019532D01*
X014531Y019493D01*
X014634Y019493D01*
X014729Y019532D01*
X014760Y019563D01*
X014760Y019010D01*
X014690Y019010D01*
X014509Y018936D01*
X014372Y018798D01*
X014297Y018618D01*
X014297Y018423D01*
X014318Y018372D01*
X014245Y018445D01*
X014277Y018523D01*
X014277Y018718D01*
X014202Y018898D01*
X014065Y019036D01*
X013884Y019110D01*
X013690Y019110D01*
X013509Y019036D01*
X013372Y018898D01*
X013297Y018718D01*
X013297Y018523D01*
X013372Y018343D01*
X013509Y018205D01*
X013690Y018130D01*
X013884Y018130D01*
X013962Y018162D01*
X014267Y017857D01*
X014384Y017740D01*
X015059Y017740D01*
X015531Y018213D01*
X015563Y018245D01*
X015563Y017540D01*
X015044Y017020D01*
X014966Y017052D01*
X014771Y017052D01*
X014591Y016978D01*
X014453Y016840D01*
X014379Y016660D01*
X014379Y016465D01*
X014453Y016285D01*
X014591Y016147D01*
X014771Y016072D01*
X014964Y016072D01*
X014921Y016029D01*
X014866Y016052D01*
X014671Y016052D01*
X014491Y015978D01*
X014353Y015840D01*
X014279Y015660D01*
X014279Y015465D01*
X014353Y015285D01*
X014491Y015147D01*
X014671Y015072D01*
X014866Y015072D01*
X015046Y015147D01*
X015184Y015285D01*
X015259Y015465D01*
X015259Y015660D01*
X015217Y015760D01*
X016201Y016743D01*
X016310Y016853D01*
X016310Y016836D01*
X015487Y016012D01*
X015444Y015909D01*
X015444Y006324D01*
X015096Y005976D01*
X012952Y005976D01*
X012849Y005934D01*
X012770Y005855D01*
X012455Y005540D01*
X012449Y005525D01*
X012449Y006149D01*
X012502Y006097D01*
X012682Y006022D01*
X012877Y006022D01*
X013057Y006097D01*
X013195Y006235D01*
X013269Y006415D01*
X013269Y006610D01*
X013195Y006790D01*
X013057Y006928D01*
X012877Y007002D01*
X012682Y007002D01*
X012502Y006928D01*
X012449Y006875D01*
X012449Y007296D01*
X013096Y007943D01*
X013096Y013921D01*
X013221Y013921D01*
X013292Y013992D01*
X013292Y014721D01*
X013221Y014791D01*
X013096Y014791D01*
X013096Y017229D01*
X013221Y017229D01*
X013292Y017299D01*
X013292Y018028D01*
X013221Y018099D01*
X013049Y018099D01*
X013065Y018105D01*
X013202Y018243D01*
X013277Y018423D01*
X013277Y018618D01*
X013202Y018798D01*
X013065Y018936D01*
X012884Y019010D01*
X012690Y019010D01*
X012509Y018936D01*
X012372Y018798D01*
X012297Y018618D01*
X012297Y018423D01*
X012372Y018243D01*
X012509Y018105D01*
X012557Y018085D01*
X012500Y018028D01*
X012500Y017299D01*
X012571Y017229D01*
X012696Y017229D01*
X012696Y014791D01*
X012571Y014791D01*
X012500Y014721D01*
X012500Y013992D01*
X012571Y013921D01*
X012696Y013921D01*
X012696Y008109D01*
X012079Y007492D01*
X012079Y007326D01*
X012109Y007296D01*
X012109Y006975D01*
X012057Y007028D01*
X011877Y007102D01*
X011682Y007102D01*
X011502Y007028D01*
X011364Y006890D01*
X011289Y006710D01*
X011289Y006515D01*
X011364Y006335D01*
X011502Y006197D01*
X011682Y006122D01*
X011877Y006122D01*
X012057Y006197D01*
X012109Y006249D01*
X012109Y004849D01*
X011800Y004540D01*
X011705Y004540D01*
X011602Y004497D01*
X011523Y004419D01*
X011480Y004316D01*
X011480Y004204D01*
X011523Y004101D01*
X011577Y004047D01*
X010943Y004047D01*
X010998Y004101D01*
X011040Y004204D01*
X011040Y004316D01*
X010998Y004419D01*
X010919Y004497D01*
X010816Y004540D01*
X010721Y004540D01*
X010469Y004792D01*
X010457Y006141D01*
X010502Y006097D01*
X010682Y006022D01*
X010877Y006022D01*
X011057Y006097D01*
X011195Y006235D01*
X011269Y006415D01*
X011269Y006610D01*
X011195Y006790D01*
X011057Y006928D01*
X010877Y007002D01*
X010682Y007002D01*
X010502Y006928D01*
X010451Y006877D01*
X010450Y006991D01*
X010450Y007061D01*
X010449Y007061D01*
X010449Y007062D01*
X010400Y007111D01*
X009581Y007930D01*
X008681Y007930D01*
X006480Y010130D01*
X006480Y013830D01*
X006381Y013930D01*
X006130Y014180D01*
X006130Y016930D01*
X006031Y017030D01*
X005191Y017869D01*
X005191Y017872D01*
X005142Y017919D01*
X005093Y017967D01*
X005091Y017967D01*
X005089Y017969D01*
X005021Y017967D01*
X004952Y017967D01*
X004951Y017966D01*
X004287Y017951D01*
X004219Y017951D01*
X004217Y017950D01*
X004215Y017950D01*
X004213Y017948D01*
X004174Y017987D01*
X004075Y017987D01*
X003629Y017541D01*
X003629Y017442D01*
X003978Y017093D01*
X004026Y017093D01*
X004026Y017045D01*
X004374Y016696D01*
X004422Y016696D01*
X004422Y016648D01*
X004771Y016299D01*
X004870Y016299D01*
X004986Y016416D01*
X005390Y016058D01*
X005390Y014159D01*
X005051Y014498D01*
X004810Y014498D01*
X004926Y014614D01*
X004605Y014936D01*
X004690Y015021D01*
X004605Y015105D01*
X004954Y015455D01*
X004731Y015678D01*
X004694Y015699D01*
X004654Y015710D01*
X004612Y015710D01*
X004571Y015699D01*
X004534Y015678D01*
X004530Y015673D01*
X004530Y016410D01*
X004030Y016910D01*
X003960Y016980D01*
X003222Y016980D01*
X003179Y017023D01*
X003030Y017085D01*
X002886Y017085D01*
X003007Y017205D01*
X003028Y017242D01*
X003039Y017282D01*
X003039Y017324D01*
X003028Y017365D01*
X003007Y017402D01*
X002784Y017625D01*
X002435Y017276D01*
X002350Y017360D01*
X002699Y017709D01*
X002476Y017932D01*
X002440Y017954D01*
X002399Y017964D01*
X002357Y017964D01*
X002316Y017954D01*
X002280Y017932D01*
X002029Y017682D01*
X002350Y017360D01*
X002265Y017276D01*
X001944Y017597D01*
X001693Y017346D01*
X001672Y017309D01*
X001661Y017269D01*
X001661Y017227D01*
X001672Y017186D01*
X001693Y017149D01*
X001862Y016980D01*
X001220Y016980D01*
X001220Y030972D01*
X001229Y031085D01*
X001299Y031301D01*
X001432Y031484D01*
X001616Y031617D01*
X001831Y031687D01*
X001944Y031696D01*
X025567Y031696D01*
X025680Y031687D01*
X025895Y031617D01*
X026079Y031484D01*
X026212Y031301D01*
X026282Y031085D01*
X026291Y030972D01*
X026291Y019114D01*
X025334Y019114D01*
X025313Y019094D01*
X025293Y019114D01*
X024334Y019114D01*
X024313Y019094D01*
X024293Y019114D01*
X023334Y019114D01*
X023313Y019094D01*
X023293Y019114D01*
X022334Y019114D01*
X022313Y019094D01*
X022293Y019114D01*
X021334Y019114D01*
X021313Y019094D01*
X021293Y019114D01*
X020334Y019114D01*
X020313Y019094D01*
X020293Y019114D01*
X019334Y019114D01*
X019313Y019094D01*
X019293Y019114D01*
X018334Y019114D01*
X018313Y019094D01*
X018293Y019114D01*
X017334Y019114D01*
X017263Y019044D01*
X017263Y018084D01*
X017284Y018064D01*
X017263Y018044D01*
X017263Y017084D01*
X017284Y017064D01*
X017263Y017044D01*
X017263Y016084D01*
X017284Y016064D01*
X017263Y016044D01*
X017263Y015084D01*
X017284Y015064D01*
X017263Y015044D01*
X017263Y014084D01*
X017284Y014064D01*
X017263Y014044D01*
X017263Y013084D01*
X017284Y013064D01*
X017263Y013044D01*
X017263Y012084D01*
X017284Y012064D01*
X017263Y012044D01*
X017263Y011084D01*
X017284Y011064D01*
X017263Y011044D01*
X017263Y010084D01*
X017284Y010064D01*
X017263Y010044D01*
X017263Y009084D01*
X017284Y009064D01*
X017263Y009044D01*
X017263Y008084D01*
X017284Y008064D01*
X017263Y008044D01*
X017263Y007084D01*
X017284Y007064D01*
X017263Y007044D01*
X017263Y006084D01*
X017284Y006064D01*
X017263Y006044D01*
X017263Y005114D01*
X016334Y005114D01*
X016313Y005094D01*
X016293Y005114D01*
X015334Y005114D01*
X015313Y005094D01*
X015293Y005114D01*
X014334Y005114D01*
X014313Y005094D01*
X014293Y005114D01*
X013334Y005114D01*
X013263Y005044D01*
X013263Y004084D01*
X013284Y004064D01*
X013263Y004044D01*
X013263Y003084D01*
X013284Y003064D01*
X013263Y003044D01*
X013263Y002084D01*
X013284Y002064D01*
X013263Y002044D01*
X013263Y001084D01*
X013263Y001171D02*
X001281Y001171D01*
X001243Y001290D02*
X013263Y001290D01*
X013263Y001408D02*
X001223Y001408D01*
X001220Y001527D02*
X013263Y001527D01*
X013263Y001645D02*
X001220Y001645D01*
X001220Y001764D02*
X013263Y001764D01*
X013263Y001882D02*
X001220Y001882D01*
X001220Y002001D02*
X013263Y002001D01*
X013263Y002119D02*
X001220Y002119D01*
X001220Y002238D02*
X013263Y002238D01*
X013263Y002356D02*
X001220Y002356D01*
X001220Y002475D02*
X013263Y002475D01*
X013263Y002593D02*
X001220Y002593D01*
X001220Y002712D02*
X013263Y002712D01*
X013263Y002830D02*
X001220Y002830D01*
X001220Y002949D02*
X005832Y002949D01*
X005765Y003067D02*
X001220Y003067D01*
X001220Y003186D02*
X005759Y003186D01*
X005759Y003304D02*
X001220Y003304D01*
X001220Y003423D02*
X005810Y003423D01*
X005929Y003541D02*
X001220Y003541D01*
X001220Y003660D02*
X006047Y003660D01*
X006166Y003778D02*
X001220Y003778D01*
X001220Y003897D02*
X006284Y003897D01*
X006418Y004015D02*
X001220Y004015D01*
X001220Y004134D02*
X006541Y004134D01*
X006481Y004252D02*
X001220Y004252D01*
X001220Y004371D02*
X006482Y004371D01*
X006543Y004489D02*
X001220Y004489D01*
X001220Y004608D02*
X006590Y004608D01*
X006590Y004726D02*
X001220Y004726D01*
X001220Y004845D02*
X006590Y004845D01*
X006590Y004963D02*
X001220Y004963D01*
X001220Y005082D02*
X006590Y005082D01*
X006590Y005200D02*
X001220Y005200D01*
X001220Y005319D02*
X006590Y005319D01*
X006590Y005437D02*
X001220Y005437D01*
X001220Y005556D02*
X006590Y005556D01*
X006556Y005674D02*
X001220Y005674D01*
X001220Y005793D02*
X006437Y005793D01*
X006319Y005911D02*
X001220Y005911D01*
X001220Y006030D02*
X002664Y006030D01*
X002894Y006030D02*
X004664Y006030D01*
X004682Y006022D02*
X004877Y006022D01*
X005057Y006097D01*
X005195Y006235D01*
X005269Y006415D01*
X005269Y006610D01*
X005195Y006790D01*
X005057Y006928D01*
X004877Y007002D01*
X004682Y007002D01*
X004502Y006928D01*
X004364Y006790D01*
X004289Y006610D01*
X004289Y006415D01*
X004364Y006235D01*
X004502Y006097D01*
X004682Y006022D01*
X004894Y006030D02*
X006200Y006030D01*
X006110Y006148D02*
X005939Y006148D01*
X005620Y006148D02*
X005108Y006148D01*
X005208Y006267D02*
X005432Y006267D01*
X005343Y006385D02*
X005257Y006385D01*
X005269Y006504D02*
X005294Y006504D01*
X005289Y006622D02*
X005264Y006622D01*
X005302Y006741D02*
X005215Y006741D01*
X005125Y006859D02*
X005351Y006859D01*
X005451Y006978D02*
X004937Y006978D01*
X004622Y006978D02*
X004107Y006978D01*
X004057Y007028D02*
X003877Y007102D01*
X003682Y007102D01*
X003502Y007028D01*
X003364Y006890D01*
X003289Y006710D01*
X003289Y006515D01*
X003364Y006335D01*
X003502Y006197D01*
X003682Y006122D01*
X003877Y006122D01*
X004057Y006197D01*
X004195Y006335D01*
X004269Y006515D01*
X004269Y006710D01*
X004195Y006890D01*
X004057Y007028D01*
X003892Y007096D02*
X005666Y007096D01*
X005892Y007096D02*
X006110Y007096D01*
X006107Y006978D02*
X006110Y006978D01*
X006110Y007215D02*
X002388Y007215D01*
X002509Y007333D02*
X006110Y007333D01*
X006110Y007452D02*
X002630Y007452D01*
X002751Y007570D02*
X006110Y007570D01*
X006110Y007689D02*
X002872Y007689D01*
X002994Y007807D02*
X006110Y007807D01*
X006110Y007926D02*
X003115Y007926D01*
X003236Y008044D02*
X006110Y008044D01*
X006110Y008163D02*
X003357Y008163D01*
X003478Y008281D02*
X006110Y008281D01*
X006110Y008400D02*
X003600Y008400D01*
X003721Y008518D02*
X006110Y008518D01*
X006110Y008637D02*
X003842Y008637D01*
X003963Y008755D02*
X006110Y008755D01*
X006056Y008874D02*
X004084Y008874D01*
X004206Y008992D02*
X005938Y008992D01*
X005819Y009111D02*
X004327Y009111D01*
X004448Y009229D02*
X005701Y009229D01*
X005582Y009348D02*
X004530Y009348D01*
X004530Y009310D02*
X004530Y009310D01*
X004530Y009466D02*
X005464Y009466D01*
X005345Y009585D02*
X004530Y009585D01*
X004530Y009703D02*
X005290Y009703D01*
X005290Y009822D02*
X004530Y009822D01*
X004530Y009940D02*
X005290Y009940D01*
X005290Y010059D02*
X004530Y010059D01*
X004530Y010177D02*
X005290Y010177D01*
X005290Y010296D02*
X004530Y010296D01*
X004530Y010414D02*
X005290Y010414D01*
X005290Y010533D02*
X004530Y010533D01*
X004530Y010651D02*
X005290Y010651D01*
X005290Y010770D02*
X004530Y010770D01*
X004530Y010888D02*
X005290Y010888D01*
X005290Y011007D02*
X004530Y011007D01*
X004530Y011125D02*
X005290Y011125D01*
X005290Y011244D02*
X004530Y011244D01*
X004530Y011362D02*
X005290Y011362D01*
X005290Y011481D02*
X004530Y011481D01*
X004530Y011599D02*
X005290Y011599D01*
X005290Y011718D02*
X004530Y011718D01*
X004530Y011836D02*
X005290Y011836D01*
X005290Y011955D02*
X004530Y011955D01*
X004530Y012073D02*
X005290Y012073D01*
X005290Y012192D02*
X004530Y012192D01*
X004530Y012310D02*
X005290Y012310D01*
X005290Y012429D02*
X004530Y012429D01*
X004530Y012547D02*
X005290Y012547D01*
X005290Y012666D02*
X004530Y012666D01*
X004530Y012784D02*
X005290Y012784D01*
X005290Y012903D02*
X004530Y012903D01*
X004530Y013021D02*
X005290Y013021D01*
X005290Y013140D02*
X004530Y013140D01*
X004530Y013258D02*
X005290Y013258D01*
X005290Y013377D02*
X004530Y013377D01*
X004530Y013495D02*
X005285Y013495D01*
X005166Y013614D02*
X004530Y013614D01*
X004530Y013732D02*
X005048Y013732D01*
X004915Y013851D02*
X004530Y013851D01*
X004582Y014043D02*
X004978Y014043D01*
X005016Y014004D01*
X004976Y014318D02*
X005684Y013610D01*
X005390Y014206D02*
X005343Y014206D01*
X005390Y014325D02*
X005224Y014325D01*
X005106Y014443D02*
X005390Y014443D01*
X005390Y014562D02*
X004873Y014562D01*
X004861Y014680D02*
X005390Y014680D01*
X005390Y014799D02*
X005110Y014799D01*
X005011Y014699D02*
X005262Y014950D01*
X005283Y014987D01*
X005294Y015027D01*
X005294Y015069D01*
X005283Y015110D01*
X005262Y015147D01*
X005039Y015370D01*
X004690Y015021D01*
X005011Y014699D01*
X004912Y014799D02*
X004742Y014799D01*
X004793Y014917D02*
X004624Y014917D01*
X004675Y015036D02*
X004705Y015036D01*
X004653Y015154D02*
X004823Y015154D01*
X004772Y015273D02*
X004942Y015273D01*
X004890Y015391D02*
X005390Y015391D01*
X005390Y015273D02*
X005136Y015273D01*
X005254Y015154D02*
X005390Y015154D01*
X005390Y015036D02*
X005294Y015036D01*
X005229Y014917D02*
X005390Y014917D01*
X005390Y015510D02*
X004899Y015510D01*
X004780Y015628D02*
X005390Y015628D01*
X005390Y015747D02*
X004530Y015747D01*
X004530Y015865D02*
X005390Y015865D01*
X005390Y015984D02*
X004530Y015984D01*
X004530Y016102D02*
X005340Y016102D01*
X005207Y016221D02*
X004530Y016221D01*
X004530Y016339D02*
X004731Y016339D01*
X004613Y016458D02*
X004482Y016458D01*
X004494Y016576D02*
X004364Y016576D01*
X004422Y016695D02*
X004245Y016695D01*
X004257Y016813D02*
X004127Y016813D01*
X004139Y016932D02*
X004008Y016932D01*
X004026Y017050D02*
X003113Y017050D01*
X002970Y017169D02*
X003902Y017169D01*
X003783Y017287D02*
X003039Y017287D01*
X003003Y017406D02*
X003665Y017406D01*
X003629Y017524D02*
X002884Y017524D01*
X002683Y017524D02*
X002514Y017524D01*
X002565Y017406D02*
X002395Y017406D01*
X002305Y017406D02*
X002135Y017406D01*
X002186Y017524D02*
X002017Y017524D01*
X002068Y017643D02*
X001220Y017643D01*
X001220Y017761D02*
X002108Y017761D01*
X002227Y017880D02*
X001220Y017880D01*
X001220Y017998D02*
X010689Y017998D01*
X010689Y018000D02*
X010689Y017724D01*
X011064Y017724D01*
X011064Y018105D01*
X011065Y018105D01*
X011202Y018243D01*
X011277Y018423D01*
X011277Y018618D01*
X011202Y018798D01*
X011065Y018936D01*
X010884Y019010D01*
X010690Y019010D01*
X010509Y018936D01*
X010372Y018798D01*
X010297Y018618D01*
X010297Y018423D01*
X010372Y018243D01*
X010509Y018105D01*
X010690Y018030D01*
X010697Y018030D01*
X010689Y018000D01*
X010689Y017880D02*
X005183Y017880D01*
X005300Y017761D02*
X010689Y017761D01*
X010689Y017604D02*
X010689Y017328D01*
X010700Y017287D01*
X010721Y017250D01*
X010751Y017221D01*
X010787Y017199D01*
X010828Y017189D01*
X011064Y017189D01*
X011064Y017604D01*
X010689Y017604D01*
X010689Y017524D02*
X005537Y017524D01*
X005655Y017406D02*
X010689Y017406D01*
X010700Y017287D02*
X005774Y017287D01*
X005892Y017169D02*
X012696Y017169D01*
X012696Y017050D02*
X006011Y017050D01*
X006129Y016932D02*
X012696Y016932D01*
X012696Y016813D02*
X006130Y016813D01*
X006130Y016695D02*
X012696Y016695D01*
X012696Y016576D02*
X006130Y016576D01*
X006130Y016458D02*
X012696Y016458D01*
X012696Y016339D02*
X006130Y016339D01*
X006130Y016221D02*
X012696Y016221D01*
X012696Y016102D02*
X010418Y016102D01*
X010442Y016078D02*
X010371Y016149D01*
X009721Y016149D01*
X009650Y016078D01*
X009650Y015349D01*
X009721Y015279D01*
X009846Y015279D01*
X009846Y012841D01*
X009721Y012841D01*
X009650Y012771D01*
X009650Y012042D01*
X009721Y011971D01*
X010371Y011971D01*
X010442Y012042D01*
X010442Y012771D01*
X010371Y012841D01*
X010246Y012841D01*
X010246Y015279D01*
X010371Y015279D01*
X010442Y015349D01*
X010442Y015495D01*
X010459Y015477D01*
X010554Y015437D01*
X010657Y015437D01*
X010752Y015477D01*
X010825Y015550D01*
X010865Y015645D01*
X010865Y015748D01*
X010825Y015843D01*
X010752Y015916D01*
X010657Y015955D01*
X010554Y015955D01*
X010459Y015916D01*
X010457Y015914D01*
X010442Y015914D01*
X010442Y016078D01*
X010442Y015984D02*
X012696Y015984D01*
X012696Y015865D02*
X010803Y015865D01*
X010865Y015747D02*
X012696Y015747D01*
X012696Y015628D02*
X010858Y015628D01*
X010785Y015510D02*
X012696Y015510D01*
X012696Y015391D02*
X010442Y015391D01*
X010246Y015273D02*
X012696Y015273D01*
X012696Y015154D02*
X010246Y015154D01*
X010246Y015036D02*
X012696Y015036D01*
X012696Y014917D02*
X010246Y014917D01*
X010246Y014799D02*
X010750Y014799D01*
X010751Y014799D02*
X010721Y014770D01*
X010700Y014733D01*
X010689Y014692D01*
X010689Y014416D01*
X011064Y014416D01*
X011064Y014296D01*
X011184Y014296D01*
X011184Y013881D01*
X011421Y013881D01*
X011462Y013892D01*
X011498Y013913D01*
X011528Y013943D01*
X011549Y013980D01*
X011560Y014020D01*
X011560Y014296D01*
X011184Y014296D01*
X011184Y014416D01*
X011560Y014416D01*
X011560Y014692D01*
X011549Y014733D01*
X011528Y014770D01*
X011498Y014799D01*
X011462Y014821D01*
X011421Y014831D01*
X011184Y014831D01*
X011184Y014416D01*
X011064Y014416D01*
X011064Y014831D01*
X010828Y014831D01*
X010787Y014821D01*
X010751Y014799D01*
X010689Y014680D02*
X010246Y014680D01*
X010246Y014562D02*
X010689Y014562D01*
X010689Y014443D02*
X010246Y014443D01*
X010246Y014325D02*
X011064Y014325D01*
X011064Y014296D02*
X010689Y014296D01*
X010689Y014020D01*
X010700Y013980D01*
X010721Y013943D01*
X010751Y013913D01*
X010787Y013892D01*
X010828Y013881D01*
X011064Y013881D01*
X011064Y014296D01*
X011064Y014206D02*
X011184Y014206D01*
X011184Y014088D02*
X011064Y014088D01*
X011064Y013969D02*
X011184Y013969D01*
X011184Y014325D02*
X011950Y014325D01*
X011950Y014296D02*
X011575Y014296D01*
X011575Y014020D01*
X011586Y013980D01*
X011607Y013943D01*
X011636Y013913D01*
X011673Y013892D01*
X011714Y013881D01*
X011950Y013881D01*
X011950Y014296D01*
X012070Y014296D01*
X012070Y013881D01*
X012307Y013881D01*
X012348Y013892D01*
X012384Y013913D01*
X012414Y013943D01*
X012435Y013980D01*
X012446Y014020D01*
X012446Y014296D01*
X012070Y014296D01*
X012070Y014416D01*
X012446Y014416D01*
X012446Y014692D01*
X012435Y014733D01*
X012414Y014770D01*
X012384Y014799D01*
X012348Y014821D01*
X012307Y014831D01*
X012070Y014831D01*
X012070Y014416D01*
X011950Y014416D01*
X011950Y014296D01*
X011950Y014206D02*
X012070Y014206D01*
X012070Y014088D02*
X011950Y014088D01*
X011950Y013969D02*
X012070Y013969D01*
X012070Y014325D02*
X012500Y014325D01*
X012500Y014443D02*
X012446Y014443D01*
X012446Y014562D02*
X012500Y014562D01*
X012500Y014680D02*
X012446Y014680D01*
X012385Y014799D02*
X012696Y014799D01*
X013096Y014799D02*
X014436Y014799D01*
X014453Y014840D02*
X014379Y014660D01*
X014379Y014465D01*
X014453Y014285D01*
X014591Y014147D01*
X014771Y014072D01*
X014966Y014072D01*
X015146Y014147D01*
X015284Y014285D01*
X015359Y014465D01*
X015359Y014660D01*
X015284Y014840D01*
X015146Y014978D01*
X014966Y015052D01*
X014771Y015052D01*
X014591Y014978D01*
X014453Y014840D01*
X014530Y014917D02*
X013096Y014917D01*
X013096Y015036D02*
X014730Y015036D01*
X014484Y015154D02*
X013096Y015154D01*
X013096Y015273D02*
X014365Y015273D01*
X014309Y015391D02*
X013096Y015391D01*
X013096Y015510D02*
X014279Y015510D01*
X014279Y015628D02*
X013096Y015628D01*
X013096Y015747D02*
X014314Y015747D01*
X014378Y015865D02*
X013096Y015865D01*
X013096Y015984D02*
X014505Y015984D01*
X014699Y016102D02*
X013096Y016102D01*
X013096Y016221D02*
X014517Y016221D01*
X014431Y016339D02*
X013096Y016339D01*
X013096Y016458D02*
X014382Y016458D01*
X014379Y016576D02*
X013096Y016576D01*
X013096Y016695D02*
X014393Y016695D01*
X014442Y016813D02*
X013096Y016813D01*
X013096Y016932D02*
X014545Y016932D01*
X014765Y017050D02*
X013096Y017050D01*
X013096Y017169D02*
X015192Y017169D01*
X015310Y017287D02*
X013280Y017287D01*
X013292Y017406D02*
X015429Y017406D01*
X015547Y017524D02*
X013292Y017524D01*
X013292Y017643D02*
X015563Y017643D01*
X015563Y017761D02*
X015080Y017761D01*
X015198Y017880D02*
X015563Y017880D01*
X015563Y017998D02*
X015317Y017998D01*
X015435Y018117D02*
X015563Y018117D01*
X015554Y018235D02*
X015563Y018235D01*
X014760Y019065D02*
X013995Y019065D01*
X014154Y018946D02*
X014535Y018946D01*
X014401Y018828D02*
X014232Y018828D01*
X014277Y018709D02*
X014335Y018709D01*
X014297Y018591D02*
X014277Y018591D01*
X014256Y018472D02*
X014297Y018472D01*
X014008Y018117D02*
X013076Y018117D01*
X013195Y018235D02*
X013479Y018235D01*
X013367Y018354D02*
X013248Y018354D01*
X013277Y018472D02*
X013318Y018472D01*
X013297Y018591D02*
X013277Y018591D01*
X013297Y018709D02*
X013239Y018709D01*
X013173Y018828D02*
X013343Y018828D01*
X013420Y018946D02*
X013039Y018946D01*
X012535Y018946D02*
X012154Y018946D01*
X012202Y018898D02*
X012065Y019036D01*
X011884Y019110D01*
X011690Y019110D01*
X011509Y019036D01*
X011372Y018898D01*
X011297Y018718D01*
X011297Y018523D01*
X011372Y018343D01*
X011509Y018205D01*
X011690Y018130D01*
X011884Y018130D01*
X012065Y018205D01*
X012202Y018343D01*
X012277Y018523D01*
X012277Y018718D01*
X012202Y018898D01*
X012232Y018828D02*
X012401Y018828D01*
X012335Y018709D02*
X012277Y018709D01*
X012277Y018591D02*
X012297Y018591D01*
X012297Y018472D02*
X012256Y018472D01*
X012207Y018354D02*
X012326Y018354D01*
X012379Y018235D02*
X012095Y018235D01*
X012498Y018117D02*
X011481Y018117D01*
X011498Y018107D02*
X011462Y018128D01*
X011421Y018139D01*
X011184Y018139D01*
X011184Y017724D01*
X011064Y017724D01*
X011064Y017604D01*
X011184Y017604D01*
X011184Y017189D01*
X011421Y017189D01*
X011462Y017199D01*
X011498Y017221D01*
X011528Y017250D01*
X011549Y017287D01*
X012512Y017287D01*
X012500Y017406D02*
X011560Y017406D01*
X011560Y017328D02*
X011560Y017604D01*
X011184Y017604D01*
X011184Y017724D01*
X011560Y017724D01*
X011560Y018000D01*
X011549Y018040D01*
X011528Y018077D01*
X011498Y018107D01*
X011560Y017998D02*
X012500Y017998D01*
X012500Y017880D02*
X011560Y017880D01*
X011560Y017761D02*
X012500Y017761D01*
X012500Y017643D02*
X011184Y017643D01*
X011184Y017761D02*
X011064Y017761D01*
X011064Y017643D02*
X005418Y017643D01*
X005076Y018117D02*
X006498Y018117D01*
X006509Y018105D02*
X006690Y018030D01*
X006884Y018030D01*
X007065Y018105D01*
X007202Y018243D01*
X007277Y018423D01*
X007277Y018618D01*
X007202Y018798D01*
X007065Y018936D01*
X006884Y019010D01*
X006690Y019010D01*
X006509Y018936D01*
X006372Y018798D01*
X006297Y018618D01*
X006297Y018423D01*
X006372Y018243D01*
X006509Y018105D01*
X006379Y018235D02*
X006095Y018235D01*
X006207Y018354D02*
X006326Y018354D01*
X006297Y018472D02*
X006256Y018472D01*
X006277Y018591D02*
X006297Y018591D01*
X006277Y018709D02*
X006335Y018709D01*
X006401Y018828D02*
X006232Y018828D01*
X006154Y018946D02*
X006535Y018946D01*
X007039Y018946D02*
X007420Y018946D01*
X007372Y018898D02*
X007297Y018718D01*
X007297Y018523D01*
X007372Y018343D01*
X007509Y018205D01*
X007690Y018130D01*
X007884Y018130D01*
X008065Y018205D01*
X008202Y018343D01*
X008277Y018523D01*
X008277Y018718D01*
X008202Y018898D01*
X008065Y019036D01*
X007884Y019110D01*
X007690Y019110D01*
X007509Y019036D01*
X007372Y018898D01*
X007343Y018828D02*
X007173Y018828D01*
X007239Y018709D02*
X007297Y018709D01*
X007297Y018591D02*
X007277Y018591D01*
X007277Y018472D02*
X007318Y018472D01*
X007367Y018354D02*
X007248Y018354D01*
X007195Y018235D02*
X007479Y018235D01*
X007076Y018117D02*
X008498Y018117D01*
X008509Y018105D02*
X008690Y018030D01*
X008884Y018030D01*
X009065Y018105D01*
X009202Y018243D01*
X009277Y018423D01*
X009277Y018618D01*
X009202Y018798D01*
X009065Y018936D01*
X008884Y019010D01*
X008690Y019010D01*
X008509Y018936D01*
X008372Y018798D01*
X008297Y018618D01*
X008297Y018423D01*
X008372Y018243D01*
X008509Y018105D01*
X008379Y018235D02*
X008095Y018235D01*
X008207Y018354D02*
X008326Y018354D01*
X008297Y018472D02*
X008256Y018472D01*
X008277Y018591D02*
X008297Y018591D01*
X008277Y018709D02*
X008335Y018709D01*
X008401Y018828D02*
X008232Y018828D01*
X008154Y018946D02*
X008535Y018946D01*
X007995Y019065D02*
X009579Y019065D01*
X009509Y019036D02*
X009372Y018898D01*
X009297Y018718D01*
X009297Y018523D01*
X009372Y018343D01*
X009509Y018205D01*
X009690Y018130D01*
X009884Y018130D01*
X010065Y018205D01*
X010202Y018343D01*
X010277Y018523D01*
X010277Y018718D01*
X010202Y018898D01*
X010065Y019036D01*
X009884Y019110D01*
X009690Y019110D01*
X009509Y019036D01*
X009420Y018946D02*
X009039Y018946D01*
X009173Y018828D02*
X009343Y018828D01*
X009297Y018709D02*
X009239Y018709D01*
X009277Y018591D02*
X009297Y018591D01*
X009277Y018472D02*
X009318Y018472D01*
X009367Y018354D02*
X009248Y018354D01*
X009195Y018235D02*
X009479Y018235D01*
X009076Y018117D02*
X010498Y018117D01*
X010379Y018235D02*
X010095Y018235D01*
X010207Y018354D02*
X010326Y018354D01*
X010297Y018472D02*
X010256Y018472D01*
X010277Y018591D02*
X010297Y018591D01*
X010277Y018709D02*
X010335Y018709D01*
X010401Y018828D02*
X010232Y018828D01*
X010154Y018946D02*
X010535Y018946D01*
X009995Y019065D02*
X011579Y019065D01*
X011420Y018946D02*
X011039Y018946D01*
X011173Y018828D02*
X011343Y018828D01*
X011297Y018709D02*
X011239Y018709D01*
X011277Y018591D02*
X011297Y018591D01*
X011277Y018472D02*
X011318Y018472D01*
X011367Y018354D02*
X011248Y018354D01*
X011195Y018235D02*
X011479Y018235D01*
X011184Y018117D02*
X011076Y018117D01*
X011064Y017998D02*
X011184Y017998D01*
X011184Y017880D02*
X011064Y017880D01*
X011064Y017524D02*
X011184Y017524D01*
X011184Y017406D02*
X011064Y017406D01*
X011064Y017287D02*
X011184Y017287D01*
X011549Y017287D02*
X011560Y017328D01*
X011560Y017524D02*
X012500Y017524D01*
X013292Y017761D02*
X014363Y017761D01*
X014245Y017880D02*
X013292Y017880D01*
X013292Y017998D02*
X014126Y017998D01*
X013579Y019065D02*
X011995Y019065D01*
X011420Y020605D02*
X010997Y020605D01*
X011019Y020724D02*
X011277Y020724D01*
X011158Y020842D02*
X010986Y020842D01*
X011040Y020961D02*
X010831Y020961D01*
X010921Y021079D02*
X010646Y021079D01*
X010527Y021198D02*
X010803Y021198D01*
X010684Y021316D02*
X010409Y021316D01*
X010290Y021435D02*
X010566Y021435D01*
X010447Y021553D02*
X010172Y021553D01*
X010053Y021672D02*
X010329Y021672D01*
X010210Y021790D02*
X009935Y021790D01*
X009816Y021909D02*
X010092Y021909D01*
X009973Y022027D02*
X009698Y022027D01*
X009579Y022146D02*
X009855Y022146D01*
X009426Y021790D02*
X008935Y021790D01*
X009053Y021672D02*
X009544Y021672D01*
X009663Y021553D02*
X009172Y021553D01*
X009290Y021435D02*
X009781Y021435D01*
X009900Y021316D02*
X009409Y021316D01*
X009527Y021198D02*
X010018Y021198D01*
X010137Y021079D02*
X009646Y021079D01*
X009831Y020961D02*
X010255Y020961D01*
X010374Y020842D02*
X009986Y020842D01*
X010019Y020724D02*
X010492Y020724D01*
X010524Y020605D02*
X009997Y020605D01*
X009897Y020487D02*
X010624Y020487D01*
X010760Y020710D02*
X009260Y022210D01*
X006110Y022210D01*
X004910Y023410D01*
X004910Y026160D01*
X004460Y026610D01*
X003910Y026610D01*
X003810Y026510D01*
X003571Y026412D02*
X001220Y026412D01*
X001220Y026530D02*
X003551Y026530D01*
X003356Y026649D02*
X001220Y026649D01*
X001220Y026767D02*
X003269Y026767D01*
X003251Y026886D02*
X001220Y026886D01*
X001220Y027004D02*
X003290Y027004D01*
X003510Y026860D02*
X004560Y026860D01*
X005160Y026260D01*
X005160Y025460D01*
X005460Y025160D01*
X007660Y025160D01*
X007449Y025345D02*
X005530Y025345D01*
X005411Y025464D02*
X012202Y025464D01*
X012084Y025582D02*
X005340Y025582D01*
X005340Y025701D02*
X011965Y025701D01*
X011886Y025780D02*
X012406Y025260D01*
X012380Y025235D01*
X012086Y024940D01*
X011796Y024940D01*
X011757Y024979D01*
X011662Y025019D01*
X011559Y025019D01*
X011464Y024979D01*
X011391Y024907D01*
X011351Y024811D01*
X011351Y024709D01*
X011368Y024669D01*
X011359Y024669D01*
X011264Y024629D01*
X011191Y024557D01*
X011151Y024461D01*
X011151Y024359D01*
X011191Y024263D01*
X011264Y024191D01*
X011359Y024151D01*
X011462Y024151D01*
X011557Y024191D01*
X011596Y024230D01*
X012185Y024230D01*
X012290Y024335D01*
X012735Y024780D01*
X013735Y024780D01*
X013840Y024885D01*
X014622Y025668D01*
X014580Y025566D01*
X014580Y025454D01*
X014623Y025351D01*
X014702Y025273D01*
X014805Y025230D01*
X014916Y025230D01*
X015019Y025273D01*
X015098Y025351D01*
X015140Y025454D01*
X015140Y025550D01*
X015280Y025690D01*
X015280Y025874D01*
X015314Y025841D01*
X015409Y025801D01*
X015512Y025801D01*
X015607Y025841D01*
X015680Y025913D01*
X015719Y026009D01*
X015719Y026014D01*
X015985Y026280D01*
X016090Y026385D01*
X016090Y027746D01*
X016097Y027754D01*
X016090Y027819D01*
X016090Y027885D01*
X016083Y027892D01*
X016082Y027902D01*
X016031Y027944D01*
X015985Y027990D01*
X015974Y027990D01*
X015619Y028281D01*
X015619Y028311D01*
X015580Y028407D01*
X015507Y028479D01*
X015412Y028519D01*
X015309Y028519D01*
X015214Y028479D01*
X015141Y028407D01*
X015101Y028311D01*
X015101Y028256D01*
X014986Y028140D01*
X014880Y028035D01*
X014880Y027385D01*
X014730Y027235D01*
X014730Y026885D01*
X014701Y026855D01*
X013386Y025540D01*
X012635Y025540D01*
X012140Y026035D01*
X012140Y026489D01*
X012180Y026529D01*
X012219Y026624D01*
X012219Y026727D01*
X012180Y026822D01*
X012140Y026861D01*
X012140Y027485D01*
X012601Y027947D01*
X012601Y027859D01*
X012641Y027763D01*
X012714Y027691D01*
X012809Y027651D01*
X012912Y027651D01*
X013007Y027691D01*
X013046Y027730D01*
X013880Y027730D01*
X013986Y027835D01*
X014980Y028830D01*
X016085Y028830D01*
X016190Y028935D01*
X016356Y029101D01*
X016412Y029101D01*
X016507Y029141D01*
X016580Y029213D01*
X016619Y029309D01*
X016619Y029411D01*
X016580Y029507D01*
X016507Y029579D01*
X016412Y029619D01*
X016309Y029619D01*
X016214Y029579D01*
X016141Y029507D01*
X016101Y029411D01*
X016101Y029356D01*
X015936Y029190D01*
X014831Y029190D01*
X013731Y028090D01*
X013206Y028090D01*
X013230Y028113D01*
X013269Y028209D01*
X013269Y028311D01*
X013230Y028407D01*
X013157Y028479D01*
X013062Y028519D01*
X012959Y028519D01*
X012864Y028479D01*
X012824Y028440D01*
X012586Y028440D01*
X011886Y027740D01*
X011780Y027635D01*
X011780Y026861D01*
X011741Y026822D01*
X011701Y026727D01*
X011701Y026624D01*
X011741Y026529D01*
X011780Y026489D01*
X011780Y025885D01*
X011886Y025780D01*
X011847Y025819D02*
X005340Y025819D01*
X005340Y025938D02*
X011780Y025938D01*
X011780Y026056D02*
X005340Y026056D01*
X005340Y026175D02*
X011780Y026175D01*
X011780Y026293D02*
X005340Y026293D01*
X005263Y026412D02*
X011780Y026412D01*
X011740Y026530D02*
X005145Y026530D01*
X005026Y026649D02*
X011701Y026649D01*
X011718Y026767D02*
X004908Y026767D01*
X004789Y026886D02*
X011780Y026886D01*
X011780Y027004D02*
X004671Y027004D01*
X004410Y026310D02*
X004160Y026310D01*
X004410Y026310D02*
X004660Y026060D01*
X004660Y023260D01*
X005960Y021960D01*
X008510Y021960D01*
X009760Y020710D01*
X009524Y020605D02*
X008997Y020605D01*
X009019Y020724D02*
X009492Y020724D01*
X009374Y020842D02*
X008986Y020842D01*
X008831Y020961D02*
X009255Y020961D01*
X009137Y021079D02*
X008646Y021079D01*
X008527Y021198D02*
X009018Y021198D01*
X008900Y021316D02*
X008409Y021316D01*
X008290Y021435D02*
X008781Y021435D01*
X008663Y021553D02*
X008172Y021553D01*
X008053Y021672D02*
X008544Y021672D01*
X008816Y021909D02*
X009307Y021909D01*
X009189Y022027D02*
X008698Y022027D01*
X008110Y022857D02*
X013670Y022857D01*
X013651Y022811D02*
X013651Y022709D01*
X013691Y022613D01*
X013764Y022541D01*
X013859Y022501D01*
X013962Y022501D01*
X014057Y022541D01*
X014076Y022560D01*
X014827Y022560D01*
X015151Y022236D01*
X015151Y022209D01*
X015191Y022113D01*
X015264Y022041D01*
X015359Y022001D01*
X015462Y022001D01*
X015557Y022041D01*
X015630Y022113D01*
X015669Y022209D01*
X015669Y022311D01*
X015630Y022407D01*
X015557Y022479D01*
X015462Y022519D01*
X015434Y022519D01*
X014993Y022960D01*
X014076Y022960D01*
X014057Y022979D01*
X013962Y023019D01*
X013859Y023019D01*
X013764Y022979D01*
X013691Y022907D01*
X013651Y022811D01*
X013651Y022738D02*
X010054Y022738D01*
X010173Y022620D02*
X013688Y022620D01*
X013759Y022975D02*
X007991Y022975D01*
X007940Y023094D02*
X022961Y023094D01*
X023079Y023212D02*
X007940Y023212D01*
X007940Y023331D02*
X023198Y023331D01*
X022842Y022975D02*
X014061Y022975D01*
X014886Y022501D02*
X010291Y022501D01*
X010410Y022383D02*
X015005Y022383D01*
X015123Y022264D02*
X010528Y022264D01*
X010647Y022146D02*
X015178Y022146D01*
X015297Y022027D02*
X010765Y022027D01*
X010884Y021909D02*
X022410Y021909D01*
X022410Y022027D02*
X015524Y022027D01*
X015643Y022146D02*
X022410Y022146D01*
X022410Y022264D02*
X015669Y022264D01*
X015640Y022383D02*
X022410Y022383D01*
X022410Y022501D02*
X015504Y022501D01*
X015334Y022620D02*
X022487Y022620D01*
X022605Y022738D02*
X015215Y022738D01*
X015097Y022857D02*
X022724Y022857D01*
X022410Y021790D02*
X011002Y021790D01*
X011121Y021672D02*
X022300Y021672D01*
X023225Y020842D02*
X024810Y020842D01*
X024810Y020724D02*
X023107Y020724D01*
X022988Y020605D02*
X024810Y020605D01*
X024762Y020487D02*
X022870Y020487D01*
X022751Y020368D02*
X024751Y020368D01*
X024805Y020250D02*
X022633Y020250D01*
X022514Y020131D02*
X024765Y020131D01*
X024702Y020013D02*
X022396Y020013D01*
X022277Y019894D02*
X024707Y019894D01*
X024779Y019776D02*
X022159Y019776D01*
X022040Y019657D02*
X026291Y019657D01*
X026291Y019539D02*
X021922Y019539D01*
X023344Y020961D02*
X024810Y020961D01*
X024810Y021079D02*
X023462Y021079D01*
X023581Y021198D02*
X024810Y021198D01*
X024810Y021316D02*
X023699Y021316D01*
X023818Y021435D02*
X024810Y021435D01*
X024810Y021553D02*
X023936Y021553D01*
X023960Y021672D02*
X024716Y021672D01*
X024597Y021790D02*
X023960Y021790D01*
X023960Y021909D02*
X024479Y021909D01*
X024360Y022027D02*
X024006Y022027D01*
X024019Y022146D02*
X024242Y022146D01*
X024123Y022264D02*
X023972Y022264D01*
X024005Y022383D02*
X023799Y022383D01*
X023866Y022501D02*
X023886Y022501D01*
X024328Y022975D02*
X026291Y022975D01*
X026291Y022857D02*
X024447Y022857D01*
X024565Y022738D02*
X026291Y022738D01*
X026291Y022620D02*
X024684Y022620D01*
X024802Y022501D02*
X026291Y022501D01*
X026291Y022383D02*
X024921Y022383D01*
X025039Y022264D02*
X026291Y022264D01*
X026291Y022146D02*
X025158Y022146D01*
X025276Y022027D02*
X026291Y022027D01*
X026291Y021909D02*
X025395Y021909D01*
X025513Y021790D02*
X026291Y021790D01*
X026291Y021672D02*
X025560Y021672D01*
X025560Y021553D02*
X026291Y021553D01*
X026291Y021435D02*
X025560Y021435D01*
X025560Y021316D02*
X026291Y021316D01*
X026291Y021198D02*
X025560Y021198D01*
X025560Y021079D02*
X026291Y021079D01*
X026291Y020961D02*
X025560Y020961D01*
X025560Y020842D02*
X026291Y020842D01*
X026291Y020724D02*
X025560Y020724D01*
X025560Y020605D02*
X026291Y020605D01*
X026291Y020487D02*
X025560Y020487D01*
X025560Y020368D02*
X026291Y020368D01*
X026291Y020250D02*
X025560Y020250D01*
X025464Y020131D02*
X026291Y020131D01*
X026291Y020013D02*
X025346Y020013D01*
X025227Y019894D02*
X026291Y019894D01*
X026291Y019776D02*
X025142Y019776D01*
X026291Y019420D02*
X016870Y019420D01*
X016870Y019302D02*
X026291Y019302D01*
X026291Y019183D02*
X016870Y019183D01*
X016870Y019065D02*
X017284Y019065D01*
X017263Y018946D02*
X016870Y018946D01*
X016870Y018828D02*
X017263Y018828D01*
X017263Y018709D02*
X016870Y018709D01*
X016870Y018591D02*
X017263Y018591D01*
X017263Y018472D02*
X016870Y018472D01*
X016870Y018354D02*
X017263Y018354D01*
X017263Y018235D02*
X016870Y018235D01*
X016870Y018117D02*
X017263Y018117D01*
X017263Y017998D02*
X016870Y017998D01*
X016870Y017880D02*
X017263Y017880D01*
X017263Y017761D02*
X016870Y017761D01*
X016870Y017643D02*
X017263Y017643D01*
X017263Y017524D02*
X016870Y017524D01*
X016870Y017406D02*
X017263Y017406D01*
X017263Y017287D02*
X016870Y017287D01*
X016870Y017169D02*
X017263Y017169D01*
X017270Y017050D02*
X016870Y017050D01*
X016870Y016932D02*
X017263Y016932D01*
X017263Y016813D02*
X016870Y016813D01*
X016870Y016695D02*
X017263Y016695D01*
X017263Y016576D02*
X016834Y016576D01*
X016724Y016458D02*
X017263Y016458D01*
X017263Y016339D02*
X016605Y016339D01*
X016487Y016221D02*
X017263Y016221D01*
X017263Y016102D02*
X016368Y016102D01*
X016250Y015984D02*
X017263Y015984D01*
X017263Y015865D02*
X016131Y015865D01*
X016013Y015747D02*
X017263Y015747D01*
X017263Y015628D02*
X016004Y015628D01*
X016004Y015510D02*
X017263Y015510D01*
X017263Y015391D02*
X016004Y015391D01*
X016004Y015273D02*
X017263Y015273D01*
X017263Y015154D02*
X016004Y015154D01*
X016004Y015036D02*
X017263Y015036D01*
X017263Y014917D02*
X016004Y014917D01*
X016004Y014799D02*
X017263Y014799D01*
X017263Y014680D02*
X016004Y014680D01*
X016004Y014562D02*
X017263Y014562D01*
X017263Y014443D02*
X016004Y014443D01*
X016004Y014325D02*
X017263Y014325D01*
X017263Y014206D02*
X016004Y014206D01*
X016004Y014088D02*
X017263Y014088D01*
X017263Y013969D02*
X016004Y013969D01*
X016004Y013851D02*
X017263Y013851D01*
X017263Y013732D02*
X016004Y013732D01*
X016004Y013614D02*
X017263Y013614D01*
X017263Y013495D02*
X016004Y013495D01*
X016004Y013377D02*
X017263Y013377D01*
X017263Y013258D02*
X016004Y013258D01*
X016004Y013140D02*
X017263Y013140D01*
X017263Y013021D02*
X016004Y013021D01*
X016004Y012903D02*
X017263Y012903D01*
X017263Y012784D02*
X016004Y012784D01*
X016004Y012666D02*
X017263Y012666D01*
X017263Y012547D02*
X016004Y012547D01*
X016004Y012429D02*
X017263Y012429D01*
X017263Y012310D02*
X016004Y012310D01*
X016004Y012192D02*
X017263Y012192D01*
X017275Y012073D02*
X016004Y012073D01*
X016004Y011955D02*
X017263Y011955D01*
X017263Y011836D02*
X016004Y011836D01*
X016004Y011718D02*
X017263Y011718D01*
X017263Y011599D02*
X016004Y011599D01*
X016004Y011481D02*
X017263Y011481D01*
X017263Y011362D02*
X016004Y011362D01*
X016004Y011244D02*
X017263Y011244D01*
X017263Y011125D02*
X016004Y011125D01*
X016004Y011007D02*
X017263Y011007D01*
X017263Y010888D02*
X016004Y010888D01*
X016004Y010770D02*
X017263Y010770D01*
X017263Y010651D02*
X016004Y010651D01*
X016004Y010533D02*
X017263Y010533D01*
X017263Y010414D02*
X016004Y010414D01*
X016004Y010296D02*
X017263Y010296D01*
X017263Y010177D02*
X016004Y010177D01*
X016004Y010059D02*
X017278Y010059D01*
X017263Y009940D02*
X016004Y009940D01*
X016004Y009822D02*
X017263Y009822D01*
X017263Y009703D02*
X016004Y009703D01*
X016004Y009585D02*
X017263Y009585D01*
X017263Y009466D02*
X016004Y009466D01*
X016004Y009348D02*
X017263Y009348D01*
X017263Y009229D02*
X016004Y009229D01*
X016004Y009111D02*
X017263Y009111D01*
X017263Y008992D02*
X016004Y008992D01*
X016004Y008874D02*
X017263Y008874D01*
X017263Y008755D02*
X016004Y008755D01*
X016004Y008637D02*
X017263Y008637D01*
X017263Y008518D02*
X016004Y008518D01*
X016004Y008400D02*
X017263Y008400D01*
X017263Y008281D02*
X016004Y008281D01*
X016004Y008163D02*
X017263Y008163D01*
X017264Y008044D02*
X016004Y008044D01*
X016004Y007926D02*
X017263Y007926D01*
X017263Y007807D02*
X016004Y007807D01*
X016004Y007689D02*
X017263Y007689D01*
X017263Y007570D02*
X016004Y007570D01*
X016004Y007452D02*
X017263Y007452D01*
X017263Y007333D02*
X016004Y007333D01*
X016004Y007215D02*
X017263Y007215D01*
X017263Y007096D02*
X016004Y007096D01*
X016004Y006978D02*
X017263Y006978D01*
X017263Y006859D02*
X016004Y006859D01*
X016004Y006741D02*
X017263Y006741D01*
X017263Y006622D02*
X016004Y006622D01*
X016004Y006504D02*
X017263Y006504D01*
X017263Y006385D02*
X016004Y006385D01*
X016004Y006267D02*
X017263Y006267D01*
X017263Y006148D02*
X016002Y006148D01*
X015941Y006030D02*
X017263Y006030D01*
X017263Y005911D02*
X015823Y005911D01*
X015704Y005793D02*
X017263Y005793D01*
X017263Y005674D02*
X015586Y005674D01*
X015467Y005556D02*
X017263Y005556D01*
X017263Y005437D02*
X015318Y005437D01*
X015150Y006030D02*
X014894Y006030D01*
X014877Y006022D02*
X015057Y006097D01*
X015195Y006235D01*
X015269Y006415D01*
X015269Y006610D01*
X015195Y006790D01*
X015057Y006928D01*
X014877Y007002D01*
X014682Y007002D01*
X014502Y006928D01*
X014364Y006790D01*
X014289Y006610D01*
X014289Y006415D01*
X014364Y006235D01*
X014502Y006097D01*
X014682Y006022D01*
X014877Y006022D01*
X014664Y006030D02*
X012894Y006030D01*
X012826Y005911D02*
X012449Y005911D01*
X012449Y005793D02*
X012708Y005793D01*
X012589Y005674D02*
X012449Y005674D01*
X012449Y005556D02*
X012471Y005556D01*
X012109Y005556D02*
X010462Y005556D01*
X010461Y005674D02*
X012109Y005674D01*
X012109Y005793D02*
X010460Y005793D01*
X010459Y005911D02*
X012109Y005911D01*
X012109Y006030D02*
X010894Y006030D01*
X010664Y006030D02*
X010458Y006030D01*
X010463Y005437D02*
X012109Y005437D01*
X012109Y005319D02*
X010464Y005319D01*
X010465Y005200D02*
X012109Y005200D01*
X012109Y005082D02*
X010466Y005082D01*
X010468Y004963D02*
X012109Y004963D01*
X012104Y004845D02*
X010469Y004845D01*
X010535Y004726D02*
X011986Y004726D01*
X011867Y004608D02*
X010653Y004608D01*
X010927Y004489D02*
X011593Y004489D01*
X011503Y004371D02*
X011018Y004371D01*
X011040Y004252D02*
X011480Y004252D01*
X011510Y004134D02*
X011011Y004134D01*
X012311Y003541D02*
X013263Y003541D01*
X013263Y003423D02*
X006602Y003423D01*
X006484Y003304D02*
X013263Y003304D01*
X013263Y003186D02*
X006365Y003186D01*
X006313Y003067D02*
X013281Y003067D01*
X013263Y002949D02*
X006246Y002949D01*
X004451Y006148D02*
X003939Y006148D01*
X004126Y006267D02*
X004351Y006267D01*
X004302Y006385D02*
X004215Y006385D01*
X004264Y006504D02*
X004289Y006504D01*
X004294Y006622D02*
X004269Y006622D01*
X004256Y006741D02*
X004343Y006741D01*
X004433Y006859D02*
X004207Y006859D01*
X003666Y007096D02*
X002266Y007096D01*
X002164Y006978D02*
X002622Y006978D01*
X002433Y006859D02*
X002248Y006859D01*
X002295Y006741D02*
X002343Y006741D01*
X002302Y006385D02*
X002258Y006385D01*
X002183Y006267D02*
X002351Y006267D01*
X002451Y006148D02*
X002035Y006148D01*
X001819Y006148D02*
X001739Y006148D01*
X001739Y006082D02*
X001739Y006572D01*
X001249Y006572D01*
X001249Y006571D01*
X001262Y006488D01*
X001288Y006409D01*
X001326Y006335D01*
X001375Y006267D01*
X001434Y006208D01*
X001501Y006159D01*
X001576Y006121D01*
X001655Y006095D01*
X001737Y006082D01*
X001739Y006082D01*
X001739Y006267D02*
X001819Y006267D01*
X001819Y006385D02*
X001739Y006385D01*
X001739Y006504D02*
X001819Y006504D01*
X001739Y006622D02*
X001220Y006622D01*
X001220Y006504D02*
X001260Y006504D01*
X001220Y006385D02*
X001300Y006385D01*
X001375Y006267D02*
X001220Y006267D01*
X001220Y006148D02*
X001523Y006148D01*
X001263Y006741D02*
X001220Y006741D01*
X001220Y006859D02*
X001310Y006859D01*
X001395Y006978D02*
X001220Y006978D01*
X002937Y006978D02*
X003451Y006978D01*
X003351Y006859D02*
X003125Y006859D01*
X003215Y006741D02*
X003302Y006741D01*
X003289Y006622D02*
X003264Y006622D01*
X003269Y006504D02*
X003294Y006504D01*
X003257Y006385D02*
X003343Y006385D01*
X003432Y006267D02*
X003208Y006267D01*
X003108Y006148D02*
X003620Y006148D01*
X007026Y009585D02*
X012696Y009585D01*
X012696Y009703D02*
X006908Y009703D01*
X006789Y009822D02*
X012696Y009822D01*
X012696Y009940D02*
X006671Y009940D01*
X006552Y010059D02*
X012696Y010059D01*
X012696Y010177D02*
X006480Y010177D01*
X006480Y010296D02*
X012696Y010296D01*
X012696Y010414D02*
X006480Y010414D01*
X006480Y010533D02*
X012696Y010533D01*
X012696Y010651D02*
X006480Y010651D01*
X006480Y010770D02*
X012696Y010770D01*
X012696Y010888D02*
X006480Y010888D01*
X006480Y011007D02*
X012696Y011007D01*
X012696Y011125D02*
X006480Y011125D01*
X006480Y011244D02*
X012696Y011244D01*
X012696Y011362D02*
X006480Y011362D01*
X006480Y011481D02*
X012696Y011481D01*
X012696Y011599D02*
X006480Y011599D01*
X006480Y011718D02*
X012696Y011718D01*
X012696Y011836D02*
X006480Y011836D01*
X006480Y011955D02*
X007916Y011955D01*
X007901Y011963D02*
X007937Y011942D01*
X007978Y011931D01*
X008214Y011931D01*
X008214Y012346D01*
X008334Y012346D01*
X008334Y011931D01*
X008571Y011931D01*
X008612Y011942D01*
X008648Y011963D01*
X008678Y011993D01*
X008699Y012030D01*
X008710Y012070D01*
X008710Y012346D01*
X008334Y012346D01*
X008334Y012466D01*
X008710Y012466D01*
X008710Y012742D01*
X008699Y012783D01*
X008678Y012820D01*
X008648Y012849D01*
X008612Y012871D01*
X008571Y012881D01*
X008334Y012881D01*
X008334Y012466D01*
X008214Y012466D01*
X008214Y012346D01*
X007839Y012346D01*
X007839Y012070D01*
X007850Y012030D01*
X007871Y011993D01*
X007901Y011963D01*
X007839Y012073D02*
X006480Y012073D01*
X006480Y012192D02*
X007839Y012192D01*
X007839Y012310D02*
X006480Y012310D01*
X006480Y012429D02*
X008214Y012429D01*
X008214Y012466D02*
X007839Y012466D01*
X007839Y012742D01*
X007850Y012783D01*
X007871Y012820D01*
X007901Y012849D01*
X007937Y012871D01*
X007978Y012881D01*
X008214Y012881D01*
X008214Y012466D01*
X008214Y012547D02*
X008334Y012547D01*
X008334Y012429D02*
X009100Y012429D01*
X009100Y012466D02*
X009100Y012346D01*
X009220Y012346D01*
X009220Y011931D01*
X009457Y011931D01*
X009498Y011942D01*
X009534Y011963D01*
X009564Y011993D01*
X009585Y012030D01*
X009596Y012070D01*
X009596Y012346D01*
X009220Y012346D01*
X009220Y012466D01*
X009596Y012466D01*
X009596Y012742D01*
X009585Y012783D01*
X009564Y012820D01*
X009534Y012849D01*
X009498Y012871D01*
X009457Y012881D01*
X009220Y012881D01*
X009220Y012466D01*
X009100Y012466D01*
X008725Y012466D01*
X008725Y012742D01*
X008736Y012783D01*
X008757Y012820D01*
X008786Y012849D01*
X008823Y012871D01*
X008864Y012881D01*
X009100Y012881D01*
X009100Y012466D01*
X009100Y012547D02*
X009220Y012547D01*
X009220Y012429D02*
X009650Y012429D01*
X009650Y012547D02*
X009596Y012547D01*
X009596Y012666D02*
X009650Y012666D01*
X009663Y012784D02*
X009584Y012784D01*
X009846Y012903D02*
X006480Y012903D01*
X006480Y013021D02*
X009846Y013021D01*
X009846Y013140D02*
X006480Y013140D01*
X006480Y013258D02*
X009846Y013258D01*
X009846Y013377D02*
X006480Y013377D01*
X006480Y013495D02*
X009846Y013495D01*
X009846Y013614D02*
X006480Y013614D01*
X006480Y013732D02*
X009846Y013732D01*
X009846Y013851D02*
X006460Y013851D01*
X006342Y013969D02*
X009846Y013969D01*
X009846Y014088D02*
X006223Y014088D01*
X006130Y014206D02*
X009846Y014206D01*
X009846Y014325D02*
X006130Y014325D01*
X006130Y014443D02*
X009846Y014443D01*
X009846Y014562D02*
X006130Y014562D01*
X006130Y014680D02*
X009846Y014680D01*
X009846Y014799D02*
X006130Y014799D01*
X006130Y014917D02*
X009846Y014917D01*
X009846Y015036D02*
X006130Y015036D01*
X006130Y015154D02*
X009846Y015154D01*
X009846Y015273D02*
X008650Y015273D01*
X008648Y015271D02*
X008678Y015300D01*
X008699Y015337D01*
X008710Y015378D01*
X008710Y015654D01*
X008334Y015654D01*
X008334Y015239D01*
X008571Y015239D01*
X008612Y015249D01*
X008648Y015271D01*
X008710Y015391D02*
X009650Y015391D01*
X009650Y015510D02*
X008710Y015510D01*
X008710Y015628D02*
X009650Y015628D01*
X009650Y015747D02*
X008334Y015747D01*
X008334Y015774D02*
X008710Y015774D01*
X008710Y016050D01*
X008699Y016090D01*
X008678Y016127D01*
X008648Y016157D01*
X008612Y016178D01*
X008571Y016189D01*
X008334Y016189D01*
X008334Y015774D01*
X008214Y015774D01*
X008214Y016189D01*
X007978Y016189D01*
X007937Y016178D01*
X007901Y016157D01*
X007871Y016127D01*
X007850Y016090D01*
X007839Y016050D01*
X007839Y015774D01*
X008214Y015774D01*
X008214Y015654D01*
X007839Y015654D01*
X007839Y015378D01*
X007850Y015337D01*
X007871Y015300D01*
X007901Y015271D01*
X007937Y015249D01*
X007978Y015239D01*
X008214Y015239D01*
X008214Y015654D01*
X008334Y015654D01*
X008334Y015774D01*
X008334Y015865D02*
X008214Y015865D01*
X008214Y015747D02*
X006130Y015747D01*
X006130Y015865D02*
X007839Y015865D01*
X007839Y015984D02*
X006130Y015984D01*
X006130Y016102D02*
X007857Y016102D01*
X008214Y016102D02*
X008334Y016102D01*
X008334Y015984D02*
X008214Y015984D01*
X008214Y015628D02*
X008334Y015628D01*
X008334Y015510D02*
X008214Y015510D01*
X008214Y015391D02*
X008334Y015391D01*
X008334Y015273D02*
X008214Y015273D01*
X007899Y015273D02*
X006130Y015273D01*
X006130Y015391D02*
X007839Y015391D01*
X007839Y015510D02*
X006130Y015510D01*
X006130Y015628D02*
X007839Y015628D01*
X008710Y015865D02*
X009650Y015865D01*
X009650Y015984D02*
X008710Y015984D01*
X008692Y016102D02*
X009674Y016102D01*
X011064Y014799D02*
X011184Y014799D01*
X011184Y014680D02*
X011064Y014680D01*
X011064Y014562D02*
X011184Y014562D01*
X011184Y014443D02*
X011064Y014443D01*
X010689Y014206D02*
X010246Y014206D01*
X010246Y014088D02*
X010689Y014088D01*
X010706Y013969D02*
X010246Y013969D01*
X010246Y013851D02*
X012696Y013851D01*
X012696Y013732D02*
X010246Y013732D01*
X010246Y013614D02*
X012696Y013614D01*
X012696Y013495D02*
X010246Y013495D01*
X010246Y013377D02*
X012696Y013377D01*
X012696Y013258D02*
X010246Y013258D01*
X010246Y013140D02*
X012696Y013140D01*
X012696Y013021D02*
X010246Y013021D01*
X010246Y012903D02*
X012696Y012903D01*
X012696Y012784D02*
X010429Y012784D01*
X010442Y012666D02*
X012696Y012666D01*
X012696Y012547D02*
X010442Y012547D01*
X010442Y012429D02*
X012696Y012429D01*
X012696Y012310D02*
X010442Y012310D01*
X010442Y012192D02*
X012696Y012192D01*
X012696Y012073D02*
X010442Y012073D01*
X009650Y012073D02*
X009596Y012073D01*
X009596Y012192D02*
X009650Y012192D01*
X009650Y012310D02*
X009596Y012310D01*
X009220Y012310D02*
X009100Y012310D01*
X009100Y012346D02*
X009100Y011931D01*
X008864Y011931D01*
X008823Y011942D01*
X008786Y011963D01*
X008757Y011993D01*
X008736Y012030D01*
X008725Y012070D01*
X008725Y012346D01*
X009100Y012346D01*
X009100Y012192D02*
X009220Y012192D01*
X009220Y012073D02*
X009100Y012073D01*
X009100Y011955D02*
X009220Y011955D01*
X009519Y011955D02*
X012696Y011955D01*
X013096Y011955D02*
X014468Y011955D01*
X014491Y011978D02*
X014353Y011840D01*
X014279Y011660D01*
X014279Y011465D01*
X014353Y011285D01*
X014491Y011147D01*
X014671Y011072D01*
X014866Y011072D01*
X015046Y011147D01*
X015184Y011285D01*
X015259Y011465D01*
X015259Y011660D01*
X015184Y011840D01*
X015046Y011978D01*
X014866Y012052D01*
X014671Y012052D01*
X014491Y011978D01*
X014591Y012147D02*
X014453Y012285D01*
X014379Y012465D01*
X014379Y012660D01*
X014453Y012840D01*
X014591Y012978D01*
X014771Y013052D01*
X014966Y013052D01*
X015146Y012978D01*
X015284Y012840D01*
X015359Y012660D01*
X015359Y012465D01*
X015284Y012285D01*
X015146Y012147D01*
X014966Y012072D01*
X014771Y012072D01*
X014591Y012147D01*
X014546Y012192D02*
X013096Y012192D01*
X013096Y012310D02*
X014443Y012310D01*
X014394Y012429D02*
X013096Y012429D01*
X013096Y012547D02*
X014379Y012547D01*
X014381Y012666D02*
X013096Y012666D01*
X013096Y012784D02*
X014430Y012784D01*
X014516Y012903D02*
X013096Y012903D01*
X013096Y013021D02*
X014695Y013021D01*
X014671Y013072D02*
X014866Y013072D01*
X015046Y013147D01*
X015184Y013285D01*
X015259Y013465D01*
X015259Y013660D01*
X015184Y013840D01*
X015046Y013978D01*
X014866Y014052D01*
X014671Y014052D01*
X014491Y013978D01*
X014353Y013840D01*
X014279Y013660D01*
X014279Y013465D01*
X014353Y013285D01*
X014491Y013147D01*
X014671Y013072D01*
X014509Y013140D02*
X013096Y013140D01*
X013096Y013258D02*
X014380Y013258D01*
X014315Y013377D02*
X013096Y013377D01*
X013096Y013495D02*
X014279Y013495D01*
X014279Y013614D02*
X013096Y013614D01*
X013096Y013732D02*
X014308Y013732D01*
X014364Y013851D02*
X013096Y013851D01*
X013269Y013969D02*
X014482Y013969D01*
X014532Y014206D02*
X013292Y014206D01*
X013292Y014088D02*
X014734Y014088D01*
X015003Y014088D02*
X015444Y014088D01*
X015444Y014206D02*
X015205Y014206D01*
X015300Y014325D02*
X015444Y014325D01*
X015444Y014443D02*
X015349Y014443D01*
X015359Y014562D02*
X015444Y014562D01*
X015444Y014680D02*
X015350Y014680D01*
X015301Y014799D02*
X015444Y014799D01*
X015444Y014917D02*
X015207Y014917D01*
X015007Y015036D02*
X015444Y015036D01*
X015444Y015154D02*
X015053Y015154D01*
X015172Y015273D02*
X015444Y015273D01*
X015444Y015391D02*
X015228Y015391D01*
X015259Y015510D02*
X015444Y015510D01*
X015444Y015628D02*
X015259Y015628D01*
X015223Y015747D02*
X015444Y015747D01*
X015444Y015865D02*
X015323Y015865D01*
X015441Y015984D02*
X015475Y015984D01*
X015560Y016102D02*
X015576Y016102D01*
X015678Y016221D02*
X015695Y016221D01*
X015797Y016339D02*
X015813Y016339D01*
X015915Y016458D02*
X015932Y016458D01*
X016034Y016576D02*
X016050Y016576D01*
X016152Y016695D02*
X016169Y016695D01*
X016271Y016813D02*
X016287Y016813D01*
X015073Y017050D02*
X014972Y017050D01*
X014760Y019183D02*
X005690Y019183D01*
X005690Y019302D02*
X014760Y019302D01*
X014760Y019420D02*
X005690Y019420D01*
X005690Y019539D02*
X014429Y019539D01*
X014341Y019657D02*
X005690Y019657D01*
X005690Y019776D02*
X014275Y019776D01*
X014264Y019894D02*
X005690Y019894D01*
X005690Y020013D02*
X014264Y020013D01*
X014264Y020131D02*
X005690Y020131D01*
X005690Y020250D02*
X014264Y020250D01*
X014222Y020368D02*
X005690Y020368D01*
X005510Y020460D02*
X005260Y020710D01*
X005192Y020378D02*
X005192Y019378D01*
X005192Y018925D01*
X004787Y018520D01*
X004335Y018709D02*
X004277Y018709D01*
X004277Y018718D02*
X004202Y018898D01*
X004065Y019036D01*
X003884Y019110D01*
X003690Y019110D01*
X003509Y019036D01*
X003372Y018898D01*
X003297Y018718D01*
X003297Y018523D01*
X003372Y018343D01*
X003509Y018205D01*
X003690Y018130D01*
X003884Y018130D01*
X004065Y018205D01*
X004202Y018343D01*
X004277Y018523D01*
X004277Y018718D01*
X004232Y018828D02*
X004401Y018828D01*
X004535Y018946D02*
X004154Y018946D01*
X004137Y019058D02*
X004397Y019058D01*
X004638Y019158D01*
X004821Y019342D01*
X004921Y019582D01*
X004921Y019842D01*
X004821Y020082D01*
X004638Y020266D01*
X004397Y020366D01*
X004137Y020366D01*
X003897Y020266D01*
X003713Y020082D01*
X003614Y019842D01*
X003614Y019582D01*
X003713Y019342D01*
X003897Y019158D01*
X004137Y019058D01*
X004122Y019065D02*
X003995Y019065D01*
X003872Y019183D02*
X001220Y019183D01*
X001220Y019065D02*
X001497Y019065D01*
X001509Y019074D02*
X001442Y019024D01*
X001383Y018966D01*
X001334Y018898D01*
X001296Y018824D01*
X001270Y018744D01*
X001257Y018662D01*
X001257Y018660D01*
X001747Y018660D01*
X001747Y018580D01*
X001827Y018580D01*
X001827Y018090D01*
X001829Y018090D01*
X001911Y018103D01*
X001990Y018129D01*
X002065Y018167D01*
X002132Y018216D01*
X002191Y018275D01*
X002240Y018342D01*
X002278Y018417D01*
X002297Y018475D01*
X002297Y018423D01*
X002372Y018243D01*
X002509Y018105D01*
X002690Y018030D01*
X002884Y018030D01*
X003065Y018105D01*
X003202Y018243D01*
X003277Y018423D01*
X003277Y018618D01*
X003202Y018798D01*
X003065Y018936D01*
X002884Y019010D01*
X002690Y019010D01*
X002509Y018936D01*
X002372Y018798D01*
X002317Y018665D01*
X002304Y018744D01*
X002278Y018824D01*
X002240Y018898D01*
X002191Y018966D01*
X002132Y019024D01*
X002065Y019074D01*
X001990Y019111D01*
X001911Y019137D01*
X001829Y019150D01*
X001827Y019150D01*
X001827Y018660D01*
X001747Y018660D01*
X001747Y019150D01*
X001745Y019150D01*
X001663Y019137D01*
X001584Y019111D01*
X001509Y019074D01*
X001369Y018946D02*
X001220Y018946D01*
X001220Y018828D02*
X001298Y018828D01*
X001264Y018709D02*
X001220Y018709D01*
X001220Y018591D02*
X001747Y018591D01*
X001747Y018580D02*
X001257Y018580D01*
X001257Y018579D01*
X001270Y018496D01*
X001296Y018417D01*
X001334Y018342D01*
X001383Y018275D01*
X001442Y018216D01*
X001509Y018167D01*
X001584Y018129D01*
X001663Y018103D01*
X001745Y018090D01*
X001747Y018090D01*
X001747Y018580D01*
X001747Y018472D02*
X001827Y018472D01*
X001827Y018354D02*
X001747Y018354D01*
X001747Y018235D02*
X001827Y018235D01*
X001827Y018117D02*
X001747Y018117D01*
X001622Y018117D02*
X001220Y018117D01*
X001220Y018235D02*
X001423Y018235D01*
X001328Y018354D02*
X001220Y018354D01*
X001220Y018472D02*
X001278Y018472D01*
X001747Y018709D02*
X001827Y018709D01*
X001827Y018828D02*
X001747Y018828D01*
X001747Y018946D02*
X001827Y018946D01*
X001827Y019065D02*
X001747Y019065D01*
X002077Y019065D02*
X003579Y019065D01*
X003420Y018946D02*
X003039Y018946D01*
X003173Y018828D02*
X003343Y018828D01*
X003297Y018709D02*
X003239Y018709D01*
X003277Y018591D02*
X003297Y018591D01*
X003277Y018472D02*
X003318Y018472D01*
X003367Y018354D02*
X003248Y018354D01*
X003195Y018235D02*
X003479Y018235D01*
X003967Y017880D02*
X002529Y017880D01*
X002647Y017761D02*
X003849Y017761D01*
X003730Y017643D02*
X002632Y017643D01*
X002446Y017287D02*
X002423Y017287D01*
X002277Y017287D02*
X002254Y017287D01*
X001871Y017524D02*
X001220Y017524D01*
X001220Y017406D02*
X001753Y017406D01*
X001666Y017287D02*
X001220Y017287D01*
X001220Y017169D02*
X001682Y017169D01*
X001792Y017050D02*
X001220Y017050D01*
X001952Y018117D02*
X002498Y018117D01*
X002379Y018235D02*
X002151Y018235D01*
X002246Y018354D02*
X002326Y018354D01*
X002296Y018472D02*
X002297Y018472D01*
X002310Y018709D02*
X002335Y018709D01*
X002276Y018828D02*
X002401Y018828D01*
X002535Y018946D02*
X002205Y018946D01*
X001220Y019302D02*
X003753Y019302D01*
X003681Y019420D02*
X001220Y019420D01*
X001220Y019539D02*
X003632Y019539D01*
X003614Y019657D02*
X001220Y019657D01*
X001220Y019776D02*
X003614Y019776D01*
X003635Y019894D02*
X001220Y019894D01*
X001220Y020013D02*
X003684Y020013D01*
X003762Y020131D02*
X001220Y020131D01*
X001220Y020250D02*
X003880Y020250D01*
X004654Y020250D02*
X005012Y020250D01*
X005012Y020131D02*
X004773Y020131D01*
X004850Y020013D02*
X005012Y020013D01*
X005012Y019894D02*
X004899Y019894D01*
X004921Y019776D02*
X005012Y019776D01*
X005012Y019657D02*
X004921Y019657D01*
X004903Y019539D02*
X005012Y019539D01*
X005012Y019420D02*
X004854Y019420D01*
X004781Y019302D02*
X005012Y019302D01*
X005012Y019183D02*
X004663Y019183D01*
X004412Y019065D02*
X005012Y019065D01*
X005239Y018709D02*
X005297Y018709D01*
X005297Y018591D02*
X005277Y018591D01*
X005277Y018472D02*
X005318Y018472D01*
X005367Y018354D02*
X005248Y018354D01*
X005195Y018235D02*
X005479Y018235D01*
X005787Y018620D02*
X005510Y018897D01*
X005510Y019160D01*
X005510Y020460D01*
X005192Y020378D02*
X004910Y020660D01*
X004910Y021010D01*
X004732Y021198D02*
X001220Y021198D01*
X001220Y021316D02*
X004900Y021316D01*
X004781Y021435D02*
X001220Y021435D01*
X001220Y021553D02*
X004663Y021553D01*
X004544Y021672D02*
X001220Y021672D01*
X001220Y021790D02*
X004426Y021790D01*
X004307Y021909D02*
X001220Y021909D01*
X001220Y022027D02*
X004189Y022027D01*
X004070Y022146D02*
X001220Y022146D01*
X001220Y022264D02*
X003952Y022264D01*
X003833Y022383D02*
X001220Y022383D01*
X001220Y022501D02*
X003715Y022501D01*
X003596Y022620D02*
X001220Y022620D01*
X001220Y022738D02*
X003478Y022738D01*
X003359Y022857D02*
X001220Y022857D01*
X001220Y022975D02*
X003330Y022975D01*
X003330Y023094D02*
X001220Y023094D01*
X001220Y023212D02*
X003330Y023212D01*
X003330Y023331D02*
X001220Y023331D01*
X001220Y023449D02*
X003330Y023449D01*
X003330Y023568D02*
X001220Y023568D01*
X001220Y023686D02*
X003330Y023686D01*
X003330Y023805D02*
X001220Y023805D01*
X001220Y023923D02*
X003330Y023923D01*
X003330Y024042D02*
X001220Y024042D01*
X001220Y024160D02*
X003330Y024160D01*
X003330Y024279D02*
X001220Y024279D01*
X001220Y024397D02*
X003330Y024397D01*
X003330Y024516D02*
X001220Y024516D01*
X001220Y024634D02*
X003330Y024634D01*
X003330Y024753D02*
X001220Y024753D01*
X001220Y024871D02*
X003330Y024871D01*
X003259Y024990D02*
X001220Y024990D01*
X001220Y025108D02*
X003251Y025108D01*
X003311Y025227D02*
X001220Y025227D01*
X001220Y025345D02*
X003551Y025345D01*
X003573Y025464D02*
X001220Y025464D01*
X001220Y025582D02*
X003670Y025582D01*
X003801Y025701D02*
X001220Y025701D01*
X001220Y025819D02*
X003853Y025819D01*
X004051Y025938D02*
X001220Y025938D01*
X001220Y026056D02*
X004070Y026056D01*
X003936Y026175D02*
X001220Y026175D01*
X001220Y026293D02*
X003661Y026293D01*
X004060Y025660D02*
X004060Y025610D01*
X004160Y025510D01*
X004160Y023010D01*
X005710Y021460D01*
X007010Y021460D01*
X007760Y020710D01*
X007524Y020605D02*
X006997Y020605D01*
X007019Y020724D02*
X007492Y020724D01*
X007374Y020842D02*
X006986Y020842D01*
X006831Y020961D02*
X007255Y020961D01*
X007137Y021079D02*
X006670Y021079D01*
X006564Y021198D02*
X007018Y021198D01*
X007290Y021435D02*
X007781Y021435D01*
X007900Y021316D02*
X007409Y021316D01*
X007527Y021198D02*
X008018Y021198D01*
X008137Y021079D02*
X007646Y021079D01*
X007831Y020961D02*
X008255Y020961D01*
X008374Y020842D02*
X007986Y020842D01*
X008019Y020724D02*
X008492Y020724D01*
X008524Y020605D02*
X007997Y020605D01*
X007897Y020487D02*
X008624Y020487D01*
X008760Y020710D02*
X007760Y021710D01*
X005860Y021710D01*
X004410Y023160D01*
X004410Y025810D01*
X004310Y025910D01*
X004310Y025960D01*
X003810Y025360D02*
X003810Y023010D01*
X005610Y021210D01*
X006310Y021210D01*
X006760Y020710D01*
X006524Y020605D02*
X005997Y020605D01*
X006019Y020724D02*
X006501Y020724D01*
X006399Y020842D02*
X005986Y020842D01*
X005831Y020961D02*
X006293Y020961D01*
X006624Y020487D02*
X005897Y020487D01*
X005760Y020710D02*
X003510Y022960D01*
X003510Y025060D01*
X005090Y025108D02*
X005258Y025108D01*
X005280Y025085D02*
X005386Y024980D01*
X007380Y024980D01*
X007380Y022854D01*
X007423Y022751D01*
X007784Y022390D01*
X006185Y022390D01*
X005090Y023485D01*
X005090Y025275D01*
X005280Y025085D01*
X005376Y024990D02*
X005090Y024990D01*
X005090Y024871D02*
X007380Y024871D01*
X007380Y024753D02*
X005090Y024753D01*
X005090Y024634D02*
X007380Y024634D01*
X007380Y024516D02*
X005090Y024516D01*
X005090Y024397D02*
X007380Y024397D01*
X007380Y024279D02*
X005090Y024279D01*
X005090Y024160D02*
X007380Y024160D01*
X007380Y024042D02*
X005090Y024042D01*
X005090Y023923D02*
X007380Y023923D01*
X007380Y023805D02*
X005090Y023805D01*
X005090Y023686D02*
X007380Y023686D01*
X007380Y023568D02*
X005090Y023568D01*
X005126Y023449D02*
X007380Y023449D01*
X007380Y023331D02*
X005244Y023331D01*
X005363Y023212D02*
X007380Y023212D01*
X007380Y023094D02*
X005481Y023094D01*
X005600Y022975D02*
X007380Y022975D01*
X007380Y022857D02*
X005718Y022857D01*
X005837Y022738D02*
X007436Y022738D01*
X007555Y022620D02*
X005955Y022620D01*
X006074Y022501D02*
X007673Y022501D01*
X007940Y023449D02*
X026291Y023449D01*
X026291Y023331D02*
X023973Y023331D01*
X024060Y023243D02*
X024060Y023243D01*
X024091Y023212D02*
X026291Y023212D01*
X026291Y023094D02*
X024210Y023094D01*
X024408Y024570D02*
X024496Y024607D01*
X024564Y024674D01*
X024764Y024874D01*
X024800Y024962D01*
X024800Y027508D01*
X024764Y027596D01*
X024696Y027663D01*
X024496Y027863D01*
X024408Y027900D01*
X019412Y027900D01*
X019324Y027863D01*
X019257Y027796D01*
X019174Y027713D01*
X019107Y027646D01*
X019070Y027558D01*
X019070Y024912D01*
X019107Y024824D01*
X019174Y024757D01*
X019324Y024607D01*
X019412Y024570D01*
X024408Y024570D01*
X024524Y024634D02*
X026291Y024634D01*
X026291Y024516D02*
X012470Y024516D01*
X012589Y024634D02*
X019297Y024634D01*
X019178Y024753D02*
X012707Y024753D01*
X012660Y024960D02*
X012110Y024410D01*
X011410Y024410D01*
X011174Y024516D02*
X007940Y024516D01*
X007940Y024634D02*
X011275Y024634D01*
X011351Y024753D02*
X007940Y024753D01*
X007940Y024871D02*
X011376Y024871D01*
X011488Y024990D02*
X007940Y024990D01*
X007940Y025108D02*
X012254Y025108D01*
X012372Y025227D02*
X007936Y025227D01*
X007871Y025345D02*
X012321Y025345D01*
X012560Y025360D02*
X011960Y025960D01*
X011960Y026675D01*
X011960Y027560D01*
X012660Y028260D01*
X012960Y028260D01*
X013010Y028260D01*
X013210Y028426D02*
X014067Y028426D01*
X013949Y028308D02*
X013269Y028308D01*
X013261Y028189D02*
X013830Y028189D01*
X013806Y027910D02*
X012860Y027910D01*
X012689Y027715D02*
X012370Y027715D01*
X012488Y027834D02*
X012612Y027834D01*
X013031Y027715D02*
X014880Y027715D01*
X014880Y027597D02*
X012251Y027597D01*
X012140Y027478D02*
X014880Y027478D01*
X014855Y027360D02*
X012140Y027360D01*
X012140Y027241D02*
X014737Y027241D01*
X014730Y027123D02*
X012140Y027123D01*
X012140Y027004D02*
X014730Y027004D01*
X014730Y026886D02*
X012140Y026886D01*
X012202Y026767D02*
X014613Y026767D01*
X014701Y026855D02*
X014701Y026855D01*
X014776Y026675D02*
X013460Y025360D01*
X012560Y025360D01*
X012560Y025160D02*
X013560Y025160D01*
X015110Y026710D01*
X015110Y027060D01*
X015360Y027310D01*
X015060Y027310D02*
X014910Y027160D01*
X014910Y026810D01*
X014776Y026675D01*
X014494Y026649D02*
X012219Y026649D01*
X012180Y026530D02*
X014376Y026530D01*
X014257Y026412D02*
X012140Y026412D01*
X012140Y026293D02*
X014139Y026293D01*
X014020Y026175D02*
X012140Y026175D01*
X012140Y026056D02*
X013902Y026056D01*
X013783Y025938D02*
X012237Y025938D01*
X012356Y025819D02*
X013665Y025819D01*
X013546Y025701D02*
X012474Y025701D01*
X012593Y025582D02*
X013428Y025582D01*
X013660Y024960D02*
X012660Y024960D01*
X012560Y025160D02*
X012160Y024760D01*
X011610Y024760D01*
X011732Y024990D02*
X012135Y024990D01*
X012352Y024397D02*
X026291Y024397D01*
X026291Y024279D02*
X012233Y024279D01*
X011483Y024160D02*
X026291Y024160D01*
X026291Y024042D02*
X007940Y024042D01*
X007940Y024160D02*
X011338Y024160D01*
X011185Y024279D02*
X007940Y024279D01*
X007940Y024397D02*
X011151Y024397D01*
X013660Y024960D02*
X015410Y026710D01*
X015410Y026860D01*
X015060Y027310D02*
X015060Y027960D01*
X015360Y028260D01*
X015910Y027810D01*
X015910Y026460D01*
X015510Y026060D01*
X015460Y026060D01*
X015366Y025819D02*
X015280Y025819D01*
X015280Y025701D02*
X019070Y025701D01*
X019070Y025819D02*
X015555Y025819D01*
X015690Y025938D02*
X019070Y025938D01*
X019070Y026056D02*
X015761Y026056D01*
X015879Y026175D02*
X019070Y026175D01*
X019070Y026293D02*
X015998Y026293D01*
X016090Y026412D02*
X019070Y026412D01*
X019070Y026530D02*
X016090Y026530D01*
X016090Y026649D02*
X019070Y026649D01*
X019070Y026767D02*
X016090Y026767D01*
X016090Y026886D02*
X019070Y026886D01*
X019070Y027004D02*
X016090Y027004D01*
X016090Y027123D02*
X019070Y027123D01*
X019070Y027241D02*
X016090Y027241D01*
X016090Y027360D02*
X019070Y027360D01*
X019070Y027478D02*
X016090Y027478D01*
X016090Y027597D02*
X019086Y027597D01*
X019176Y027715D02*
X016090Y027715D01*
X016090Y027834D02*
X019294Y027834D01*
X020677Y029160D02*
X023843Y029160D01*
X023960Y029277D01*
X024160Y029477D01*
X024160Y031343D01*
X024043Y031460D01*
X023843Y031660D01*
X018777Y031660D01*
X018660Y031543D01*
X018577Y031460D01*
X018460Y031343D01*
X018460Y030277D01*
X018577Y030160D01*
X019177Y029560D01*
X020277Y029560D01*
X020677Y029160D01*
X020582Y029256D02*
X016597Y029256D01*
X016619Y029374D02*
X020463Y029374D01*
X020345Y029493D02*
X016585Y029493D01*
X016430Y029611D02*
X019126Y029611D01*
X019008Y029730D02*
X001220Y029730D01*
X001220Y029848D02*
X018889Y029848D01*
X018771Y029967D02*
X001220Y029967D01*
X001220Y030085D02*
X018652Y030085D01*
X018534Y030204D02*
X001220Y030204D01*
X001220Y030322D02*
X018460Y030322D01*
X018460Y030441D02*
X001220Y030441D01*
X001220Y030559D02*
X018460Y030559D01*
X018460Y030678D02*
X001220Y030678D01*
X001220Y030796D02*
X018460Y030796D01*
X018460Y030915D02*
X001220Y030915D01*
X001225Y031033D02*
X018460Y031033D01*
X018460Y031152D02*
X001251Y031152D01*
X001289Y031270D02*
X018460Y031270D01*
X018506Y031389D02*
X001363Y031389D01*
X001464Y031507D02*
X018624Y031507D01*
X018577Y031460D02*
X018577Y031460D01*
X018743Y031626D02*
X001642Y031626D01*
X001220Y029611D02*
X016290Y029611D01*
X016135Y029493D02*
X014244Y029493D01*
X014280Y029457D02*
X014207Y029529D01*
X014112Y029569D01*
X014009Y029569D01*
X013914Y029529D01*
X013841Y029457D01*
X013801Y029361D01*
X013801Y029356D01*
X013514Y029069D01*
X013459Y029069D01*
X013364Y029029D01*
X013291Y028957D01*
X013251Y028861D01*
X013251Y028759D01*
X013291Y028663D01*
X001220Y028663D01*
X001220Y028545D02*
X014186Y028545D01*
X014304Y028663D02*
X013729Y028663D01*
X013730Y028663D02*
X013769Y028759D01*
X013769Y028814D01*
X014007Y029052D01*
X014009Y029051D01*
X014112Y029051D01*
X014207Y029091D01*
X014280Y029163D01*
X014319Y029259D01*
X014319Y029361D01*
X014280Y029457D01*
X014314Y029374D02*
X016101Y029374D01*
X016001Y029256D02*
X014318Y029256D01*
X014253Y029137D02*
X014778Y029137D01*
X014660Y029019D02*
X013973Y029019D01*
X013855Y028900D02*
X014541Y028900D01*
X014423Y028782D02*
X013769Y028782D01*
X013730Y028663D02*
X013657Y028591D01*
X013562Y028551D01*
X013459Y028551D01*
X013364Y028591D01*
X013291Y028663D01*
X013251Y028782D02*
X001220Y028782D01*
X001220Y028900D02*
X013267Y028900D01*
X013353Y029019D02*
X001220Y029019D01*
X001220Y029137D02*
X013583Y029137D01*
X013701Y029256D02*
X001220Y029256D01*
X001220Y029374D02*
X013807Y029374D01*
X013877Y029493D02*
X001220Y029493D01*
X001220Y028426D02*
X012572Y028426D01*
X012453Y028308D02*
X001220Y028308D01*
X001220Y028189D02*
X012335Y028189D01*
X012216Y028071D02*
X001220Y028071D01*
X001220Y027952D02*
X012098Y027952D01*
X011979Y027834D02*
X001220Y027834D01*
X001220Y027715D02*
X011861Y027715D01*
X011780Y027597D02*
X001220Y027597D01*
X001220Y027478D02*
X011780Y027478D01*
X011780Y027360D02*
X001220Y027360D01*
X001220Y027241D02*
X011780Y027241D01*
X011780Y027123D02*
X001220Y027123D01*
X005090Y025227D02*
X005139Y025227D01*
X007940Y023923D02*
X026291Y023923D01*
X026291Y023805D02*
X007940Y023805D01*
X007940Y023686D02*
X026291Y023686D01*
X026291Y023568D02*
X007940Y023568D01*
X007624Y020487D02*
X006897Y020487D01*
X007579Y019065D02*
X005995Y019065D01*
X004948Y020368D02*
X001220Y020368D01*
X001220Y020487D02*
X004829Y020487D01*
X004730Y020605D02*
X001220Y020605D01*
X001220Y020724D02*
X004730Y020724D01*
X004712Y020842D02*
X001220Y020842D01*
X001220Y020961D02*
X004651Y020961D01*
X004659Y021079D02*
X001220Y021079D01*
X003076Y018117D02*
X004498Y018117D01*
X004379Y018235D02*
X004095Y018235D01*
X004207Y018354D02*
X004326Y018354D01*
X004297Y018472D02*
X004256Y018472D01*
X004277Y018591D02*
X004297Y018591D01*
X004910Y016339D02*
X005073Y016339D01*
X004976Y014318D02*
X003317Y014318D01*
X002879Y014756D01*
X002889Y014043D02*
X004582Y014043D01*
X002889Y014043D02*
X001826Y015106D01*
X001826Y015290D01*
X002085Y015550D01*
X006480Y012784D02*
X007850Y012784D01*
X007839Y012666D02*
X006480Y012666D01*
X006480Y012547D02*
X007839Y012547D01*
X008214Y012666D02*
X008334Y012666D01*
X008334Y012784D02*
X008214Y012784D01*
X008214Y012310D02*
X008334Y012310D01*
X008334Y012192D02*
X008214Y012192D01*
X008214Y012073D02*
X008334Y012073D01*
X008334Y011955D02*
X008214Y011955D01*
X008633Y011955D02*
X008802Y011955D01*
X008725Y012073D02*
X008710Y012073D01*
X008710Y012192D02*
X008725Y012192D01*
X008710Y012310D02*
X008725Y012310D01*
X008710Y012547D02*
X008725Y012547D01*
X008710Y012666D02*
X008725Y012666D01*
X008736Y012784D02*
X008699Y012784D01*
X009100Y012784D02*
X009220Y012784D01*
X009220Y012666D02*
X009100Y012666D01*
X011543Y013969D02*
X011592Y013969D01*
X011575Y014088D02*
X011560Y014088D01*
X011560Y014206D02*
X011575Y014206D01*
X011575Y014416D02*
X011950Y014416D01*
X011950Y014831D01*
X011714Y014831D01*
X011673Y014821D01*
X011636Y014799D01*
X011607Y014770D01*
X011586Y014733D01*
X011575Y014692D01*
X011575Y014416D01*
X011575Y014443D02*
X011560Y014443D01*
X011560Y014562D02*
X011575Y014562D01*
X011560Y014680D02*
X011575Y014680D01*
X011635Y014799D02*
X011499Y014799D01*
X011950Y014799D02*
X012070Y014799D01*
X012070Y014680D02*
X011950Y014680D01*
X011950Y014562D02*
X012070Y014562D01*
X012070Y014443D02*
X011950Y014443D01*
X012446Y014206D02*
X012500Y014206D01*
X012500Y014088D02*
X012446Y014088D01*
X012429Y013969D02*
X012523Y013969D01*
X013292Y014325D02*
X014437Y014325D01*
X014388Y014443D02*
X013292Y014443D01*
X013292Y014562D02*
X014379Y014562D01*
X014387Y014680D02*
X013292Y014680D01*
X015055Y013969D02*
X015444Y013969D01*
X015444Y013851D02*
X015173Y013851D01*
X015229Y013732D02*
X015444Y013732D01*
X015444Y013614D02*
X015259Y013614D01*
X015259Y013495D02*
X015444Y013495D01*
X015444Y013377D02*
X015222Y013377D01*
X015157Y013258D02*
X015444Y013258D01*
X015444Y013140D02*
X015028Y013140D01*
X015042Y013021D02*
X015444Y013021D01*
X015444Y012903D02*
X015221Y012903D01*
X015307Y012784D02*
X015444Y012784D01*
X015444Y012666D02*
X015356Y012666D01*
X015359Y012547D02*
X015444Y012547D01*
X015444Y012429D02*
X015343Y012429D01*
X015294Y012310D02*
X015444Y012310D01*
X015444Y012192D02*
X015191Y012192D01*
X014968Y012073D02*
X015444Y012073D01*
X015444Y011955D02*
X015069Y011955D01*
X015186Y011836D02*
X015444Y011836D01*
X015444Y011718D02*
X015235Y011718D01*
X015259Y011599D02*
X015444Y011599D01*
X015444Y011481D02*
X015259Y011481D01*
X015216Y011362D02*
X015444Y011362D01*
X015444Y011244D02*
X015143Y011244D01*
X014993Y011125D02*
X015444Y011125D01*
X015444Y011007D02*
X015077Y011007D01*
X015146Y010978D02*
X014966Y011052D01*
X014771Y011052D01*
X014591Y010978D01*
X014453Y010840D01*
X014379Y010660D01*
X014379Y010465D01*
X014453Y010285D01*
X014591Y010147D01*
X014771Y010072D01*
X014966Y010072D01*
X015146Y010147D01*
X015284Y010285D01*
X015359Y010465D01*
X015359Y010660D01*
X015284Y010840D01*
X015146Y010978D01*
X015236Y010888D02*
X015444Y010888D01*
X015444Y010770D02*
X015313Y010770D01*
X015359Y010651D02*
X015444Y010651D01*
X015444Y010533D02*
X015359Y010533D01*
X015337Y010414D02*
X015444Y010414D01*
X015444Y010296D02*
X015288Y010296D01*
X015176Y010177D02*
X015444Y010177D01*
X015444Y010059D02*
X013096Y010059D01*
X013096Y010177D02*
X014561Y010177D01*
X014449Y010296D02*
X013096Y010296D01*
X013096Y010414D02*
X014400Y010414D01*
X014379Y010533D02*
X013096Y010533D01*
X013096Y010651D02*
X014379Y010651D01*
X014424Y010770D02*
X013096Y010770D01*
X013096Y010888D02*
X014501Y010888D01*
X014660Y011007D02*
X013096Y011007D01*
X013096Y011125D02*
X014544Y011125D01*
X014394Y011244D02*
X013096Y011244D01*
X013096Y011362D02*
X014321Y011362D01*
X014279Y011481D02*
X013096Y011481D01*
X013096Y011599D02*
X014279Y011599D01*
X014302Y011718D02*
X013096Y011718D01*
X013096Y011836D02*
X014351Y011836D01*
X014769Y012073D02*
X013096Y012073D01*
X014491Y009978D02*
X014671Y010052D01*
X014866Y010052D01*
X015046Y009978D01*
X015184Y009840D01*
X015259Y009660D01*
X015259Y009465D01*
X015184Y009285D01*
X015046Y009147D01*
X014866Y009072D01*
X014671Y009072D01*
X014491Y009147D01*
X014353Y009285D01*
X014279Y009465D01*
X014279Y009660D01*
X014353Y009840D01*
X014491Y009978D01*
X014453Y009940D02*
X013096Y009940D01*
X013096Y009822D02*
X014345Y009822D01*
X014296Y009703D02*
X013096Y009703D01*
X013096Y009585D02*
X014279Y009585D01*
X014279Y009466D02*
X013096Y009466D01*
X013096Y009348D02*
X014327Y009348D01*
X014409Y009229D02*
X013096Y009229D01*
X013096Y009111D02*
X014579Y009111D01*
X014625Y008992D02*
X013096Y008992D01*
X013096Y008874D02*
X014487Y008874D01*
X014453Y008840D02*
X014379Y008660D01*
X014379Y008465D01*
X014453Y008285D01*
X014591Y008147D01*
X014724Y008092D01*
X014644Y008079D01*
X014565Y008054D01*
X014491Y008016D01*
X014423Y007967D01*
X014364Y007908D01*
X014315Y007840D01*
X014277Y007766D01*
X014252Y007686D01*
X014239Y007604D01*
X014239Y007602D01*
X014728Y007602D01*
X014728Y007522D01*
X014239Y007522D01*
X014239Y007521D01*
X014252Y007438D01*
X014277Y007359D01*
X014315Y007285D01*
X014364Y007217D01*
X014423Y007158D01*
X014491Y007109D01*
X014565Y007071D01*
X014644Y007045D01*
X014727Y007032D01*
X014728Y007032D01*
X014728Y007522D01*
X014809Y007522D01*
X014809Y007602D01*
X015299Y007602D01*
X015299Y007604D01*
X015285Y007686D01*
X015260Y007766D01*
X015222Y007840D01*
X015173Y007908D01*
X015114Y007967D01*
X015046Y008016D01*
X014972Y008054D01*
X014914Y008072D01*
X014966Y008072D01*
X015146Y008147D01*
X015284Y008285D01*
X015359Y008465D01*
X015359Y008660D01*
X015284Y008840D01*
X015146Y008978D01*
X014966Y009052D01*
X014771Y009052D01*
X014591Y008978D01*
X014453Y008840D01*
X014418Y008755D02*
X013096Y008755D01*
X013096Y008637D02*
X014379Y008637D01*
X014379Y008518D02*
X013096Y008518D01*
X013096Y008400D02*
X014406Y008400D01*
X014457Y008281D02*
X013096Y008281D01*
X013096Y008163D02*
X014575Y008163D01*
X014546Y008044D02*
X013096Y008044D01*
X013079Y007926D02*
X014382Y007926D01*
X014298Y007807D02*
X012960Y007807D01*
X012842Y007689D02*
X014252Y007689D01*
X014249Y007452D02*
X012605Y007452D01*
X012723Y007570D02*
X014728Y007570D01*
X014809Y007570D02*
X015444Y007570D01*
X015444Y007452D02*
X015288Y007452D01*
X015285Y007438D02*
X015299Y007521D01*
X015298Y007522D01*
X014809Y007522D01*
X014809Y007032D01*
X014810Y007032D01*
X014893Y007045D01*
X014972Y007071D01*
X015046Y007109D01*
X015114Y007158D01*
X015173Y007217D01*
X015222Y007285D01*
X015260Y007359D01*
X015285Y007438D01*
X015246Y007333D02*
X015444Y007333D01*
X015444Y007215D02*
X015170Y007215D01*
X015021Y007096D02*
X015444Y007096D01*
X015444Y006978D02*
X014937Y006978D01*
X014809Y007096D02*
X014728Y007096D01*
X014728Y007215D02*
X014809Y007215D01*
X014809Y007333D02*
X014728Y007333D01*
X014728Y007452D02*
X014809Y007452D01*
X014367Y007215D02*
X012449Y007215D01*
X012449Y007096D02*
X013666Y007096D01*
X013682Y007102D02*
X013502Y007028D01*
X013364Y006890D01*
X013289Y006710D01*
X013289Y006515D01*
X013364Y006335D01*
X013502Y006197D01*
X013682Y006122D01*
X013877Y006122D01*
X014057Y006197D01*
X014195Y006335D01*
X014269Y006515D01*
X014269Y006710D01*
X014195Y006890D01*
X014057Y007028D01*
X013877Y007102D01*
X013682Y007102D01*
X013892Y007096D02*
X014516Y007096D01*
X014622Y006978D02*
X014107Y006978D01*
X014207Y006859D02*
X014433Y006859D01*
X014343Y006741D02*
X014256Y006741D01*
X014269Y006622D02*
X014294Y006622D01*
X014289Y006504D02*
X014264Y006504D01*
X014302Y006385D02*
X014215Y006385D01*
X014126Y006267D02*
X014351Y006267D01*
X014451Y006148D02*
X013939Y006148D01*
X013620Y006148D02*
X013108Y006148D01*
X013208Y006267D02*
X013432Y006267D01*
X013343Y006385D02*
X013257Y006385D01*
X013269Y006504D02*
X013294Y006504D01*
X013289Y006622D02*
X013264Y006622D01*
X013302Y006741D02*
X013215Y006741D01*
X013125Y006859D02*
X013351Y006859D01*
X013451Y006978D02*
X012937Y006978D01*
X012622Y006978D02*
X012449Y006978D01*
X012109Y006978D02*
X012107Y006978D01*
X012109Y007096D02*
X011892Y007096D01*
X011666Y007096D02*
X010415Y007096D01*
X010450Y006978D02*
X010622Y006978D01*
X010937Y006978D02*
X011451Y006978D01*
X011351Y006859D02*
X011125Y006859D01*
X011215Y006741D02*
X011302Y006741D01*
X011289Y006622D02*
X011264Y006622D01*
X011269Y006504D02*
X011294Y006504D01*
X011257Y006385D02*
X011343Y006385D01*
X011432Y006267D02*
X011208Y006267D01*
X011108Y006148D02*
X011620Y006148D01*
X011939Y006148D02*
X012109Y006148D01*
X012449Y006148D02*
X012451Y006148D01*
X012449Y006030D02*
X012664Y006030D01*
X013026Y005319D02*
X017263Y005319D01*
X017263Y005200D02*
X012973Y005200D01*
X012973Y005082D02*
X013301Y005082D01*
X013263Y004963D02*
X012973Y004963D01*
X012973Y004845D02*
X013263Y004845D01*
X013263Y004726D02*
X012973Y004726D01*
X012973Y004608D02*
X013263Y004608D01*
X013263Y004489D02*
X012973Y004489D01*
X012973Y004371D02*
X013263Y004371D01*
X013263Y004252D02*
X012968Y004252D01*
X012904Y004134D02*
X013263Y004134D01*
X013263Y004015D02*
X012785Y004015D01*
X012667Y003897D02*
X013263Y003897D01*
X013263Y003778D02*
X012548Y003778D01*
X012430Y003660D02*
X013263Y003660D01*
X015108Y006148D02*
X015268Y006148D01*
X015208Y006267D02*
X015387Y006267D01*
X015444Y006385D02*
X015257Y006385D01*
X015269Y006504D02*
X015444Y006504D01*
X015444Y006622D02*
X015264Y006622D01*
X015215Y006741D02*
X015444Y006741D01*
X015444Y006859D02*
X015125Y006859D01*
X015285Y007689D02*
X015444Y007689D01*
X015444Y007807D02*
X015239Y007807D01*
X015155Y007926D02*
X015444Y007926D01*
X015444Y008044D02*
X014991Y008044D01*
X015162Y008163D02*
X015444Y008163D01*
X015444Y008281D02*
X015280Y008281D01*
X015331Y008400D02*
X015444Y008400D01*
X015444Y008518D02*
X015359Y008518D01*
X015359Y008637D02*
X015444Y008637D01*
X015444Y008755D02*
X015319Y008755D01*
X015250Y008874D02*
X015444Y008874D01*
X015444Y008992D02*
X015112Y008992D01*
X014958Y009111D02*
X015444Y009111D01*
X015444Y009229D02*
X015128Y009229D01*
X015210Y009348D02*
X015444Y009348D01*
X015444Y009466D02*
X015259Y009466D01*
X015259Y009585D02*
X015444Y009585D01*
X015444Y009703D02*
X015241Y009703D01*
X015192Y009822D02*
X015444Y009822D01*
X015444Y009940D02*
X015084Y009940D01*
X012696Y009466D02*
X007145Y009466D01*
X007263Y009348D02*
X012696Y009348D01*
X012696Y009229D02*
X007382Y009229D01*
X007500Y009111D02*
X012696Y009111D01*
X012696Y008992D02*
X007619Y008992D01*
X007737Y008874D02*
X012696Y008874D01*
X012696Y008755D02*
X007856Y008755D01*
X007974Y008637D02*
X012696Y008637D01*
X012696Y008518D02*
X008093Y008518D01*
X008211Y008400D02*
X012696Y008400D01*
X012696Y008281D02*
X008330Y008281D01*
X008448Y008163D02*
X012696Y008163D01*
X012631Y008044D02*
X008567Y008044D01*
X009585Y007926D02*
X012513Y007926D01*
X012394Y007807D02*
X009704Y007807D01*
X009822Y007689D02*
X012276Y007689D01*
X012157Y007570D02*
X009941Y007570D01*
X010059Y007452D02*
X012079Y007452D01*
X012079Y007333D02*
X010178Y007333D01*
X010296Y007215D02*
X012109Y007215D01*
X012486Y007333D02*
X014291Y007333D01*
X014735Y019539D02*
X014760Y019539D01*
X014205Y020487D02*
X010897Y020487D01*
X011098Y021298D02*
X010798Y021598D01*
X011239Y021553D02*
X016593Y021553D01*
X016475Y021435D02*
X011358Y021435D01*
X011476Y021316D02*
X016356Y021316D01*
X016238Y021198D02*
X011595Y021198D01*
X009624Y020487D02*
X008897Y020487D01*
X013826Y024871D02*
X019087Y024871D01*
X019070Y024990D02*
X013944Y024990D01*
X014063Y025108D02*
X019070Y025108D01*
X019070Y025227D02*
X014181Y025227D01*
X014300Y025345D02*
X014629Y025345D01*
X014580Y025464D02*
X014418Y025464D01*
X014537Y025582D02*
X014587Y025582D01*
X015091Y025345D02*
X019070Y025345D01*
X019070Y025464D02*
X015140Y025464D01*
X015173Y025582D02*
X019070Y025582D01*
X016023Y027952D02*
X026291Y027952D01*
X026291Y027834D02*
X024526Y027834D01*
X024645Y027715D02*
X026291Y027715D01*
X026291Y027597D02*
X024763Y027597D01*
X024800Y027478D02*
X026291Y027478D01*
X026291Y027360D02*
X024800Y027360D01*
X024800Y027241D02*
X026291Y027241D01*
X026291Y027123D02*
X024800Y027123D01*
X024800Y027004D02*
X026291Y027004D01*
X026291Y026886D02*
X024800Y026886D01*
X024800Y026767D02*
X026291Y026767D01*
X026291Y026649D02*
X024800Y026649D01*
X024800Y026530D02*
X026291Y026530D01*
X026291Y026412D02*
X024800Y026412D01*
X024800Y026293D02*
X026291Y026293D01*
X026291Y026175D02*
X024800Y026175D01*
X024800Y026056D02*
X026291Y026056D01*
X026291Y025938D02*
X024800Y025938D01*
X024800Y025819D02*
X026291Y025819D01*
X026291Y025701D02*
X024800Y025701D01*
X024800Y025582D02*
X026291Y025582D01*
X026291Y025464D02*
X024800Y025464D01*
X024800Y025345D02*
X026291Y025345D01*
X026291Y025227D02*
X024800Y025227D01*
X024800Y025108D02*
X026291Y025108D01*
X026291Y024990D02*
X024800Y024990D01*
X024761Y024871D02*
X026291Y024871D01*
X026291Y024753D02*
X024642Y024753D01*
X026291Y028071D02*
X015876Y028071D01*
X015731Y028189D02*
X026291Y028189D01*
X026291Y028308D02*
X015619Y028308D01*
X015560Y028426D02*
X026291Y028426D01*
X026291Y028545D02*
X014695Y028545D01*
X014813Y028663D02*
X026291Y028663D01*
X026291Y028782D02*
X014932Y028782D01*
X014906Y029010D02*
X013806Y027910D01*
X013984Y027834D02*
X014880Y027834D01*
X014880Y027952D02*
X014102Y027952D01*
X014221Y028071D02*
X014916Y028071D01*
X015035Y028189D02*
X014339Y028189D01*
X014458Y028308D02*
X015101Y028308D01*
X015160Y028426D02*
X014576Y028426D01*
X014906Y029010D02*
X016010Y029010D01*
X016360Y029360D01*
X016498Y029137D02*
X026291Y029137D01*
X026291Y029019D02*
X016273Y029019D01*
X016155Y028900D02*
X026291Y028900D01*
X026291Y029256D02*
X023939Y029256D01*
X024057Y029374D02*
X026291Y029374D01*
X026291Y029493D02*
X024160Y029493D01*
X024160Y029611D02*
X026291Y029611D01*
X026291Y029730D02*
X024160Y029730D01*
X024160Y029848D02*
X026291Y029848D01*
X026291Y029967D02*
X024160Y029967D01*
X024160Y030085D02*
X026291Y030085D01*
X026291Y030204D02*
X024160Y030204D01*
X024160Y030322D02*
X026291Y030322D01*
X026291Y030441D02*
X024160Y030441D01*
X024160Y030559D02*
X026291Y030559D01*
X026291Y030678D02*
X024160Y030678D01*
X024160Y030796D02*
X026291Y030796D01*
X026291Y030915D02*
X024160Y030915D01*
X024160Y031033D02*
X026286Y031033D01*
X026260Y031152D02*
X024160Y031152D01*
X024160Y031270D02*
X026222Y031270D01*
X026148Y031389D02*
X024115Y031389D01*
X023996Y031507D02*
X026047Y031507D01*
X025869Y031626D02*
X023878Y031626D01*
X016119Y021079D02*
X015487Y021079D01*
X015631Y020961D02*
X016001Y020961D01*
X015882Y020842D02*
X015699Y020842D01*
X015708Y020724D02*
X015764Y020724D01*
X016950Y019776D02*
X019146Y019776D01*
X019146Y019894D02*
X017068Y019894D01*
X017187Y020013D02*
X019146Y020013D01*
X019146Y020131D02*
X017305Y020131D01*
X017424Y020250D02*
X019146Y020250D01*
X019146Y020368D02*
X017936Y020368D01*
X018005Y020487D02*
X019146Y020487D01*
X019146Y020605D02*
X018012Y020605D01*
X016870Y019657D02*
X019236Y019657D01*
X019355Y019539D02*
X016870Y019539D01*
X013510Y028810D02*
X013560Y028860D01*
X014010Y029310D01*
X014060Y029310D01*
X026080Y000934D02*
X001431Y000934D01*
X001593Y000816D02*
X025918Y000816D01*
D16*
X012279Y004779D02*
X011760Y004260D01*
X012279Y004779D02*
X012279Y007409D01*
X010280Y006990D02*
X010300Y004721D01*
X010760Y004260D01*
X009760Y004260D02*
X009300Y004721D01*
X009280Y007051D01*
X008810Y007560D01*
X008510Y007560D01*
X006110Y009960D01*
X006110Y013710D01*
X005760Y014060D01*
X005760Y015010D01*
X005760Y016760D01*
X005078Y017442D01*
X004771Y017442D01*
X004473Y017143D01*
X004869Y016747D02*
X005560Y016134D01*
X005560Y015060D01*
X005560Y014010D01*
X005910Y013660D01*
X005910Y009860D01*
X008280Y007490D01*
X008280Y004740D01*
X008760Y004260D01*
X007760Y004260D02*
X007760Y005610D01*
X007280Y006090D01*
X007280Y008190D01*
X006510Y008960D01*
X005710Y009760D01*
X005710Y013584D01*
X005684Y013610D01*
X005460Y013560D02*
X005460Y009710D01*
X006280Y008890D01*
X006280Y006190D01*
X006760Y005710D01*
X006760Y004310D01*
X008610Y007760D02*
X009510Y007760D01*
X010280Y006990D01*
X008610Y007760D02*
X006310Y010060D01*
X006310Y013760D01*
X005960Y014110D01*
X005960Y015010D01*
X005960Y016860D01*
X005023Y017797D01*
X004289Y017781D01*
X004166Y017658D01*
X004076Y017540D01*
X004413Y015257D02*
X004605Y015021D01*
X005016Y014004D02*
X005460Y013560D01*
X002085Y015550D02*
X001960Y015661D01*
X001960Y015310D01*
X014860Y025510D02*
X015110Y025760D01*
X015110Y026110D01*
X015710Y026710D01*
X015710Y027510D01*
X015360Y027760D01*
D17*
X015360Y028260D03*
X015330Y028708D03*
X014740Y028216D03*
X014248Y028806D03*
X014060Y029310D03*
X013460Y029299D03*
X013510Y028810D03*
X013010Y028260D03*
X012860Y027910D03*
X013559Y027232D03*
X013854Y026936D03*
X014149Y026641D03*
X013559Y026641D03*
X014149Y027232D03*
X015410Y026860D03*
X015460Y026060D03*
X015921Y024712D03*
X015921Y024082D03*
X016708Y024082D03*
X016708Y022507D03*
X016708Y021720D03*
X017338Y020560D03*
X017732Y020560D03*
X018283Y021720D03*
X018283Y022507D03*
X018283Y024082D03*
X018283Y025657D03*
X017496Y025657D03*
X017496Y027232D03*
X018283Y027232D03*
X019960Y026960D03*
X020460Y025960D03*
X019960Y024960D03*
X019858Y024082D03*
X020960Y024960D03*
X021433Y024082D03*
X021960Y024960D03*
X022460Y025960D03*
X021960Y026960D03*
X020960Y026960D03*
X022207Y028981D03*
X022060Y030260D03*
X022260Y030760D03*
X022060Y031160D03*
X022860Y031160D03*
X023260Y030760D03*
X022860Y030360D03*
X023760Y030360D03*
X023760Y031160D03*
X024582Y030381D03*
X025370Y030381D03*
X025370Y028806D03*
X024582Y028806D03*
X023907Y028181D03*
X023207Y028081D03*
X022960Y026960D03*
X023960Y026960D03*
X023460Y025960D03*
X022960Y024960D03*
X023007Y024082D03*
X023960Y024960D03*
X024582Y024082D03*
X025763Y023688D03*
X025763Y022507D03*
X025763Y021326D03*
X025763Y020539D03*
X025010Y020410D03*
X024960Y019960D03*
X024582Y019358D03*
X023960Y020810D03*
X023760Y022110D03*
X023610Y022560D03*
X021433Y022507D03*
X020960Y022510D03*
X020645Y021720D03*
X021433Y021720D03*
X019710Y020060D03*
X017063Y018728D03*
X017063Y017153D03*
X016866Y015381D03*
X016866Y013019D03*
X016866Y011051D03*
X016866Y009082D03*
X016866Y007310D03*
X016866Y005539D03*
X014110Y009082D03*
X013716Y010066D03*
X013716Y011051D03*
X013519Y012035D03*
X013519Y013019D03*
X013519Y014200D03*
X013519Y015184D03*
X013913Y015972D03*
X012338Y013019D03*
X012535Y012035D03*
X010409Y011484D03*
X010409Y010303D03*
X011196Y009515D03*
X008834Y010303D03*
X008834Y011484D03*
X007653Y011877D03*
X007063Y012547D03*
X006669Y011877D03*
X006669Y013255D03*
X007653Y013255D03*
X008834Y013058D03*
X008834Y014633D03*
X008834Y015657D03*
X007259Y015657D03*
X007259Y014633D03*
X005212Y014633D03*
X005173Y015617D03*
X005055Y013058D03*
X005055Y011484D03*
X005055Y010303D03*
X004700Y009594D03*
X003795Y008295D03*
X001354Y005066D03*
X001354Y004279D03*
X001551Y003491D03*
X002535Y002035D03*
X004110Y002035D03*
X005685Y002035D03*
X006039Y003137D03*
X005685Y003885D03*
X004110Y003885D03*
X007259Y002035D03*
X008834Y002035D03*
X010409Y002035D03*
X011984Y002035D03*
X013322Y006129D03*
X010606Y015696D03*
X013110Y019560D03*
X013559Y020145D03*
X013952Y020145D03*
X014464Y020460D03*
X014960Y020460D03*
X014582Y019751D03*
X014346Y021720D03*
X013952Y021720D03*
X013559Y021720D03*
X013910Y022760D03*
X013952Y023295D03*
X013165Y023295D03*
X014740Y023885D03*
X015410Y022260D03*
X012771Y026051D03*
X012378Y026051D03*
X011960Y026675D03*
X011196Y026051D03*
X010252Y025932D03*
X009740Y025381D03*
X009425Y025145D03*
X009031Y025736D03*
X009622Y026444D03*
X010409Y027232D03*
X010409Y028806D03*
X010409Y030381D03*
X011984Y030381D03*
X012476Y029299D03*
X008834Y028806D03*
X008322Y028491D03*
X007850Y028925D03*
X007259Y030381D03*
X008834Y030381D03*
X006472Y028019D03*
X006078Y027625D03*
X005685Y028019D03*
X005173Y027980D03*
X005212Y028806D03*
X005685Y028806D03*
X004700Y029121D03*
X004110Y030381D03*
X005685Y030381D03*
X002929Y028806D03*
X001748Y027232D03*
X001748Y026444D03*
X001748Y025657D03*
X002060Y024960D03*
X001748Y024869D03*
X001748Y024082D03*
X002929Y022507D03*
X003322Y021720D03*
X002535Y021720D03*
X001748Y021720D03*
X001748Y020539D03*
X003637Y019200D03*
X004910Y021010D03*
X005260Y020710D03*
X005760Y020710D03*
X006760Y020710D03*
X007760Y020710D03*
X008760Y020710D03*
X009760Y020710D03*
X010760Y020710D03*
X010798Y021598D03*
X010409Y023295D03*
X010409Y024082D03*
X010803Y024476D03*
X011410Y024410D03*
X011610Y024760D03*
X011196Y023295D03*
X009622Y023295D03*
X008834Y023295D03*
X008441Y023688D03*
X008834Y024082D03*
X008952Y024594D03*
X007660Y025160D03*
X007141Y024318D03*
X006866Y024476D03*
X006866Y024121D03*
X005685Y024082D03*
X005291Y024476D03*
X005291Y024830D03*
X005488Y025736D03*
X006196Y026562D03*
X005212Y027074D03*
X004310Y025960D03*
X004160Y026310D03*
X003810Y026510D03*
X003510Y026860D03*
X004060Y025660D03*
X003810Y025360D03*
X003510Y025060D03*
X006472Y022507D03*
X007259Y022507D03*
X007220Y027389D03*
X008007Y027389D03*
X008834Y027232D03*
X002535Y030381D03*
X016360Y029360D03*
X016708Y028806D03*
X017507Y029481D03*
X018007Y030081D03*
X018960Y030360D03*
X019460Y030760D03*
X019960Y030360D03*
X020460Y030760D03*
X020560Y030260D03*
X020560Y031160D03*
X019960Y031160D03*
X018960Y031160D03*
X020158Y029381D03*
X016708Y030381D03*
X025370Y027232D03*
X023007Y019358D03*
D18*
X024360Y024810D02*
X019460Y024810D01*
X019310Y024960D01*
X019310Y027510D01*
X019460Y027660D01*
X024360Y027660D01*
X024560Y027460D01*
X024560Y025010D01*
X024360Y024810D01*
X024560Y025026D02*
X019310Y025026D01*
X019310Y025264D02*
X024560Y025264D01*
X024560Y025503D02*
X019310Y025503D01*
X019310Y025741D02*
X024560Y025741D01*
X024560Y025980D02*
X019310Y025980D01*
X019310Y026218D02*
X024560Y026218D01*
X024560Y026457D02*
X019310Y026457D01*
X019310Y026695D02*
X024560Y026695D01*
X024560Y026934D02*
X019310Y026934D01*
X019310Y027172D02*
X024560Y027172D01*
X024560Y027411D02*
X019310Y027411D01*
X019449Y027649D02*
X024371Y027649D01*
X004605Y015021D02*
X004493Y014909D01*
X004031Y014909D01*
X003441Y015499D01*
X002829Y015499D01*
X002482Y015153D01*
X003283Y017192D02*
X003126Y017665D01*
D19*
X003126Y017665D03*
X015410Y020760D03*
D20*
X014860Y025510D03*
X015360Y027310D03*
X015360Y027760D03*
X011760Y004260D03*
X010760Y004260D03*
X009760Y004260D03*
X008760Y004260D03*
X007760Y004260D03*
X006760Y004310D03*
D21*
X012279Y007409D02*
X012896Y008026D01*
X012896Y014356D01*
X012896Y017664D01*
X013787Y018620D02*
X014467Y017940D01*
X014976Y017940D01*
X015448Y018413D01*
X015448Y019673D01*
X015468Y020145D01*
X016689Y021366D01*
X022276Y021366D01*
X022610Y021699D01*
X022610Y022460D01*
X023310Y023160D01*
X023860Y023160D01*
X025360Y021660D01*
X025360Y020310D01*
X025010Y019960D01*
X024960Y019960D01*
X025010Y020410D02*
X025010Y021660D01*
X023760Y022910D01*
X023460Y022910D01*
X022860Y022310D01*
X022860Y021560D01*
X022860Y021540D01*
X022430Y021110D01*
X016846Y021110D01*
X015763Y020066D01*
X015763Y019476D01*
X015763Y017457D01*
X014869Y016562D01*
X014753Y015578D02*
X014769Y015562D01*
X014753Y015578D02*
X016118Y016943D01*
X016118Y019318D01*
X016118Y020066D01*
X016964Y020873D01*
X019208Y020873D01*
X019346Y020696D01*
X019346Y019830D01*
X019504Y019673D01*
X021773Y019673D01*
X021860Y019760D01*
X023760Y021660D01*
X023760Y022110D01*
X023610Y022560D02*
X023160Y022110D01*
X023160Y021460D01*
X021760Y020060D01*
X019710Y020060D01*
X016118Y019366D02*
X016118Y019318D01*
X014960Y018693D02*
X014960Y020460D01*
X014960Y020260D01*
X014464Y020460D02*
X014464Y019869D01*
X014582Y019751D01*
X014960Y018693D02*
X014787Y018520D01*
X015410Y022260D02*
X014910Y022760D01*
X013910Y022760D01*
X019260Y029760D02*
X018660Y030360D01*
X018660Y031260D01*
X018860Y031460D01*
X023760Y031460D01*
X023960Y031260D01*
X023960Y029560D01*
X023760Y029360D01*
X020760Y029360D01*
X020360Y029760D01*
X019260Y029760D01*
X019238Y029783D02*
X023960Y029783D01*
X023960Y029941D02*
X019079Y029941D01*
X018921Y030100D02*
X023960Y030100D01*
X023960Y030258D02*
X018762Y030258D01*
X018660Y030417D02*
X023960Y030417D01*
X023960Y030575D02*
X018660Y030575D01*
X018660Y030734D02*
X023960Y030734D01*
X023960Y030892D02*
X018660Y030892D01*
X018660Y031051D02*
X023960Y031051D01*
X023960Y031209D02*
X018660Y031209D01*
X018768Y031368D02*
X023853Y031368D01*
X023960Y029624D02*
X020496Y029624D01*
X020655Y029466D02*
X023866Y029466D01*
X010589Y015714D02*
X010606Y015696D01*
X010589Y015714D02*
X010046Y015714D01*
X010046Y012406D01*
D22*
X015724Y015854D02*
X015724Y006208D01*
X015212Y005696D01*
X013007Y005696D01*
X012693Y005381D01*
X012693Y004318D01*
X012141Y003767D01*
X006551Y003767D01*
X006039Y003255D01*
X006039Y003137D01*
X015724Y015854D02*
X016590Y016720D01*
X016590Y019812D01*
X017338Y020560D01*
X017359Y020560D02*
X017338Y020539D01*
X017359Y020560D02*
X017732Y020560D01*
X015410Y020760D02*
X015310Y020860D01*
X013086Y020860D01*
X011786Y020860D01*
X011536Y020860D01*
X011523Y020873D01*
X011786Y020860D01*
X011523Y020873D02*
X011098Y021298D01*
X010798Y021598D01*
X009886Y022510D01*
X008060Y022510D01*
X007660Y022910D01*
X007660Y025160D01*
D23*
X017813Y018564D03*
X017813Y017564D03*
X017813Y016564D03*
X017813Y015564D03*
X018813Y015564D03*
X018813Y016564D03*
X018813Y017564D03*
X018813Y018564D03*
X019813Y018564D03*
X019813Y017564D03*
X019813Y016564D03*
X019813Y015564D03*
X020813Y015564D03*
X020813Y016564D03*
X020813Y017564D03*
X020813Y018564D03*
X021813Y018564D03*
X021813Y017564D03*
X021813Y016564D03*
X021813Y015564D03*
X022813Y015564D03*
X022813Y016564D03*
X022813Y017564D03*
X022813Y018564D03*
X023813Y018564D03*
X023813Y017564D03*
X023813Y016564D03*
X023813Y015564D03*
X024813Y015564D03*
X024813Y016564D03*
X024813Y017564D03*
X024813Y018564D03*
X025813Y018564D03*
X025813Y017564D03*
X025813Y016564D03*
X025813Y015564D03*
X025813Y014564D03*
X025813Y013564D03*
X025813Y012564D03*
X025813Y011564D03*
X025813Y010564D03*
X025813Y009564D03*
X025813Y008564D03*
X025813Y007564D03*
X025813Y006564D03*
X025813Y005564D03*
X025813Y004564D03*
X025813Y003564D03*
X024813Y003564D03*
X023813Y003564D03*
X023813Y004564D03*
X023813Y005564D03*
X023813Y006564D03*
X023813Y007564D03*
X023813Y008564D03*
X023813Y009564D03*
X023813Y010564D03*
X023813Y011564D03*
X023813Y012564D03*
X023813Y013564D03*
X023813Y014564D03*
X024813Y014564D03*
X024813Y013564D03*
X024813Y012564D03*
X024813Y011564D03*
X024813Y010564D03*
X024813Y009564D03*
X024813Y008564D03*
X024813Y007564D03*
X024813Y006564D03*
X024813Y005564D03*
X024813Y004564D03*
X022813Y004564D03*
X021813Y004564D03*
X021813Y005564D03*
X021813Y006564D03*
X021813Y007564D03*
X021813Y008564D03*
X021813Y009564D03*
X021813Y010564D03*
X021813Y011564D03*
X021813Y012564D03*
X021813Y013564D03*
X021813Y014564D03*
X022813Y014564D03*
X022813Y013564D03*
X022813Y012564D03*
X022813Y011564D03*
X022813Y010564D03*
X022813Y009564D03*
X022813Y008564D03*
X022813Y007564D03*
X022813Y006564D03*
X022813Y005564D03*
X022813Y003564D03*
X021813Y003564D03*
X020813Y003564D03*
X019813Y003564D03*
X019813Y004564D03*
X019813Y005564D03*
X019813Y006564D03*
X019813Y007564D03*
X019813Y008564D03*
X019813Y009564D03*
X019813Y010564D03*
X019813Y011564D03*
X019813Y012564D03*
X019813Y013564D03*
X019813Y014564D03*
X020813Y014564D03*
X020813Y013564D03*
X020813Y012564D03*
X020813Y011564D03*
X020813Y010564D03*
X020813Y009564D03*
X020813Y008564D03*
X020813Y007564D03*
X020813Y006564D03*
X020813Y005564D03*
X020813Y004564D03*
X018813Y004564D03*
X017813Y004564D03*
X017813Y005564D03*
X017813Y006564D03*
X017813Y007564D03*
X017813Y008564D03*
X017813Y009564D03*
X017813Y010564D03*
X017813Y011564D03*
X017813Y012564D03*
X017813Y013564D03*
X017813Y014564D03*
X018813Y014564D03*
X018813Y013564D03*
X018813Y012564D03*
X018813Y011564D03*
X018813Y010564D03*
X018813Y009564D03*
X018813Y008564D03*
X018813Y007564D03*
X018813Y006564D03*
X018813Y005564D03*
X018813Y003564D03*
X017813Y003564D03*
X016813Y003564D03*
X015813Y003564D03*
X015813Y004564D03*
X016813Y004564D03*
X014813Y004564D03*
X013813Y004564D03*
X013813Y003564D03*
X014813Y003564D03*
X014813Y002564D03*
X013813Y002564D03*
X013813Y001564D03*
X014813Y001564D03*
X015813Y001564D03*
X015813Y002564D03*
X016813Y002564D03*
X016813Y001564D03*
X017813Y001564D03*
X017813Y002564D03*
X018813Y002564D03*
X018813Y001564D03*
X019813Y001564D03*
X019813Y002564D03*
X020813Y002564D03*
X020813Y001564D03*
X021813Y001564D03*
X021813Y002564D03*
X022813Y002564D03*
X022813Y001564D03*
X023813Y001564D03*
X023813Y002564D03*
X024813Y002564D03*
X024813Y001564D03*
X025813Y001564D03*
X025813Y002564D03*
M02*
