G75*
%MOIN*%
%OFA0B0*%
%FSLAX24Y24*%
%IPPOS*%
%LPD*%
%AMOC8*
5,1,8,0,0,1.08239X$1,22.5*
%
%ADD10C,0.0000*%
%ADD11C,0.0160*%
%ADD12C,0.0060*%
%ADD13C,0.0030*%
%ADD14C,0.0050*%
%ADD15C,0.0040*%
%ADD16R,0.0298X0.0216*%
%ADD17R,0.0304X0.0210*%
%ADD18R,0.0298X0.0210*%
%ADD19R,0.0298X0.0053*%
%ADD20R,0.0298X0.0216*%
D10*
X000960Y001444D02*
X000960Y030972D01*
X000962Y031034D01*
X000968Y031095D01*
X000977Y031156D01*
X000991Y031217D01*
X001008Y031276D01*
X001029Y031334D01*
X001054Y031391D01*
X001082Y031446D01*
X001113Y031499D01*
X001148Y031550D01*
X001186Y031599D01*
X001227Y031646D01*
X001270Y031689D01*
X001317Y031730D01*
X001366Y031768D01*
X001417Y031803D01*
X001470Y031834D01*
X001525Y031862D01*
X001582Y031887D01*
X001640Y031908D01*
X001699Y031925D01*
X001760Y031939D01*
X001821Y031948D01*
X001882Y031954D01*
X001944Y031956D01*
X025567Y031956D01*
X025629Y031954D01*
X025690Y031948D01*
X025751Y031939D01*
X025812Y031925D01*
X025871Y031908D01*
X025929Y031887D01*
X025986Y031862D01*
X026041Y031834D01*
X026094Y031803D01*
X026145Y031768D01*
X026194Y031730D01*
X026241Y031689D01*
X026284Y031646D01*
X026325Y031599D01*
X026363Y031550D01*
X026398Y031499D01*
X026429Y031446D01*
X026457Y031391D01*
X026482Y031334D01*
X026503Y031276D01*
X026520Y031217D01*
X026534Y031156D01*
X026543Y031095D01*
X026549Y031034D01*
X026551Y030972D01*
X026551Y001444D01*
X026549Y001382D01*
X026543Y001321D01*
X026534Y001260D01*
X026520Y001199D01*
X026503Y001140D01*
X026482Y001082D01*
X026457Y001025D01*
X026429Y000970D01*
X026398Y000917D01*
X026363Y000866D01*
X026325Y000817D01*
X026284Y000770D01*
X026241Y000727D01*
X026194Y000686D01*
X026145Y000648D01*
X026094Y000613D01*
X026041Y000582D01*
X025986Y000554D01*
X025929Y000529D01*
X025871Y000508D01*
X025812Y000491D01*
X025751Y000477D01*
X025690Y000468D01*
X025629Y000462D01*
X025567Y000460D01*
X001944Y000460D01*
X001882Y000462D01*
X001821Y000468D01*
X001760Y000477D01*
X001699Y000491D01*
X001640Y000508D01*
X001582Y000529D01*
X001525Y000554D01*
X001470Y000582D01*
X001417Y000613D01*
X001366Y000648D01*
X001317Y000686D01*
X001270Y000727D01*
X001227Y000770D01*
X001186Y000817D01*
X001148Y000866D01*
X001113Y000917D01*
X001082Y000970D01*
X001054Y001025D01*
X001029Y001082D01*
X001008Y001140D01*
X000991Y001199D01*
X000977Y001260D01*
X000968Y001321D01*
X000962Y001382D01*
X000960Y001444D01*
X003799Y015619D02*
X003801Y015647D01*
X003807Y015675D01*
X003816Y015701D01*
X003829Y015727D01*
X003845Y015750D01*
X003865Y015770D01*
X003887Y015788D01*
X003911Y015803D01*
X003937Y015814D01*
X003964Y015822D01*
X003992Y015826D01*
X004020Y015826D01*
X004048Y015822D01*
X004075Y015814D01*
X004101Y015803D01*
X004125Y015788D01*
X004147Y015770D01*
X004167Y015750D01*
X004183Y015727D01*
X004196Y015701D01*
X004205Y015675D01*
X004211Y015647D01*
X004213Y015619D01*
X004211Y015591D01*
X004205Y015563D01*
X004196Y015537D01*
X004183Y015511D01*
X004167Y015488D01*
X004147Y015468D01*
X004125Y015450D01*
X004101Y015435D01*
X004075Y015424D01*
X004048Y015416D01*
X004020Y015412D01*
X003992Y015412D01*
X003964Y015416D01*
X003937Y015424D01*
X003911Y015435D01*
X003887Y015450D01*
X003865Y015468D01*
X003845Y015488D01*
X003829Y015511D01*
X003816Y015537D01*
X003807Y015563D01*
X003801Y015591D01*
X003799Y015619D01*
X002800Y016677D02*
X002802Y016701D01*
X002808Y016724D01*
X002817Y016746D01*
X002830Y016766D01*
X002845Y016784D01*
X002864Y016799D01*
X002885Y016811D01*
X002907Y016819D01*
X002930Y016824D01*
X002954Y016825D01*
X002978Y016822D01*
X003000Y016815D01*
X003022Y016805D01*
X003042Y016792D01*
X003059Y016775D01*
X003073Y016756D01*
X003084Y016735D01*
X003092Y016712D01*
X003096Y016689D01*
X003096Y016665D01*
X003092Y016642D01*
X003084Y016619D01*
X003073Y016598D01*
X003059Y016579D01*
X003042Y016562D01*
X003022Y016549D01*
X003000Y016539D01*
X002978Y016532D01*
X002954Y016529D01*
X002930Y016530D01*
X002907Y016535D01*
X002885Y016543D01*
X002864Y016555D01*
X002845Y016570D01*
X002830Y016588D01*
X002817Y016608D01*
X002808Y016630D01*
X002802Y016653D01*
X002800Y016677D01*
X003873Y019712D02*
X003875Y019751D01*
X003881Y019790D01*
X003891Y019828D01*
X003904Y019865D01*
X003921Y019900D01*
X003941Y019934D01*
X003965Y019965D01*
X003992Y019994D01*
X004021Y020020D01*
X004053Y020043D01*
X004087Y020063D01*
X004123Y020079D01*
X004160Y020091D01*
X004199Y020100D01*
X004238Y020105D01*
X004277Y020106D01*
X004316Y020103D01*
X004355Y020096D01*
X004392Y020085D01*
X004429Y020071D01*
X004464Y020053D01*
X004497Y020032D01*
X004528Y020007D01*
X004556Y019980D01*
X004581Y019950D01*
X004603Y019917D01*
X004622Y019883D01*
X004637Y019847D01*
X004649Y019809D01*
X004657Y019771D01*
X004661Y019732D01*
X004661Y019692D01*
X004657Y019653D01*
X004649Y019615D01*
X004637Y019577D01*
X004622Y019541D01*
X004603Y019507D01*
X004581Y019474D01*
X004556Y019444D01*
X004528Y019417D01*
X004497Y019392D01*
X004464Y019371D01*
X004429Y019353D01*
X004392Y019339D01*
X004355Y019328D01*
X004316Y019321D01*
X004277Y019318D01*
X004238Y019319D01*
X004199Y019324D01*
X004160Y019333D01*
X004123Y019345D01*
X004087Y019361D01*
X004053Y019381D01*
X004021Y019404D01*
X003992Y019430D01*
X003965Y019459D01*
X003941Y019490D01*
X003921Y019524D01*
X003904Y019559D01*
X003891Y019596D01*
X003881Y019634D01*
X003875Y019673D01*
X003873Y019712D01*
D11*
X001560Y020160D02*
X025860Y020160D01*
X025860Y022360D01*
X025860Y031660D01*
X004860Y031660D01*
X001560Y031660D01*
X001560Y020160D01*
D12*
X009022Y015823D02*
X009022Y015529D01*
X009022Y015750D02*
X009316Y015750D01*
X009316Y015823D02*
X009169Y015970D01*
X009022Y015823D01*
X009316Y015823D02*
X009316Y015529D01*
X011896Y017650D02*
X011970Y017577D01*
X012190Y017577D01*
X012190Y018017D01*
X011970Y018017D01*
X011896Y017944D01*
X011896Y017870D01*
X011970Y017797D01*
X012190Y017797D01*
X011970Y017797D02*
X011896Y017723D01*
X011896Y017650D01*
D13*
X010745Y016874D02*
X010675Y016804D01*
X010710Y016723D02*
X010570Y016583D01*
X010535Y016618D01*
X010535Y016688D01*
X010570Y016723D01*
X010710Y016723D01*
X010745Y016688D01*
X010745Y016618D01*
X010710Y016583D01*
X010570Y016583D01*
X010535Y016502D02*
X010535Y016362D01*
X010535Y016432D02*
X010745Y016432D01*
X010675Y016362D01*
X010710Y016281D02*
X010745Y016246D01*
X010745Y016176D01*
X010710Y016141D01*
X010675Y016141D01*
X010640Y016176D01*
X010640Y016246D01*
X010605Y016281D01*
X010570Y016281D01*
X010535Y016246D01*
X010535Y016176D01*
X010570Y016141D01*
X010535Y016804D02*
X010535Y016944D01*
X010535Y016874D02*
X010745Y016874D01*
X010630Y014016D02*
X010420Y014016D01*
X010525Y014016D02*
X010525Y013876D01*
X010490Y013795D02*
X010455Y013795D01*
X010420Y013760D01*
X010420Y013690D01*
X010455Y013655D01*
X010525Y013690D02*
X010525Y013760D01*
X010490Y013795D01*
X010595Y013795D02*
X010630Y013760D01*
X010630Y013690D01*
X010595Y013655D01*
X010560Y013655D01*
X010525Y013690D01*
X010525Y013574D02*
X010525Y013434D01*
X010560Y013434D02*
X010630Y013504D01*
X010560Y013574D01*
X010420Y013574D01*
X010420Y013434D02*
X010560Y013434D01*
X010420Y013353D02*
X010420Y013213D01*
X010630Y013213D01*
X010630Y013132D02*
X010630Y012992D01*
X010420Y012992D01*
X010525Y012992D02*
X010525Y013062D01*
X010420Y013876D02*
X010630Y013876D01*
X007895Y014226D02*
X007860Y014191D01*
X007825Y014191D01*
X007790Y014226D01*
X007790Y014296D01*
X007755Y014331D01*
X007720Y014331D01*
X007685Y014296D01*
X007685Y014226D01*
X007720Y014191D01*
X007895Y014226D02*
X007895Y014296D01*
X007860Y014331D01*
X007825Y014412D02*
X007895Y014482D01*
X007685Y014482D01*
X007685Y014412D02*
X007685Y014552D01*
X007720Y014633D02*
X007685Y014668D01*
X007685Y014738D01*
X007720Y014773D01*
X007860Y014773D01*
X007720Y014633D01*
X007860Y014633D01*
X007895Y014668D01*
X007895Y014738D01*
X007860Y014773D01*
X007860Y014854D02*
X007895Y014889D01*
X007895Y014959D01*
X007860Y014994D01*
X007720Y014854D01*
X007685Y014889D01*
X007685Y014959D01*
X007720Y014994D01*
X007860Y014994D01*
X007860Y014854D02*
X007720Y014854D01*
X003439Y019750D02*
X003340Y019750D01*
X003340Y019651D01*
X003191Y019800D01*
X003184Y019693D02*
X003085Y019693D01*
X003233Y019544D01*
X003184Y019495D02*
X003283Y019594D01*
X003439Y019750D02*
X003290Y019899D01*
X003372Y019931D02*
X003372Y019981D01*
X003422Y020030D01*
X003472Y020030D01*
X003496Y020005D01*
X003496Y019956D01*
X003447Y019906D01*
X003447Y019857D01*
X003472Y019832D01*
X003521Y019832D01*
X003571Y019882D01*
X003571Y019931D01*
X003102Y019462D02*
X003102Y019413D01*
X003052Y019363D01*
X003003Y019363D01*
X002904Y019462D01*
X003102Y019462D01*
X003003Y019561D01*
X002953Y019561D01*
X002904Y019512D01*
X002904Y019462D01*
X002846Y019405D02*
X002797Y019405D01*
X002747Y019356D01*
X002747Y019306D01*
X002946Y019306D01*
X002946Y019256D01*
X002896Y019207D01*
X002846Y019207D01*
X002747Y019306D01*
X002846Y019405D02*
X002946Y019306D01*
D14*
X003199Y017818D02*
X001807Y016426D01*
X001807Y015870D01*
X003199Y014478D01*
X003756Y014478D01*
X005148Y015870D01*
X005148Y016426D01*
X003756Y017818D01*
X003199Y017818D01*
X003477Y017562D02*
X003124Y017209D01*
X003477Y016855D02*
X003477Y017562D01*
X003831Y017209D01*
X003756Y016426D02*
X003199Y016426D01*
X003199Y015870D01*
X003756Y015870D01*
X003756Y016426D01*
D15*
X007980Y015147D02*
X007980Y012973D01*
X008769Y012973D01*
X008769Y012810D01*
X009546Y012810D01*
X009546Y012973D01*
X010341Y012973D01*
X010341Y015147D01*
X009686Y015147D01*
X009639Y015194D01*
X008687Y015194D01*
X008640Y015147D01*
X007980Y015147D01*
X008073Y015123D02*
X008073Y014504D01*
X008114Y014487D02*
X008003Y014487D01*
X008114Y014487D02*
X008114Y013639D01*
X008073Y013639D01*
X007997Y013639D01*
X008073Y013639D02*
X008073Y012991D01*
X008511Y014060D02*
X008513Y014110D01*
X008519Y014160D01*
X008528Y014210D01*
X008542Y014258D01*
X008559Y014305D01*
X008580Y014351D01*
X008604Y014395D01*
X008632Y014437D01*
X008663Y014477D01*
X008697Y014514D01*
X008733Y014549D01*
X008772Y014581D01*
X008814Y014609D01*
X008858Y014634D01*
X008903Y014656D01*
X008950Y014674D01*
X008998Y014688D01*
X009047Y014699D01*
X009097Y014706D01*
X009147Y014709D01*
X009198Y014708D01*
X009248Y014703D01*
X009297Y014694D01*
X009346Y014682D01*
X009394Y014665D01*
X009440Y014646D01*
X009484Y014622D01*
X009527Y014595D01*
X009567Y014565D01*
X009605Y014532D01*
X009641Y014496D01*
X009673Y014458D01*
X009702Y014417D01*
X009728Y014374D01*
X009751Y014329D01*
X009770Y014282D01*
X009785Y014234D01*
X009797Y014185D01*
X009805Y014135D01*
X009809Y014085D01*
X009809Y014035D01*
X009805Y013985D01*
X009797Y013935D01*
X009785Y013886D01*
X009770Y013838D01*
X009751Y013791D01*
X009728Y013746D01*
X009702Y013703D01*
X009673Y013662D01*
X009641Y013624D01*
X009605Y013588D01*
X009567Y013555D01*
X009527Y013525D01*
X009485Y013498D01*
X009440Y013474D01*
X009394Y013455D01*
X009346Y013438D01*
X009297Y013426D01*
X009248Y013417D01*
X009198Y013412D01*
X009147Y013411D01*
X009097Y013414D01*
X009047Y013421D01*
X008998Y013432D01*
X008950Y013446D01*
X008903Y013464D01*
X008858Y013486D01*
X008814Y013511D01*
X008772Y013539D01*
X008733Y013571D01*
X008697Y013606D01*
X008663Y013643D01*
X008632Y013683D01*
X008604Y013725D01*
X008580Y013769D01*
X008559Y013815D01*
X008542Y013862D01*
X008528Y013910D01*
X008519Y013960D01*
X008513Y014010D01*
X008511Y014060D01*
X008657Y014060D02*
X008659Y014104D01*
X008665Y014149D01*
X008675Y014192D01*
X008688Y014234D01*
X008705Y014275D01*
X008726Y014315D01*
X008750Y014352D01*
X008778Y014387D01*
X008808Y014420D01*
X008841Y014449D01*
X008877Y014476D01*
X008915Y014499D01*
X008955Y014519D01*
X008996Y014536D01*
X009039Y014548D01*
X009082Y014557D01*
X009127Y014562D01*
X009171Y014563D01*
X009216Y014560D01*
X009259Y014553D01*
X009303Y014542D01*
X009345Y014528D01*
X009385Y014510D01*
X009424Y014488D01*
X009461Y014463D01*
X009495Y014435D01*
X009527Y014404D01*
X009556Y014370D01*
X009582Y014334D01*
X009605Y014295D01*
X009624Y014255D01*
X009639Y014213D01*
X009651Y014170D01*
X009659Y014127D01*
X009663Y014082D01*
X009663Y014038D01*
X009659Y013993D01*
X009651Y013950D01*
X009639Y013907D01*
X009624Y013865D01*
X009605Y013825D01*
X009582Y013786D01*
X009556Y013750D01*
X009527Y013716D01*
X009495Y013685D01*
X009461Y013657D01*
X009424Y013632D01*
X009385Y013610D01*
X009345Y013592D01*
X009303Y013578D01*
X009259Y013567D01*
X009216Y013560D01*
X009171Y013557D01*
X009127Y013558D01*
X009082Y013563D01*
X009039Y013572D01*
X008996Y013584D01*
X008955Y013601D01*
X008915Y013621D01*
X008877Y013644D01*
X008841Y013671D01*
X008808Y013700D01*
X008778Y013733D01*
X008750Y013768D01*
X008726Y013805D01*
X008705Y013845D01*
X008688Y013886D01*
X008675Y013928D01*
X008665Y013971D01*
X008659Y014016D01*
X008657Y014060D01*
X010206Y013639D02*
X010206Y014487D01*
X010317Y014487D01*
X010247Y014504D02*
X010247Y015123D01*
X010830Y014923D02*
X011619Y014923D01*
X011619Y014760D01*
X012396Y014760D01*
X012396Y014923D01*
X013191Y014923D01*
X013191Y017097D01*
X012536Y017097D01*
X012489Y017144D01*
X011537Y017144D01*
X011490Y017097D01*
X010830Y017097D01*
X010830Y014923D01*
X010923Y014941D02*
X010923Y015589D01*
X010847Y015589D01*
X010923Y015589D02*
X010964Y015589D01*
X010964Y016437D01*
X010853Y016437D01*
X010923Y016454D02*
X010923Y017073D01*
X011361Y016010D02*
X011363Y016060D01*
X011369Y016110D01*
X011378Y016160D01*
X011392Y016208D01*
X011409Y016255D01*
X011430Y016301D01*
X011454Y016345D01*
X011482Y016387D01*
X011513Y016427D01*
X011547Y016464D01*
X011583Y016499D01*
X011622Y016531D01*
X011664Y016559D01*
X011708Y016584D01*
X011753Y016606D01*
X011800Y016624D01*
X011848Y016638D01*
X011897Y016649D01*
X011947Y016656D01*
X011997Y016659D01*
X012048Y016658D01*
X012098Y016653D01*
X012147Y016644D01*
X012196Y016632D01*
X012244Y016615D01*
X012290Y016596D01*
X012334Y016572D01*
X012377Y016545D01*
X012417Y016515D01*
X012455Y016482D01*
X012491Y016446D01*
X012523Y016408D01*
X012552Y016367D01*
X012578Y016324D01*
X012601Y016279D01*
X012620Y016232D01*
X012635Y016184D01*
X012647Y016135D01*
X012655Y016085D01*
X012659Y016035D01*
X012659Y015985D01*
X012655Y015935D01*
X012647Y015885D01*
X012635Y015836D01*
X012620Y015788D01*
X012601Y015741D01*
X012578Y015696D01*
X012552Y015653D01*
X012523Y015612D01*
X012491Y015574D01*
X012455Y015538D01*
X012417Y015505D01*
X012377Y015475D01*
X012335Y015448D01*
X012290Y015424D01*
X012244Y015405D01*
X012196Y015388D01*
X012147Y015376D01*
X012098Y015367D01*
X012048Y015362D01*
X011997Y015361D01*
X011947Y015364D01*
X011897Y015371D01*
X011848Y015382D01*
X011800Y015396D01*
X011753Y015414D01*
X011708Y015436D01*
X011664Y015461D01*
X011622Y015489D01*
X011583Y015521D01*
X011547Y015556D01*
X011513Y015593D01*
X011482Y015633D01*
X011454Y015675D01*
X011430Y015719D01*
X011409Y015765D01*
X011392Y015812D01*
X011378Y015860D01*
X011369Y015910D01*
X011363Y015960D01*
X011361Y016010D01*
X011507Y016010D02*
X011509Y016054D01*
X011515Y016099D01*
X011525Y016142D01*
X011538Y016184D01*
X011555Y016225D01*
X011576Y016265D01*
X011600Y016302D01*
X011628Y016337D01*
X011658Y016370D01*
X011691Y016399D01*
X011727Y016426D01*
X011765Y016449D01*
X011805Y016469D01*
X011846Y016486D01*
X011889Y016498D01*
X011932Y016507D01*
X011977Y016512D01*
X012021Y016513D01*
X012066Y016510D01*
X012109Y016503D01*
X012153Y016492D01*
X012195Y016478D01*
X012235Y016460D01*
X012274Y016438D01*
X012311Y016413D01*
X012345Y016385D01*
X012377Y016354D01*
X012406Y016320D01*
X012432Y016284D01*
X012455Y016245D01*
X012474Y016205D01*
X012489Y016163D01*
X012501Y016120D01*
X012509Y016077D01*
X012513Y016032D01*
X012513Y015988D01*
X012509Y015943D01*
X012501Y015900D01*
X012489Y015857D01*
X012474Y015815D01*
X012455Y015775D01*
X012432Y015736D01*
X012406Y015700D01*
X012377Y015666D01*
X012345Y015635D01*
X012311Y015607D01*
X012274Y015582D01*
X012235Y015560D01*
X012195Y015542D01*
X012153Y015528D01*
X012109Y015517D01*
X012066Y015510D01*
X012021Y015507D01*
X011977Y015508D01*
X011932Y015513D01*
X011889Y015522D01*
X011846Y015534D01*
X011805Y015551D01*
X011765Y015571D01*
X011727Y015594D01*
X011691Y015621D01*
X011658Y015650D01*
X011628Y015683D01*
X011600Y015718D01*
X011576Y015755D01*
X011555Y015795D01*
X011538Y015836D01*
X011525Y015878D01*
X011515Y015921D01*
X011509Y015966D01*
X011507Y016010D01*
X013056Y015589D02*
X013056Y016437D01*
X013167Y016437D01*
X013097Y016454D02*
X013097Y017073D01*
X013097Y015589D02*
X013173Y015589D01*
X013097Y015589D02*
X013056Y015589D01*
X013097Y015589D02*
X013097Y014941D01*
X010323Y013639D02*
X010247Y013639D01*
X010206Y013639D01*
X010247Y013639D02*
X010247Y012991D01*
D16*
X008351Y015261D03*
X011201Y017211D03*
D17*
X012817Y017214D03*
X009967Y015264D03*
D18*
X011201Y014806D03*
X008351Y012856D03*
D19*
X009157Y012777D03*
X012007Y014727D03*
D20*
X012814Y014809D03*
X009964Y012859D03*
M02*
