G75*
%MOIN*%
%OFA0B0*%
%FSLAX24Y24*%
%IPPOS*%
%LPD*%
%AMOC8*
5,1,8,0,0,1.08239X$1,22.5*
%
%ADD10C,0.0000*%
%ADD11C,0.0787*%
%ADD12C,0.0080*%
%ADD13R,0.0157X0.0413*%
%ADD14R,0.0197X0.0197*%
%ADD15R,0.1181X0.1181*%
%ADD16R,0.0413X0.0157*%
%ADD17R,0.0453X0.0827*%
%ADD18R,0.0177X0.0906*%
%ADD19R,0.0935X0.0748*%
%ADD20R,0.0581X0.0827*%
%ADD21R,0.0591X0.0512*%
%ADD22R,0.0394X0.0709*%
%ADD23R,0.0248X0.0327*%
%ADD24R,0.0315X0.0354*%
%ADD25R,0.0394X0.0433*%
%ADD26R,0.0433X0.0394*%
%ADD27R,0.0276X0.0276*%
%ADD28R,0.0327X0.0248*%
%ADD29R,0.0512X0.0591*%
%ADD30R,0.1181X0.1063*%
%ADD31R,0.0472X0.0118*%
%ADD32R,0.0472X0.0787*%
%ADD33R,0.0315X0.0551*%
%ADD34C,0.0600*%
%ADD35R,0.0320X0.0550*%
%ADD36R,0.0480X0.0880*%
%ADD37R,0.1417X0.0866*%
%ADD38C,0.0413*%
%ADD39C,0.0295*%
%ADD40R,0.0500X0.0250*%
%ADD41R,0.0551X0.0630*%
%ADD42R,0.0591X0.0591*%
%ADD43R,0.0551X0.0709*%
%ADD44R,0.0748X0.0551*%
%ADD45R,0.0591X0.0315*%
%ADD46C,0.0118*%
%ADD47C,0.0050*%
%ADD48R,0.0354X0.0551*%
%ADD49R,0.0551X0.0354*%
%ADD50R,0.2362X0.2362*%
%ADD51C,0.0740*%
D10*
X000960Y001444D02*
X000960Y030972D01*
X000962Y031034D01*
X000968Y031095D01*
X000977Y031156D01*
X000991Y031217D01*
X001008Y031276D01*
X001029Y031334D01*
X001054Y031391D01*
X001082Y031446D01*
X001113Y031499D01*
X001148Y031550D01*
X001186Y031599D01*
X001227Y031646D01*
X001270Y031689D01*
X001317Y031730D01*
X001366Y031768D01*
X001417Y031803D01*
X001470Y031834D01*
X001525Y031862D01*
X001582Y031887D01*
X001640Y031908D01*
X001699Y031925D01*
X001760Y031939D01*
X001821Y031948D01*
X001882Y031954D01*
X001944Y031956D01*
X025567Y031956D01*
X025629Y031954D01*
X025690Y031948D01*
X025751Y031939D01*
X025812Y031925D01*
X025871Y031908D01*
X025929Y031887D01*
X025986Y031862D01*
X026041Y031834D01*
X026094Y031803D01*
X026145Y031768D01*
X026194Y031730D01*
X026241Y031689D01*
X026284Y031646D01*
X026325Y031599D01*
X026363Y031550D01*
X026398Y031499D01*
X026429Y031446D01*
X026457Y031391D01*
X026482Y031334D01*
X026503Y031276D01*
X026520Y031217D01*
X026534Y031156D01*
X026543Y031095D01*
X026549Y031034D01*
X026551Y030972D01*
X026551Y001444D01*
X026549Y001382D01*
X026543Y001321D01*
X026534Y001260D01*
X026520Y001199D01*
X026503Y001140D01*
X026482Y001082D01*
X026457Y001025D01*
X026429Y000970D01*
X026398Y000917D01*
X026363Y000866D01*
X026325Y000817D01*
X026284Y000770D01*
X026241Y000727D01*
X026194Y000686D01*
X026145Y000648D01*
X026094Y000613D01*
X026041Y000582D01*
X025986Y000554D01*
X025929Y000529D01*
X025871Y000508D01*
X025812Y000491D01*
X025751Y000477D01*
X025690Y000468D01*
X025629Y000462D01*
X025567Y000460D01*
X001944Y000460D01*
X001882Y000462D01*
X001821Y000468D01*
X001760Y000477D01*
X001699Y000491D01*
X001640Y000508D01*
X001582Y000529D01*
X001525Y000554D01*
X001470Y000582D01*
X001417Y000613D01*
X001366Y000648D01*
X001317Y000686D01*
X001270Y000727D01*
X001227Y000770D01*
X001186Y000817D01*
X001148Y000866D01*
X001113Y000917D01*
X001082Y000970D01*
X001054Y001025D01*
X001029Y001082D01*
X001008Y001140D01*
X000991Y001199D01*
X000977Y001260D01*
X000968Y001321D01*
X000962Y001382D01*
X000960Y001444D01*
X003799Y015619D02*
X003801Y015647D01*
X003807Y015675D01*
X003816Y015701D01*
X003829Y015727D01*
X003845Y015750D01*
X003865Y015770D01*
X003887Y015788D01*
X003911Y015803D01*
X003937Y015814D01*
X003964Y015822D01*
X003992Y015826D01*
X004020Y015826D01*
X004048Y015822D01*
X004075Y015814D01*
X004101Y015803D01*
X004125Y015788D01*
X004147Y015770D01*
X004167Y015750D01*
X004183Y015727D01*
X004196Y015701D01*
X004205Y015675D01*
X004211Y015647D01*
X004213Y015619D01*
X004211Y015591D01*
X004205Y015563D01*
X004196Y015537D01*
X004183Y015511D01*
X004167Y015488D01*
X004147Y015468D01*
X004125Y015450D01*
X004101Y015435D01*
X004075Y015424D01*
X004048Y015416D01*
X004020Y015412D01*
X003992Y015412D01*
X003964Y015416D01*
X003937Y015424D01*
X003911Y015435D01*
X003887Y015450D01*
X003865Y015468D01*
X003845Y015488D01*
X003829Y015511D01*
X003816Y015537D01*
X003807Y015563D01*
X003801Y015591D01*
X003799Y015619D01*
X002800Y016677D02*
X002802Y016701D01*
X002808Y016724D01*
X002817Y016746D01*
X002830Y016766D01*
X002845Y016784D01*
X002864Y016799D01*
X002885Y016811D01*
X002907Y016819D01*
X002930Y016824D01*
X002954Y016825D01*
X002978Y016822D01*
X003000Y016815D01*
X003022Y016805D01*
X003042Y016792D01*
X003059Y016775D01*
X003073Y016756D01*
X003084Y016735D01*
X003092Y016712D01*
X003096Y016689D01*
X003096Y016665D01*
X003092Y016642D01*
X003084Y016619D01*
X003073Y016598D01*
X003059Y016579D01*
X003042Y016562D01*
X003022Y016549D01*
X003000Y016539D01*
X002978Y016532D01*
X002954Y016529D01*
X002930Y016530D01*
X002907Y016535D01*
X002885Y016543D01*
X002864Y016555D01*
X002845Y016570D01*
X002830Y016588D01*
X002817Y016608D01*
X002808Y016630D01*
X002802Y016653D01*
X002800Y016677D01*
X003873Y019712D02*
X003875Y019751D01*
X003881Y019790D01*
X003891Y019828D01*
X003904Y019865D01*
X003921Y019900D01*
X003941Y019934D01*
X003965Y019965D01*
X003992Y019994D01*
X004021Y020020D01*
X004053Y020043D01*
X004087Y020063D01*
X004123Y020079D01*
X004160Y020091D01*
X004199Y020100D01*
X004238Y020105D01*
X004277Y020106D01*
X004316Y020103D01*
X004355Y020096D01*
X004392Y020085D01*
X004429Y020071D01*
X004464Y020053D01*
X004497Y020032D01*
X004528Y020007D01*
X004556Y019980D01*
X004581Y019950D01*
X004603Y019917D01*
X004622Y019883D01*
X004637Y019847D01*
X004649Y019809D01*
X004657Y019771D01*
X004661Y019732D01*
X004661Y019692D01*
X004657Y019653D01*
X004649Y019615D01*
X004637Y019577D01*
X004622Y019541D01*
X004603Y019507D01*
X004581Y019474D01*
X004556Y019444D01*
X004528Y019417D01*
X004497Y019392D01*
X004464Y019371D01*
X004429Y019353D01*
X004392Y019339D01*
X004355Y019328D01*
X004316Y019321D01*
X004277Y019318D01*
X004238Y019319D01*
X004199Y019324D01*
X004160Y019333D01*
X004123Y019345D01*
X004087Y019361D01*
X004053Y019381D01*
X004021Y019404D01*
X003992Y019430D01*
X003965Y019459D01*
X003941Y019490D01*
X003921Y019524D01*
X003904Y019559D01*
X003891Y019596D01*
X003881Y019634D01*
X003875Y019673D01*
X003873Y019712D01*
D11*
X004267Y019712D03*
D12*
X004175Y001353D02*
X004175Y000933D01*
X004175Y001073D02*
X004385Y001213D01*
X004558Y001213D02*
X004558Y001003D01*
X004628Y000933D01*
X004839Y000933D01*
X004839Y001213D01*
X005019Y001143D02*
X005089Y001213D01*
X005299Y001213D01*
X005229Y001073D02*
X005089Y001073D01*
X005019Y001143D01*
X005019Y000933D02*
X005229Y000933D01*
X005299Y001003D01*
X005229Y001073D01*
X005479Y001143D02*
X005689Y001143D01*
X005759Y001073D01*
X005759Y001003D01*
X005689Y000933D01*
X005479Y000933D01*
X005479Y001353D01*
X005689Y001353D01*
X005759Y001283D01*
X005759Y001213D01*
X005689Y001143D01*
X005940Y001143D02*
X006010Y001213D01*
X006150Y001213D01*
X006220Y001143D01*
X006220Y001073D01*
X005940Y001073D01*
X005940Y001003D02*
X005940Y001143D01*
X005940Y001003D02*
X006010Y000933D01*
X006150Y000933D01*
X006400Y001003D02*
X006470Y000933D01*
X006680Y000933D01*
X006680Y001213D02*
X006470Y001213D01*
X006400Y001143D01*
X006400Y001003D01*
X004385Y000933D02*
X004175Y001073D01*
X004001Y001213D02*
X003931Y001213D01*
X003791Y001073D01*
X003791Y000933D02*
X003791Y001213D01*
X003611Y001143D02*
X003611Y000933D01*
X003401Y000933D01*
X003331Y001003D01*
X003401Y001073D01*
X003611Y001073D01*
X003611Y001143D02*
X003541Y001213D01*
X003401Y001213D01*
X003151Y001353D02*
X003151Y000933D01*
X002870Y000933D02*
X002870Y001353D01*
X003010Y001213D01*
X003151Y001353D01*
D13*
X013270Y025966D03*
X013467Y025966D03*
X013663Y025966D03*
X013860Y025966D03*
X014057Y025966D03*
X014254Y025966D03*
X014451Y025966D03*
X014451Y027954D03*
X014254Y027954D03*
X014057Y027954D03*
X013860Y027954D03*
X013663Y027954D03*
X013467Y027954D03*
X013270Y027954D03*
D14*
X014688Y027788D03*
D15*
X013860Y026960D03*
D16*
X012866Y026960D03*
X012866Y027157D03*
X012866Y027354D03*
X012866Y027551D03*
X012866Y026763D03*
X012866Y026566D03*
X012866Y026369D03*
X014854Y026369D03*
X014854Y026566D03*
X014854Y026763D03*
X014854Y026960D03*
X014854Y027157D03*
X014854Y027354D03*
X014854Y027551D03*
D17*
X014061Y031360D03*
X013450Y031360D03*
D18*
X013500Y030140D03*
X013756Y030140D03*
X014011Y030140D03*
X014267Y030140D03*
X013244Y030140D03*
D19*
X012594Y031360D03*
X014917Y031360D03*
D20*
X014740Y030454D03*
X012771Y030454D03*
D21*
X018060Y029534D03*
X018060Y028786D03*
X018960Y028786D03*
X018960Y029534D03*
X023210Y029434D03*
X023210Y028686D03*
D22*
X015911Y029360D03*
X014809Y029360D03*
D23*
X014907Y028660D03*
X015813Y028660D03*
D24*
X013160Y025193D03*
X012786Y024366D03*
X013534Y024366D03*
X014286Y024254D03*
X015034Y024254D03*
X014660Y023427D03*
D25*
X014326Y022760D03*
X014995Y022760D03*
X013495Y022760D03*
X012826Y022760D03*
X012826Y023760D03*
X013495Y023760D03*
X014326Y024960D03*
X014995Y024960D03*
X015876Y026060D03*
X016545Y026060D03*
X016545Y028010D03*
X015876Y028010D03*
X013010Y028625D03*
X013010Y029295D03*
X019660Y029545D03*
X019660Y028875D03*
X023910Y028725D03*
X023910Y029395D03*
X019560Y022945D03*
X019560Y022275D03*
X005710Y026225D03*
X005710Y026895D03*
X004595Y020478D03*
X003926Y020478D03*
X004784Y005466D03*
X004784Y004797D03*
X005784Y004797D03*
X005784Y005466D03*
X012460Y003795D03*
X012460Y003125D03*
D26*
X011760Y003125D03*
X011760Y003795D03*
X010760Y003795D03*
X010760Y003125D03*
X009760Y003125D03*
X009760Y003795D03*
X008760Y003795D03*
X008760Y003125D03*
X007760Y003125D03*
X007760Y003795D03*
X006760Y003795D03*
X006760Y003125D03*
X002772Y003471D03*
X002103Y003471D03*
X007321Y023204D03*
X007321Y023873D03*
X007226Y026260D03*
X007895Y026260D03*
X007845Y028460D03*
X007176Y028460D03*
X004695Y028660D03*
X004026Y028660D03*
X004026Y027960D03*
X004695Y027960D03*
X004695Y027260D03*
X004026Y027260D03*
X004026Y024860D03*
X004695Y024860D03*
X004695Y024160D03*
X004026Y024160D03*
X011610Y026675D03*
X011610Y027345D03*
X011676Y027960D03*
X012345Y027960D03*
X012310Y027345D03*
X012310Y026675D03*
X019560Y021745D03*
X019560Y021075D03*
X024476Y025510D03*
X025145Y025510D03*
D27*
X006516Y023364D03*
X006004Y023364D03*
X006260Y024092D03*
D28*
X006460Y026157D03*
X006460Y027063D03*
X007160Y026957D03*
X007960Y026957D03*
X007960Y027863D03*
X007160Y027863D03*
D29*
X008186Y025160D03*
X008934Y025160D03*
X011636Y028660D03*
X012384Y028660D03*
X002811Y005021D03*
X002063Y005021D03*
X002063Y004271D03*
X002811Y004271D03*
D30*
X002017Y022836D03*
X002017Y028884D03*
D31*
X002796Y028124D03*
X002796Y027927D03*
X002796Y027730D03*
X002796Y027533D03*
X002796Y027336D03*
X002796Y027140D03*
X002796Y026943D03*
X002796Y026746D03*
X002796Y026549D03*
X002796Y026352D03*
X002796Y026155D03*
X002796Y025958D03*
X002796Y025762D03*
X002796Y025565D03*
X002796Y025368D03*
X002796Y025171D03*
X002796Y024974D03*
X002796Y024777D03*
X002796Y024580D03*
X002796Y024384D03*
X002796Y024187D03*
X002796Y023990D03*
X002796Y023793D03*
X002796Y023596D03*
D32*
X005880Y025160D03*
X007140Y025160D03*
D33*
X020720Y029530D03*
X021900Y029530D03*
D34*
X021410Y030262D02*
X021210Y030262D01*
X021210Y031098D01*
X021410Y031098D01*
X021410Y030262D01*
X021410Y030861D02*
X021210Y030861D01*
D35*
X021310Y029530D03*
D36*
X021310Y028330D03*
X020400Y028330D03*
X022220Y028330D03*
D37*
X021310Y025890D03*
D38*
X004006Y015619D03*
D39*
X002948Y016677D03*
D40*
X002760Y019960D03*
X002760Y020360D03*
X005760Y020360D03*
X005760Y019960D03*
X006760Y019960D03*
X006760Y020360D03*
X007760Y020360D03*
X007760Y019960D03*
X008760Y019960D03*
X008760Y020360D03*
X009760Y020360D03*
X009760Y019960D03*
X010760Y019960D03*
X010760Y020360D03*
X010760Y005060D03*
X010760Y004660D03*
X009760Y004660D03*
X009760Y005060D03*
X008760Y005060D03*
X008760Y004660D03*
X007760Y004660D03*
X007760Y005060D03*
X006760Y005060D03*
X006760Y004660D03*
X011760Y004660D03*
X011760Y005060D03*
D41*
X012046Y022056D03*
X010274Y022056D03*
X010274Y025364D03*
X011160Y025364D03*
X012046Y025364D03*
D42*
X004951Y019705D03*
X003573Y019705D03*
D43*
X020418Y020267D03*
X020418Y022511D03*
D44*
X025595Y019637D03*
X025989Y024814D03*
D45*
X024473Y022980D03*
X024315Y022547D03*
X024473Y022114D03*
X024552Y021680D03*
X024473Y021247D03*
X024552Y020814D03*
X024473Y020381D03*
X024473Y019948D03*
D46*
X016694Y026622D02*
X016694Y026898D01*
X016694Y026622D02*
X016418Y026622D01*
X016418Y026898D01*
X016694Y026898D01*
X016694Y026739D02*
X016418Y026739D01*
X016418Y026856D02*
X016694Y026856D01*
X016694Y027222D02*
X016694Y027498D01*
X016694Y027222D02*
X016418Y027222D01*
X016418Y027498D01*
X016694Y027498D01*
X016694Y027339D02*
X016418Y027339D01*
X016418Y027456D02*
X016694Y027456D01*
X016003Y027498D02*
X016003Y027222D01*
X015727Y027222D01*
X015727Y027498D01*
X016003Y027498D01*
X016003Y027339D02*
X015727Y027339D01*
X015727Y027456D02*
X016003Y027456D01*
X016003Y026898D02*
X016003Y026622D01*
X015727Y026622D01*
X015727Y026898D01*
X016003Y026898D01*
X016003Y026739D02*
X015727Y026739D01*
X015727Y026856D02*
X016003Y026856D01*
X011098Y026803D02*
X010822Y026803D01*
X011098Y026803D02*
X011098Y026527D01*
X010822Y026527D01*
X010822Y026803D01*
X010822Y026644D02*
X011098Y026644D01*
X011098Y026761D02*
X010822Y026761D01*
X010822Y027493D02*
X011098Y027493D01*
X011098Y027217D01*
X010822Y027217D01*
X010822Y027493D01*
X010822Y027334D02*
X011098Y027334D01*
X011098Y027451D02*
X010822Y027451D01*
D47*
X011652Y029224D02*
X011719Y029206D01*
X011787Y029200D01*
X011855Y029206D01*
X011922Y029224D01*
X011984Y029253D01*
X012040Y029292D01*
X012089Y029341D01*
X012128Y029397D01*
X012157Y029459D01*
X012175Y029525D01*
X012181Y029594D01*
X012175Y029662D01*
X012157Y029729D01*
X012128Y029791D01*
X012089Y029847D01*
X012040Y029895D01*
X011984Y029935D01*
X011922Y029964D01*
X011855Y029982D01*
X011787Y029988D01*
X011719Y029982D01*
X011652Y029964D01*
X011590Y029935D01*
X011534Y029895D01*
X011485Y029847D01*
X011446Y029791D01*
X011417Y029729D01*
X011399Y029662D01*
X011393Y029594D01*
X011399Y029525D01*
X011417Y029459D01*
X011446Y029397D01*
X011485Y029341D01*
X011534Y029292D01*
X011590Y029253D01*
X011652Y029224D01*
X011664Y029221D02*
X011910Y029221D01*
X012007Y029269D02*
X011567Y029269D01*
X011509Y029318D02*
X012065Y029318D01*
X012106Y029366D02*
X011468Y029366D01*
X011438Y029415D02*
X012136Y029415D01*
X012158Y029463D02*
X011416Y029463D01*
X011403Y029512D02*
X012171Y029512D01*
X012178Y029560D02*
X011396Y029560D01*
X011395Y029609D02*
X012179Y029609D01*
X012175Y029657D02*
X011399Y029657D01*
X011411Y029706D02*
X012163Y029706D01*
X012145Y029754D02*
X011429Y029754D01*
X011454Y029803D02*
X012120Y029803D01*
X012084Y029851D02*
X011490Y029851D01*
X011540Y029900D02*
X012034Y029900D01*
X011955Y029948D02*
X011619Y029948D01*
X015471Y025565D02*
X015422Y025516D01*
X015383Y025460D01*
X015354Y025398D01*
X015336Y025332D01*
X015330Y025263D01*
X015336Y025195D01*
X016112Y025195D01*
X016118Y025263D01*
X016112Y025332D01*
X016094Y025398D01*
X016065Y025460D01*
X016026Y025516D01*
X015977Y025565D01*
X015921Y025604D01*
X015859Y025633D01*
X015792Y025651D01*
X015724Y025657D01*
X015656Y025651D01*
X015589Y025633D01*
X015527Y025604D01*
X015471Y025565D01*
X015497Y025583D02*
X015951Y025583D01*
X016007Y025535D02*
X015441Y025535D01*
X015401Y025486D02*
X016047Y025486D01*
X016075Y025438D02*
X015373Y025438D01*
X015352Y025389D02*
X016096Y025389D01*
X016109Y025341D02*
X015339Y025341D01*
X015333Y025292D02*
X016115Y025292D01*
X016116Y025244D02*
X015332Y025244D01*
X015336Y025195D02*
X015354Y025128D01*
X015383Y025066D01*
X015422Y025010D01*
X015471Y024962D01*
X015527Y024922D01*
X015589Y024893D01*
X015656Y024875D01*
X015724Y024869D01*
X015792Y024875D01*
X015859Y024893D01*
X015921Y024922D01*
X015977Y024962D01*
X016026Y025010D01*
X016065Y025066D01*
X016094Y025128D01*
X016112Y025195D01*
X016099Y025147D02*
X015349Y025147D01*
X015368Y025098D02*
X016080Y025098D01*
X016053Y025050D02*
X015395Y025050D01*
X015431Y025001D02*
X016017Y025001D01*
X015964Y024953D02*
X015484Y024953D01*
X015566Y024904D02*
X015882Y024904D01*
X015862Y025632D02*
X015586Y025632D01*
X025226Y030775D02*
X025265Y030719D01*
X025313Y030670D01*
X025370Y030631D01*
X025432Y030602D01*
X025498Y030584D01*
X025567Y030578D01*
X025635Y030584D01*
X025701Y030602D01*
X025763Y030631D01*
X025820Y030670D01*
X025868Y030719D01*
X025907Y030775D01*
X025936Y030837D01*
X025954Y030903D01*
X025960Y030972D01*
X025954Y031040D01*
X025936Y031106D01*
X025907Y031169D01*
X025868Y031225D01*
X025820Y031273D01*
X025763Y031313D01*
X025701Y031342D01*
X025635Y031360D01*
X025567Y031366D01*
X025498Y031360D01*
X025432Y031342D01*
X025370Y031313D01*
X025313Y031273D01*
X025265Y031225D01*
X025226Y031169D01*
X025197Y031106D01*
X025179Y031040D01*
X025173Y030972D01*
X025179Y030903D01*
X025197Y030837D01*
X025226Y030775D01*
X025227Y030773D02*
X025906Y030773D01*
X025929Y030821D02*
X025204Y030821D01*
X025188Y030870D02*
X025945Y030870D01*
X025956Y030918D02*
X025178Y030918D01*
X025173Y030967D02*
X025960Y030967D01*
X025956Y031015D02*
X025177Y031015D01*
X025185Y031064D02*
X025948Y031064D01*
X025934Y031112D02*
X025199Y031112D01*
X025222Y031161D02*
X025911Y031161D01*
X025879Y031209D02*
X025254Y031209D01*
X025298Y031258D02*
X025835Y031258D01*
X025773Y031306D02*
X025360Y031306D01*
X025480Y031355D02*
X025653Y031355D01*
X025872Y030724D02*
X025261Y030724D01*
X025308Y030676D02*
X025825Y030676D01*
X025755Y030627D02*
X025378Y030627D01*
X025560Y030579D02*
X025573Y030579D01*
X002338Y030972D02*
X002332Y031040D01*
X002314Y031106D01*
X002285Y031169D01*
X002246Y031225D01*
X002198Y031273D01*
X002141Y031313D01*
X002079Y031342D01*
X002013Y031360D01*
X001944Y031366D01*
X001876Y031360D01*
X001810Y031342D01*
X001748Y031313D01*
X001691Y031273D01*
X001643Y031225D01*
X001604Y031169D01*
X001575Y031106D01*
X001557Y031040D01*
X001551Y030972D01*
X001557Y030903D01*
X001575Y030837D01*
X001604Y030775D01*
X001643Y030719D01*
X001691Y030670D01*
X001748Y030631D01*
X001810Y030602D01*
X001876Y030584D01*
X001944Y030578D01*
X002013Y030584D01*
X002079Y030602D01*
X002141Y030631D01*
X002198Y030670D01*
X002246Y030719D01*
X002285Y030775D01*
X002314Y030837D01*
X002332Y030903D01*
X002338Y030972D01*
X002338Y030967D02*
X001551Y030967D01*
X001555Y031015D02*
X002334Y031015D01*
X002326Y031064D02*
X001563Y031064D01*
X001577Y031112D02*
X002312Y031112D01*
X002289Y031161D02*
X001600Y031161D01*
X001632Y031209D02*
X002257Y031209D01*
X002213Y031258D02*
X001676Y031258D01*
X001738Y031306D02*
X002151Y031306D01*
X002031Y031355D02*
X001858Y031355D01*
X001555Y030918D02*
X002333Y030918D01*
X002323Y030870D02*
X001566Y030870D01*
X001582Y030821D02*
X002307Y030821D01*
X002284Y030773D02*
X001605Y030773D01*
X001639Y030724D02*
X002250Y030724D01*
X002203Y030676D02*
X001686Y030676D01*
X001756Y030627D02*
X002133Y030627D01*
X001951Y030579D02*
X001938Y030579D01*
X001944Y001838D02*
X001876Y001832D01*
X001810Y001814D01*
X001748Y001785D01*
X001691Y001746D01*
X001643Y001697D01*
X001604Y001641D01*
X001575Y001579D01*
X001557Y001513D01*
X001551Y001444D01*
X001557Y001376D01*
X001575Y001310D01*
X001604Y001247D01*
X001643Y001191D01*
X001691Y001143D01*
X001748Y001103D01*
X001810Y001074D01*
X001876Y001057D01*
X001944Y001051D01*
X002013Y001057D01*
X002079Y001074D01*
X002141Y001103D01*
X002198Y001143D01*
X002246Y001191D01*
X002285Y001247D01*
X002314Y001310D01*
X002332Y001376D01*
X002338Y001444D01*
X002332Y001513D01*
X002314Y001579D01*
X002285Y001641D01*
X002246Y001697D01*
X002198Y001746D01*
X002141Y001785D01*
X002079Y001814D01*
X002013Y001832D01*
X001944Y001838D01*
X001824Y001818D02*
X002065Y001818D01*
X002164Y001770D02*
X001725Y001770D01*
X001667Y001721D02*
X002222Y001721D01*
X002263Y001673D02*
X001626Y001673D01*
X001596Y001624D02*
X002293Y001624D01*
X002315Y001576D02*
X001574Y001576D01*
X001561Y001527D02*
X002328Y001527D01*
X002335Y001479D02*
X001554Y001479D01*
X001552Y001430D02*
X002337Y001430D01*
X002333Y001382D02*
X001556Y001382D01*
X001568Y001333D02*
X002321Y001333D01*
X002303Y001285D02*
X001586Y001285D01*
X001612Y001236D02*
X002277Y001236D01*
X002242Y001188D02*
X001647Y001188D01*
X001697Y001139D02*
X002192Y001139D01*
X002114Y001091D02*
X001775Y001091D01*
D48*
X004074Y008917D03*
X004574Y008917D03*
X005074Y008917D03*
X005574Y008917D03*
X006074Y008917D03*
X006574Y008917D03*
X007074Y008917D03*
X007574Y008917D03*
X008074Y008917D03*
X008574Y008917D03*
X009074Y008917D03*
X009574Y008917D03*
X010074Y008917D03*
X010574Y008917D03*
X010574Y016279D03*
X010074Y016279D03*
X009574Y016279D03*
X009074Y016279D03*
X008574Y016279D03*
X008074Y016279D03*
X007574Y016279D03*
X007074Y016279D03*
X006574Y016279D03*
X006074Y016279D03*
X005574Y016279D03*
X005074Y016279D03*
X004574Y016279D03*
X004074Y016279D03*
D49*
X011283Y014846D03*
X011283Y014346D03*
X011283Y013846D03*
X011283Y013346D03*
X011283Y012846D03*
X011283Y012346D03*
X011283Y011846D03*
X011283Y011346D03*
X011283Y010846D03*
X011283Y010346D03*
D50*
X007102Y012547D03*
D51*
X007779Y006612D03*
X008779Y006512D03*
X009779Y006612D03*
X010779Y006512D03*
X011779Y006612D03*
X012779Y006512D03*
X013779Y006612D03*
X014779Y006512D03*
X014769Y007562D03*
X014869Y008562D03*
X014769Y009562D03*
X014869Y010562D03*
X014769Y011562D03*
X014869Y012562D03*
X014769Y013562D03*
X014869Y014562D03*
X014769Y015562D03*
X014869Y016562D03*
X014787Y018520D03*
X013787Y018620D03*
X012787Y018520D03*
X011787Y018620D03*
X010787Y018520D03*
X009787Y018620D03*
X008787Y018520D03*
X007787Y018620D03*
X006787Y018520D03*
X005787Y018620D03*
X004787Y018520D03*
X003787Y018620D03*
X002787Y018520D03*
X001787Y018620D03*
X001779Y006612D03*
X002779Y006512D03*
X003779Y006612D03*
X004779Y006512D03*
X005779Y006612D03*
X006779Y006512D03*
M02*
