G75*
%MOIN*%
%OFA0B0*%
%FSLAX24Y24*%
%IPPOS*%
%LPD*%
%AMOC8*
5,1,8,0,0,1.08239X$1,22.5*
%
%ADD10C,0.0160*%
%ADD11C,0.0080*%
%ADD12C,0.0090*%
%ADD13R,0.0827X0.0866*%
%ADD14C,0.0110*%
%ADD15R,0.0111X0.0016*%
%ADD16R,0.0175X0.0016*%
%ADD17R,0.0254X0.0016*%
%ADD18R,0.0333X0.0016*%
%ADD19R,0.0428X0.0016*%
%ADD20R,0.0492X0.0016*%
%ADD21R,0.0571X0.0016*%
%ADD22R,0.0666X0.0016*%
%ADD23R,0.0762X0.0016*%
%ADD24R,0.0841X0.0016*%
%ADD25R,0.0920X0.0016*%
%ADD26R,0.1015X0.0016*%
%ADD27R,0.1031X0.0016*%
%ADD28R,0.1063X0.0016*%
%ADD29R,0.1047X0.0016*%
%ADD30R,0.1079X0.0016*%
%ADD31R,0.1079X0.0016*%
%ADD32R,0.1095X0.0016*%
%ADD33R,0.1111X0.0016*%
%ADD34R,0.1126X0.0016*%
%ADD35R,0.1142X0.0016*%
%ADD36R,0.1174X0.0016*%
%ADD37R,0.0317X0.0016*%
%ADD38R,0.1190X0.0016*%
%ADD39R,0.0349X0.0016*%
%ADD40R,0.1206X0.0016*%
%ADD41R,0.1222X0.0016*%
%ADD42R,0.0333X0.0016*%
%ADD43R,0.0048X0.0016*%
%ADD44R,0.1253X0.0016*%
%ADD45R,0.0349X0.0016*%
%ADD46R,0.0286X0.0016*%
%ADD47R,0.1285X0.0016*%
%ADD48R,0.0333X0.0016*%
%ADD49R,0.0460X0.0016*%
%ADD50R,0.1317X0.0016*%
%ADD51R,0.0809X0.0016*%
%ADD52R,0.1349X0.0016*%
%ADD53R,0.0682X0.0016*%
%ADD54R,0.1428X0.0016*%
%ADD55R,0.0635X0.0016*%
%ADD56R,0.1460X0.0016*%
%ADD57R,0.0666X0.0016*%
%ADD58R,0.1555X0.0016*%
%ADD59R,0.0825X0.0016*%
%ADD60R,0.1714X0.0016*%
%ADD61R,0.1063X0.0016*%
%ADD62R,0.1920X0.0016*%
%ADD63R,0.0968X0.0016*%
%ADD64R,0.3443X0.0016*%
%ADD65R,0.3078X0.0016*%
%ADD66R,0.2634X0.0016*%
%ADD67R,0.2142X0.0016*%
%ADD68R,0.1460X0.0016*%
%ADD69R,0.0238X0.0016*%
%ADD70R,0.0254X0.0016*%
%ADD71R,0.0666X0.0016*%
%ADD72R,0.0381X0.0016*%
%ADD73R,0.0365X0.0016*%
%ADD74R,0.0301X0.0016*%
%ADD75R,0.0317X0.0016*%
%ADD76R,0.0190X0.0016*%
%ADD77R,0.0809X0.0016*%
%ADD78R,0.0413X0.0016*%
%ADD79R,0.0365X0.0016*%
%ADD80R,0.0857X0.0016*%
%ADD81R,0.0397X0.0016*%
%ADD82R,0.0476X0.0016*%
%ADD83R,0.0476X0.0016*%
%ADD84R,0.0889X0.0016*%
%ADD85R,0.0508X0.0016*%
%ADD86R,0.0381X0.0016*%
%ADD87R,0.0555X0.0016*%
%ADD88R,0.0904X0.0016*%
%ADD89R,0.0539X0.0016*%
%ADD90R,0.0936X0.0016*%
%ADD91R,0.0428X0.0016*%
%ADD92R,0.0397X0.0016*%
%ADD93R,0.0682X0.0016*%
%ADD94R,0.0952X0.0016*%
%ADD95R,0.0904X0.0016*%
%ADD96R,0.0730X0.0016*%
%ADD97R,0.0968X0.0016*%
%ADD98R,0.0444X0.0016*%
%ADD99R,0.0777X0.0016*%
%ADD100R,0.0984X0.0016*%
%ADD101R,0.0444X0.0016*%
%ADD102R,0.0444X0.0016*%
%ADD103R,0.0825X0.0016*%
%ADD104R,0.1000X0.0016*%
%ADD105R,0.0873X0.0016*%
%ADD106R,0.0460X0.0016*%
%ADD107R,0.1031X0.0016*%
%ADD108R,0.0016X0.0016*%
%ADD109R,0.0508X0.0016*%
%ADD110R,0.0397X0.0016*%
%ADD111R,0.0524X0.0016*%
%ADD112R,0.0365X0.0016*%
%ADD113R,0.0270X0.0016*%
%ADD114R,0.0317X0.0016*%
%ADD115R,0.0222X0.0016*%
%ADD116R,0.0571X0.0016*%
%ADD117R,0.0143X0.0016*%
%ADD118R,0.0587X0.0016*%
%ADD119R,0.0286X0.0016*%
%ADD120R,0.0603X0.0016*%
%ADD121R,0.0079X0.0016*%
%ADD122R,0.0016X0.0016*%
%ADD123R,0.0301X0.0016*%
%ADD124R,0.0301X0.0016*%
%ADD125R,0.0873X0.0016*%
%ADD126R,0.0730X0.0016*%
%ADD127R,0.0793X0.0016*%
%ADD128R,0.0714X0.0016*%
%ADD129R,0.0286X0.0016*%
%ADD130R,0.0651X0.0016*%
%ADD131R,0.0063X0.0016*%
%ADD132R,0.0349X0.0016*%
%ADD133R,0.0159X0.0016*%
%ADD134R,0.0032X0.0016*%
%ADD135R,0.0095X0.0016*%
%ADD136R,0.0746X0.0016*%
%ADD137R,0.0127X0.0016*%
%ADD138R,0.0206X0.0016*%
%ADD139R,0.0428X0.0016*%
%ADD140R,0.0619X0.0016*%
%ADD141R,0.0793X0.0016*%
%ADD142R,0.0746X0.0016*%
%ADD143C,0.0150*%
%ADD144C,0.0120*%
%ADD145C,0.0050*%
%ADD146C,0.0040*%
%ADD147C,0.0060*%
%ADD148C,0.0100*%
%ADD149C,0.0176*%
D10*
X009156Y005735D02*
X009156Y021325D01*
X032187Y021325D01*
X032187Y005695D01*
X009156Y005735D01*
X017771Y027758D02*
X017773Y027771D01*
X017778Y027784D01*
X017787Y027795D01*
X017798Y027802D01*
X017811Y027807D01*
X017824Y027808D01*
X017838Y027805D01*
X017850Y027799D01*
X017860Y027790D01*
X017867Y027778D01*
X017871Y027765D01*
X017871Y027751D01*
X017867Y027738D01*
X017860Y027726D01*
X017850Y027717D01*
X017838Y027711D01*
X017824Y027708D01*
X017811Y027709D01*
X017798Y027714D01*
X017787Y027721D01*
X017778Y027732D01*
X017773Y027745D01*
X017771Y027758D01*
X021918Y035046D02*
X021920Y035064D01*
X021926Y035080D01*
X021935Y035095D01*
X021948Y035108D01*
X021963Y035117D01*
X021979Y035123D01*
X021997Y035125D01*
X022015Y035123D01*
X022031Y035117D01*
X022046Y035108D01*
X022059Y035095D01*
X022068Y035080D01*
X022074Y035064D01*
X022076Y035046D01*
X022074Y035028D01*
X022068Y035012D01*
X022059Y034997D01*
X022046Y034984D01*
X022031Y034975D01*
X022015Y034969D01*
X021997Y034967D01*
X021979Y034969D01*
X021963Y034975D01*
X021948Y034984D01*
X021935Y034997D01*
X021926Y035012D01*
X021920Y035028D01*
X021918Y035046D01*
X031686Y034357D02*
X031688Y034444D01*
X031694Y034532D01*
X031704Y034618D01*
X031718Y034705D01*
X031736Y034790D01*
X031757Y034875D01*
X031783Y034958D01*
X031812Y035041D01*
X031845Y035122D01*
X031881Y035201D01*
X031922Y035278D01*
X031965Y035354D01*
X032012Y035428D01*
X032063Y035499D01*
X032116Y035568D01*
X032173Y035635D01*
X032233Y035698D01*
X032295Y035759D01*
X032360Y035818D01*
X032428Y035873D01*
X032498Y035925D01*
X032571Y035974D01*
X032645Y036019D01*
X032722Y036061D01*
X032801Y036099D01*
X032881Y036134D01*
X032962Y036165D01*
X033045Y036193D01*
X033129Y036216D01*
X033215Y036236D01*
X033300Y036252D01*
X033387Y036264D01*
X033474Y036272D01*
X033561Y036276D01*
X033649Y036276D01*
X033736Y036272D01*
X033823Y036264D01*
X033910Y036252D01*
X033995Y036236D01*
X034081Y036216D01*
X034165Y036193D01*
X034248Y036165D01*
X034329Y036134D01*
X034409Y036099D01*
X034488Y036061D01*
X034564Y036019D01*
X034639Y035974D01*
X034712Y035925D01*
X034782Y035873D01*
X034850Y035818D01*
X034915Y035759D01*
X034977Y035698D01*
X035037Y035635D01*
X035094Y035568D01*
X035147Y035499D01*
X035198Y035428D01*
X035245Y035354D01*
X035288Y035278D01*
X035329Y035201D01*
X035365Y035122D01*
X035398Y035041D01*
X035427Y034958D01*
X035453Y034875D01*
X035474Y034790D01*
X035492Y034705D01*
X035506Y034618D01*
X035516Y034532D01*
X035522Y034444D01*
X035524Y034357D01*
X035522Y034270D01*
X035516Y034182D01*
X035506Y034096D01*
X035492Y034009D01*
X035474Y033924D01*
X035453Y033839D01*
X035427Y033756D01*
X035398Y033673D01*
X035365Y033592D01*
X035329Y033513D01*
X035288Y033436D01*
X035245Y033360D01*
X035198Y033286D01*
X035147Y033215D01*
X035094Y033146D01*
X035037Y033079D01*
X034977Y033016D01*
X034915Y032955D01*
X034850Y032896D01*
X034782Y032841D01*
X034712Y032789D01*
X034639Y032740D01*
X034565Y032695D01*
X034488Y032653D01*
X034409Y032615D01*
X034329Y032580D01*
X034248Y032549D01*
X034165Y032521D01*
X034081Y032498D01*
X033995Y032478D01*
X033910Y032462D01*
X033823Y032450D01*
X033736Y032442D01*
X033649Y032438D01*
X033561Y032438D01*
X033474Y032442D01*
X033387Y032450D01*
X033300Y032462D01*
X033215Y032478D01*
X033129Y032498D01*
X033045Y032521D01*
X032962Y032549D01*
X032881Y032580D01*
X032801Y032615D01*
X032722Y032653D01*
X032645Y032695D01*
X032571Y032740D01*
X032498Y032789D01*
X032428Y032841D01*
X032360Y032896D01*
X032295Y032955D01*
X032233Y033016D01*
X032173Y033079D01*
X032116Y033146D01*
X032063Y033215D01*
X032012Y033286D01*
X031965Y033360D01*
X031922Y033436D01*
X031881Y033513D01*
X031845Y033592D01*
X031812Y033673D01*
X031783Y033756D01*
X031757Y033839D01*
X031736Y033924D01*
X031718Y034009D01*
X031704Y034096D01*
X031694Y034182D01*
X031688Y034270D01*
X031686Y034357D01*
D11*
X030731Y035499D02*
X030731Y035813D01*
X030494Y035813D01*
X029864Y035813D02*
X029628Y035813D01*
X029628Y035499D01*
X029195Y035499D02*
X029195Y035813D01*
X028959Y035813D01*
X028329Y035813D02*
X028093Y035813D01*
X028093Y035499D01*
X027581Y035577D02*
X027581Y035262D01*
X027345Y035262D01*
X026715Y035262D02*
X026479Y035262D01*
X026479Y035577D01*
X026124Y035499D02*
X026124Y035813D01*
X025888Y035813D01*
X025258Y035813D02*
X025022Y035813D01*
X025022Y035499D01*
X025219Y034731D02*
X025770Y034731D01*
X025770Y034219D01*
X025219Y034219D01*
X025770Y034219D02*
X025927Y034219D01*
X025927Y034731D02*
X025770Y034731D01*
X027314Y033403D02*
X028714Y033403D01*
X028714Y030823D01*
X027314Y030823D01*
X027314Y033403D01*
X029668Y030577D02*
X029668Y030262D01*
X029786Y030262D01*
X029234Y029632D02*
X030494Y029632D01*
X030534Y030262D02*
X030534Y030577D01*
X030534Y030262D02*
X030416Y030262D01*
X030494Y028609D02*
X029234Y028609D01*
X029451Y027546D02*
X029451Y027388D01*
X028939Y027388D01*
X028939Y026837D01*
X028664Y026837D02*
X028664Y026995D01*
X028152Y026995D01*
X028152Y027546D01*
X028664Y027546D02*
X028664Y026995D01*
X028939Y027388D02*
X028939Y027546D01*
X029451Y027388D02*
X029451Y026837D01*
X029687Y026837D02*
X029687Y026995D01*
X030199Y026995D01*
X030199Y027546D01*
X029687Y027546D02*
X029687Y026995D01*
X030199Y026995D02*
X030199Y026837D01*
X030416Y025617D02*
X030416Y024987D01*
X030416Y024986D02*
X030422Y024968D01*
X030431Y024950D01*
X030443Y024935D01*
X030459Y024923D01*
X030476Y024914D01*
X030495Y024908D01*
X030514Y024906D01*
X030534Y024908D01*
X031085Y024908D02*
X031103Y024906D01*
X031120Y024907D01*
X031137Y024911D01*
X031153Y024918D01*
X031168Y024928D01*
X031180Y024940D01*
X031190Y024954D01*
X031198Y024970D01*
X031203Y024986D01*
X031203Y024987D02*
X031203Y025617D01*
X031198Y025633D01*
X031190Y025649D01*
X031180Y025663D01*
X031168Y025675D01*
X031153Y025685D01*
X031137Y025692D01*
X031120Y025696D01*
X031103Y025697D01*
X031085Y025695D01*
X030534Y025695D02*
X030514Y025697D01*
X030495Y025695D01*
X030476Y025689D01*
X030459Y025680D01*
X030443Y025668D01*
X030431Y025653D01*
X030422Y025635D01*
X030416Y025617D01*
X028152Y026837D02*
X028152Y026995D01*
X024771Y027126D02*
X024771Y026626D01*
X024171Y026626D02*
X024171Y027126D01*
X024093Y028523D02*
X024093Y028943D01*
X024163Y028803D02*
X024303Y028803D01*
X024373Y028733D01*
X024373Y028523D01*
X024093Y028733D02*
X024163Y028803D01*
X023912Y028803D02*
X023702Y028803D01*
X023632Y028733D01*
X023702Y028663D01*
X023842Y028663D01*
X023912Y028593D01*
X023842Y028523D01*
X023632Y028523D01*
X023452Y028523D02*
X023452Y028733D01*
X023382Y028803D01*
X023242Y028803D01*
X023242Y028663D02*
X023452Y028663D01*
X023452Y028523D02*
X023242Y028523D01*
X023172Y028593D01*
X023242Y028663D01*
X023005Y028523D02*
X022865Y028523D01*
X022935Y028523D02*
X022935Y028943D01*
X022865Y028943D01*
X022685Y028943D02*
X022404Y028943D01*
X022404Y028523D01*
X022404Y028733D02*
X022545Y028733D01*
X021731Y028699D02*
X021731Y029687D01*
X021337Y030199D02*
X020124Y030199D01*
X019731Y029687D02*
X019731Y028711D01*
X020124Y028199D02*
X021337Y028199D01*
X020231Y029199D02*
X020233Y029243D01*
X020239Y029287D01*
X020249Y029330D01*
X020262Y029372D01*
X020279Y029413D01*
X020300Y029452D01*
X020324Y029489D01*
X020351Y029524D01*
X020381Y029556D01*
X020414Y029586D01*
X020450Y029612D01*
X020487Y029636D01*
X020527Y029655D01*
X020568Y029672D01*
X020611Y029684D01*
X020654Y029693D01*
X020698Y029698D01*
X020742Y029699D01*
X020786Y029696D01*
X020830Y029689D01*
X020873Y029678D01*
X020915Y029664D01*
X020955Y029646D01*
X020994Y029624D01*
X021030Y029600D01*
X021064Y029572D01*
X021096Y029541D01*
X021125Y029507D01*
X021151Y029471D01*
X021173Y029433D01*
X021192Y029393D01*
X021207Y029351D01*
X021219Y029309D01*
X021227Y029265D01*
X021231Y029221D01*
X021231Y029177D01*
X021227Y029133D01*
X021219Y029089D01*
X021207Y029047D01*
X021192Y029005D01*
X021173Y028965D01*
X021151Y028927D01*
X021125Y028891D01*
X021096Y028857D01*
X021064Y028826D01*
X021030Y028798D01*
X020994Y028774D01*
X020955Y028752D01*
X020915Y028734D01*
X020873Y028720D01*
X020830Y028709D01*
X020786Y028702D01*
X020742Y028699D01*
X020698Y028700D01*
X020654Y028705D01*
X020611Y028714D01*
X020568Y028726D01*
X020527Y028743D01*
X020487Y028762D01*
X020450Y028786D01*
X020414Y028812D01*
X020381Y028842D01*
X020351Y028874D01*
X020324Y028909D01*
X020300Y028946D01*
X020279Y028985D01*
X020262Y029026D01*
X020249Y029068D01*
X020239Y029111D01*
X020233Y029155D01*
X020231Y029199D01*
X021046Y030656D02*
X021046Y030971D01*
X021046Y030656D02*
X021282Y030656D01*
X021912Y030656D02*
X022148Y030656D01*
X022148Y030971D01*
X020652Y031758D02*
X020652Y032073D01*
X020416Y032073D01*
X020061Y032900D02*
X019864Y032900D01*
X019864Y033136D01*
X019786Y032073D02*
X019549Y032073D01*
X019549Y031758D01*
X018706Y030731D02*
X018706Y030451D01*
X018776Y030381D01*
X018776Y030661D02*
X018636Y030661D01*
X018456Y030591D02*
X018456Y030521D01*
X018175Y030521D01*
X018175Y030451D02*
X018175Y030591D01*
X018245Y030661D01*
X018386Y030661D01*
X018456Y030591D01*
X018386Y030381D02*
X018245Y030381D01*
X018175Y030451D01*
X017995Y030451D02*
X017925Y030521D01*
X017785Y030521D01*
X017715Y030591D01*
X017785Y030661D01*
X017995Y030661D01*
X017995Y030451D02*
X017925Y030381D01*
X017715Y030381D01*
X017535Y030521D02*
X017535Y030591D01*
X017465Y030661D01*
X017325Y030661D01*
X017255Y030591D01*
X017255Y030451D01*
X017325Y030381D01*
X017465Y030381D01*
X017535Y030521D02*
X017255Y030521D01*
X017074Y030591D02*
X017004Y030521D01*
X016794Y030521D01*
X016794Y030381D02*
X016794Y030801D01*
X017004Y030801D01*
X017074Y030731D01*
X017074Y030591D01*
X016934Y030521D02*
X017074Y030381D01*
X016935Y030199D02*
X018148Y030199D01*
X018542Y029687D02*
X018542Y028699D01*
X018148Y028199D02*
X016935Y028199D01*
X016542Y028711D02*
X016542Y029687D01*
X017042Y029199D02*
X017044Y029243D01*
X017050Y029287D01*
X017060Y029330D01*
X017073Y029372D01*
X017090Y029413D01*
X017111Y029452D01*
X017135Y029489D01*
X017162Y029524D01*
X017192Y029556D01*
X017225Y029586D01*
X017261Y029612D01*
X017298Y029636D01*
X017338Y029655D01*
X017379Y029672D01*
X017422Y029684D01*
X017465Y029693D01*
X017509Y029698D01*
X017553Y029699D01*
X017597Y029696D01*
X017641Y029689D01*
X017684Y029678D01*
X017726Y029664D01*
X017766Y029646D01*
X017805Y029624D01*
X017841Y029600D01*
X017875Y029572D01*
X017907Y029541D01*
X017936Y029507D01*
X017962Y029471D01*
X017984Y029433D01*
X018003Y029393D01*
X018018Y029351D01*
X018030Y029309D01*
X018038Y029265D01*
X018042Y029221D01*
X018042Y029177D01*
X018038Y029133D01*
X018030Y029089D01*
X018018Y029047D01*
X018003Y029005D01*
X017984Y028965D01*
X017962Y028927D01*
X017936Y028891D01*
X017907Y028857D01*
X017875Y028826D01*
X017841Y028798D01*
X017805Y028774D01*
X017766Y028752D01*
X017726Y028734D01*
X017684Y028720D01*
X017641Y028709D01*
X017597Y028702D01*
X017553Y028699D01*
X017509Y028700D01*
X017465Y028705D01*
X017422Y028714D01*
X017379Y028726D01*
X017338Y028743D01*
X017298Y028762D01*
X017261Y028786D01*
X017225Y028812D01*
X017192Y028842D01*
X017162Y028874D01*
X017135Y028909D01*
X017111Y028946D01*
X017090Y028985D01*
X017073Y029026D01*
X017060Y029068D01*
X017050Y029111D01*
X017044Y029155D01*
X017042Y029199D01*
X017715Y033384D02*
X017896Y033384D01*
X017804Y033506D01*
X017896Y033384D02*
X018077Y033384D01*
X017982Y033506D02*
X017906Y033390D01*
X019864Y034593D02*
X019864Y034790D01*
X020061Y034790D01*
X021951Y035282D02*
X022502Y035282D01*
X022502Y035794D01*
X021951Y035794D01*
X022055Y035947D02*
X022555Y035947D01*
X022502Y035794D02*
X022660Y035794D01*
X022660Y035282D02*
X022502Y035282D01*
X023105Y034420D02*
X023105Y034239D01*
X023227Y034331D01*
X023105Y034239D02*
X023105Y034058D01*
X023227Y034153D02*
X023111Y034229D01*
X023105Y033829D02*
X023105Y033648D01*
X023227Y033740D01*
X023105Y033648D02*
X023105Y033467D01*
X023227Y033562D02*
X023111Y033638D01*
X021754Y033097D02*
X021754Y032900D01*
X021557Y032900D01*
X022055Y036547D02*
X022555Y036547D01*
X013605Y035636D02*
X013447Y035636D01*
X013447Y035124D01*
X012896Y035124D01*
X012896Y035636D02*
X013447Y035636D01*
X013447Y035124D02*
X013605Y035124D01*
X008290Y026483D02*
X008290Y026207D01*
X008290Y026483D02*
X003526Y026483D01*
X002935Y025853D02*
X002935Y022546D01*
X002936Y022546D02*
X002933Y022508D01*
X002927Y022470D01*
X002917Y022433D01*
X002903Y022397D01*
X002887Y022362D01*
X002867Y022330D01*
X002844Y022299D01*
X002818Y022270D01*
X002789Y022244D01*
X002758Y022221D01*
X002726Y022201D01*
X002691Y022185D01*
X002655Y022171D01*
X002618Y022161D01*
X002580Y022155D01*
X002542Y022152D01*
X002510Y022153D01*
X002479Y022149D01*
X002448Y022142D01*
X002418Y022131D01*
X002390Y022117D01*
X002364Y022099D01*
X002340Y022078D01*
X002319Y022054D01*
X002301Y022028D01*
X002287Y022000D01*
X002276Y021970D01*
X002269Y021939D01*
X002265Y021908D01*
X002266Y021876D01*
X002266Y021561D01*
X003093Y020971D02*
X008290Y020971D01*
X008290Y022900D01*
X008290Y023963D02*
X008290Y025144D01*
X009707Y025577D02*
X009707Y025892D01*
X009707Y025577D02*
X009943Y025577D01*
X010573Y025577D02*
X010809Y025577D01*
X010809Y025892D01*
X010809Y024514D02*
X010809Y024199D01*
X010573Y024199D01*
X009943Y024199D02*
X009707Y024199D01*
X009707Y024514D01*
X019826Y016334D02*
X019826Y015853D01*
X020066Y015853D01*
X020146Y015934D01*
X020146Y016254D01*
X020066Y016334D01*
X019826Y016334D01*
X020341Y016094D02*
X020341Y015934D01*
X020421Y015853D01*
X020582Y015853D01*
X020662Y015934D01*
X020662Y016094D01*
X020582Y016174D01*
X020421Y016174D01*
X020341Y016094D01*
X021373Y016174D02*
X021613Y016174D01*
X021693Y016094D01*
X021693Y015853D01*
X021888Y015934D02*
X021968Y015853D01*
X022128Y015853D01*
X022209Y015934D01*
X022209Y016094D01*
X022128Y016174D01*
X021968Y016174D01*
X021888Y016094D01*
X021888Y015934D01*
X021373Y015853D02*
X021373Y016174D01*
X022404Y016174D02*
X022564Y016174D01*
X022484Y016254D02*
X022484Y015934D01*
X022564Y015853D01*
X023263Y016174D02*
X023423Y016174D01*
X023343Y016254D02*
X023343Y015934D01*
X023423Y015853D01*
X023607Y015934D02*
X023687Y015853D01*
X023847Y015853D01*
X023927Y015934D01*
X023927Y016094D01*
X023847Y016174D01*
X023687Y016174D01*
X023607Y016094D01*
X023607Y015934D01*
X024123Y015934D02*
X024203Y015853D01*
X024443Y015853D01*
X024443Y016174D01*
X024638Y016094D02*
X024638Y015934D01*
X024718Y015853D01*
X024959Y015853D01*
X025154Y015853D02*
X025154Y016334D01*
X025234Y016174D02*
X025154Y016094D01*
X025234Y016174D02*
X025394Y016174D01*
X025474Y016094D01*
X025474Y015853D01*
X024959Y016174D02*
X024718Y016174D01*
X024638Y016094D01*
X024123Y016174D02*
X024123Y015934D01*
X029517Y009883D02*
X029517Y009803D01*
X029597Y009803D01*
X029597Y009883D01*
X029517Y009883D01*
X029757Y009883D02*
X029757Y009803D01*
X029837Y009803D01*
X029837Y009883D01*
X029757Y009883D01*
X029837Y009608D02*
X029357Y009608D01*
X029357Y009287D02*
X029837Y009608D01*
X029837Y009287D02*
X029357Y009287D01*
X029437Y009092D02*
X029357Y009012D01*
X029357Y008852D01*
X029437Y008772D01*
X029757Y008772D01*
X029837Y008852D01*
X029837Y009012D01*
X029757Y009092D01*
X029437Y009092D01*
X029357Y008588D02*
X029357Y008428D01*
X029357Y008508D02*
X029837Y008508D01*
X029837Y008428D02*
X029837Y008588D01*
X030197Y008668D02*
X030277Y008748D01*
X030597Y008748D01*
X030677Y008668D01*
X030677Y008508D01*
X030597Y008428D01*
X030277Y008428D01*
X030197Y008508D01*
X030197Y008668D01*
X030197Y008943D02*
X030197Y009264D01*
X030197Y009104D02*
X030677Y009104D01*
X031037Y009012D02*
X031037Y008772D01*
X031517Y008772D01*
X031357Y008772D02*
X031357Y009012D01*
X031277Y009092D01*
X031117Y009092D01*
X031037Y009012D01*
X031037Y009287D02*
X031517Y009287D01*
X031517Y009608D01*
X031517Y009803D02*
X031037Y009803D01*
X031197Y009963D01*
X031037Y010123D01*
X031517Y010123D01*
X031517Y010319D02*
X031197Y010319D01*
X031037Y010479D01*
X031197Y010639D01*
X031517Y010639D01*
X031517Y010834D02*
X031517Y010994D01*
X031517Y010914D02*
X031037Y010914D01*
X031037Y010834D02*
X031037Y010994D01*
X031037Y011178D02*
X031517Y011498D01*
X031037Y011498D01*
X031037Y011694D02*
X031037Y011854D01*
X031037Y011774D02*
X031517Y011774D01*
X031517Y011694D02*
X031517Y011854D01*
X031517Y012037D02*
X031037Y012037D01*
X031517Y012358D01*
X031037Y012358D01*
X031117Y012553D02*
X031437Y012553D01*
X031517Y012633D01*
X031517Y012793D01*
X031437Y012873D01*
X031277Y012873D01*
X031277Y012713D01*
X031117Y012553D02*
X031037Y012633D01*
X031037Y012793D01*
X031117Y012873D01*
X030677Y012897D02*
X030197Y012897D01*
X030677Y013217D01*
X030197Y013217D01*
X030197Y013412D02*
X030197Y013733D01*
X030197Y013572D02*
X030677Y013572D01*
X031037Y013584D02*
X031037Y013905D01*
X031037Y014100D02*
X031117Y014100D01*
X031277Y014260D01*
X031517Y014260D01*
X031277Y014260D02*
X031117Y014420D01*
X031037Y014420D01*
X031037Y014616D02*
X031517Y014616D01*
X031517Y014936D01*
X031277Y014776D02*
X031277Y014616D01*
X031037Y014616D02*
X031037Y014936D01*
X030677Y014959D02*
X030677Y015280D01*
X030677Y015475D02*
X030197Y015475D01*
X030197Y015795D01*
X030197Y015991D02*
X030197Y016231D01*
X030277Y016311D01*
X030597Y016311D01*
X030677Y016231D01*
X030677Y015991D01*
X030197Y015991D01*
X030437Y015635D02*
X030437Y015475D01*
X030677Y015475D02*
X030677Y015795D01*
X030597Y016506D02*
X030677Y016586D01*
X030677Y016746D01*
X030597Y016826D01*
X030517Y016826D01*
X030437Y016746D01*
X030437Y016586D01*
X030357Y016506D01*
X030277Y016506D01*
X030197Y016586D01*
X030197Y016746D01*
X030277Y016826D01*
X030197Y014959D02*
X030677Y014959D01*
X030597Y014248D02*
X030277Y014248D01*
X030197Y014168D01*
X030197Y014008D01*
X030277Y013928D01*
X030597Y013928D01*
X030677Y014008D01*
X030677Y014168D01*
X030597Y014248D01*
X031037Y013584D02*
X031517Y013584D01*
X031517Y013905D01*
X031277Y013744D02*
X031277Y013584D01*
X030677Y012713D02*
X030677Y012553D01*
X030677Y012633D02*
X030197Y012633D01*
X030197Y012553D02*
X030197Y012713D01*
X030197Y011842D02*
X030517Y011522D01*
X030437Y011602D02*
X030677Y011842D01*
X030677Y011522D02*
X030197Y011522D01*
X030277Y011326D02*
X030197Y011246D01*
X030197Y011086D01*
X030277Y011006D01*
X030597Y011006D01*
X030677Y011086D01*
X030677Y011246D01*
X030597Y011326D01*
X030277Y011326D01*
X030277Y010811D02*
X030197Y010731D01*
X030197Y010570D01*
X030277Y010490D01*
X030597Y010490D01*
X030677Y010570D01*
X030677Y010731D01*
X030597Y010811D01*
X030277Y010811D01*
X030677Y010295D02*
X030677Y009975D01*
X030197Y009975D01*
X031037Y009608D02*
X031037Y009287D01*
X031277Y009287D02*
X031277Y009447D01*
X031517Y009092D02*
X031357Y008932D01*
X031277Y008061D02*
X031277Y007740D01*
X031517Y007740D02*
X031037Y007740D01*
X031037Y007545D02*
X031037Y007225D01*
X031037Y007385D02*
X031517Y007385D01*
X031517Y007041D02*
X031517Y006881D01*
X031517Y006961D02*
X031037Y006961D01*
X031037Y006881D02*
X031037Y007041D01*
X031037Y006686D02*
X031517Y006686D01*
X031357Y006525D01*
X031517Y006365D01*
X031037Y006365D01*
X030677Y006365D02*
X030677Y006605D01*
X030597Y006686D01*
X030277Y006686D01*
X030197Y006605D01*
X030197Y006365D01*
X030677Y006365D01*
X030597Y006881D02*
X030277Y006881D01*
X030197Y006961D01*
X030197Y007121D01*
X030277Y007201D01*
X030597Y007201D01*
X030677Y007121D01*
X030677Y006961D01*
X030597Y006881D01*
X029837Y006881D02*
X029517Y006881D01*
X029357Y007041D01*
X029517Y007201D01*
X029837Y007201D01*
X029757Y007397D02*
X029357Y007397D01*
X029597Y007201D02*
X029597Y006881D01*
X029437Y006686D02*
X029357Y006605D01*
X029357Y006445D01*
X029437Y006365D01*
X029757Y006365D01*
X029837Y006445D01*
X029837Y006605D01*
X029757Y006686D01*
X029757Y007397D02*
X029837Y007477D01*
X029837Y007637D01*
X029757Y007717D01*
X029357Y007717D01*
X029357Y007912D02*
X029357Y008232D01*
X029357Y008072D02*
X029837Y008072D01*
X030197Y007912D02*
X030677Y008232D01*
X030197Y008232D01*
X030197Y007912D02*
X030677Y007912D01*
X031037Y008061D02*
X031517Y008061D01*
X031277Y010319D02*
X031277Y010639D01*
X031517Y011178D02*
X031037Y011178D01*
D12*
X023872Y031803D02*
X023598Y032214D01*
X023411Y032214D02*
X023138Y032214D01*
X023275Y032214D02*
X023275Y031803D01*
X023598Y031803D02*
X023872Y032214D01*
X023952Y035544D02*
X024226Y035954D01*
X023952Y035954D02*
X024226Y035544D01*
X023766Y035544D02*
X023629Y035680D01*
X023697Y035680D02*
X023492Y035680D01*
X023492Y035544D02*
X023492Y035954D01*
X023697Y035954D01*
X023766Y035885D01*
X023766Y035749D01*
X023697Y035680D01*
X017189Y033536D02*
X017189Y033330D01*
X016779Y033330D01*
X016779Y033536D01*
X016848Y033604D01*
X016916Y033604D01*
X016984Y033536D01*
X016984Y033330D01*
X017053Y033144D02*
X017121Y033144D01*
X017189Y033075D01*
X017189Y032938D01*
X017121Y032870D01*
X016984Y032938D02*
X016984Y033075D01*
X017053Y033144D01*
X016848Y033144D02*
X016779Y033075D01*
X016779Y032938D01*
X016848Y032870D01*
X016916Y032870D01*
X016984Y032938D01*
X017121Y032683D02*
X016779Y032683D01*
X016779Y032410D02*
X017121Y032410D01*
X017189Y032478D01*
X017189Y032615D01*
X017121Y032683D01*
X017189Y033536D02*
X017121Y033604D01*
X017053Y033604D01*
X016984Y033536D01*
D13*
X035947Y034357D03*
D14*
X007302Y007050D02*
X006651Y007050D01*
X006868Y007158D02*
X006868Y007375D01*
X006976Y007483D01*
X007302Y007483D01*
X007193Y007858D02*
X007302Y007966D01*
X007193Y007858D02*
X006760Y007858D01*
X006868Y007966D02*
X006868Y007749D01*
X006868Y008216D02*
X006868Y008433D01*
X006760Y008324D02*
X007193Y008324D01*
X007302Y008433D01*
X007302Y008682D02*
X007302Y009008D01*
X007193Y009116D01*
X006976Y009116D01*
X006868Y009008D01*
X006868Y008682D01*
X007519Y008682D01*
X007302Y009382D02*
X007302Y009708D01*
X007193Y009816D01*
X007085Y009708D01*
X007085Y009491D01*
X006976Y009382D01*
X006868Y009491D01*
X006868Y009816D01*
X006868Y010082D02*
X006976Y010082D01*
X006976Y010190D01*
X006868Y010190D01*
X006868Y010082D01*
X007193Y010082D02*
X007302Y010082D01*
X007302Y010190D01*
X007193Y010190D01*
X007193Y010082D01*
X007302Y010432D02*
X006651Y010866D01*
X006651Y011565D02*
X007302Y011132D01*
X007302Y011832D02*
X007302Y012157D01*
X007193Y012265D01*
X007085Y012157D01*
X007085Y011940D01*
X006976Y011832D01*
X006868Y011940D01*
X006868Y012265D01*
X006976Y012531D02*
X006868Y012640D01*
X006868Y012857D01*
X006976Y012965D01*
X007302Y012965D01*
X007193Y013231D02*
X007085Y013340D01*
X007085Y013665D01*
X006976Y013665D02*
X007302Y013665D01*
X007302Y013340D01*
X007193Y013231D01*
X006868Y013340D02*
X006868Y013556D01*
X006976Y013665D01*
X006760Y013931D02*
X006651Y014039D01*
X006651Y014256D01*
X006760Y014365D01*
X006868Y014365D01*
X007302Y013931D01*
X007302Y014365D01*
X007193Y014631D02*
X007302Y014739D01*
X007302Y014956D01*
X007193Y015064D01*
X006760Y015064D01*
X007193Y014631D01*
X006760Y014631D01*
X006651Y014739D01*
X006651Y014956D01*
X006760Y015064D01*
X006868Y015330D02*
X006651Y015547D01*
X007302Y015547D01*
X007302Y015330D02*
X007302Y015764D01*
X007302Y016030D02*
X007193Y016030D01*
X006760Y016464D01*
X006651Y016464D01*
X006651Y016030D01*
X007193Y016730D02*
X007193Y016839D01*
X007302Y016839D01*
X007302Y016730D01*
X007193Y016730D01*
X007193Y017080D02*
X007302Y017188D01*
X007302Y017405D01*
X007193Y017514D01*
X006976Y017514D01*
X006868Y017405D01*
X006868Y017188D01*
X006976Y017080D01*
X007193Y017080D01*
X007085Y017780D02*
X006868Y017997D01*
X006868Y018105D01*
X006976Y018363D02*
X007193Y018363D01*
X007302Y018471D01*
X007302Y018797D01*
X007410Y018797D02*
X006868Y018797D01*
X006868Y018471D01*
X006976Y018363D01*
X007519Y018580D02*
X007519Y018688D01*
X007410Y018797D01*
X007302Y019063D02*
X006651Y019496D01*
X006868Y017780D02*
X007302Y017780D01*
X007302Y012531D02*
X006651Y012531D01*
X006868Y007158D02*
X006976Y007050D01*
X035431Y035770D02*
X035825Y035770D01*
X036494Y035770D02*
X036888Y035770D01*
X036691Y035967D02*
X036691Y035573D01*
D15*
X019872Y023349D03*
X016651Y022937D03*
X014461Y021842D03*
D16*
X014509Y021858D03*
D17*
X014548Y021874D03*
X015802Y023000D03*
X015770Y023064D03*
X015770Y023413D03*
X015802Y023476D03*
D18*
X014588Y021889D03*
X018253Y023381D03*
X018253Y023397D03*
X018888Y023889D03*
X018888Y023904D03*
X020506Y023333D03*
X020871Y023476D03*
X020871Y023492D03*
X020871Y023508D03*
X020982Y023175D03*
D19*
X020459Y023381D03*
X017698Y023143D03*
X014636Y021905D03*
D20*
X014683Y021921D03*
X018491Y022810D03*
X018888Y023555D03*
X018888Y023571D03*
X018888Y023587D03*
X018888Y023603D03*
X019285Y022826D03*
X019285Y022810D03*
X019285Y022794D03*
X021204Y022794D03*
D21*
X020403Y023206D03*
X019277Y022968D03*
X019277Y022952D03*
X018880Y023428D03*
X018483Y023000D03*
X018483Y022984D03*
X018483Y022968D03*
X018483Y022952D03*
X014723Y021937D03*
D22*
X014771Y021953D03*
X014898Y023079D03*
X020165Y023555D03*
D23*
X020197Y023508D03*
X020308Y023159D03*
X017262Y022588D03*
X014818Y021969D03*
D24*
X014858Y021985D03*
X014985Y023143D03*
X014985Y023825D03*
X016286Y023746D03*
X017301Y023857D03*
X020236Y023413D03*
X020236Y023397D03*
X020268Y023111D03*
D25*
X020229Y022714D03*
X020229Y022699D03*
X017341Y023254D03*
X017341Y023793D03*
X015024Y023762D03*
X015024Y023746D03*
X015024Y023222D03*
X015024Y023206D03*
X014913Y022000D03*
D26*
X014961Y022016D03*
X017389Y022746D03*
X017389Y022762D03*
X017389Y023175D03*
D27*
X015032Y022032D03*
D28*
X015128Y022048D03*
D29*
X015215Y022064D03*
D30*
X015326Y022080D03*
D31*
X015405Y022096D03*
D32*
X015508Y022112D03*
D33*
X015611Y022127D03*
D34*
X015715Y022143D03*
X015810Y022159D03*
D35*
X015929Y022175D03*
D36*
X016040Y022191D03*
D37*
X017690Y023476D03*
X017690Y023492D03*
X018325Y023095D03*
X018325Y023079D03*
X020943Y023286D03*
X021054Y022984D03*
X021054Y022968D03*
X021450Y023190D03*
X021561Y023524D03*
X021054Y022191D03*
D38*
X016159Y022207D03*
D39*
X020847Y023555D03*
X021212Y022619D03*
X021212Y022603D03*
X021069Y022223D03*
X021069Y022207D03*
D40*
X016278Y022223D03*
D41*
X016397Y022238D03*
D42*
X017047Y022810D03*
X017047Y022826D03*
X017047Y022841D03*
X017047Y022857D03*
X017047Y022873D03*
X017047Y022889D03*
X017047Y022905D03*
X017047Y022921D03*
X017047Y022937D03*
X017047Y022952D03*
X017047Y022968D03*
X017047Y022984D03*
X017047Y023000D03*
X017047Y023016D03*
X017047Y023032D03*
X017047Y023048D03*
X017047Y023064D03*
X017047Y023079D03*
X017047Y023095D03*
X017047Y023111D03*
X017047Y023127D03*
X017047Y023143D03*
X017047Y023381D03*
X017047Y023397D03*
X017047Y023413D03*
X017047Y023428D03*
X017047Y023444D03*
X017047Y023460D03*
X017047Y023476D03*
X017047Y023492D03*
X017047Y023508D03*
X017047Y023524D03*
X017047Y023539D03*
X017047Y023555D03*
X017047Y023571D03*
X017047Y023587D03*
X017047Y023603D03*
X017047Y023619D03*
X017047Y023635D03*
X017047Y023651D03*
X016635Y023619D03*
X015921Y023619D03*
X015905Y023603D03*
X015381Y023635D03*
X015905Y022873D03*
X017650Y023413D03*
X017761Y023079D03*
X017761Y023064D03*
X017777Y023048D03*
X017777Y023032D03*
X017777Y023016D03*
X017777Y023000D03*
X017777Y022984D03*
X017777Y022968D03*
X017777Y022952D03*
X017777Y022937D03*
X017777Y022921D03*
X018237Y023460D03*
X018237Y023476D03*
X018221Y023508D03*
X018221Y023524D03*
X018221Y023539D03*
X018190Y023635D03*
X018190Y023651D03*
X018190Y023666D03*
X018190Y023682D03*
X018174Y023714D03*
X018174Y023730D03*
X018174Y023746D03*
X018158Y023793D03*
X018158Y023809D03*
X018142Y023873D03*
X019554Y023571D03*
X019554Y023555D03*
X019538Y023492D03*
X019538Y023476D03*
X019570Y023619D03*
X019570Y023635D03*
X019586Y023682D03*
X019586Y023698D03*
X019586Y023714D03*
X019602Y023746D03*
X019602Y023762D03*
X019602Y023777D03*
X019602Y023793D03*
X019618Y023809D03*
X019618Y023825D03*
X019618Y023841D03*
X019618Y023857D03*
X019634Y023873D03*
X019634Y023889D03*
X019634Y023904D03*
X019919Y022968D03*
X019903Y022810D03*
X020522Y022810D03*
X020522Y023301D03*
X020887Y023428D03*
X020887Y023444D03*
X020887Y023460D03*
X020903Y023413D03*
X020903Y023397D03*
X020919Y023365D03*
X020919Y023349D03*
X020935Y023317D03*
X020935Y023301D03*
X020966Y023222D03*
X020855Y023524D03*
X020855Y023539D03*
X021538Y023460D03*
X021553Y023492D03*
X021553Y023508D03*
X021188Y022540D03*
X021188Y022524D03*
X021173Y022492D03*
X021173Y022476D03*
X021157Y022445D03*
X021141Y022413D03*
X021141Y022397D03*
X021077Y022238D03*
D43*
X021807Y022238D03*
X016651Y022968D03*
D44*
X016540Y022254D03*
D45*
X017769Y022889D03*
X017769Y022905D03*
X017753Y023095D03*
X017626Y023397D03*
X017690Y023587D03*
X017690Y023603D03*
X018182Y023698D03*
X018166Y023762D03*
X018166Y023777D03*
X018150Y023825D03*
X018150Y023841D03*
X018150Y023857D03*
X018134Y023889D03*
X018134Y023904D03*
X018896Y023873D03*
X019927Y022984D03*
X019943Y023000D03*
X019911Y022794D03*
X019927Y022778D03*
X021133Y022381D03*
X021149Y022429D03*
X021165Y022461D03*
X021181Y022508D03*
X021196Y022556D03*
X021085Y022254D03*
X015374Y023317D03*
D46*
X015421Y023381D03*
X015421Y023397D03*
X015421Y023555D03*
X015421Y023571D03*
X015818Y023508D03*
X015849Y022921D03*
X016643Y023603D03*
X018642Y023048D03*
X018642Y023032D03*
X018674Y023127D03*
X018674Y023143D03*
X018674Y023159D03*
X018674Y023175D03*
X018705Y023254D03*
X018705Y023270D03*
X018705Y023286D03*
X018705Y023301D03*
X018721Y023317D03*
X018721Y023333D03*
X018721Y023349D03*
X018721Y023365D03*
X019039Y023365D03*
X019039Y023349D03*
X019054Y023301D03*
X019054Y023286D03*
X019086Y023190D03*
X019086Y023175D03*
X019086Y023159D03*
X019086Y023143D03*
X019102Y023127D03*
X019102Y023111D03*
X019102Y023095D03*
X019102Y023079D03*
X019118Y023064D03*
X019118Y023048D03*
X019118Y023032D03*
X021371Y022968D03*
X021704Y022254D03*
D47*
X016667Y022270D03*
D48*
X017698Y023508D03*
X017698Y023524D03*
X017698Y023539D03*
X017698Y023555D03*
X017698Y023571D03*
X018206Y023571D03*
X018206Y023587D03*
X018206Y023603D03*
X018206Y023619D03*
X020839Y023571D03*
X020950Y023270D03*
X021569Y023539D03*
X021569Y023555D03*
X021204Y022588D03*
X021204Y022572D03*
X021093Y022270D03*
D49*
X021617Y022270D03*
X020014Y023032D03*
X018888Y023635D03*
X018888Y023651D03*
X018888Y023666D03*
X016286Y023841D03*
D50*
X016825Y022286D03*
D51*
X021331Y022286D03*
D52*
X016968Y022302D03*
D53*
X021268Y022302D03*
D54*
X017135Y022318D03*
D55*
X016278Y022667D03*
X021165Y022318D03*
D56*
X017309Y022334D03*
D57*
X021006Y022334D03*
D58*
X017500Y022350D03*
D59*
X020229Y023428D03*
X020229Y023444D03*
X020879Y022350D03*
D60*
X017738Y022365D03*
D61*
X020760Y022365D03*
D62*
X018015Y022381D03*
D63*
X020411Y022381D03*
D64*
X018983Y022397D03*
D65*
X018991Y022413D03*
D66*
X018991Y022429D03*
D67*
X018999Y022445D03*
D68*
X018991Y022461D03*
D69*
X020062Y022556D03*
X016651Y023587D03*
X015778Y023428D03*
X015762Y023397D03*
X015762Y023381D03*
X015762Y023365D03*
X015746Y023333D03*
X015746Y023317D03*
X015746Y023301D03*
X015746Y023286D03*
X015746Y023270D03*
X015746Y023254D03*
X015746Y023238D03*
X015746Y023222D03*
X015746Y023206D03*
X015746Y023190D03*
X015746Y023175D03*
X015746Y023159D03*
X015746Y023143D03*
X015762Y023111D03*
X015762Y023095D03*
X015762Y023079D03*
X015778Y023048D03*
D70*
X015786Y023032D03*
X015786Y023016D03*
X015786Y023444D03*
X015786Y023460D03*
X014691Y023460D03*
X014691Y023444D03*
X014691Y023428D03*
X014691Y023413D03*
X014691Y023397D03*
X014691Y023381D03*
X014691Y023365D03*
X014691Y023349D03*
X014691Y023333D03*
X014691Y023317D03*
X014691Y023301D03*
X014691Y023476D03*
X014691Y023492D03*
X014691Y023508D03*
X014691Y023524D03*
X014691Y023539D03*
X014691Y023555D03*
X014691Y023571D03*
X014691Y023587D03*
X014691Y023603D03*
X014691Y023619D03*
X014691Y023635D03*
X014691Y023651D03*
X014691Y023666D03*
X014691Y023064D03*
X014691Y023048D03*
X014691Y023032D03*
X014691Y023016D03*
X014691Y023000D03*
X014691Y022984D03*
X014691Y022968D03*
X014691Y022952D03*
X014691Y022937D03*
X014691Y022921D03*
X014691Y022905D03*
X014691Y022889D03*
X014691Y022873D03*
X014691Y022857D03*
X014691Y022841D03*
X014691Y022826D03*
X014691Y022810D03*
X014691Y022794D03*
X014691Y022778D03*
X014691Y022762D03*
X014691Y022746D03*
X014691Y022730D03*
X014691Y022714D03*
X014691Y022699D03*
X014691Y022683D03*
X014691Y022667D03*
X014691Y022651D03*
X014691Y022635D03*
X014691Y022619D03*
X014691Y022603D03*
X014691Y022588D03*
X014691Y022572D03*
D71*
X017214Y022572D03*
D72*
X017753Y022857D03*
X017674Y023635D03*
X018483Y022619D03*
X018483Y022603D03*
X018483Y022588D03*
X018483Y022572D03*
X019277Y022588D03*
X019277Y022603D03*
X020498Y022778D03*
X016627Y023635D03*
X015945Y023635D03*
X015342Y023301D03*
X015945Y022841D03*
D73*
X015366Y023651D03*
X016619Y022841D03*
X017603Y023381D03*
X017682Y023619D03*
X017745Y023111D03*
X017761Y022873D03*
X018888Y023825D03*
X018888Y023841D03*
X018888Y023857D03*
X019285Y022572D03*
X020062Y022588D03*
X020506Y022794D03*
D74*
X020062Y022572D03*
X019427Y023032D03*
X019443Y023079D03*
X019443Y023095D03*
X019459Y023143D03*
X019459Y023159D03*
X019475Y023222D03*
X019491Y023286D03*
X019062Y023270D03*
X019047Y023317D03*
X019047Y023333D03*
X018301Y023190D03*
X018301Y023175D03*
X018285Y023254D03*
X018333Y023064D03*
X018333Y023048D03*
X018333Y023032D03*
X016635Y022857D03*
X015857Y022905D03*
X015397Y023349D03*
X015413Y023365D03*
X015413Y023587D03*
X015397Y023619D03*
X015857Y023555D03*
X021379Y023000D03*
X021379Y022984D03*
X021411Y023064D03*
X021411Y023079D03*
X021411Y023095D03*
X021426Y023111D03*
X021426Y023127D03*
X021426Y023143D03*
X021458Y023206D03*
X021458Y023222D03*
X021474Y023270D03*
D75*
X021482Y023286D03*
X021482Y023301D03*
X021466Y023254D03*
X021466Y023238D03*
X021434Y023159D03*
X021514Y023365D03*
X021514Y023381D03*
X021514Y023397D03*
X021545Y023476D03*
X021577Y023571D03*
X020927Y023333D03*
X020911Y023381D03*
X020958Y023254D03*
X020958Y023238D03*
X020974Y023206D03*
X020974Y023190D03*
X021006Y023127D03*
X021006Y023111D03*
X021006Y023095D03*
X021038Y023032D03*
X021038Y023016D03*
X020530Y023016D03*
X020530Y023032D03*
X020530Y023000D03*
X020530Y022984D03*
X020530Y022968D03*
X020530Y022952D03*
X020530Y022937D03*
X020530Y022921D03*
X020530Y022905D03*
X020530Y022889D03*
X020530Y022873D03*
X020530Y022857D03*
X020530Y022841D03*
X020530Y022826D03*
X020530Y022667D03*
X020530Y022651D03*
X020530Y022635D03*
X020530Y022619D03*
X020530Y022603D03*
X020530Y022588D03*
X020530Y022572D03*
X020530Y023238D03*
X020530Y023254D03*
X020530Y023270D03*
X020530Y023286D03*
X019911Y022952D03*
X019895Y022937D03*
X019895Y022921D03*
X019895Y022905D03*
X019895Y022889D03*
X019895Y022873D03*
X019895Y022857D03*
X019895Y022841D03*
X019895Y022826D03*
X019435Y023048D03*
X019435Y023064D03*
X019451Y023111D03*
X019451Y023127D03*
X019467Y023175D03*
X019467Y023190D03*
X019467Y023206D03*
X019483Y023238D03*
X019483Y023254D03*
X019483Y023270D03*
X019499Y023301D03*
X019499Y023317D03*
X019499Y023333D03*
X019499Y023349D03*
X019515Y023365D03*
X019515Y023381D03*
X019515Y023397D03*
X019515Y023413D03*
X019530Y023428D03*
X019530Y023444D03*
X019530Y023460D03*
X019546Y023508D03*
X019546Y023524D03*
X019546Y023539D03*
X019562Y023587D03*
X019562Y023603D03*
X019578Y023651D03*
X019578Y023666D03*
X019594Y023730D03*
X018245Y023444D03*
X018245Y023428D03*
X018245Y023413D03*
X018229Y023492D03*
X018214Y023555D03*
X018277Y023317D03*
X018277Y023301D03*
X018277Y023286D03*
X018277Y023270D03*
X018293Y023238D03*
X018293Y023222D03*
X018293Y023206D03*
X018309Y023159D03*
X018309Y023143D03*
X017674Y023444D03*
X017674Y023460D03*
X017658Y023428D03*
X015865Y023571D03*
X015405Y023603D03*
X015389Y023333D03*
D76*
X016278Y022603D03*
X016643Y022905D03*
D77*
X017285Y022603D03*
X017285Y023301D03*
X014969Y023127D03*
X020221Y023460D03*
X020284Y023127D03*
D78*
X020070Y022603D03*
X019277Y022651D03*
X018483Y022651D03*
X018483Y022667D03*
X018483Y022683D03*
X018483Y022635D03*
X017658Y023651D03*
X021212Y022699D03*
X021212Y022683D03*
D79*
X016286Y022619D03*
X016286Y023857D03*
D80*
X017309Y023841D03*
X017309Y023333D03*
X017309Y023286D03*
X017309Y022619D03*
X014993Y023159D03*
X014993Y023809D03*
X020260Y023095D03*
D81*
X019967Y023016D03*
X019951Y022762D03*
X019285Y022635D03*
X019285Y022619D03*
X018888Y023746D03*
X018888Y023762D03*
X018888Y023777D03*
X018888Y023793D03*
X018888Y023809D03*
D82*
X018880Y023619D03*
X018483Y022794D03*
X018483Y022778D03*
X018483Y022762D03*
X019277Y022778D03*
X020070Y022619D03*
X021212Y022762D03*
X021212Y022778D03*
D83*
X016278Y022635D03*
D84*
X017325Y022635D03*
X017325Y023270D03*
X017325Y023365D03*
X017325Y023825D03*
X015009Y023793D03*
X015009Y023175D03*
X020244Y023064D03*
D85*
X020070Y022635D03*
X019277Y022841D03*
X019277Y022857D03*
X018483Y022857D03*
X018483Y022841D03*
X018483Y022826D03*
X018483Y022873D03*
X021212Y022826D03*
X021212Y022810D03*
D86*
X021212Y022651D03*
X021212Y022635D03*
X020482Y023365D03*
D87*
X020078Y022667D03*
X019285Y022921D03*
X019285Y022937D03*
X018888Y023444D03*
X018888Y023460D03*
X018491Y022937D03*
X016286Y022651D03*
X016286Y023825D03*
X014842Y023889D03*
D88*
X017333Y023809D03*
X017333Y022651D03*
D89*
X018483Y022889D03*
X018483Y022905D03*
X018483Y022921D03*
X018880Y023476D03*
X018880Y023492D03*
X019277Y022905D03*
X019277Y022889D03*
X020070Y022651D03*
X021212Y022857D03*
X021212Y022873D03*
D90*
X020221Y022746D03*
X020221Y022730D03*
X017349Y022667D03*
X016286Y022778D03*
X016286Y023698D03*
X017349Y023777D03*
X015032Y023730D03*
X015032Y023238D03*
D91*
X015318Y023666D03*
X015984Y023651D03*
X015984Y022826D03*
X016587Y022826D03*
X016587Y023651D03*
X017714Y022826D03*
X019285Y022699D03*
X019285Y022683D03*
X019285Y022667D03*
X020474Y022762D03*
D92*
X021204Y022667D03*
D93*
X016286Y022683D03*
X016286Y023793D03*
D94*
X017357Y023762D03*
X017357Y023746D03*
X017357Y023238D03*
X017357Y022683D03*
X015040Y023254D03*
X015040Y023270D03*
X015040Y023698D03*
X015040Y023714D03*
D95*
X015017Y023777D03*
X015017Y023190D03*
X016286Y022762D03*
X016286Y023714D03*
X020236Y023048D03*
X020236Y022683D03*
D96*
X016278Y022699D03*
D97*
X016286Y022794D03*
X016286Y023682D03*
X017365Y023698D03*
X017365Y023714D03*
X017365Y023730D03*
X017365Y023222D03*
X017365Y022699D03*
X015048Y023286D03*
X015048Y023682D03*
D98*
X018483Y022746D03*
X018483Y022730D03*
X018483Y022714D03*
X018483Y022699D03*
X018880Y023682D03*
X020181Y023587D03*
X020467Y023222D03*
D99*
X020205Y023492D03*
X016286Y023762D03*
X016286Y022714D03*
X014953Y023857D03*
D100*
X017373Y023682D03*
X017373Y023666D03*
X017373Y023206D03*
X017373Y022714D03*
D101*
X019277Y022714D03*
X019277Y022730D03*
D102*
X021212Y022730D03*
X021212Y022714D03*
X021212Y022746D03*
D103*
X017293Y023317D03*
X016278Y022730D03*
X014977Y023841D03*
D104*
X016286Y023666D03*
X016286Y022810D03*
X017381Y022730D03*
X017381Y023190D03*
D105*
X016286Y022746D03*
X016286Y023730D03*
D106*
X019284Y022762D03*
X019284Y022746D03*
D107*
X017396Y022778D03*
X017396Y022794D03*
X017396Y023159D03*
D108*
X017396Y022810D03*
D109*
X017674Y022810D03*
D110*
X017745Y022841D03*
X017730Y023127D03*
D111*
X018888Y023508D03*
X018888Y023524D03*
X018888Y023539D03*
X019285Y022873D03*
X021204Y022841D03*
D112*
X015921Y022857D03*
D113*
X015826Y022952D03*
X015810Y022968D03*
X015810Y022984D03*
X015810Y023492D03*
X015826Y023524D03*
X015429Y023524D03*
X015429Y023539D03*
X015429Y023508D03*
X015429Y023492D03*
X015429Y023476D03*
X015429Y023460D03*
X015429Y023444D03*
X015429Y023428D03*
X015429Y023413D03*
X016635Y022873D03*
X020189Y023603D03*
D114*
X020514Y023317D03*
X020990Y023159D03*
X020990Y023143D03*
X021022Y023079D03*
X021022Y023064D03*
X021022Y023048D03*
X021498Y023317D03*
X021498Y023333D03*
X021498Y023349D03*
X021530Y023413D03*
X021530Y023428D03*
X021530Y023444D03*
X018261Y023365D03*
X018261Y023349D03*
X018261Y023333D03*
X015881Y023587D03*
X015881Y022889D03*
D115*
X015754Y023127D03*
X015754Y023349D03*
X016643Y022889D03*
X019927Y023381D03*
D116*
X021212Y022905D03*
X021212Y022889D03*
D117*
X016651Y022921D03*
D118*
X018888Y023381D03*
X018888Y023397D03*
X018888Y023413D03*
X019285Y023000D03*
X019285Y022984D03*
X021204Y022921D03*
D119*
X018658Y023064D03*
X018658Y023079D03*
X018658Y023095D03*
X018658Y023111D03*
X015834Y022937D03*
X015834Y023539D03*
D120*
X017182Y023904D03*
X018483Y023016D03*
X019277Y023016D03*
X020165Y023571D03*
X021212Y022952D03*
X021212Y022937D03*
D121*
X016651Y022952D03*
D122*
X016651Y022984D03*
X019840Y023317D03*
D123*
X019078Y023206D03*
X018317Y023127D03*
X018317Y023111D03*
X021046Y023000D03*
X021442Y023175D03*
D124*
X021395Y023048D03*
X021395Y023032D03*
X021395Y023016D03*
D125*
X020252Y023079D03*
X017317Y023349D03*
D126*
X016294Y023777D03*
X014929Y023873D03*
X014929Y023095D03*
X020181Y023539D03*
D127*
X020213Y023476D03*
X020292Y023143D03*
X014961Y023111D03*
D128*
X020332Y023175D03*
D129*
X019070Y023222D03*
X019070Y023238D03*
X019070Y023254D03*
X018690Y023238D03*
X018690Y023222D03*
X018690Y023206D03*
X018690Y023190D03*
D130*
X020363Y023190D03*
D131*
X019848Y023333D03*
X016659Y023508D03*
D132*
X020498Y023349D03*
D133*
X019895Y023365D03*
X016659Y023555D03*
D134*
X016659Y023492D03*
D135*
X016659Y023524D03*
D136*
X020189Y023524D03*
D137*
X016659Y023539D03*
D138*
X016651Y023571D03*
X016286Y023873D03*
D139*
X018888Y023730D03*
X018888Y023714D03*
X018888Y023698D03*
D140*
X016286Y023809D03*
D141*
X017277Y023873D03*
D142*
X017254Y023889D03*
D143*
X005947Y015941D02*
X005805Y015941D01*
X005238Y016508D01*
X005096Y016508D01*
X005096Y015941D01*
X005096Y015304D02*
X005947Y015304D01*
X005947Y015587D02*
X005947Y015020D01*
X005805Y014666D02*
X005238Y014666D01*
X005805Y014099D01*
X005947Y014241D01*
X005947Y014525D01*
X005805Y014666D01*
X005380Y015020D02*
X005096Y015304D01*
X005238Y014666D02*
X005096Y014525D01*
X005096Y014241D01*
X005238Y014099D01*
X005805Y014099D01*
X005947Y013746D02*
X005947Y013178D01*
X005380Y013746D01*
X005238Y013746D01*
X005096Y013604D01*
X005096Y013320D01*
X005238Y013178D01*
X005380Y012825D02*
X005947Y012825D01*
X005522Y012825D02*
X005522Y012258D01*
X005380Y012258D02*
X005096Y012541D01*
X005380Y012825D01*
X005380Y012258D02*
X005947Y012258D01*
X005947Y011904D02*
X005096Y011904D01*
X005522Y011904D02*
X005522Y011337D01*
X005663Y010983D02*
X005522Y010841D01*
X005522Y010558D01*
X005380Y010416D01*
X005238Y010416D01*
X005096Y010558D01*
X005096Y010841D01*
X005238Y010983D01*
X005096Y011337D02*
X005947Y011337D01*
X005805Y010983D02*
X005947Y010841D01*
X005947Y010558D01*
X005805Y010416D01*
X005805Y010983D02*
X005663Y010983D01*
D144*
X032699Y011029D02*
X038605Y011029D01*
X038605Y010911D02*
X032699Y010911D01*
X032699Y010792D02*
X038605Y010792D01*
X038605Y010674D02*
X032699Y010674D01*
X032699Y010555D02*
X038605Y010555D01*
X038605Y010437D02*
X032699Y010437D01*
X032699Y010318D02*
X038605Y010318D01*
X038605Y010200D02*
X032699Y010200D01*
X032699Y010081D02*
X038605Y010081D01*
X038605Y009963D02*
X032699Y009963D01*
X032699Y009844D02*
X038605Y009844D01*
X038605Y009726D02*
X032699Y009726D01*
X032699Y009607D02*
X038605Y009607D01*
X038605Y009489D02*
X032699Y009489D01*
X032699Y009370D02*
X038605Y009370D01*
X038605Y009252D02*
X032699Y009252D01*
X032699Y009133D02*
X038605Y009133D01*
X038605Y009015D02*
X032699Y009015D01*
X032699Y008896D02*
X038605Y008896D01*
X038605Y008778D02*
X032699Y008778D01*
X032699Y008659D02*
X038605Y008659D01*
X038605Y008589D02*
X038605Y021384D01*
X032699Y021384D01*
X032699Y005636D01*
X035652Y005636D01*
X035982Y005655D01*
X036309Y005710D01*
X036627Y005802D01*
X036933Y005929D01*
X037223Y006089D01*
X037493Y006280D01*
X037740Y006501D01*
X037960Y006748D01*
X038152Y007018D01*
X038312Y007308D01*
X038439Y007614D01*
X038531Y007932D01*
X038586Y008258D01*
X038605Y008589D01*
X038602Y008541D02*
X032699Y008541D01*
X032699Y008422D02*
X038595Y008422D01*
X038589Y008304D02*
X032699Y008304D01*
X032699Y008185D02*
X038574Y008185D01*
X038553Y008067D02*
X032699Y008067D01*
X032699Y007948D02*
X038533Y007948D01*
X038501Y007830D02*
X032699Y007830D01*
X032699Y007711D02*
X038467Y007711D01*
X038430Y007593D02*
X032699Y007593D01*
X032699Y007474D02*
X038381Y007474D01*
X038332Y007356D02*
X032699Y007356D01*
X032699Y007237D02*
X038273Y007237D01*
X038207Y007119D02*
X032699Y007119D01*
X032699Y007000D02*
X038139Y007000D01*
X038055Y006882D02*
X032699Y006882D01*
X032699Y006763D02*
X037971Y006763D01*
X037868Y006645D02*
X032699Y006645D01*
X032699Y006526D02*
X037762Y006526D01*
X037635Y006408D02*
X032699Y006408D01*
X032699Y006289D02*
X037502Y006289D01*
X037338Y006171D02*
X032699Y006171D01*
X032699Y006052D02*
X037156Y006052D01*
X036942Y005934D02*
X032699Y005934D01*
X032699Y005815D02*
X036658Y005815D01*
X036228Y005697D02*
X032699Y005697D01*
X032699Y011148D02*
X038605Y011148D01*
X038605Y011266D02*
X032699Y011266D01*
X032699Y011385D02*
X038605Y011385D01*
X038605Y011503D02*
X032699Y011503D01*
X032699Y011622D02*
X038605Y011622D01*
X038605Y011740D02*
X032699Y011740D01*
X032699Y011859D02*
X038605Y011859D01*
X038605Y011977D02*
X032699Y011977D01*
X032699Y012096D02*
X038605Y012096D01*
X038605Y012214D02*
X032699Y012214D01*
X032699Y012333D02*
X038605Y012333D01*
X038605Y012451D02*
X032699Y012451D01*
X032699Y012570D02*
X038605Y012570D01*
X038605Y012688D02*
X032699Y012688D01*
X032699Y012807D02*
X038605Y012807D01*
X038605Y012925D02*
X032699Y012925D01*
X032699Y013044D02*
X038605Y013044D01*
X038605Y013162D02*
X032699Y013162D01*
X032699Y013281D02*
X038605Y013281D01*
X038605Y013399D02*
X032699Y013399D01*
X032699Y013518D02*
X038605Y013518D01*
X038605Y013636D02*
X032699Y013636D01*
X032699Y013755D02*
X038605Y013755D01*
X038605Y013873D02*
X032699Y013873D01*
X032699Y013992D02*
X038605Y013992D01*
X038605Y014110D02*
X032699Y014110D01*
X032699Y014229D02*
X038605Y014229D01*
X038605Y014347D02*
X032699Y014347D01*
X032699Y014466D02*
X038605Y014466D01*
X038605Y014584D02*
X032699Y014584D01*
X032699Y014703D02*
X038605Y014703D01*
X038605Y014821D02*
X032699Y014821D01*
X032699Y014940D02*
X038605Y014940D01*
X038605Y015058D02*
X032699Y015058D01*
X032699Y015177D02*
X038605Y015177D01*
X038605Y015295D02*
X032699Y015295D01*
X032699Y015414D02*
X038605Y015414D01*
X038605Y015532D02*
X032699Y015532D01*
X032699Y015651D02*
X038605Y015651D01*
X038605Y015769D02*
X032699Y015769D01*
X032699Y015888D02*
X038605Y015888D01*
X038605Y016006D02*
X032699Y016006D01*
X032699Y016125D02*
X038605Y016125D01*
X038605Y016243D02*
X032699Y016243D01*
X032699Y016362D02*
X038605Y016362D01*
X038605Y016480D02*
X032699Y016480D01*
X032699Y016599D02*
X038605Y016599D01*
X038605Y016717D02*
X032699Y016717D01*
X032699Y016836D02*
X038605Y016836D01*
X038605Y016954D02*
X032699Y016954D01*
X032699Y017073D02*
X038605Y017073D01*
X038605Y017191D02*
X032699Y017191D01*
X032699Y017310D02*
X038605Y017310D01*
X038605Y017428D02*
X032699Y017428D01*
X032699Y017547D02*
X038605Y017547D01*
X038605Y017665D02*
X032699Y017665D01*
X032699Y017784D02*
X038605Y017784D01*
X038605Y017902D02*
X032699Y017902D01*
X032699Y018021D02*
X038605Y018021D01*
X038605Y018139D02*
X032699Y018139D01*
X032699Y018258D02*
X038605Y018258D01*
X038605Y018376D02*
X032699Y018376D01*
X032699Y018495D02*
X038605Y018495D01*
X038605Y018613D02*
X032699Y018613D01*
X032699Y018732D02*
X038605Y018732D01*
X038605Y018850D02*
X032699Y018850D01*
X032699Y018969D02*
X038605Y018969D01*
X038605Y019087D02*
X032699Y019087D01*
X032699Y019206D02*
X038605Y019206D01*
X038605Y019324D02*
X032699Y019324D01*
X032699Y019443D02*
X038605Y019443D01*
X038605Y019561D02*
X032699Y019561D01*
X032699Y019680D02*
X038605Y019680D01*
X038605Y019798D02*
X032699Y019798D01*
X032699Y019917D02*
X038605Y019917D01*
X038605Y020035D02*
X032699Y020035D01*
X032699Y020154D02*
X038605Y020154D01*
X038605Y020272D02*
X032699Y020272D01*
X032699Y020391D02*
X038605Y020391D01*
X038605Y020509D02*
X032699Y020509D01*
X032699Y020628D02*
X038605Y020628D01*
X038605Y020746D02*
X032699Y020746D01*
X032699Y020865D02*
X038605Y020865D01*
X038605Y020983D02*
X032699Y020983D01*
X032699Y021102D02*
X038605Y021102D01*
X038605Y021220D02*
X032699Y021220D01*
X032699Y021339D02*
X038605Y021339D01*
D145*
X035337Y024790D02*
X033762Y024790D01*
X034152Y024648D02*
X034332Y024377D01*
X034447Y024377D02*
X034627Y024377D01*
X034537Y024377D02*
X034537Y024648D01*
X034447Y024558D01*
X034332Y024648D02*
X034152Y024377D01*
X033376Y025281D02*
X033286Y025281D01*
X033241Y025326D01*
X033241Y025371D01*
X033286Y025416D01*
X033376Y025416D01*
X033421Y025371D01*
X033421Y025326D01*
X033376Y025281D01*
X033376Y025416D02*
X033421Y025462D01*
X033421Y025507D01*
X033376Y025552D01*
X033286Y025552D01*
X033241Y025507D01*
X033241Y025462D01*
X033286Y025416D01*
X033126Y025371D02*
X033126Y025326D01*
X033081Y025281D01*
X032991Y025281D01*
X032946Y025326D01*
X032831Y025326D02*
X032786Y025281D01*
X032696Y025281D01*
X032651Y025326D01*
X032651Y025507D01*
X032696Y025552D01*
X032786Y025552D01*
X032831Y025507D01*
X032946Y025507D02*
X032991Y025552D01*
X033081Y025552D01*
X033126Y025507D01*
X033126Y025462D01*
X033081Y025416D01*
X033126Y025371D01*
X033081Y025416D02*
X033036Y025416D01*
X033011Y025695D02*
X032966Y025740D01*
X033011Y025695D02*
X033101Y025695D01*
X033146Y025740D01*
X033146Y025785D01*
X033101Y025830D01*
X033056Y025830D01*
X033101Y025830D02*
X033146Y025875D01*
X033146Y025920D01*
X033101Y025965D01*
X033011Y025965D01*
X032966Y025920D01*
X032851Y025920D02*
X032806Y025965D01*
X032716Y025965D01*
X032671Y025920D01*
X032671Y025740D01*
X032716Y025695D01*
X032806Y025695D01*
X032851Y025740D01*
X032871Y026100D02*
X032916Y026145D01*
X032916Y026235D01*
X032871Y026280D01*
X032871Y026395D02*
X032916Y026440D01*
X032916Y026530D01*
X032871Y026575D01*
X032826Y026575D01*
X032781Y026530D01*
X032781Y026485D01*
X032781Y026530D02*
X032736Y026575D01*
X032691Y026575D01*
X032646Y026530D01*
X032646Y026440D01*
X032691Y026395D01*
X032691Y026280D02*
X032646Y026235D01*
X032646Y026145D01*
X032691Y026100D01*
X032871Y026100D01*
X033260Y025965D02*
X033260Y025830D01*
X033350Y025875D01*
X033395Y025875D01*
X033440Y025830D01*
X033440Y025740D01*
X033395Y025695D01*
X033305Y025695D01*
X033260Y025740D01*
X033260Y025965D02*
X033440Y025965D01*
X032871Y026690D02*
X032916Y026735D01*
X032916Y026825D01*
X032871Y026870D01*
X032826Y026870D01*
X032781Y026825D01*
X032781Y026780D01*
X032781Y026825D02*
X032736Y026870D01*
X032691Y026870D01*
X032646Y026825D01*
X032646Y026735D01*
X032691Y026690D01*
X032702Y027010D02*
X032882Y027010D01*
X032927Y027055D01*
X032927Y027145D01*
X032882Y027190D01*
X032792Y027304D02*
X032792Y027484D01*
X032657Y027439D02*
X032792Y027304D01*
X032702Y027190D02*
X032657Y027145D01*
X032657Y027055D01*
X032702Y027010D01*
X032657Y027439D02*
X032927Y027439D01*
X032927Y027599D02*
X032747Y027779D01*
X032702Y027779D01*
X032657Y027734D01*
X032657Y027644D01*
X032702Y027599D01*
X032927Y027599D02*
X032927Y027779D01*
X032187Y027835D02*
X032006Y028016D01*
X031961Y028016D01*
X031916Y027970D01*
X031916Y027880D01*
X031961Y027835D01*
X031961Y027721D02*
X032051Y027721D01*
X032096Y027676D01*
X032096Y027541D01*
X032096Y027631D02*
X032187Y027721D01*
X032187Y027835D02*
X032187Y028016D01*
X032142Y028130D02*
X032187Y028175D01*
X032187Y028265D01*
X032142Y028310D01*
X032096Y028310D01*
X032051Y028265D01*
X032051Y028130D01*
X032142Y028130D01*
X032051Y028130D02*
X031961Y028220D01*
X031916Y028310D01*
X031942Y028864D02*
X032122Y029044D01*
X032122Y029089D01*
X032077Y029134D01*
X031987Y029134D01*
X031942Y029089D01*
X031827Y029089D02*
X031782Y029134D01*
X031692Y029134D01*
X031647Y029089D01*
X031647Y028909D01*
X031692Y028864D01*
X031782Y028864D01*
X031827Y028909D01*
X031942Y028864D02*
X032122Y028864D01*
X032237Y028864D02*
X032417Y028864D01*
X032327Y028864D02*
X032327Y029134D01*
X032237Y029044D01*
X031961Y027721D02*
X031916Y027676D01*
X031916Y027541D01*
X032187Y027541D01*
X031164Y027106D02*
X031164Y026926D01*
X030984Y027106D01*
X030939Y027106D01*
X030894Y027061D01*
X030894Y026971D01*
X030939Y026926D01*
X030939Y026811D02*
X030984Y026811D01*
X031029Y026766D01*
X031074Y026811D01*
X031119Y026811D01*
X031164Y026766D01*
X031164Y026676D01*
X031119Y026631D01*
X031119Y026517D02*
X031164Y026472D01*
X031164Y026382D01*
X031119Y026336D01*
X030939Y026336D01*
X030894Y026382D01*
X030894Y026472D01*
X030939Y026517D01*
X030939Y026631D02*
X030894Y026676D01*
X030894Y026766D01*
X030939Y026811D01*
X031029Y026766D02*
X031029Y026721D01*
X030388Y026519D02*
X030343Y026564D01*
X030253Y026564D01*
X030208Y026519D01*
X030208Y026474D01*
X030253Y026429D01*
X030388Y026429D01*
X030388Y026339D02*
X030388Y026519D01*
X030388Y026339D02*
X030343Y026294D01*
X030253Y026294D01*
X030208Y026339D01*
X030093Y026339D02*
X030093Y026519D01*
X030048Y026564D01*
X029913Y026564D01*
X029913Y026294D01*
X030048Y026294D01*
X030093Y026339D01*
X030168Y026144D02*
X030168Y026009D01*
X030258Y026054D01*
X030303Y026054D01*
X030348Y026009D01*
X030348Y025919D01*
X030303Y025874D01*
X030213Y025874D01*
X030168Y025919D01*
X030054Y025919D02*
X030009Y025874D01*
X029918Y025874D01*
X029873Y025919D01*
X029759Y025874D02*
X029669Y025964D01*
X029714Y025964D02*
X029579Y025964D01*
X029579Y025874D02*
X029579Y026144D01*
X029714Y026144D01*
X029759Y026099D01*
X029759Y026009D01*
X029714Y025964D01*
X029873Y026099D02*
X029918Y026144D01*
X030009Y026144D01*
X030054Y026099D01*
X030054Y026054D01*
X030009Y026009D01*
X030054Y025964D01*
X030054Y025919D01*
X030009Y026009D02*
X029964Y026009D01*
X030168Y026144D02*
X030348Y026144D01*
X030239Y025739D02*
X030284Y025694D01*
X030284Y025604D01*
X030239Y025558D01*
X030149Y025649D02*
X030149Y025694D01*
X030194Y025739D01*
X030239Y025739D01*
X030149Y025694D02*
X030104Y025739D01*
X030059Y025739D01*
X030014Y025694D01*
X030014Y025604D01*
X030059Y025558D01*
X030014Y025444D02*
X030014Y025354D01*
X030014Y025399D02*
X030239Y025399D01*
X030284Y025354D01*
X030284Y025309D01*
X030239Y025264D01*
X030239Y025149D02*
X030284Y025104D01*
X030284Y025014D01*
X030239Y024969D01*
X030149Y025014D02*
X030149Y025104D01*
X030194Y025149D01*
X030239Y025149D01*
X030149Y025014D02*
X030104Y024969D01*
X030059Y024969D01*
X030014Y025014D01*
X030014Y025104D01*
X030059Y025149D01*
X029208Y025700D02*
X029208Y025745D01*
X029163Y025791D01*
X029028Y025791D01*
X029028Y025700D01*
X029073Y025655D01*
X029163Y025655D01*
X029208Y025700D01*
X029028Y025791D02*
X029118Y025881D01*
X029208Y025926D01*
X028913Y025881D02*
X028913Y025836D01*
X028868Y025791D01*
X028913Y025745D01*
X028913Y025700D01*
X028868Y025655D01*
X028778Y025655D01*
X028733Y025700D01*
X028619Y025700D02*
X028574Y025655D01*
X028484Y025655D01*
X028439Y025700D01*
X028439Y025881D01*
X028484Y025926D01*
X028574Y025926D01*
X028619Y025881D01*
X028733Y025881D02*
X028778Y025926D01*
X028868Y025926D01*
X028913Y025881D01*
X028868Y025791D02*
X028823Y025791D01*
X029445Y026256D02*
X029445Y026391D01*
X029490Y026436D01*
X029670Y026436D01*
X029715Y026391D01*
X029715Y026256D01*
X029445Y026256D01*
X029490Y026551D02*
X029535Y026551D01*
X029580Y026596D01*
X029580Y026686D01*
X029625Y026731D01*
X029670Y026731D01*
X029715Y026686D01*
X029715Y026596D01*
X029670Y026551D01*
X029625Y026551D01*
X029580Y026596D01*
X029580Y026686D02*
X029535Y026731D01*
X029490Y026731D01*
X029445Y026686D01*
X029445Y026596D01*
X029490Y026551D01*
X028061Y026985D02*
X028061Y027120D01*
X028016Y027165D01*
X027836Y027165D01*
X027791Y027120D01*
X027791Y026985D01*
X028061Y026985D01*
X028061Y027279D02*
X028016Y027279D01*
X027836Y027459D01*
X027791Y027459D01*
X027791Y027279D01*
X027137Y027292D02*
X027137Y027247D01*
X027092Y027202D01*
X027002Y027202D01*
X026957Y027247D01*
X026842Y027202D02*
X026662Y027202D01*
X026842Y027382D01*
X026842Y027427D01*
X026797Y027472D01*
X026707Y027472D01*
X026662Y027427D01*
X026548Y027427D02*
X026503Y027472D01*
X026413Y027472D01*
X026368Y027427D01*
X026368Y027247D01*
X026413Y027202D01*
X026503Y027202D01*
X026548Y027247D01*
X026957Y027427D02*
X027002Y027472D01*
X027092Y027472D01*
X027137Y027427D01*
X027137Y027382D01*
X027092Y027337D01*
X027137Y027292D01*
X027092Y027337D02*
X027047Y027337D01*
X027064Y028254D02*
X026974Y028344D01*
X027019Y028344D02*
X026884Y028344D01*
X026884Y028254D02*
X026884Y028524D01*
X027019Y028524D01*
X027064Y028479D01*
X027064Y028389D01*
X027019Y028344D01*
X027178Y028299D02*
X027223Y028254D01*
X027313Y028254D01*
X027358Y028299D01*
X027358Y028344D01*
X027313Y028389D01*
X027268Y028389D01*
X027313Y028389D02*
X027358Y028434D01*
X027358Y028479D01*
X027313Y028524D01*
X027223Y028524D01*
X027178Y028479D01*
X027473Y028479D02*
X027518Y028524D01*
X027608Y028524D01*
X027653Y028479D01*
X027653Y028434D01*
X027473Y028254D01*
X027653Y028254D01*
X028044Y028690D02*
X028224Y028690D01*
X028269Y028735D01*
X028269Y028825D01*
X028224Y028870D01*
X028269Y028984D02*
X028089Y029164D01*
X028044Y029164D01*
X027999Y029119D01*
X027999Y029029D01*
X028044Y028984D01*
X028044Y028870D02*
X027999Y028825D01*
X027999Y028735D01*
X028044Y028690D01*
X028269Y028984D02*
X028269Y029164D01*
X028269Y029279D02*
X028089Y029459D01*
X028044Y029459D01*
X027999Y029414D01*
X027999Y029324D01*
X028044Y029279D01*
X028269Y029279D02*
X028269Y029459D01*
X028172Y029748D02*
X028217Y029793D01*
X028217Y029883D01*
X028172Y029928D01*
X028217Y030043D02*
X028037Y030223D01*
X027992Y030223D01*
X027947Y030178D01*
X027947Y030088D01*
X027992Y030043D01*
X027992Y029928D02*
X027947Y029883D01*
X027947Y029793D01*
X027992Y029748D01*
X028172Y029748D01*
X028217Y030043D02*
X028217Y030223D01*
X028172Y030337D02*
X027992Y030517D01*
X028172Y030517D01*
X028217Y030472D01*
X028217Y030382D01*
X028172Y030337D01*
X027992Y030337D01*
X027947Y030382D01*
X027947Y030472D01*
X027992Y030517D01*
X028664Y030506D02*
X028664Y030596D01*
X028709Y030641D01*
X028890Y030641D01*
X028935Y030596D01*
X028935Y030506D01*
X028890Y030461D01*
X028799Y030506D02*
X028799Y030641D01*
X028799Y030506D02*
X028754Y030461D01*
X028709Y030461D01*
X028664Y030506D01*
X028664Y030256D02*
X028935Y030256D01*
X028935Y030166D02*
X028935Y030346D01*
X028754Y030166D02*
X028664Y030256D01*
X028709Y030052D02*
X028799Y030052D01*
X028845Y030007D01*
X028845Y029871D01*
X028935Y029871D02*
X028664Y029871D01*
X028664Y030007D01*
X028709Y030052D01*
X028845Y029962D02*
X028935Y030052D01*
X029791Y030006D02*
X029791Y029736D01*
X029971Y029736D01*
X030086Y029736D02*
X030266Y029736D01*
X030176Y029736D02*
X030176Y030006D01*
X030086Y029916D01*
X030752Y030379D02*
X030752Y030469D01*
X030797Y030514D01*
X030977Y030514D01*
X031022Y030469D01*
X031022Y030379D01*
X030977Y030334D01*
X030797Y030334D01*
X030752Y030379D01*
X030932Y030424D02*
X031022Y030514D01*
X030977Y030628D02*
X031022Y030673D01*
X031022Y030763D01*
X030977Y030808D01*
X030887Y030808D01*
X030842Y030763D01*
X030842Y030718D01*
X030887Y030628D01*
X030752Y030628D01*
X030752Y030808D01*
X031509Y030664D02*
X031509Y030484D01*
X031555Y030439D01*
X031645Y030439D01*
X031690Y030484D01*
X031804Y030439D02*
X031984Y030439D01*
X031894Y030439D02*
X031894Y030709D01*
X031804Y030619D01*
X031690Y030664D02*
X031645Y030709D01*
X031555Y030709D01*
X031509Y030664D01*
X032099Y030664D02*
X032099Y030619D01*
X032144Y030574D01*
X032279Y030574D01*
X032279Y030664D02*
X032234Y030709D01*
X032144Y030709D01*
X032099Y030664D01*
X032279Y030664D02*
X032279Y030484D01*
X032234Y030439D01*
X032144Y030439D01*
X032099Y030484D01*
X031179Y029545D02*
X031134Y029590D01*
X031089Y029590D01*
X031044Y029545D01*
X031044Y029410D01*
X031134Y029410D01*
X031179Y029455D01*
X031179Y029545D01*
X031044Y029410D02*
X030954Y029500D01*
X030909Y029590D01*
X031044Y029295D02*
X031044Y029115D01*
X030909Y029250D01*
X031179Y029250D01*
X031134Y029001D02*
X031179Y028956D01*
X031179Y028866D01*
X031134Y028821D01*
X030954Y028821D01*
X030909Y028866D01*
X030909Y028956D01*
X030954Y029001D01*
X030212Y028465D02*
X030032Y028465D01*
X030032Y028330D01*
X030122Y028375D01*
X030167Y028375D01*
X030212Y028330D01*
X030212Y028240D01*
X030167Y028195D01*
X030077Y028195D01*
X030032Y028240D01*
X029917Y028195D02*
X029737Y028195D01*
X029917Y028375D01*
X029917Y028420D01*
X029872Y028465D01*
X029782Y028465D01*
X029737Y028420D01*
X029623Y028420D02*
X029578Y028465D01*
X029488Y028465D01*
X029443Y028420D01*
X029443Y028240D01*
X029488Y028195D01*
X029578Y028195D01*
X029623Y028240D01*
X027222Y029092D02*
X027042Y028911D01*
X027042Y028866D01*
X026928Y028866D02*
X026747Y028866D01*
X026838Y028866D02*
X026838Y029137D01*
X026747Y029047D01*
X026633Y029092D02*
X026588Y029137D01*
X026498Y029137D01*
X026453Y029092D01*
X026453Y028911D01*
X026498Y028866D01*
X026588Y028866D01*
X026633Y028911D01*
X027042Y029137D02*
X027222Y029137D01*
X027222Y029092D01*
X026372Y029383D02*
X026327Y029338D01*
X026237Y029338D01*
X026192Y029383D01*
X026372Y029563D01*
X026372Y029383D01*
X026372Y029563D02*
X026327Y029608D01*
X026237Y029608D01*
X026192Y029563D01*
X026192Y029383D01*
X026077Y029383D02*
X026032Y029338D01*
X025942Y029338D01*
X025897Y029383D01*
X025783Y029338D02*
X025692Y029428D01*
X025738Y029428D02*
X025602Y029428D01*
X025602Y029338D02*
X025602Y029608D01*
X025738Y029608D01*
X025783Y029563D01*
X025783Y029473D01*
X025738Y029428D01*
X025897Y029563D02*
X025942Y029608D01*
X026032Y029608D01*
X026077Y029563D01*
X026077Y029518D01*
X026032Y029473D01*
X026077Y029428D01*
X026077Y029383D01*
X026032Y029473D02*
X025987Y029473D01*
X025206Y028425D02*
X024935Y028425D01*
X025070Y028290D01*
X025070Y028470D01*
X025025Y028175D02*
X024980Y028175D01*
X024935Y028130D01*
X024935Y028040D01*
X024980Y027995D01*
X024980Y027881D02*
X024935Y027836D01*
X024935Y027746D01*
X024980Y027701D01*
X025161Y027701D01*
X025206Y027746D01*
X025206Y027836D01*
X025161Y027881D01*
X025206Y027995D02*
X025025Y028175D01*
X025206Y028175D02*
X025206Y027995D01*
X024385Y029120D02*
X024205Y029120D01*
X024295Y029120D02*
X024295Y029390D01*
X024205Y029300D01*
X024091Y029300D02*
X024091Y029345D01*
X024046Y029390D01*
X023955Y029390D01*
X023910Y029345D01*
X023796Y029345D02*
X023796Y029255D01*
X023751Y029210D01*
X023616Y029210D01*
X023706Y029210D02*
X023796Y029120D01*
X023910Y029120D02*
X024091Y029300D01*
X024091Y029120D02*
X023910Y029120D01*
X023796Y029345D02*
X023751Y029390D01*
X023616Y029390D01*
X023616Y029120D01*
X023616Y029750D02*
X023616Y030020D01*
X023751Y030020D01*
X023796Y029975D01*
X023796Y029885D01*
X023751Y029840D01*
X023616Y029840D01*
X023706Y029840D02*
X023796Y029750D01*
X023910Y029750D02*
X024091Y029930D01*
X024091Y029975D01*
X024046Y030020D01*
X023955Y030020D01*
X023910Y029975D01*
X023910Y029750D02*
X024091Y029750D01*
X024205Y029795D02*
X024385Y029975D01*
X024385Y029795D01*
X024340Y029750D01*
X024250Y029750D01*
X024205Y029795D01*
X024205Y029975D01*
X024250Y030020D01*
X024340Y030020D01*
X024385Y029975D01*
X024340Y030459D02*
X024385Y030504D01*
X024385Y030549D01*
X024340Y030594D01*
X024205Y030594D01*
X024205Y030504D01*
X024250Y030459D01*
X024340Y030459D01*
X024205Y030594D02*
X024295Y030684D01*
X024385Y030729D01*
X024340Y031108D02*
X024385Y031153D01*
X024385Y031198D01*
X024340Y031243D01*
X024205Y031243D01*
X024205Y031153D01*
X024250Y031108D01*
X024340Y031108D01*
X024205Y031243D02*
X024295Y031333D01*
X024385Y031378D01*
X024584Y031412D02*
X024584Y031322D01*
X024629Y031277D01*
X024809Y031277D01*
X024854Y031322D01*
X024854Y031412D01*
X024809Y031457D01*
X024854Y031572D02*
X024854Y031752D01*
X024854Y031662D02*
X024584Y031662D01*
X024674Y031572D01*
X024629Y031457D02*
X024584Y031412D01*
X024584Y031866D02*
X024719Y031866D01*
X024674Y031956D01*
X024674Y032001D01*
X024719Y032046D01*
X024809Y032046D01*
X024854Y032001D01*
X024854Y031911D01*
X024809Y031866D01*
X024584Y031866D02*
X024584Y032046D01*
X024630Y032247D02*
X024810Y032247D01*
X024855Y032292D01*
X024855Y032382D01*
X024810Y032427D01*
X024855Y032542D02*
X024855Y032722D01*
X024855Y032632D02*
X024585Y032632D01*
X024675Y032542D01*
X024630Y032427D02*
X024585Y032382D01*
X024585Y032292D01*
X024630Y032247D01*
X024107Y032315D02*
X023836Y032315D01*
X023836Y032450D01*
X023881Y032495D01*
X023972Y032495D01*
X024017Y032450D01*
X024017Y032315D01*
X024017Y032405D02*
X024107Y032495D01*
X024107Y032610D02*
X024107Y032790D01*
X024107Y032700D02*
X023836Y032700D01*
X023926Y032610D01*
X023972Y032904D02*
X023972Y033085D01*
X024107Y033040D02*
X023836Y033040D01*
X023972Y032904D01*
X023850Y033388D02*
X023850Y033523D01*
X023895Y033568D01*
X024076Y033568D01*
X024121Y033523D01*
X024121Y033388D01*
X023850Y033388D01*
X023850Y033682D02*
X023986Y033682D01*
X023940Y033772D01*
X023940Y033818D01*
X023986Y033863D01*
X024076Y033863D01*
X024121Y033818D01*
X024121Y033727D01*
X024076Y033682D01*
X023850Y033682D02*
X023850Y033863D01*
X023841Y034008D02*
X023841Y034143D01*
X023886Y034188D01*
X024066Y034188D01*
X024111Y034143D01*
X024111Y034008D01*
X023841Y034008D01*
X023976Y034303D02*
X023976Y034483D01*
X023841Y034438D02*
X023976Y034303D01*
X024111Y034438D02*
X023841Y034438D01*
X023855Y034676D02*
X023855Y034811D01*
X023900Y034856D01*
X023990Y034856D01*
X024035Y034811D01*
X024035Y034676D01*
X024035Y034766D02*
X024125Y034856D01*
X024080Y034970D02*
X024125Y035015D01*
X024125Y035105D01*
X024080Y035150D01*
X024035Y035150D01*
X023990Y035105D01*
X023990Y035060D01*
X023990Y035105D02*
X023945Y035150D01*
X023900Y035150D01*
X023855Y035105D01*
X023855Y035015D01*
X023900Y034970D01*
X023855Y034676D02*
X024125Y034676D01*
X024391Y034157D02*
X024526Y034022D01*
X024526Y034202D01*
X024661Y034157D02*
X024391Y034157D01*
X024436Y033908D02*
X024526Y033908D01*
X024571Y033863D01*
X024571Y033728D01*
X024571Y033818D02*
X024661Y033908D01*
X024661Y033728D02*
X024391Y033728D01*
X024391Y033863D01*
X024436Y033908D01*
X025359Y033780D02*
X025494Y033780D01*
X025539Y033825D01*
X025539Y034005D01*
X025494Y034050D01*
X025359Y034050D01*
X025359Y033780D01*
X025653Y033825D02*
X025698Y033780D01*
X025789Y033780D01*
X025834Y033825D01*
X025834Y033870D01*
X025789Y033915D01*
X025743Y033915D01*
X025789Y033915D02*
X025834Y033960D01*
X025834Y034005D01*
X025789Y034050D01*
X025698Y034050D01*
X025653Y034005D01*
X026188Y034017D02*
X026233Y033972D01*
X026278Y033972D01*
X026323Y034017D01*
X026323Y034152D01*
X026413Y034152D02*
X026233Y034152D01*
X026188Y034107D01*
X026188Y034017D01*
X026233Y033858D02*
X026323Y033858D01*
X026368Y033813D01*
X026368Y033677D01*
X026458Y033677D02*
X026188Y033677D01*
X026188Y033813D01*
X026233Y033858D01*
X026368Y033768D02*
X026458Y033858D01*
X026413Y033972D02*
X026458Y034017D01*
X026458Y034107D01*
X026413Y034152D01*
X027303Y034927D02*
X027303Y035107D01*
X027348Y035152D01*
X027438Y035152D01*
X027483Y035107D01*
X027597Y035062D02*
X027688Y035152D01*
X027688Y034882D01*
X027778Y034882D02*
X027597Y034882D01*
X027483Y034927D02*
X027438Y034882D01*
X027348Y034882D01*
X027303Y034927D01*
X027892Y034927D02*
X027937Y034882D01*
X028027Y034882D01*
X028072Y034927D01*
X028072Y034972D01*
X028027Y035017D01*
X027982Y035017D01*
X028027Y035017D02*
X028072Y035062D01*
X028072Y035107D01*
X028027Y035152D01*
X027937Y035152D01*
X027892Y035107D01*
X028629Y034559D02*
X028629Y034469D01*
X028674Y034424D01*
X028854Y034424D01*
X028674Y034604D01*
X028854Y034604D01*
X028899Y034559D01*
X028899Y034469D01*
X028854Y034424D01*
X028899Y034310D02*
X028899Y034130D01*
X028899Y034220D02*
X028629Y034220D01*
X028719Y034130D01*
X028764Y034015D02*
X028809Y033970D01*
X028809Y033835D01*
X028899Y033835D02*
X028629Y033835D01*
X028629Y033970D01*
X028674Y034015D01*
X028764Y034015D01*
X028809Y033925D02*
X028899Y034015D01*
X028629Y034559D02*
X028674Y034604D01*
X028858Y033326D02*
X028948Y033326D01*
X028903Y033326D02*
X028903Y033056D01*
X028858Y033056D02*
X028948Y033056D01*
X029054Y033101D02*
X029099Y033056D01*
X029189Y033056D01*
X029235Y033101D01*
X029349Y033056D02*
X029529Y033236D01*
X029529Y033281D01*
X029484Y033326D01*
X029394Y033326D01*
X029349Y033281D01*
X029235Y033281D02*
X029189Y033326D01*
X029099Y033326D01*
X029054Y033281D01*
X029054Y033101D01*
X029349Y033056D02*
X029529Y033056D01*
X030203Y033835D02*
X030203Y033970D01*
X030248Y034015D01*
X030339Y034015D01*
X030384Y033970D01*
X030384Y033835D01*
X030474Y033835D02*
X030203Y033835D01*
X030384Y033925D02*
X030474Y034015D01*
X030474Y034130D02*
X030474Y034310D01*
X030474Y034220D02*
X030203Y034220D01*
X030294Y034130D01*
X030294Y034424D02*
X030203Y034514D01*
X030474Y034514D01*
X030474Y034424D02*
X030474Y034604D01*
X031267Y035679D02*
X031267Y035949D01*
X031402Y035949D01*
X031447Y035904D01*
X031447Y035814D01*
X031402Y035769D01*
X031267Y035769D01*
X031357Y035769D02*
X031447Y035679D01*
X031562Y035679D02*
X031742Y035859D01*
X031742Y035904D01*
X031697Y035949D01*
X031607Y035949D01*
X031562Y035904D01*
X031562Y035679D02*
X031742Y035679D01*
X030354Y036263D02*
X030174Y036263D01*
X030354Y036443D01*
X030354Y036488D01*
X030309Y036533D01*
X030219Y036533D01*
X030174Y036488D01*
X030060Y036488D02*
X030060Y036308D01*
X030014Y036263D01*
X029924Y036263D01*
X029879Y036308D01*
X029879Y036488D01*
X029924Y036533D01*
X030014Y036533D01*
X030060Y036488D01*
X029969Y036353D02*
X030060Y036263D01*
X028819Y036263D02*
X028639Y036263D01*
X028729Y036263D02*
X028729Y036533D01*
X028639Y036443D01*
X028524Y036488D02*
X028524Y036308D01*
X028479Y036263D01*
X028389Y036263D01*
X028344Y036308D01*
X028344Y036488D01*
X028389Y036533D01*
X028479Y036533D01*
X028524Y036488D01*
X028434Y036353D02*
X028524Y036263D01*
X027693Y037080D02*
X027693Y037170D01*
X027648Y037215D01*
X027648Y037329D02*
X027693Y037374D01*
X027693Y037464D01*
X027648Y037509D01*
X027603Y037509D01*
X027558Y037464D01*
X027558Y037419D01*
X027558Y037464D02*
X027513Y037509D01*
X027468Y037509D01*
X027423Y037464D01*
X027423Y037374D01*
X027468Y037329D01*
X027468Y037215D02*
X027423Y037170D01*
X027423Y037080D01*
X027468Y037035D01*
X027648Y037035D01*
X027693Y037080D01*
X027278Y036494D02*
X027188Y036494D01*
X027143Y036449D01*
X027028Y036494D02*
X026848Y036494D01*
X026938Y036494D02*
X026938Y036224D01*
X027143Y036224D02*
X027323Y036404D01*
X027323Y036449D01*
X027278Y036494D01*
X027323Y036224D02*
X027143Y036224D01*
X025323Y036077D02*
X025143Y036077D01*
X025233Y036077D02*
X025233Y036347D01*
X025143Y036257D01*
X025028Y036347D02*
X024848Y036347D01*
X024938Y036347D02*
X024938Y036077D01*
X023573Y037585D02*
X023618Y037630D01*
X023618Y037720D01*
X023573Y037765D01*
X023528Y037765D01*
X023438Y037720D01*
X023438Y037855D01*
X023618Y037855D01*
X023573Y037585D02*
X023483Y037585D01*
X023438Y037630D01*
X023324Y037630D02*
X023278Y037585D01*
X023188Y037585D01*
X023143Y037630D01*
X023143Y037810D01*
X023188Y037855D01*
X023278Y037855D01*
X023324Y037810D01*
X022922Y037042D02*
X022922Y036772D01*
X022832Y036772D02*
X023012Y036772D01*
X022832Y036952D02*
X022922Y037042D01*
X022718Y037042D02*
X022537Y037042D01*
X022537Y036772D01*
X022537Y036907D02*
X022628Y036907D01*
X022965Y035589D02*
X023235Y035589D01*
X023235Y035499D02*
X023235Y035679D01*
X023055Y035499D02*
X022965Y035589D01*
X023010Y035385D02*
X022965Y035340D01*
X022965Y035205D01*
X023235Y035205D01*
X023235Y035340D01*
X023190Y035385D01*
X023010Y035385D01*
X021468Y035201D02*
X021288Y035201D01*
X021378Y035201D02*
X021378Y035471D01*
X021288Y035381D01*
X021173Y035426D02*
X021128Y035471D01*
X021038Y035471D01*
X020993Y035426D01*
X020993Y035246D01*
X021038Y035201D01*
X021128Y035201D01*
X021173Y035246D01*
X020887Y035201D02*
X020796Y035201D01*
X020842Y035201D02*
X020842Y035471D01*
X020887Y035471D02*
X020796Y035471D01*
X019635Y035429D02*
X019635Y035249D01*
X019635Y035339D02*
X019365Y035339D01*
X019455Y035249D01*
X019635Y035135D02*
X019635Y034955D01*
X019635Y035045D02*
X019365Y035045D01*
X019455Y034955D01*
X019410Y034840D02*
X019365Y034795D01*
X019365Y034705D01*
X019410Y034660D01*
X019590Y034660D01*
X019635Y034705D01*
X019635Y034795D01*
X019590Y034840D01*
X019285Y034567D02*
X019466Y034387D01*
X019511Y034387D01*
X019511Y034273D02*
X019421Y034182D01*
X019421Y034228D02*
X019421Y034092D01*
X019511Y034092D02*
X019240Y034092D01*
X019240Y034228D01*
X019285Y034273D01*
X019376Y034273D01*
X019421Y034228D01*
X019240Y034387D02*
X019240Y034567D01*
X019285Y034567D01*
X019402Y035542D02*
X019583Y035542D01*
X019628Y035587D01*
X019628Y035678D01*
X019583Y035723D01*
X019583Y035837D02*
X019538Y035837D01*
X019492Y035882D01*
X019492Y035972D01*
X019538Y036017D01*
X019583Y036017D01*
X019628Y035972D01*
X019628Y035882D01*
X019583Y035837D01*
X019492Y035882D02*
X019447Y035837D01*
X019402Y035837D01*
X019357Y035882D01*
X019357Y035972D01*
X019402Y036017D01*
X019447Y036017D01*
X019492Y035972D01*
X019402Y035723D02*
X019357Y035678D01*
X019357Y035587D01*
X019402Y035542D01*
X017889Y035526D02*
X017709Y035346D01*
X017754Y035301D01*
X017844Y035301D01*
X017889Y035346D01*
X017889Y035526D01*
X017844Y035571D01*
X017754Y035571D01*
X017709Y035526D01*
X017709Y035346D01*
X017595Y035301D02*
X017414Y035301D01*
X017504Y035301D02*
X017504Y035571D01*
X017414Y035481D01*
X017300Y035526D02*
X017255Y035571D01*
X017165Y035571D01*
X017120Y035526D01*
X017120Y035346D01*
X017165Y035301D01*
X017255Y035301D01*
X017300Y035346D01*
X017631Y035816D02*
X017586Y035861D01*
X017586Y035952D01*
X017631Y035997D01*
X017631Y036111D02*
X017676Y036111D01*
X017721Y036156D01*
X017721Y036291D01*
X017811Y036291D02*
X017631Y036291D01*
X017586Y036246D01*
X017586Y036156D01*
X017631Y036111D01*
X017811Y036111D02*
X017856Y036156D01*
X017856Y036246D01*
X017811Y036291D01*
X017811Y035997D02*
X017856Y035952D01*
X017856Y035861D01*
X017811Y035816D01*
X017631Y035816D01*
X017555Y034115D02*
X017465Y034070D01*
X017375Y033979D01*
X017510Y033979D01*
X017555Y033934D01*
X017555Y033889D01*
X017510Y033844D01*
X017420Y033844D01*
X017375Y033889D01*
X017375Y033979D01*
X017261Y033979D02*
X017215Y033934D01*
X017080Y033934D01*
X017080Y033844D02*
X017080Y034115D01*
X017215Y034115D01*
X017261Y034070D01*
X017261Y033979D01*
X017170Y033934D02*
X017261Y033844D01*
X017458Y032747D02*
X017593Y032747D01*
X017638Y032702D01*
X017638Y032522D01*
X017593Y032477D01*
X017458Y032477D01*
X017458Y032747D01*
X017753Y032612D02*
X017753Y032522D01*
X017798Y032477D01*
X017888Y032477D01*
X017933Y032522D01*
X017933Y032567D01*
X017888Y032612D01*
X017753Y032612D01*
X017843Y032702D01*
X017933Y032747D01*
X018207Y032782D02*
X018207Y032511D01*
X018207Y032601D02*
X018342Y032601D01*
X018387Y032646D01*
X018387Y032736D01*
X018342Y032782D01*
X018207Y032782D01*
X018297Y032601D02*
X018387Y032511D01*
X018502Y032511D02*
X018682Y032511D01*
X018592Y032511D02*
X018592Y032782D01*
X018502Y032691D01*
X018796Y032736D02*
X018841Y032782D01*
X018932Y032782D01*
X018977Y032736D01*
X018977Y032691D01*
X018796Y032511D01*
X018977Y032511D01*
X019109Y032521D02*
X019109Y032791D01*
X019245Y032791D01*
X019290Y032746D01*
X019290Y032656D01*
X019245Y032611D01*
X019109Y032611D01*
X019200Y032611D02*
X019290Y032521D01*
X019404Y032521D02*
X019584Y032521D01*
X019494Y032521D02*
X019494Y032791D01*
X019404Y032701D01*
X019699Y032746D02*
X019744Y032791D01*
X019834Y032791D01*
X019879Y032746D01*
X019879Y032701D01*
X019834Y032656D01*
X019879Y032611D01*
X019879Y032566D01*
X019834Y032521D01*
X019744Y032521D01*
X019699Y032566D01*
X019789Y032656D02*
X019834Y032656D01*
X019291Y032150D02*
X019336Y032105D01*
X019336Y032015D01*
X019291Y031970D01*
X019291Y031855D02*
X019336Y031810D01*
X019336Y031720D01*
X019291Y031675D01*
X019111Y031675D01*
X019066Y031720D01*
X019066Y031810D01*
X019111Y031855D01*
X019291Y031855D01*
X019336Y031855D02*
X019246Y031765D01*
X019111Y031970D02*
X019066Y032015D01*
X019066Y032105D01*
X019111Y032150D01*
X019156Y032150D01*
X019201Y032105D01*
X019246Y032150D01*
X019291Y032150D01*
X019201Y032105D02*
X019201Y032060D01*
X019492Y030480D02*
X019627Y030480D01*
X019672Y030435D01*
X019672Y030345D01*
X019627Y030299D01*
X019492Y030299D01*
X019492Y030209D02*
X019492Y030480D01*
X019582Y030299D02*
X019672Y030209D01*
X019786Y030209D02*
X019966Y030209D01*
X019876Y030209D02*
X019876Y030480D01*
X019786Y030390D01*
X020081Y030390D02*
X020081Y030435D01*
X020126Y030480D01*
X020216Y030480D01*
X020261Y030435D01*
X020261Y030390D01*
X020216Y030345D01*
X020126Y030345D01*
X020081Y030390D01*
X020126Y030345D02*
X020081Y030299D01*
X020081Y030254D01*
X020126Y030209D01*
X020216Y030209D01*
X020261Y030254D01*
X020261Y030299D01*
X020216Y030345D01*
X020875Y030342D02*
X020920Y030297D01*
X021010Y030297D01*
X021055Y030342D01*
X021055Y030522D01*
X021010Y030567D01*
X020920Y030567D01*
X020875Y030522D01*
X020875Y030342D01*
X020965Y030387D02*
X021055Y030297D01*
X021169Y030432D02*
X021349Y030432D01*
X021304Y030297D02*
X021304Y030567D01*
X021169Y030432D01*
X021828Y029507D02*
X021783Y029462D01*
X021783Y029371D01*
X021828Y029326D01*
X021828Y029212D02*
X021783Y029167D01*
X021783Y029077D01*
X021828Y029032D01*
X021873Y029032D01*
X021918Y029077D01*
X021918Y029167D01*
X021963Y029212D01*
X022008Y029212D01*
X022053Y029167D01*
X022053Y029077D01*
X022008Y029032D01*
X022053Y029326D02*
X021873Y029507D01*
X021828Y029507D01*
X022053Y029507D02*
X022053Y029326D01*
X023616Y030504D02*
X023661Y030459D01*
X023751Y030459D01*
X023796Y030504D01*
X023910Y030459D02*
X024091Y030459D01*
X024001Y030459D02*
X024001Y030729D01*
X023910Y030639D01*
X023796Y030684D02*
X023751Y030729D01*
X023661Y030729D01*
X023616Y030684D01*
X023616Y030504D01*
X023616Y031108D02*
X023616Y031378D01*
X023751Y031378D01*
X023796Y031333D01*
X023796Y031243D01*
X023751Y031198D01*
X023616Y031198D01*
X023706Y031198D02*
X023796Y031108D01*
X023910Y031108D02*
X024091Y031108D01*
X024001Y031108D02*
X024001Y031378D01*
X023910Y031288D01*
X024720Y032836D02*
X024720Y033016D01*
X024855Y032971D02*
X024585Y032971D01*
X024720Y032836D01*
X025528Y031346D02*
X025483Y031301D01*
X025483Y031121D01*
X025528Y031075D01*
X025618Y031075D01*
X025663Y031121D01*
X025778Y031075D02*
X025958Y031075D01*
X025868Y031075D02*
X025868Y031346D01*
X025778Y031256D01*
X025663Y031301D02*
X025618Y031346D01*
X025528Y031346D01*
X026072Y031301D02*
X026072Y031256D01*
X026117Y031211D01*
X026208Y031211D01*
X026253Y031166D01*
X026253Y031121D01*
X026208Y031075D01*
X026117Y031075D01*
X026072Y031121D01*
X026072Y031166D01*
X026117Y031211D01*
X026208Y031211D02*
X026253Y031256D01*
X026253Y031301D01*
X026208Y031346D01*
X026117Y031346D01*
X026072Y031301D01*
X023691Y027191D02*
X023459Y027191D01*
X023691Y027191D02*
X023691Y025223D01*
X023451Y025223D01*
X022884Y025223D02*
X022455Y025223D01*
X021912Y025223D02*
X021479Y025223D01*
X020916Y025223D02*
X020467Y025223D01*
X019908Y025223D02*
X019463Y025223D01*
X018916Y025223D02*
X018467Y025223D01*
X017900Y025223D02*
X017691Y025223D01*
X017691Y027191D01*
X017900Y027191D01*
X017504Y026778D02*
X017504Y026688D01*
X017459Y026643D01*
X017504Y026529D02*
X017234Y026348D01*
X017234Y026529D02*
X017504Y026348D01*
X017279Y026643D02*
X017234Y026688D01*
X017234Y026778D01*
X017279Y026823D01*
X017324Y026823D01*
X017369Y026778D01*
X017414Y026823D01*
X017459Y026823D01*
X017504Y026778D01*
X017369Y026778D02*
X017369Y026733D01*
X018463Y027191D02*
X018892Y027191D01*
X019463Y027191D02*
X019908Y027191D01*
X020455Y027191D02*
X020920Y027191D01*
X021463Y027191D02*
X021927Y027191D01*
X022467Y027191D02*
X022896Y027191D01*
X023754Y026771D02*
X023754Y026681D01*
X023799Y026635D01*
X023754Y026521D02*
X023754Y026341D01*
X024024Y026341D01*
X023889Y026341D02*
X023889Y026431D01*
X024024Y026635D02*
X023844Y026816D01*
X023799Y026816D01*
X023754Y026771D01*
X024024Y026816D02*
X024024Y026635D01*
X025219Y026404D02*
X025219Y024750D01*
X026951Y024750D01*
X026951Y026404D01*
X025219Y026404D01*
X027149Y025998D02*
X027284Y025863D01*
X027284Y026043D01*
X027419Y025998D02*
X027149Y025998D01*
X027194Y025748D02*
X027149Y025703D01*
X027149Y025613D01*
X027194Y025568D01*
X027374Y025568D01*
X027419Y025613D01*
X027419Y025703D01*
X027374Y025748D01*
X027419Y025462D02*
X027419Y025372D01*
X027419Y025417D02*
X027149Y025417D01*
X027149Y025372D02*
X027149Y025462D01*
X028143Y025099D02*
X028278Y025099D01*
X028324Y025054D01*
X028324Y024964D01*
X028278Y024919D01*
X028143Y024919D01*
X028143Y024829D02*
X028143Y025099D01*
X028233Y024919D02*
X028324Y024829D01*
X028438Y024829D02*
X028618Y025009D01*
X028618Y025054D01*
X028573Y025099D01*
X028483Y025099D01*
X028438Y025054D01*
X028438Y024829D02*
X028618Y024829D01*
X028733Y024874D02*
X028778Y024829D01*
X028868Y024829D01*
X028913Y024874D01*
X028913Y025054D01*
X028868Y025099D01*
X028778Y025099D01*
X028733Y025054D01*
X028733Y025009D01*
X028778Y024964D01*
X028913Y024964D01*
X028823Y024658D02*
X028823Y020670D01*
X031623Y020670D01*
X031623Y024658D01*
X028823Y024658D01*
X028223Y024658D01*
X028223Y020670D01*
X028823Y020670D01*
X026683Y022626D02*
X026683Y022716D01*
X026638Y022761D01*
X026638Y022875D02*
X026683Y022920D01*
X026683Y023010D01*
X026638Y023055D01*
X026593Y023055D01*
X026548Y023010D01*
X026548Y022965D01*
X026548Y023010D02*
X026503Y023055D01*
X026458Y023055D01*
X026413Y023010D01*
X026413Y022920D01*
X026458Y022875D01*
X026458Y022761D02*
X026413Y022716D01*
X026413Y022626D01*
X026458Y022580D01*
X026638Y022580D01*
X026683Y022626D01*
X026548Y023170D02*
X026548Y023350D01*
X026683Y023305D02*
X026413Y023305D01*
X026548Y023170D01*
X024144Y022841D02*
X024099Y022886D01*
X024054Y022886D01*
X024009Y022841D01*
X024009Y022706D01*
X024099Y022706D01*
X024144Y022751D01*
X024144Y022841D01*
X024009Y022706D02*
X023919Y022796D01*
X023874Y022886D01*
X023919Y022591D02*
X023964Y022591D01*
X024009Y022546D01*
X024054Y022591D01*
X024099Y022591D01*
X024144Y022546D01*
X024144Y022456D01*
X024099Y022411D01*
X024144Y022296D02*
X024054Y022206D01*
X024054Y022251D02*
X024054Y022116D01*
X024144Y022116D02*
X023874Y022116D01*
X023874Y022251D01*
X023919Y022296D01*
X024009Y022296D01*
X024054Y022251D01*
X023919Y022411D02*
X023874Y022456D01*
X023874Y022546D01*
X023919Y022591D01*
X024009Y022546D02*
X024009Y022501D01*
X020479Y019241D02*
X020479Y018970D01*
X020389Y018970D02*
X020569Y018970D01*
X020389Y019151D02*
X020479Y019241D01*
X020274Y019196D02*
X020274Y019106D01*
X020229Y019061D01*
X020094Y019061D01*
X020184Y019061D02*
X020274Y018970D01*
X020094Y018970D02*
X020094Y019241D01*
X020229Y019241D01*
X020274Y019196D01*
X020358Y018307D02*
X020223Y018172D01*
X020403Y018172D01*
X020518Y018172D02*
X020698Y018172D01*
X020653Y018307D02*
X020518Y018172D01*
X020653Y018037D02*
X020653Y018307D01*
X020358Y018307D02*
X020358Y018037D01*
X020108Y018082D02*
X020063Y018037D01*
X019973Y018037D01*
X019928Y018082D01*
X019928Y018262D01*
X019973Y018307D01*
X020063Y018307D01*
X020108Y018262D01*
X020141Y017638D02*
X020051Y017638D01*
X020006Y017593D01*
X020006Y017413D01*
X020051Y017368D01*
X020141Y017368D01*
X020186Y017413D01*
X020300Y017503D02*
X020480Y017503D01*
X020435Y017638D02*
X020300Y017503D01*
X020186Y017593D02*
X020141Y017638D01*
X020435Y017638D02*
X020435Y017368D01*
X020595Y017413D02*
X020640Y017368D01*
X020730Y017368D01*
X020775Y017413D01*
X020775Y017458D01*
X020730Y017503D01*
X020685Y017503D01*
X020730Y017503D02*
X020775Y017548D01*
X020775Y017593D01*
X020730Y017638D01*
X020640Y017638D01*
X020595Y017593D01*
X018558Y017051D02*
X018560Y017069D01*
X018566Y017087D01*
X018575Y017103D01*
X018587Y017116D01*
X018602Y017127D01*
X018619Y017135D01*
X018637Y017139D01*
X018655Y017139D01*
X018673Y017135D01*
X018690Y017127D01*
X018705Y017116D01*
X018717Y017103D01*
X018726Y017087D01*
X018732Y017069D01*
X018734Y017051D01*
X018732Y017033D01*
X018726Y017015D01*
X018717Y016999D01*
X018705Y016986D01*
X018690Y016975D01*
X018673Y016967D01*
X018655Y016963D01*
X018637Y016963D01*
X018619Y016967D01*
X018602Y016975D01*
X018587Y016986D01*
X018575Y016999D01*
X018566Y017015D01*
X018560Y017033D01*
X018558Y017051D01*
X017866Y015661D02*
X017706Y015501D01*
X017706Y015438D01*
X017770Y015374D01*
X017834Y015374D01*
X017993Y015533D01*
X018010Y015389D02*
X018138Y015389D01*
X017947Y015198D01*
X017883Y015261D02*
X018010Y015134D01*
X016666Y015011D02*
X016666Y014966D01*
X016486Y014786D01*
X016486Y014741D01*
X016371Y014786D02*
X016371Y014831D01*
X016326Y014876D01*
X016281Y014876D01*
X016326Y014876D02*
X016371Y014921D01*
X016371Y014966D01*
X016326Y015011D01*
X016236Y015011D01*
X016191Y014966D01*
X016077Y014966D02*
X016077Y014876D01*
X016032Y014831D01*
X015896Y014831D01*
X015896Y014741D02*
X015896Y015011D01*
X016032Y015011D01*
X016077Y014966D01*
X015987Y014831D02*
X016077Y014741D01*
X016191Y014786D02*
X016236Y014741D01*
X016326Y014741D01*
X016371Y014786D01*
X016486Y015011D02*
X016666Y015011D01*
X016638Y016103D02*
X016548Y016103D01*
X016503Y016148D01*
X016503Y016238D02*
X016593Y016283D01*
X016638Y016283D01*
X016683Y016238D01*
X016683Y016148D01*
X016638Y016103D01*
X016503Y016238D02*
X016503Y016373D01*
X016683Y016373D01*
X016388Y016238D02*
X016208Y016238D01*
X016343Y016373D01*
X016343Y016103D01*
X016094Y016148D02*
X016049Y016103D01*
X015959Y016103D01*
X015914Y016148D01*
X015914Y016328D01*
X015959Y016373D01*
X016049Y016373D01*
X016094Y016328D01*
X011261Y022756D02*
X011081Y022756D01*
X011171Y022756D02*
X011171Y023026D01*
X011081Y022936D01*
X010967Y022891D02*
X010786Y022891D01*
X010922Y023026D01*
X010922Y022756D01*
X010672Y022801D02*
X010627Y022756D01*
X010537Y022756D01*
X010492Y022801D01*
X010492Y022981D01*
X010537Y023026D01*
X010627Y023026D01*
X010672Y022981D01*
X009976Y023755D02*
X009886Y023755D01*
X009841Y023801D01*
X009931Y023891D02*
X009976Y023891D01*
X010021Y023846D01*
X010021Y023801D01*
X009976Y023755D01*
X009976Y023891D02*
X010021Y023936D01*
X010021Y023981D01*
X009976Y024026D01*
X009886Y024026D01*
X009841Y023981D01*
X009727Y024026D02*
X009546Y024026D01*
X009636Y024026D02*
X009636Y023755D01*
X008678Y021986D02*
X008678Y021806D01*
X008498Y021986D01*
X008453Y021986D01*
X008408Y021941D01*
X008408Y021851D01*
X008453Y021806D01*
X008408Y021692D02*
X008678Y021512D01*
X008678Y021692D02*
X008408Y021512D01*
X012474Y025366D02*
X012519Y025321D01*
X012699Y025321D01*
X012744Y025366D01*
X012744Y025456D01*
X012699Y025501D01*
X012699Y025616D02*
X012744Y025661D01*
X012744Y025751D01*
X012699Y025796D01*
X012654Y025796D01*
X012609Y025751D01*
X012609Y025706D01*
X012609Y025751D02*
X012564Y025796D01*
X012519Y025796D01*
X012474Y025751D01*
X012474Y025661D01*
X012519Y025616D01*
X012519Y025501D02*
X012474Y025456D01*
X012474Y025366D01*
X012474Y025910D02*
X012474Y026091D01*
X012519Y026091D01*
X012699Y025910D01*
X012744Y025910D01*
X012702Y026685D02*
X012747Y026730D01*
X012702Y026685D02*
X012612Y026685D01*
X012567Y026730D01*
X012567Y026910D01*
X012612Y026955D01*
X012702Y026955D01*
X012747Y026910D01*
X012861Y026910D02*
X012906Y026955D01*
X012996Y026955D01*
X013041Y026910D01*
X013041Y026865D01*
X012996Y026820D01*
X013041Y026775D01*
X013041Y026730D01*
X012996Y026685D01*
X012906Y026685D01*
X012861Y026730D01*
X012951Y026820D02*
X012996Y026820D01*
X013156Y026865D02*
X013246Y026955D01*
X013246Y026685D01*
X013156Y026685D02*
X013336Y026685D01*
X012069Y028884D02*
X004392Y028884D01*
X004392Y035971D01*
X012069Y035971D01*
X012069Y028884D01*
X012601Y029563D02*
X012601Y029653D01*
X012601Y029608D02*
X012871Y029608D01*
X012871Y029563D02*
X012871Y029653D01*
X012826Y029759D02*
X012871Y029804D01*
X012871Y029894D01*
X012826Y029939D01*
X012826Y030054D02*
X012871Y030099D01*
X012871Y030189D01*
X012826Y030234D01*
X012781Y030234D01*
X012736Y030189D01*
X012736Y030144D01*
X012736Y030189D02*
X012691Y030234D01*
X012646Y030234D01*
X012601Y030189D01*
X012601Y030099D01*
X012646Y030054D01*
X012646Y029939D02*
X012601Y029894D01*
X012601Y029804D01*
X012646Y029759D01*
X012826Y029759D01*
X017848Y037551D02*
X017938Y037551D01*
X017983Y037596D01*
X017848Y037551D02*
X017803Y037596D01*
X017803Y037776D01*
X017848Y037821D01*
X017938Y037821D01*
X017983Y037776D01*
X018097Y037686D02*
X018278Y037686D01*
X018233Y037551D02*
X018233Y037821D01*
X018097Y037686D01*
X020958Y032559D02*
X021093Y032559D01*
X021138Y032514D01*
X021138Y032424D01*
X021093Y032379D01*
X020958Y032379D01*
X020958Y032289D02*
X020958Y032559D01*
X021048Y032379D02*
X021138Y032289D01*
X021253Y032289D02*
X021433Y032289D01*
X021343Y032289D02*
X021343Y032559D01*
X021253Y032469D01*
X021548Y032424D02*
X021638Y032469D01*
X021683Y032469D01*
X021728Y032424D01*
X021728Y032334D01*
X021683Y032289D01*
X021593Y032289D01*
X021548Y032334D01*
X021548Y032424D02*
X021548Y032559D01*
X021728Y032559D01*
X033222Y037630D02*
X033267Y037585D01*
X033357Y037585D01*
X033402Y037630D01*
X033517Y037630D02*
X033562Y037585D01*
X033652Y037585D01*
X033697Y037630D01*
X033697Y037675D01*
X033652Y037720D01*
X033517Y037720D01*
X033517Y037630D01*
X033517Y037720D02*
X033607Y037810D01*
X033697Y037855D01*
X033402Y037810D02*
X033357Y037855D01*
X033267Y037855D01*
X033222Y037810D01*
X033222Y037630D01*
X033762Y032034D02*
X035337Y032034D01*
X035337Y024790D01*
X004392Y028884D02*
X002030Y028884D01*
X002030Y035971D01*
X004392Y035971D01*
D146*
X018664Y037607D02*
X018831Y037607D01*
X018864Y037640D01*
X018864Y037707D01*
X018831Y037740D01*
X018664Y037740D01*
X018697Y037828D02*
X018730Y037828D01*
X018764Y037861D01*
X018764Y037928D01*
X018797Y037961D01*
X018831Y037961D01*
X018864Y037928D01*
X018864Y037861D01*
X018831Y037828D01*
X018697Y037828D02*
X018664Y037861D01*
X018664Y037928D01*
X018697Y037961D01*
X018664Y038049D02*
X018664Y038149D01*
X018697Y038182D01*
X018730Y038182D01*
X018764Y038149D01*
X018764Y038049D01*
X018864Y038049D02*
X018664Y038049D01*
X018764Y038149D02*
X018797Y038182D01*
X018831Y038182D01*
X018864Y038149D01*
X018864Y038049D01*
X018864Y038270D02*
X018864Y038403D01*
X018864Y038337D02*
X018664Y038337D01*
X018730Y038270D01*
X027772Y021365D02*
X027873Y021264D01*
X027873Y021398D01*
X027973Y021365D02*
X027772Y021365D01*
X027772Y021177D02*
X027973Y021043D01*
X027973Y021177D02*
X027772Y021043D01*
D147*
X028377Y025240D02*
X028517Y025240D01*
X028517Y025520D02*
X028377Y025520D01*
X028791Y026027D02*
X028791Y026207D01*
X028736Y026207D01*
X028791Y026207D02*
X028791Y026387D01*
X028891Y026387D02*
X028891Y026207D01*
X028946Y026207D01*
X028891Y026207D02*
X028891Y026027D01*
X029528Y025372D02*
X029528Y025232D01*
X029808Y025232D02*
X029808Y025372D01*
X030612Y027086D02*
X030612Y027141D01*
X030432Y027141D01*
X030432Y027241D02*
X030612Y027241D01*
X030612Y027296D01*
X030612Y027241D02*
X030792Y027241D01*
X030792Y027141D02*
X030612Y027141D01*
X030921Y027976D02*
X031101Y027976D01*
X031101Y027921D01*
X031101Y027976D02*
X031281Y027976D01*
X031281Y028076D02*
X031101Y028076D01*
X031101Y028131D01*
X031101Y028076D02*
X030921Y028076D01*
X031480Y028080D02*
X031480Y027940D01*
X031760Y027940D02*
X031760Y028080D01*
X031940Y027332D02*
X031940Y027152D01*
X031885Y027152D01*
X031940Y027152D02*
X031940Y026972D01*
X032040Y026972D02*
X032040Y027152D01*
X032095Y027152D01*
X032040Y027152D02*
X032040Y027332D01*
X032040Y026860D02*
X032040Y026680D01*
X032095Y026680D01*
X032040Y026680D02*
X032040Y026500D01*
X031940Y026500D02*
X031940Y026680D01*
X031885Y026680D01*
X031940Y026680D02*
X031940Y026860D01*
X031940Y026230D02*
X031940Y026050D01*
X031885Y026050D01*
X031940Y026050D02*
X031940Y025870D01*
X032040Y025870D02*
X032040Y026050D01*
X032095Y026050D01*
X032040Y026050D02*
X032040Y026230D01*
X032040Y025600D02*
X032040Y025420D01*
X032095Y025420D01*
X032040Y025420D02*
X032040Y025240D01*
X031940Y025240D02*
X031940Y025420D01*
X031885Y025420D01*
X031940Y025420D02*
X031940Y025600D01*
X028851Y027996D02*
X028851Y028176D01*
X028906Y028176D01*
X028851Y028176D02*
X028851Y028356D01*
X028751Y028356D02*
X028751Y028176D01*
X028696Y028176D01*
X028751Y028176D02*
X028751Y027996D01*
X028565Y029094D02*
X028565Y029149D01*
X028745Y029149D01*
X028745Y029249D02*
X028565Y029249D01*
X028565Y029304D01*
X028565Y029249D02*
X028385Y029249D01*
X028385Y029149D02*
X028565Y029149D01*
X029173Y030507D02*
X029173Y030647D01*
X029453Y030647D02*
X029453Y030507D01*
X027375Y028079D02*
X027235Y028079D01*
X027235Y027799D02*
X027375Y027799D01*
X025796Y027428D02*
X025741Y027428D01*
X025741Y027608D01*
X025641Y027608D02*
X025641Y027428D01*
X025586Y027428D01*
X025641Y027428D02*
X025641Y027248D01*
X025741Y027248D02*
X025741Y027428D01*
X023005Y029099D02*
X022865Y029099D01*
X022865Y029379D02*
X023005Y029379D01*
X023005Y029768D02*
X022865Y029768D01*
X022865Y030048D02*
X023005Y030048D01*
X022985Y030319D02*
X022985Y030499D01*
X023040Y030499D01*
X022985Y030499D02*
X022985Y030679D01*
X022885Y030679D02*
X022885Y030499D01*
X022830Y030499D01*
X022885Y030499D02*
X022885Y030319D01*
X022865Y030988D02*
X023005Y030988D01*
X023005Y031268D02*
X022865Y031268D01*
X021667Y031776D02*
X021527Y031776D01*
X021527Y032056D02*
X021667Y032056D01*
X023101Y032799D02*
X023241Y032799D01*
X023241Y033079D02*
X023101Y033079D01*
X023101Y034729D02*
X023241Y034729D01*
X023241Y035009D02*
X023101Y035009D01*
X024331Y034899D02*
X024331Y034759D01*
X024611Y034759D02*
X024611Y034899D01*
X025523Y032608D02*
X025523Y032428D01*
X025468Y032428D01*
X025523Y032428D02*
X025523Y032248D01*
X025623Y032248D02*
X025623Y032428D01*
X025678Y032428D01*
X025623Y032428D02*
X025623Y032608D01*
X026654Y034129D02*
X026654Y034269D01*
X026934Y034269D02*
X026934Y034129D01*
X028189Y034090D02*
X028189Y034230D01*
X028469Y034230D02*
X028469Y034090D01*
X029685Y034051D02*
X029685Y034191D01*
X029965Y034191D02*
X029965Y034051D01*
X028458Y037130D02*
X028458Y037310D01*
X028513Y037310D01*
X028458Y037310D02*
X028458Y037490D01*
X028358Y037490D02*
X028358Y037310D01*
X028303Y037310D01*
X028358Y037310D02*
X028358Y037130D01*
X023395Y037270D02*
X023340Y037270D01*
X023340Y037090D01*
X023240Y037090D02*
X023240Y037270D01*
X023185Y037270D01*
X023240Y037270D02*
X023240Y037450D01*
X023340Y037450D02*
X023340Y037270D01*
X020123Y035863D02*
X019943Y035863D01*
X019943Y035918D01*
X019943Y035863D02*
X019763Y035863D01*
X019763Y035763D02*
X019943Y035763D01*
X019943Y035708D01*
X019943Y035763D02*
X020123Y035763D01*
X018733Y035167D02*
X018733Y034987D01*
X018788Y034987D01*
X018733Y034987D02*
X018733Y034807D01*
X018633Y034807D02*
X018633Y034987D01*
X018578Y034987D01*
X018633Y034987D02*
X018633Y035167D01*
X018574Y034536D02*
X018714Y034536D01*
X018714Y034256D02*
X018574Y034256D01*
X018705Y033521D02*
X018705Y033381D01*
X018425Y033381D02*
X018425Y033521D01*
X019094Y033521D02*
X019094Y033381D01*
X019374Y033381D02*
X019374Y033521D01*
X017415Y034256D02*
X017275Y034256D01*
X017275Y034536D02*
X017415Y034536D01*
X017395Y034807D02*
X017395Y034987D01*
X017450Y034987D01*
X017395Y034987D02*
X017395Y035167D01*
X017295Y035167D02*
X017295Y034987D01*
X017240Y034987D01*
X017295Y034987D02*
X017295Y034807D01*
X018043Y037090D02*
X018043Y037270D01*
X017988Y037270D01*
X018043Y037270D02*
X018043Y037450D01*
X018143Y037450D02*
X018143Y037270D01*
X018198Y037270D01*
X018143Y037270D02*
X018143Y037090D01*
X014656Y034913D02*
X014656Y034740D01*
X014483Y034913D01*
X014439Y034913D01*
X014396Y034870D01*
X014396Y034783D01*
X014439Y034740D01*
X014396Y034532D02*
X014656Y034532D01*
X014656Y034618D02*
X014656Y034445D01*
X014613Y034324D02*
X014656Y034280D01*
X014656Y034194D01*
X014613Y034150D01*
X014439Y034150D01*
X014396Y034194D01*
X014396Y034280D01*
X014439Y034324D01*
X014483Y034445D02*
X014396Y034532D01*
X014329Y034499D02*
X014149Y034499D01*
X014149Y034554D01*
X014149Y034499D02*
X013969Y034499D01*
X013969Y034399D02*
X014149Y034399D01*
X014149Y034344D01*
X014149Y034399D02*
X014329Y034399D01*
X013749Y033816D02*
X013792Y033773D01*
X013792Y033729D01*
X013749Y033686D01*
X013662Y033686D01*
X013619Y033729D01*
X013619Y033773D01*
X013662Y033816D01*
X013749Y033816D01*
X013749Y033686D02*
X013792Y033642D01*
X013792Y033599D01*
X013749Y033556D01*
X013662Y033556D01*
X013619Y033599D01*
X013619Y033642D01*
X013662Y033686D01*
X013497Y033686D02*
X013454Y033642D01*
X013324Y033642D01*
X013324Y033556D02*
X013324Y033816D01*
X013454Y033816D01*
X013497Y033773D01*
X013497Y033686D01*
X013411Y033642D02*
X013497Y033556D01*
X013320Y033981D02*
X013180Y033981D01*
X013180Y034261D02*
X013320Y034261D01*
X013320Y034610D02*
X013180Y034610D01*
X013180Y034890D02*
X013320Y034890D01*
X012611Y035016D02*
X012568Y034973D01*
X012481Y034973D01*
X012437Y035016D01*
X012437Y035103D02*
X012524Y035146D01*
X012568Y035146D01*
X012611Y035103D01*
X012611Y035016D01*
X012437Y035103D02*
X012437Y035233D01*
X012611Y035233D01*
X012611Y035377D02*
X012437Y035377D01*
X012611Y035551D01*
X012611Y035594D01*
X012568Y035638D01*
X012481Y035638D01*
X012437Y035594D01*
X012316Y035594D02*
X012316Y035421D01*
X012273Y035377D01*
X012143Y035377D01*
X012143Y035638D01*
X012273Y035638D01*
X012316Y035594D01*
X012273Y035233D02*
X012316Y035190D01*
X012316Y035103D01*
X012273Y035060D01*
X012143Y035060D01*
X012230Y035060D02*
X012316Y034973D01*
X012143Y034973D02*
X012143Y035233D01*
X012273Y035233D01*
X013195Y035870D02*
X013195Y036050D01*
X013140Y036050D01*
X013195Y036050D02*
X013195Y036230D01*
X013295Y036230D02*
X013295Y036050D01*
X013350Y036050D01*
X013295Y036050D02*
X013295Y035870D01*
X013049Y036403D02*
X013049Y036446D01*
X013222Y036620D01*
X013222Y036663D01*
X013049Y036663D01*
X012928Y036620D02*
X012884Y036663D01*
X012798Y036663D01*
X012754Y036620D01*
X012754Y036446D01*
X012798Y036403D01*
X012884Y036403D01*
X012928Y036446D01*
X013200Y037169D02*
X013200Y037349D01*
X013145Y037349D01*
X013200Y037349D02*
X013200Y037529D01*
X013300Y037529D02*
X013300Y037349D01*
X013355Y037349D01*
X013300Y037349D02*
X013300Y037169D01*
X013852Y037212D02*
X013895Y037168D01*
X014069Y037168D01*
X014112Y037212D01*
X014112Y037298D01*
X014069Y037342D01*
X014112Y037463D02*
X014112Y037636D01*
X014112Y037550D02*
X013852Y037550D01*
X013938Y037463D01*
X013895Y037342D02*
X013852Y037298D01*
X013852Y037212D01*
X011002Y036859D02*
X010959Y036902D01*
X010872Y036902D01*
X010828Y036859D01*
X010707Y036859D02*
X010707Y036815D01*
X010664Y036772D01*
X010707Y036729D01*
X010707Y036685D01*
X010664Y036642D01*
X010577Y036642D01*
X010534Y036685D01*
X010621Y036772D02*
X010664Y036772D01*
X010707Y036859D02*
X010664Y036902D01*
X010577Y036902D01*
X010534Y036859D01*
X010413Y036902D02*
X010413Y036642D01*
X010239Y036642D02*
X010239Y036902D01*
X010326Y036815D01*
X010413Y036902D01*
X010118Y036859D02*
X010075Y036902D01*
X009988Y036902D01*
X009945Y036859D01*
X009945Y036685D01*
X009988Y036642D01*
X010075Y036642D01*
X010118Y036685D01*
X010118Y036859D01*
X009823Y036859D02*
X009780Y036902D01*
X009693Y036902D01*
X009650Y036859D01*
X009650Y036685D01*
X009693Y036642D01*
X009780Y036642D01*
X009823Y036685D01*
X009823Y036859D01*
X009529Y036859D02*
X009529Y036772D01*
X009485Y036729D01*
X009355Y036729D01*
X009442Y036729D02*
X009529Y036642D01*
X009355Y036642D02*
X009355Y036902D01*
X009485Y036902D01*
X009529Y036859D01*
X009234Y036902D02*
X009234Y036642D01*
X009147Y036729D01*
X009061Y036642D01*
X009061Y036902D01*
X008939Y036859D02*
X008896Y036902D01*
X008809Y036902D01*
X008766Y036859D01*
X008645Y036859D02*
X008645Y036815D01*
X008601Y036772D01*
X008645Y036729D01*
X008645Y036685D01*
X008601Y036642D01*
X008515Y036642D01*
X008471Y036685D01*
X008558Y036772D02*
X008601Y036772D01*
X008645Y036859D02*
X008601Y036902D01*
X008515Y036902D01*
X008471Y036859D01*
X008350Y036859D02*
X008350Y036772D01*
X008307Y036729D01*
X008177Y036729D01*
X008177Y036642D02*
X008177Y036902D01*
X008307Y036902D01*
X008350Y036859D01*
X008055Y036859D02*
X008012Y036902D01*
X007925Y036902D01*
X007882Y036859D01*
X007882Y036815D01*
X007925Y036772D01*
X008012Y036772D01*
X008055Y036729D01*
X008055Y036685D01*
X008012Y036642D01*
X007925Y036642D01*
X007882Y036685D01*
X007761Y036642D02*
X007587Y036642D01*
X007587Y036902D01*
X007761Y036902D01*
X007674Y036772D02*
X007587Y036772D01*
X007948Y037310D02*
X008003Y037310D01*
X008003Y037130D01*
X008103Y037130D02*
X008103Y037310D01*
X008158Y037310D01*
X008103Y037310D02*
X008103Y037490D01*
X008003Y037490D02*
X008003Y037310D01*
X007963Y037629D02*
X008007Y037672D01*
X007963Y037629D02*
X007877Y037629D01*
X007833Y037672D01*
X007833Y037846D01*
X007877Y037889D01*
X007963Y037889D01*
X008007Y037846D01*
X008128Y037846D02*
X008171Y037889D01*
X008258Y037889D01*
X008302Y037846D01*
X008302Y037802D01*
X008128Y037629D01*
X008302Y037629D01*
X008939Y036859D02*
X008939Y036815D01*
X008766Y036642D01*
X008939Y036642D01*
X010828Y036642D02*
X011002Y036815D01*
X011002Y036859D01*
X011002Y036642D02*
X010828Y036642D01*
X013166Y031611D02*
X013297Y031611D01*
X013340Y031568D01*
X013340Y031481D01*
X013297Y031438D01*
X013166Y031438D01*
X013166Y031351D02*
X013166Y031611D01*
X013253Y031438D02*
X013340Y031351D01*
X013461Y031351D02*
X013635Y031351D01*
X013548Y031351D02*
X013548Y031611D01*
X013461Y031524D01*
X013756Y031611D02*
X013929Y031611D01*
X013929Y031568D01*
X013756Y031394D01*
X013756Y031351D01*
X013478Y031150D02*
X013338Y031150D01*
X013338Y030870D02*
X013478Y030870D01*
X011961Y028422D02*
X011787Y028422D01*
X011787Y028292D01*
X011874Y028335D01*
X011917Y028335D01*
X011961Y028292D01*
X011961Y028205D01*
X011917Y028162D01*
X011831Y028162D01*
X011787Y028205D01*
X011666Y028162D02*
X011493Y028162D01*
X011666Y028335D01*
X011666Y028379D01*
X011623Y028422D01*
X011536Y028422D01*
X011493Y028379D01*
X011371Y028379D02*
X011371Y028292D01*
X011328Y028249D01*
X011198Y028249D01*
X011285Y028249D02*
X011371Y028162D01*
X011198Y028162D02*
X011198Y028422D01*
X011328Y028422D01*
X011371Y028379D01*
X011076Y028310D02*
X010903Y028310D01*
X011033Y028440D01*
X011033Y028180D01*
X010782Y028180D02*
X010608Y028180D01*
X010782Y028354D01*
X010782Y028397D01*
X010738Y028440D01*
X010652Y028440D01*
X010608Y028397D01*
X010487Y028397D02*
X010487Y028310D01*
X010444Y028267D01*
X010314Y028267D01*
X010400Y028267D02*
X010487Y028180D01*
X010314Y028180D02*
X010314Y028440D01*
X010444Y028440D01*
X010487Y028397D01*
X010171Y028397D02*
X010171Y028354D01*
X010128Y028310D01*
X010171Y028267D01*
X010171Y028223D01*
X010128Y028180D01*
X010041Y028180D01*
X009997Y028223D01*
X010084Y028310D02*
X010128Y028310D01*
X010171Y028397D02*
X010128Y028440D01*
X010041Y028440D01*
X009997Y028397D01*
X009876Y028397D02*
X009833Y028440D01*
X009746Y028440D01*
X009703Y028397D01*
X009582Y028397D02*
X009582Y028310D01*
X009538Y028267D01*
X009408Y028267D01*
X009408Y028180D02*
X009408Y028440D01*
X009538Y028440D01*
X009582Y028397D01*
X009495Y028267D02*
X009582Y028180D01*
X009703Y028180D02*
X009876Y028354D01*
X009876Y028397D01*
X009876Y028180D02*
X009703Y028180D01*
X009882Y027655D02*
X009882Y027515D01*
X010162Y027515D02*
X010162Y027655D01*
X010512Y027655D02*
X010512Y027515D01*
X010792Y027515D02*
X010792Y027655D01*
X011142Y027655D02*
X011142Y027515D01*
X011422Y027515D02*
X011422Y027655D01*
X011022Y026843D02*
X010935Y026800D01*
X010848Y026713D01*
X010978Y026713D01*
X011022Y026670D01*
X011022Y026626D01*
X010978Y026583D01*
X010892Y026583D01*
X010848Y026626D01*
X010848Y026713D01*
X010727Y026800D02*
X010727Y026626D01*
X010684Y026583D01*
X010597Y026583D01*
X010554Y026626D01*
X010554Y026800D01*
X010597Y026843D01*
X010684Y026843D01*
X010727Y026800D01*
X010640Y026670D02*
X010727Y026583D01*
X011220Y025883D02*
X011220Y025743D01*
X011500Y025743D02*
X011500Y025883D01*
X011662Y025938D02*
X011662Y026112D01*
X011705Y026112D01*
X011878Y025938D01*
X011922Y025938D01*
X012013Y025876D02*
X012193Y025876D01*
X012193Y025931D01*
X012193Y025876D02*
X012373Y025876D01*
X012373Y025776D02*
X012193Y025776D01*
X012193Y025721D01*
X012193Y025776D02*
X012013Y025776D01*
X011922Y025817D02*
X011922Y025644D01*
X011748Y025817D01*
X011705Y025817D01*
X011662Y025774D01*
X011662Y025687D01*
X011705Y025644D01*
X011705Y025522D02*
X011792Y025522D01*
X011835Y025479D01*
X011835Y025349D01*
X011835Y025436D02*
X011922Y025522D01*
X011922Y025349D02*
X011662Y025349D01*
X011662Y025479D01*
X011705Y025522D01*
X011360Y024698D02*
X011360Y024643D01*
X011540Y024643D01*
X011540Y024543D02*
X011360Y024543D01*
X011360Y024488D01*
X011360Y024543D02*
X011180Y024543D01*
X011180Y024643D02*
X011360Y024643D01*
X011661Y024516D02*
X011661Y024429D01*
X011704Y024386D01*
X011748Y024386D01*
X011791Y024429D01*
X011791Y024559D01*
X011878Y024559D02*
X011704Y024559D01*
X011661Y024516D01*
X011878Y024559D02*
X011921Y024516D01*
X011921Y024429D01*
X011878Y024386D01*
X011878Y024264D02*
X011921Y024221D01*
X011921Y024134D01*
X011878Y024091D01*
X011878Y023970D02*
X011921Y023926D01*
X011921Y023840D01*
X011878Y023796D01*
X011704Y023796D01*
X011661Y023840D01*
X011661Y023926D01*
X011704Y023970D01*
X011704Y024091D02*
X011661Y024134D01*
X011661Y024221D01*
X011704Y024264D01*
X011748Y024264D01*
X011791Y024221D01*
X011834Y024264D01*
X011878Y024264D01*
X011791Y024221D02*
X011791Y024178D01*
X009748Y022990D02*
X009574Y022817D01*
X009618Y022773D01*
X009704Y022773D01*
X009748Y022817D01*
X009748Y022990D01*
X009704Y023034D01*
X009618Y023034D01*
X009574Y022990D01*
X009574Y022817D01*
X009453Y022904D02*
X009280Y022904D01*
X009410Y023034D01*
X009410Y022773D01*
X009158Y022817D02*
X009115Y022773D01*
X009028Y022773D01*
X008985Y022817D01*
X008985Y022990D01*
X009028Y023034D01*
X009115Y023034D01*
X009158Y022990D01*
X009342Y023271D02*
X009342Y023451D01*
X009287Y023451D01*
X009342Y023451D02*
X009342Y023631D01*
X009442Y023631D02*
X009442Y023451D01*
X009497Y023451D01*
X009442Y023451D02*
X009442Y023271D01*
X008711Y024068D02*
X008451Y024068D01*
X008451Y024198D01*
X008495Y024241D01*
X008581Y024241D01*
X008625Y024198D01*
X008625Y024068D01*
X008625Y024155D02*
X008711Y024241D01*
X008668Y024362D02*
X008711Y024406D01*
X008711Y024493D01*
X008668Y024536D01*
X008625Y024536D01*
X008581Y024493D01*
X008581Y024449D01*
X008581Y024493D02*
X008538Y024536D01*
X008495Y024536D01*
X008451Y024493D01*
X008451Y024406D01*
X008495Y024362D01*
X008538Y024657D02*
X008451Y024744D01*
X008711Y024744D01*
X008711Y024657D02*
X008711Y024831D01*
X008898Y024545D02*
X008898Y024405D01*
X009178Y024405D02*
X009178Y024545D01*
X008772Y025467D02*
X008512Y025467D01*
X008512Y025597D01*
X008555Y025640D01*
X008642Y025640D01*
X008685Y025597D01*
X008685Y025467D01*
X008685Y025554D02*
X008772Y025640D01*
X008772Y025762D02*
X008599Y025935D01*
X008555Y025935D01*
X008512Y025892D01*
X008512Y025805D01*
X008555Y025762D01*
X008772Y025762D02*
X008772Y025935D01*
X008729Y026056D02*
X008685Y026056D01*
X008642Y026100D01*
X008642Y026186D01*
X008685Y026230D01*
X008729Y026230D01*
X008772Y026186D01*
X008772Y026100D01*
X008729Y026056D01*
X008642Y026100D02*
X008599Y026056D01*
X008555Y026056D01*
X008512Y026100D01*
X008512Y026186D01*
X008555Y026230D01*
X008599Y026230D01*
X008642Y026186D01*
X008937Y025844D02*
X008937Y025704D01*
X009217Y025704D02*
X009217Y025844D01*
X008714Y026664D02*
X008541Y026664D01*
X008714Y026838D01*
X008714Y026881D01*
X008671Y026925D01*
X008584Y026925D01*
X008541Y026881D01*
X008420Y026881D02*
X008376Y026925D01*
X008290Y026925D01*
X008246Y026881D01*
X008125Y026881D02*
X008125Y026794D01*
X008082Y026751D01*
X007951Y026751D01*
X007951Y026664D02*
X007951Y026925D01*
X008082Y026925D01*
X008125Y026881D01*
X008038Y026751D02*
X008125Y026664D01*
X008246Y026664D02*
X008420Y026838D01*
X008420Y026881D01*
X008420Y026664D02*
X008246Y026664D01*
X007769Y026708D02*
X007769Y026881D01*
X007726Y026925D01*
X007639Y026925D01*
X007596Y026881D01*
X007596Y026838D01*
X007639Y026794D01*
X007769Y026794D01*
X007769Y026708D02*
X007726Y026664D01*
X007639Y026664D01*
X007596Y026708D01*
X007475Y026664D02*
X007301Y026664D01*
X007475Y026838D01*
X007475Y026881D01*
X007431Y026925D01*
X007345Y026925D01*
X007301Y026881D01*
X007180Y026881D02*
X007137Y026925D01*
X007050Y026925D01*
X007007Y026881D01*
X007007Y026708D01*
X007050Y026664D01*
X007137Y026664D01*
X007180Y026708D01*
X007423Y027480D02*
X007423Y027535D01*
X007603Y027535D01*
X007603Y027635D02*
X007423Y027635D01*
X007423Y027690D01*
X007423Y027635D02*
X007243Y027635D01*
X007243Y027535D02*
X007423Y027535D01*
X006934Y027535D02*
X006754Y027535D01*
X006754Y027480D01*
X006754Y027535D02*
X006574Y027535D01*
X006574Y027635D02*
X006754Y027635D01*
X006754Y027690D01*
X006754Y027635D02*
X006934Y027635D01*
X006927Y028180D02*
X007101Y028354D01*
X007101Y028397D01*
X007057Y028440D01*
X006971Y028440D01*
X006927Y028397D01*
X006806Y028397D02*
X006763Y028440D01*
X006676Y028440D01*
X006633Y028397D01*
X006633Y028223D01*
X006676Y028180D01*
X006763Y028180D01*
X006806Y028223D01*
X006927Y028180D02*
X007101Y028180D01*
X007222Y028223D02*
X007222Y028267D01*
X007265Y028310D01*
X007352Y028310D01*
X007395Y028267D01*
X007395Y028223D01*
X007352Y028180D01*
X007265Y028180D01*
X007222Y028223D01*
X007265Y028310D02*
X007222Y028354D01*
X007222Y028397D01*
X007265Y028440D01*
X007352Y028440D01*
X007395Y028397D01*
X007395Y028354D01*
X007352Y028310D01*
X007913Y027655D02*
X007913Y027515D01*
X008193Y027515D02*
X008193Y027655D01*
X006529Y028397D02*
X006356Y028223D01*
X006356Y028180D01*
X006235Y028180D02*
X006061Y028180D01*
X006235Y028354D01*
X006235Y028397D01*
X006191Y028440D01*
X006104Y028440D01*
X006061Y028397D01*
X005940Y028397D02*
X005897Y028440D01*
X005810Y028440D01*
X005766Y028397D01*
X005766Y028223D01*
X005810Y028180D01*
X005897Y028180D01*
X005940Y028223D01*
X006356Y028440D02*
X006529Y028440D01*
X006529Y028397D01*
X006304Y027635D02*
X006124Y027635D01*
X006124Y027690D01*
X006124Y027635D02*
X005944Y027635D01*
X005944Y027535D02*
X006124Y027535D01*
X006124Y027480D01*
X006124Y027535D02*
X006304Y027535D01*
X005612Y026871D02*
X005656Y026828D01*
X005482Y026655D01*
X005525Y026611D01*
X005612Y026611D01*
X005656Y026655D01*
X005656Y026828D01*
X005612Y026871D02*
X005525Y026871D01*
X005482Y026828D01*
X005482Y026655D01*
X005361Y026655D02*
X005318Y026611D01*
X005231Y026611D01*
X005187Y026655D01*
X005066Y026655D02*
X005023Y026611D01*
X004936Y026611D01*
X004893Y026655D01*
X004893Y026828D01*
X004936Y026871D01*
X005023Y026871D01*
X005066Y026828D01*
X005187Y026828D02*
X005231Y026871D01*
X005318Y026871D01*
X005361Y026828D01*
X005361Y026785D01*
X005318Y026741D01*
X005361Y026698D01*
X005361Y026655D01*
X005318Y026741D02*
X005274Y026741D01*
X004310Y027684D02*
X004310Y027770D01*
X004267Y027814D01*
X004310Y027935D02*
X004137Y028108D01*
X004093Y028108D01*
X004050Y028065D01*
X004050Y027978D01*
X004093Y027935D01*
X004093Y027814D02*
X004050Y027770D01*
X004050Y027684D01*
X004093Y027640D01*
X004267Y027640D01*
X004310Y027684D01*
X004310Y027935D02*
X004310Y028108D01*
X004267Y028230D02*
X004310Y028273D01*
X004310Y028360D01*
X004267Y028403D01*
X004223Y028403D01*
X004180Y028360D01*
X004180Y028230D01*
X004267Y028230D01*
X004180Y028230D02*
X004093Y028316D01*
X004050Y028403D01*
X012909Y027231D02*
X012964Y027231D01*
X012964Y027051D01*
X013064Y027051D02*
X013064Y027231D01*
X013119Y027231D01*
X013064Y027231D02*
X013064Y027411D01*
X012964Y027411D02*
X012964Y027231D01*
X016145Y028915D02*
X016189Y028872D01*
X016232Y028872D01*
X016275Y028915D01*
X016275Y029002D01*
X016319Y029045D01*
X016362Y029045D01*
X016406Y029002D01*
X016406Y028915D01*
X016362Y028872D01*
X016145Y028915D02*
X016145Y029002D01*
X016189Y029045D01*
X016232Y029167D02*
X016145Y029253D01*
X016406Y029253D01*
X016406Y029167D02*
X016406Y029340D01*
X020031Y030673D02*
X020171Y030673D01*
X020171Y030953D02*
X020031Y030953D01*
X023386Y022655D02*
X023386Y022515D01*
X023666Y022515D02*
X023666Y022655D01*
X019283Y019262D02*
X019143Y019262D01*
X019143Y018982D02*
X019283Y018982D01*
X019267Y018402D02*
X019267Y018222D01*
X019322Y018222D01*
X019267Y018222D02*
X019267Y018042D01*
X019167Y018042D02*
X019167Y018222D01*
X019112Y018222D01*
X019167Y018222D02*
X019167Y018402D01*
X018646Y016884D02*
X018582Y016820D01*
X018646Y016884D02*
X018709Y016820D01*
X019416Y016113D02*
X019480Y016049D01*
X019416Y015986D01*
X018709Y015279D02*
X018646Y015215D01*
X018582Y015279D01*
X017875Y015986D02*
X017811Y016049D01*
X017875Y016113D01*
X016424Y016664D02*
X016369Y016664D01*
X016369Y016844D01*
X016269Y016844D02*
X016269Y016664D01*
X016214Y016664D01*
X016269Y016664D02*
X016269Y016484D01*
X016369Y016484D02*
X016369Y016664D01*
X016336Y015475D02*
X016196Y015475D01*
X016196Y015195D02*
X016336Y015195D01*
X031980Y029256D02*
X031980Y029436D01*
X031925Y029436D01*
X031980Y029436D02*
X031980Y029616D01*
X032080Y029616D02*
X032080Y029436D01*
X032135Y029436D01*
X032080Y029436D02*
X032080Y029256D01*
X032080Y029964D02*
X032080Y030144D01*
X032135Y030144D01*
X032080Y030144D02*
X032080Y030324D01*
X031980Y030324D02*
X031980Y030144D01*
X031925Y030144D01*
X031980Y030144D02*
X031980Y029964D01*
X033397Y037090D02*
X033397Y037270D01*
X033342Y037270D01*
X033397Y037270D02*
X033397Y037450D01*
X033497Y037450D02*
X033497Y037270D01*
X033552Y037270D01*
X033497Y037270D02*
X033497Y037090D01*
D148*
X004357Y035491D02*
X002357Y035491D01*
X002357Y034491D01*
X004107Y034491D01*
X003857Y033491D02*
X002357Y033491D01*
X002357Y034491D01*
X003857Y033491D02*
X003857Y032491D01*
X002357Y032491D01*
X002357Y031491D01*
X003857Y031491D01*
X003857Y030491D01*
X002357Y030491D01*
X002357Y029491D01*
X003857Y029491D01*
D149*
X026754Y026207D03*
M02*
