G75*
%MOIN*%
%OFA0B0*%
%FSLAX24Y24*%
%IPPOS*%
%LPD*%
%AMOC8*
5,1,8,0,0,1.08239X$1,22.5*
%
%ADD10C,0.1575*%
%ADD11C,0.1260*%
%ADD12C,0.0709*%
%ADD13R,0.0650X0.0394*%
%ADD14C,0.0660*%
%ADD15C,0.0433*%
%ADD16C,0.0300*%
D10*
X003565Y037231D03*
X037817Y037231D03*
D11*
X037817Y034869D03*
X030731Y037624D03*
X037817Y021876D03*
X010652Y037624D03*
X003171Y027782D03*
D12*
X018691Y026207D03*
X022691Y026207D03*
D13*
X022236Y036601D03*
X022236Y037861D03*
X024265Y037861D03*
X024265Y036601D03*
X027354Y036601D03*
X027354Y037861D03*
X029383Y037861D03*
X029383Y036601D03*
X032472Y036601D03*
X032472Y037861D03*
X034501Y037861D03*
X034501Y036601D03*
X019147Y036601D03*
X019147Y037861D03*
X017118Y037861D03*
X017118Y036601D03*
X014029Y036601D03*
X014029Y037861D03*
X011999Y037861D03*
X011999Y036601D03*
X008910Y036601D03*
X008910Y037861D03*
X006881Y037861D03*
X006881Y036601D03*
D14*
X035301Y036317D03*
X036219Y036325D03*
D15*
X023191Y026707D03*
X022191Y026707D03*
X022191Y025707D03*
X023191Y025707D03*
X021191Y025707D03*
X020191Y025707D03*
X020191Y026707D03*
X021191Y026707D03*
X019191Y026707D03*
X018191Y026707D03*
X018191Y025707D03*
X019191Y025707D03*
D16*
X017489Y020455D03*
X018329Y020452D03*
X018335Y019796D03*
X024431Y028176D03*
X024038Y028569D03*
X021479Y029160D03*
X021085Y028766D03*
X020691Y029160D03*
X020297Y028766D03*
X019904Y029160D03*
X019510Y028766D03*
X019116Y029160D03*
X018723Y028766D03*
X020494Y036640D03*
X020888Y037034D03*
X021282Y036640D03*
X021675Y037034D03*
X026164Y036325D03*
X031912Y030538D03*
X032502Y030932D03*
X033486Y029160D03*
X033093Y028766D03*
X033486Y028373D03*
X033093Y027979D03*
X033486Y027585D03*
X033093Y027191D03*
X033486Y026837D03*
X029943Y026798D03*
X029549Y026404D03*
X029156Y026798D03*
X011636Y030932D03*
X011242Y031325D03*
X011636Y031719D03*
X011242Y032113D03*
X011636Y032506D03*
X011242Y032900D03*
X011636Y033294D03*
X007109Y035853D03*
X006518Y035853D03*
X005927Y035853D03*
X005337Y035853D03*
M02*
