G75*
%MOIN*%
%OFA0B0*%
%FSLAX24Y24*%
%IPPOS*%
%LPD*%
%AMOC8*
5,1,8,0,0,1.08239X$1,22.5*
%
%ADD10R,0.0102X0.0220*%
%ADD11R,0.0394X0.0394*%
%ADD12R,0.0118X0.0118*%
%ADD13R,0.0220X0.0102*%
%ADD14R,0.0142X0.0870*%
%ADD15R,0.0785X0.0598*%
%ADD16R,0.0465X0.0711*%
%ADD17R,0.0409X0.0488*%
%ADD18R,0.0315X0.0630*%
%ADD19R,0.0198X0.0277*%
%ADD20R,0.0252X0.0291*%
%ADD21R,0.0315X0.0354*%
%ADD22R,0.0354X0.0315*%
%ADD23R,0.0220X0.0220*%
%ADD24R,0.0277X0.0198*%
%ADD25R,0.0488X0.0409*%
%ADD26R,0.0969X0.0850*%
%ADD27R,0.0449X0.0094*%
%ADD28R,0.0378X0.0693*%
%ADD29R,0.0669X0.0472*%
%ADD30R,0.0630X0.1339*%
%ADD31R,0.0441X0.0598*%
%ADD32R,0.0638X0.0441*%
%ADD33R,0.0528X0.0252*%
%ADD34C,0.0094*%
%ADD35R,0.0283X0.0480*%
%ADD36R,0.0480X0.0283*%
%ADD37R,0.1890X0.1890*%
%ADD38R,0.0504X0.0584*%
%ADD39R,0.0630X0.0315*%
%ADD40R,0.1693X0.0315*%
%ADD41R,0.1339X0.0591*%
%ADD42R,0.0540X0.0240*%
%ADD43R,0.0283X0.0638*%
%ADD44R,0.0239X0.0440*%
%ADD45R,0.1339X0.0945*%
%ADD46R,0.0080X0.0260*%
D10*
X020219Y032939D03*
X020416Y032939D03*
X020612Y032939D03*
X020809Y032939D03*
X021006Y032939D03*
X021203Y032939D03*
X021400Y032939D03*
X021400Y034750D03*
X021203Y034750D03*
X021006Y034750D03*
X020809Y034750D03*
X020612Y034750D03*
X020416Y034750D03*
X020219Y034750D03*
D11*
X020809Y033845D03*
D12*
X021636Y034672D03*
D13*
X021715Y034436D03*
X021715Y034239D03*
X021715Y034042D03*
X021715Y033845D03*
X021715Y033648D03*
X021715Y033451D03*
X021715Y033254D03*
X019904Y033254D03*
X019904Y033451D03*
X019904Y033648D03*
X019904Y033845D03*
X019904Y034042D03*
X019904Y034239D03*
X019904Y034436D03*
D14*
X020179Y036995D03*
X020435Y036995D03*
X020691Y036995D03*
X020947Y036995D03*
X021203Y036995D03*
D15*
X021853Y038215D03*
X019530Y038215D03*
D16*
X019707Y037310D03*
X021675Y037310D03*
D17*
X019057Y035656D03*
X018309Y035656D03*
X025199Y031719D03*
X025947Y031719D03*
X026301Y028058D03*
X025553Y028058D03*
X019608Y017549D03*
X018860Y017549D03*
X011183Y023451D03*
X010435Y023451D03*
X005435Y027231D03*
X005435Y027979D03*
X004687Y027979D03*
X004687Y027231D03*
D18*
X021754Y036247D03*
X022857Y036247D03*
D19*
X022758Y035538D03*
X021853Y035538D03*
X025120Y034475D03*
X026026Y034475D03*
X013703Y035380D03*
X012797Y035380D03*
D20*
X019727Y031404D03*
X020475Y031404D03*
X021223Y031325D03*
X021971Y031325D03*
X021597Y030499D03*
X020101Y032231D03*
X025199Y035144D03*
X025947Y035144D03*
X025573Y035971D03*
X026656Y035932D03*
X027030Y035105D03*
X027404Y035932D03*
X028270Y035144D03*
X028644Y035971D03*
X029018Y035144D03*
X029805Y035144D03*
X030179Y035971D03*
X030553Y035144D03*
X010632Y026247D03*
X009884Y026247D03*
X010258Y025420D03*
X009884Y024869D03*
X010632Y024869D03*
X010258Y024042D03*
D21*
X015931Y015335D03*
X016601Y015335D03*
X018878Y019122D03*
X019548Y019122D03*
X012193Y025491D03*
X012193Y026160D03*
X011360Y024928D03*
X011360Y024258D03*
X007423Y027250D03*
X007423Y027920D03*
X006754Y027920D03*
X006124Y027920D03*
X006124Y027250D03*
X006754Y027250D03*
X013073Y031010D03*
X013742Y031010D03*
X013585Y034121D03*
X013585Y034750D03*
X012916Y034750D03*
X012916Y034121D03*
X014149Y034114D03*
X014149Y034784D03*
X017010Y034396D03*
X017679Y034396D03*
X018309Y034396D03*
X018979Y034396D03*
X019943Y035479D03*
X019943Y036148D03*
X022837Y034869D03*
X023506Y034869D03*
X023506Y032939D03*
X022837Y032939D03*
X021931Y031916D03*
X021262Y031916D03*
X020435Y030813D03*
X019766Y030813D03*
X022601Y031128D03*
X023270Y031128D03*
X023270Y029908D03*
X023270Y029239D03*
X022601Y029239D03*
X022601Y029908D03*
X026971Y027939D03*
X027640Y027939D03*
X028565Y028865D03*
X028565Y029534D03*
X030612Y027526D03*
X031101Y027691D03*
X031101Y028361D03*
X030612Y026857D03*
X028782Y025380D03*
X028112Y025380D03*
D22*
X028506Y026207D03*
X029175Y026207D03*
X029668Y025636D03*
X029668Y024967D03*
X031656Y025420D03*
X031656Y026050D03*
X032325Y026050D03*
X032325Y025420D03*
X032325Y026680D03*
X032325Y027152D03*
X031656Y027152D03*
X031656Y026680D03*
X031620Y027676D03*
X031620Y028345D03*
X031695Y029436D03*
X032364Y029436D03*
X032364Y030144D03*
X031695Y030144D03*
X029313Y030243D03*
X029313Y030912D03*
X029136Y028176D03*
X028467Y028176D03*
X026026Y027428D03*
X025357Y027428D03*
X023270Y030499D03*
X022601Y030499D03*
X025238Y032428D03*
X025908Y032428D03*
X026794Y033865D03*
X026794Y034534D03*
X028329Y034495D03*
X028329Y033825D03*
X029825Y033786D03*
X029825Y034455D03*
X028742Y037310D03*
X028073Y037310D03*
X024471Y035164D03*
X024471Y034495D03*
X023624Y037270D03*
X022955Y037270D03*
X019234Y033786D03*
X019234Y033117D03*
X018565Y033117D03*
X018565Y033786D03*
X018349Y034987D03*
X017679Y034987D03*
X017010Y034987D03*
X019018Y034987D03*
X018427Y037270D03*
X017758Y037270D03*
X013585Y037349D03*
X012916Y037349D03*
X012910Y036050D03*
X013579Y036050D03*
X008388Y037310D03*
X007719Y037310D03*
X008053Y027920D03*
X008053Y027250D03*
X009077Y026109D03*
X009077Y025439D03*
X009038Y024810D03*
X009038Y024140D03*
X009057Y023451D03*
X009727Y023451D03*
X011360Y025479D03*
X011360Y026148D03*
X011282Y027250D03*
X011282Y027920D03*
X010652Y027920D03*
X010022Y027920D03*
X010022Y027250D03*
X010652Y027250D03*
X012679Y027231D03*
X013349Y027231D03*
X018882Y018222D03*
X019551Y018222D03*
X016653Y016664D03*
X015984Y016664D03*
X023526Y022250D03*
X023526Y022920D03*
X033112Y037270D03*
X033782Y037270D03*
D23*
X030357Y030902D03*
X029845Y030902D03*
X030101Y030174D03*
D24*
X029943Y027644D03*
X029195Y027644D03*
X028408Y027644D03*
X028408Y026739D03*
X029195Y026739D03*
X029943Y026739D03*
D25*
X027542Y029534D03*
X026833Y029534D03*
X026833Y030282D03*
X027542Y030282D03*
X025967Y029928D03*
X025967Y030676D03*
X027660Y033825D03*
X027660Y034573D03*
X027109Y023432D03*
X027109Y022684D03*
D26*
X034345Y025388D03*
X034345Y031436D03*
D27*
X033565Y030676D03*
X033565Y030479D03*
X033565Y030282D03*
X033565Y030085D03*
X033565Y029888D03*
X033565Y029691D03*
X033565Y029495D03*
X033565Y029298D03*
X033565Y029101D03*
X033565Y028904D03*
X033565Y028707D03*
X033565Y028510D03*
X033565Y028313D03*
X033565Y028117D03*
X033565Y027920D03*
X033565Y027723D03*
X033565Y027526D03*
X033565Y027329D03*
X033565Y027132D03*
X033565Y026936D03*
X033565Y026739D03*
X033565Y026542D03*
X033565Y026345D03*
X033565Y026148D03*
D28*
X030494Y029121D03*
X029234Y029121D03*
D29*
X026774Y031207D03*
X026774Y032113D03*
X026774Y033018D03*
D30*
X029254Y032113D03*
D31*
X008132Y025676D03*
X008132Y023432D03*
D32*
X002955Y026306D03*
X002561Y021128D03*
D33*
X004077Y022963D03*
X004234Y023396D03*
X004077Y023829D03*
X003998Y024262D03*
X004077Y024695D03*
X003998Y025128D03*
X004077Y025561D03*
X004077Y025995D03*
D34*
X017786Y033216D02*
X018006Y033216D01*
X018006Y032996D01*
X017786Y032996D01*
X017786Y033216D01*
X017786Y033089D02*
X018006Y033089D01*
X018006Y033182D02*
X017786Y033182D01*
X017786Y033907D02*
X018006Y033907D01*
X018006Y033687D01*
X017786Y033687D01*
X017786Y033907D01*
X017786Y033780D02*
X018006Y033780D01*
X018006Y033873D02*
X017786Y033873D01*
X022936Y033758D02*
X022936Y033538D01*
X022716Y033538D01*
X022716Y033758D01*
X022936Y033758D01*
X022936Y033631D02*
X022716Y033631D01*
X022716Y033724D02*
X022936Y033724D01*
X022936Y034129D02*
X022936Y034349D01*
X022936Y034129D02*
X022716Y034129D01*
X022716Y034349D01*
X022936Y034349D01*
X022936Y034222D02*
X022716Y034222D01*
X022716Y034315D02*
X022936Y034315D01*
X023627Y034349D02*
X023627Y034129D01*
X023407Y034129D01*
X023407Y034349D01*
X023627Y034349D01*
X023627Y034222D02*
X023407Y034222D01*
X023407Y034315D02*
X023627Y034315D01*
X023627Y033758D02*
X023627Y033538D01*
X023407Y033538D01*
X023407Y033758D01*
X023627Y033758D01*
X023627Y033631D02*
X023407Y033631D01*
X023407Y033724D02*
X023627Y033724D01*
D35*
X011486Y036121D03*
X010986Y036121D03*
X010486Y036121D03*
X009986Y036121D03*
X009486Y036121D03*
X008986Y036121D03*
X008486Y036121D03*
X007986Y036121D03*
X007486Y036121D03*
X006986Y036121D03*
X006486Y036121D03*
X005986Y036121D03*
X005486Y036121D03*
X004986Y036121D03*
X004986Y028758D03*
X005486Y028758D03*
X005986Y028758D03*
X006486Y028758D03*
X006986Y028758D03*
X007486Y028758D03*
X007986Y028758D03*
X008486Y028758D03*
X008986Y028758D03*
X009486Y028758D03*
X009986Y028758D03*
X010486Y028758D03*
X010986Y028758D03*
X011486Y028758D03*
D36*
X012195Y030187D03*
X012195Y030687D03*
X012195Y031187D03*
X012195Y031687D03*
X012195Y032187D03*
X012195Y032687D03*
X012195Y033187D03*
X012195Y033687D03*
X012195Y034187D03*
X012195Y034687D03*
D37*
X008014Y032388D03*
D38*
X024934Y028884D03*
X026054Y028884D03*
X031588Y036483D03*
X032708Y036483D03*
D39*
X024471Y027428D03*
X024471Y026325D03*
D40*
X028723Y023451D03*
X028723Y022664D03*
X028723Y021876D03*
D41*
X031183Y020951D03*
X031183Y024376D03*
D42*
X021831Y028449D03*
X021831Y029949D03*
X019631Y029949D03*
X018642Y029949D03*
X018642Y028449D03*
X019631Y028449D03*
X016442Y028449D03*
X016442Y029949D03*
D43*
X018191Y027467D03*
X019191Y027467D03*
X020191Y027467D03*
X021191Y027467D03*
X022191Y027467D03*
X023191Y027467D03*
X023191Y024947D03*
X022191Y024947D03*
X021191Y024947D03*
X020191Y024947D03*
X019191Y024947D03*
X018191Y024947D03*
D44*
X025335Y024382D03*
X025835Y024382D03*
X026335Y024382D03*
X026835Y024382D03*
X026835Y026772D03*
X026335Y026772D03*
X025835Y026772D03*
X025335Y026772D03*
D45*
X026085Y025577D03*
D46*
G36*
X018892Y016792D02*
X018949Y016735D01*
X018766Y016552D01*
X018709Y016609D01*
X018892Y016792D01*
G37*
G36*
X018998Y016685D02*
X019055Y016628D01*
X018872Y016445D01*
X018815Y016502D01*
X018998Y016685D01*
G37*
G36*
X019112Y016572D02*
X019169Y016515D01*
X018986Y016332D01*
X018929Y016389D01*
X019112Y016572D01*
G37*
G36*
X019225Y016459D02*
X019282Y016402D01*
X019099Y016219D01*
X019042Y016276D01*
X019225Y016459D01*
G37*
G36*
X019331Y016353D02*
X019388Y016296D01*
X019205Y016113D01*
X019148Y016170D01*
X019331Y016353D01*
G37*
G36*
X019148Y015928D02*
X019205Y015985D01*
X019388Y015802D01*
X019331Y015745D01*
X019148Y015928D01*
G37*
G36*
X019042Y015822D02*
X019099Y015879D01*
X019282Y015696D01*
X019225Y015639D01*
X019042Y015822D01*
G37*
G36*
X018929Y015709D02*
X018986Y015766D01*
X019169Y015583D01*
X019112Y015526D01*
X018929Y015709D01*
G37*
G36*
X018815Y015596D02*
X018872Y015653D01*
X019055Y015470D01*
X018998Y015413D01*
X018815Y015596D01*
G37*
G36*
X018709Y015490D02*
X018766Y015547D01*
X018949Y015364D01*
X018892Y015307D01*
X018709Y015490D01*
G37*
G36*
X018525Y015547D02*
X018582Y015490D01*
X018399Y015307D01*
X018342Y015364D01*
X018525Y015547D01*
G37*
G36*
X018419Y015653D02*
X018476Y015596D01*
X018293Y015413D01*
X018236Y015470D01*
X018419Y015653D01*
G37*
G36*
X018305Y015766D02*
X018362Y015709D01*
X018179Y015526D01*
X018122Y015583D01*
X018305Y015766D01*
G37*
G36*
X018192Y015879D02*
X018249Y015822D01*
X018066Y015639D01*
X018009Y015696D01*
X018192Y015879D01*
G37*
G36*
X018086Y015985D02*
X018143Y015928D01*
X017960Y015745D01*
X017903Y015802D01*
X018086Y015985D01*
G37*
G36*
X017903Y016296D02*
X017960Y016353D01*
X018143Y016170D01*
X018086Y016113D01*
X017903Y016296D01*
G37*
G36*
X018009Y016402D02*
X018066Y016459D01*
X018249Y016276D01*
X018192Y016219D01*
X018009Y016402D01*
G37*
G36*
X018122Y016515D02*
X018179Y016572D01*
X018362Y016389D01*
X018305Y016332D01*
X018122Y016515D01*
G37*
G36*
X018236Y016628D02*
X018293Y016685D01*
X018476Y016502D01*
X018419Y016445D01*
X018236Y016628D01*
G37*
G36*
X018342Y016735D02*
X018399Y016792D01*
X018582Y016609D01*
X018525Y016552D01*
X018342Y016735D01*
G37*
M02*
