G75*
%MOIN*%
%OFA0B0*%
%FSLAX24Y24*%
%IPPOS*%
%LPD*%
%AMOC8*
5,1,8,0,0,1.08239X$1,22.5*
%
%ADD10C,0.0000*%
%ADD11R,0.0531X0.0394*%
%ADD12R,0.0787X0.0709*%
%ADD13R,0.0551X0.0630*%
D10*
X000960Y001444D02*
X000960Y030972D01*
X000962Y031034D01*
X000968Y031095D01*
X000977Y031156D01*
X000991Y031217D01*
X001008Y031276D01*
X001029Y031334D01*
X001054Y031391D01*
X001082Y031446D01*
X001113Y031499D01*
X001148Y031550D01*
X001186Y031599D01*
X001227Y031646D01*
X001270Y031689D01*
X001317Y031730D01*
X001366Y031768D01*
X001417Y031803D01*
X001470Y031834D01*
X001525Y031862D01*
X001582Y031887D01*
X001640Y031908D01*
X001699Y031925D01*
X001760Y031939D01*
X001821Y031948D01*
X001882Y031954D01*
X001944Y031956D01*
X025567Y031956D01*
X025629Y031954D01*
X025690Y031948D01*
X025751Y031939D01*
X025812Y031925D01*
X025871Y031908D01*
X025929Y031887D01*
X025986Y031862D01*
X026041Y031834D01*
X026094Y031803D01*
X026145Y031768D01*
X026194Y031730D01*
X026241Y031689D01*
X026284Y031646D01*
X026325Y031599D01*
X026363Y031550D01*
X026398Y031499D01*
X026429Y031446D01*
X026457Y031391D01*
X026482Y031334D01*
X026503Y031276D01*
X026520Y031217D01*
X026534Y031156D01*
X026543Y031095D01*
X026549Y031034D01*
X026551Y030972D01*
X026551Y001444D01*
X026549Y001382D01*
X026543Y001321D01*
X026534Y001260D01*
X026520Y001199D01*
X026503Y001140D01*
X026482Y001082D01*
X026457Y001025D01*
X026429Y000970D01*
X026398Y000917D01*
X026363Y000866D01*
X026325Y000817D01*
X026284Y000770D01*
X026241Y000727D01*
X026194Y000686D01*
X026145Y000648D01*
X026094Y000613D01*
X026041Y000582D01*
X025986Y000554D01*
X025929Y000529D01*
X025871Y000508D01*
X025812Y000491D01*
X025751Y000477D01*
X025690Y000468D01*
X025629Y000462D01*
X025567Y000460D01*
X001944Y000460D01*
X001882Y000462D01*
X001821Y000468D01*
X001760Y000477D01*
X001699Y000491D01*
X001640Y000508D01*
X001582Y000529D01*
X001525Y000554D01*
X001470Y000582D01*
X001417Y000613D01*
X001366Y000648D01*
X001317Y000686D01*
X001270Y000727D01*
X001227Y000770D01*
X001186Y000817D01*
X001148Y000866D01*
X001113Y000917D01*
X001082Y000970D01*
X001054Y001025D01*
X001029Y001082D01*
X001008Y001140D01*
X000991Y001199D01*
X000977Y001260D01*
X000968Y001321D01*
X000962Y001382D01*
X000960Y001444D01*
X003799Y015619D02*
X003801Y015647D01*
X003807Y015675D01*
X003816Y015701D01*
X003829Y015727D01*
X003845Y015750D01*
X003865Y015770D01*
X003887Y015788D01*
X003911Y015803D01*
X003937Y015814D01*
X003964Y015822D01*
X003992Y015826D01*
X004020Y015826D01*
X004048Y015822D01*
X004075Y015814D01*
X004101Y015803D01*
X004125Y015788D01*
X004147Y015770D01*
X004167Y015750D01*
X004183Y015727D01*
X004196Y015701D01*
X004205Y015675D01*
X004211Y015647D01*
X004213Y015619D01*
X004211Y015591D01*
X004205Y015563D01*
X004196Y015537D01*
X004183Y015511D01*
X004167Y015488D01*
X004147Y015468D01*
X004125Y015450D01*
X004101Y015435D01*
X004075Y015424D01*
X004048Y015416D01*
X004020Y015412D01*
X003992Y015412D01*
X003964Y015416D01*
X003937Y015424D01*
X003911Y015435D01*
X003887Y015450D01*
X003865Y015468D01*
X003845Y015488D01*
X003829Y015511D01*
X003816Y015537D01*
X003807Y015563D01*
X003801Y015591D01*
X003799Y015619D01*
X002800Y016677D02*
X002802Y016701D01*
X002808Y016724D01*
X002817Y016746D01*
X002830Y016766D01*
X002845Y016784D01*
X002864Y016799D01*
X002885Y016811D01*
X002907Y016819D01*
X002930Y016824D01*
X002954Y016825D01*
X002978Y016822D01*
X003000Y016815D01*
X003022Y016805D01*
X003042Y016792D01*
X003059Y016775D01*
X003073Y016756D01*
X003084Y016735D01*
X003092Y016712D01*
X003096Y016689D01*
X003096Y016665D01*
X003092Y016642D01*
X003084Y016619D01*
X003073Y016598D01*
X003059Y016579D01*
X003042Y016562D01*
X003022Y016549D01*
X003000Y016539D01*
X002978Y016532D01*
X002954Y016529D01*
X002930Y016530D01*
X002907Y016535D01*
X002885Y016543D01*
X002864Y016555D01*
X002845Y016570D01*
X002830Y016588D01*
X002817Y016608D01*
X002808Y016630D01*
X002802Y016653D01*
X002800Y016677D01*
X003873Y019712D02*
X003875Y019751D01*
X003881Y019790D01*
X003891Y019828D01*
X003904Y019865D01*
X003921Y019900D01*
X003941Y019934D01*
X003965Y019965D01*
X003992Y019994D01*
X004021Y020020D01*
X004053Y020043D01*
X004087Y020063D01*
X004123Y020079D01*
X004160Y020091D01*
X004199Y020100D01*
X004238Y020105D01*
X004277Y020106D01*
X004316Y020103D01*
X004355Y020096D01*
X004392Y020085D01*
X004429Y020071D01*
X004464Y020053D01*
X004497Y020032D01*
X004528Y020007D01*
X004556Y019980D01*
X004581Y019950D01*
X004603Y019917D01*
X004622Y019883D01*
X004637Y019847D01*
X004649Y019809D01*
X004657Y019771D01*
X004661Y019732D01*
X004661Y019692D01*
X004657Y019653D01*
X004649Y019615D01*
X004637Y019577D01*
X004622Y019541D01*
X004603Y019507D01*
X004581Y019474D01*
X004556Y019444D01*
X004528Y019417D01*
X004497Y019392D01*
X004464Y019371D01*
X004429Y019353D01*
X004392Y019339D01*
X004355Y019328D01*
X004316Y019321D01*
X004277Y019318D01*
X004238Y019319D01*
X004199Y019324D01*
X004160Y019333D01*
X004123Y019345D01*
X004087Y019361D01*
X004053Y019381D01*
X004021Y019404D01*
X003992Y019430D01*
X003965Y019459D01*
X003941Y019490D01*
X003921Y019524D01*
X003904Y019559D01*
X003891Y019596D01*
X003881Y019634D01*
X003875Y019673D01*
X003873Y019712D01*
D11*
G36*
X003750Y017492D02*
X004124Y017866D01*
X004402Y017588D01*
X004028Y017214D01*
X003750Y017492D01*
G37*
G36*
X004147Y017095D02*
X004521Y017469D01*
X004799Y017191D01*
X004425Y016817D01*
X004147Y017095D01*
G37*
G36*
X004543Y016699D02*
X004917Y017073D01*
X005195Y016795D01*
X004821Y016421D01*
X004543Y016699D01*
G37*
G36*
X002553Y014708D02*
X002927Y015082D01*
X003205Y014804D01*
X002831Y014430D01*
X002553Y014708D01*
G37*
G36*
X002156Y015105D02*
X002530Y015479D01*
X002808Y015201D01*
X002434Y014827D01*
X002156Y015105D01*
G37*
G36*
X001759Y015502D02*
X002133Y015876D01*
X002411Y015598D01*
X002037Y015224D01*
X001759Y015502D01*
G37*
D12*
G36*
X001822Y017249D02*
X002377Y017804D01*
X002878Y017303D01*
X002323Y016748D01*
X001822Y017249D01*
G37*
G36*
X004077Y014994D02*
X004632Y015549D01*
X005133Y015048D01*
X004578Y014493D01*
X004077Y014994D01*
G37*
D13*
X008274Y015714D03*
X010046Y015714D03*
X011124Y014356D03*
X012010Y014356D03*
X012896Y014356D03*
X012896Y017664D03*
X011124Y017664D03*
X010046Y012406D03*
X009160Y012406D03*
X008274Y012406D03*
M02*
