%
M48
M72
T01C0.0157
T02C0.0236
T03C0.0295
T04C0.0400
T05C0.0413
T06C0.0433
T07C0.0787
%
T01
X2535Y2035
X1551Y3491
X1354Y4279
X1354Y5066
X4110Y3885
X5685Y3885
X6039Y3137
X5685Y2035
X4110Y2035
X6760Y4310
X7760Y4260
X8760Y4260
X9760Y4260
X10760Y4260
X11760Y4260
X13322Y6129
X14110Y9082
X13716Y10066
X13716Y11051
X13519Y12035
X13519Y13019
X13519Y14200
X13519Y15184
X13913Y15972
X12338Y13019
X12535Y12035
X10409Y11484
X10409Y10303
X11196Y9515
X8834Y10303
X8834Y11484
X7653Y11877
X7063Y12547
X6669Y11877
X6669Y13255
X7653Y13255
X8834Y13058
X8834Y14633
X8834Y15657
X7259Y15657
X7259Y14633
X5212Y14633
X5173Y15617
X5055Y13058
X5055Y11484
X5055Y10303
X4700Y9594
X3795Y8295
X7259Y2035
X8834Y2035
X10409Y2035
X11984Y2035
X16866Y5539
X16866Y7310
X16866Y9082
X16866Y11051
X16866Y13019
X16866Y15381
X17063Y17153
X17063Y18728
X17338Y20560
X17732Y20560
X18283Y21720
X18283Y22507
X18283Y24082
X18283Y25657
X17496Y25657
X17496Y27232
X18283Y27232
X19960Y26960
X20460Y25960
X19960Y24960
X19858Y24082
X20960Y24960
X21433Y24082
X21960Y24960
X22460Y25960
X21960Y26960
X20960Y26960
X22207Y28981
X22060Y30260
X22260Y30760
X22060Y31160
X22860Y31160
X23260Y30760
X22860Y30360
X23760Y30360
X23760Y31160
X24582Y30381
X25370Y30381
X25370Y28806
X24582Y28806
X23907Y28181
X23207Y28081
X22960Y26960
X23960Y26960
X23460Y25960
X22960Y24960
X23007Y24082
X23960Y24960
X24582Y24082
X25763Y23688
X25763Y22507
X25763Y21326
X25763Y20539
X25010Y20410
X24960Y19960
X24582Y19358
X23960Y20810
X23760Y22110
X23610Y22560
X21433Y22507
X20960Y22510
X20645Y21720
X21433Y21720
X19710Y20060
X23007Y19358
X16708Y21720
X16708Y22507
X15410Y22260
X14346Y21720
X13952Y21720
X13559Y21720
X13910Y22760
X13952Y23295
X13165Y23295
X14740Y23885
X15921Y24082
X15921Y24712
X16708Y24082
X14860Y25510
X15460Y26060
X15410Y26860
X15360Y27310
X15360Y27760
X15360Y28260
X15330Y28708
X14740Y28216
X14248Y28806
X14060Y29310
X13460Y29299
X13510Y28810
X13010Y28260
X12860Y27910
X13559Y27232
X13854Y26936
X14149Y26641
X13559Y26641
X14149Y27232
X12771Y26051
X12378Y26051
X11960Y26675
X11196Y26051
X10252Y25932
X9740Y25381
X9425Y25145
X9031Y25736
X9622Y26444
X10409Y27232
X10409Y28806
X10409Y30381
X11984Y30381
X12476Y29299
X8834Y28806
X8322Y28491
X7850Y28925
X7259Y30381
X8834Y30381
X6472Y28019
X6078Y27625
X5685Y28019
X5173Y27980
X5212Y28806
X5685Y28806
X4700Y29121
X4110Y30381
X5685Y30381
X2929Y28806
X1748Y27232
X1748Y26444
X1748Y25657
X2060Y24960
X1748Y24869
X1748Y24082
X2929Y22507
X3322Y21720
X2535Y21720
X1748Y21720
X1748Y20539
X3637Y19200
X4910Y21010
X5260Y20710
X5760Y20710
X6760Y20710
X7760Y20710
X8760Y20710
X9760Y20710
X10760Y20710
X10798Y21598
X10409Y23295
X10409Y24082
X10803Y24476
X11410Y24410
X11610Y24760
X11196Y23295
X9622Y23295
X8834Y23295
X8441Y23688
X8834Y24082
X8952Y24594
X7660Y25160
X7141Y24318
X6866Y24476
X6866Y24121
X5685Y24082
X5291Y24476
X5291Y24830
X5488Y25736
X6196Y26562
X5212Y27074
X4310Y25960
X4160Y26310
X3810Y26510
X3510Y26860
X4060Y25660
X3810Y25360
X3510Y25060
X6472Y22507
X7259Y22507
X7220Y27389
X8007Y27389
X8834Y27232
X14464Y20460
X14960Y20460
X14582Y19751
X13952Y20145
X13559Y20145
X13110Y19560
X10606Y15696
X16708Y28806
X16360Y29360
X16708Y30381
X17507Y29481
X18007Y30081
X18960Y30360
X19460Y30760
X19960Y30360
X20460Y30760
X20560Y30260
X20560Y31160
X19960Y31160
X18960Y31160
X20158Y29381
X25370Y27232
X2535Y30381
T02
X3126Y17665
X15410Y20760
T03
X2948Y16677
T04
X2787Y18520
X1787Y18620
X3787Y18620
X4787Y18520
X5787Y18620
X6787Y18520
X7787Y18620
X8787Y18520
X9787Y18620
X10787Y18520
X11787Y18620
X12787Y18520
X13787Y18620
X14787Y18520
X14869Y16562
X14769Y15562
X14869Y14562
X14769Y13562
X14869Y12562
X14769Y11562
X14869Y10562
X14769Y9562
X14869Y8562
X14769Y7562
X14779Y6512
X13779Y6612
X12779Y6512
X11779Y6612
X10779Y6512
X9779Y6612
X8779Y6512
X7779Y6612
X6779Y6512
X5779Y6612
X4779Y6512
X3779Y6612
X2779Y6512
X1779Y6612
T05
X4006Y15619
T06
X13813Y4564
X13813Y3564
X14813Y3564
X14813Y4564
X15813Y4564
X15813Y3564
X16813Y3564
X16813Y4564
X17813Y4564
X17813Y5564
X17813Y6564
X17813Y7564
X17813Y8564
X17813Y9564
X17813Y10564
X17813Y11564
X17813Y12564
X17813Y13564
X17813Y14564
X18813Y14564
X18813Y13564
X18813Y12564
X18813Y11564
X18813Y10564
X18813Y9564
X18813Y8564
X18813Y7564
X18813Y6564
X18813Y5564
X18813Y4564
X18813Y3564
X17813Y3564
X17813Y2564
X17813Y1564
X18813Y1564
X18813Y2564
X19813Y2564
X19813Y1564
X20813Y1564
X20813Y2564
X20813Y3564
X19813Y3564
X19813Y4564
X19813Y5564
X19813Y6564
X19813Y7564
X19813Y8564
X19813Y9564
X19813Y10564
X19813Y11564
X19813Y12564
X19813Y13564
X19813Y14564
X20813Y14564
X20813Y13564
X20813Y12564
X20813Y11564
X20813Y10564
X20813Y9564
X20813Y8564
X20813Y7564
X20813Y6564
X20813Y5564
X20813Y4564
X21813Y4564
X21813Y5564
X21813Y6564
X21813Y7564
X21813Y8564
X21813Y9564
X21813Y10564
X21813Y11564
X21813Y12564
X21813Y13564
X21813Y14564
X22813Y14564
X22813Y13564
X22813Y12564
X22813Y11564
X22813Y10564
X22813Y9564
X22813Y8564
X22813Y7564
X22813Y6564
X22813Y5564
X22813Y4564
X22813Y3564
X21813Y3564
X21813Y2564
X21813Y1564
X22813Y1564
X22813Y2564
X23813Y2564
X23813Y1564
X24813Y1564
X24813Y2564
X24813Y3564
X23813Y3564
X23813Y4564
X23813Y5564
X23813Y6564
X23813Y7564
X23813Y8564
X23813Y9564
X23813Y10564
X23813Y11564
X23813Y12564
X23813Y13564
X23813Y14564
X24813Y14564
X24813Y13564
X24813Y12564
X24813Y11564
X24813Y10564
X24813Y9564
X24813Y8564
X24813Y7564
X24813Y6564
X24813Y5564
X24813Y4564
X25813Y4564
X25813Y5564
X25813Y6564
X25813Y7564
X25813Y8564
X25813Y9564
X25813Y10564
X25813Y11564
X25813Y12564
X25813Y13564
X25813Y14564
X25813Y15564
X25813Y16564
X25813Y17564
X25813Y18564
X24813Y18564
X23813Y18564
X23813Y17564
X23813Y16564
X23813Y15564
X24813Y15564
X24813Y16564
X24813Y17564
X22813Y17564
X21813Y17564
X21813Y18564
X22813Y18564
X22813Y16564
X21813Y16564
X21813Y15564
X22813Y15564
X20813Y15564
X19813Y15564
X19813Y16564
X19813Y17564
X19813Y18564
X20813Y18564
X20813Y17564
X20813Y16564
X18813Y16564
X17813Y16564
X17813Y17564
X17813Y18564
X18813Y18564
X18813Y17564
X18813Y15564
X17813Y15564
X25813Y3564
X25813Y2564
X25813Y1564
X16813Y1564
X15813Y1564
X15813Y2564
X16813Y2564
X14813Y2564
X13813Y2564
X13813Y1564
X14813Y1564
T07
X4267Y19712
M30
