G75*
%MOIN*%
%OFA0B0*%
%FSLAX24Y24*%
%IPPOS*%
%LPD*%
%AMOC8*
5,1,8,0,0,1.08239X$1,22.5*
%
%ADD10C,0.0100*%
%ADD11C,0.0000*%
%ADD12C,0.0039*%
%ADD13C,0.0040*%
%ADD14R,0.0010X0.0010*%
%ADD15R,0.0058X0.0010*%
%ADD16R,0.0029X0.0010*%
%ADD17R,0.0211X0.0010*%
%ADD18R,0.0019X0.0010*%
%ADD19R,0.0749X0.0010*%
%ADD20R,0.0269X0.0010*%
%ADD21R,0.0307X0.0010*%
%ADD22R,0.0327X0.0010*%
%ADD23R,0.0298X0.0010*%
%ADD24R,0.0759X0.0010*%
%ADD25R,0.0365X0.0010*%
%ADD26R,0.0403X0.0010*%
%ADD27R,0.0317X0.0010*%
%ADD28R,0.0423X0.0010*%
%ADD29R,0.0451X0.0010*%
%ADD30R,0.0231X0.0010*%
%ADD31R,0.0173X0.0010*%
%ADD32R,0.0077X0.0010*%
%ADD33R,0.0144X0.0010*%
%ADD34R,0.0086X0.0010*%
%ADD35R,0.0096X0.0010*%
%ADD36R,0.0134X0.0010*%
%ADD37R,0.0125X0.0010*%
%ADD38R,0.0288X0.0010*%
%ADD39R,0.0115X0.0010*%
%ADD40R,0.0106X0.0010*%
%ADD41R,0.0279X0.0010*%
%ADD42R,0.0067X0.0010*%
%ADD43R,0.0500X0.0010*%
%ADD44R,0.0154X0.0010*%
%ADD45R,0.0490X0.0010*%
%ADD46R,0.0480X0.0010*%
%ADD47R,0.0202X0.0010*%
%ADD48R,0.0471X0.0010*%
%ADD49R,0.0250X0.0010*%
%ADD50R,0.0442X0.0010*%
%ADD51R,0.0259X0.0010*%
%ADD52R,0.0048X0.0010*%
%ADD53R,0.0038X0.0010*%
%ADD54R,0.0163X0.0010*%
%ADD55R,0.0528X0.0010*%
%ADD56R,0.0538X0.0010*%
%ADD57R,0.0548X0.0010*%
%ADD58R,0.0557X0.0010*%
%ADD59R,0.0192X0.0010*%
%ADD60R,0.0240X0.0010*%
%ADD61R,0.0183X0.0010*%
%ADD62R,0.0769X0.0010*%
%ADD63R,0.0778X0.0010*%
%ADD64R,0.0221X0.0010*%
%ADD65R,0.0384X0.0010*%
%ADD66R,0.0375X0.0010*%
%ADD67R,0.0346X0.0010*%
%ADD68R,0.0336X0.0010*%
%ADD69R,0.0509X0.0010*%
%ADD70R,0.0682X0.0010*%
%ADD71R,0.0788X0.0010*%
%ADD72R,0.0893X0.0010*%
%ADD73R,0.0980X0.0010*%
%ADD74R,0.0932X0.0010*%
%ADD75R,0.0999X0.0010*%
%ADD76R,0.1057X0.0010*%
%ADD77R,0.0922X0.0010*%
%ADD78R,0.0989X0.0010*%
%ADD79R,0.1124X0.0010*%
%ADD80R,0.0941X0.0010*%
%ADD81R,0.1009X0.0010*%
%ADD82R,0.0413X0.0010*%
%ADD83R,0.0461X0.0010*%
%ADD84R,0.0586X0.0010*%
%ADD85R,0.0634X0.0010*%
%ADD86R,0.0720X0.0010*%
%ADD87R,0.1268X0.0010*%
%ADD88R,0.1258X0.0010*%
%ADD89R,0.1249X0.0010*%
%ADD90R,0.1239X0.0010*%
%ADD91R,0.1230X0.0010*%
%ADD92R,0.0865X0.0010*%
%ADD93R,0.0855X0.0010*%
%ADD94R,0.0845X0.0010*%
%ADD95R,0.0836X0.0010*%
%ADD96R,0.0826X0.0010*%
%ADD97R,0.1403X0.0010*%
%ADD98R,0.1412X0.0010*%
%ADD99R,0.1422X0.0010*%
%ADD100R,0.0432X0.0010*%
%ADD101R,0.0394X0.0010*%
%ADD102R,0.1335X0.0010*%
%ADD103R,0.1345X0.0010*%
%ADD104R,0.0624X0.0010*%
%ADD105R,0.0913X0.0010*%
%ADD106R,0.0903X0.0010*%
%ADD107R,0.0355X0.0010*%
%ADD108R,0.0884X0.0010*%
%ADD109R,0.0874X0.0010*%
%ADD110R,0.0711X0.0010*%
%ADD111R,0.0596X0.0010*%
%ADD112C,0.0150*%
%ADD113C,0.0160*%
%ADD114C,0.4240*%
%ADD115C,0.4015*%
%ADD116C,0.1772*%
%ADD117C,0.0080*%
D10*
X005927Y004947D02*
X035455Y004947D01*
X035579Y004949D01*
X035702Y004955D01*
X035826Y004964D01*
X035948Y004978D01*
X036071Y004995D01*
X036193Y005017D01*
X036314Y005042D01*
X036434Y005071D01*
X036553Y005103D01*
X036672Y005140D01*
X036789Y005180D01*
X036904Y005223D01*
X037019Y005271D01*
X037131Y005322D01*
X037242Y005376D01*
X037352Y005434D01*
X037459Y005495D01*
X037565Y005560D01*
X037668Y005628D01*
X037769Y005699D01*
X037868Y005773D01*
X037965Y005850D01*
X038059Y005931D01*
X038150Y006014D01*
X038239Y006100D01*
X038325Y006189D01*
X038408Y006280D01*
X038489Y006374D01*
X038566Y006471D01*
X038640Y006570D01*
X038711Y006671D01*
X038779Y006774D01*
X038844Y006880D01*
X038905Y006987D01*
X038963Y007097D01*
X039017Y007208D01*
X039068Y007320D01*
X039116Y007435D01*
X039159Y007550D01*
X039199Y007667D01*
X039236Y007786D01*
X039268Y007905D01*
X039297Y008025D01*
X039322Y008146D01*
X039344Y008268D01*
X039361Y008391D01*
X039375Y008513D01*
X039384Y008637D01*
X039390Y008760D01*
X039392Y008884D01*
X039392Y037231D01*
X039390Y037308D01*
X039384Y037385D01*
X039375Y037462D01*
X039362Y037538D01*
X039345Y037614D01*
X039324Y037688D01*
X039300Y037762D01*
X039272Y037834D01*
X039241Y037904D01*
X039206Y037973D01*
X039168Y038041D01*
X039127Y038106D01*
X039082Y038169D01*
X039034Y038230D01*
X038984Y038289D01*
X038931Y038345D01*
X038875Y038398D01*
X038816Y038448D01*
X038755Y038496D01*
X038692Y038541D01*
X038627Y038582D01*
X038559Y038620D01*
X038490Y038655D01*
X038420Y038686D01*
X038348Y038714D01*
X038274Y038738D01*
X038200Y038759D01*
X038124Y038776D01*
X038048Y038789D01*
X037971Y038798D01*
X037894Y038804D01*
X037817Y038806D01*
X003565Y038806D01*
X003488Y038804D01*
X003411Y038798D01*
X003334Y038789D01*
X003258Y038776D01*
X003182Y038759D01*
X003108Y038738D01*
X003034Y038714D01*
X002962Y038686D01*
X002892Y038655D01*
X002823Y038620D01*
X002755Y038582D01*
X002690Y038541D01*
X002627Y038496D01*
X002566Y038448D01*
X002507Y038398D01*
X002451Y038345D01*
X002398Y038289D01*
X002348Y038230D01*
X002300Y038169D01*
X002255Y038106D01*
X002214Y038041D01*
X002176Y037973D01*
X002141Y037904D01*
X002110Y037834D01*
X002082Y037762D01*
X002058Y037688D01*
X002037Y037614D01*
X002020Y037538D01*
X002007Y037462D01*
X001998Y037385D01*
X001992Y037308D01*
X001990Y037231D01*
X001990Y008884D01*
X001992Y008760D01*
X001998Y008637D01*
X002007Y008513D01*
X002021Y008391D01*
X002038Y008268D01*
X002060Y008146D01*
X002085Y008025D01*
X002114Y007905D01*
X002146Y007786D01*
X002183Y007667D01*
X002223Y007550D01*
X002266Y007435D01*
X002314Y007320D01*
X002365Y007208D01*
X002419Y007097D01*
X002477Y006987D01*
X002538Y006880D01*
X002603Y006774D01*
X002671Y006671D01*
X002742Y006570D01*
X002816Y006471D01*
X002893Y006374D01*
X002974Y006280D01*
X003057Y006189D01*
X003143Y006100D01*
X003232Y006014D01*
X003323Y005931D01*
X003417Y005850D01*
X003514Y005773D01*
X003613Y005699D01*
X003714Y005628D01*
X003817Y005560D01*
X003923Y005495D01*
X004030Y005434D01*
X004140Y005376D01*
X004251Y005322D01*
X004363Y005271D01*
X004478Y005223D01*
X004593Y005180D01*
X004710Y005140D01*
X004829Y005103D01*
X004948Y005071D01*
X005068Y005042D01*
X005189Y005017D01*
X005311Y004995D01*
X005434Y004978D01*
X005556Y004964D01*
X005680Y004955D01*
X005803Y004949D01*
X005927Y004947D01*
X004943Y021089D02*
X004943Y035656D01*
X036479Y035656D01*
X036479Y021089D01*
X004943Y021089D01*
D11*
X002541Y027782D02*
X002543Y027832D01*
X002549Y027882D01*
X002559Y027931D01*
X002573Y027979D01*
X002590Y028026D01*
X002611Y028071D01*
X002636Y028115D01*
X002664Y028156D01*
X002696Y028195D01*
X002730Y028232D01*
X002767Y028266D01*
X002807Y028296D01*
X002849Y028323D01*
X002893Y028347D01*
X002939Y028368D01*
X002986Y028384D01*
X003034Y028397D01*
X003084Y028406D01*
X003133Y028411D01*
X003184Y028412D01*
X003234Y028409D01*
X003283Y028402D01*
X003332Y028391D01*
X003380Y028376D01*
X003426Y028358D01*
X003471Y028336D01*
X003514Y028310D01*
X003555Y028281D01*
X003594Y028249D01*
X003630Y028214D01*
X003662Y028176D01*
X003692Y028136D01*
X003719Y028093D01*
X003742Y028049D01*
X003761Y028003D01*
X003777Y027955D01*
X003789Y027906D01*
X003797Y027857D01*
X003801Y027807D01*
X003801Y027757D01*
X003797Y027707D01*
X003789Y027658D01*
X003777Y027609D01*
X003761Y027561D01*
X003742Y027515D01*
X003719Y027471D01*
X003692Y027428D01*
X003662Y027388D01*
X003630Y027350D01*
X003594Y027315D01*
X003555Y027283D01*
X003514Y027254D01*
X003471Y027228D01*
X003426Y027206D01*
X003380Y027188D01*
X003332Y027173D01*
X003283Y027162D01*
X003234Y027155D01*
X003184Y027152D01*
X003133Y027153D01*
X003084Y027158D01*
X003034Y027167D01*
X002986Y027180D01*
X002939Y027196D01*
X002893Y027217D01*
X002849Y027241D01*
X002807Y027268D01*
X002767Y027298D01*
X002730Y027332D01*
X002696Y027369D01*
X002664Y027408D01*
X002636Y027449D01*
X002611Y027493D01*
X002590Y027538D01*
X002573Y027585D01*
X002559Y027633D01*
X002549Y027682D01*
X002543Y027732D01*
X002541Y027782D01*
X002778Y037231D02*
X002780Y037287D01*
X002786Y037342D01*
X002796Y037396D01*
X002809Y037450D01*
X002827Y037503D01*
X002848Y037554D01*
X002872Y037604D01*
X002900Y037652D01*
X002932Y037698D01*
X002966Y037742D01*
X003004Y037783D01*
X003044Y037821D01*
X003087Y037856D01*
X003132Y037888D01*
X003180Y037917D01*
X003229Y037943D01*
X003280Y037965D01*
X003332Y037983D01*
X003386Y037997D01*
X003441Y038008D01*
X003496Y038015D01*
X003551Y038018D01*
X003607Y038017D01*
X003662Y038012D01*
X003717Y038003D01*
X003771Y037991D01*
X003824Y037974D01*
X003876Y037954D01*
X003926Y037930D01*
X003974Y037903D01*
X004021Y037873D01*
X004065Y037839D01*
X004107Y037802D01*
X004145Y037762D01*
X004182Y037720D01*
X004215Y037675D01*
X004244Y037629D01*
X004271Y037580D01*
X004293Y037529D01*
X004313Y037477D01*
X004328Y037423D01*
X004340Y037369D01*
X004348Y037314D01*
X004352Y037259D01*
X004352Y037203D01*
X004348Y037148D01*
X004340Y037093D01*
X004328Y037039D01*
X004313Y036985D01*
X004293Y036933D01*
X004271Y036882D01*
X004244Y036833D01*
X004215Y036787D01*
X004182Y036742D01*
X004145Y036700D01*
X004107Y036660D01*
X004065Y036623D01*
X004021Y036589D01*
X003974Y036559D01*
X003926Y036532D01*
X003876Y036508D01*
X003824Y036488D01*
X003771Y036471D01*
X003717Y036459D01*
X003662Y036450D01*
X003607Y036445D01*
X003551Y036444D01*
X003496Y036447D01*
X003441Y036454D01*
X003386Y036465D01*
X003332Y036479D01*
X003280Y036497D01*
X003229Y036519D01*
X003180Y036545D01*
X003132Y036574D01*
X003087Y036606D01*
X003044Y036641D01*
X003004Y036679D01*
X002966Y036720D01*
X002932Y036764D01*
X002900Y036810D01*
X002872Y036858D01*
X002848Y036908D01*
X002827Y036959D01*
X002809Y037012D01*
X002796Y037066D01*
X002786Y037120D01*
X002780Y037175D01*
X002778Y037231D01*
X010022Y037624D02*
X010024Y037674D01*
X010030Y037724D01*
X010040Y037773D01*
X010054Y037821D01*
X010071Y037868D01*
X010092Y037913D01*
X010117Y037957D01*
X010145Y037998D01*
X010177Y038037D01*
X010211Y038074D01*
X010248Y038108D01*
X010288Y038138D01*
X010330Y038165D01*
X010374Y038189D01*
X010420Y038210D01*
X010467Y038226D01*
X010515Y038239D01*
X010565Y038248D01*
X010614Y038253D01*
X010665Y038254D01*
X010715Y038251D01*
X010764Y038244D01*
X010813Y038233D01*
X010861Y038218D01*
X010907Y038200D01*
X010952Y038178D01*
X010995Y038152D01*
X011036Y038123D01*
X011075Y038091D01*
X011111Y038056D01*
X011143Y038018D01*
X011173Y037978D01*
X011200Y037935D01*
X011223Y037891D01*
X011242Y037845D01*
X011258Y037797D01*
X011270Y037748D01*
X011278Y037699D01*
X011282Y037649D01*
X011282Y037599D01*
X011278Y037549D01*
X011270Y037500D01*
X011258Y037451D01*
X011242Y037403D01*
X011223Y037357D01*
X011200Y037313D01*
X011173Y037270D01*
X011143Y037230D01*
X011111Y037192D01*
X011075Y037157D01*
X011036Y037125D01*
X010995Y037096D01*
X010952Y037070D01*
X010907Y037048D01*
X010861Y037030D01*
X010813Y037015D01*
X010764Y037004D01*
X010715Y036997D01*
X010665Y036994D01*
X010614Y036995D01*
X010565Y037000D01*
X010515Y037009D01*
X010467Y037022D01*
X010420Y037038D01*
X010374Y037059D01*
X010330Y037083D01*
X010288Y037110D01*
X010248Y037140D01*
X010211Y037174D01*
X010177Y037211D01*
X010145Y037250D01*
X010117Y037291D01*
X010092Y037335D01*
X010071Y037380D01*
X010054Y037427D01*
X010040Y037475D01*
X010030Y037524D01*
X010024Y037574D01*
X010022Y037624D01*
X017974Y026707D02*
X017976Y026736D01*
X017982Y026764D01*
X017991Y026792D01*
X018004Y026818D01*
X018021Y026841D01*
X018040Y026863D01*
X018062Y026882D01*
X018087Y026897D01*
X018113Y026910D01*
X018141Y026918D01*
X018169Y026923D01*
X018198Y026924D01*
X018227Y026921D01*
X018255Y026914D01*
X018282Y026904D01*
X018308Y026890D01*
X018331Y026873D01*
X018352Y026853D01*
X018370Y026830D01*
X018385Y026805D01*
X018396Y026778D01*
X018404Y026750D01*
X018408Y026721D01*
X018408Y026693D01*
X018404Y026664D01*
X018396Y026636D01*
X018385Y026609D01*
X018370Y026584D01*
X018352Y026561D01*
X018331Y026541D01*
X018308Y026524D01*
X018282Y026510D01*
X018255Y026500D01*
X018227Y026493D01*
X018198Y026490D01*
X018169Y026491D01*
X018141Y026496D01*
X018113Y026504D01*
X018087Y026517D01*
X018062Y026532D01*
X018040Y026551D01*
X018021Y026573D01*
X018004Y026596D01*
X017991Y026622D01*
X017982Y026650D01*
X017976Y026678D01*
X017974Y026707D01*
X017974Y025707D02*
X017976Y025736D01*
X017982Y025764D01*
X017991Y025792D01*
X018004Y025818D01*
X018021Y025841D01*
X018040Y025863D01*
X018062Y025882D01*
X018087Y025897D01*
X018113Y025910D01*
X018141Y025918D01*
X018169Y025923D01*
X018198Y025924D01*
X018227Y025921D01*
X018255Y025914D01*
X018282Y025904D01*
X018308Y025890D01*
X018331Y025873D01*
X018352Y025853D01*
X018370Y025830D01*
X018385Y025805D01*
X018396Y025778D01*
X018404Y025750D01*
X018408Y025721D01*
X018408Y025693D01*
X018404Y025664D01*
X018396Y025636D01*
X018385Y025609D01*
X018370Y025584D01*
X018352Y025561D01*
X018331Y025541D01*
X018308Y025524D01*
X018282Y025510D01*
X018255Y025500D01*
X018227Y025493D01*
X018198Y025490D01*
X018169Y025491D01*
X018141Y025496D01*
X018113Y025504D01*
X018087Y025517D01*
X018062Y025532D01*
X018040Y025551D01*
X018021Y025573D01*
X018004Y025596D01*
X017991Y025622D01*
X017982Y025650D01*
X017976Y025678D01*
X017974Y025707D01*
X018974Y025707D02*
X018976Y025736D01*
X018982Y025764D01*
X018991Y025792D01*
X019004Y025818D01*
X019021Y025841D01*
X019040Y025863D01*
X019062Y025882D01*
X019087Y025897D01*
X019113Y025910D01*
X019141Y025918D01*
X019169Y025923D01*
X019198Y025924D01*
X019227Y025921D01*
X019255Y025914D01*
X019282Y025904D01*
X019308Y025890D01*
X019331Y025873D01*
X019352Y025853D01*
X019370Y025830D01*
X019385Y025805D01*
X019396Y025778D01*
X019404Y025750D01*
X019408Y025721D01*
X019408Y025693D01*
X019404Y025664D01*
X019396Y025636D01*
X019385Y025609D01*
X019370Y025584D01*
X019352Y025561D01*
X019331Y025541D01*
X019308Y025524D01*
X019282Y025510D01*
X019255Y025500D01*
X019227Y025493D01*
X019198Y025490D01*
X019169Y025491D01*
X019141Y025496D01*
X019113Y025504D01*
X019087Y025517D01*
X019062Y025532D01*
X019040Y025551D01*
X019021Y025573D01*
X019004Y025596D01*
X018991Y025622D01*
X018982Y025650D01*
X018976Y025678D01*
X018974Y025707D01*
X018974Y026707D02*
X018976Y026736D01*
X018982Y026764D01*
X018991Y026792D01*
X019004Y026818D01*
X019021Y026841D01*
X019040Y026863D01*
X019062Y026882D01*
X019087Y026897D01*
X019113Y026910D01*
X019141Y026918D01*
X019169Y026923D01*
X019198Y026924D01*
X019227Y026921D01*
X019255Y026914D01*
X019282Y026904D01*
X019308Y026890D01*
X019331Y026873D01*
X019352Y026853D01*
X019370Y026830D01*
X019385Y026805D01*
X019396Y026778D01*
X019404Y026750D01*
X019408Y026721D01*
X019408Y026693D01*
X019404Y026664D01*
X019396Y026636D01*
X019385Y026609D01*
X019370Y026584D01*
X019352Y026561D01*
X019331Y026541D01*
X019308Y026524D01*
X019282Y026510D01*
X019255Y026500D01*
X019227Y026493D01*
X019198Y026490D01*
X019169Y026491D01*
X019141Y026496D01*
X019113Y026504D01*
X019087Y026517D01*
X019062Y026532D01*
X019040Y026551D01*
X019021Y026573D01*
X019004Y026596D01*
X018991Y026622D01*
X018982Y026650D01*
X018976Y026678D01*
X018974Y026707D01*
X019974Y026707D02*
X019976Y026736D01*
X019982Y026764D01*
X019991Y026792D01*
X020004Y026818D01*
X020021Y026841D01*
X020040Y026863D01*
X020062Y026882D01*
X020087Y026897D01*
X020113Y026910D01*
X020141Y026918D01*
X020169Y026923D01*
X020198Y026924D01*
X020227Y026921D01*
X020255Y026914D01*
X020282Y026904D01*
X020308Y026890D01*
X020331Y026873D01*
X020352Y026853D01*
X020370Y026830D01*
X020385Y026805D01*
X020396Y026778D01*
X020404Y026750D01*
X020408Y026721D01*
X020408Y026693D01*
X020404Y026664D01*
X020396Y026636D01*
X020385Y026609D01*
X020370Y026584D01*
X020352Y026561D01*
X020331Y026541D01*
X020308Y026524D01*
X020282Y026510D01*
X020255Y026500D01*
X020227Y026493D01*
X020198Y026490D01*
X020169Y026491D01*
X020141Y026496D01*
X020113Y026504D01*
X020087Y026517D01*
X020062Y026532D01*
X020040Y026551D01*
X020021Y026573D01*
X020004Y026596D01*
X019991Y026622D01*
X019982Y026650D01*
X019976Y026678D01*
X019974Y026707D01*
X019974Y025707D02*
X019976Y025736D01*
X019982Y025764D01*
X019991Y025792D01*
X020004Y025818D01*
X020021Y025841D01*
X020040Y025863D01*
X020062Y025882D01*
X020087Y025897D01*
X020113Y025910D01*
X020141Y025918D01*
X020169Y025923D01*
X020198Y025924D01*
X020227Y025921D01*
X020255Y025914D01*
X020282Y025904D01*
X020308Y025890D01*
X020331Y025873D01*
X020352Y025853D01*
X020370Y025830D01*
X020385Y025805D01*
X020396Y025778D01*
X020404Y025750D01*
X020408Y025721D01*
X020408Y025693D01*
X020404Y025664D01*
X020396Y025636D01*
X020385Y025609D01*
X020370Y025584D01*
X020352Y025561D01*
X020331Y025541D01*
X020308Y025524D01*
X020282Y025510D01*
X020255Y025500D01*
X020227Y025493D01*
X020198Y025490D01*
X020169Y025491D01*
X020141Y025496D01*
X020113Y025504D01*
X020087Y025517D01*
X020062Y025532D01*
X020040Y025551D01*
X020021Y025573D01*
X020004Y025596D01*
X019991Y025622D01*
X019982Y025650D01*
X019976Y025678D01*
X019974Y025707D01*
X020974Y025707D02*
X020976Y025736D01*
X020982Y025764D01*
X020991Y025792D01*
X021004Y025818D01*
X021021Y025841D01*
X021040Y025863D01*
X021062Y025882D01*
X021087Y025897D01*
X021113Y025910D01*
X021141Y025918D01*
X021169Y025923D01*
X021198Y025924D01*
X021227Y025921D01*
X021255Y025914D01*
X021282Y025904D01*
X021308Y025890D01*
X021331Y025873D01*
X021352Y025853D01*
X021370Y025830D01*
X021385Y025805D01*
X021396Y025778D01*
X021404Y025750D01*
X021408Y025721D01*
X021408Y025693D01*
X021404Y025664D01*
X021396Y025636D01*
X021385Y025609D01*
X021370Y025584D01*
X021352Y025561D01*
X021331Y025541D01*
X021308Y025524D01*
X021282Y025510D01*
X021255Y025500D01*
X021227Y025493D01*
X021198Y025490D01*
X021169Y025491D01*
X021141Y025496D01*
X021113Y025504D01*
X021087Y025517D01*
X021062Y025532D01*
X021040Y025551D01*
X021021Y025573D01*
X021004Y025596D01*
X020991Y025622D01*
X020982Y025650D01*
X020976Y025678D01*
X020974Y025707D01*
X020974Y026707D02*
X020976Y026736D01*
X020982Y026764D01*
X020991Y026792D01*
X021004Y026818D01*
X021021Y026841D01*
X021040Y026863D01*
X021062Y026882D01*
X021087Y026897D01*
X021113Y026910D01*
X021141Y026918D01*
X021169Y026923D01*
X021198Y026924D01*
X021227Y026921D01*
X021255Y026914D01*
X021282Y026904D01*
X021308Y026890D01*
X021331Y026873D01*
X021352Y026853D01*
X021370Y026830D01*
X021385Y026805D01*
X021396Y026778D01*
X021404Y026750D01*
X021408Y026721D01*
X021408Y026693D01*
X021404Y026664D01*
X021396Y026636D01*
X021385Y026609D01*
X021370Y026584D01*
X021352Y026561D01*
X021331Y026541D01*
X021308Y026524D01*
X021282Y026510D01*
X021255Y026500D01*
X021227Y026493D01*
X021198Y026490D01*
X021169Y026491D01*
X021141Y026496D01*
X021113Y026504D01*
X021087Y026517D01*
X021062Y026532D01*
X021040Y026551D01*
X021021Y026573D01*
X021004Y026596D01*
X020991Y026622D01*
X020982Y026650D01*
X020976Y026678D01*
X020974Y026707D01*
X021974Y026707D02*
X021976Y026736D01*
X021982Y026764D01*
X021991Y026792D01*
X022004Y026818D01*
X022021Y026841D01*
X022040Y026863D01*
X022062Y026882D01*
X022087Y026897D01*
X022113Y026910D01*
X022141Y026918D01*
X022169Y026923D01*
X022198Y026924D01*
X022227Y026921D01*
X022255Y026914D01*
X022282Y026904D01*
X022308Y026890D01*
X022331Y026873D01*
X022352Y026853D01*
X022370Y026830D01*
X022385Y026805D01*
X022396Y026778D01*
X022404Y026750D01*
X022408Y026721D01*
X022408Y026693D01*
X022404Y026664D01*
X022396Y026636D01*
X022385Y026609D01*
X022370Y026584D01*
X022352Y026561D01*
X022331Y026541D01*
X022308Y026524D01*
X022282Y026510D01*
X022255Y026500D01*
X022227Y026493D01*
X022198Y026490D01*
X022169Y026491D01*
X022141Y026496D01*
X022113Y026504D01*
X022087Y026517D01*
X022062Y026532D01*
X022040Y026551D01*
X022021Y026573D01*
X022004Y026596D01*
X021991Y026622D01*
X021982Y026650D01*
X021976Y026678D01*
X021974Y026707D01*
X021974Y025707D02*
X021976Y025736D01*
X021982Y025764D01*
X021991Y025792D01*
X022004Y025818D01*
X022021Y025841D01*
X022040Y025863D01*
X022062Y025882D01*
X022087Y025897D01*
X022113Y025910D01*
X022141Y025918D01*
X022169Y025923D01*
X022198Y025924D01*
X022227Y025921D01*
X022255Y025914D01*
X022282Y025904D01*
X022308Y025890D01*
X022331Y025873D01*
X022352Y025853D01*
X022370Y025830D01*
X022385Y025805D01*
X022396Y025778D01*
X022404Y025750D01*
X022408Y025721D01*
X022408Y025693D01*
X022404Y025664D01*
X022396Y025636D01*
X022385Y025609D01*
X022370Y025584D01*
X022352Y025561D01*
X022331Y025541D01*
X022308Y025524D01*
X022282Y025510D01*
X022255Y025500D01*
X022227Y025493D01*
X022198Y025490D01*
X022169Y025491D01*
X022141Y025496D01*
X022113Y025504D01*
X022087Y025517D01*
X022062Y025532D01*
X022040Y025551D01*
X022021Y025573D01*
X022004Y025596D01*
X021991Y025622D01*
X021982Y025650D01*
X021976Y025678D01*
X021974Y025707D01*
X022974Y025707D02*
X022976Y025736D01*
X022982Y025764D01*
X022991Y025792D01*
X023004Y025818D01*
X023021Y025841D01*
X023040Y025863D01*
X023062Y025882D01*
X023087Y025897D01*
X023113Y025910D01*
X023141Y025918D01*
X023169Y025923D01*
X023198Y025924D01*
X023227Y025921D01*
X023255Y025914D01*
X023282Y025904D01*
X023308Y025890D01*
X023331Y025873D01*
X023352Y025853D01*
X023370Y025830D01*
X023385Y025805D01*
X023396Y025778D01*
X023404Y025750D01*
X023408Y025721D01*
X023408Y025693D01*
X023404Y025664D01*
X023396Y025636D01*
X023385Y025609D01*
X023370Y025584D01*
X023352Y025561D01*
X023331Y025541D01*
X023308Y025524D01*
X023282Y025510D01*
X023255Y025500D01*
X023227Y025493D01*
X023198Y025490D01*
X023169Y025491D01*
X023141Y025496D01*
X023113Y025504D01*
X023087Y025517D01*
X023062Y025532D01*
X023040Y025551D01*
X023021Y025573D01*
X023004Y025596D01*
X022991Y025622D01*
X022982Y025650D01*
X022976Y025678D01*
X022974Y025707D01*
X022974Y026707D02*
X022976Y026736D01*
X022982Y026764D01*
X022991Y026792D01*
X023004Y026818D01*
X023021Y026841D01*
X023040Y026863D01*
X023062Y026882D01*
X023087Y026897D01*
X023113Y026910D01*
X023141Y026918D01*
X023169Y026923D01*
X023198Y026924D01*
X023227Y026921D01*
X023255Y026914D01*
X023282Y026904D01*
X023308Y026890D01*
X023331Y026873D01*
X023352Y026853D01*
X023370Y026830D01*
X023385Y026805D01*
X023396Y026778D01*
X023404Y026750D01*
X023408Y026721D01*
X023408Y026693D01*
X023404Y026664D01*
X023396Y026636D01*
X023385Y026609D01*
X023370Y026584D01*
X023352Y026561D01*
X023331Y026541D01*
X023308Y026524D01*
X023282Y026510D01*
X023255Y026500D01*
X023227Y026493D01*
X023198Y026490D01*
X023169Y026491D01*
X023141Y026496D01*
X023113Y026504D01*
X023087Y026517D01*
X023062Y026532D01*
X023040Y026551D01*
X023021Y026573D01*
X023004Y026596D01*
X022991Y026622D01*
X022982Y026650D01*
X022976Y026678D01*
X022974Y026707D01*
X030101Y037624D02*
X030103Y037674D01*
X030109Y037724D01*
X030119Y037773D01*
X030133Y037821D01*
X030150Y037868D01*
X030171Y037913D01*
X030196Y037957D01*
X030224Y037998D01*
X030256Y038037D01*
X030290Y038074D01*
X030327Y038108D01*
X030367Y038138D01*
X030409Y038165D01*
X030453Y038189D01*
X030499Y038210D01*
X030546Y038226D01*
X030594Y038239D01*
X030644Y038248D01*
X030693Y038253D01*
X030744Y038254D01*
X030794Y038251D01*
X030843Y038244D01*
X030892Y038233D01*
X030940Y038218D01*
X030986Y038200D01*
X031031Y038178D01*
X031074Y038152D01*
X031115Y038123D01*
X031154Y038091D01*
X031190Y038056D01*
X031222Y038018D01*
X031252Y037978D01*
X031279Y037935D01*
X031302Y037891D01*
X031321Y037845D01*
X031337Y037797D01*
X031349Y037748D01*
X031357Y037699D01*
X031361Y037649D01*
X031361Y037599D01*
X031357Y037549D01*
X031349Y037500D01*
X031337Y037451D01*
X031321Y037403D01*
X031302Y037357D01*
X031279Y037313D01*
X031252Y037270D01*
X031222Y037230D01*
X031190Y037192D01*
X031154Y037157D01*
X031115Y037125D01*
X031074Y037096D01*
X031031Y037070D01*
X030986Y037048D01*
X030940Y037030D01*
X030892Y037015D01*
X030843Y037004D01*
X030794Y036997D01*
X030744Y036994D01*
X030693Y036995D01*
X030644Y037000D01*
X030594Y037009D01*
X030546Y037022D01*
X030499Y037038D01*
X030453Y037059D01*
X030409Y037083D01*
X030367Y037110D01*
X030327Y037140D01*
X030290Y037174D01*
X030256Y037211D01*
X030224Y037250D01*
X030196Y037291D01*
X030171Y037335D01*
X030150Y037380D01*
X030133Y037427D01*
X030119Y037475D01*
X030109Y037524D01*
X030103Y037574D01*
X030101Y037624D01*
X036518Y032034D02*
X036518Y031561D01*
X037187Y034869D02*
X037189Y034919D01*
X037195Y034969D01*
X037205Y035018D01*
X037219Y035066D01*
X037236Y035113D01*
X037257Y035158D01*
X037282Y035202D01*
X037310Y035243D01*
X037342Y035282D01*
X037376Y035319D01*
X037413Y035353D01*
X037453Y035383D01*
X037495Y035410D01*
X037539Y035434D01*
X037585Y035455D01*
X037632Y035471D01*
X037680Y035484D01*
X037730Y035493D01*
X037779Y035498D01*
X037830Y035499D01*
X037880Y035496D01*
X037929Y035489D01*
X037978Y035478D01*
X038026Y035463D01*
X038072Y035445D01*
X038117Y035423D01*
X038160Y035397D01*
X038201Y035368D01*
X038240Y035336D01*
X038276Y035301D01*
X038308Y035263D01*
X038338Y035223D01*
X038365Y035180D01*
X038388Y035136D01*
X038407Y035090D01*
X038423Y035042D01*
X038435Y034993D01*
X038443Y034944D01*
X038447Y034894D01*
X038447Y034844D01*
X038443Y034794D01*
X038435Y034745D01*
X038423Y034696D01*
X038407Y034648D01*
X038388Y034602D01*
X038365Y034558D01*
X038338Y034515D01*
X038308Y034475D01*
X038276Y034437D01*
X038240Y034402D01*
X038201Y034370D01*
X038160Y034341D01*
X038117Y034315D01*
X038072Y034293D01*
X038026Y034275D01*
X037978Y034260D01*
X037929Y034249D01*
X037880Y034242D01*
X037830Y034239D01*
X037779Y034240D01*
X037730Y034245D01*
X037680Y034254D01*
X037632Y034267D01*
X037585Y034283D01*
X037539Y034304D01*
X037495Y034328D01*
X037453Y034355D01*
X037413Y034385D01*
X037376Y034419D01*
X037342Y034456D01*
X037310Y034495D01*
X037282Y034536D01*
X037257Y034580D01*
X037236Y034625D01*
X037219Y034672D01*
X037205Y034720D01*
X037195Y034769D01*
X037189Y034819D01*
X037187Y034869D01*
X037030Y037231D02*
X037032Y037287D01*
X037038Y037342D01*
X037048Y037396D01*
X037061Y037450D01*
X037079Y037503D01*
X037100Y037554D01*
X037124Y037604D01*
X037152Y037652D01*
X037184Y037698D01*
X037218Y037742D01*
X037256Y037783D01*
X037296Y037821D01*
X037339Y037856D01*
X037384Y037888D01*
X037432Y037917D01*
X037481Y037943D01*
X037532Y037965D01*
X037584Y037983D01*
X037638Y037997D01*
X037693Y038008D01*
X037748Y038015D01*
X037803Y038018D01*
X037859Y038017D01*
X037914Y038012D01*
X037969Y038003D01*
X038023Y037991D01*
X038076Y037974D01*
X038128Y037954D01*
X038178Y037930D01*
X038226Y037903D01*
X038273Y037873D01*
X038317Y037839D01*
X038359Y037802D01*
X038397Y037762D01*
X038434Y037720D01*
X038467Y037675D01*
X038496Y037629D01*
X038523Y037580D01*
X038545Y037529D01*
X038565Y037477D01*
X038580Y037423D01*
X038592Y037369D01*
X038600Y037314D01*
X038604Y037259D01*
X038604Y037203D01*
X038600Y037148D01*
X038592Y037093D01*
X038580Y037039D01*
X038565Y036985D01*
X038545Y036933D01*
X038523Y036882D01*
X038496Y036833D01*
X038467Y036787D01*
X038434Y036742D01*
X038397Y036700D01*
X038359Y036660D01*
X038317Y036623D01*
X038273Y036589D01*
X038226Y036559D01*
X038178Y036532D01*
X038128Y036508D01*
X038076Y036488D01*
X038023Y036471D01*
X037969Y036459D01*
X037914Y036450D01*
X037859Y036445D01*
X037803Y036444D01*
X037748Y036447D01*
X037693Y036454D01*
X037638Y036465D01*
X037584Y036479D01*
X037532Y036497D01*
X037481Y036519D01*
X037432Y036545D01*
X037384Y036574D01*
X037339Y036606D01*
X037296Y036641D01*
X037256Y036679D01*
X037218Y036720D01*
X037184Y036764D01*
X037152Y036810D01*
X037124Y036858D01*
X037100Y036908D01*
X037079Y036959D01*
X037061Y037012D01*
X037048Y037066D01*
X037038Y037120D01*
X037032Y037175D01*
X037030Y037231D01*
X037187Y021876D02*
X037189Y021926D01*
X037195Y021976D01*
X037205Y022025D01*
X037219Y022073D01*
X037236Y022120D01*
X037257Y022165D01*
X037282Y022209D01*
X037310Y022250D01*
X037342Y022289D01*
X037376Y022326D01*
X037413Y022360D01*
X037453Y022390D01*
X037495Y022417D01*
X037539Y022441D01*
X037585Y022462D01*
X037632Y022478D01*
X037680Y022491D01*
X037730Y022500D01*
X037779Y022505D01*
X037830Y022506D01*
X037880Y022503D01*
X037929Y022496D01*
X037978Y022485D01*
X038026Y022470D01*
X038072Y022452D01*
X038117Y022430D01*
X038160Y022404D01*
X038201Y022375D01*
X038240Y022343D01*
X038276Y022308D01*
X038308Y022270D01*
X038338Y022230D01*
X038365Y022187D01*
X038388Y022143D01*
X038407Y022097D01*
X038423Y022049D01*
X038435Y022000D01*
X038443Y021951D01*
X038447Y021901D01*
X038447Y021851D01*
X038443Y021801D01*
X038435Y021752D01*
X038423Y021703D01*
X038407Y021655D01*
X038388Y021609D01*
X038365Y021565D01*
X038338Y021522D01*
X038308Y021482D01*
X038276Y021444D01*
X038240Y021409D01*
X038201Y021377D01*
X038160Y021348D01*
X038117Y021322D01*
X038072Y021300D01*
X038026Y021282D01*
X037978Y021267D01*
X037929Y021256D01*
X037880Y021249D01*
X037830Y021246D01*
X037779Y021247D01*
X037730Y021252D01*
X037680Y021261D01*
X037632Y021274D01*
X037585Y021290D01*
X037539Y021311D01*
X037495Y021335D01*
X037453Y021362D01*
X037413Y021392D01*
X037376Y021426D01*
X037342Y021463D01*
X037310Y021502D01*
X037282Y021543D01*
X037257Y021587D01*
X037236Y021632D01*
X037219Y021679D01*
X037205Y021727D01*
X037195Y021776D01*
X037189Y021826D01*
X037187Y021876D01*
D12*
X036518Y024711D02*
X036518Y032034D01*
X038171Y032034D01*
X038171Y024711D01*
X036518Y024711D01*
D13*
X032679Y026772D02*
X032646Y026739D01*
X032579Y026739D01*
X032546Y026772D01*
X032546Y026839D01*
X032612Y026839D01*
X032546Y026906D02*
X032579Y026939D01*
X032646Y026939D01*
X032679Y026906D01*
X032679Y026772D01*
X032458Y026739D02*
X032458Y026939D01*
X032325Y026739D01*
X032325Y026939D01*
X032237Y026939D02*
X032137Y026939D01*
X032104Y026906D01*
X032104Y026772D01*
X032137Y026739D01*
X032237Y026739D01*
X032237Y026939D01*
X032237Y027093D02*
X032137Y027093D01*
X032104Y027127D01*
X032104Y027260D01*
X032137Y027293D01*
X032237Y027293D01*
X032237Y027093D01*
X032325Y027127D02*
X032358Y027093D01*
X032425Y027093D01*
X032458Y027127D01*
X032458Y027260D01*
X032425Y027293D01*
X032358Y027293D01*
X032325Y027260D01*
X032358Y027487D02*
X032325Y027520D01*
X032358Y027487D02*
X032425Y027487D01*
X032458Y027520D01*
X032458Y027654D01*
X032425Y027687D01*
X032358Y027687D01*
X032325Y027654D01*
X032237Y027687D02*
X032137Y027687D01*
X032104Y027654D01*
X032104Y027520D01*
X032137Y027487D01*
X032237Y027487D01*
X032237Y027687D01*
X032237Y027881D02*
X032137Y027881D01*
X032104Y027914D01*
X032104Y028048D01*
X032137Y028081D01*
X032237Y028081D01*
X032237Y027881D01*
X032325Y027914D02*
X032358Y027881D01*
X032425Y027881D01*
X032458Y027914D01*
X032458Y028048D01*
X032425Y028081D01*
X032358Y028081D01*
X032325Y028048D01*
X032358Y028314D02*
X032325Y028347D01*
X032358Y028314D02*
X032425Y028314D01*
X032458Y028347D01*
X032458Y028481D01*
X032425Y028514D01*
X032358Y028514D01*
X032325Y028481D01*
X032237Y028514D02*
X032137Y028514D01*
X032104Y028481D01*
X032104Y028347D01*
X032137Y028314D01*
X032237Y028314D01*
X032237Y028514D01*
X032237Y028707D02*
X032137Y028707D01*
X032104Y028741D01*
X032104Y028874D01*
X032137Y028908D01*
X032237Y028908D01*
X032237Y028707D01*
X032325Y028741D02*
X032358Y028707D01*
X032425Y028707D01*
X032458Y028741D01*
X032458Y028874D01*
X032425Y028908D01*
X032358Y028908D01*
X032325Y028874D01*
X032276Y029101D02*
X032176Y029101D01*
X032143Y029135D01*
X032143Y029268D01*
X032176Y029301D01*
X032276Y029301D01*
X032276Y029101D01*
X032364Y029135D02*
X032397Y029101D01*
X032464Y029101D01*
X032497Y029135D01*
X032497Y029268D01*
X032464Y029301D01*
X032397Y029301D01*
X032364Y029268D01*
X032585Y029101D02*
X032718Y029101D01*
X032718Y029301D01*
X032679Y028908D02*
X032679Y028707D01*
X032546Y028707D01*
X032679Y028514D02*
X032679Y028314D01*
X032546Y028314D01*
X032679Y028081D02*
X032679Y027881D01*
X032546Y027881D01*
X032679Y027687D02*
X032679Y027487D01*
X032546Y027487D01*
X032679Y027293D02*
X032679Y027093D01*
X032546Y027093D01*
X032016Y027060D02*
X031883Y027060D01*
X031795Y027093D02*
X031795Y027293D01*
X031728Y027227D01*
X031662Y027293D01*
X031662Y027093D01*
X031574Y027127D02*
X031541Y027093D01*
X031474Y027093D01*
X031441Y027127D01*
X031441Y027260D01*
X031474Y027293D01*
X031541Y027293D01*
X031574Y027260D01*
X031574Y027127D01*
X031353Y027127D02*
X031320Y027093D01*
X031253Y027093D01*
X031220Y027127D01*
X031220Y027160D01*
X031253Y027193D01*
X031320Y027193D01*
X031353Y027227D01*
X031353Y027260D01*
X031320Y027293D01*
X031253Y027293D01*
X031220Y027260D01*
X031132Y027293D02*
X031065Y027293D01*
X031099Y027293D02*
X031099Y027093D01*
X031132Y027093D02*
X031065Y027093D01*
X031220Y027487D02*
X031320Y027587D01*
X031353Y027554D02*
X031220Y027687D01*
X031353Y027687D02*
X031353Y027487D01*
X031441Y027520D02*
X031474Y027487D01*
X031541Y027487D01*
X031574Y027520D01*
X031574Y027654D01*
X031541Y027687D01*
X031474Y027687D01*
X031441Y027654D01*
X031662Y027654D02*
X031695Y027687D01*
X031762Y027687D01*
X031795Y027654D01*
X031795Y027620D01*
X031762Y027587D01*
X031695Y027587D01*
X031662Y027554D01*
X031662Y027520D01*
X031695Y027487D01*
X031762Y027487D01*
X031795Y027520D01*
X031883Y027454D02*
X032016Y027454D01*
X032016Y027847D02*
X031883Y027847D01*
X031795Y027914D02*
X031762Y027881D01*
X031695Y027881D01*
X031662Y027914D01*
X031574Y027914D02*
X031541Y027881D01*
X031474Y027881D01*
X031441Y027914D01*
X031441Y027947D01*
X031474Y027981D01*
X031541Y027981D01*
X031574Y028014D01*
X031574Y028048D01*
X031541Y028081D01*
X031474Y028081D01*
X031441Y028048D01*
X031662Y028048D02*
X031695Y028081D01*
X031762Y028081D01*
X031795Y028048D01*
X031795Y027914D01*
X031883Y028280D02*
X032016Y028280D01*
X031795Y028314D02*
X031695Y028314D01*
X031662Y028347D01*
X031662Y028481D01*
X031695Y028514D01*
X031795Y028514D01*
X031795Y028314D01*
X031574Y028314D02*
X031441Y028514D01*
X031353Y028481D02*
X031353Y028447D01*
X031320Y028414D01*
X031253Y028414D01*
X031220Y028381D01*
X031220Y028347D01*
X031253Y028314D01*
X031320Y028314D01*
X031353Y028347D01*
X031353Y028481D02*
X031320Y028514D01*
X031253Y028514D01*
X031220Y028481D01*
X031152Y028594D02*
X031373Y028594D01*
X031320Y028707D02*
X031353Y028741D01*
X031320Y028707D02*
X031253Y028707D01*
X031220Y028741D01*
X031220Y028774D01*
X031253Y028808D01*
X031320Y028808D01*
X031353Y028841D01*
X031353Y028874D01*
X031320Y028908D01*
X031253Y028908D01*
X031220Y028874D01*
X031132Y028908D02*
X031132Y028707D01*
X030999Y028707D01*
X031065Y028808D02*
X031132Y028808D01*
X031132Y028908D02*
X030999Y028908D01*
X030911Y028908D02*
X030778Y028908D01*
X030844Y028908D02*
X030844Y028707D01*
X030710Y028987D02*
X031815Y028987D01*
X031795Y028908D02*
X031695Y028908D01*
X031662Y028874D01*
X031662Y028808D01*
X031695Y028774D01*
X031795Y028774D01*
X031795Y028707D02*
X031795Y028908D01*
X031728Y028774D02*
X031662Y028707D01*
X031574Y028707D02*
X031441Y028707D01*
X031507Y028808D02*
X031574Y028808D01*
X031574Y028908D02*
X031574Y028707D01*
X031574Y028908D02*
X031441Y028908D01*
X031513Y029101D02*
X031480Y029135D01*
X031480Y029301D01*
X031392Y029268D02*
X031392Y029235D01*
X031359Y029201D01*
X031292Y029201D01*
X031259Y029168D01*
X031259Y029135D01*
X031292Y029101D01*
X031359Y029101D01*
X031392Y029135D01*
X031513Y029101D02*
X031580Y029101D01*
X031613Y029135D01*
X031613Y029301D01*
X031701Y029268D02*
X031701Y029235D01*
X031734Y029201D01*
X031834Y029201D01*
X031734Y029201D02*
X031701Y029168D01*
X031701Y029135D01*
X031734Y029101D01*
X031834Y029101D01*
X031834Y029301D01*
X031734Y029301D01*
X031701Y029268D01*
X031922Y029068D02*
X032055Y029068D01*
X032016Y028674D02*
X031883Y028674D01*
X031392Y029268D02*
X031359Y029301D01*
X031292Y029301D01*
X031259Y029268D01*
X031172Y029268D02*
X031105Y029201D01*
X031105Y029101D01*
X031105Y029201D02*
X031038Y029268D01*
X031038Y029301D01*
X031172Y029301D02*
X031172Y029268D01*
X031141Y030479D02*
X031174Y030512D01*
X031141Y030479D02*
X031074Y030479D01*
X031041Y030512D01*
X031041Y030546D01*
X031074Y030579D01*
X031141Y030579D01*
X031174Y030613D01*
X031174Y030646D01*
X031141Y030679D01*
X031074Y030679D01*
X031041Y030646D01*
X030953Y030679D02*
X030953Y030479D01*
X030820Y030479D01*
X030886Y030579D02*
X030953Y030579D01*
X030953Y030679D02*
X030820Y030679D01*
X031041Y030833D02*
X031107Y030900D01*
X031074Y030900D02*
X031174Y030900D01*
X031174Y030833D02*
X031174Y031034D01*
X031074Y031034D01*
X031041Y031000D01*
X031041Y030934D01*
X031074Y030900D01*
X031262Y030867D02*
X031262Y031000D01*
X031295Y031034D01*
X031395Y031034D01*
X031395Y030833D01*
X031295Y030833D01*
X031262Y030867D01*
X031262Y030679D02*
X031395Y030679D01*
X031395Y030479D01*
X031262Y030479D01*
X031328Y030579D02*
X031395Y030579D01*
X031483Y030579D02*
X031516Y030546D01*
X031616Y030546D01*
X031549Y030546D02*
X031483Y030479D01*
X031483Y030579D02*
X031483Y030646D01*
X031516Y030679D01*
X031616Y030679D01*
X031616Y030479D01*
X031583Y030833D02*
X031516Y030833D01*
X031483Y030867D01*
X031483Y030934D01*
X031549Y030934D01*
X031483Y031000D02*
X031516Y031034D01*
X031583Y031034D01*
X031616Y031000D01*
X031616Y030867D01*
X031583Y030833D01*
X030124Y028410D02*
X029924Y028410D01*
X030024Y028410D02*
X030024Y028277D01*
X030024Y028189D02*
X030024Y028123D01*
X030024Y028189D02*
X029957Y028189D01*
X029924Y028156D01*
X029924Y028089D01*
X029957Y028056D01*
X030091Y028056D01*
X030124Y028089D01*
X030124Y028156D01*
X030091Y028189D01*
X030124Y028277D02*
X029924Y028277D01*
X029991Y027968D02*
X029924Y027902D01*
X029991Y027835D01*
X030124Y027835D01*
X030124Y027747D02*
X030124Y027614D01*
X029924Y027614D01*
X029924Y027747D01*
X030024Y027681D02*
X030024Y027614D01*
X030024Y027526D02*
X029991Y027493D01*
X029991Y027393D01*
X029991Y027460D02*
X029924Y027526D01*
X030024Y027526D02*
X030091Y027526D01*
X030124Y027493D01*
X030124Y027393D01*
X029924Y027393D01*
X030024Y027305D02*
X029991Y027272D01*
X029991Y027172D01*
X029924Y027172D02*
X030124Y027172D01*
X030124Y027272D01*
X030091Y027305D01*
X030024Y027305D01*
X029730Y027272D02*
X029730Y027205D01*
X029697Y027172D01*
X029563Y027172D01*
X029530Y027205D01*
X029530Y027272D01*
X029563Y027305D01*
X029630Y027305D01*
X029630Y027239D01*
X029697Y027305D02*
X029730Y027272D01*
X029730Y027393D02*
X029530Y027526D01*
X029730Y027526D01*
X029730Y027614D02*
X029530Y027614D01*
X029530Y027714D01*
X029563Y027747D01*
X029697Y027747D01*
X029730Y027714D01*
X029730Y027614D01*
X029730Y027393D02*
X029530Y027393D01*
X029297Y027393D02*
X029297Y027493D01*
X029264Y027526D01*
X029197Y027526D01*
X029164Y027493D01*
X029164Y027393D01*
X029164Y027460D02*
X029097Y027526D01*
X029097Y027614D02*
X029097Y027747D01*
X029164Y027835D02*
X029097Y027902D01*
X029164Y027968D01*
X029297Y027968D01*
X029264Y028056D02*
X029130Y028056D01*
X029097Y028089D01*
X029097Y028156D01*
X029130Y028189D01*
X029197Y028189D01*
X029197Y028123D01*
X029264Y028189D02*
X029297Y028156D01*
X029297Y028089D01*
X029264Y028056D01*
X029297Y028277D02*
X029097Y028277D01*
X029097Y028410D01*
X029164Y027835D02*
X029297Y027835D01*
X029297Y027747D02*
X029297Y027614D01*
X029097Y027614D01*
X029197Y027614D02*
X029197Y027681D01*
X029097Y027393D02*
X029297Y027393D01*
X029264Y027305D02*
X029197Y027305D01*
X029164Y027272D01*
X029164Y027172D01*
X029097Y027172D02*
X029297Y027172D01*
X029297Y027272D01*
X029264Y027305D01*
X029991Y027968D02*
X030124Y027968D01*
X024573Y028826D02*
X024439Y028826D01*
X024373Y028892D01*
X024439Y028959D01*
X024573Y028959D01*
X024573Y029047D02*
X024573Y029147D01*
X024539Y029180D01*
X024506Y029180D01*
X024473Y029147D01*
X024473Y029047D01*
X024473Y029147D02*
X024439Y029180D01*
X024406Y029180D01*
X024373Y029147D01*
X024373Y029047D01*
X024573Y029047D01*
X024506Y029268D02*
X024373Y029268D01*
X024473Y029268D02*
X024473Y029401D01*
X024506Y029401D02*
X024373Y029401D01*
X024506Y029401D02*
X024573Y029334D01*
X024506Y029268D01*
X024573Y029489D02*
X024573Y029622D01*
X024573Y029555D02*
X024373Y029555D01*
X024179Y029180D02*
X024046Y029180D01*
X023979Y029113D01*
X024046Y029047D01*
X024179Y029047D01*
X024179Y028959D02*
X024179Y028826D01*
X024079Y028826D01*
X024112Y028892D01*
X024112Y028926D01*
X024079Y028959D01*
X024012Y028959D01*
X023979Y028926D01*
X023979Y028859D01*
X024012Y028826D01*
X021620Y029710D02*
X021620Y029777D01*
X021587Y029810D01*
X021553Y029810D01*
X021520Y029777D01*
X021487Y029810D01*
X021453Y029810D01*
X021420Y029777D01*
X021420Y029710D01*
X021453Y029676D01*
X021520Y029743D02*
X021520Y029777D01*
X021620Y029710D02*
X021587Y029676D01*
X021520Y029589D02*
X021520Y029456D01*
X021587Y029522D02*
X021453Y029522D01*
X021187Y029522D02*
X021187Y029456D01*
X021187Y029489D02*
X020987Y029489D01*
X020987Y029456D02*
X020987Y029522D01*
X020987Y029603D02*
X021120Y029736D01*
X021154Y029736D01*
X021187Y029703D01*
X021187Y029636D01*
X021154Y029603D01*
X020987Y029603D02*
X020987Y029736D01*
X021020Y029824D02*
X020987Y029857D01*
X020987Y029924D01*
X021020Y029957D01*
X020953Y030045D02*
X020953Y030178D01*
X021020Y030266D02*
X020987Y030299D01*
X020987Y030366D01*
X021020Y030399D01*
X021053Y030399D01*
X021087Y030366D01*
X021087Y030299D01*
X021120Y030266D01*
X021154Y030266D01*
X021187Y030299D01*
X021187Y030366D01*
X021154Y030399D01*
X021154Y030487D02*
X021020Y030487D01*
X020987Y030520D01*
X020987Y030587D01*
X021020Y030620D01*
X020987Y030708D02*
X020987Y030841D01*
X020987Y030708D02*
X021187Y030708D01*
X021154Y030620D02*
X021187Y030587D01*
X021187Y030520D01*
X021154Y030487D01*
X020793Y030440D02*
X020793Y030373D01*
X020760Y030339D01*
X020760Y030252D02*
X020727Y030252D01*
X020693Y030219D01*
X020660Y030252D01*
X020626Y030252D01*
X020593Y030219D01*
X020593Y030152D01*
X020626Y030118D01*
X020693Y030185D02*
X020693Y030219D01*
X020760Y030252D02*
X020793Y030219D01*
X020793Y030152D01*
X020760Y030118D01*
X020760Y030031D02*
X020693Y030031D01*
X020660Y029998D01*
X020660Y029897D01*
X020593Y029897D02*
X020793Y029897D01*
X020793Y029998D01*
X020760Y030031D01*
X020760Y029810D02*
X020793Y029777D01*
X020793Y029710D01*
X020760Y029676D01*
X020727Y029676D01*
X020693Y029710D01*
X020693Y029777D01*
X020660Y029810D01*
X020626Y029810D01*
X020593Y029777D01*
X020593Y029710D01*
X020626Y029676D01*
X020593Y029589D02*
X020593Y029456D01*
X020793Y029456D01*
X020793Y029589D01*
X020693Y029522D02*
X020693Y029456D01*
X020400Y029456D02*
X020400Y029522D01*
X020400Y029489D02*
X020199Y029489D01*
X020199Y029456D02*
X020199Y029522D01*
X020199Y029603D02*
X020333Y029736D01*
X020366Y029736D01*
X020400Y029703D01*
X020400Y029636D01*
X020366Y029603D01*
X020199Y029603D02*
X020199Y029736D01*
X020233Y029824D02*
X020199Y029857D01*
X020199Y029924D01*
X020233Y029957D01*
X020166Y030045D02*
X020166Y030178D01*
X020233Y030266D02*
X020199Y030299D01*
X020199Y030366D01*
X020233Y030399D01*
X020266Y030399D01*
X020299Y030366D01*
X020299Y030299D01*
X020333Y030266D01*
X020366Y030266D01*
X020400Y030299D01*
X020400Y030366D01*
X020366Y030399D01*
X020400Y030487D02*
X020199Y030487D01*
X020199Y030587D01*
X020233Y030620D01*
X020366Y030620D01*
X020400Y030587D01*
X020400Y030487D01*
X020560Y030560D02*
X020560Y030694D01*
X020593Y030781D02*
X020793Y030781D01*
X020793Y030915D01*
X020793Y031002D02*
X020593Y031002D01*
X020593Y031136D01*
X020593Y031223D02*
X020727Y031223D01*
X020793Y031290D01*
X020727Y031357D01*
X020593Y031357D01*
X020626Y031444D02*
X020593Y031478D01*
X020593Y031544D01*
X020626Y031578D01*
X020660Y031578D01*
X020693Y031544D01*
X020693Y031478D01*
X020727Y031444D01*
X020760Y031444D01*
X020793Y031478D01*
X020793Y031544D01*
X020760Y031578D01*
X020793Y031665D02*
X020593Y031665D01*
X020693Y031665D02*
X020693Y031799D01*
X020793Y031799D02*
X020593Y031799D01*
X020693Y031357D02*
X020693Y031223D01*
X020693Y030848D02*
X020693Y030781D01*
X020400Y030775D02*
X020333Y030841D01*
X020199Y030841D01*
X020299Y030841D02*
X020299Y030708D01*
X020333Y030708D02*
X020400Y030775D01*
X020333Y030708D02*
X020199Y030708D01*
X020086Y030761D02*
X020086Y031866D01*
X020006Y031799D02*
X020006Y031665D01*
X020006Y031732D02*
X019806Y031732D01*
X019806Y031578D02*
X019806Y031444D01*
X020006Y031444D01*
X020006Y031578D01*
X019906Y031511D02*
X019906Y031444D01*
X019872Y031357D02*
X019839Y031357D01*
X019806Y031324D01*
X019806Y031257D01*
X019839Y031223D01*
X019906Y031257D02*
X019906Y031324D01*
X019872Y031357D01*
X019972Y031357D02*
X020006Y031324D01*
X020006Y031257D01*
X019972Y031223D01*
X019939Y031223D01*
X019906Y031257D01*
X020006Y031136D02*
X020006Y031002D01*
X019806Y031002D01*
X019806Y031136D01*
X019906Y031069D02*
X019906Y031002D01*
X019906Y030915D02*
X019872Y030882D01*
X019872Y030781D01*
X019806Y030781D02*
X020006Y030781D01*
X020006Y030882D01*
X019972Y030915D01*
X019906Y030915D01*
X019872Y030848D02*
X019806Y030915D01*
X019652Y030929D02*
X019652Y031062D01*
X019652Y030995D02*
X019451Y030995D01*
X019451Y030848D02*
X019451Y030781D01*
X019451Y030815D02*
X019652Y030815D01*
X019652Y030848D02*
X019652Y030781D01*
X019652Y030694D02*
X019451Y030694D01*
X019518Y030627D01*
X019451Y030560D01*
X019652Y030560D01*
X019618Y030473D02*
X019652Y030440D01*
X019652Y030373D01*
X019618Y030339D01*
X019585Y030339D01*
X019551Y030373D01*
X019551Y030440D01*
X019518Y030473D01*
X019485Y030473D01*
X019451Y030440D01*
X019451Y030373D01*
X019485Y030339D01*
X019418Y030252D02*
X019418Y030118D01*
X019485Y030031D02*
X019451Y029998D01*
X019451Y029931D01*
X019485Y029897D01*
X019518Y029810D02*
X019652Y029810D01*
X019618Y029897D02*
X019652Y029931D01*
X019652Y029998D01*
X019618Y030031D01*
X019585Y030031D01*
X019551Y029998D01*
X019518Y030031D01*
X019485Y030031D01*
X019551Y029998D02*
X019551Y029964D01*
X019518Y029810D02*
X019451Y029743D01*
X019518Y029676D01*
X019652Y029676D01*
X019618Y029589D02*
X019585Y029589D01*
X019551Y029556D01*
X019518Y029589D01*
X019485Y029589D01*
X019451Y029556D01*
X019451Y029489D01*
X019485Y029456D01*
X019551Y029522D02*
X019551Y029556D01*
X019618Y029589D02*
X019652Y029556D01*
X019652Y029489D01*
X019618Y029456D01*
X019806Y029456D02*
X019806Y029589D01*
X019839Y029676D02*
X019806Y029710D01*
X019806Y029777D01*
X019839Y029810D01*
X019872Y029810D01*
X019906Y029777D01*
X019906Y029710D01*
X019939Y029676D01*
X019972Y029676D01*
X020006Y029710D01*
X020006Y029777D01*
X019972Y029810D01*
X020006Y029897D02*
X019806Y029897D01*
X019872Y029897D02*
X019872Y029998D01*
X019906Y030031D01*
X019972Y030031D01*
X020006Y029998D01*
X020006Y029897D01*
X019972Y030118D02*
X020006Y030152D01*
X020006Y030219D01*
X019972Y030252D01*
X019939Y030252D01*
X019906Y030219D01*
X019872Y030252D01*
X019839Y030252D01*
X019806Y030219D01*
X019806Y030152D01*
X019839Y030118D01*
X019906Y030185D02*
X019906Y030219D01*
X019972Y030339D02*
X020006Y030373D01*
X020006Y030440D01*
X019972Y030473D01*
X019939Y030473D01*
X019806Y030339D01*
X019806Y030473D01*
X019772Y030560D02*
X019772Y030694D01*
X019618Y031150D02*
X019485Y031150D01*
X019451Y031183D01*
X019451Y031250D01*
X019485Y031283D01*
X019451Y031371D02*
X019652Y031371D01*
X019618Y031283D02*
X019652Y031250D01*
X019652Y031183D01*
X019618Y031150D01*
X019551Y031371D02*
X019551Y031504D01*
X019551Y031592D02*
X019551Y031658D01*
X019451Y031592D02*
X019451Y031725D01*
X019451Y031813D02*
X019451Y031913D01*
X019485Y031946D01*
X019618Y031946D01*
X019652Y031913D01*
X019652Y031813D01*
X019451Y031813D01*
X019652Y031725D02*
X019652Y031592D01*
X019451Y031592D01*
X019451Y031504D02*
X019652Y031504D01*
X018864Y031444D02*
X018664Y031444D01*
X018731Y031511D01*
X018664Y031578D01*
X018864Y031578D01*
X018864Y031665D02*
X018664Y031665D01*
X018664Y031799D01*
X018664Y031886D02*
X018864Y031886D01*
X018864Y031986D01*
X018831Y032020D01*
X018764Y032020D01*
X018731Y031986D01*
X018731Y031886D01*
X018731Y031953D02*
X018664Y032020D01*
X018864Y031799D02*
X018864Y031665D01*
X018764Y031665D02*
X018764Y031732D01*
X018697Y031357D02*
X018831Y031357D01*
X018864Y031324D01*
X018864Y031257D01*
X018831Y031223D01*
X018697Y031223D01*
X018664Y031257D01*
X018664Y031324D01*
X018697Y031357D01*
X018764Y031136D02*
X018731Y031103D01*
X018731Y031002D01*
X018664Y031002D02*
X018864Y031002D01*
X018864Y031103D01*
X018831Y031136D01*
X018764Y031136D01*
X018631Y030915D02*
X018631Y030781D01*
X018664Y030694D02*
X018664Y030560D01*
X018797Y030694D01*
X018831Y030694D01*
X018864Y030661D01*
X018864Y030594D01*
X018831Y030560D01*
X018864Y030406D02*
X018664Y030406D01*
X018664Y030339D02*
X018664Y030473D01*
X018797Y030339D02*
X018864Y030406D01*
X018831Y030252D02*
X018797Y030252D01*
X018764Y030219D01*
X018764Y030152D01*
X018797Y030118D01*
X018831Y030118D01*
X018864Y030152D01*
X018864Y030219D01*
X018831Y030252D01*
X018764Y030219D02*
X018731Y030252D01*
X018697Y030252D01*
X018664Y030219D01*
X018664Y030152D01*
X018697Y030118D01*
X018731Y030118D01*
X018764Y030152D01*
X018797Y030031D02*
X018664Y029897D01*
X018664Y030031D01*
X018797Y030031D02*
X018831Y030031D01*
X018864Y029998D01*
X018864Y029931D01*
X018831Y029897D01*
X018831Y029810D02*
X018864Y029777D01*
X018864Y029710D01*
X018831Y029676D01*
X018797Y029676D01*
X018764Y029710D01*
X018764Y029777D01*
X018731Y029810D01*
X018697Y029810D01*
X018664Y029777D01*
X018664Y029710D01*
X018697Y029676D01*
X018664Y029589D02*
X018864Y029589D01*
X018864Y029456D02*
X018664Y029456D01*
X018731Y029522D01*
X018664Y029589D01*
X019058Y029556D02*
X019091Y029589D01*
X019158Y029589D01*
X019158Y029522D01*
X019224Y029456D02*
X019091Y029456D01*
X019058Y029489D01*
X019058Y029556D01*
X019058Y029676D02*
X019258Y029676D01*
X019058Y029810D01*
X019258Y029810D01*
X019258Y029897D02*
X019258Y029998D01*
X019224Y030031D01*
X019091Y030031D01*
X019058Y029998D01*
X019058Y029897D01*
X019258Y029897D01*
X019224Y029589D02*
X019258Y029556D01*
X019258Y029489D01*
X019224Y029456D01*
X019806Y029456D02*
X020006Y029456D01*
X020006Y029589D01*
X019906Y029522D02*
X019906Y029456D01*
X020233Y029824D02*
X020366Y029824D01*
X020400Y029857D01*
X020400Y029924D01*
X020366Y029957D01*
X020593Y030339D02*
X020727Y030473D01*
X020760Y030473D01*
X020793Y030440D01*
X020593Y030473D02*
X020593Y030339D01*
X021020Y029824D02*
X021154Y029824D01*
X021187Y029857D01*
X021187Y029924D01*
X021154Y029957D01*
X021420Y029964D02*
X021487Y030031D01*
X021620Y030031D01*
X021587Y030118D02*
X021620Y030152D01*
X021620Y030219D01*
X021587Y030252D01*
X021553Y030252D01*
X021520Y030219D01*
X021487Y030252D01*
X021453Y030252D01*
X021420Y030219D01*
X021420Y030152D01*
X021453Y030118D01*
X021520Y030185D02*
X021520Y030219D01*
X021420Y029964D02*
X021487Y029897D01*
X021620Y029897D01*
X021266Y033314D02*
X021099Y033314D01*
X021066Y033347D01*
X021066Y033414D01*
X021099Y033447D01*
X021266Y033447D01*
X021232Y033535D02*
X021199Y033535D01*
X021166Y033568D01*
X021166Y033635D01*
X021132Y033668D01*
X021099Y033668D01*
X021066Y033635D01*
X021066Y033568D01*
X021099Y033535D01*
X021232Y033535D02*
X021266Y033568D01*
X021266Y033635D01*
X021232Y033668D01*
X021266Y033756D02*
X021266Y033856D01*
X021232Y033889D01*
X021199Y033889D01*
X021166Y033856D01*
X021166Y033756D01*
X021066Y033756D02*
X021266Y033756D01*
X021166Y033856D02*
X021132Y033889D01*
X021099Y033889D01*
X021066Y033856D01*
X021066Y033756D01*
X021032Y033977D02*
X021032Y034110D01*
X021066Y034198D02*
X021066Y034298D01*
X021099Y034331D01*
X021232Y034331D01*
X021266Y034298D01*
X021266Y034198D01*
X021066Y034198D01*
X021066Y034419D02*
X021266Y034419D01*
X021066Y034552D01*
X021266Y034552D01*
X021420Y034537D02*
X021453Y034504D01*
X021420Y034537D02*
X021420Y034604D01*
X021453Y034637D01*
X021487Y034637D01*
X021520Y034604D01*
X021520Y034537D01*
X021553Y034504D01*
X021587Y034504D01*
X021620Y034537D01*
X021620Y034604D01*
X021587Y034637D01*
X021620Y034725D02*
X021420Y034725D01*
X021420Y034825D01*
X021453Y034858D01*
X021487Y034858D01*
X021520Y034825D01*
X021520Y034725D01*
X021520Y034825D02*
X021553Y034858D01*
X021587Y034858D01*
X021620Y034825D01*
X021620Y034725D01*
X021620Y034416D02*
X021453Y034416D01*
X021420Y034383D01*
X021420Y034316D01*
X021453Y034283D01*
X021620Y034283D01*
X021620Y034195D02*
X021487Y034195D01*
X021420Y034129D01*
X021487Y034062D01*
X021620Y034062D01*
X021232Y034861D02*
X021099Y034861D01*
X021066Y034894D01*
X021066Y034961D01*
X021099Y034994D01*
X021099Y035082D02*
X021066Y035115D01*
X021066Y035182D01*
X021099Y035215D01*
X021232Y035215D01*
X021266Y035182D01*
X021266Y035115D01*
X021232Y035082D01*
X021099Y035082D01*
X021232Y034994D02*
X021266Y034961D01*
X021266Y034894D01*
X021232Y034861D01*
X021386Y034946D02*
X021386Y035079D01*
X021420Y035167D02*
X021420Y035233D01*
X021420Y035200D02*
X021620Y035200D01*
X021620Y035167D02*
X021620Y035233D01*
X021620Y035314D02*
X021420Y035448D01*
X021620Y035448D01*
X021620Y035314D02*
X021420Y035314D01*
X021266Y035303D02*
X021066Y035436D01*
X021266Y035436D01*
X021266Y035303D02*
X021066Y035303D01*
X020872Y035331D02*
X020872Y035431D01*
X020839Y035464D01*
X020705Y035464D01*
X020672Y035431D01*
X020672Y035331D01*
X020872Y035331D01*
X020872Y035243D02*
X020672Y035243D01*
X020872Y035110D01*
X020672Y035110D01*
X020705Y035022D02*
X020772Y035022D01*
X020772Y034955D01*
X020839Y034889D02*
X020705Y034889D01*
X020672Y034922D01*
X020672Y034989D01*
X020705Y035022D01*
X020839Y035022D02*
X020872Y034989D01*
X020872Y034922D01*
X020839Y034889D01*
X021032Y034773D02*
X021032Y034640D01*
X020518Y034519D02*
X020518Y034419D01*
X020317Y034419D01*
X020384Y034419D02*
X020384Y034519D01*
X020418Y034552D01*
X020484Y034552D01*
X020518Y034519D01*
X020484Y034331D02*
X020351Y034331D01*
X020317Y034298D01*
X020317Y034198D01*
X020518Y034198D01*
X020518Y034298D01*
X020484Y034331D01*
X020284Y034110D02*
X020284Y033977D01*
X020351Y033889D02*
X020317Y033856D01*
X020317Y033756D01*
X020518Y033756D01*
X020518Y033856D01*
X020484Y033889D01*
X020451Y033889D01*
X020418Y033856D01*
X020418Y033756D01*
X020384Y033668D02*
X020418Y033635D01*
X020418Y033568D01*
X020451Y033535D01*
X020484Y033535D01*
X020518Y033568D01*
X020518Y033635D01*
X020484Y033668D01*
X020384Y033668D02*
X020351Y033668D01*
X020317Y033635D01*
X020317Y033568D01*
X020351Y033535D01*
X020351Y033447D02*
X020518Y033447D01*
X020518Y033314D02*
X020351Y033314D01*
X020317Y033347D01*
X020317Y033414D01*
X020351Y033447D01*
X020418Y033856D02*
X020384Y033889D01*
X020351Y033889D01*
X020284Y034640D02*
X020284Y034773D01*
X020351Y034861D02*
X020317Y034894D01*
X020317Y034961D01*
X020351Y034994D01*
X020351Y035082D02*
X020317Y035115D01*
X020317Y035182D01*
X020351Y035215D01*
X020484Y035215D01*
X020518Y035182D01*
X020518Y035115D01*
X020484Y035082D01*
X020351Y035082D01*
X020484Y034994D02*
X020518Y034961D01*
X020518Y034894D01*
X020484Y034861D01*
X020351Y034861D01*
X020317Y035303D02*
X020518Y035303D01*
X020317Y035436D01*
X020518Y035436D01*
X019809Y036524D02*
X019809Y036624D01*
X019776Y036657D01*
X019642Y036657D01*
X019609Y036624D01*
X019609Y036524D01*
X019809Y036524D01*
X019742Y036745D02*
X019809Y036812D01*
X019609Y036812D01*
X019609Y036878D02*
X019609Y036745D01*
X019642Y036966D02*
X019776Y037099D01*
X019642Y037099D01*
X019609Y037066D01*
X019609Y036999D01*
X019642Y036966D01*
X019776Y036966D01*
X019809Y036999D01*
X019809Y037066D01*
X019776Y037099D01*
X019776Y037187D02*
X019809Y037220D01*
X019809Y037287D01*
X019776Y037320D01*
X019742Y037320D01*
X019709Y037287D01*
X019676Y037320D01*
X019642Y037320D01*
X019609Y037287D01*
X019609Y037220D01*
X019642Y037187D01*
X019709Y037254D02*
X019709Y037287D01*
X024727Y037320D02*
X024727Y037187D01*
X024860Y037320D01*
X024894Y037320D01*
X024927Y037287D01*
X024927Y037220D01*
X024894Y037187D01*
X024894Y037099D02*
X024760Y036966D01*
X024727Y036999D01*
X024727Y037066D01*
X024760Y037099D01*
X024894Y037099D01*
X024927Y037066D01*
X024927Y036999D01*
X024894Y036966D01*
X024760Y036966D01*
X024727Y036878D02*
X024727Y036745D01*
X024727Y036812D02*
X024927Y036812D01*
X024860Y036745D01*
X024894Y036657D02*
X024927Y036624D01*
X024927Y036524D01*
X024727Y036524D01*
X024727Y036624D01*
X024760Y036657D01*
X024894Y036657D01*
X029845Y036706D02*
X029845Y036839D01*
X029845Y036772D02*
X030045Y036772D01*
X029978Y036706D01*
X030012Y036618D02*
X029878Y036618D01*
X029845Y036585D01*
X029845Y036485D01*
X030045Y036485D01*
X030045Y036585D01*
X030012Y036618D01*
X030012Y036927D02*
X030045Y036960D01*
X030045Y037027D01*
X030012Y037060D01*
X029878Y036927D01*
X029845Y036960D01*
X029845Y037027D01*
X029878Y037060D01*
X030012Y037060D01*
X029978Y037148D02*
X030045Y037214D01*
X029845Y037214D01*
X029845Y037148D02*
X029845Y037281D01*
X029878Y036927D02*
X030012Y036927D01*
X034963Y036942D02*
X034963Y037075D01*
X034963Y037009D02*
X035163Y037009D01*
X035097Y036942D01*
X035130Y036854D02*
X035163Y036821D01*
X035163Y036721D01*
X034963Y036721D01*
X034963Y036821D01*
X034997Y036854D01*
X035130Y036854D01*
X035130Y037163D02*
X035163Y037196D01*
X035163Y037263D01*
X035130Y037296D01*
X034997Y037163D01*
X034963Y037196D01*
X034963Y037263D01*
X034997Y037296D01*
X035130Y037296D01*
X035130Y037384D02*
X035163Y037417D01*
X035163Y037484D01*
X035130Y037517D01*
X034997Y037384D01*
X034963Y037417D01*
X034963Y037484D01*
X034997Y037517D01*
X035130Y037517D01*
X035130Y037384D02*
X034997Y037384D01*
X034997Y037163D02*
X035130Y037163D01*
X014691Y037066D02*
X014658Y037099D01*
X014524Y036966D01*
X014491Y036999D01*
X014491Y037066D01*
X014524Y037099D01*
X014658Y037099D01*
X014691Y037066D02*
X014691Y036999D01*
X014658Y036966D01*
X014524Y036966D01*
X014491Y036878D02*
X014491Y036745D01*
X014491Y036812D02*
X014691Y036812D01*
X014624Y036745D01*
X014658Y036657D02*
X014691Y036624D01*
X014691Y036524D01*
X014491Y036524D01*
X014491Y036624D01*
X014524Y036657D01*
X014658Y036657D01*
X014591Y037187D02*
X014591Y037320D01*
X014691Y037287D02*
X014591Y037187D01*
X014491Y037287D02*
X014691Y037287D01*
X010913Y033435D02*
X010947Y033402D01*
X010947Y033368D01*
X010913Y033335D01*
X010847Y033335D01*
X010813Y033302D01*
X010813Y033268D01*
X010847Y033235D01*
X010913Y033235D01*
X010947Y033268D01*
X010913Y033435D02*
X010847Y033435D01*
X010813Y033402D01*
X010726Y033435D02*
X010626Y033435D01*
X010592Y033402D01*
X010592Y033268D01*
X010626Y033235D01*
X010726Y033235D01*
X010726Y033435D01*
X010505Y033368D02*
X010438Y033435D01*
X010438Y033235D01*
X010505Y033235D02*
X010371Y033235D01*
X010405Y033042D02*
X010371Y033008D01*
X010505Y032875D01*
X010471Y032841D01*
X010405Y032841D01*
X010371Y032875D01*
X010371Y033008D01*
X010405Y033042D02*
X010471Y033042D01*
X010505Y033008D01*
X010505Y032875D01*
X010592Y032875D02*
X010592Y033008D01*
X010626Y033042D01*
X010726Y033042D01*
X010726Y032841D01*
X010626Y032841D01*
X010592Y032875D01*
X010813Y032875D02*
X010847Y032841D01*
X010913Y032841D01*
X010947Y032875D01*
X010947Y033008D01*
X010913Y033042D01*
X010847Y033042D01*
X010813Y033008D01*
X010847Y032648D02*
X010913Y032648D01*
X010947Y032614D01*
X010947Y032481D01*
X010913Y032448D01*
X010847Y032448D01*
X010813Y032481D01*
X010726Y032448D02*
X010726Y032648D01*
X010813Y032614D02*
X010847Y032648D01*
X010726Y032448D02*
X010592Y032448D01*
X010505Y032448D02*
X010505Y032648D01*
X010471Y032548D02*
X010371Y032448D01*
X010505Y032514D02*
X010371Y032648D01*
X010405Y032254D02*
X010371Y032221D01*
X010371Y032087D01*
X010405Y032054D01*
X010505Y032054D01*
X010505Y032254D01*
X010405Y032254D01*
X010592Y032254D02*
X010592Y032054D01*
X010726Y032254D01*
X010726Y032054D01*
X010813Y032087D02*
X010847Y032054D01*
X010913Y032054D01*
X010947Y032087D01*
X010947Y032221D01*
X010913Y032254D01*
X010847Y032254D01*
X010813Y032221D01*
X010847Y031860D02*
X010913Y031860D01*
X010947Y031827D01*
X010947Y031794D01*
X010913Y031760D01*
X010847Y031760D01*
X010813Y031727D01*
X010813Y031694D01*
X010847Y031660D01*
X010913Y031660D01*
X010947Y031694D01*
X010813Y031827D02*
X010847Y031860D01*
X010726Y031860D02*
X010626Y031860D01*
X010592Y031827D01*
X010592Y031694D01*
X010626Y031660D01*
X010726Y031660D01*
X010726Y031860D01*
X010505Y031827D02*
X010471Y031860D01*
X010405Y031860D01*
X010371Y031827D01*
X010371Y031794D01*
X010405Y031760D01*
X010371Y031727D01*
X010371Y031694D01*
X010405Y031660D01*
X010471Y031660D01*
X010505Y031694D01*
X010438Y031760D02*
X010405Y031760D01*
X010432Y031427D02*
X010365Y031427D01*
X010332Y031394D01*
X010332Y031361D01*
X010465Y031227D01*
X010332Y031227D01*
X010365Y031034D02*
X010465Y031034D01*
X010465Y030833D01*
X010365Y030833D01*
X010332Y030867D01*
X010332Y031000D01*
X010365Y031034D01*
X010553Y031034D02*
X010553Y030833D01*
X010686Y031034D01*
X010686Y030833D01*
X010774Y030867D02*
X010774Y030934D01*
X010841Y030934D01*
X010907Y031000D02*
X010907Y030867D01*
X010874Y030833D01*
X010807Y030833D01*
X010774Y030867D01*
X010774Y031000D02*
X010807Y031034D01*
X010874Y031034D01*
X010907Y031000D01*
X010874Y031227D02*
X010907Y031261D01*
X010874Y031227D02*
X010807Y031227D01*
X010774Y031261D01*
X010774Y031294D01*
X010807Y031327D01*
X010874Y031327D01*
X010907Y031361D01*
X010907Y031394D01*
X010874Y031427D01*
X010807Y031427D01*
X010774Y031394D01*
X010686Y031427D02*
X010586Y031427D01*
X010553Y031394D01*
X010553Y031261D01*
X010586Y031227D01*
X010686Y031227D01*
X010686Y031427D01*
X010465Y031394D02*
X010432Y031427D01*
X007171Y033786D02*
X006971Y033786D01*
X006971Y033920D01*
X007004Y034007D02*
X006971Y034041D01*
X006971Y034107D01*
X007004Y034141D01*
X007038Y034141D01*
X007071Y034107D01*
X007071Y034041D01*
X007104Y034007D01*
X007138Y034007D01*
X007171Y034041D01*
X007171Y034107D01*
X007138Y034141D01*
X007171Y034228D02*
X007171Y034328D01*
X007138Y034362D01*
X007071Y034362D01*
X007038Y034328D01*
X007038Y034228D01*
X006971Y034228D02*
X007171Y034228D01*
X007138Y034449D02*
X007171Y034483D01*
X007171Y034549D01*
X007138Y034583D01*
X007104Y034583D01*
X007071Y034549D01*
X007038Y034583D01*
X007004Y034583D01*
X006971Y034549D01*
X006971Y034483D01*
X007004Y034449D01*
X007071Y034516D02*
X007071Y034549D01*
X007138Y034670D02*
X007171Y034704D01*
X007171Y034770D01*
X007138Y034804D01*
X007104Y034804D01*
X006971Y034670D01*
X006971Y034804D01*
X006938Y034891D02*
X006938Y035025D01*
X006971Y035112D02*
X007171Y035112D01*
X007171Y035212D01*
X007138Y035246D01*
X007071Y035246D01*
X007038Y035212D01*
X007038Y035112D01*
X007038Y035179D02*
X006971Y035246D01*
X006971Y035333D02*
X007171Y035467D01*
X007171Y035333D02*
X006971Y035467D01*
X006620Y035467D02*
X006420Y035333D01*
X006420Y035467D02*
X006620Y035333D01*
X006620Y035246D02*
X006620Y035112D01*
X006620Y035179D02*
X006420Y035179D01*
X006386Y035025D02*
X006386Y034891D01*
X006420Y034804D02*
X006420Y034670D01*
X006553Y034804D01*
X006587Y034804D01*
X006620Y034770D01*
X006620Y034704D01*
X006587Y034670D01*
X006587Y034583D02*
X006553Y034583D01*
X006520Y034549D01*
X006487Y034583D01*
X006453Y034583D01*
X006420Y034549D01*
X006420Y034483D01*
X006453Y034449D01*
X006520Y034516D02*
X006520Y034549D01*
X006587Y034583D02*
X006620Y034549D01*
X006620Y034483D01*
X006587Y034449D01*
X006587Y034362D02*
X006520Y034362D01*
X006487Y034328D01*
X006487Y034228D01*
X006420Y034228D02*
X006620Y034228D01*
X006620Y034328D01*
X006587Y034362D01*
X006587Y034141D02*
X006620Y034107D01*
X006620Y034041D01*
X006587Y034007D01*
X006553Y034007D01*
X006520Y034041D01*
X006520Y034107D01*
X006487Y034141D01*
X006453Y034141D01*
X006420Y034107D01*
X006420Y034041D01*
X006453Y034007D01*
X006420Y033920D02*
X006420Y033786D01*
X006620Y033786D01*
X006620Y033920D01*
X006520Y033853D02*
X006520Y033786D01*
X007071Y033786D02*
X007071Y033853D01*
X007171Y033920D02*
X007171Y033786D01*
X006029Y034922D02*
X005996Y034889D01*
X005863Y034889D01*
X005829Y034922D01*
X005829Y034989D01*
X005863Y035022D01*
X005929Y035022D01*
X005929Y034955D01*
X005996Y035022D02*
X006029Y034989D01*
X006029Y034922D01*
X006029Y035110D02*
X005829Y035243D01*
X006029Y035243D01*
X006029Y035331D02*
X006029Y035431D01*
X005996Y035464D01*
X005863Y035464D01*
X005829Y035431D01*
X005829Y035331D01*
X006029Y035331D01*
X006029Y035110D02*
X005829Y035110D01*
X005439Y035145D02*
X005439Y035279D01*
X005439Y035212D02*
X005239Y035212D01*
X005239Y035366D02*
X005372Y035366D01*
X005439Y035433D01*
X005372Y035500D01*
X005239Y035500D01*
X005339Y035500D02*
X005339Y035366D01*
X005339Y035058D02*
X005339Y034924D01*
X005372Y034924D02*
X005439Y034991D01*
X005372Y035058D01*
X005239Y035058D01*
X005239Y034924D02*
X005372Y034924D01*
X005406Y034837D02*
X005439Y034803D01*
X005439Y034703D01*
X005239Y034703D01*
X005239Y034803D01*
X005272Y034837D01*
X005406Y034837D01*
X005205Y034616D02*
X005205Y034482D01*
X005239Y034395D02*
X005239Y034261D01*
X005372Y034395D01*
X005406Y034395D01*
X005439Y034361D01*
X005439Y034295D01*
X005406Y034261D01*
X005439Y034107D02*
X005239Y034107D01*
X005239Y034040D02*
X005239Y034174D01*
X005372Y034040D02*
X005439Y034107D01*
X005406Y033953D02*
X005372Y033953D01*
X005339Y033919D01*
X005339Y033853D01*
X005372Y033819D01*
X005406Y033819D01*
X005439Y033853D01*
X005439Y033919D01*
X005406Y033953D01*
X005339Y033919D02*
X005305Y033953D01*
X005272Y033953D01*
X005239Y033919D01*
X005239Y033853D01*
X005272Y033819D01*
X005305Y033819D01*
X005339Y033853D01*
X005372Y033732D02*
X005406Y033732D01*
X005439Y033698D01*
X005439Y033632D01*
X005406Y033598D01*
X005406Y033511D02*
X005439Y033477D01*
X005439Y033411D01*
X005406Y033377D01*
X005372Y033377D01*
X005339Y033411D01*
X005339Y033477D01*
X005305Y033511D01*
X005272Y033511D01*
X005239Y033477D01*
X005239Y033411D01*
X005272Y033377D01*
X005239Y033290D02*
X005439Y033290D01*
X005439Y033156D02*
X005239Y033156D01*
X005305Y033223D01*
X005239Y033290D01*
X005239Y033598D02*
X005372Y033732D01*
X005239Y033732D02*
X005239Y033598D01*
X009373Y036563D02*
X009373Y036663D01*
X009406Y036697D01*
X009539Y036697D01*
X009573Y036663D01*
X009573Y036563D01*
X009373Y036563D01*
X009373Y036784D02*
X009373Y036918D01*
X009373Y036851D02*
X009573Y036851D01*
X009506Y036784D01*
X009539Y037005D02*
X009573Y037039D01*
X009573Y037105D01*
X009539Y037139D01*
X009406Y037005D01*
X009373Y037039D01*
X009373Y037105D01*
X009406Y037139D01*
X009539Y037139D01*
X009573Y037226D02*
X009473Y037226D01*
X009506Y037293D01*
X009506Y037326D01*
X009473Y037360D01*
X009406Y037360D01*
X009373Y037326D01*
X009373Y037260D01*
X009406Y037226D01*
X009573Y037226D02*
X009573Y037360D01*
X009539Y037005D02*
X009406Y037005D01*
D14*
X016861Y020529D03*
X016919Y020529D03*
X016976Y020529D03*
X017034Y020529D03*
X017091Y020529D03*
X017111Y020529D03*
X017168Y020529D03*
X017188Y020529D03*
X017245Y020529D03*
X017303Y020529D03*
X017360Y020529D03*
X017380Y020529D03*
X017399Y020529D03*
X017457Y020529D03*
X017514Y020529D03*
X017533Y020529D03*
X017178Y019702D03*
X017178Y019693D03*
X017091Y018310D03*
X016986Y018310D03*
X016938Y018310D03*
X016919Y018310D03*
X016899Y018310D03*
X016880Y018310D03*
X016861Y018310D03*
X016813Y018310D03*
X017351Y018310D03*
X017399Y018310D03*
X017418Y018310D03*
X017437Y018310D03*
X017447Y017733D03*
X017485Y017733D03*
X017409Y017733D03*
X017351Y017733D03*
X017332Y017733D03*
X017255Y017733D03*
X017188Y017733D03*
X017159Y017733D03*
X017111Y017733D03*
X017082Y017733D03*
X016919Y017733D03*
X016890Y017733D03*
X016871Y017733D03*
X016794Y017615D03*
X016726Y017733D03*
X016698Y017733D03*
X016650Y017733D03*
X016621Y017733D03*
X016602Y017733D03*
X016323Y017070D03*
X016265Y017070D03*
X016208Y017070D03*
X016150Y017070D03*
X016131Y017070D03*
X016112Y017070D03*
X016092Y017070D03*
X016035Y017070D03*
X015977Y017070D03*
X015920Y017070D03*
X015900Y017070D03*
X015881Y017070D03*
X015862Y017070D03*
X015843Y017070D03*
X015823Y017070D03*
X015804Y017070D03*
X015237Y016417D03*
X015218Y016417D03*
X015189Y016417D03*
X015266Y016167D03*
X015286Y016167D03*
X015305Y016167D03*
X015391Y016167D03*
X015410Y016167D03*
X015430Y016167D03*
X015458Y015975D03*
X015478Y015975D03*
X015506Y015975D03*
X015564Y015975D03*
X015372Y015975D03*
X015353Y015975D03*
X015334Y015716D03*
X015305Y015716D03*
X015286Y015716D03*
X015266Y015716D03*
X015228Y015716D03*
X015209Y015716D03*
X015170Y015716D03*
X015074Y015716D03*
X014969Y015975D03*
X014940Y015975D03*
X014892Y015975D03*
X014872Y015975D03*
X014844Y015975D03*
X014940Y016167D03*
X015074Y016167D03*
X015093Y016167D03*
X014815Y016273D03*
X014786Y016273D03*
X014738Y016273D03*
X014709Y016273D03*
X014690Y016273D03*
X014671Y016273D03*
X014623Y016273D03*
X014603Y016273D03*
X014584Y016273D03*
X014555Y016273D03*
X014536Y016273D03*
X014488Y016504D03*
X014517Y016590D03*
X014479Y016676D03*
X014459Y016676D03*
X014440Y016676D03*
X014411Y016676D03*
X014392Y015793D03*
X014334Y015793D03*
X014277Y015793D03*
X014219Y015793D03*
X014162Y015793D03*
X014171Y015620D03*
X014152Y015620D03*
X014133Y015620D03*
X014114Y015620D03*
X014094Y015620D03*
X014190Y015620D03*
X014210Y015620D03*
X014248Y015620D03*
X014267Y015620D03*
X014296Y015620D03*
X014315Y015620D03*
X014344Y015620D03*
X014363Y015620D03*
X014402Y015620D03*
X014421Y015620D03*
X014440Y015620D03*
X014459Y015620D03*
X014479Y015620D03*
X014498Y015620D03*
X014517Y015620D03*
X014555Y015620D03*
X014575Y015620D03*
X014603Y015620D03*
X014623Y015620D03*
X014651Y015620D03*
X014671Y015620D03*
X014709Y015620D03*
X014728Y015620D03*
X014748Y015620D03*
X014776Y015620D03*
X014796Y015620D03*
X014565Y015793D03*
X014507Y015793D03*
X014450Y015793D03*
X013710Y015610D03*
X012970Y015620D03*
X012951Y015620D03*
X012932Y015620D03*
X012903Y015620D03*
X012884Y015620D03*
X012865Y015620D03*
X012846Y015620D03*
X012817Y015620D03*
X012797Y015620D03*
X012778Y015620D03*
X012749Y015620D03*
X012730Y015620D03*
X012701Y015620D03*
X012682Y015620D03*
X012394Y015620D03*
X012375Y015620D03*
X012356Y015620D03*
X012327Y015620D03*
X012308Y015620D03*
X012288Y015620D03*
X012269Y015620D03*
X012240Y015620D03*
X012221Y015620D03*
X012202Y015620D03*
X012173Y015620D03*
X012125Y015620D03*
X012096Y015620D03*
X012115Y016407D03*
X012173Y016407D03*
X012231Y016407D03*
X012288Y016407D03*
X012346Y016407D03*
X012404Y016407D03*
X012461Y016407D03*
X012375Y016494D03*
X012317Y016494D03*
X012317Y016580D03*
X012288Y016580D03*
X012250Y016580D03*
X012202Y016580D03*
X012173Y016580D03*
X012125Y016580D03*
X012087Y016580D03*
X012048Y016580D03*
X012010Y016580D03*
X011971Y016580D03*
X011943Y016580D03*
X011904Y016580D03*
X011856Y016580D03*
X011818Y016580D03*
X012048Y016494D03*
X012077Y016494D03*
X012125Y016494D03*
X012183Y016494D03*
X012365Y016580D03*
X013604Y016590D03*
X013624Y016676D03*
X013652Y016504D03*
X013672Y016504D03*
X017562Y017733D03*
X017639Y017733D03*
X017658Y017733D03*
X017716Y017733D03*
X017754Y017733D03*
X018052Y017070D03*
X018110Y017070D03*
X018167Y017070D03*
X018225Y017070D03*
X018244Y017070D03*
X018302Y017070D03*
X018321Y017070D03*
X018379Y017070D03*
X018398Y017070D03*
X018456Y017070D03*
X018475Y017070D03*
X018494Y017070D03*
X018513Y017070D03*
X018532Y017070D03*
X018590Y017070D03*
X018648Y017070D03*
X018667Y017070D03*
X018686Y017070D03*
X018705Y017070D03*
X018725Y017070D03*
X018744Y017070D03*
X018763Y017070D03*
X018782Y017070D03*
X019301Y017070D03*
X019320Y017070D03*
X019378Y017070D03*
X019435Y017070D03*
X019493Y017070D03*
X019551Y017070D03*
X019570Y017070D03*
X019589Y017070D03*
X019608Y017070D03*
X019666Y017070D03*
X019724Y017070D03*
X019781Y017070D03*
X019800Y017070D03*
X019820Y017070D03*
X019839Y017070D03*
X019897Y017070D03*
X019954Y017070D03*
X019983Y017070D03*
X020021Y018550D03*
X020060Y018550D03*
X020098Y018550D03*
X020127Y018550D03*
X020156Y018550D03*
X020185Y018550D03*
X020214Y018550D03*
X020242Y018550D03*
X020271Y018550D03*
X020300Y018550D03*
X020338Y018550D03*
X020367Y018550D03*
X020396Y018550D03*
X020425Y018550D03*
X020454Y018550D03*
X020483Y018550D03*
X020511Y018550D03*
X020540Y018550D03*
X020569Y018550D03*
X020598Y018550D03*
X020627Y018550D03*
X020655Y018550D03*
X020684Y018550D03*
X020713Y018550D03*
X020742Y018550D03*
X020771Y018550D03*
X020800Y018550D03*
X020828Y018550D03*
X020857Y018550D03*
X020886Y018550D03*
X020924Y018550D03*
X020963Y018550D03*
X021001Y018550D03*
X021040Y018550D03*
X021078Y018550D03*
X021117Y018550D03*
X021155Y018550D03*
X021193Y018550D03*
X021241Y018550D03*
X021270Y018550D03*
X021309Y018550D03*
X021069Y018463D03*
X020905Y018463D03*
X021337Y019126D03*
X021376Y020529D03*
X021395Y020529D03*
X021453Y020529D03*
X021510Y020529D03*
X021530Y020529D03*
X021549Y020529D03*
X021606Y020529D03*
X021664Y020529D03*
X021683Y020529D03*
X021703Y020529D03*
X021760Y020529D03*
X021818Y020529D03*
X021837Y020529D03*
X021856Y020529D03*
X022711Y019558D03*
X022730Y019558D03*
X022750Y019558D03*
X022769Y019558D03*
X022826Y019558D03*
X022884Y019558D03*
X022903Y019558D03*
X022923Y019558D03*
X022980Y019558D03*
X023038Y019558D03*
X023095Y019558D03*
X023143Y019558D03*
X023172Y019558D03*
X023220Y019558D03*
X023268Y019558D03*
X023288Y019558D03*
X023307Y019558D03*
X023364Y019558D03*
X023912Y019933D03*
X023874Y020010D03*
X023854Y020010D03*
X024018Y020010D03*
X024104Y020567D03*
X024123Y020567D03*
X024171Y020644D03*
X024046Y020653D03*
X024027Y020653D03*
X024008Y020653D03*
X023806Y020653D03*
X023777Y020653D03*
X023749Y020567D03*
X023720Y020567D03*
X023681Y020644D03*
X023605Y020634D03*
X023557Y020625D03*
X024306Y020538D03*
X024584Y018137D03*
X024613Y018137D03*
X024632Y018137D03*
X024652Y018137D03*
X024748Y018137D03*
X024805Y018137D03*
X024825Y018137D03*
X024882Y018137D03*
X024901Y018137D03*
X024921Y018137D03*
X024940Y018137D03*
X024997Y018137D03*
X025017Y018137D03*
X025036Y018137D03*
X025055Y018137D03*
X025074Y018137D03*
X025094Y018137D03*
X025151Y018137D03*
X025170Y018137D03*
X025190Y018137D03*
X025209Y018137D03*
X025266Y018137D03*
X024046Y017589D03*
X024027Y017589D03*
X023960Y017666D03*
X023931Y017666D03*
X023874Y017666D03*
X023845Y017666D03*
X023826Y017666D03*
X023787Y017589D03*
X023691Y017032D03*
X023729Y016945D03*
X023749Y016945D03*
X023614Y016955D03*
X023585Y017041D03*
X023537Y017051D03*
X023480Y017061D03*
X023912Y017022D03*
X023941Y017022D03*
X023960Y017022D03*
X023979Y017022D03*
X024046Y016945D03*
X024162Y016955D03*
X024191Y017041D03*
X024354Y017070D03*
X022077Y017070D03*
X022048Y017070D03*
X021991Y017070D03*
X021971Y017070D03*
X021952Y017070D03*
X021933Y017070D03*
X021875Y017070D03*
X021818Y017070D03*
X021760Y017070D03*
X021741Y017070D03*
X021722Y017070D03*
X021703Y017070D03*
X021645Y017070D03*
X021587Y017070D03*
X021491Y017070D03*
X021434Y017070D03*
X021376Y017070D03*
X021357Y017070D03*
X019954Y020529D03*
X019935Y020529D03*
X019877Y020529D03*
X019858Y020529D03*
X019800Y020529D03*
X019743Y020529D03*
X019685Y020529D03*
X019628Y020529D03*
X019570Y020529D03*
X019493Y020529D03*
X019474Y020529D03*
X019416Y020529D03*
X019397Y020529D03*
X019339Y020529D03*
X019282Y020529D03*
D15*
X020948Y019126D03*
X021064Y019126D03*
X021179Y019126D03*
X021294Y019126D03*
X017173Y019616D03*
X017173Y019626D03*
X013667Y015610D03*
X012927Y016407D03*
D16*
X013614Y015610D03*
X015554Y016244D03*
X017178Y019664D03*
X017216Y020529D03*
X017140Y020529D03*
X019445Y020529D03*
X019906Y020529D03*
X020146Y019203D03*
X020012Y019126D03*
X020896Y019126D03*
X020905Y019203D03*
X021001Y019126D03*
X021030Y019203D03*
X021117Y019126D03*
X021232Y019126D03*
X022682Y019558D03*
X023989Y020010D03*
X023941Y020577D03*
D17*
X024042Y019241D03*
X024013Y019232D03*
X023465Y019030D03*
X023446Y019020D03*
X023417Y019011D03*
X023398Y019001D03*
X023187Y018886D03*
X023850Y018406D03*
X024387Y018607D03*
X024407Y018617D03*
X023907Y017589D03*
X023657Y017676D03*
X023187Y017109D03*
X024656Y017128D03*
X021361Y019443D03*
X019969Y019847D03*
X019258Y020087D03*
X014455Y016456D03*
X013657Y016456D03*
X013657Y015831D03*
X013792Y015687D03*
X013657Y015620D03*
X013090Y016494D03*
D18*
X013667Y016676D03*
X014186Y015793D03*
X014243Y015793D03*
X014301Y015793D03*
X014359Y015793D03*
X014416Y015793D03*
X014474Y015793D03*
X014531Y015793D03*
X014916Y015975D03*
X014993Y015975D03*
X015031Y015975D03*
X015021Y016167D03*
X014993Y016167D03*
X014964Y016167D03*
X015050Y016167D03*
X015117Y016167D03*
X015329Y016167D03*
X015358Y016167D03*
X015396Y015975D03*
X015434Y015975D03*
X015530Y015975D03*
X015108Y015716D03*
X014762Y016273D03*
X014647Y016273D03*
X014455Y016504D03*
X015165Y016417D03*
X015953Y017070D03*
X016011Y017070D03*
X016068Y017070D03*
X016184Y017070D03*
X016241Y017070D03*
X016299Y017070D03*
X016760Y018310D03*
X016789Y018310D03*
X016837Y018310D03*
X016962Y018310D03*
X017010Y018310D03*
X017039Y018310D03*
X017067Y018310D03*
X017116Y018310D03*
X017269Y018310D03*
X017298Y018310D03*
X017327Y018310D03*
X017375Y018310D03*
X017471Y018310D03*
X017500Y018310D03*
X017529Y018310D03*
X017557Y018310D03*
X017586Y018310D03*
X017173Y019674D03*
X017173Y019683D03*
X017067Y020529D03*
X017010Y020529D03*
X016952Y020529D03*
X016895Y020529D03*
X016837Y020529D03*
X017279Y020529D03*
X017336Y020529D03*
X017433Y020529D03*
X017490Y020529D03*
X019258Y020529D03*
X019315Y020529D03*
X019373Y020529D03*
X019517Y020529D03*
X019546Y020529D03*
X019604Y020529D03*
X019661Y020529D03*
X019719Y020529D03*
X019776Y020529D03*
X019834Y020529D03*
X020180Y019203D03*
X020257Y019203D03*
X020334Y019203D03*
X020410Y019203D03*
X020487Y019203D03*
X020564Y019203D03*
X020641Y019203D03*
X020718Y019203D03*
X020795Y019203D03*
X020872Y019203D03*
X020939Y019203D03*
X020968Y019203D03*
X020996Y019203D03*
X021064Y019203D03*
X021141Y019203D03*
X021169Y019203D03*
X021198Y019203D03*
X020449Y018463D03*
X019930Y017070D03*
X019873Y017070D03*
X019757Y017070D03*
X019700Y017070D03*
X019642Y017070D03*
X019527Y017070D03*
X019469Y017070D03*
X019411Y017070D03*
X019354Y017070D03*
X019277Y017070D03*
X018624Y017070D03*
X018566Y017070D03*
X018432Y017070D03*
X018355Y017070D03*
X018278Y017070D03*
X018201Y017070D03*
X018143Y017070D03*
X018086Y017070D03*
X018028Y017070D03*
X021410Y017070D03*
X021467Y017070D03*
X021525Y017070D03*
X021563Y017070D03*
X021621Y017070D03*
X021679Y017070D03*
X021794Y017070D03*
X021851Y017070D03*
X021909Y017070D03*
X022024Y017070D03*
X023811Y017022D03*
X023850Y017022D03*
X023888Y017022D03*
X024676Y018137D03*
X024714Y018137D03*
X024772Y018137D03*
X024849Y018137D03*
X024964Y018137D03*
X025118Y018137D03*
X025233Y018137D03*
X025290Y018137D03*
X023936Y019933D03*
X023955Y020010D03*
X023907Y020577D03*
X023878Y020577D03*
X023859Y020653D03*
X023830Y020653D03*
X024234Y020634D03*
X023331Y019558D03*
X023244Y019558D03*
X023196Y019558D03*
X023119Y019558D03*
X023062Y019558D03*
X023004Y019558D03*
X022947Y019558D03*
X022850Y019558D03*
X022793Y019558D03*
X022082Y020529D03*
X022044Y020529D03*
X021890Y020529D03*
X021794Y020529D03*
X021736Y020529D03*
X021640Y020529D03*
X021582Y020529D03*
X021486Y020529D03*
X021429Y020529D03*
X013667Y015687D03*
X012149Y015620D03*
X012264Y016494D03*
X011995Y016494D03*
D19*
X014435Y015687D03*
X014445Y015697D03*
X014445Y015668D03*
X014435Y015658D03*
X014445Y015639D03*
X014435Y015629D03*
D20*
X013657Y015629D03*
X012812Y016590D03*
X019287Y020067D03*
X021390Y019424D03*
X023398Y020538D03*
X024493Y020529D03*
X023898Y016945D03*
D21*
X023369Y017051D03*
X024224Y018559D03*
X023436Y020548D03*
X021410Y019414D03*
X019306Y020058D03*
X015415Y016235D03*
X015415Y016225D03*
X015415Y016215D03*
X015415Y016206D03*
X015415Y016196D03*
X015415Y016187D03*
X015415Y016177D03*
X015415Y016052D03*
X015415Y016042D03*
X015415Y016033D03*
X015415Y016023D03*
X015415Y016014D03*
X015415Y016004D03*
X015415Y015994D03*
X015415Y015985D03*
X014983Y015985D03*
X014983Y015994D03*
X014983Y016004D03*
X014983Y016014D03*
X014983Y016023D03*
X014983Y016033D03*
X014983Y016042D03*
X014983Y016052D03*
X014983Y016177D03*
X014983Y016187D03*
X014983Y016196D03*
X014983Y016206D03*
X014983Y016215D03*
X014983Y016225D03*
X014983Y016235D03*
X014685Y016283D03*
X014685Y016292D03*
X014685Y016311D03*
X014685Y016331D03*
X014685Y016350D03*
X013657Y016648D03*
X013042Y016340D03*
X012821Y015697D03*
X012821Y015687D03*
X012821Y015668D03*
X012821Y015658D03*
X012821Y015649D03*
X012821Y015629D03*
D22*
X012245Y015629D03*
X012236Y015639D03*
X012236Y015649D03*
X012226Y015668D03*
X012216Y015687D03*
X013657Y015639D03*
X024157Y017666D03*
X024416Y017051D03*
X024416Y020548D03*
D23*
X023336Y018828D03*
X023201Y018867D03*
X023864Y018665D03*
X024460Y017061D03*
X021722Y019318D03*
X015593Y017080D03*
X015199Y016456D03*
X015199Y016436D03*
X014680Y016340D03*
X014680Y016321D03*
X014680Y016302D03*
X015199Y015764D03*
X015199Y015745D03*
X015199Y015725D03*
X013047Y016321D03*
X013047Y016331D03*
X013047Y016350D03*
X013047Y016359D03*
X012826Y016580D03*
X012826Y015677D03*
X012826Y015639D03*
D24*
X014440Y015649D03*
X014440Y015677D03*
D25*
X013657Y015649D03*
X019335Y020039D03*
X023523Y020567D03*
D26*
X023465Y017032D03*
X013657Y015658D03*
D27*
X012231Y015658D03*
X012221Y015677D03*
X012211Y015697D03*
X019925Y019875D03*
X021520Y019385D03*
X022029Y019232D03*
X024114Y019933D03*
D28*
X024215Y018579D03*
X021467Y019395D03*
X014445Y016628D03*
X013657Y016619D03*
X013657Y015668D03*
D29*
X013662Y015677D03*
X014296Y015850D03*
X023922Y020644D03*
D30*
X023312Y020509D03*
X024580Y020500D03*
X023946Y019203D03*
X023917Y019193D03*
X023888Y019184D03*
X023590Y019078D03*
X023542Y019059D03*
X023513Y019049D03*
X023898Y018425D03*
X023974Y018454D03*
X024186Y018530D03*
X024215Y018540D03*
X023235Y017090D03*
X014455Y016446D03*
X013657Y016446D03*
X013657Y016436D03*
X013657Y015841D03*
X013532Y015687D03*
D31*
X013494Y015697D03*
X013657Y015812D03*
X013821Y015697D03*
X014147Y015870D03*
X014455Y016475D03*
X014618Y016590D03*
X013657Y016475D03*
X012754Y016628D03*
X017173Y019433D03*
X017750Y019981D03*
X017750Y019991D03*
X019239Y020096D03*
X023139Y020433D03*
X023158Y020442D03*
X023177Y020452D03*
X023657Y019904D03*
X024224Y019904D03*
X024762Y020423D03*
X024772Y020413D03*
X024656Y018732D03*
X024637Y018723D03*
X024618Y018713D03*
X023705Y018338D03*
X023686Y018329D03*
X023273Y018944D03*
X023254Y018934D03*
X023216Y018915D03*
X024291Y017704D03*
X024762Y017176D03*
X024781Y017186D03*
X024801Y017195D03*
D32*
X024493Y017944D03*
X024503Y017993D03*
X024512Y018021D03*
X024512Y018031D03*
X024512Y018050D03*
X024522Y018079D03*
X024522Y018089D03*
X024522Y018098D03*
X024522Y018108D03*
X023456Y018079D03*
X023456Y018069D03*
X023446Y018031D03*
X023446Y018021D03*
X023446Y018012D03*
X023446Y018002D03*
X023446Y017983D03*
X023446Y017954D03*
X023446Y017944D03*
X023446Y017916D03*
X023446Y017906D03*
X023456Y017877D03*
X022639Y017656D03*
X022620Y017724D03*
X022610Y017762D03*
X022610Y017772D03*
X022601Y017800D03*
X022601Y017820D03*
X022601Y017829D03*
X022601Y017848D03*
X022591Y017868D03*
X022591Y017887D03*
X022591Y017896D03*
X022591Y017916D03*
X022591Y017925D03*
X022591Y017935D03*
X022591Y017944D03*
X022591Y017954D03*
X022591Y017964D03*
X022591Y017973D03*
X022591Y017983D03*
X022591Y017993D03*
X022591Y018002D03*
X022591Y018012D03*
X022591Y018021D03*
X022591Y018031D03*
X022591Y018041D03*
X022591Y018060D03*
X022591Y018069D03*
X022601Y018089D03*
X022601Y018117D03*
X022601Y018127D03*
X022610Y018175D03*
X022610Y018185D03*
X022620Y018213D03*
X022630Y018261D03*
X022649Y018319D03*
X022149Y018319D03*
X022149Y018329D03*
X022149Y018338D03*
X022149Y018358D03*
X022149Y018367D03*
X022149Y018377D03*
X022149Y018396D03*
X022149Y018406D03*
X022149Y018415D03*
X022149Y018434D03*
X022149Y018444D03*
X022149Y018454D03*
X022149Y018473D03*
X022149Y018482D03*
X022149Y018492D03*
X022149Y018511D03*
X022149Y018521D03*
X022149Y018530D03*
X022149Y018550D03*
X022149Y018559D03*
X022149Y018569D03*
X022149Y018588D03*
X022149Y018598D03*
X022149Y018607D03*
X022149Y018627D03*
X022149Y018636D03*
X022149Y018646D03*
X022149Y018665D03*
X022149Y018675D03*
X022149Y018684D03*
X022149Y018703D03*
X022149Y018713D03*
X022149Y018723D03*
X022149Y018742D03*
X022149Y018751D03*
X022149Y018761D03*
X022149Y018780D03*
X022149Y018790D03*
X022149Y018799D03*
X022149Y018819D03*
X022149Y018828D03*
X022149Y018838D03*
X022149Y018857D03*
X022149Y018867D03*
X022149Y018876D03*
X022149Y018896D03*
X022149Y018905D03*
X022149Y018915D03*
X022149Y018934D03*
X022149Y018944D03*
X022149Y018953D03*
X022149Y018972D03*
X022149Y018982D03*
X022149Y018992D03*
X022149Y019011D03*
X022149Y019020D03*
X022149Y019030D03*
X022149Y019049D03*
X022149Y019059D03*
X022149Y019068D03*
X022149Y019088D03*
X022149Y019097D03*
X022149Y019107D03*
X022149Y019126D03*
X022149Y019136D03*
X022149Y019145D03*
X022149Y019251D03*
X022149Y019270D03*
X022149Y019280D03*
X022149Y019289D03*
X022149Y019309D03*
X022149Y019318D03*
X022149Y019328D03*
X022149Y019347D03*
X022149Y019357D03*
X022149Y019376D03*
X022149Y019385D03*
X022149Y019395D03*
X022149Y019405D03*
X022149Y019424D03*
X022149Y019433D03*
X022149Y019443D03*
X022149Y019462D03*
X022149Y019472D03*
X022149Y019491D03*
X022149Y019501D03*
X022149Y019510D03*
X022149Y019520D03*
X022149Y019539D03*
X022149Y019549D03*
X022149Y019558D03*
X022149Y019578D03*
X022149Y019587D03*
X022149Y019606D03*
X022149Y019616D03*
X022149Y019626D03*
X022149Y019635D03*
X022149Y019654D03*
X022149Y019664D03*
X022149Y019674D03*
X022149Y019693D03*
X022149Y019702D03*
X022149Y019722D03*
X022149Y019731D03*
X022149Y019741D03*
X022149Y019750D03*
X022149Y019770D03*
X022149Y019779D03*
X022149Y019789D03*
X022149Y019808D03*
X022149Y019818D03*
X022149Y019837D03*
X022149Y019847D03*
X022149Y019856D03*
X022149Y019866D03*
X022149Y019885D03*
X022149Y019895D03*
X022149Y019904D03*
X022149Y019923D03*
X022149Y019933D03*
X022149Y019952D03*
X022149Y019962D03*
X022149Y019971D03*
X022149Y019981D03*
X022149Y020000D03*
X022149Y020010D03*
X022149Y020019D03*
X022149Y020039D03*
X022149Y020048D03*
X022149Y020067D03*
X022149Y020077D03*
X022149Y020087D03*
X022149Y020096D03*
X022149Y020116D03*
X022149Y020125D03*
X022149Y020135D03*
X022149Y020154D03*
X022149Y020164D03*
X022149Y020183D03*
X022149Y020192D03*
X022149Y020202D03*
X022149Y020212D03*
X022149Y020231D03*
X022149Y020240D03*
X022149Y020250D03*
X022149Y020269D03*
X022149Y020279D03*
X022149Y020298D03*
X022149Y020308D03*
X022149Y020317D03*
X022149Y020327D03*
X022149Y020346D03*
X022149Y020356D03*
X022149Y020365D03*
X022149Y020384D03*
X022149Y020394D03*
X022149Y020413D03*
X022149Y020423D03*
X022149Y020433D03*
X022149Y020442D03*
X022149Y020461D03*
X022149Y020471D03*
X022149Y020481D03*
X022149Y020500D03*
X022149Y020509D03*
X022649Y019875D03*
X022639Y019847D03*
X022630Y019818D03*
X022630Y019808D03*
X022620Y019789D03*
X022620Y019770D03*
X022610Y019741D03*
X022610Y019731D03*
X022610Y019712D03*
X022601Y019683D03*
X022601Y019674D03*
X022601Y019664D03*
X022591Y019606D03*
X022591Y019597D03*
X022591Y019578D03*
X022591Y019568D03*
X023446Y019587D03*
X023446Y019597D03*
X023446Y019606D03*
X023456Y019645D03*
X023456Y019654D03*
X023465Y019683D03*
X024416Y019683D03*
X024416Y019693D03*
X024426Y019645D03*
X024426Y019626D03*
X024426Y019616D03*
X024426Y019606D03*
X024426Y019597D03*
X024416Y019558D03*
X024416Y019549D03*
X025233Y019357D03*
X025242Y019385D03*
X025252Y019424D03*
X025252Y019443D03*
X025262Y019453D03*
X025262Y019472D03*
X025262Y019481D03*
X025262Y019491D03*
X025271Y019539D03*
X025271Y019558D03*
X025271Y019578D03*
X025271Y019587D03*
X025271Y019597D03*
X025271Y019616D03*
X025271Y019626D03*
X025271Y019645D03*
X025271Y019654D03*
X025271Y019664D03*
X025271Y019674D03*
X025271Y019683D03*
X025271Y019693D03*
X025271Y019702D03*
X025271Y019712D03*
X025262Y019750D03*
X025262Y019760D03*
X025262Y019770D03*
X025252Y019818D03*
X025252Y019827D03*
X025242Y019856D03*
X025214Y019943D03*
X022149Y018300D03*
X022149Y018290D03*
X022149Y018281D03*
X022149Y018261D03*
X022149Y018252D03*
X022149Y018242D03*
X022149Y018223D03*
X022149Y018213D03*
X022149Y018204D03*
X022149Y018185D03*
X022149Y018175D03*
X022149Y018165D03*
X022149Y018146D03*
X022149Y018137D03*
X022149Y018127D03*
X022149Y018108D03*
X022149Y018098D03*
X022149Y018089D03*
X022149Y018069D03*
X022149Y018060D03*
X022149Y018050D03*
X022149Y018031D03*
X022149Y018021D03*
X022149Y018012D03*
X022149Y017993D03*
X022149Y017983D03*
X022149Y017973D03*
X022149Y017954D03*
X022149Y017944D03*
X022149Y017935D03*
X022149Y017925D03*
X022149Y017906D03*
X022149Y017896D03*
X022149Y017887D03*
X022149Y017877D03*
X022149Y017858D03*
X022149Y017848D03*
X022149Y017829D03*
X022149Y017820D03*
X022149Y017810D03*
X022149Y017791D03*
X022149Y017781D03*
X022149Y017772D03*
X022149Y017762D03*
X022149Y017743D03*
X022149Y017733D03*
X022149Y017714D03*
X022149Y017704D03*
X022149Y017695D03*
X022149Y017676D03*
X022149Y017666D03*
X022149Y017656D03*
X022149Y017647D03*
X022149Y017627D03*
X022149Y017618D03*
X022149Y017599D03*
X022149Y017589D03*
X022149Y017579D03*
X022149Y017560D03*
X022149Y017551D03*
X022149Y017541D03*
X022149Y017531D03*
X022149Y017512D03*
X022149Y017503D03*
X022149Y017483D03*
X022149Y017474D03*
X022149Y017464D03*
X022149Y017445D03*
X022149Y017435D03*
X022149Y017426D03*
X022149Y017416D03*
X022149Y017397D03*
X022149Y017387D03*
X022149Y017368D03*
X022149Y017359D03*
X022149Y017349D03*
X022149Y017330D03*
X022149Y017320D03*
X022149Y017310D03*
X022149Y017301D03*
X022149Y017282D03*
X022149Y017272D03*
X022149Y017253D03*
X022149Y017243D03*
X022149Y017234D03*
X022149Y017214D03*
X022149Y017205D03*
X022149Y017195D03*
X022149Y017186D03*
X022149Y017166D03*
X022149Y017157D03*
X022149Y017138D03*
X022149Y017128D03*
X022149Y017118D03*
X022149Y017099D03*
X022149Y017090D03*
X022149Y017080D03*
X021294Y017080D03*
X021294Y017099D03*
X021294Y017109D03*
X021294Y017138D03*
X021294Y017147D03*
X021294Y017157D03*
X021294Y017176D03*
X021294Y017186D03*
X021294Y017195D03*
X021294Y017205D03*
X021294Y017214D03*
X021294Y017224D03*
X021294Y017253D03*
X021294Y017262D03*
X021294Y017291D03*
X021294Y017301D03*
X021294Y017310D03*
X021294Y017320D03*
X021294Y017330D03*
X021294Y017339D03*
X021294Y017359D03*
X021294Y017368D03*
X021294Y017378D03*
X021294Y017407D03*
X021294Y017416D03*
X021294Y017435D03*
X021294Y017445D03*
X021294Y017455D03*
X021294Y017474D03*
X021294Y017483D03*
X021294Y017493D03*
X021294Y017522D03*
X021294Y017531D03*
X021294Y017551D03*
X021294Y017560D03*
X021294Y017570D03*
X021294Y017589D03*
X021294Y017599D03*
X021294Y017608D03*
X021294Y017637D03*
X021294Y017647D03*
X021294Y017666D03*
X021294Y017676D03*
X021294Y017685D03*
X021294Y017714D03*
X021294Y017724D03*
X021294Y017743D03*
X021294Y017752D03*
X021294Y017762D03*
X021294Y017781D03*
X021294Y017791D03*
X021294Y017800D03*
X021294Y017829D03*
X021294Y017839D03*
X021294Y017858D03*
X021294Y017868D03*
X021294Y017877D03*
X021294Y017896D03*
X021294Y017906D03*
X021294Y017916D03*
X021294Y017944D03*
X021294Y017954D03*
X021294Y017964D03*
X021294Y017973D03*
X021294Y017983D03*
X021294Y017993D03*
X021294Y018021D03*
X021294Y018031D03*
X021294Y018060D03*
X021294Y018069D03*
X021294Y018079D03*
X021294Y018098D03*
X021294Y018108D03*
X021294Y018117D03*
X021294Y018127D03*
X021294Y018137D03*
X021294Y018146D03*
X021294Y018175D03*
X021294Y018185D03*
X021294Y018213D03*
X021294Y018223D03*
X021294Y018233D03*
X021294Y018242D03*
X021294Y018252D03*
X021294Y018271D03*
X021294Y019213D03*
X021294Y019222D03*
X021294Y019251D03*
X021294Y019261D03*
X021294Y019270D03*
X021294Y019289D03*
X021294Y019299D03*
X021294Y019318D03*
X021294Y019328D03*
X021294Y019337D03*
X021294Y019366D03*
X021294Y019376D03*
X021294Y019491D03*
X021294Y019501D03*
X021294Y019510D03*
X021294Y019520D03*
X021294Y019530D03*
X021294Y019558D03*
X021294Y019568D03*
X021294Y019587D03*
X021294Y019597D03*
X021294Y019606D03*
X021294Y019626D03*
X021294Y019635D03*
X021294Y019645D03*
X021294Y019674D03*
X021294Y019683D03*
X021294Y019702D03*
X021294Y019712D03*
X021294Y019722D03*
X021294Y019741D03*
X021294Y019750D03*
X021294Y019760D03*
X021294Y019789D03*
X021294Y019799D03*
X021294Y019808D03*
X021294Y019818D03*
X021294Y019827D03*
X021294Y019837D03*
X021294Y019866D03*
X021294Y019875D03*
X021294Y019904D03*
X021294Y019914D03*
X021294Y019923D03*
X021294Y019943D03*
X021294Y019952D03*
X021294Y019962D03*
X021294Y019971D03*
X021294Y019981D03*
X021294Y019991D03*
X021294Y020019D03*
X021294Y020029D03*
X021294Y020058D03*
X021294Y020067D03*
X021294Y020077D03*
X021294Y020087D03*
X021294Y020096D03*
X021294Y020106D03*
X021294Y020125D03*
X021294Y020135D03*
X021294Y020144D03*
X021294Y020164D03*
X021294Y020173D03*
X021294Y020183D03*
X021294Y020202D03*
X021294Y020212D03*
X021294Y020221D03*
X021294Y020240D03*
X021294Y020250D03*
X021294Y020260D03*
X021294Y020279D03*
X021294Y020288D03*
X021294Y020298D03*
X021294Y020327D03*
X021294Y020336D03*
X021294Y020356D03*
X021294Y020365D03*
X021294Y020375D03*
X021294Y020394D03*
X021294Y020404D03*
X021294Y020413D03*
X021294Y020442D03*
X021294Y020452D03*
X021294Y020471D03*
X021294Y020481D03*
X021294Y020490D03*
X021294Y020509D03*
X021294Y020519D03*
X020036Y020519D03*
X020036Y020500D03*
X020036Y020471D03*
X020036Y020452D03*
X020036Y020442D03*
X020036Y020423D03*
X020036Y020394D03*
X020036Y020384D03*
X020036Y020365D03*
X020036Y020356D03*
X020036Y020336D03*
X020036Y020317D03*
X020036Y020308D03*
X020036Y020288D03*
X020036Y020260D03*
X020036Y020240D03*
X020036Y020231D03*
X020036Y020202D03*
X020036Y020192D03*
X020036Y020173D03*
X020036Y020154D03*
X020036Y020135D03*
X020036Y020125D03*
X020036Y020106D03*
X020036Y020087D03*
X020036Y020077D03*
X020036Y020058D03*
X020036Y020048D03*
X020036Y020029D03*
X020036Y020010D03*
X020036Y020000D03*
X020036Y019981D03*
X020036Y019952D03*
X020036Y019933D03*
X020036Y019923D03*
X020036Y019895D03*
X020036Y019799D03*
X020036Y019779D03*
X020036Y019770D03*
X020036Y019750D03*
X020036Y019722D03*
X020036Y019712D03*
X020036Y019693D03*
X020036Y019664D03*
X020036Y019654D03*
X020036Y019635D03*
X020036Y019616D03*
X020036Y019597D03*
X020036Y019568D03*
X020036Y019558D03*
X020036Y019539D03*
X020036Y019510D03*
X020036Y019501D03*
X020036Y019481D03*
X020036Y019453D03*
X020036Y019443D03*
X020036Y019424D03*
X020036Y019395D03*
X020036Y019376D03*
X020036Y019366D03*
X020036Y019347D03*
X020036Y019318D03*
X020036Y019309D03*
X020036Y019289D03*
X020036Y019280D03*
X020036Y019261D03*
X020036Y019241D03*
X020036Y019232D03*
X020036Y019213D03*
X020036Y018454D03*
X020036Y018444D03*
X020036Y018415D03*
X020036Y018396D03*
X020036Y018386D03*
X020036Y018358D03*
X020036Y018348D03*
X020036Y018329D03*
X020036Y018310D03*
X020036Y018290D03*
X020036Y018281D03*
X020036Y018261D03*
X020036Y018242D03*
X020036Y018233D03*
X020036Y018213D03*
X020036Y018204D03*
X020036Y018185D03*
X020036Y018165D03*
X020036Y018156D03*
X020036Y018137D03*
X020036Y018108D03*
X020036Y018089D03*
X020036Y018079D03*
X020036Y018050D03*
X020036Y018041D03*
X020036Y018021D03*
X020036Y018002D03*
X020036Y017983D03*
X020036Y017973D03*
X020036Y017954D03*
X020036Y017935D03*
X020036Y017916D03*
X020036Y017906D03*
X020036Y017887D03*
X020036Y017858D03*
X020036Y017839D03*
X020036Y017829D03*
X020036Y017810D03*
X020036Y017781D03*
X020036Y017772D03*
X020036Y017752D03*
X020036Y017743D03*
X020036Y017724D03*
X020036Y017704D03*
X020036Y017695D03*
X020036Y017676D03*
X020036Y017647D03*
X020036Y017627D03*
X020036Y017618D03*
X020036Y017589D03*
X020036Y017579D03*
X020036Y017560D03*
X020036Y017541D03*
X020036Y017522D03*
X020036Y017512D03*
X020036Y017493D03*
X020036Y017474D03*
X020036Y017455D03*
X020036Y017445D03*
X020036Y017426D03*
X020036Y017397D03*
X020036Y017378D03*
X020036Y017368D03*
X020036Y017349D03*
X020036Y017320D03*
X020036Y017301D03*
X020036Y017291D03*
X020036Y017272D03*
X020036Y017243D03*
X020036Y017224D03*
X020036Y017214D03*
X020036Y017195D03*
X020036Y017166D03*
X020036Y017157D03*
X020036Y017138D03*
X020036Y017128D03*
X020036Y017109D03*
X020036Y017090D03*
X020036Y017080D03*
X019190Y017080D03*
X019190Y017090D03*
X019190Y017099D03*
X019190Y017109D03*
X019190Y017118D03*
X019190Y017128D03*
X019190Y017138D03*
X019190Y017147D03*
X019190Y017157D03*
X019190Y017166D03*
X019190Y017176D03*
X019190Y017186D03*
X019190Y017195D03*
X019190Y017205D03*
X019190Y017214D03*
X019190Y017224D03*
X019190Y017234D03*
X019190Y017243D03*
X019190Y017253D03*
X019190Y017262D03*
X019190Y017272D03*
X019190Y017282D03*
X019190Y017291D03*
X019190Y017301D03*
X019190Y017310D03*
X019190Y017320D03*
X019190Y017330D03*
X019190Y017339D03*
X019190Y017349D03*
X019190Y017359D03*
X019190Y017368D03*
X019190Y017378D03*
X019190Y017387D03*
X019190Y017397D03*
X019190Y017407D03*
X019190Y017416D03*
X019190Y017426D03*
X019190Y017435D03*
X019190Y017445D03*
X019190Y017455D03*
X019190Y017464D03*
X019190Y017474D03*
X019190Y017483D03*
X019190Y017493D03*
X019190Y017503D03*
X019190Y017512D03*
X019190Y017522D03*
X019190Y017531D03*
X019190Y017541D03*
X019190Y017551D03*
X019190Y017560D03*
X019190Y017570D03*
X019190Y017579D03*
X019190Y017589D03*
X019190Y017599D03*
X019190Y017608D03*
X019190Y017618D03*
X019190Y017627D03*
X019190Y017637D03*
X019190Y017647D03*
X019190Y017656D03*
X019190Y017666D03*
X019190Y017676D03*
X019190Y017685D03*
X019190Y017695D03*
X019190Y017704D03*
X019190Y017714D03*
X019190Y017724D03*
X019190Y017733D03*
X019190Y017743D03*
X019190Y017752D03*
X019190Y017762D03*
X019190Y017772D03*
X019190Y017781D03*
X019190Y017791D03*
X019190Y017800D03*
X019190Y017810D03*
X019190Y017820D03*
X019190Y017829D03*
X019190Y017839D03*
X019190Y017848D03*
X019190Y017858D03*
X019190Y017868D03*
X019190Y017877D03*
X019190Y017887D03*
X019190Y017896D03*
X019190Y017906D03*
X019190Y017916D03*
X019190Y017925D03*
X019190Y017935D03*
X019190Y017944D03*
X019190Y017954D03*
X019190Y017964D03*
X019190Y017973D03*
X019190Y017983D03*
X019190Y017993D03*
X019190Y018002D03*
X019190Y018012D03*
X019190Y018021D03*
X019190Y018031D03*
X019190Y018041D03*
X019190Y018050D03*
X019190Y018060D03*
X019190Y018069D03*
X019190Y018079D03*
X019190Y018089D03*
X019190Y018098D03*
X019190Y018108D03*
X019190Y018117D03*
X019190Y018127D03*
X019190Y018137D03*
X019190Y018146D03*
X019190Y018156D03*
X019190Y018165D03*
X019190Y018175D03*
X019190Y018185D03*
X019190Y018194D03*
X019190Y018204D03*
X019190Y018213D03*
X019190Y018223D03*
X019190Y018233D03*
X019190Y018242D03*
X019190Y018252D03*
X019190Y018261D03*
X019190Y018271D03*
X019190Y018281D03*
X019190Y018290D03*
X019190Y018300D03*
X019190Y018310D03*
X019190Y018319D03*
X019190Y018329D03*
X019190Y018338D03*
X019190Y018348D03*
X019190Y018358D03*
X019190Y018367D03*
X019190Y018377D03*
X019190Y018386D03*
X019190Y018396D03*
X019190Y018406D03*
X019190Y018415D03*
X019190Y018425D03*
X019190Y018434D03*
X019190Y018444D03*
X019190Y018454D03*
X019190Y018463D03*
X019190Y018473D03*
X019190Y018482D03*
X019190Y018492D03*
X019190Y018502D03*
X019190Y018511D03*
X019190Y018521D03*
X019190Y018530D03*
X019190Y018540D03*
X019190Y018550D03*
X019190Y018559D03*
X019190Y018569D03*
X019190Y018579D03*
X019190Y018588D03*
X019190Y018598D03*
X019190Y018607D03*
X019190Y018617D03*
X019190Y018627D03*
X019190Y018636D03*
X019190Y018646D03*
X019190Y018655D03*
X019190Y018665D03*
X019190Y018675D03*
X019190Y018684D03*
X019190Y018694D03*
X019190Y018703D03*
X019190Y018713D03*
X019190Y018723D03*
X019190Y018732D03*
X019190Y018742D03*
X019190Y018751D03*
X019190Y018761D03*
X019190Y018771D03*
X019190Y018780D03*
X019190Y018790D03*
X019190Y018799D03*
X019190Y018809D03*
X019190Y018819D03*
X019190Y018828D03*
X019190Y018838D03*
X019190Y018847D03*
X019190Y018857D03*
X019190Y018867D03*
X019190Y018876D03*
X019190Y018886D03*
X019190Y018896D03*
X019190Y018905D03*
X019190Y018915D03*
X019190Y018924D03*
X019190Y018934D03*
X019190Y018944D03*
X019190Y018953D03*
X019190Y018963D03*
X019190Y018972D03*
X019190Y018982D03*
X019190Y018992D03*
X019190Y019001D03*
X019190Y019011D03*
X019190Y019020D03*
X019190Y019030D03*
X019190Y019040D03*
X019190Y019049D03*
X019190Y019059D03*
X019190Y019068D03*
X019190Y019078D03*
X019190Y019088D03*
X019190Y019097D03*
X019190Y019107D03*
X019190Y019116D03*
X019190Y019126D03*
X019190Y019136D03*
X019190Y019145D03*
X019190Y019155D03*
X019190Y019164D03*
X019190Y019174D03*
X019190Y019184D03*
X019190Y019193D03*
X019190Y019203D03*
X019190Y019213D03*
X019190Y019222D03*
X019190Y019232D03*
X019190Y019241D03*
X019190Y019251D03*
X019190Y019261D03*
X019190Y019270D03*
X019190Y019280D03*
X019190Y019289D03*
X019190Y019299D03*
X019190Y019309D03*
X019190Y019318D03*
X019190Y019328D03*
X019190Y019337D03*
X019190Y019347D03*
X019190Y019357D03*
X019190Y019366D03*
X019190Y019376D03*
X019190Y019385D03*
X019190Y019395D03*
X019190Y019405D03*
X019190Y019414D03*
X019190Y019424D03*
X019190Y019433D03*
X019190Y019443D03*
X019190Y019453D03*
X019190Y019462D03*
X019190Y019472D03*
X019190Y019481D03*
X019190Y019491D03*
X019190Y019501D03*
X019190Y019510D03*
X019190Y019520D03*
X019190Y019530D03*
X019190Y019539D03*
X019190Y019549D03*
X019190Y019558D03*
X019190Y019568D03*
X019190Y019578D03*
X019190Y019587D03*
X019190Y019597D03*
X019190Y019606D03*
X019190Y019616D03*
X019190Y019626D03*
X019190Y019635D03*
X019190Y019645D03*
X019190Y019654D03*
X019190Y019664D03*
X019190Y019674D03*
X019190Y019683D03*
X019190Y019693D03*
X019190Y019702D03*
X019190Y019712D03*
X019190Y019722D03*
X019190Y019731D03*
X019190Y019741D03*
X019190Y019750D03*
X019190Y019760D03*
X019190Y019770D03*
X019190Y019779D03*
X019190Y019789D03*
X019190Y019799D03*
X019190Y019808D03*
X019190Y019818D03*
X019190Y019827D03*
X019190Y019837D03*
X019190Y019847D03*
X019190Y019856D03*
X019190Y019866D03*
X019190Y019875D03*
X019190Y019885D03*
X019190Y019895D03*
X019190Y019904D03*
X019190Y019914D03*
X019190Y019923D03*
X019190Y019933D03*
X019190Y019943D03*
X019190Y019952D03*
X019190Y019962D03*
X019190Y019971D03*
X019190Y019981D03*
X019190Y019991D03*
X019190Y020000D03*
X019190Y020010D03*
X019190Y020019D03*
X019190Y020029D03*
X019190Y020135D03*
X019190Y020144D03*
X019190Y020154D03*
X019190Y020164D03*
X019190Y020173D03*
X019190Y020183D03*
X019190Y020192D03*
X019190Y020202D03*
X019190Y020212D03*
X019190Y020221D03*
X019190Y020231D03*
X019190Y020240D03*
X019190Y020250D03*
X019190Y020260D03*
X019190Y020269D03*
X019190Y020279D03*
X019190Y020288D03*
X019190Y020298D03*
X019190Y020308D03*
X019190Y020317D03*
X019190Y020327D03*
X019190Y020336D03*
X019190Y020346D03*
X019190Y020356D03*
X019190Y020365D03*
X019190Y020375D03*
X019190Y020384D03*
X019190Y020394D03*
X019190Y020404D03*
X019190Y020413D03*
X019190Y020423D03*
X019190Y020433D03*
X019190Y020442D03*
X019190Y020452D03*
X019190Y020461D03*
X019190Y020471D03*
X019190Y020481D03*
X019190Y020490D03*
X019190Y020500D03*
X019190Y020509D03*
X019190Y020519D03*
X018028Y019337D03*
X018067Y019232D03*
X018124Y019078D03*
X018172Y018944D03*
X018239Y018761D03*
X018259Y018703D03*
X018345Y018473D03*
X018384Y018367D03*
X018489Y018079D03*
X018547Y017925D03*
X018595Y017791D03*
X018662Y017608D03*
X018797Y017243D03*
X017942Y017099D03*
X017932Y017128D03*
X017913Y017195D03*
X017903Y017224D03*
X017894Y017253D03*
X017874Y017320D03*
X017865Y017349D03*
X017855Y017378D03*
X017836Y017435D03*
X017836Y017445D03*
X017826Y017474D03*
X017817Y017503D03*
X017798Y017560D03*
X017788Y017599D03*
X017778Y017627D03*
X017529Y018434D03*
X017509Y018492D03*
X017490Y018559D03*
X017481Y018588D03*
X017471Y018617D03*
X017461Y018655D03*
X017452Y018684D03*
X017442Y018713D03*
X017433Y018742D03*
X017413Y018809D03*
X017404Y018838D03*
X017394Y018867D03*
X017384Y018905D03*
X017327Y019088D03*
X017317Y019116D03*
X017288Y019213D03*
X017279Y019241D03*
X017260Y019309D03*
X017250Y019337D03*
X017240Y019366D03*
X017231Y019395D03*
X017125Y019414D03*
X017116Y019385D03*
X017096Y019318D03*
X017087Y019289D03*
X017077Y019261D03*
X017058Y019203D03*
X017058Y019193D03*
X017048Y019164D03*
X017039Y019136D03*
X017029Y019107D03*
X017010Y019049D03*
X017000Y019011D03*
X016991Y018982D03*
X016962Y018886D03*
X016952Y018857D03*
X016943Y018828D03*
X016923Y018761D03*
X016914Y018732D03*
X016904Y018703D03*
X016885Y018646D03*
X016866Y018579D03*
X016856Y018550D03*
X016837Y018492D03*
X016837Y018482D03*
X016818Y018425D03*
X016808Y018396D03*
X016578Y017647D03*
X016568Y017618D03*
X016558Y017589D03*
X016520Y017464D03*
X016501Y017407D03*
X016481Y017339D03*
X016472Y017310D03*
X016462Y017282D03*
X016443Y017224D03*
X016424Y017157D03*
X016414Y017128D03*
X016405Y017099D03*
X015617Y017435D03*
X015588Y017359D03*
X015646Y017512D03*
X015675Y017589D03*
X015713Y017695D03*
X015742Y017772D03*
X015751Y017800D03*
X015780Y017877D03*
X015847Y018060D03*
X015876Y018137D03*
X015944Y018319D03*
X016040Y018579D03*
X016078Y018684D03*
X016136Y018838D03*
X016203Y019020D03*
X016232Y019097D03*
X016241Y019126D03*
X016280Y019232D03*
X016366Y019462D03*
X016405Y019568D03*
X016433Y019645D03*
X016530Y019904D03*
X016558Y019981D03*
X016578Y020039D03*
X016597Y020087D03*
X016626Y020164D03*
X016693Y020346D03*
X016722Y020423D03*
X016731Y020452D03*
X017173Y019597D03*
X017173Y019587D03*
X017855Y019808D03*
X017798Y019971D03*
X017721Y020173D03*
X017644Y020384D03*
X017605Y020490D03*
X017922Y019626D03*
X015300Y016407D03*
X015300Y016379D03*
X015300Y016359D03*
X015300Y016350D03*
X015300Y016331D03*
X015300Y016311D03*
X015300Y016292D03*
X015300Y016263D03*
X015098Y016254D03*
X015098Y016273D03*
X015098Y016283D03*
X015098Y016311D03*
X015098Y016331D03*
X015098Y016340D03*
X015098Y016369D03*
X015098Y016388D03*
X015098Y016407D03*
X014791Y016379D03*
X014791Y016369D03*
X014791Y016359D03*
X014781Y016407D03*
X014868Y016158D03*
X014868Y016148D03*
X014868Y016139D03*
X014868Y016119D03*
X014868Y016110D03*
X014868Y016090D03*
X014868Y016081D03*
X014868Y016062D03*
X015098Y015966D03*
X015098Y015937D03*
X015098Y015927D03*
X015098Y015908D03*
X015098Y015879D03*
X015098Y015870D03*
X015098Y015850D03*
X015098Y015821D03*
X015098Y015812D03*
X015300Y015802D03*
X015300Y015831D03*
X015300Y015850D03*
X015300Y015870D03*
X015300Y015889D03*
X015300Y015898D03*
X015300Y015918D03*
X015300Y015946D03*
X015300Y015966D03*
X015300Y015975D03*
X015530Y016062D03*
X015530Y016081D03*
X015530Y016090D03*
X015530Y016100D03*
X015530Y016119D03*
X015530Y016129D03*
X015530Y016139D03*
X015530Y016158D03*
X014772Y015764D03*
X014772Y015754D03*
X014772Y015706D03*
X014109Y015725D03*
X014099Y015735D03*
X014109Y015754D03*
X014099Y015764D03*
X014099Y015706D03*
X013974Y015889D03*
X013974Y015898D03*
X013984Y015927D03*
X013984Y015946D03*
X013984Y015956D03*
X013993Y015985D03*
X013993Y016004D03*
X013993Y016014D03*
X013993Y016033D03*
X013993Y016042D03*
X013993Y016052D03*
X013993Y016062D03*
X013993Y016071D03*
X013993Y016090D03*
X013993Y016100D03*
X013993Y016119D03*
X013993Y016139D03*
X013993Y016148D03*
X013993Y016158D03*
X013993Y016167D03*
X013993Y016187D03*
X013993Y016196D03*
X013993Y016206D03*
X013993Y016215D03*
X013993Y016225D03*
X013993Y016244D03*
X013993Y016263D03*
X013993Y016273D03*
X013993Y016283D03*
X013984Y016340D03*
X013984Y016350D03*
X013974Y016388D03*
X014128Y016388D03*
X014128Y016379D03*
X014128Y016369D03*
X014128Y016359D03*
X014128Y016350D03*
X014128Y016331D03*
X014138Y016292D03*
X014138Y016283D03*
X014147Y016254D03*
X014128Y016398D03*
X014138Y016427D03*
X014138Y016436D03*
X014359Y016379D03*
X014349Y016340D03*
X014359Y016302D03*
X013773Y016292D03*
X013773Y016263D03*
X013773Y016244D03*
X013773Y016225D03*
X013773Y016206D03*
X013773Y016196D03*
X013773Y016187D03*
X013773Y016167D03*
X013773Y016148D03*
X013773Y016129D03*
X013773Y016119D03*
X013773Y016110D03*
X013773Y016090D03*
X013773Y016081D03*
X013773Y016062D03*
X013773Y016033D03*
X013773Y016023D03*
X013773Y015994D03*
X013763Y015966D03*
X013763Y015937D03*
X013763Y015927D03*
X013753Y015898D03*
X013561Y015898D03*
X013552Y015927D03*
X013552Y015937D03*
X013552Y015946D03*
X013542Y015994D03*
X013542Y016014D03*
X013542Y016033D03*
X013542Y016052D03*
X013542Y016071D03*
X013542Y016090D03*
X013542Y016110D03*
X013542Y016139D03*
X013542Y016148D03*
X013542Y016167D03*
X013542Y016196D03*
X013542Y016206D03*
X013542Y016225D03*
X013542Y016244D03*
X013542Y016263D03*
X013542Y016283D03*
X013552Y016302D03*
X013552Y016331D03*
X013552Y016340D03*
X013552Y016350D03*
X013561Y016379D03*
X013763Y016359D03*
X013763Y016350D03*
X013763Y016340D03*
X013350Y016417D03*
X013331Y016340D03*
X013331Y016321D03*
X013331Y016311D03*
X013321Y016263D03*
X013321Y016244D03*
X013321Y016235D03*
X013321Y016215D03*
X013321Y016206D03*
X013321Y016187D03*
X013321Y016177D03*
X013321Y016167D03*
X013321Y016158D03*
X013321Y016129D03*
X013321Y016119D03*
X013321Y016110D03*
X013321Y016100D03*
X013321Y016071D03*
X013321Y016062D03*
X013321Y016052D03*
X013321Y016042D03*
X013321Y016014D03*
X013321Y015994D03*
X013331Y015966D03*
X013331Y015946D03*
X013331Y015937D03*
X013340Y015898D03*
X012937Y015889D03*
X012937Y015908D03*
X012937Y015918D03*
X012937Y015927D03*
X012937Y015937D03*
X012937Y015946D03*
X012937Y015966D03*
X012937Y015975D03*
X012937Y015994D03*
X012937Y016004D03*
X012937Y016023D03*
X012937Y016033D03*
X012937Y016042D03*
X012937Y016052D03*
X012937Y016062D03*
X012937Y016081D03*
X012937Y016090D03*
X012937Y016100D03*
X012937Y016119D03*
X012937Y016129D03*
X012937Y016148D03*
X012937Y016158D03*
X012937Y016177D03*
X012937Y016187D03*
X012937Y016196D03*
X012937Y016206D03*
X012937Y016215D03*
X012937Y016235D03*
X012937Y016254D03*
X012937Y016273D03*
X012937Y016292D03*
X012937Y016302D03*
X012937Y016311D03*
X012716Y016292D03*
X012716Y016254D03*
X012716Y016235D03*
X012716Y016215D03*
X012716Y016187D03*
X012716Y016177D03*
X012716Y016158D03*
X012716Y016129D03*
X012716Y016119D03*
X012716Y016100D03*
X012716Y016081D03*
X012716Y016062D03*
X012716Y016033D03*
X012716Y016023D03*
X012716Y016004D03*
X012716Y015975D03*
X012716Y015966D03*
X012716Y015946D03*
X012716Y015908D03*
X012716Y015870D03*
X012716Y015850D03*
X012716Y015831D03*
X012716Y015802D03*
X012716Y015793D03*
X012716Y015773D03*
X012716Y015745D03*
X012716Y015735D03*
X012716Y015716D03*
X012937Y015716D03*
X012937Y015706D03*
X012937Y015735D03*
X012937Y015745D03*
X012937Y015764D03*
X012937Y015773D03*
X012937Y015793D03*
X012937Y015802D03*
X012937Y015812D03*
X012937Y015821D03*
X012937Y015831D03*
X012937Y015850D03*
X012937Y015870D03*
X012716Y016331D03*
X012716Y016350D03*
X012716Y016359D03*
X012716Y016388D03*
X012716Y016407D03*
X012716Y016417D03*
X012716Y016446D03*
X012716Y016465D03*
X012716Y016484D03*
X012716Y016523D03*
X012716Y016561D03*
X012447Y016561D03*
X012447Y016552D03*
X012447Y016542D03*
X012447Y016523D03*
X012447Y016504D03*
X013158Y016436D03*
X013158Y016417D03*
X013158Y016398D03*
X013158Y016388D03*
X013158Y016369D03*
X011755Y016504D03*
X011755Y016523D03*
X011755Y016532D03*
X011755Y016561D03*
X011755Y016580D03*
D33*
X013470Y015706D03*
X013845Y015706D03*
X013662Y016484D03*
X014229Y016571D03*
X017178Y019481D03*
X017380Y019020D03*
X017380Y019011D03*
X017380Y019001D03*
X017514Y018386D03*
X017207Y018386D03*
X017745Y020019D03*
X017745Y020029D03*
X019224Y020106D03*
X021328Y019462D03*
X021328Y018463D03*
X023047Y018809D03*
X023057Y018819D03*
X023076Y018828D03*
X023624Y018290D03*
X024344Y017733D03*
X024882Y017243D03*
X024892Y017253D03*
X024911Y017262D03*
X024921Y017272D03*
X024949Y017291D03*
X025257Y017695D03*
X025257Y017704D03*
X025266Y017724D03*
X025276Y017752D03*
X025286Y017772D03*
X025286Y017781D03*
X025286Y017791D03*
X025295Y017800D03*
X025295Y017810D03*
X025295Y017820D03*
X025305Y017839D03*
X025305Y017848D03*
X025305Y017858D03*
X025314Y017868D03*
X025314Y017877D03*
X025314Y017887D03*
X025314Y017896D03*
X025324Y017906D03*
X025324Y017916D03*
X025334Y017954D03*
X024786Y018809D03*
X024796Y018819D03*
X024815Y018828D03*
X024825Y018838D03*
X024258Y019357D03*
X024248Y019347D03*
X024277Y019875D03*
X024267Y019885D03*
X023624Y019885D03*
X023057Y020384D03*
X024882Y020346D03*
X024911Y020327D03*
X022961Y017234D03*
X022971Y017224D03*
X022990Y017214D03*
D34*
X022721Y017483D03*
X022692Y017531D03*
X022682Y017551D03*
X022673Y017570D03*
X022673Y017579D03*
X022663Y017589D03*
X022663Y017599D03*
X022654Y017618D03*
X022644Y017627D03*
X022644Y017637D03*
X022644Y017647D03*
X022634Y017666D03*
X022634Y017676D03*
X022634Y017685D03*
X022625Y017695D03*
X022625Y017704D03*
X022625Y017714D03*
X022615Y017733D03*
X022615Y017743D03*
X022615Y017752D03*
X022606Y017781D03*
X022606Y017791D03*
X022606Y017810D03*
X022596Y017839D03*
X022596Y017858D03*
X022596Y017877D03*
X022596Y017906D03*
X022596Y018050D03*
X022596Y018079D03*
X022596Y018098D03*
X022596Y018108D03*
X022606Y018137D03*
X022606Y018146D03*
X022606Y018156D03*
X022606Y018165D03*
X022615Y018194D03*
X022615Y018204D03*
X022615Y018223D03*
X022625Y018233D03*
X022625Y018242D03*
X022625Y018252D03*
X022634Y018271D03*
X022634Y018281D03*
X022644Y018290D03*
X022644Y018300D03*
X022644Y018310D03*
X022654Y018329D03*
X022654Y018338D03*
X022663Y018348D03*
X022663Y018358D03*
X022663Y018367D03*
X022673Y018377D03*
X022682Y018396D03*
X022682Y018406D03*
X022692Y018415D03*
X022702Y018434D03*
X022711Y018454D03*
X022721Y018473D03*
X022144Y018463D03*
X022144Y018425D03*
X022144Y018386D03*
X022144Y018348D03*
X022144Y018310D03*
X022144Y018271D03*
X022144Y018233D03*
X022144Y018194D03*
X022144Y018156D03*
X022144Y018117D03*
X022144Y018079D03*
X022144Y018041D03*
X022144Y018002D03*
X022144Y017964D03*
X022144Y017916D03*
X022144Y017868D03*
X022144Y017839D03*
X022144Y017800D03*
X022144Y017752D03*
X022144Y017724D03*
X022144Y017685D03*
X022144Y017637D03*
X022144Y017608D03*
X022144Y017570D03*
X022144Y017522D03*
X022144Y017493D03*
X022144Y017455D03*
X022144Y017407D03*
X022144Y017378D03*
X022144Y017339D03*
X022144Y017291D03*
X022144Y017262D03*
X022144Y017224D03*
X022144Y017176D03*
X022144Y017147D03*
X022144Y017109D03*
X021299Y017118D03*
X021299Y017128D03*
X021289Y017090D03*
X021299Y017070D03*
X021299Y017234D03*
X021289Y017243D03*
X021299Y017272D03*
X021299Y017282D03*
X021299Y017349D03*
X021299Y017387D03*
X021299Y017397D03*
X021289Y017426D03*
X021299Y017464D03*
X021299Y017503D03*
X021299Y017512D03*
X021289Y017541D03*
X021299Y017579D03*
X021299Y017618D03*
X021289Y017627D03*
X021299Y017656D03*
X021299Y017695D03*
X021299Y017704D03*
X021289Y017733D03*
X021299Y017772D03*
X021299Y017810D03*
X021299Y017820D03*
X021289Y017848D03*
X021299Y017887D03*
X021299Y017925D03*
X021299Y018002D03*
X021289Y018012D03*
X021299Y018041D03*
X021299Y018050D03*
X021299Y018156D03*
X021289Y018165D03*
X021299Y018194D03*
X021299Y018204D03*
X021299Y018261D03*
X021299Y018281D03*
X021299Y018290D03*
X021299Y018300D03*
X021376Y018550D03*
X021386Y018559D03*
X021386Y018569D03*
X021386Y018579D03*
X021395Y018598D03*
X021395Y018607D03*
X021395Y018617D03*
X021405Y018627D03*
X021405Y018636D03*
X021405Y018646D03*
X021414Y018655D03*
X021414Y018665D03*
X021414Y018675D03*
X021424Y018694D03*
X021424Y018703D03*
X021434Y018723D03*
X021434Y018732D03*
X021434Y018742D03*
X021443Y018751D03*
X021443Y018761D03*
X021443Y018771D03*
X021453Y018780D03*
X021453Y018790D03*
X021453Y018799D03*
X021462Y018819D03*
X021462Y018828D03*
X021472Y018847D03*
X021472Y018857D03*
X021472Y018867D03*
X021482Y018876D03*
X021482Y018886D03*
X021482Y018896D03*
X021491Y018905D03*
X021491Y018915D03*
X021491Y018924D03*
X021501Y018944D03*
X021501Y018953D03*
X021501Y018963D03*
X021510Y018972D03*
X021510Y018982D03*
X021510Y018992D03*
X021520Y019001D03*
X021520Y019011D03*
X021520Y019020D03*
X021530Y019040D03*
X021530Y019049D03*
X021539Y019068D03*
X021539Y019078D03*
X021539Y019088D03*
X021549Y019097D03*
X021549Y019107D03*
X021549Y019116D03*
X021558Y019126D03*
X021558Y019136D03*
X021558Y019145D03*
X021568Y019164D03*
X021568Y019174D03*
X021568Y019184D03*
X021578Y019193D03*
X021578Y019203D03*
X021578Y019213D03*
X021587Y019222D03*
X021587Y019232D03*
X021587Y019241D03*
X021597Y019251D03*
X021597Y019261D03*
X021597Y019270D03*
X021606Y019289D03*
X021645Y019414D03*
X021645Y019424D03*
X021645Y019433D03*
X021654Y019443D03*
X021654Y019453D03*
X021654Y019462D03*
X021664Y019472D03*
X021664Y019481D03*
X021664Y019491D03*
X021674Y019510D03*
X021674Y019520D03*
X021683Y019539D03*
X021683Y019549D03*
X021683Y019558D03*
X021693Y019568D03*
X021693Y019578D03*
X021693Y019587D03*
X021703Y019597D03*
X021703Y019606D03*
X021703Y019616D03*
X021712Y019635D03*
X021712Y019645D03*
X021722Y019664D03*
X021722Y019674D03*
X021722Y019683D03*
X021731Y019693D03*
X021731Y019702D03*
X021731Y019712D03*
X021741Y019731D03*
X021741Y019741D03*
X021751Y019760D03*
X021751Y019770D03*
X021751Y019779D03*
X021760Y019789D03*
X021760Y019799D03*
X021760Y019808D03*
X021770Y019818D03*
X021770Y019827D03*
X021770Y019837D03*
X021779Y019856D03*
X021779Y019866D03*
X021789Y019885D03*
X021789Y019895D03*
X021789Y019904D03*
X021799Y019914D03*
X021799Y019923D03*
X021799Y019933D03*
X021808Y019943D03*
X021808Y019952D03*
X021808Y019962D03*
X021818Y019981D03*
X021818Y019991D03*
X021827Y020010D03*
X021827Y020019D03*
X021827Y020029D03*
X021837Y020039D03*
X021837Y020048D03*
X021837Y020058D03*
X021847Y020077D03*
X021847Y020087D03*
X021856Y020106D03*
X021856Y020116D03*
X021856Y020125D03*
X021866Y020135D03*
X021866Y020144D03*
X021866Y020154D03*
X021875Y020164D03*
X021875Y020173D03*
X021875Y020183D03*
X021885Y020202D03*
X021885Y020212D03*
X021885Y020221D03*
X021895Y020231D03*
X021895Y020240D03*
X021895Y020250D03*
X021904Y020260D03*
X021904Y020269D03*
X021904Y020279D03*
X021914Y020288D03*
X021914Y020298D03*
X021914Y020308D03*
X021914Y020317D03*
X021923Y020327D03*
X021923Y020336D03*
X021933Y020356D03*
X021933Y020365D03*
X021933Y020375D03*
X021943Y020384D03*
X021943Y020394D03*
X021943Y020404D03*
X021952Y020423D03*
X021952Y020433D03*
X021962Y020452D03*
X021962Y020461D03*
X021971Y020481D03*
X021971Y020490D03*
X021971Y020500D03*
X021981Y020509D03*
X021981Y020519D03*
X022144Y020519D03*
X022144Y020529D03*
X022144Y020490D03*
X022144Y020452D03*
X022144Y020404D03*
X022144Y020375D03*
X022144Y020336D03*
X022144Y020288D03*
X022144Y020260D03*
X022144Y020221D03*
X022144Y020173D03*
X022144Y020144D03*
X022144Y020106D03*
X022144Y020058D03*
X022144Y020029D03*
X022144Y019991D03*
X022144Y019943D03*
X022144Y019914D03*
X022144Y019875D03*
X022144Y019827D03*
X022144Y019799D03*
X022144Y019760D03*
X022144Y019712D03*
X022144Y019683D03*
X022144Y019645D03*
X022144Y019597D03*
X022144Y019568D03*
X022144Y019530D03*
X022144Y019481D03*
X022144Y019453D03*
X022144Y019414D03*
X022144Y019366D03*
X022144Y019337D03*
X022144Y019299D03*
X022144Y019261D03*
X022144Y019155D03*
X022144Y019116D03*
X022144Y019078D03*
X022144Y019040D03*
X022144Y019001D03*
X022144Y018963D03*
X022144Y018924D03*
X022144Y018886D03*
X022144Y018847D03*
X022144Y018809D03*
X022144Y018771D03*
X022144Y018732D03*
X022144Y018694D03*
X022144Y018655D03*
X022144Y018617D03*
X022144Y018579D03*
X022144Y018540D03*
X022144Y018502D03*
X021299Y019232D03*
X021299Y019241D03*
X021289Y019280D03*
X021299Y019309D03*
X021299Y019347D03*
X021299Y019357D03*
X021289Y019385D03*
X021299Y019481D03*
X021299Y019539D03*
X021299Y019549D03*
X021289Y019578D03*
X021299Y019616D03*
X021299Y019654D03*
X021299Y019664D03*
X021289Y019693D03*
X021299Y019731D03*
X021299Y019770D03*
X021299Y019847D03*
X021289Y019856D03*
X021299Y019885D03*
X021299Y019895D03*
X021299Y020000D03*
X021289Y020010D03*
X021299Y020039D03*
X021299Y020048D03*
X021299Y020116D03*
X021299Y020154D03*
X021299Y020192D03*
X021299Y020269D03*
X021299Y020308D03*
X021299Y020317D03*
X021289Y020346D03*
X021299Y020384D03*
X021299Y020423D03*
X021299Y020433D03*
X021289Y020461D03*
X021299Y020500D03*
X020041Y020509D03*
X020041Y020490D03*
X020041Y020481D03*
X020041Y020461D03*
X020041Y020433D03*
X020041Y020413D03*
X020041Y020404D03*
X020041Y020375D03*
X020041Y020346D03*
X020041Y020327D03*
X020041Y020298D03*
X020041Y020279D03*
X020041Y020269D03*
X020041Y020250D03*
X020041Y020221D03*
X020041Y020212D03*
X020041Y020183D03*
X020041Y020164D03*
X020041Y020144D03*
X020041Y020116D03*
X020041Y020096D03*
X020041Y020067D03*
X020041Y020039D03*
X020041Y020019D03*
X020041Y019991D03*
X020041Y019971D03*
X020041Y019962D03*
X020041Y019943D03*
X020041Y019914D03*
X020041Y019904D03*
X020041Y019789D03*
X020041Y019760D03*
X020041Y019741D03*
X020041Y019731D03*
X020041Y019702D03*
X020041Y019683D03*
X020041Y019674D03*
X020041Y019645D03*
X020041Y019626D03*
X020041Y019606D03*
X020041Y019587D03*
X020041Y019578D03*
X020041Y019549D03*
X020041Y019530D03*
X020041Y019520D03*
X020041Y019491D03*
X020041Y019472D03*
X020041Y019462D03*
X020041Y019433D03*
X020041Y019414D03*
X020041Y019405D03*
X020041Y019385D03*
X020041Y019357D03*
X020041Y019337D03*
X020041Y019328D03*
X020041Y019299D03*
X020041Y019270D03*
X020041Y019251D03*
X020041Y019222D03*
X020041Y018463D03*
X020041Y018434D03*
X020041Y018425D03*
X020041Y018406D03*
X020041Y018377D03*
X020041Y018367D03*
X020041Y018338D03*
X020041Y018319D03*
X020041Y018300D03*
X020041Y018271D03*
X020041Y018252D03*
X020041Y018223D03*
X020041Y018194D03*
X020041Y018175D03*
X020041Y018146D03*
X020041Y018127D03*
X020041Y018117D03*
X020041Y018098D03*
X020041Y018069D03*
X020041Y018060D03*
X020041Y018031D03*
X020041Y018012D03*
X020041Y017993D03*
X020041Y017964D03*
X020041Y017944D03*
X020041Y017925D03*
X020041Y017896D03*
X020041Y017877D03*
X020041Y017868D03*
X020041Y017848D03*
X020041Y017820D03*
X020041Y017800D03*
X020041Y017791D03*
X020041Y017762D03*
X020041Y017733D03*
X020041Y017714D03*
X020041Y017685D03*
X020041Y017666D03*
X020041Y017656D03*
X020041Y017637D03*
X020041Y017608D03*
X020041Y017599D03*
X020041Y017570D03*
X020041Y017551D03*
X020041Y017531D03*
X020041Y017503D03*
X020041Y017483D03*
X020041Y017464D03*
X020041Y017435D03*
X020041Y017416D03*
X020041Y017407D03*
X020041Y017387D03*
X020041Y017359D03*
X020041Y017339D03*
X020041Y017330D03*
X020041Y017310D03*
X020041Y017282D03*
X020041Y017262D03*
X020041Y017253D03*
X020041Y017234D03*
X020041Y017205D03*
X020041Y017186D03*
X020041Y017176D03*
X020041Y017147D03*
X020041Y017118D03*
X020041Y017099D03*
X020041Y017070D03*
X018859Y017080D03*
X018849Y017090D03*
X018849Y017099D03*
X018849Y017109D03*
X018840Y017118D03*
X018840Y017128D03*
X018830Y017138D03*
X018830Y017147D03*
X018830Y017157D03*
X018821Y017166D03*
X018821Y017176D03*
X018821Y017186D03*
X018811Y017195D03*
X018811Y017205D03*
X018811Y017214D03*
X018801Y017224D03*
X018801Y017234D03*
X018792Y017253D03*
X018792Y017262D03*
X018782Y017272D03*
X018782Y017282D03*
X018782Y017291D03*
X018773Y017301D03*
X018773Y017310D03*
X018773Y017320D03*
X018763Y017330D03*
X018763Y017339D03*
X018753Y017349D03*
X018753Y017359D03*
X018753Y017368D03*
X018744Y017378D03*
X018744Y017387D03*
X018744Y017397D03*
X018734Y017407D03*
X018734Y017416D03*
X018725Y017426D03*
X018725Y017435D03*
X018725Y017445D03*
X018715Y017455D03*
X018715Y017464D03*
X018715Y017474D03*
X018705Y017483D03*
X018705Y017493D03*
X018705Y017503D03*
X018696Y017512D03*
X018696Y017522D03*
X018686Y017531D03*
X018686Y017541D03*
X018686Y017551D03*
X018677Y017560D03*
X018677Y017570D03*
X018677Y017579D03*
X018667Y017589D03*
X018667Y017599D03*
X018657Y017618D03*
X018657Y017627D03*
X018648Y017637D03*
X018648Y017647D03*
X018648Y017656D03*
X018638Y017666D03*
X018638Y017676D03*
X018638Y017685D03*
X018629Y017695D03*
X018629Y017704D03*
X018619Y017714D03*
X018619Y017724D03*
X018619Y017733D03*
X018609Y017743D03*
X018609Y017752D03*
X018609Y017762D03*
X018600Y017772D03*
X018600Y017781D03*
X018590Y017800D03*
X018590Y017810D03*
X018580Y017820D03*
X018580Y017829D03*
X018580Y017839D03*
X018571Y017848D03*
X018571Y017858D03*
X018571Y017868D03*
X018561Y017877D03*
X018561Y017887D03*
X018552Y017906D03*
X018552Y017916D03*
X018542Y017935D03*
X018542Y017944D03*
X018532Y017954D03*
X018532Y017964D03*
X018532Y017973D03*
X018523Y017983D03*
X018523Y017993D03*
X018513Y018002D03*
X018513Y018012D03*
X018513Y018021D03*
X018504Y018031D03*
X018504Y018041D03*
X018504Y018050D03*
X018494Y018060D03*
X018494Y018069D03*
X018484Y018089D03*
X018484Y018098D03*
X018475Y018108D03*
X018475Y018117D03*
X018475Y018127D03*
X018465Y018137D03*
X018465Y018146D03*
X018465Y018156D03*
X018456Y018165D03*
X018456Y018175D03*
X018456Y018185D03*
X018446Y018194D03*
X018446Y018204D03*
X018436Y018213D03*
X018436Y018223D03*
X018436Y018233D03*
X018427Y018242D03*
X018427Y018252D03*
X018427Y018261D03*
X018417Y018271D03*
X018417Y018281D03*
X018408Y018290D03*
X018408Y018300D03*
X018408Y018310D03*
X018398Y018319D03*
X018398Y018329D03*
X018398Y018338D03*
X018388Y018348D03*
X018388Y018358D03*
X018379Y018377D03*
X018379Y018386D03*
X018379Y018396D03*
X018369Y018406D03*
X018369Y018415D03*
X018360Y018425D03*
X018360Y018434D03*
X018350Y018454D03*
X018350Y018463D03*
X018340Y018482D03*
X018340Y018492D03*
X018331Y018502D03*
X018331Y018511D03*
X018331Y018521D03*
X018321Y018530D03*
X018321Y018540D03*
X018321Y018550D03*
X018311Y018559D03*
X018311Y018569D03*
X018302Y018579D03*
X018302Y018588D03*
X018302Y018598D03*
X018292Y018607D03*
X018292Y018617D03*
X018292Y018627D03*
X018283Y018636D03*
X018283Y018646D03*
X018283Y018655D03*
X018273Y018665D03*
X018273Y018675D03*
X018263Y018684D03*
X018263Y018694D03*
X018254Y018713D03*
X018254Y018723D03*
X018254Y018732D03*
X018244Y018742D03*
X018244Y018751D03*
X018235Y018771D03*
X018235Y018780D03*
X018225Y018790D03*
X018225Y018799D03*
X018225Y018809D03*
X018215Y018819D03*
X018215Y018828D03*
X018206Y018847D03*
X018206Y018857D03*
X018196Y018867D03*
X018196Y018876D03*
X018196Y018886D03*
X018187Y018896D03*
X018187Y018905D03*
X018187Y018915D03*
X018177Y018924D03*
X018177Y018934D03*
X018167Y018953D03*
X018167Y018963D03*
X018158Y018972D03*
X018158Y018982D03*
X018158Y018992D03*
X018148Y019011D03*
X018148Y019020D03*
X018139Y019030D03*
X018139Y019040D03*
X018129Y019059D03*
X018129Y019068D03*
X018119Y019088D03*
X018119Y019097D03*
X018110Y019107D03*
X018110Y019116D03*
X018100Y019126D03*
X018100Y019136D03*
X018100Y019145D03*
X018100Y019155D03*
X018091Y019164D03*
X018091Y019174D03*
X018081Y019184D03*
X018081Y019193D03*
X018081Y019203D03*
X018071Y019213D03*
X018071Y019222D03*
X018062Y019241D03*
X018062Y019251D03*
X018052Y019261D03*
X018052Y019270D03*
X018052Y019280D03*
X018043Y019289D03*
X018043Y019299D03*
X018043Y019309D03*
X018033Y019318D03*
X018033Y019328D03*
X018023Y019347D03*
X018023Y019357D03*
X018014Y019366D03*
X018014Y019376D03*
X018014Y019385D03*
X018004Y019395D03*
X018004Y019405D03*
X018004Y019414D03*
X017994Y019424D03*
X017994Y019433D03*
X017985Y019443D03*
X017985Y019453D03*
X017985Y019462D03*
X017975Y019472D03*
X017975Y019481D03*
X017975Y019491D03*
X017966Y019501D03*
X017966Y019510D03*
X017966Y019520D03*
X017956Y019530D03*
X017956Y019539D03*
X017946Y019549D03*
X017946Y019558D03*
X017946Y019568D03*
X017937Y019578D03*
X017937Y019587D03*
X017937Y019597D03*
X017927Y019606D03*
X017927Y019616D03*
X017918Y019635D03*
X017918Y019645D03*
X017908Y019654D03*
X017908Y019664D03*
X017908Y019674D03*
X017898Y019683D03*
X017898Y019693D03*
X017898Y019702D03*
X017889Y019712D03*
X017889Y019722D03*
X017879Y019731D03*
X017879Y019741D03*
X017879Y019750D03*
X017870Y019760D03*
X017870Y019770D03*
X017870Y019779D03*
X017860Y019789D03*
X017860Y019799D03*
X017850Y019818D03*
X017850Y019827D03*
X017841Y019837D03*
X017841Y019847D03*
X017841Y019856D03*
X017831Y019866D03*
X017831Y019875D03*
X017831Y019885D03*
X017822Y019895D03*
X017822Y019904D03*
X017812Y019914D03*
X017812Y019923D03*
X017812Y019933D03*
X017802Y019943D03*
X017802Y019952D03*
X017802Y019962D03*
X017697Y019962D03*
X017697Y019952D03*
X017687Y019933D03*
X017687Y019923D03*
X017687Y019914D03*
X017677Y019904D03*
X017677Y019895D03*
X017677Y019885D03*
X017668Y019875D03*
X017668Y019866D03*
X017668Y019856D03*
X017658Y019837D03*
X017658Y019827D03*
X017658Y019818D03*
X017649Y019808D03*
X017649Y019799D03*
X017649Y019789D03*
X017639Y019779D03*
X017639Y019770D03*
X017639Y019760D03*
X017629Y019750D03*
X017629Y019741D03*
X017629Y019731D03*
X017620Y019712D03*
X017620Y019702D03*
X017620Y019693D03*
X017610Y019683D03*
X017610Y019674D03*
X017610Y019664D03*
X017601Y019654D03*
X017601Y019645D03*
X017601Y019635D03*
X017591Y019616D03*
X017591Y019606D03*
X017581Y019587D03*
X017581Y019578D03*
X017581Y019568D03*
X017572Y019558D03*
X017572Y019549D03*
X017572Y019539D03*
X017562Y019530D03*
X017562Y019520D03*
X017562Y019510D03*
X017553Y019491D03*
X017553Y019481D03*
X017553Y019472D03*
X017543Y019462D03*
X017543Y019453D03*
X017543Y019443D03*
X017533Y019433D03*
X017533Y019424D03*
X017533Y019414D03*
X017524Y019395D03*
X017524Y019385D03*
X017514Y019366D03*
X017514Y019357D03*
X017514Y019347D03*
X017505Y019337D03*
X017505Y019328D03*
X017505Y019318D03*
X017495Y019309D03*
X017495Y019299D03*
X017495Y019289D03*
X017485Y019270D03*
X017485Y019261D03*
X017476Y019241D03*
X017476Y019232D03*
X017476Y019222D03*
X017466Y019213D03*
X017466Y019203D03*
X017466Y019193D03*
X017457Y019184D03*
X017457Y019174D03*
X017457Y019164D03*
X017447Y019145D03*
X017447Y019136D03*
X017437Y019116D03*
X017437Y019107D03*
X017437Y019097D03*
X017428Y019088D03*
X017428Y019078D03*
X017428Y019068D03*
X017332Y019068D03*
X017332Y019078D03*
X017322Y019097D03*
X017322Y019107D03*
X017312Y019126D03*
X017312Y019136D03*
X017312Y019145D03*
X017303Y019155D03*
X017303Y019164D03*
X017303Y019174D03*
X017293Y019184D03*
X017293Y019193D03*
X017293Y019203D03*
X017284Y019222D03*
X017284Y019232D03*
X017274Y019251D03*
X017274Y019261D03*
X017274Y019270D03*
X017264Y019280D03*
X017264Y019289D03*
X017264Y019299D03*
X017255Y019318D03*
X017255Y019328D03*
X017245Y019347D03*
X017245Y019357D03*
X017236Y019376D03*
X017236Y019385D03*
X017226Y019405D03*
X017226Y019414D03*
X017226Y019424D03*
X017130Y019424D03*
X017120Y019405D03*
X017120Y019395D03*
X017111Y019376D03*
X017111Y019366D03*
X017111Y019357D03*
X017101Y019347D03*
X017101Y019337D03*
X017101Y019328D03*
X017091Y019309D03*
X017091Y019299D03*
X017082Y019280D03*
X017082Y019270D03*
X017072Y019251D03*
X017072Y019241D03*
X017072Y019232D03*
X017063Y019222D03*
X017063Y019213D03*
X017053Y019184D03*
X017053Y019174D03*
X017043Y019155D03*
X017043Y019145D03*
X017034Y019126D03*
X017034Y019116D03*
X017024Y019097D03*
X017024Y019088D03*
X017024Y019078D03*
X017015Y019068D03*
X017015Y019059D03*
X017005Y019040D03*
X017005Y019030D03*
X017005Y019020D03*
X016995Y019001D03*
X016995Y018992D03*
X016986Y018972D03*
X016986Y018963D03*
X016986Y018953D03*
X016976Y018944D03*
X016976Y018934D03*
X016976Y018924D03*
X016967Y018915D03*
X016967Y018905D03*
X016967Y018896D03*
X016957Y018876D03*
X016957Y018867D03*
X016947Y018847D03*
X016947Y018838D03*
X016938Y018819D03*
X016938Y018809D03*
X016938Y018799D03*
X016928Y018790D03*
X016928Y018780D03*
X016928Y018771D03*
X016919Y018751D03*
X016919Y018742D03*
X016909Y018723D03*
X016909Y018713D03*
X016899Y018694D03*
X016899Y018684D03*
X016899Y018675D03*
X016890Y018665D03*
X016890Y018655D03*
X016880Y018636D03*
X016880Y018627D03*
X016880Y018617D03*
X016871Y018607D03*
X016871Y018598D03*
X016871Y018588D03*
X016861Y018569D03*
X016861Y018559D03*
X016851Y018540D03*
X016851Y018530D03*
X016851Y018521D03*
X016842Y018511D03*
X016842Y018502D03*
X016832Y018473D03*
X016832Y018463D03*
X016823Y018454D03*
X016823Y018444D03*
X016823Y018434D03*
X016813Y018415D03*
X016813Y018406D03*
X017178Y018271D03*
X017178Y018261D03*
X017178Y018252D03*
X017168Y018242D03*
X017168Y018233D03*
X017168Y018223D03*
X017159Y018204D03*
X017159Y018194D03*
X017159Y018185D03*
X017149Y018175D03*
X017149Y018165D03*
X017149Y018156D03*
X017140Y018146D03*
X017140Y018137D03*
X017140Y018127D03*
X017130Y018108D03*
X017130Y018098D03*
X017130Y018089D03*
X017120Y018079D03*
X017120Y018069D03*
X017120Y018060D03*
X017111Y018050D03*
X017111Y018041D03*
X017111Y018031D03*
X017101Y018012D03*
X017101Y018002D03*
X017091Y017983D03*
X017091Y017973D03*
X017091Y017964D03*
X017082Y017954D03*
X017082Y017944D03*
X017082Y017935D03*
X017072Y017925D03*
X017072Y017916D03*
X017072Y017906D03*
X017063Y017887D03*
X017063Y017877D03*
X017053Y017858D03*
X017053Y017848D03*
X017053Y017839D03*
X017043Y017829D03*
X017043Y017820D03*
X017043Y017810D03*
X017034Y017800D03*
X017034Y017791D03*
X017034Y017781D03*
X017024Y017762D03*
X017024Y017752D03*
X017015Y017733D03*
X016573Y017637D03*
X016573Y017627D03*
X016563Y017608D03*
X016563Y017599D03*
X016554Y017579D03*
X016554Y017570D03*
X016554Y017560D03*
X016544Y017551D03*
X016544Y017541D03*
X016544Y017531D03*
X016534Y017522D03*
X016534Y017512D03*
X016534Y017503D03*
X016525Y017493D03*
X016525Y017483D03*
X016525Y017474D03*
X016515Y017455D03*
X016515Y017445D03*
X016506Y017435D03*
X016506Y017426D03*
X016506Y017416D03*
X016496Y017397D03*
X016496Y017387D03*
X016496Y017378D03*
X016486Y017368D03*
X016486Y017359D03*
X016486Y017349D03*
X016477Y017330D03*
X016477Y017320D03*
X016467Y017301D03*
X016467Y017291D03*
X016457Y017272D03*
X016457Y017262D03*
X016457Y017253D03*
X016448Y017243D03*
X016448Y017234D03*
X016438Y017214D03*
X016438Y017205D03*
X016438Y017195D03*
X016429Y017186D03*
X016429Y017176D03*
X016429Y017166D03*
X016419Y017147D03*
X016419Y017138D03*
X016409Y017118D03*
X016409Y017109D03*
X016400Y017090D03*
X016400Y017080D03*
X015603Y017387D03*
X015603Y017397D03*
X015612Y017416D03*
X015612Y017426D03*
X015622Y017445D03*
X015622Y017455D03*
X015631Y017464D03*
X015631Y017474D03*
X015631Y017483D03*
X015641Y017493D03*
X015641Y017503D03*
X015651Y017522D03*
X015651Y017531D03*
X015660Y017541D03*
X015660Y017551D03*
X015660Y017560D03*
X015670Y017570D03*
X015670Y017579D03*
X015679Y017599D03*
X015679Y017608D03*
X015689Y017627D03*
X015689Y017637D03*
X015699Y017647D03*
X015699Y017656D03*
X015699Y017666D03*
X015708Y017676D03*
X015708Y017685D03*
X015718Y017704D03*
X015718Y017714D03*
X015727Y017724D03*
X015727Y017733D03*
X015727Y017743D03*
X015737Y017752D03*
X015737Y017762D03*
X015747Y017781D03*
X015747Y017791D03*
X015756Y017810D03*
X015756Y017820D03*
X015766Y017829D03*
X015766Y017839D03*
X015775Y017858D03*
X015775Y017868D03*
X015785Y017887D03*
X015785Y017896D03*
X015795Y017906D03*
X015795Y017916D03*
X015795Y017925D03*
X015804Y017935D03*
X015804Y017944D03*
X015804Y017954D03*
X015814Y017964D03*
X015814Y017973D03*
X015823Y017983D03*
X015823Y017993D03*
X015823Y018002D03*
X015833Y018012D03*
X015833Y018021D03*
X015843Y018041D03*
X015843Y018050D03*
X015852Y018069D03*
X015852Y018079D03*
X015862Y018089D03*
X015862Y018098D03*
X015862Y018108D03*
X015871Y018117D03*
X015871Y018127D03*
X015881Y018146D03*
X015881Y018156D03*
X015891Y018165D03*
X015891Y018175D03*
X015891Y018185D03*
X015900Y018194D03*
X015900Y018204D03*
X015900Y018213D03*
X015910Y018223D03*
X015910Y018233D03*
X015920Y018242D03*
X015920Y018252D03*
X015920Y018261D03*
X015929Y018271D03*
X015929Y018281D03*
X015929Y018290D03*
X015939Y018300D03*
X015939Y018310D03*
X015948Y018329D03*
X015948Y018338D03*
X015958Y018348D03*
X015958Y018358D03*
X015958Y018367D03*
X015968Y018377D03*
X015968Y018386D03*
X015968Y018396D03*
X015977Y018406D03*
X015977Y018415D03*
X015987Y018425D03*
X015987Y018434D03*
X015987Y018444D03*
X015996Y018454D03*
X015996Y018463D03*
X015996Y018473D03*
X016006Y018482D03*
X016006Y018492D03*
X016016Y018502D03*
X016016Y018511D03*
X016016Y018521D03*
X016025Y018530D03*
X016025Y018540D03*
X016025Y018550D03*
X016035Y018559D03*
X016035Y018569D03*
X016044Y018588D03*
X016044Y018598D03*
X016054Y018607D03*
X016054Y018617D03*
X016054Y018627D03*
X016064Y018636D03*
X016064Y018646D03*
X016064Y018655D03*
X016073Y018665D03*
X016073Y018675D03*
X016083Y018694D03*
X016083Y018703D03*
X016092Y018713D03*
X016092Y018723D03*
X016092Y018732D03*
X016102Y018742D03*
X016102Y018751D03*
X016102Y018761D03*
X016112Y018771D03*
X016112Y018780D03*
X016121Y018790D03*
X016121Y018799D03*
X016121Y018809D03*
X016131Y018819D03*
X016131Y018828D03*
X016140Y018847D03*
X016140Y018857D03*
X016150Y018867D03*
X016150Y018876D03*
X016150Y018886D03*
X016160Y018896D03*
X016160Y018905D03*
X016160Y018915D03*
X016169Y018924D03*
X016169Y018934D03*
X016179Y018944D03*
X016179Y018953D03*
X016179Y018963D03*
X016189Y018972D03*
X016189Y018982D03*
X016189Y018992D03*
X016198Y019001D03*
X016198Y019011D03*
X016208Y019030D03*
X016208Y019040D03*
X016217Y019059D03*
X016217Y019068D03*
X016227Y019078D03*
X016227Y019088D03*
X016237Y019107D03*
X016237Y019116D03*
X016246Y019136D03*
X016246Y019145D03*
X016256Y019155D03*
X016256Y019164D03*
X016256Y019174D03*
X016265Y019184D03*
X016265Y019193D03*
X016275Y019213D03*
X016275Y019222D03*
X016285Y019241D03*
X016285Y019251D03*
X016294Y019261D03*
X016294Y019270D03*
X016294Y019280D03*
X016304Y019289D03*
X016304Y019299D03*
X016313Y019309D03*
X016313Y019318D03*
X016313Y019328D03*
X016323Y019337D03*
X016323Y019347D03*
X016323Y019357D03*
X016333Y019366D03*
X016333Y019376D03*
X016342Y019385D03*
X016342Y019395D03*
X016342Y019405D03*
X016352Y019414D03*
X016352Y019424D03*
X016352Y019433D03*
X016361Y019443D03*
X016361Y019453D03*
X016371Y019472D03*
X016371Y019481D03*
X016381Y019491D03*
X016381Y019501D03*
X016381Y019510D03*
X016390Y019520D03*
X016390Y019530D03*
X016390Y019539D03*
X016400Y019549D03*
X016400Y019558D03*
X016409Y019578D03*
X016409Y019587D03*
X016419Y019597D03*
X016419Y019606D03*
X016419Y019616D03*
X016429Y019626D03*
X016429Y019635D03*
X016438Y019654D03*
X016438Y019664D03*
X016448Y019674D03*
X016448Y019683D03*
X016448Y019693D03*
X016457Y019702D03*
X016457Y019712D03*
X016457Y019722D03*
X016467Y019731D03*
X016467Y019741D03*
X016477Y019750D03*
X016477Y019760D03*
X016477Y019770D03*
X016486Y019779D03*
X016486Y019789D03*
X016486Y019799D03*
X016496Y019808D03*
X016496Y019818D03*
X016506Y019827D03*
X016506Y019837D03*
X016506Y019847D03*
X016515Y019856D03*
X016515Y019866D03*
X016515Y019875D03*
X016525Y019885D03*
X016525Y019895D03*
X016534Y019914D03*
X016534Y019923D03*
X016544Y019933D03*
X016544Y019943D03*
X016544Y019952D03*
X016554Y019962D03*
X016554Y019971D03*
X016563Y019991D03*
X016563Y020000D03*
X016573Y020010D03*
X016573Y020019D03*
X016573Y020029D03*
X016582Y020048D03*
X016582Y020058D03*
X016592Y020067D03*
X016592Y020077D03*
X016602Y020096D03*
X016602Y020106D03*
X016611Y020116D03*
X016611Y020125D03*
X016611Y020135D03*
X016621Y020144D03*
X016621Y020154D03*
X016630Y020173D03*
X016630Y020183D03*
X016630Y020192D03*
X016640Y020202D03*
X016640Y020212D03*
X016650Y020221D03*
X016650Y020231D03*
X016650Y020240D03*
X016659Y020250D03*
X016659Y020260D03*
X016669Y020269D03*
X016669Y020279D03*
X016669Y020288D03*
X016678Y020298D03*
X016678Y020308D03*
X016678Y020317D03*
X016688Y020327D03*
X016688Y020336D03*
X016698Y020356D03*
X016698Y020365D03*
X016707Y020375D03*
X016707Y020384D03*
X016707Y020394D03*
X016717Y020404D03*
X016717Y020413D03*
X016726Y020433D03*
X016726Y020442D03*
X016736Y020461D03*
X016736Y020471D03*
X016746Y020481D03*
X016746Y020490D03*
X016755Y020509D03*
X016755Y020519D03*
X016765Y020529D03*
X017591Y020529D03*
X017591Y020519D03*
X017601Y020509D03*
X017601Y020500D03*
X017610Y020481D03*
X017610Y020471D03*
X017620Y020461D03*
X017620Y020452D03*
X017620Y020442D03*
X017629Y020433D03*
X017629Y020423D03*
X017629Y020413D03*
X017639Y020404D03*
X017639Y020394D03*
X017649Y020375D03*
X017649Y020365D03*
X017658Y020356D03*
X017658Y020346D03*
X017658Y020336D03*
X017668Y020327D03*
X017668Y020317D03*
X017668Y020308D03*
X017677Y020298D03*
X017677Y020288D03*
X017687Y020279D03*
X017687Y020269D03*
X017687Y020260D03*
X017697Y020250D03*
X017697Y020240D03*
X017706Y020231D03*
X017706Y020221D03*
X017706Y020212D03*
X017706Y020202D03*
X017716Y020192D03*
X017716Y020183D03*
X017726Y020164D03*
X017726Y020154D03*
X017735Y020144D03*
X017735Y020135D03*
X017735Y020125D03*
X017745Y020116D03*
X017745Y020106D03*
X017178Y019578D03*
X017178Y019568D03*
X017380Y018924D03*
X017380Y018915D03*
X017389Y018896D03*
X017389Y018886D03*
X017389Y018876D03*
X017399Y018857D03*
X017399Y018847D03*
X017409Y018828D03*
X017409Y018819D03*
X017418Y018799D03*
X017418Y018790D03*
X017418Y018780D03*
X017428Y018771D03*
X017428Y018761D03*
X017428Y018751D03*
X017437Y018732D03*
X017437Y018723D03*
X017447Y018703D03*
X017447Y018694D03*
X017457Y018675D03*
X017457Y018665D03*
X017466Y018646D03*
X017466Y018636D03*
X017466Y018627D03*
X017476Y018607D03*
X017476Y018598D03*
X017485Y018579D03*
X017485Y018569D03*
X017495Y018550D03*
X017495Y018540D03*
X017495Y018530D03*
X017505Y018521D03*
X017505Y018511D03*
X017505Y018502D03*
X017514Y018482D03*
X017514Y018473D03*
X017524Y018463D03*
X017524Y018454D03*
X017524Y018444D03*
X017533Y018425D03*
X017533Y018415D03*
X017533Y018406D03*
X017543Y018396D03*
X017188Y018300D03*
X017188Y018290D03*
X017188Y018281D03*
X017774Y017647D03*
X017774Y017637D03*
X017783Y017618D03*
X017783Y017608D03*
X017793Y017589D03*
X017793Y017579D03*
X017793Y017570D03*
X017802Y017551D03*
X017802Y017541D03*
X017812Y017531D03*
X017812Y017522D03*
X017812Y017512D03*
X017822Y017493D03*
X017822Y017483D03*
X017831Y017464D03*
X017831Y017455D03*
X017841Y017426D03*
X017841Y017416D03*
X017850Y017407D03*
X017850Y017397D03*
X017850Y017387D03*
X017860Y017368D03*
X017860Y017359D03*
X017870Y017339D03*
X017870Y017330D03*
X017879Y017310D03*
X017879Y017301D03*
X017879Y017291D03*
X017889Y017282D03*
X017889Y017272D03*
X017889Y017262D03*
X017898Y017243D03*
X017898Y017234D03*
X017908Y017214D03*
X017908Y017205D03*
X017918Y017186D03*
X017918Y017176D03*
X017918Y017166D03*
X017927Y017157D03*
X017927Y017147D03*
X017927Y017138D03*
X017937Y017118D03*
X017937Y017109D03*
X017946Y017090D03*
X017946Y017080D03*
X017956Y017070D03*
X015593Y017368D03*
X015593Y017378D03*
X015583Y017349D03*
X015583Y017339D03*
X015574Y017330D03*
X015574Y017320D03*
X015574Y017310D03*
X015564Y017301D03*
X015564Y017291D03*
X015564Y017282D03*
X015554Y017272D03*
X015554Y017262D03*
X015545Y017243D03*
X015545Y017234D03*
X015535Y017224D03*
X015535Y017214D03*
X015535Y017205D03*
X015526Y017195D03*
X015526Y017186D03*
X015526Y017176D03*
X015516Y017166D03*
X015516Y017157D03*
X015506Y017138D03*
X015305Y016398D03*
X015305Y016388D03*
X015305Y016369D03*
X015305Y016340D03*
X015305Y016321D03*
X015305Y016302D03*
X015305Y016283D03*
X015305Y016273D03*
X015305Y016254D03*
X015093Y016263D03*
X015093Y016292D03*
X015093Y016302D03*
X015093Y016321D03*
X015093Y016350D03*
X015093Y016359D03*
X015093Y016379D03*
X015093Y016398D03*
X015093Y016417D03*
X014786Y016398D03*
X014786Y016388D03*
X014776Y016417D03*
X014776Y016427D03*
X014767Y016446D03*
X014757Y016465D03*
X014748Y016484D03*
X014565Y016379D03*
X014565Y016369D03*
X014565Y016359D03*
X014555Y016388D03*
X014363Y016398D03*
X014363Y016407D03*
X014354Y016388D03*
X014354Y016369D03*
X014354Y016359D03*
X014354Y016350D03*
X014354Y016331D03*
X014354Y016321D03*
X014354Y016311D03*
X014363Y016292D03*
X014363Y016283D03*
X014373Y016273D03*
X014373Y016263D03*
X014383Y016244D03*
X014171Y016206D03*
X014162Y016225D03*
X014152Y016235D03*
X014152Y016244D03*
X014142Y016263D03*
X014142Y016273D03*
X014133Y016302D03*
X014133Y016311D03*
X014133Y016321D03*
X014133Y016340D03*
X014133Y016407D03*
X014133Y016417D03*
X014142Y016446D03*
X014142Y016456D03*
X014142Y016465D03*
X014152Y016475D03*
X014152Y016484D03*
X013969Y016417D03*
X013969Y016407D03*
X013969Y016398D03*
X013979Y016379D03*
X013979Y016369D03*
X013979Y016359D03*
X013989Y016331D03*
X013989Y016321D03*
X013989Y016311D03*
X013989Y016302D03*
X013989Y016292D03*
X013989Y016254D03*
X013989Y016235D03*
X013998Y016177D03*
X013989Y016129D03*
X013998Y016110D03*
X013989Y016023D03*
X013989Y015994D03*
X013989Y015975D03*
X013989Y015966D03*
X013989Y015937D03*
X013979Y015918D03*
X013979Y015908D03*
X013969Y015879D03*
X013969Y015870D03*
X013960Y015860D03*
X013960Y015850D03*
X013960Y015841D03*
X013950Y015831D03*
X013941Y015812D03*
X013931Y015793D03*
X014104Y015793D03*
X014104Y015783D03*
X014104Y015773D03*
X014104Y015745D03*
X014104Y015716D03*
X013749Y015889D03*
X013758Y015908D03*
X013758Y015918D03*
X013768Y015946D03*
X013768Y015956D03*
X013768Y015975D03*
X013768Y015985D03*
X013768Y016004D03*
X013768Y016014D03*
X013768Y016042D03*
X013768Y016052D03*
X013768Y016071D03*
X013768Y016100D03*
X013768Y016139D03*
X013768Y016158D03*
X013768Y016177D03*
X013768Y016215D03*
X013768Y016235D03*
X013768Y016254D03*
X013768Y016273D03*
X013768Y016283D03*
X013768Y016302D03*
X013768Y016311D03*
X013768Y016321D03*
X013768Y016331D03*
X013758Y016369D03*
X013758Y016379D03*
X013749Y016388D03*
X013749Y016398D03*
X013566Y016398D03*
X013566Y016388D03*
X013556Y016369D03*
X013556Y016359D03*
X013547Y016321D03*
X013547Y016311D03*
X013547Y016292D03*
X013547Y016273D03*
X013547Y016254D03*
X013547Y016235D03*
X013547Y016215D03*
X013547Y016187D03*
X013547Y016177D03*
X013547Y016158D03*
X013547Y016129D03*
X013547Y016119D03*
X013547Y016100D03*
X013547Y016081D03*
X013547Y016062D03*
X013547Y016042D03*
X013547Y016023D03*
X013547Y016004D03*
X013547Y015985D03*
X013547Y015975D03*
X013547Y015966D03*
X013547Y015956D03*
X013556Y015918D03*
X013556Y015908D03*
X013566Y015889D03*
X013566Y015879D03*
X013576Y015870D03*
X013383Y015793D03*
X013374Y015812D03*
X013364Y015831D03*
X013355Y015850D03*
X013355Y015860D03*
X013345Y015870D03*
X013345Y015879D03*
X013345Y015889D03*
X013335Y015908D03*
X013335Y015918D03*
X013335Y015927D03*
X013326Y015956D03*
X013326Y015975D03*
X013326Y015985D03*
X013326Y016004D03*
X013326Y016023D03*
X013326Y016033D03*
X013326Y016081D03*
X013326Y016090D03*
X013326Y016139D03*
X013326Y016148D03*
X013326Y016196D03*
X013326Y016225D03*
X013326Y016254D03*
X013326Y016273D03*
X013326Y016283D03*
X013326Y016292D03*
X013326Y016302D03*
X013326Y016331D03*
X013335Y016350D03*
X013335Y016359D03*
X013335Y016369D03*
X013335Y016379D03*
X013345Y016388D03*
X013345Y016398D03*
X013345Y016407D03*
X013355Y016427D03*
X013355Y016436D03*
X013364Y016446D03*
X013364Y016456D03*
X013374Y016475D03*
X013153Y016446D03*
X013153Y016427D03*
X013153Y016407D03*
X013153Y016379D03*
X012942Y016398D03*
X012932Y016283D03*
X012932Y016263D03*
X012932Y016244D03*
X012932Y016225D03*
X012932Y016167D03*
X012932Y016139D03*
X012932Y016110D03*
X012932Y016071D03*
X012932Y016014D03*
X012932Y015985D03*
X012932Y015956D03*
X012932Y015898D03*
X012932Y015879D03*
X012932Y015860D03*
X012932Y015841D03*
X012932Y015783D03*
X012932Y015754D03*
X012932Y015725D03*
X012711Y015725D03*
X012711Y015706D03*
X012711Y015754D03*
X012711Y015764D03*
X012711Y015783D03*
X012711Y015812D03*
X012711Y015821D03*
X012711Y015841D03*
X012711Y015860D03*
X012711Y015879D03*
X012711Y015889D03*
X012711Y015898D03*
X012711Y015918D03*
X012711Y015927D03*
X012711Y015937D03*
X012711Y015956D03*
X012711Y015985D03*
X012711Y015994D03*
X012711Y016014D03*
X012711Y016042D03*
X012711Y016052D03*
X012711Y016071D03*
X012711Y016090D03*
X012711Y016110D03*
X012711Y016139D03*
X012711Y016148D03*
X012711Y016167D03*
X012711Y016196D03*
X012711Y016206D03*
X012711Y016225D03*
X012711Y016244D03*
X012711Y016263D03*
X012711Y016273D03*
X012711Y016283D03*
X012711Y016302D03*
X012711Y016311D03*
X012711Y016321D03*
X012711Y016340D03*
X012711Y016369D03*
X012711Y016379D03*
X012711Y016398D03*
X012711Y016427D03*
X012711Y016436D03*
X012711Y016456D03*
X012711Y016475D03*
X012711Y016494D03*
X012711Y016504D03*
X012711Y016513D03*
X012711Y016532D03*
X012711Y016542D03*
X012711Y016552D03*
X012711Y016571D03*
X012711Y016657D03*
X012442Y016580D03*
X012442Y016571D03*
X012442Y016532D03*
X012442Y016513D03*
X012442Y016494D03*
X012058Y016302D03*
X012058Y016292D03*
X012067Y016273D03*
X012077Y016254D03*
X012077Y016244D03*
X012087Y016235D03*
X012087Y016225D03*
X012096Y016215D03*
X012096Y016206D03*
X012106Y016196D03*
X012106Y016187D03*
X012115Y016167D03*
X012125Y016148D03*
X012125Y016139D03*
X012135Y016129D03*
X012135Y016119D03*
X012144Y016110D03*
X012144Y016100D03*
X012154Y016090D03*
X012154Y016081D03*
X012163Y016071D03*
X012163Y016062D03*
X012173Y016042D03*
X012183Y016023D03*
X012183Y016014D03*
X012192Y016004D03*
X012192Y015994D03*
X012202Y015985D03*
X012202Y015975D03*
X012211Y015966D03*
X012211Y015956D03*
X012221Y015937D03*
X012231Y015918D03*
X012231Y015908D03*
X012240Y015898D03*
X012240Y015889D03*
X012250Y015879D03*
X012250Y015870D03*
X012260Y015850D03*
X012269Y015831D03*
X012269Y015821D03*
X012279Y015812D03*
X012288Y015793D03*
X012288Y015783D03*
X012298Y015773D03*
X012298Y015764D03*
X012308Y015745D03*
X012317Y015725D03*
X012327Y015706D03*
X012087Y015716D03*
X012087Y015725D03*
X012077Y015735D03*
X012077Y015745D03*
X012067Y015754D03*
X012067Y015764D03*
X012058Y015783D03*
X012058Y015793D03*
X012048Y015812D03*
X012039Y015821D03*
X012039Y015831D03*
X012039Y015841D03*
X012029Y015850D03*
X012029Y015860D03*
X012019Y015870D03*
X012019Y015879D03*
X012010Y015889D03*
X012010Y015898D03*
X012000Y015918D03*
X012000Y015927D03*
X011991Y015937D03*
X011991Y015946D03*
X011981Y015966D03*
X011981Y015975D03*
X011971Y015985D03*
X011971Y015994D03*
X011962Y016004D03*
X011962Y016014D03*
X011952Y016033D03*
X011952Y016042D03*
X011943Y016052D03*
X011943Y016062D03*
X011933Y016071D03*
X011933Y016081D03*
X011923Y016100D03*
X011923Y016110D03*
X011914Y016119D03*
X011914Y016129D03*
X011904Y016139D03*
X011904Y016148D03*
X011894Y016167D03*
X011894Y016177D03*
X011885Y016187D03*
X011885Y016196D03*
X011875Y016206D03*
X011875Y016215D03*
X011866Y016235D03*
X011866Y016244D03*
X011856Y016254D03*
X011856Y016263D03*
X011846Y016283D03*
X011837Y016292D03*
X011837Y016302D03*
X011837Y016311D03*
X011827Y016321D03*
X011827Y016331D03*
X011818Y016350D03*
X011818Y016359D03*
X011808Y016369D03*
X011808Y016379D03*
X011798Y016388D03*
X011798Y016398D03*
X011789Y016407D03*
X011789Y016417D03*
X011779Y016436D03*
X011779Y016446D03*
X011770Y016456D03*
X011770Y016465D03*
X011760Y016475D03*
X011760Y016484D03*
X011750Y016513D03*
X011750Y016542D03*
X011750Y016552D03*
X011750Y016571D03*
X012010Y016398D03*
X012019Y016379D03*
X012029Y016359D03*
X012029Y016350D03*
X012039Y016340D03*
X012048Y016321D03*
X012048Y016311D03*
X013941Y016475D03*
X013950Y016465D03*
X013950Y016456D03*
X013960Y016436D03*
X013960Y016427D03*
X014767Y015802D03*
X014776Y015793D03*
X014776Y015783D03*
X014776Y015773D03*
X014776Y015745D03*
X014776Y015735D03*
X014776Y015725D03*
X014776Y015716D03*
X015093Y015802D03*
X015093Y015831D03*
X015093Y015841D03*
X015093Y015860D03*
X015093Y015889D03*
X015093Y015898D03*
X015093Y015918D03*
X015093Y015946D03*
X015093Y015956D03*
X015093Y015975D03*
X015305Y015956D03*
X015305Y015937D03*
X015305Y015927D03*
X015305Y015908D03*
X015305Y015879D03*
X015305Y015860D03*
X015305Y015841D03*
X015305Y015821D03*
X015305Y015812D03*
X015526Y016071D03*
X015526Y016110D03*
X015526Y016148D03*
X014872Y016129D03*
X014872Y016100D03*
X014872Y016071D03*
X019195Y020125D03*
X019195Y020529D03*
X022606Y019722D03*
X022606Y019702D03*
X022606Y019693D03*
X022596Y019654D03*
X022596Y019645D03*
X022596Y019635D03*
X022596Y019626D03*
X022596Y019616D03*
X022596Y019587D03*
X022615Y019750D03*
X022615Y019760D03*
X022625Y019779D03*
X022625Y019799D03*
X022634Y019827D03*
X022634Y019837D03*
X022644Y019856D03*
X022644Y019866D03*
X022654Y019885D03*
X022654Y019895D03*
X022663Y019904D03*
X022663Y019914D03*
X022673Y019933D03*
X022673Y019943D03*
X022682Y019952D03*
X022682Y019962D03*
X022692Y019971D03*
X022702Y020000D03*
X022721Y020029D03*
X022730Y020048D03*
X023470Y019702D03*
X023470Y019693D03*
X023480Y019712D03*
X023480Y019722D03*
X023489Y019741D03*
X023499Y019760D03*
X023460Y019674D03*
X023460Y019664D03*
X023451Y019635D03*
X023451Y019626D03*
X023451Y019616D03*
X023441Y019578D03*
X023441Y019568D03*
X024383Y019770D03*
X024402Y019741D03*
X024402Y019731D03*
X024402Y019722D03*
X024411Y019712D03*
X024411Y019702D03*
X024421Y019674D03*
X024421Y019664D03*
X024421Y019654D03*
X024421Y019635D03*
X024421Y019587D03*
X024421Y019578D03*
X024421Y019568D03*
X024411Y019539D03*
X024411Y019530D03*
X024402Y019520D03*
X024402Y019510D03*
X025151Y019174D03*
X025170Y019203D03*
X025180Y019222D03*
X025190Y019241D03*
X025199Y019261D03*
X025199Y019270D03*
X025209Y019280D03*
X025209Y019289D03*
X025218Y019309D03*
X025218Y019318D03*
X025228Y019328D03*
X025228Y019337D03*
X025228Y019347D03*
X025238Y019366D03*
X025238Y019376D03*
X025247Y019395D03*
X025247Y019405D03*
X025247Y019414D03*
X025257Y019433D03*
X025257Y019462D03*
X025266Y019501D03*
X025266Y019510D03*
X025266Y019520D03*
X025266Y019530D03*
X025266Y019549D03*
X025276Y019568D03*
X025276Y019606D03*
X025276Y019635D03*
X025266Y019722D03*
X025266Y019731D03*
X025266Y019741D03*
X025257Y019779D03*
X025257Y019789D03*
X025257Y019799D03*
X025257Y019808D03*
X025247Y019837D03*
X025247Y019847D03*
X025238Y019866D03*
X025238Y019875D03*
X025238Y019885D03*
X025228Y019895D03*
X025228Y019904D03*
X025228Y019914D03*
X025218Y019923D03*
X025218Y019933D03*
X025209Y019952D03*
X025209Y019962D03*
X025199Y019971D03*
X025199Y019981D03*
X025190Y020000D03*
X025180Y020019D03*
X025151Y020067D03*
X024527Y018137D03*
X024527Y018127D03*
X024517Y018117D03*
X024517Y018069D03*
X024517Y018060D03*
X024517Y018041D03*
X024508Y018012D03*
X024508Y018002D03*
X024508Y017983D03*
X024498Y017973D03*
X024498Y017964D03*
X024498Y017954D03*
X024488Y017935D03*
X024488Y017925D03*
X024479Y017916D03*
X024479Y017906D03*
X024469Y017887D03*
X024469Y017877D03*
X024460Y017868D03*
X024450Y017848D03*
X023480Y017820D03*
X023470Y017829D03*
X023470Y017839D03*
X023460Y017848D03*
X023460Y017858D03*
X023460Y017868D03*
X023451Y017887D03*
X023451Y017896D03*
X023451Y017925D03*
X023441Y017935D03*
X023441Y017964D03*
X023441Y017973D03*
X023441Y017993D03*
X023451Y018041D03*
X023451Y018050D03*
X023451Y018060D03*
X023460Y018089D03*
X023460Y018098D03*
X023470Y018108D03*
X023470Y018117D03*
X023470Y018127D03*
X023480Y018137D03*
X023480Y018146D03*
D35*
X023484Y018156D03*
X023494Y018165D03*
X023504Y018175D03*
X023504Y018185D03*
X023513Y018194D03*
X023484Y017810D03*
X023484Y017800D03*
X023494Y017791D03*
X023504Y017781D03*
X022802Y018588D03*
X022774Y018550D03*
X022764Y018540D03*
X022754Y018521D03*
X022745Y018511D03*
X022745Y018502D03*
X022735Y018492D03*
X022726Y018482D03*
X022716Y018463D03*
X022706Y018444D03*
X022697Y018425D03*
X022678Y018386D03*
X022140Y019164D03*
X021602Y019280D03*
X021563Y019155D03*
X021534Y019059D03*
X021525Y019030D03*
X021496Y018934D03*
X021467Y018838D03*
X021458Y018809D03*
X021429Y018713D03*
X021419Y018684D03*
X021390Y018588D03*
X021304Y018329D03*
X021304Y018319D03*
X021304Y018310D03*
X021294Y018089D03*
X021294Y017935D03*
X021294Y017166D03*
X022140Y017070D03*
X022726Y017474D03*
X022735Y017464D03*
X022745Y017445D03*
X022754Y017435D03*
X022774Y017407D03*
X022783Y017397D03*
X022716Y017493D03*
X022706Y017503D03*
X022706Y017512D03*
X022697Y017522D03*
X022687Y017541D03*
X022678Y017560D03*
X022658Y017608D03*
X022601Y019558D03*
X022668Y019923D03*
X022697Y019981D03*
X022697Y019991D03*
X022706Y020010D03*
X022716Y020019D03*
X022726Y020039D03*
X022735Y020058D03*
X022745Y020067D03*
X022754Y020087D03*
X022764Y020096D03*
X022774Y020116D03*
X022783Y020125D03*
X022802Y020154D03*
X022812Y020164D03*
X023504Y019770D03*
X023513Y019779D03*
X023523Y019799D03*
X023494Y019750D03*
X023484Y019731D03*
X024368Y019789D03*
X024378Y019779D03*
X024387Y019760D03*
X024397Y019750D03*
X024397Y019501D03*
X024387Y019491D03*
X024387Y019481D03*
X024378Y019472D03*
X025079Y019068D03*
X025108Y019107D03*
X025118Y019116D03*
X025118Y019126D03*
X025127Y019136D03*
X025137Y019145D03*
X025137Y019155D03*
X025146Y019164D03*
X025156Y019184D03*
X025166Y019193D03*
X025175Y019213D03*
X025185Y019232D03*
X025194Y019251D03*
X025214Y019299D03*
X025194Y019991D03*
X025185Y020010D03*
X025175Y020029D03*
X025166Y020039D03*
X025166Y020048D03*
X025156Y020058D03*
X025146Y020077D03*
X025137Y020087D03*
X025137Y020096D03*
X025127Y020106D03*
X025118Y020116D03*
X025108Y020135D03*
X025367Y018137D03*
X025367Y018127D03*
X025367Y018117D03*
X025175Y017512D03*
X025166Y017503D03*
X025156Y017493D03*
X024445Y017839D03*
X024455Y017858D03*
X024474Y017896D03*
X024436Y017820D03*
X024426Y017810D03*
X024416Y017800D03*
X021669Y019501D03*
X021679Y019530D03*
X021707Y019626D03*
X021717Y019654D03*
X021736Y019722D03*
X021746Y019750D03*
X021775Y019847D03*
X021784Y019875D03*
X021813Y019971D03*
X021823Y020000D03*
X021842Y020067D03*
X021851Y020096D03*
X021880Y020192D03*
X021928Y020346D03*
X021947Y020413D03*
X021957Y020442D03*
X021967Y020471D03*
X021294Y020231D03*
X021294Y019933D03*
X021294Y019779D03*
X020036Y019808D03*
X018556Y017896D03*
X018355Y018444D03*
X018211Y018838D03*
X018153Y019001D03*
X018134Y019049D03*
X017596Y019626D03*
X017586Y019597D03*
X017557Y019501D03*
X017529Y019405D03*
X017519Y019376D03*
X017490Y019280D03*
X017481Y019251D03*
X017452Y019155D03*
X017442Y019126D03*
X017173Y019558D03*
X017625Y019722D03*
X017663Y019847D03*
X017692Y019943D03*
X017701Y019971D03*
X017740Y020096D03*
X016750Y020500D03*
X016270Y019203D03*
X016213Y019049D03*
X015838Y018031D03*
X015771Y017848D03*
X015684Y017618D03*
X015607Y017407D03*
X015550Y017253D03*
X015511Y017147D03*
X015300Y016417D03*
X015310Y016244D03*
X014877Y016167D03*
X014772Y016436D03*
X014762Y016456D03*
X014752Y016475D03*
X014733Y016504D03*
X014724Y016513D03*
X014551Y016407D03*
X014551Y016398D03*
X014378Y016417D03*
X014378Y016254D03*
X014387Y016235D03*
X014397Y016225D03*
X014407Y016206D03*
X014416Y016196D03*
X014426Y016177D03*
X014445Y016158D03*
X014243Y016100D03*
X014214Y016139D03*
X014195Y016158D03*
X014195Y016167D03*
X014186Y016177D03*
X014176Y016187D03*
X014176Y016196D03*
X014166Y016215D03*
X013993Y016081D03*
X013945Y015821D03*
X013936Y015802D03*
X013926Y015783D03*
X013917Y015773D03*
X013744Y015870D03*
X013744Y015879D03*
X013398Y015773D03*
X013388Y015783D03*
X013379Y015802D03*
X013369Y015821D03*
X013359Y015841D03*
X013571Y016407D03*
X013580Y016417D03*
X013734Y016417D03*
X013744Y016407D03*
X013926Y016494D03*
X013926Y016504D03*
X013917Y016513D03*
X013936Y016484D03*
X013955Y016446D03*
X014157Y016494D03*
X014166Y016504D03*
X014166Y016513D03*
X014176Y016523D03*
X014186Y016532D03*
X014426Y015898D03*
X013407Y016523D03*
X013398Y016513D03*
X013388Y016494D03*
X013379Y016484D03*
X013369Y016465D03*
X012226Y015927D03*
X012216Y015946D03*
X012255Y015860D03*
X012264Y015841D03*
X012284Y015802D03*
X012303Y015754D03*
X012312Y015735D03*
X012322Y015716D03*
X012091Y015706D03*
X012063Y015773D03*
X012053Y015802D03*
X012005Y015908D03*
X011986Y015956D03*
X011957Y016023D03*
X011928Y016090D03*
X011899Y016158D03*
X011870Y016225D03*
X011851Y016273D03*
X011822Y016340D03*
X011784Y016427D03*
X011755Y016494D03*
X012005Y016407D03*
X012015Y016388D03*
X012024Y016369D03*
X012043Y016331D03*
X012063Y016283D03*
X012072Y016263D03*
X012111Y016177D03*
X012120Y016158D03*
X012168Y016052D03*
X012178Y016033D03*
X016395Y017070D03*
X017019Y017743D03*
X017029Y017772D03*
X017058Y017868D03*
X017067Y017896D03*
X017096Y017993D03*
X017106Y018021D03*
X017135Y018117D03*
X017164Y018213D03*
X019200Y017070D03*
D36*
X021323Y018434D03*
X021323Y018444D03*
X021323Y018454D03*
X022120Y019174D03*
X022956Y018742D03*
X022995Y018771D03*
X023004Y018780D03*
X023014Y018790D03*
X023033Y018799D03*
X023581Y018261D03*
X023590Y018271D03*
X023609Y018281D03*
X023561Y017724D03*
X023571Y017714D03*
X022947Y017243D03*
X022908Y017272D03*
X022899Y017282D03*
X024359Y017743D03*
X024935Y017282D03*
X024964Y017301D03*
X024973Y017310D03*
X025233Y017637D03*
X025242Y017656D03*
X025242Y017666D03*
X025252Y017676D03*
X025252Y017685D03*
X025262Y017714D03*
X025271Y017733D03*
X025271Y017743D03*
X025329Y017925D03*
X025329Y017935D03*
X025329Y017944D03*
X025339Y017973D03*
X025339Y017983D03*
X024858Y018857D03*
X024868Y018867D03*
X024877Y018876D03*
X024897Y018886D03*
X024906Y018896D03*
X024839Y018847D03*
X024272Y019366D03*
X023609Y019875D03*
X023023Y020365D03*
X023014Y020356D03*
X023004Y020346D03*
X022985Y020336D03*
X022975Y020327D03*
X024868Y020356D03*
X024897Y020336D03*
X024935Y020308D03*
X017750Y020039D03*
X017173Y019491D03*
X015069Y016244D03*
X013859Y016571D03*
X013465Y016571D03*
X013129Y016292D03*
X012745Y016638D03*
X013456Y015716D03*
X013657Y015793D03*
X013859Y015716D03*
D37*
X013873Y015725D03*
X013595Y015860D03*
X013441Y015725D03*
X013431Y015735D03*
X013134Y016465D03*
X012961Y016388D03*
X013451Y016561D03*
X013873Y016561D03*
X014219Y016561D03*
X014671Y016561D03*
X014680Y016552D03*
X015506Y016167D03*
X017380Y018972D03*
X017380Y018982D03*
X017380Y018992D03*
X017178Y019501D03*
X017178Y019510D03*
X017745Y020048D03*
X017745Y020058D03*
X017745Y020067D03*
X020012Y019818D03*
X020060Y019203D03*
X021309Y019472D03*
X021318Y018425D03*
X021318Y018415D03*
X021318Y018406D03*
X021309Y018386D03*
X022903Y018694D03*
X022913Y018703D03*
X022923Y018713D03*
X022942Y018732D03*
X022971Y018751D03*
X022980Y018761D03*
X023557Y018242D03*
X023547Y017733D03*
X022932Y017253D03*
X022923Y017262D03*
X022884Y017291D03*
X022874Y017301D03*
X022855Y017320D03*
X024373Y017752D03*
X024988Y017320D03*
X024997Y017330D03*
X025007Y017339D03*
X025218Y017599D03*
X025218Y017608D03*
X025228Y017618D03*
X025228Y017627D03*
X025238Y017647D03*
X025334Y017964D03*
X025343Y017993D03*
X025343Y018002D03*
X025343Y018012D03*
X025353Y018021D03*
X025353Y018031D03*
X025353Y018041D03*
X024930Y018915D03*
X024940Y018924D03*
X024949Y018934D03*
X024306Y019395D03*
X024296Y019385D03*
X024287Y019376D03*
X024306Y019856D03*
X024296Y019866D03*
X023595Y019866D03*
X022961Y020317D03*
X022951Y020308D03*
X022942Y020298D03*
X022932Y020288D03*
X024921Y020317D03*
X024949Y020298D03*
X024959Y020288D03*
X024969Y020279D03*
D38*
X024464Y020538D03*
X023946Y020000D03*
X023619Y018742D03*
X023648Y018732D03*
X023677Y018723D03*
X023744Y018703D03*
X023773Y018694D03*
X023801Y018684D03*
X023840Y018675D03*
X023898Y018655D03*
X023926Y018646D03*
X023965Y018636D03*
X023994Y018627D03*
X024022Y018617D03*
X024061Y018607D03*
X024090Y018598D03*
X023581Y018751D03*
X023552Y018761D03*
X023523Y018771D03*
X023494Y018780D03*
X023456Y018790D03*
X023427Y018799D03*
X023398Y018809D03*
X023360Y018819D03*
X022044Y019222D03*
X021947Y019251D03*
X021919Y019261D03*
X021890Y019270D03*
X021851Y019280D03*
X021823Y019289D03*
X021698Y019328D03*
X021669Y019337D03*
X021630Y019347D03*
X021602Y019357D03*
X021573Y019366D03*
X021544Y019376D03*
X019844Y019895D03*
X019815Y019904D03*
X019786Y019914D03*
X019748Y019923D03*
X019719Y019933D03*
X019690Y019943D03*
X019652Y019952D03*
X019623Y019962D03*
X019594Y019971D03*
X019565Y019981D03*
X019527Y019991D03*
X019498Y020000D03*
X019469Y020010D03*
X019440Y020019D03*
X019402Y020029D03*
X015204Y016484D03*
X015194Y016475D03*
X015194Y016494D03*
X015204Y015793D03*
X015194Y015783D03*
X015194Y015735D03*
D39*
X014752Y015831D03*
X014743Y015841D03*
X014733Y015850D03*
X014724Y015860D03*
X014714Y015870D03*
X014704Y015879D03*
X014695Y015889D03*
X014685Y015898D03*
X014666Y015918D03*
X014647Y015937D03*
X014627Y015966D03*
X014599Y015994D03*
X014589Y016004D03*
X014579Y016014D03*
X014570Y016023D03*
X014551Y016042D03*
X014541Y016052D03*
X014531Y016062D03*
X014522Y016071D03*
X014512Y016081D03*
X014503Y016090D03*
X014455Y016148D03*
X014320Y016014D03*
X014339Y015994D03*
X014349Y015985D03*
X014359Y015975D03*
X014368Y015966D03*
X014416Y015908D03*
X014291Y016042D03*
X014262Y016081D03*
X014455Y016494D03*
X014695Y016542D03*
X014704Y016532D03*
X014714Y016523D03*
X014205Y016552D03*
X014195Y016542D03*
X013897Y016532D03*
X013878Y016552D03*
X013657Y016494D03*
X013436Y016552D03*
X013427Y016542D03*
X013417Y016532D03*
X013724Y015860D03*
X013888Y015735D03*
X015521Y017128D03*
X017192Y018310D03*
X017173Y019520D03*
X017173Y019530D03*
X019210Y020116D03*
X021313Y018396D03*
X021313Y018377D03*
X021313Y018367D03*
X022860Y018655D03*
X022870Y018665D03*
X022889Y018684D03*
X022937Y018723D03*
X023533Y018223D03*
X023552Y018233D03*
X023571Y018252D03*
X023533Y017743D03*
X022870Y017310D03*
X022841Y017330D03*
X022831Y017349D03*
X024378Y017762D03*
X024387Y017772D03*
X025021Y017349D03*
X025031Y017359D03*
X025041Y017368D03*
X025050Y017378D03*
X025060Y017387D03*
X025070Y017397D03*
X025079Y017407D03*
X025098Y017426D03*
X025118Y017445D03*
X025204Y017570D03*
X025204Y017579D03*
X025214Y017589D03*
X025358Y018050D03*
X025358Y018060D03*
X025358Y018069D03*
X025358Y018079D03*
X024916Y018905D03*
X024964Y018944D03*
X024973Y018953D03*
X024983Y018963D03*
X024993Y018972D03*
X025002Y018982D03*
X025012Y018992D03*
X025021Y019001D03*
X025031Y019011D03*
X024349Y019433D03*
X024339Y019424D03*
X024330Y019414D03*
X024320Y019405D03*
X024339Y019827D03*
X024330Y019837D03*
X024320Y019847D03*
X023581Y019856D03*
X023571Y019847D03*
X023561Y019837D03*
X023552Y019827D03*
X023542Y019818D03*
X022918Y020279D03*
X022908Y020269D03*
X022899Y020260D03*
X022889Y020250D03*
X022879Y020240D03*
X022870Y020231D03*
X024983Y020269D03*
X024993Y020260D03*
X025002Y020250D03*
X025012Y020240D03*
X025021Y020231D03*
X025041Y020212D03*
X025050Y020202D03*
D40*
X025055Y020192D03*
X025065Y020183D03*
X025074Y020173D03*
X025084Y020164D03*
X025094Y020154D03*
X025094Y020144D03*
X025113Y020125D03*
X025036Y020221D03*
X024363Y019799D03*
X024354Y019808D03*
X024344Y019818D03*
X024373Y019462D03*
X024363Y019453D03*
X024354Y019443D03*
X025036Y019020D03*
X025046Y019030D03*
X025055Y019040D03*
X025065Y019049D03*
X025074Y019059D03*
X025084Y019078D03*
X025094Y019088D03*
X025103Y019097D03*
X025363Y018108D03*
X025363Y018098D03*
X025363Y018089D03*
X025199Y017560D03*
X025199Y017551D03*
X025190Y017541D03*
X025190Y017531D03*
X025180Y017522D03*
X025151Y017483D03*
X025142Y017474D03*
X025132Y017464D03*
X025132Y017455D03*
X025113Y017435D03*
X025094Y017416D03*
X024440Y017829D03*
X024411Y017791D03*
X024402Y017781D03*
X023528Y017752D03*
X023518Y017762D03*
X023509Y017772D03*
X023518Y018204D03*
X023528Y018213D03*
X022884Y018675D03*
X022855Y018646D03*
X022846Y018636D03*
X022836Y018627D03*
X022826Y018617D03*
X022817Y018607D03*
X022807Y018598D03*
X022798Y018579D03*
X022788Y018569D03*
X022778Y018559D03*
X022759Y018530D03*
X022740Y017455D03*
X022759Y017426D03*
X022769Y017416D03*
X022788Y017387D03*
X022798Y017378D03*
X022807Y017368D03*
X022817Y017359D03*
X022836Y017339D03*
X021309Y018338D03*
X021309Y018348D03*
X021309Y018358D03*
X021280Y019203D03*
X021309Y020529D03*
X021971Y020529D03*
X022750Y020077D03*
X022769Y020106D03*
X022788Y020135D03*
X022798Y020144D03*
X022817Y020173D03*
X022826Y020183D03*
X022836Y020192D03*
X022846Y020202D03*
X022855Y020212D03*
X022865Y020221D03*
X023518Y019789D03*
X023537Y019808D03*
X023432Y019558D03*
X020021Y020529D03*
X017745Y020087D03*
X017745Y020077D03*
X017178Y019549D03*
X017178Y019539D03*
X017380Y018963D03*
X017380Y018953D03*
X017380Y018944D03*
X017380Y018934D03*
X018849Y017070D03*
X014738Y016494D03*
X014536Y016417D03*
X014402Y016215D03*
X014421Y016187D03*
X014440Y016167D03*
X014459Y016139D03*
X014469Y016129D03*
X014479Y016119D03*
X014488Y016110D03*
X014498Y016100D03*
X014555Y016033D03*
X014603Y015985D03*
X014613Y015975D03*
X014632Y015956D03*
X014642Y015946D03*
X014661Y015927D03*
X014680Y015908D03*
X014757Y015821D03*
X014767Y015812D03*
X014440Y015879D03*
X014431Y015889D03*
X014411Y015918D03*
X014402Y015927D03*
X014392Y015937D03*
X014383Y015946D03*
X014373Y015956D03*
X014334Y016004D03*
X014315Y016023D03*
X014306Y016033D03*
X014286Y016052D03*
X014277Y016062D03*
X014267Y016071D03*
X014248Y016090D03*
X014238Y016110D03*
X014229Y016119D03*
X014219Y016129D03*
X014210Y016148D03*
X013912Y016523D03*
X013893Y016542D03*
X013393Y016504D03*
X013143Y016456D03*
X013143Y016283D03*
X012730Y016648D03*
X013403Y015764D03*
X013412Y015754D03*
X013422Y015745D03*
X013893Y015745D03*
X013902Y015754D03*
X013912Y015764D03*
D41*
X014440Y016657D03*
X015199Y016465D03*
X015199Y016446D03*
X015199Y016427D03*
X015199Y015773D03*
X015199Y015754D03*
X019935Y019866D03*
X023326Y017061D03*
X023710Y018713D03*
X023758Y019933D03*
D42*
X023912Y020653D03*
X020838Y019126D03*
X020761Y019126D03*
X020684Y019126D03*
X020607Y019126D03*
X020531Y019126D03*
X020454Y019126D03*
X020377Y019126D03*
X020300Y019126D03*
X020223Y019126D03*
X020146Y019126D03*
X020069Y019126D03*
X017399Y018386D03*
X017322Y018386D03*
X017178Y019606D03*
X013652Y015783D03*
X013163Y016273D03*
D43*
X014310Y015802D03*
X014445Y016600D03*
X024243Y017022D03*
D44*
X024311Y017714D03*
X024330Y017724D03*
X024829Y017214D03*
X024849Y017224D03*
X024868Y017234D03*
X025281Y017762D03*
X025300Y017829D03*
X024743Y018780D03*
X024753Y018790D03*
X024772Y018799D03*
X024724Y018771D03*
X024215Y019328D03*
X024224Y019337D03*
X023638Y019895D03*
X023119Y020423D03*
X023091Y020404D03*
X023071Y020394D03*
X023043Y020375D03*
X023638Y018300D03*
X023590Y017704D03*
X023033Y017186D03*
X023014Y017195D03*
X023004Y017205D03*
X024839Y020375D03*
X024829Y020384D03*
X024810Y020394D03*
X024858Y020365D03*
X019997Y019827D03*
X017750Y020010D03*
X017173Y019472D03*
X017173Y019462D03*
X014656Y016571D03*
X014455Y016484D03*
X014253Y016580D03*
X013657Y015802D03*
X012975Y016379D03*
D45*
X014315Y015812D03*
X023614Y020577D03*
D46*
X023542Y017022D03*
X014445Y016609D03*
X014301Y015831D03*
X014301Y015821D03*
D47*
X013662Y015821D03*
X013662Y016465D03*
X013095Y016311D03*
X012990Y016369D03*
X014459Y016465D03*
X014450Y016667D03*
X023374Y018992D03*
X023806Y018386D03*
X023826Y018396D03*
X024431Y018627D03*
X024450Y018636D03*
X024479Y018646D03*
X024517Y018665D03*
X024085Y019261D03*
X024200Y019914D03*
X024652Y020471D03*
X023259Y020490D03*
X023240Y020481D03*
X024680Y017138D03*
D48*
X024210Y018588D03*
X014296Y015841D03*
X013662Y016600D03*
D49*
X013657Y016427D03*
X013657Y015850D03*
X012994Y016532D03*
X012966Y016542D03*
X012937Y016552D03*
X012908Y016561D03*
X012793Y016600D03*
X014455Y016436D03*
X014455Y016427D03*
X023273Y017080D03*
X023686Y017666D03*
X024080Y018492D03*
X024109Y018502D03*
X023811Y019155D03*
X023782Y019145D03*
X023753Y019136D03*
X023648Y019097D03*
X023619Y019088D03*
X023196Y018876D03*
X023369Y020529D03*
X024522Y020519D03*
D50*
X023936Y019981D03*
X014445Y016619D03*
X014291Y015860D03*
X013657Y016609D03*
D51*
X013662Y016657D03*
X014373Y015870D03*
X013047Y016513D03*
X015574Y017090D03*
X019954Y019856D03*
X022058Y019213D03*
X023701Y019116D03*
X023729Y019126D03*
X024229Y018550D03*
X024210Y017676D03*
X024498Y017070D03*
X024527Y017080D03*
X023297Y017070D03*
D52*
X023912Y020010D03*
X017178Y019635D03*
X017101Y018386D03*
X017043Y018386D03*
X016986Y018386D03*
X015506Y016244D03*
X015449Y016244D03*
X015391Y016244D03*
X014969Y016244D03*
X014911Y016244D03*
X014853Y016244D03*
D53*
X013177Y016263D03*
X012908Y016417D03*
X017173Y019645D03*
X017173Y019654D03*
X020218Y019203D03*
X020295Y019203D03*
X020372Y019203D03*
X020449Y019203D03*
X020526Y019203D03*
X020603Y019203D03*
X020679Y019203D03*
X020756Y019203D03*
X020833Y019203D03*
X021102Y019203D03*
X023974Y020653D03*
D54*
X024248Y019895D03*
X024200Y019318D03*
X024181Y019309D03*
X024671Y018742D03*
X024690Y018751D03*
X024709Y018761D03*
X023672Y018319D03*
X023653Y018310D03*
X023201Y018905D03*
X023182Y018896D03*
X022106Y019184D03*
X023105Y020413D03*
X024796Y020404D03*
X023605Y017695D03*
X023086Y017157D03*
X023067Y017166D03*
X023047Y017176D03*
X024815Y017205D03*
X017745Y020000D03*
X017178Y019453D03*
X017178Y019443D03*
X017380Y019059D03*
X017380Y019049D03*
X017380Y019040D03*
X017380Y019030D03*
X015535Y017118D03*
X014632Y016580D03*
X013835Y016580D03*
X013480Y016580D03*
X013114Y016475D03*
X013114Y016302D03*
D55*
X012221Y016417D03*
X012221Y016427D03*
X024229Y020577D03*
D56*
X023926Y017618D03*
X012216Y016446D03*
X012216Y016436D03*
D57*
X012211Y016456D03*
X012211Y016465D03*
X023941Y019962D03*
D58*
X012207Y016484D03*
X012207Y016475D03*
D59*
X012773Y016619D03*
X013100Y016484D03*
X013657Y016667D03*
X014272Y016590D03*
X015550Y017109D03*
X016856Y018386D03*
X019988Y019837D03*
X022092Y019193D03*
X023312Y018963D03*
X023331Y018972D03*
X023360Y018982D03*
X023763Y018367D03*
X023782Y018377D03*
X023629Y017685D03*
X024272Y017695D03*
X024704Y017147D03*
X024503Y018655D03*
X024599Y018703D03*
X024061Y019251D03*
X023677Y019914D03*
X023216Y020471D03*
X023196Y020461D03*
X024676Y020461D03*
X023148Y017128D03*
X023167Y017118D03*
D60*
X023950Y018444D03*
X023998Y018463D03*
X024027Y018473D03*
X024056Y018482D03*
X024133Y018511D03*
X024162Y018521D03*
X023864Y019174D03*
X023835Y019164D03*
X023672Y019107D03*
X023566Y019068D03*
X024171Y019923D03*
X024556Y020509D03*
X023336Y020519D03*
X021376Y019433D03*
X019272Y020077D03*
X024556Y017090D03*
X024584Y017099D03*
X013076Y016504D03*
X013018Y016523D03*
X012884Y016571D03*
D61*
X013499Y016590D03*
X013816Y016590D03*
X021347Y019453D03*
X023240Y018924D03*
X023297Y018953D03*
X023720Y018348D03*
X023739Y018358D03*
X024536Y018675D03*
X024565Y018684D03*
X024584Y018694D03*
X024162Y019299D03*
X024143Y019289D03*
X024123Y019280D03*
X024104Y019270D03*
X024700Y020452D03*
X024719Y020442D03*
X024738Y020433D03*
X024738Y017166D03*
X024719Y017157D03*
X023124Y017138D03*
X023105Y017147D03*
D62*
X012101Y016648D03*
X012101Y016638D03*
X012101Y016619D03*
X012101Y016590D03*
D63*
X012096Y016600D03*
X012096Y016609D03*
X012096Y016628D03*
X012096Y016657D03*
D64*
X012778Y016609D03*
X015564Y017099D03*
X022077Y019203D03*
X023489Y019040D03*
X023970Y019213D03*
X023998Y019222D03*
X024363Y018598D03*
X023922Y018434D03*
X023874Y018415D03*
X024239Y017685D03*
X024604Y017109D03*
X024632Y017118D03*
X023211Y017099D03*
X023710Y019923D03*
X023288Y020500D03*
X024604Y020490D03*
X024632Y020481D03*
D65*
X024330Y020567D03*
X013657Y016628D03*
D66*
X014440Y016638D03*
X021751Y019299D03*
X023941Y019991D03*
X024219Y018569D03*
X023922Y017599D03*
D67*
X024378Y017041D03*
X022015Y019241D03*
X021736Y019309D03*
X019901Y019885D03*
X015617Y017070D03*
X013657Y016638D03*
D68*
X014440Y016648D03*
X019320Y020048D03*
X023211Y018857D03*
X023480Y020557D03*
X023403Y017041D03*
D69*
X023893Y016955D03*
X023941Y019971D03*
D70*
X023941Y017647D03*
X023893Y016965D03*
D71*
X023888Y016974D03*
D72*
X023893Y016984D03*
X017178Y020557D03*
X017178Y020567D03*
D73*
X023888Y016993D03*
D74*
X024949Y018156D03*
X024949Y018175D03*
X024949Y018185D03*
X024949Y018213D03*
X023019Y019491D03*
X023019Y019501D03*
X023019Y019510D03*
X023019Y019530D03*
X023019Y019539D03*
X023019Y019549D03*
X021722Y020538D03*
X021722Y020548D03*
X021722Y020557D03*
X021722Y020567D03*
X021722Y020586D03*
X021722Y020596D03*
X021722Y020605D03*
X019618Y020596D03*
X019618Y020577D03*
X019618Y020548D03*
X019618Y020538D03*
X019618Y017051D03*
X019618Y017041D03*
X019618Y017022D03*
X019618Y016993D03*
X021722Y016993D03*
X021722Y017003D03*
X021722Y017022D03*
X021722Y017032D03*
X021722Y017041D03*
X021722Y017051D03*
X021722Y017061D03*
D75*
X018432Y016993D03*
X018422Y017013D03*
X018422Y017022D03*
X018422Y017032D03*
X018412Y017041D03*
X018412Y017051D03*
X015934Y017061D03*
X015924Y017041D03*
X015924Y017032D03*
X015924Y017022D03*
X015915Y017003D03*
X015915Y016993D03*
D76*
X023898Y017003D03*
X023926Y020586D03*
D77*
X023014Y019520D03*
X023014Y019481D03*
X019613Y020557D03*
X019613Y020567D03*
X019613Y020586D03*
X019613Y020605D03*
X019613Y017061D03*
X019613Y017032D03*
X019613Y017013D03*
X019613Y017003D03*
D78*
X018427Y017003D03*
X018408Y017061D03*
X023931Y020596D03*
D79*
X023893Y017013D03*
D80*
X024954Y018146D03*
X024954Y018165D03*
X024954Y018194D03*
X024954Y018204D03*
X021717Y017013D03*
X021717Y020577D03*
D81*
X015929Y017051D03*
X015920Y017013D03*
D82*
X024315Y017032D03*
D83*
X023926Y017608D03*
D84*
X023931Y017627D03*
X023941Y019952D03*
D85*
X023936Y017637D03*
D86*
X023941Y017656D03*
D87*
X017173Y017656D03*
X017173Y017666D03*
X017173Y017676D03*
D88*
X017178Y017685D03*
D89*
X017173Y017695D03*
X017173Y017704D03*
D90*
X017178Y017714D03*
D91*
X017173Y017724D03*
D92*
X017173Y018319D03*
X017173Y020596D03*
D93*
X017178Y020605D03*
X017178Y018338D03*
X017178Y018329D03*
D94*
X017173Y018348D03*
X017173Y018358D03*
D95*
X017178Y018367D03*
D96*
X017173Y018377D03*
X023926Y020615D03*
D97*
X020699Y018482D03*
X020699Y018473D03*
D98*
X020703Y018492D03*
X020703Y018502D03*
X020703Y018511D03*
X020703Y018521D03*
D99*
X020708Y018530D03*
X020708Y018540D03*
D100*
X021472Y019405D03*
X023230Y018838D03*
D101*
X023220Y018847D03*
D102*
X020665Y019136D03*
X020665Y019145D03*
X020665Y019155D03*
X020665Y019164D03*
X020665Y019174D03*
X020665Y019184D03*
D103*
X020670Y019193D03*
D104*
X023941Y019943D03*
D105*
X023922Y020605D03*
X017178Y020538D03*
D106*
X017173Y020548D03*
D107*
X024373Y020557D03*
D108*
X017173Y020577D03*
D109*
X017178Y020586D03*
D110*
X023926Y020625D03*
D111*
X023917Y020634D03*
D112*
X018044Y009575D02*
X017643Y009174D01*
X017442Y009174D01*
X017843Y009575D02*
X018044Y009375D01*
X018294Y009124D02*
X018594Y008824D01*
X018594Y008623D01*
X018394Y008423D01*
X018193Y008423D01*
X017893Y008723D01*
X018744Y008273D02*
X019145Y007872D01*
X019045Y007772D02*
X019245Y007972D01*
X019245Y008173D01*
X019045Y008373D01*
X018844Y008373D01*
X018744Y008273D01*
X018644Y007972D02*
X018844Y007772D01*
X019045Y007772D01*
X019178Y007438D02*
X019379Y007237D01*
X019279Y007338D02*
X019880Y007939D01*
X019980Y007839D01*
X019930Y007288D02*
X019829Y007188D01*
X020230Y006787D01*
X020130Y006686D02*
X020331Y006887D01*
X020331Y007087D01*
X020130Y007288D01*
X019930Y007288D01*
X019729Y006887D02*
X019930Y006686D01*
X020130Y006686D01*
X020380Y006436D02*
X020380Y006236D01*
X020581Y006035D01*
X020781Y006035D01*
X020881Y006336D02*
X020681Y006537D01*
X020480Y006537D01*
X020380Y006436D01*
X020781Y006837D02*
X020982Y006837D01*
X021182Y006637D01*
X021182Y006436D01*
X021082Y006336D01*
X020881Y006336D01*
X015291Y006816D02*
X015190Y006716D01*
X014990Y006716D01*
X014789Y006916D01*
X014589Y006916D01*
X014489Y006816D01*
X014489Y006616D01*
X014689Y006415D01*
X014890Y006415D01*
X015291Y006816D02*
X015291Y007017D01*
X015090Y007217D01*
X014890Y007217D01*
X014539Y007367D02*
X014339Y007568D01*
X014539Y007568D02*
X014138Y007166D01*
X013938Y007166D01*
X013804Y007500D02*
X013804Y007701D01*
X013504Y008002D01*
X013604Y008102D02*
X013303Y007801D01*
X013604Y007500D01*
X013804Y007500D01*
X014005Y007901D02*
X013804Y008102D01*
X013604Y008102D01*
X013454Y008452D02*
X013053Y008051D01*
X013254Y008252D02*
X013254Y008653D01*
X013153Y008753D01*
X012912Y008995D02*
X012711Y009195D01*
X012912Y009195D02*
X012511Y008794D01*
X012310Y008794D01*
X008061Y011097D02*
X007760Y011398D01*
X007559Y011398D01*
X007459Y011297D01*
X007459Y011097D01*
X007760Y010796D01*
X007459Y010495D02*
X008061Y011097D01*
X007459Y011097D02*
X007259Y011097D01*
X007158Y010997D01*
X007158Y010796D01*
X007459Y010495D01*
X003735Y014466D02*
X003334Y014867D01*
X003434Y014967D02*
X003033Y014566D01*
X003434Y014165D02*
X003835Y014566D01*
X003835Y014967D01*
X003434Y014967D01*
D113*
X026006Y014790D02*
X026006Y011640D01*
X029156Y011640D01*
X029156Y008491D01*
X032305Y008491D01*
X032305Y011640D01*
X035455Y011640D01*
X035455Y014790D01*
X032305Y014790D01*
X031912Y014396D01*
X030770Y014396D01*
X030934Y014379D01*
X031094Y014339D01*
X031247Y014278D01*
X031390Y014195D01*
X031520Y014094D01*
X031635Y013975D01*
X031732Y013842D01*
X031809Y013696D01*
X031866Y013541D01*
X031900Y013380D01*
X031912Y013215D01*
X031900Y013047D01*
X031864Y012882D01*
X031805Y012724D01*
X031724Y012576D01*
X031623Y012442D01*
X031504Y012322D01*
X031369Y012221D01*
X031221Y012141D01*
X031063Y012082D01*
X030899Y012046D01*
X030731Y012034D01*
X030562Y012046D01*
X030398Y012082D01*
X030240Y012141D01*
X030092Y012221D01*
X029957Y012322D01*
X029838Y012442D01*
X029737Y012576D01*
X029656Y012724D01*
X029597Y012882D01*
X029561Y013047D01*
X029549Y013215D01*
X029561Y013383D01*
X029597Y013548D01*
X029656Y013706D01*
X029737Y013854D01*
X029838Y013988D01*
X029957Y014108D01*
X030092Y014209D01*
X030240Y014289D01*
X030398Y014348D01*
X030562Y014384D01*
X030731Y014396D01*
X031872Y014396D01*
X032305Y014829D01*
X032305Y018333D01*
X029156Y018333D01*
X029156Y014790D01*
X026006Y014790D01*
X026006Y014693D02*
X032169Y014693D01*
X032208Y014693D02*
X035455Y014693D01*
X035455Y014534D02*
X032050Y014534D01*
X032010Y014534D02*
X026006Y014534D01*
X026006Y014376D02*
X030523Y014376D01*
X030948Y014376D02*
X035455Y014376D01*
X035455Y014217D02*
X031352Y014217D01*
X031554Y014059D02*
X035455Y014059D01*
X035455Y013900D02*
X031689Y013900D01*
X031785Y013742D02*
X035455Y013742D01*
X035455Y013583D02*
X031850Y013583D01*
X031891Y013425D02*
X035455Y013425D01*
X035455Y013266D02*
X031908Y013266D01*
X031904Y013108D02*
X035455Y013108D01*
X035455Y012949D02*
X031878Y012949D01*
X031830Y012791D02*
X035455Y012791D01*
X035455Y012632D02*
X031754Y012632D01*
X031647Y012474D02*
X035455Y012474D01*
X035455Y012315D02*
X031494Y012315D01*
X031250Y012157D02*
X035455Y012157D01*
X035455Y011998D02*
X026006Y011998D01*
X026006Y011840D02*
X035455Y011840D01*
X035455Y011681D02*
X026006Y011681D01*
X026006Y012157D02*
X030211Y012157D01*
X029967Y012315D02*
X026006Y012315D01*
X026006Y012474D02*
X029814Y012474D01*
X029707Y012632D02*
X026006Y012632D01*
X026006Y012791D02*
X029632Y012791D01*
X029583Y012949D02*
X026006Y012949D01*
X026006Y013108D02*
X029557Y013108D01*
X029553Y013266D02*
X026006Y013266D01*
X026006Y013425D02*
X029570Y013425D01*
X029610Y013583D02*
X026006Y013583D01*
X026006Y013742D02*
X029676Y013742D01*
X029772Y013900D02*
X026006Y013900D01*
X026006Y014059D02*
X029908Y014059D01*
X030107Y014217D02*
X026006Y014217D01*
X029156Y014851D02*
X032305Y014851D01*
X032305Y015010D02*
X029156Y015010D01*
X029156Y015168D02*
X032305Y015168D01*
X032305Y015327D02*
X029156Y015327D01*
X029156Y015485D02*
X032305Y015485D01*
X032305Y015644D02*
X029156Y015644D01*
X029156Y015802D02*
X032305Y015802D01*
X032305Y015961D02*
X029156Y015961D01*
X029156Y016119D02*
X032305Y016119D01*
X032305Y016278D02*
X029156Y016278D01*
X029156Y016436D02*
X032305Y016436D01*
X032305Y016595D02*
X029156Y016595D01*
X029156Y016753D02*
X032305Y016753D01*
X032305Y016912D02*
X029156Y016912D01*
X029156Y017070D02*
X032305Y017070D01*
X032305Y017229D02*
X029156Y017229D01*
X029156Y017387D02*
X032305Y017387D01*
X032305Y017546D02*
X029156Y017546D01*
X029156Y017704D02*
X032305Y017704D01*
X032305Y017863D02*
X029156Y017863D01*
X029156Y018021D02*
X032305Y018021D01*
X032305Y018180D02*
X029156Y018180D01*
X029156Y011523D02*
X032305Y011523D01*
X032305Y011364D02*
X029156Y011364D01*
X029156Y011206D02*
X032305Y011206D01*
X032305Y011047D02*
X029156Y011047D01*
X029156Y010889D02*
X032305Y010889D01*
X032305Y010730D02*
X029156Y010730D01*
X029156Y010572D02*
X032305Y010572D01*
X032305Y010413D02*
X029156Y010413D01*
X029156Y010255D02*
X032305Y010255D01*
X032305Y010096D02*
X029156Y010096D01*
X029156Y009938D02*
X032305Y009938D01*
X032305Y009779D02*
X029156Y009779D01*
X029156Y009621D02*
X032305Y009621D01*
X032305Y009462D02*
X029156Y009462D01*
X029156Y009304D02*
X032305Y009304D01*
X032305Y009145D02*
X029156Y009145D01*
X029156Y008987D02*
X032305Y008987D01*
X032305Y008828D02*
X029156Y008828D01*
X029156Y008670D02*
X032305Y008670D01*
X032305Y008511D02*
X029156Y008511D01*
D114*
X009864Y013215D03*
D115*
X005927Y016758D03*
D116*
X014195Y009672D02*
X015770Y008097D01*
X019707Y009672D02*
X021282Y008097D01*
D117*
X022262Y036210D02*
X022262Y036299D01*
X022262Y036210D02*
X024218Y036210D01*
X024218Y036211D01*
X024238Y036211D01*
X024238Y036318D01*
X024250Y036881D02*
X024250Y037551D01*
X024230Y038161D02*
X024230Y038261D01*
X024210Y038261D01*
X024210Y038259D01*
X022261Y038259D01*
X022261Y038168D01*
X022250Y037571D02*
X022250Y037231D01*
X023250Y036231D01*
X022250Y036891D02*
X022250Y037231D01*
X019132Y037551D02*
X019132Y036881D01*
X019120Y036318D02*
X019120Y036211D01*
X019100Y036211D01*
X019100Y036210D01*
X017144Y036210D01*
X017144Y036299D01*
X017132Y036891D02*
X017132Y037231D01*
X018132Y036231D01*
X017132Y037231D02*
X017132Y037571D01*
X017143Y038168D02*
X017143Y038259D01*
X019092Y038259D01*
X019092Y038261D01*
X019112Y038261D01*
X019112Y038161D01*
X014014Y037551D02*
X014014Y036881D01*
X014002Y036318D02*
X014002Y036211D01*
X013982Y036211D01*
X013982Y036210D01*
X012026Y036210D01*
X012026Y036299D01*
X012014Y036891D02*
X012014Y037231D01*
X013014Y036231D01*
X012014Y037231D02*
X012014Y037571D01*
X012025Y038168D02*
X012025Y038259D01*
X013974Y038259D01*
X013974Y038261D01*
X013994Y038261D01*
X013994Y038161D01*
X008876Y038161D02*
X008876Y038261D01*
X008856Y038261D01*
X008856Y038259D01*
X006907Y038259D01*
X006907Y038168D01*
X006896Y037571D02*
X006896Y037231D01*
X007896Y036231D01*
X008864Y036210D02*
X006908Y036210D01*
X006908Y036299D01*
X006896Y036891D02*
X006896Y037231D01*
X008896Y037551D02*
X008896Y036881D01*
X008884Y036318D02*
X008884Y036211D01*
X008864Y036211D01*
X008864Y036210D01*
X027380Y036210D02*
X027380Y036299D01*
X027380Y036210D02*
X029336Y036210D01*
X029336Y036211D01*
X029356Y036211D01*
X029356Y036318D01*
X029368Y036881D02*
X029368Y037551D01*
X029348Y038161D02*
X029348Y038261D01*
X029328Y038261D01*
X029328Y038259D01*
X027379Y038259D01*
X027379Y038168D01*
X027368Y037571D02*
X027368Y037231D01*
X028368Y036231D01*
X027368Y036891D02*
X027368Y037231D01*
X032486Y037231D02*
X032486Y036891D01*
X032486Y037231D02*
X033486Y036231D01*
X034454Y036210D02*
X032498Y036210D01*
X032498Y036299D01*
X032486Y037231D02*
X032486Y037571D01*
X032497Y038168D02*
X032497Y038259D01*
X034446Y038259D01*
X034446Y038261D01*
X034466Y038261D01*
X034466Y038161D01*
X034486Y037551D02*
X034486Y036881D01*
X034474Y036318D02*
X034474Y036211D01*
X034454Y036211D01*
X034454Y036210D01*
M02*
