G75*
%MOIN*%
%OFA0B0*%
%FSLAX24Y24*%
%IPPOS*%
%LPD*%
%AMOC8*
5,1,8,0,0,1.08239X$1,22.5*
%
%ADD10C,0.0100*%
%ADD11C,0.0000*%
%ADD12C,0.1575*%
%ADD13C,0.0039*%
%ADD14C,0.1260*%
%ADD15R,0.0650X0.0394*%
%ADD16C,0.0660*%
%ADD17C,0.0433*%
%ADD18C,0.0300*%
D10*
X005927Y004947D02*
X035455Y004947D01*
X035579Y004949D01*
X035702Y004955D01*
X035826Y004964D01*
X035948Y004978D01*
X036071Y004995D01*
X036193Y005017D01*
X036314Y005042D01*
X036434Y005071D01*
X036553Y005103D01*
X036672Y005140D01*
X036789Y005180D01*
X036904Y005223D01*
X037019Y005271D01*
X037131Y005322D01*
X037242Y005376D01*
X037352Y005434D01*
X037459Y005495D01*
X037565Y005560D01*
X037668Y005628D01*
X037769Y005699D01*
X037868Y005773D01*
X037965Y005850D01*
X038059Y005931D01*
X038150Y006014D01*
X038239Y006100D01*
X038325Y006189D01*
X038408Y006280D01*
X038489Y006374D01*
X038566Y006471D01*
X038640Y006570D01*
X038711Y006671D01*
X038779Y006774D01*
X038844Y006880D01*
X038905Y006987D01*
X038963Y007097D01*
X039017Y007208D01*
X039068Y007320D01*
X039116Y007435D01*
X039159Y007550D01*
X039199Y007667D01*
X039236Y007786D01*
X039268Y007905D01*
X039297Y008025D01*
X039322Y008146D01*
X039344Y008268D01*
X039361Y008391D01*
X039375Y008513D01*
X039384Y008637D01*
X039390Y008760D01*
X039392Y008884D01*
X039392Y037231D01*
X039390Y037308D01*
X039384Y037385D01*
X039375Y037462D01*
X039362Y037538D01*
X039345Y037614D01*
X039324Y037688D01*
X039300Y037762D01*
X039272Y037834D01*
X039241Y037904D01*
X039206Y037973D01*
X039168Y038041D01*
X039127Y038106D01*
X039082Y038169D01*
X039034Y038230D01*
X038984Y038289D01*
X038931Y038345D01*
X038875Y038398D01*
X038816Y038448D01*
X038755Y038496D01*
X038692Y038541D01*
X038627Y038582D01*
X038559Y038620D01*
X038490Y038655D01*
X038420Y038686D01*
X038348Y038714D01*
X038274Y038738D01*
X038200Y038759D01*
X038124Y038776D01*
X038048Y038789D01*
X037971Y038798D01*
X037894Y038804D01*
X037817Y038806D01*
X003565Y038806D01*
X003488Y038804D01*
X003411Y038798D01*
X003334Y038789D01*
X003258Y038776D01*
X003182Y038759D01*
X003108Y038738D01*
X003034Y038714D01*
X002962Y038686D01*
X002892Y038655D01*
X002823Y038620D01*
X002755Y038582D01*
X002690Y038541D01*
X002627Y038496D01*
X002566Y038448D01*
X002507Y038398D01*
X002451Y038345D01*
X002398Y038289D01*
X002348Y038230D01*
X002300Y038169D01*
X002255Y038106D01*
X002214Y038041D01*
X002176Y037973D01*
X002141Y037904D01*
X002110Y037834D01*
X002082Y037762D01*
X002058Y037688D01*
X002037Y037614D01*
X002020Y037538D01*
X002007Y037462D01*
X001998Y037385D01*
X001992Y037308D01*
X001990Y037231D01*
X001990Y008884D01*
X001992Y008760D01*
X001998Y008637D01*
X002007Y008513D01*
X002021Y008391D01*
X002038Y008268D01*
X002060Y008146D01*
X002085Y008025D01*
X002114Y007905D01*
X002146Y007786D01*
X002183Y007667D01*
X002223Y007550D01*
X002266Y007435D01*
X002314Y007320D01*
X002365Y007208D01*
X002419Y007097D01*
X002477Y006987D01*
X002538Y006880D01*
X002603Y006774D01*
X002671Y006671D01*
X002742Y006570D01*
X002816Y006471D01*
X002893Y006374D01*
X002974Y006280D01*
X003057Y006189D01*
X003143Y006100D01*
X003232Y006014D01*
X003323Y005931D01*
X003417Y005850D01*
X003514Y005773D01*
X003613Y005699D01*
X003714Y005628D01*
X003817Y005560D01*
X003923Y005495D01*
X004030Y005434D01*
X004140Y005376D01*
X004251Y005322D01*
X004363Y005271D01*
X004478Y005223D01*
X004593Y005180D01*
X004710Y005140D01*
X004829Y005103D01*
X004948Y005071D01*
X005068Y005042D01*
X005189Y005017D01*
X005311Y004995D01*
X005434Y004978D01*
X005556Y004964D01*
X005680Y004955D01*
X005803Y004949D01*
X005927Y004947D01*
D11*
X017974Y025707D02*
X017976Y025736D01*
X017982Y025764D01*
X017991Y025792D01*
X018004Y025818D01*
X018021Y025841D01*
X018040Y025863D01*
X018062Y025882D01*
X018087Y025897D01*
X018113Y025910D01*
X018141Y025918D01*
X018169Y025923D01*
X018198Y025924D01*
X018227Y025921D01*
X018255Y025914D01*
X018282Y025904D01*
X018308Y025890D01*
X018331Y025873D01*
X018352Y025853D01*
X018370Y025830D01*
X018385Y025805D01*
X018396Y025778D01*
X018404Y025750D01*
X018408Y025721D01*
X018408Y025693D01*
X018404Y025664D01*
X018396Y025636D01*
X018385Y025609D01*
X018370Y025584D01*
X018352Y025561D01*
X018331Y025541D01*
X018308Y025524D01*
X018282Y025510D01*
X018255Y025500D01*
X018227Y025493D01*
X018198Y025490D01*
X018169Y025491D01*
X018141Y025496D01*
X018113Y025504D01*
X018087Y025517D01*
X018062Y025532D01*
X018040Y025551D01*
X018021Y025573D01*
X018004Y025596D01*
X017991Y025622D01*
X017982Y025650D01*
X017976Y025678D01*
X017974Y025707D01*
X017974Y026707D02*
X017976Y026736D01*
X017982Y026764D01*
X017991Y026792D01*
X018004Y026818D01*
X018021Y026841D01*
X018040Y026863D01*
X018062Y026882D01*
X018087Y026897D01*
X018113Y026910D01*
X018141Y026918D01*
X018169Y026923D01*
X018198Y026924D01*
X018227Y026921D01*
X018255Y026914D01*
X018282Y026904D01*
X018308Y026890D01*
X018331Y026873D01*
X018352Y026853D01*
X018370Y026830D01*
X018385Y026805D01*
X018396Y026778D01*
X018404Y026750D01*
X018408Y026721D01*
X018408Y026693D01*
X018404Y026664D01*
X018396Y026636D01*
X018385Y026609D01*
X018370Y026584D01*
X018352Y026561D01*
X018331Y026541D01*
X018308Y026524D01*
X018282Y026510D01*
X018255Y026500D01*
X018227Y026493D01*
X018198Y026490D01*
X018169Y026491D01*
X018141Y026496D01*
X018113Y026504D01*
X018087Y026517D01*
X018062Y026532D01*
X018040Y026551D01*
X018021Y026573D01*
X018004Y026596D01*
X017991Y026622D01*
X017982Y026650D01*
X017976Y026678D01*
X017974Y026707D01*
X018974Y026707D02*
X018976Y026736D01*
X018982Y026764D01*
X018991Y026792D01*
X019004Y026818D01*
X019021Y026841D01*
X019040Y026863D01*
X019062Y026882D01*
X019087Y026897D01*
X019113Y026910D01*
X019141Y026918D01*
X019169Y026923D01*
X019198Y026924D01*
X019227Y026921D01*
X019255Y026914D01*
X019282Y026904D01*
X019308Y026890D01*
X019331Y026873D01*
X019352Y026853D01*
X019370Y026830D01*
X019385Y026805D01*
X019396Y026778D01*
X019404Y026750D01*
X019408Y026721D01*
X019408Y026693D01*
X019404Y026664D01*
X019396Y026636D01*
X019385Y026609D01*
X019370Y026584D01*
X019352Y026561D01*
X019331Y026541D01*
X019308Y026524D01*
X019282Y026510D01*
X019255Y026500D01*
X019227Y026493D01*
X019198Y026490D01*
X019169Y026491D01*
X019141Y026496D01*
X019113Y026504D01*
X019087Y026517D01*
X019062Y026532D01*
X019040Y026551D01*
X019021Y026573D01*
X019004Y026596D01*
X018991Y026622D01*
X018982Y026650D01*
X018976Y026678D01*
X018974Y026707D01*
X018974Y025707D02*
X018976Y025736D01*
X018982Y025764D01*
X018991Y025792D01*
X019004Y025818D01*
X019021Y025841D01*
X019040Y025863D01*
X019062Y025882D01*
X019087Y025897D01*
X019113Y025910D01*
X019141Y025918D01*
X019169Y025923D01*
X019198Y025924D01*
X019227Y025921D01*
X019255Y025914D01*
X019282Y025904D01*
X019308Y025890D01*
X019331Y025873D01*
X019352Y025853D01*
X019370Y025830D01*
X019385Y025805D01*
X019396Y025778D01*
X019404Y025750D01*
X019408Y025721D01*
X019408Y025693D01*
X019404Y025664D01*
X019396Y025636D01*
X019385Y025609D01*
X019370Y025584D01*
X019352Y025561D01*
X019331Y025541D01*
X019308Y025524D01*
X019282Y025510D01*
X019255Y025500D01*
X019227Y025493D01*
X019198Y025490D01*
X019169Y025491D01*
X019141Y025496D01*
X019113Y025504D01*
X019087Y025517D01*
X019062Y025532D01*
X019040Y025551D01*
X019021Y025573D01*
X019004Y025596D01*
X018991Y025622D01*
X018982Y025650D01*
X018976Y025678D01*
X018974Y025707D01*
X019974Y025707D02*
X019976Y025736D01*
X019982Y025764D01*
X019991Y025792D01*
X020004Y025818D01*
X020021Y025841D01*
X020040Y025863D01*
X020062Y025882D01*
X020087Y025897D01*
X020113Y025910D01*
X020141Y025918D01*
X020169Y025923D01*
X020198Y025924D01*
X020227Y025921D01*
X020255Y025914D01*
X020282Y025904D01*
X020308Y025890D01*
X020331Y025873D01*
X020352Y025853D01*
X020370Y025830D01*
X020385Y025805D01*
X020396Y025778D01*
X020404Y025750D01*
X020408Y025721D01*
X020408Y025693D01*
X020404Y025664D01*
X020396Y025636D01*
X020385Y025609D01*
X020370Y025584D01*
X020352Y025561D01*
X020331Y025541D01*
X020308Y025524D01*
X020282Y025510D01*
X020255Y025500D01*
X020227Y025493D01*
X020198Y025490D01*
X020169Y025491D01*
X020141Y025496D01*
X020113Y025504D01*
X020087Y025517D01*
X020062Y025532D01*
X020040Y025551D01*
X020021Y025573D01*
X020004Y025596D01*
X019991Y025622D01*
X019982Y025650D01*
X019976Y025678D01*
X019974Y025707D01*
X019974Y026707D02*
X019976Y026736D01*
X019982Y026764D01*
X019991Y026792D01*
X020004Y026818D01*
X020021Y026841D01*
X020040Y026863D01*
X020062Y026882D01*
X020087Y026897D01*
X020113Y026910D01*
X020141Y026918D01*
X020169Y026923D01*
X020198Y026924D01*
X020227Y026921D01*
X020255Y026914D01*
X020282Y026904D01*
X020308Y026890D01*
X020331Y026873D01*
X020352Y026853D01*
X020370Y026830D01*
X020385Y026805D01*
X020396Y026778D01*
X020404Y026750D01*
X020408Y026721D01*
X020408Y026693D01*
X020404Y026664D01*
X020396Y026636D01*
X020385Y026609D01*
X020370Y026584D01*
X020352Y026561D01*
X020331Y026541D01*
X020308Y026524D01*
X020282Y026510D01*
X020255Y026500D01*
X020227Y026493D01*
X020198Y026490D01*
X020169Y026491D01*
X020141Y026496D01*
X020113Y026504D01*
X020087Y026517D01*
X020062Y026532D01*
X020040Y026551D01*
X020021Y026573D01*
X020004Y026596D01*
X019991Y026622D01*
X019982Y026650D01*
X019976Y026678D01*
X019974Y026707D01*
X020974Y026707D02*
X020976Y026736D01*
X020982Y026764D01*
X020991Y026792D01*
X021004Y026818D01*
X021021Y026841D01*
X021040Y026863D01*
X021062Y026882D01*
X021087Y026897D01*
X021113Y026910D01*
X021141Y026918D01*
X021169Y026923D01*
X021198Y026924D01*
X021227Y026921D01*
X021255Y026914D01*
X021282Y026904D01*
X021308Y026890D01*
X021331Y026873D01*
X021352Y026853D01*
X021370Y026830D01*
X021385Y026805D01*
X021396Y026778D01*
X021404Y026750D01*
X021408Y026721D01*
X021408Y026693D01*
X021404Y026664D01*
X021396Y026636D01*
X021385Y026609D01*
X021370Y026584D01*
X021352Y026561D01*
X021331Y026541D01*
X021308Y026524D01*
X021282Y026510D01*
X021255Y026500D01*
X021227Y026493D01*
X021198Y026490D01*
X021169Y026491D01*
X021141Y026496D01*
X021113Y026504D01*
X021087Y026517D01*
X021062Y026532D01*
X021040Y026551D01*
X021021Y026573D01*
X021004Y026596D01*
X020991Y026622D01*
X020982Y026650D01*
X020976Y026678D01*
X020974Y026707D01*
X020974Y025707D02*
X020976Y025736D01*
X020982Y025764D01*
X020991Y025792D01*
X021004Y025818D01*
X021021Y025841D01*
X021040Y025863D01*
X021062Y025882D01*
X021087Y025897D01*
X021113Y025910D01*
X021141Y025918D01*
X021169Y025923D01*
X021198Y025924D01*
X021227Y025921D01*
X021255Y025914D01*
X021282Y025904D01*
X021308Y025890D01*
X021331Y025873D01*
X021352Y025853D01*
X021370Y025830D01*
X021385Y025805D01*
X021396Y025778D01*
X021404Y025750D01*
X021408Y025721D01*
X021408Y025693D01*
X021404Y025664D01*
X021396Y025636D01*
X021385Y025609D01*
X021370Y025584D01*
X021352Y025561D01*
X021331Y025541D01*
X021308Y025524D01*
X021282Y025510D01*
X021255Y025500D01*
X021227Y025493D01*
X021198Y025490D01*
X021169Y025491D01*
X021141Y025496D01*
X021113Y025504D01*
X021087Y025517D01*
X021062Y025532D01*
X021040Y025551D01*
X021021Y025573D01*
X021004Y025596D01*
X020991Y025622D01*
X020982Y025650D01*
X020976Y025678D01*
X020974Y025707D01*
X021974Y025707D02*
X021976Y025736D01*
X021982Y025764D01*
X021991Y025792D01*
X022004Y025818D01*
X022021Y025841D01*
X022040Y025863D01*
X022062Y025882D01*
X022087Y025897D01*
X022113Y025910D01*
X022141Y025918D01*
X022169Y025923D01*
X022198Y025924D01*
X022227Y025921D01*
X022255Y025914D01*
X022282Y025904D01*
X022308Y025890D01*
X022331Y025873D01*
X022352Y025853D01*
X022370Y025830D01*
X022385Y025805D01*
X022396Y025778D01*
X022404Y025750D01*
X022408Y025721D01*
X022408Y025693D01*
X022404Y025664D01*
X022396Y025636D01*
X022385Y025609D01*
X022370Y025584D01*
X022352Y025561D01*
X022331Y025541D01*
X022308Y025524D01*
X022282Y025510D01*
X022255Y025500D01*
X022227Y025493D01*
X022198Y025490D01*
X022169Y025491D01*
X022141Y025496D01*
X022113Y025504D01*
X022087Y025517D01*
X022062Y025532D01*
X022040Y025551D01*
X022021Y025573D01*
X022004Y025596D01*
X021991Y025622D01*
X021982Y025650D01*
X021976Y025678D01*
X021974Y025707D01*
X021974Y026707D02*
X021976Y026736D01*
X021982Y026764D01*
X021991Y026792D01*
X022004Y026818D01*
X022021Y026841D01*
X022040Y026863D01*
X022062Y026882D01*
X022087Y026897D01*
X022113Y026910D01*
X022141Y026918D01*
X022169Y026923D01*
X022198Y026924D01*
X022227Y026921D01*
X022255Y026914D01*
X022282Y026904D01*
X022308Y026890D01*
X022331Y026873D01*
X022352Y026853D01*
X022370Y026830D01*
X022385Y026805D01*
X022396Y026778D01*
X022404Y026750D01*
X022408Y026721D01*
X022408Y026693D01*
X022404Y026664D01*
X022396Y026636D01*
X022385Y026609D01*
X022370Y026584D01*
X022352Y026561D01*
X022331Y026541D01*
X022308Y026524D01*
X022282Y026510D01*
X022255Y026500D01*
X022227Y026493D01*
X022198Y026490D01*
X022169Y026491D01*
X022141Y026496D01*
X022113Y026504D01*
X022087Y026517D01*
X022062Y026532D01*
X022040Y026551D01*
X022021Y026573D01*
X022004Y026596D01*
X021991Y026622D01*
X021982Y026650D01*
X021976Y026678D01*
X021974Y026707D01*
X022974Y026707D02*
X022976Y026736D01*
X022982Y026764D01*
X022991Y026792D01*
X023004Y026818D01*
X023021Y026841D01*
X023040Y026863D01*
X023062Y026882D01*
X023087Y026897D01*
X023113Y026910D01*
X023141Y026918D01*
X023169Y026923D01*
X023198Y026924D01*
X023227Y026921D01*
X023255Y026914D01*
X023282Y026904D01*
X023308Y026890D01*
X023331Y026873D01*
X023352Y026853D01*
X023370Y026830D01*
X023385Y026805D01*
X023396Y026778D01*
X023404Y026750D01*
X023408Y026721D01*
X023408Y026693D01*
X023404Y026664D01*
X023396Y026636D01*
X023385Y026609D01*
X023370Y026584D01*
X023352Y026561D01*
X023331Y026541D01*
X023308Y026524D01*
X023282Y026510D01*
X023255Y026500D01*
X023227Y026493D01*
X023198Y026490D01*
X023169Y026491D01*
X023141Y026496D01*
X023113Y026504D01*
X023087Y026517D01*
X023062Y026532D01*
X023040Y026551D01*
X023021Y026573D01*
X023004Y026596D01*
X022991Y026622D01*
X022982Y026650D01*
X022976Y026678D01*
X022974Y026707D01*
X022974Y025707D02*
X022976Y025736D01*
X022982Y025764D01*
X022991Y025792D01*
X023004Y025818D01*
X023021Y025841D01*
X023040Y025863D01*
X023062Y025882D01*
X023087Y025897D01*
X023113Y025910D01*
X023141Y025918D01*
X023169Y025923D01*
X023198Y025924D01*
X023227Y025921D01*
X023255Y025914D01*
X023282Y025904D01*
X023308Y025890D01*
X023331Y025873D01*
X023352Y025853D01*
X023370Y025830D01*
X023385Y025805D01*
X023396Y025778D01*
X023404Y025750D01*
X023408Y025721D01*
X023408Y025693D01*
X023404Y025664D01*
X023396Y025636D01*
X023385Y025609D01*
X023370Y025584D01*
X023352Y025561D01*
X023331Y025541D01*
X023308Y025524D01*
X023282Y025510D01*
X023255Y025500D01*
X023227Y025493D01*
X023198Y025490D01*
X023169Y025491D01*
X023141Y025496D01*
X023113Y025504D01*
X023087Y025517D01*
X023062Y025532D01*
X023040Y025551D01*
X023021Y025573D01*
X023004Y025596D01*
X022991Y025622D01*
X022982Y025650D01*
X022976Y025678D01*
X022974Y025707D01*
X030101Y037624D02*
X030103Y037674D01*
X030109Y037724D01*
X030119Y037773D01*
X030133Y037821D01*
X030150Y037868D01*
X030171Y037913D01*
X030196Y037957D01*
X030224Y037998D01*
X030256Y038037D01*
X030290Y038074D01*
X030327Y038108D01*
X030367Y038138D01*
X030409Y038165D01*
X030453Y038189D01*
X030499Y038210D01*
X030546Y038226D01*
X030594Y038239D01*
X030644Y038248D01*
X030693Y038253D01*
X030744Y038254D01*
X030794Y038251D01*
X030843Y038244D01*
X030892Y038233D01*
X030940Y038218D01*
X030986Y038200D01*
X031031Y038178D01*
X031074Y038152D01*
X031115Y038123D01*
X031154Y038091D01*
X031190Y038056D01*
X031222Y038018D01*
X031252Y037978D01*
X031279Y037935D01*
X031302Y037891D01*
X031321Y037845D01*
X031337Y037797D01*
X031349Y037748D01*
X031357Y037699D01*
X031361Y037649D01*
X031361Y037599D01*
X031357Y037549D01*
X031349Y037500D01*
X031337Y037451D01*
X031321Y037403D01*
X031302Y037357D01*
X031279Y037313D01*
X031252Y037270D01*
X031222Y037230D01*
X031190Y037192D01*
X031154Y037157D01*
X031115Y037125D01*
X031074Y037096D01*
X031031Y037070D01*
X030986Y037048D01*
X030940Y037030D01*
X030892Y037015D01*
X030843Y037004D01*
X030794Y036997D01*
X030744Y036994D01*
X030693Y036995D01*
X030644Y037000D01*
X030594Y037009D01*
X030546Y037022D01*
X030499Y037038D01*
X030453Y037059D01*
X030409Y037083D01*
X030367Y037110D01*
X030327Y037140D01*
X030290Y037174D01*
X030256Y037211D01*
X030224Y037250D01*
X030196Y037291D01*
X030171Y037335D01*
X030150Y037380D01*
X030133Y037427D01*
X030119Y037475D01*
X030109Y037524D01*
X030103Y037574D01*
X030101Y037624D01*
X036518Y032034D02*
X036518Y031561D01*
X037187Y034869D02*
X037189Y034919D01*
X037195Y034969D01*
X037205Y035018D01*
X037219Y035066D01*
X037236Y035113D01*
X037257Y035158D01*
X037282Y035202D01*
X037310Y035243D01*
X037342Y035282D01*
X037376Y035319D01*
X037413Y035353D01*
X037453Y035383D01*
X037495Y035410D01*
X037539Y035434D01*
X037585Y035455D01*
X037632Y035471D01*
X037680Y035484D01*
X037730Y035493D01*
X037779Y035498D01*
X037830Y035499D01*
X037880Y035496D01*
X037929Y035489D01*
X037978Y035478D01*
X038026Y035463D01*
X038072Y035445D01*
X038117Y035423D01*
X038160Y035397D01*
X038201Y035368D01*
X038240Y035336D01*
X038276Y035301D01*
X038308Y035263D01*
X038338Y035223D01*
X038365Y035180D01*
X038388Y035136D01*
X038407Y035090D01*
X038423Y035042D01*
X038435Y034993D01*
X038443Y034944D01*
X038447Y034894D01*
X038447Y034844D01*
X038443Y034794D01*
X038435Y034745D01*
X038423Y034696D01*
X038407Y034648D01*
X038388Y034602D01*
X038365Y034558D01*
X038338Y034515D01*
X038308Y034475D01*
X038276Y034437D01*
X038240Y034402D01*
X038201Y034370D01*
X038160Y034341D01*
X038117Y034315D01*
X038072Y034293D01*
X038026Y034275D01*
X037978Y034260D01*
X037929Y034249D01*
X037880Y034242D01*
X037830Y034239D01*
X037779Y034240D01*
X037730Y034245D01*
X037680Y034254D01*
X037632Y034267D01*
X037585Y034283D01*
X037539Y034304D01*
X037495Y034328D01*
X037453Y034355D01*
X037413Y034385D01*
X037376Y034419D01*
X037342Y034456D01*
X037310Y034495D01*
X037282Y034536D01*
X037257Y034580D01*
X037236Y034625D01*
X037219Y034672D01*
X037205Y034720D01*
X037195Y034769D01*
X037189Y034819D01*
X037187Y034869D01*
X037030Y037231D02*
X037032Y037287D01*
X037038Y037342D01*
X037048Y037396D01*
X037061Y037450D01*
X037079Y037503D01*
X037100Y037554D01*
X037124Y037604D01*
X037152Y037652D01*
X037184Y037698D01*
X037218Y037742D01*
X037256Y037783D01*
X037296Y037821D01*
X037339Y037856D01*
X037384Y037888D01*
X037432Y037917D01*
X037481Y037943D01*
X037532Y037965D01*
X037584Y037983D01*
X037638Y037997D01*
X037693Y038008D01*
X037748Y038015D01*
X037803Y038018D01*
X037859Y038017D01*
X037914Y038012D01*
X037969Y038003D01*
X038023Y037991D01*
X038076Y037974D01*
X038128Y037954D01*
X038178Y037930D01*
X038226Y037903D01*
X038273Y037873D01*
X038317Y037839D01*
X038359Y037802D01*
X038397Y037762D01*
X038434Y037720D01*
X038467Y037675D01*
X038496Y037629D01*
X038523Y037580D01*
X038545Y037529D01*
X038565Y037477D01*
X038580Y037423D01*
X038592Y037369D01*
X038600Y037314D01*
X038604Y037259D01*
X038604Y037203D01*
X038600Y037148D01*
X038592Y037093D01*
X038580Y037039D01*
X038565Y036985D01*
X038545Y036933D01*
X038523Y036882D01*
X038496Y036833D01*
X038467Y036787D01*
X038434Y036742D01*
X038397Y036700D01*
X038359Y036660D01*
X038317Y036623D01*
X038273Y036589D01*
X038226Y036559D01*
X038178Y036532D01*
X038128Y036508D01*
X038076Y036488D01*
X038023Y036471D01*
X037969Y036459D01*
X037914Y036450D01*
X037859Y036445D01*
X037803Y036444D01*
X037748Y036447D01*
X037693Y036454D01*
X037638Y036465D01*
X037584Y036479D01*
X037532Y036497D01*
X037481Y036519D01*
X037432Y036545D01*
X037384Y036574D01*
X037339Y036606D01*
X037296Y036641D01*
X037256Y036679D01*
X037218Y036720D01*
X037184Y036764D01*
X037152Y036810D01*
X037124Y036858D01*
X037100Y036908D01*
X037079Y036959D01*
X037061Y037012D01*
X037048Y037066D01*
X037038Y037120D01*
X037032Y037175D01*
X037030Y037231D01*
X037187Y021876D02*
X037189Y021926D01*
X037195Y021976D01*
X037205Y022025D01*
X037219Y022073D01*
X037236Y022120D01*
X037257Y022165D01*
X037282Y022209D01*
X037310Y022250D01*
X037342Y022289D01*
X037376Y022326D01*
X037413Y022360D01*
X037453Y022390D01*
X037495Y022417D01*
X037539Y022441D01*
X037585Y022462D01*
X037632Y022478D01*
X037680Y022491D01*
X037730Y022500D01*
X037779Y022505D01*
X037830Y022506D01*
X037880Y022503D01*
X037929Y022496D01*
X037978Y022485D01*
X038026Y022470D01*
X038072Y022452D01*
X038117Y022430D01*
X038160Y022404D01*
X038201Y022375D01*
X038240Y022343D01*
X038276Y022308D01*
X038308Y022270D01*
X038338Y022230D01*
X038365Y022187D01*
X038388Y022143D01*
X038407Y022097D01*
X038423Y022049D01*
X038435Y022000D01*
X038443Y021951D01*
X038447Y021901D01*
X038447Y021851D01*
X038443Y021801D01*
X038435Y021752D01*
X038423Y021703D01*
X038407Y021655D01*
X038388Y021609D01*
X038365Y021565D01*
X038338Y021522D01*
X038308Y021482D01*
X038276Y021444D01*
X038240Y021409D01*
X038201Y021377D01*
X038160Y021348D01*
X038117Y021322D01*
X038072Y021300D01*
X038026Y021282D01*
X037978Y021267D01*
X037929Y021256D01*
X037880Y021249D01*
X037830Y021246D01*
X037779Y021247D01*
X037730Y021252D01*
X037680Y021261D01*
X037632Y021274D01*
X037585Y021290D01*
X037539Y021311D01*
X037495Y021335D01*
X037453Y021362D01*
X037413Y021392D01*
X037376Y021426D01*
X037342Y021463D01*
X037310Y021502D01*
X037282Y021543D01*
X037257Y021587D01*
X037236Y021632D01*
X037219Y021679D01*
X037205Y021727D01*
X037195Y021776D01*
X037189Y021826D01*
X037187Y021876D01*
X010022Y037624D02*
X010024Y037674D01*
X010030Y037724D01*
X010040Y037773D01*
X010054Y037821D01*
X010071Y037868D01*
X010092Y037913D01*
X010117Y037957D01*
X010145Y037998D01*
X010177Y038037D01*
X010211Y038074D01*
X010248Y038108D01*
X010288Y038138D01*
X010330Y038165D01*
X010374Y038189D01*
X010420Y038210D01*
X010467Y038226D01*
X010515Y038239D01*
X010565Y038248D01*
X010614Y038253D01*
X010665Y038254D01*
X010715Y038251D01*
X010764Y038244D01*
X010813Y038233D01*
X010861Y038218D01*
X010907Y038200D01*
X010952Y038178D01*
X010995Y038152D01*
X011036Y038123D01*
X011075Y038091D01*
X011111Y038056D01*
X011143Y038018D01*
X011173Y037978D01*
X011200Y037935D01*
X011223Y037891D01*
X011242Y037845D01*
X011258Y037797D01*
X011270Y037748D01*
X011278Y037699D01*
X011282Y037649D01*
X011282Y037599D01*
X011278Y037549D01*
X011270Y037500D01*
X011258Y037451D01*
X011242Y037403D01*
X011223Y037357D01*
X011200Y037313D01*
X011173Y037270D01*
X011143Y037230D01*
X011111Y037192D01*
X011075Y037157D01*
X011036Y037125D01*
X010995Y037096D01*
X010952Y037070D01*
X010907Y037048D01*
X010861Y037030D01*
X010813Y037015D01*
X010764Y037004D01*
X010715Y036997D01*
X010665Y036994D01*
X010614Y036995D01*
X010565Y037000D01*
X010515Y037009D01*
X010467Y037022D01*
X010420Y037038D01*
X010374Y037059D01*
X010330Y037083D01*
X010288Y037110D01*
X010248Y037140D01*
X010211Y037174D01*
X010177Y037211D01*
X010145Y037250D01*
X010117Y037291D01*
X010092Y037335D01*
X010071Y037380D01*
X010054Y037427D01*
X010040Y037475D01*
X010030Y037524D01*
X010024Y037574D01*
X010022Y037624D01*
X002778Y037231D02*
X002780Y037287D01*
X002786Y037342D01*
X002796Y037396D01*
X002809Y037450D01*
X002827Y037503D01*
X002848Y037554D01*
X002872Y037604D01*
X002900Y037652D01*
X002932Y037698D01*
X002966Y037742D01*
X003004Y037783D01*
X003044Y037821D01*
X003087Y037856D01*
X003132Y037888D01*
X003180Y037917D01*
X003229Y037943D01*
X003280Y037965D01*
X003332Y037983D01*
X003386Y037997D01*
X003441Y038008D01*
X003496Y038015D01*
X003551Y038018D01*
X003607Y038017D01*
X003662Y038012D01*
X003717Y038003D01*
X003771Y037991D01*
X003824Y037974D01*
X003876Y037954D01*
X003926Y037930D01*
X003974Y037903D01*
X004021Y037873D01*
X004065Y037839D01*
X004107Y037802D01*
X004145Y037762D01*
X004182Y037720D01*
X004215Y037675D01*
X004244Y037629D01*
X004271Y037580D01*
X004293Y037529D01*
X004313Y037477D01*
X004328Y037423D01*
X004340Y037369D01*
X004348Y037314D01*
X004352Y037259D01*
X004352Y037203D01*
X004348Y037148D01*
X004340Y037093D01*
X004328Y037039D01*
X004313Y036985D01*
X004293Y036933D01*
X004271Y036882D01*
X004244Y036833D01*
X004215Y036787D01*
X004182Y036742D01*
X004145Y036700D01*
X004107Y036660D01*
X004065Y036623D01*
X004021Y036589D01*
X003974Y036559D01*
X003926Y036532D01*
X003876Y036508D01*
X003824Y036488D01*
X003771Y036471D01*
X003717Y036459D01*
X003662Y036450D01*
X003607Y036445D01*
X003551Y036444D01*
X003496Y036447D01*
X003441Y036454D01*
X003386Y036465D01*
X003332Y036479D01*
X003280Y036497D01*
X003229Y036519D01*
X003180Y036545D01*
X003132Y036574D01*
X003087Y036606D01*
X003044Y036641D01*
X003004Y036679D01*
X002966Y036720D01*
X002932Y036764D01*
X002900Y036810D01*
X002872Y036858D01*
X002848Y036908D01*
X002827Y036959D01*
X002809Y037012D01*
X002796Y037066D01*
X002786Y037120D01*
X002780Y037175D01*
X002778Y037231D01*
X002541Y027782D02*
X002543Y027832D01*
X002549Y027882D01*
X002559Y027931D01*
X002573Y027979D01*
X002590Y028026D01*
X002611Y028071D01*
X002636Y028115D01*
X002664Y028156D01*
X002696Y028195D01*
X002730Y028232D01*
X002767Y028266D01*
X002807Y028296D01*
X002849Y028323D01*
X002893Y028347D01*
X002939Y028368D01*
X002986Y028384D01*
X003034Y028397D01*
X003084Y028406D01*
X003133Y028411D01*
X003184Y028412D01*
X003234Y028409D01*
X003283Y028402D01*
X003332Y028391D01*
X003380Y028376D01*
X003426Y028358D01*
X003471Y028336D01*
X003514Y028310D01*
X003555Y028281D01*
X003594Y028249D01*
X003630Y028214D01*
X003662Y028176D01*
X003692Y028136D01*
X003719Y028093D01*
X003742Y028049D01*
X003761Y028003D01*
X003777Y027955D01*
X003789Y027906D01*
X003797Y027857D01*
X003801Y027807D01*
X003801Y027757D01*
X003797Y027707D01*
X003789Y027658D01*
X003777Y027609D01*
X003761Y027561D01*
X003742Y027515D01*
X003719Y027471D01*
X003692Y027428D01*
X003662Y027388D01*
X003630Y027350D01*
X003594Y027315D01*
X003555Y027283D01*
X003514Y027254D01*
X003471Y027228D01*
X003426Y027206D01*
X003380Y027188D01*
X003332Y027173D01*
X003283Y027162D01*
X003234Y027155D01*
X003184Y027152D01*
X003133Y027153D01*
X003084Y027158D01*
X003034Y027167D01*
X002986Y027180D01*
X002939Y027196D01*
X002893Y027217D01*
X002849Y027241D01*
X002807Y027268D01*
X002767Y027298D01*
X002730Y027332D01*
X002696Y027369D01*
X002664Y027408D01*
X002636Y027449D01*
X002611Y027493D01*
X002590Y027538D01*
X002573Y027585D01*
X002559Y027633D01*
X002549Y027682D01*
X002543Y027732D01*
X002541Y027782D01*
D12*
X003565Y037231D03*
X037817Y037231D03*
D13*
X038171Y032034D02*
X036518Y032034D01*
X036518Y024711D01*
X038171Y024711D01*
X038171Y032034D01*
D14*
X037817Y034869D03*
X030731Y037624D03*
X037817Y021876D03*
X010652Y037624D03*
X003171Y027782D03*
D15*
X006881Y036601D03*
X006881Y037861D03*
X008910Y037861D03*
X008910Y036601D03*
X011999Y036601D03*
X011999Y037861D03*
X014029Y037861D03*
X014029Y036601D03*
X017118Y036601D03*
X017118Y037861D03*
X019147Y037861D03*
X019147Y036601D03*
X022236Y036601D03*
X022236Y037861D03*
X024265Y037861D03*
X024265Y036601D03*
X027354Y036601D03*
X027354Y037861D03*
X029383Y037861D03*
X029383Y036601D03*
X032472Y036601D03*
X032472Y037861D03*
X034501Y037861D03*
X034501Y036601D03*
D16*
X035301Y036317D03*
X036219Y036325D03*
D17*
X023191Y026707D03*
X022191Y026707D03*
X022191Y025707D03*
X023191Y025707D03*
X021191Y025707D03*
X020191Y025707D03*
X020191Y026707D03*
X021191Y026707D03*
X019191Y026707D03*
X018191Y026707D03*
X018191Y025707D03*
X019191Y025707D03*
D18*
X019510Y028766D03*
X019116Y029160D03*
X018723Y028766D03*
X019904Y029160D03*
X020297Y028766D03*
X020691Y029160D03*
X021085Y028766D03*
X021479Y029160D03*
X024038Y028569D03*
X024431Y028176D03*
X029156Y026798D03*
X029549Y026404D03*
X029943Y026798D03*
X031912Y030538D03*
X032502Y030932D03*
X033486Y029160D03*
X033093Y028766D03*
X033486Y028373D03*
X033093Y027979D03*
X033486Y027585D03*
X033093Y027191D03*
X033486Y026837D03*
X026164Y036325D03*
X021675Y037034D03*
X021282Y036640D03*
X020888Y037034D03*
X020494Y036640D03*
X011636Y033294D03*
X011242Y032900D03*
X011636Y032506D03*
X011242Y032113D03*
X011636Y031719D03*
X011242Y031325D03*
X011636Y030932D03*
X007109Y035853D03*
X006518Y035853D03*
X005927Y035853D03*
X005337Y035853D03*
X017489Y020455D03*
X018329Y020452D03*
X018335Y019796D03*
M02*
