G75*
%MOIN*%
%OFA0B0*%
%FSLAX24Y24*%
%IPPOS*%
%LPD*%
%AMOC8*
5,1,8,0,0,1.08239X$1,22.5*
%
%ADD10C,0.0160*%
%ADD11C,0.0100*%
%ADD12C,0.0000*%
%ADD13C,0.0039*%
%ADD14C,0.0060*%
%ADD15C,0.0040*%
%ADD16R,0.0827X0.0866*%
%ADD17C,0.0110*%
%ADD18C,0.0080*%
%ADD19C,0.0050*%
%ADD20C,0.0176*%
%ADD21C,0.0030*%
D10*
X009156Y005735D02*
X009156Y021325D01*
X032187Y021325D01*
X032187Y005695D01*
X009156Y005735D01*
X017771Y027758D02*
X017773Y027771D01*
X017778Y027784D01*
X017787Y027795D01*
X017798Y027802D01*
X017811Y027807D01*
X017824Y027808D01*
X017838Y027805D01*
X017850Y027799D01*
X017860Y027790D01*
X017867Y027778D01*
X017871Y027765D01*
X017871Y027751D01*
X017867Y027738D01*
X017860Y027726D01*
X017850Y027717D01*
X017838Y027711D01*
X017824Y027708D01*
X017811Y027709D01*
X017798Y027714D01*
X017787Y027721D01*
X017778Y027732D01*
X017773Y027745D01*
X017771Y027758D01*
X021918Y035046D02*
X021920Y035064D01*
X021926Y035080D01*
X021935Y035095D01*
X021948Y035108D01*
X021963Y035117D01*
X021979Y035123D01*
X021997Y035125D01*
X022015Y035123D01*
X022031Y035117D01*
X022046Y035108D01*
X022059Y035095D01*
X022068Y035080D01*
X022074Y035064D01*
X022076Y035046D01*
X022074Y035028D01*
X022068Y035012D01*
X022059Y034997D01*
X022046Y034984D01*
X022031Y034975D01*
X022015Y034969D01*
X021997Y034967D01*
X021979Y034969D01*
X021963Y034975D01*
X021948Y034984D01*
X021935Y034997D01*
X021926Y035012D01*
X021920Y035028D01*
X021918Y035046D01*
X031686Y034357D02*
X031688Y034444D01*
X031694Y034532D01*
X031704Y034618D01*
X031718Y034705D01*
X031736Y034790D01*
X031757Y034875D01*
X031783Y034958D01*
X031812Y035041D01*
X031845Y035122D01*
X031881Y035201D01*
X031922Y035278D01*
X031965Y035354D01*
X032012Y035428D01*
X032063Y035499D01*
X032116Y035568D01*
X032173Y035635D01*
X032233Y035698D01*
X032295Y035759D01*
X032360Y035818D01*
X032428Y035873D01*
X032498Y035925D01*
X032571Y035974D01*
X032645Y036019D01*
X032722Y036061D01*
X032801Y036099D01*
X032881Y036134D01*
X032962Y036165D01*
X033045Y036193D01*
X033129Y036216D01*
X033215Y036236D01*
X033300Y036252D01*
X033387Y036264D01*
X033474Y036272D01*
X033561Y036276D01*
X033649Y036276D01*
X033736Y036272D01*
X033823Y036264D01*
X033910Y036252D01*
X033995Y036236D01*
X034081Y036216D01*
X034165Y036193D01*
X034248Y036165D01*
X034329Y036134D01*
X034409Y036099D01*
X034488Y036061D01*
X034564Y036019D01*
X034639Y035974D01*
X034712Y035925D01*
X034782Y035873D01*
X034850Y035818D01*
X034915Y035759D01*
X034977Y035698D01*
X035037Y035635D01*
X035094Y035568D01*
X035147Y035499D01*
X035198Y035428D01*
X035245Y035354D01*
X035288Y035278D01*
X035329Y035201D01*
X035365Y035122D01*
X035398Y035041D01*
X035427Y034958D01*
X035453Y034875D01*
X035474Y034790D01*
X035492Y034705D01*
X035506Y034618D01*
X035516Y034532D01*
X035522Y034444D01*
X035524Y034357D01*
X035522Y034270D01*
X035516Y034182D01*
X035506Y034096D01*
X035492Y034009D01*
X035474Y033924D01*
X035453Y033839D01*
X035427Y033756D01*
X035398Y033673D01*
X035365Y033592D01*
X035329Y033513D01*
X035288Y033436D01*
X035245Y033360D01*
X035198Y033286D01*
X035147Y033215D01*
X035094Y033146D01*
X035037Y033079D01*
X034977Y033016D01*
X034915Y032955D01*
X034850Y032896D01*
X034782Y032841D01*
X034712Y032789D01*
X034639Y032740D01*
X034565Y032695D01*
X034488Y032653D01*
X034409Y032615D01*
X034329Y032580D01*
X034248Y032549D01*
X034165Y032521D01*
X034081Y032498D01*
X033995Y032478D01*
X033910Y032462D01*
X033823Y032450D01*
X033736Y032442D01*
X033649Y032438D01*
X033561Y032438D01*
X033474Y032442D01*
X033387Y032450D01*
X033300Y032462D01*
X033215Y032478D01*
X033129Y032498D01*
X033045Y032521D01*
X032962Y032549D01*
X032881Y032580D01*
X032801Y032615D01*
X032722Y032653D01*
X032645Y032695D01*
X032571Y032740D01*
X032498Y032789D01*
X032428Y032841D01*
X032360Y032896D01*
X032295Y032955D01*
X032233Y033016D01*
X032173Y033079D01*
X032116Y033146D01*
X032063Y033215D01*
X032012Y033286D01*
X031965Y033360D01*
X031922Y033436D01*
X031881Y033513D01*
X031845Y033592D01*
X031812Y033673D01*
X031783Y033756D01*
X031757Y033839D01*
X031736Y033924D01*
X031718Y034009D01*
X031704Y034096D01*
X031694Y034182D01*
X031688Y034270D01*
X031686Y034357D01*
D11*
X035455Y004947D02*
X005927Y004947D01*
X005803Y004949D01*
X005680Y004955D01*
X005556Y004964D01*
X005434Y004978D01*
X005311Y004995D01*
X005189Y005017D01*
X005068Y005042D01*
X004948Y005071D01*
X004829Y005103D01*
X004710Y005140D01*
X004593Y005180D01*
X004478Y005223D01*
X004363Y005271D01*
X004251Y005322D01*
X004140Y005376D01*
X004030Y005434D01*
X003923Y005495D01*
X003817Y005560D01*
X003714Y005628D01*
X003613Y005699D01*
X003514Y005773D01*
X003417Y005850D01*
X003323Y005931D01*
X003232Y006014D01*
X003143Y006100D01*
X003057Y006189D01*
X002974Y006280D01*
X002893Y006374D01*
X002816Y006471D01*
X002742Y006570D01*
X002671Y006671D01*
X002603Y006774D01*
X002538Y006880D01*
X002477Y006987D01*
X002419Y007097D01*
X002365Y007208D01*
X002314Y007320D01*
X002266Y007435D01*
X002223Y007550D01*
X002183Y007667D01*
X002146Y007786D01*
X002114Y007905D01*
X002085Y008025D01*
X002060Y008146D01*
X002038Y008268D01*
X002021Y008391D01*
X002007Y008513D01*
X001998Y008637D01*
X001992Y008760D01*
X001990Y008884D01*
X001990Y037231D01*
X001992Y037308D01*
X001998Y037385D01*
X002007Y037462D01*
X002020Y037538D01*
X002037Y037614D01*
X002058Y037688D01*
X002082Y037762D01*
X002110Y037834D01*
X002141Y037904D01*
X002176Y037973D01*
X002214Y038041D01*
X002255Y038106D01*
X002300Y038169D01*
X002348Y038230D01*
X002398Y038289D01*
X002451Y038345D01*
X002507Y038398D01*
X002566Y038448D01*
X002627Y038496D01*
X002690Y038541D01*
X002755Y038582D01*
X002823Y038620D01*
X002892Y038655D01*
X002962Y038686D01*
X003034Y038714D01*
X003108Y038738D01*
X003182Y038759D01*
X003258Y038776D01*
X003334Y038789D01*
X003411Y038798D01*
X003488Y038804D01*
X003565Y038806D01*
X037817Y038806D01*
X037894Y038804D01*
X037971Y038798D01*
X038048Y038789D01*
X038124Y038776D01*
X038200Y038759D01*
X038274Y038738D01*
X038348Y038714D01*
X038420Y038686D01*
X038490Y038655D01*
X038559Y038620D01*
X038627Y038582D01*
X038692Y038541D01*
X038755Y038496D01*
X038816Y038448D01*
X038875Y038398D01*
X038931Y038345D01*
X038984Y038289D01*
X039034Y038230D01*
X039082Y038169D01*
X039127Y038106D01*
X039168Y038041D01*
X039206Y037973D01*
X039241Y037904D01*
X039272Y037834D01*
X039300Y037762D01*
X039324Y037688D01*
X039345Y037614D01*
X039362Y037538D01*
X039375Y037462D01*
X039384Y037385D01*
X039390Y037308D01*
X039392Y037231D01*
X039392Y008884D01*
X039390Y008760D01*
X039384Y008637D01*
X039375Y008513D01*
X039361Y008391D01*
X039344Y008268D01*
X039322Y008146D01*
X039297Y008025D01*
X039268Y007905D01*
X039236Y007786D01*
X039199Y007667D01*
X039159Y007550D01*
X039116Y007435D01*
X039068Y007320D01*
X039017Y007208D01*
X038963Y007097D01*
X038905Y006987D01*
X038844Y006880D01*
X038779Y006774D01*
X038711Y006671D01*
X038640Y006570D01*
X038566Y006471D01*
X038489Y006374D01*
X038408Y006280D01*
X038325Y006189D01*
X038239Y006100D01*
X038150Y006014D01*
X038059Y005931D01*
X037965Y005850D01*
X037868Y005773D01*
X037769Y005699D01*
X037668Y005628D01*
X037565Y005560D01*
X037459Y005495D01*
X037352Y005434D01*
X037242Y005376D01*
X037131Y005322D01*
X037019Y005271D01*
X036904Y005223D01*
X036789Y005180D01*
X036672Y005140D01*
X036553Y005103D01*
X036434Y005071D01*
X036314Y005042D01*
X036193Y005017D01*
X036071Y004995D01*
X035948Y004978D01*
X035826Y004964D01*
X035702Y004955D01*
X035579Y004949D01*
X035455Y004947D01*
X018426Y013848D02*
X018086Y014188D01*
X018256Y014018D02*
X018766Y014527D01*
X018426Y014527D01*
X018402Y014891D02*
X017977Y014467D01*
X017807Y014467D01*
X017637Y014637D01*
X017637Y014806D01*
X018062Y015231D01*
X003857Y029491D02*
X002357Y029491D01*
X002357Y030491D01*
X003857Y030491D01*
X003857Y031491D01*
X002357Y031491D01*
X002357Y032491D01*
X003857Y032491D01*
X003857Y033491D01*
X002357Y033491D01*
X002357Y034491D01*
X004107Y034491D01*
X004357Y035491D02*
X002357Y035491D01*
X002357Y034491D01*
D12*
X002778Y037231D02*
X002780Y037287D01*
X002786Y037342D01*
X002796Y037396D01*
X002809Y037450D01*
X002827Y037503D01*
X002848Y037554D01*
X002872Y037604D01*
X002900Y037652D01*
X002932Y037698D01*
X002966Y037742D01*
X003004Y037783D01*
X003044Y037821D01*
X003087Y037856D01*
X003132Y037888D01*
X003180Y037917D01*
X003229Y037943D01*
X003280Y037965D01*
X003332Y037983D01*
X003386Y037997D01*
X003441Y038008D01*
X003496Y038015D01*
X003551Y038018D01*
X003607Y038017D01*
X003662Y038012D01*
X003717Y038003D01*
X003771Y037991D01*
X003824Y037974D01*
X003876Y037954D01*
X003926Y037930D01*
X003974Y037903D01*
X004021Y037873D01*
X004065Y037839D01*
X004107Y037802D01*
X004145Y037762D01*
X004182Y037720D01*
X004215Y037675D01*
X004244Y037629D01*
X004271Y037580D01*
X004293Y037529D01*
X004313Y037477D01*
X004328Y037423D01*
X004340Y037369D01*
X004348Y037314D01*
X004352Y037259D01*
X004352Y037203D01*
X004348Y037148D01*
X004340Y037093D01*
X004328Y037039D01*
X004313Y036985D01*
X004293Y036933D01*
X004271Y036882D01*
X004244Y036833D01*
X004215Y036787D01*
X004182Y036742D01*
X004145Y036700D01*
X004107Y036660D01*
X004065Y036623D01*
X004021Y036589D01*
X003974Y036559D01*
X003926Y036532D01*
X003876Y036508D01*
X003824Y036488D01*
X003771Y036471D01*
X003717Y036459D01*
X003662Y036450D01*
X003607Y036445D01*
X003551Y036444D01*
X003496Y036447D01*
X003441Y036454D01*
X003386Y036465D01*
X003332Y036479D01*
X003280Y036497D01*
X003229Y036519D01*
X003180Y036545D01*
X003132Y036574D01*
X003087Y036606D01*
X003044Y036641D01*
X003004Y036679D01*
X002966Y036720D01*
X002932Y036764D01*
X002900Y036810D01*
X002872Y036858D01*
X002848Y036908D01*
X002827Y036959D01*
X002809Y037012D01*
X002796Y037066D01*
X002786Y037120D01*
X002780Y037175D01*
X002778Y037231D01*
X002541Y027782D02*
X002543Y027832D01*
X002549Y027882D01*
X002559Y027931D01*
X002573Y027979D01*
X002590Y028026D01*
X002611Y028071D01*
X002636Y028115D01*
X002664Y028156D01*
X002696Y028195D01*
X002730Y028232D01*
X002767Y028266D01*
X002807Y028296D01*
X002849Y028323D01*
X002893Y028347D01*
X002939Y028368D01*
X002986Y028384D01*
X003034Y028397D01*
X003084Y028406D01*
X003133Y028411D01*
X003184Y028412D01*
X003234Y028409D01*
X003283Y028402D01*
X003332Y028391D01*
X003380Y028376D01*
X003426Y028358D01*
X003471Y028336D01*
X003514Y028310D01*
X003555Y028281D01*
X003594Y028249D01*
X003630Y028214D01*
X003662Y028176D01*
X003692Y028136D01*
X003719Y028093D01*
X003742Y028049D01*
X003761Y028003D01*
X003777Y027955D01*
X003789Y027906D01*
X003797Y027857D01*
X003801Y027807D01*
X003801Y027757D01*
X003797Y027707D01*
X003789Y027658D01*
X003777Y027609D01*
X003761Y027561D01*
X003742Y027515D01*
X003719Y027471D01*
X003692Y027428D01*
X003662Y027388D01*
X003630Y027350D01*
X003594Y027315D01*
X003555Y027283D01*
X003514Y027254D01*
X003471Y027228D01*
X003426Y027206D01*
X003380Y027188D01*
X003332Y027173D01*
X003283Y027162D01*
X003234Y027155D01*
X003184Y027152D01*
X003133Y027153D01*
X003084Y027158D01*
X003034Y027167D01*
X002986Y027180D01*
X002939Y027196D01*
X002893Y027217D01*
X002849Y027241D01*
X002807Y027268D01*
X002767Y027298D01*
X002730Y027332D01*
X002696Y027369D01*
X002664Y027408D01*
X002636Y027449D01*
X002611Y027493D01*
X002590Y027538D01*
X002573Y027585D01*
X002559Y027633D01*
X002549Y027682D01*
X002543Y027732D01*
X002541Y027782D01*
X010022Y037624D02*
X010024Y037674D01*
X010030Y037724D01*
X010040Y037773D01*
X010054Y037821D01*
X010071Y037868D01*
X010092Y037913D01*
X010117Y037957D01*
X010145Y037998D01*
X010177Y038037D01*
X010211Y038074D01*
X010248Y038108D01*
X010288Y038138D01*
X010330Y038165D01*
X010374Y038189D01*
X010420Y038210D01*
X010467Y038226D01*
X010515Y038239D01*
X010565Y038248D01*
X010614Y038253D01*
X010665Y038254D01*
X010715Y038251D01*
X010764Y038244D01*
X010813Y038233D01*
X010861Y038218D01*
X010907Y038200D01*
X010952Y038178D01*
X010995Y038152D01*
X011036Y038123D01*
X011075Y038091D01*
X011111Y038056D01*
X011143Y038018D01*
X011173Y037978D01*
X011200Y037935D01*
X011223Y037891D01*
X011242Y037845D01*
X011258Y037797D01*
X011270Y037748D01*
X011278Y037699D01*
X011282Y037649D01*
X011282Y037599D01*
X011278Y037549D01*
X011270Y037500D01*
X011258Y037451D01*
X011242Y037403D01*
X011223Y037357D01*
X011200Y037313D01*
X011173Y037270D01*
X011143Y037230D01*
X011111Y037192D01*
X011075Y037157D01*
X011036Y037125D01*
X010995Y037096D01*
X010952Y037070D01*
X010907Y037048D01*
X010861Y037030D01*
X010813Y037015D01*
X010764Y037004D01*
X010715Y036997D01*
X010665Y036994D01*
X010614Y036995D01*
X010565Y037000D01*
X010515Y037009D01*
X010467Y037022D01*
X010420Y037038D01*
X010374Y037059D01*
X010330Y037083D01*
X010288Y037110D01*
X010248Y037140D01*
X010211Y037174D01*
X010177Y037211D01*
X010145Y037250D01*
X010117Y037291D01*
X010092Y037335D01*
X010071Y037380D01*
X010054Y037427D01*
X010040Y037475D01*
X010030Y037524D01*
X010024Y037574D01*
X010022Y037624D01*
X017974Y026707D02*
X017976Y026736D01*
X017982Y026764D01*
X017991Y026792D01*
X018004Y026818D01*
X018021Y026841D01*
X018040Y026863D01*
X018062Y026882D01*
X018087Y026897D01*
X018113Y026910D01*
X018141Y026918D01*
X018169Y026923D01*
X018198Y026924D01*
X018227Y026921D01*
X018255Y026914D01*
X018282Y026904D01*
X018308Y026890D01*
X018331Y026873D01*
X018352Y026853D01*
X018370Y026830D01*
X018385Y026805D01*
X018396Y026778D01*
X018404Y026750D01*
X018408Y026721D01*
X018408Y026693D01*
X018404Y026664D01*
X018396Y026636D01*
X018385Y026609D01*
X018370Y026584D01*
X018352Y026561D01*
X018331Y026541D01*
X018308Y026524D01*
X018282Y026510D01*
X018255Y026500D01*
X018227Y026493D01*
X018198Y026490D01*
X018169Y026491D01*
X018141Y026496D01*
X018113Y026504D01*
X018087Y026517D01*
X018062Y026532D01*
X018040Y026551D01*
X018021Y026573D01*
X018004Y026596D01*
X017991Y026622D01*
X017982Y026650D01*
X017976Y026678D01*
X017974Y026707D01*
X017974Y025707D02*
X017976Y025736D01*
X017982Y025764D01*
X017991Y025792D01*
X018004Y025818D01*
X018021Y025841D01*
X018040Y025863D01*
X018062Y025882D01*
X018087Y025897D01*
X018113Y025910D01*
X018141Y025918D01*
X018169Y025923D01*
X018198Y025924D01*
X018227Y025921D01*
X018255Y025914D01*
X018282Y025904D01*
X018308Y025890D01*
X018331Y025873D01*
X018352Y025853D01*
X018370Y025830D01*
X018385Y025805D01*
X018396Y025778D01*
X018404Y025750D01*
X018408Y025721D01*
X018408Y025693D01*
X018404Y025664D01*
X018396Y025636D01*
X018385Y025609D01*
X018370Y025584D01*
X018352Y025561D01*
X018331Y025541D01*
X018308Y025524D01*
X018282Y025510D01*
X018255Y025500D01*
X018227Y025493D01*
X018198Y025490D01*
X018169Y025491D01*
X018141Y025496D01*
X018113Y025504D01*
X018087Y025517D01*
X018062Y025532D01*
X018040Y025551D01*
X018021Y025573D01*
X018004Y025596D01*
X017991Y025622D01*
X017982Y025650D01*
X017976Y025678D01*
X017974Y025707D01*
X018974Y025707D02*
X018976Y025736D01*
X018982Y025764D01*
X018991Y025792D01*
X019004Y025818D01*
X019021Y025841D01*
X019040Y025863D01*
X019062Y025882D01*
X019087Y025897D01*
X019113Y025910D01*
X019141Y025918D01*
X019169Y025923D01*
X019198Y025924D01*
X019227Y025921D01*
X019255Y025914D01*
X019282Y025904D01*
X019308Y025890D01*
X019331Y025873D01*
X019352Y025853D01*
X019370Y025830D01*
X019385Y025805D01*
X019396Y025778D01*
X019404Y025750D01*
X019408Y025721D01*
X019408Y025693D01*
X019404Y025664D01*
X019396Y025636D01*
X019385Y025609D01*
X019370Y025584D01*
X019352Y025561D01*
X019331Y025541D01*
X019308Y025524D01*
X019282Y025510D01*
X019255Y025500D01*
X019227Y025493D01*
X019198Y025490D01*
X019169Y025491D01*
X019141Y025496D01*
X019113Y025504D01*
X019087Y025517D01*
X019062Y025532D01*
X019040Y025551D01*
X019021Y025573D01*
X019004Y025596D01*
X018991Y025622D01*
X018982Y025650D01*
X018976Y025678D01*
X018974Y025707D01*
X018974Y026707D02*
X018976Y026736D01*
X018982Y026764D01*
X018991Y026792D01*
X019004Y026818D01*
X019021Y026841D01*
X019040Y026863D01*
X019062Y026882D01*
X019087Y026897D01*
X019113Y026910D01*
X019141Y026918D01*
X019169Y026923D01*
X019198Y026924D01*
X019227Y026921D01*
X019255Y026914D01*
X019282Y026904D01*
X019308Y026890D01*
X019331Y026873D01*
X019352Y026853D01*
X019370Y026830D01*
X019385Y026805D01*
X019396Y026778D01*
X019404Y026750D01*
X019408Y026721D01*
X019408Y026693D01*
X019404Y026664D01*
X019396Y026636D01*
X019385Y026609D01*
X019370Y026584D01*
X019352Y026561D01*
X019331Y026541D01*
X019308Y026524D01*
X019282Y026510D01*
X019255Y026500D01*
X019227Y026493D01*
X019198Y026490D01*
X019169Y026491D01*
X019141Y026496D01*
X019113Y026504D01*
X019087Y026517D01*
X019062Y026532D01*
X019040Y026551D01*
X019021Y026573D01*
X019004Y026596D01*
X018991Y026622D01*
X018982Y026650D01*
X018976Y026678D01*
X018974Y026707D01*
X019974Y026707D02*
X019976Y026736D01*
X019982Y026764D01*
X019991Y026792D01*
X020004Y026818D01*
X020021Y026841D01*
X020040Y026863D01*
X020062Y026882D01*
X020087Y026897D01*
X020113Y026910D01*
X020141Y026918D01*
X020169Y026923D01*
X020198Y026924D01*
X020227Y026921D01*
X020255Y026914D01*
X020282Y026904D01*
X020308Y026890D01*
X020331Y026873D01*
X020352Y026853D01*
X020370Y026830D01*
X020385Y026805D01*
X020396Y026778D01*
X020404Y026750D01*
X020408Y026721D01*
X020408Y026693D01*
X020404Y026664D01*
X020396Y026636D01*
X020385Y026609D01*
X020370Y026584D01*
X020352Y026561D01*
X020331Y026541D01*
X020308Y026524D01*
X020282Y026510D01*
X020255Y026500D01*
X020227Y026493D01*
X020198Y026490D01*
X020169Y026491D01*
X020141Y026496D01*
X020113Y026504D01*
X020087Y026517D01*
X020062Y026532D01*
X020040Y026551D01*
X020021Y026573D01*
X020004Y026596D01*
X019991Y026622D01*
X019982Y026650D01*
X019976Y026678D01*
X019974Y026707D01*
X019974Y025707D02*
X019976Y025736D01*
X019982Y025764D01*
X019991Y025792D01*
X020004Y025818D01*
X020021Y025841D01*
X020040Y025863D01*
X020062Y025882D01*
X020087Y025897D01*
X020113Y025910D01*
X020141Y025918D01*
X020169Y025923D01*
X020198Y025924D01*
X020227Y025921D01*
X020255Y025914D01*
X020282Y025904D01*
X020308Y025890D01*
X020331Y025873D01*
X020352Y025853D01*
X020370Y025830D01*
X020385Y025805D01*
X020396Y025778D01*
X020404Y025750D01*
X020408Y025721D01*
X020408Y025693D01*
X020404Y025664D01*
X020396Y025636D01*
X020385Y025609D01*
X020370Y025584D01*
X020352Y025561D01*
X020331Y025541D01*
X020308Y025524D01*
X020282Y025510D01*
X020255Y025500D01*
X020227Y025493D01*
X020198Y025490D01*
X020169Y025491D01*
X020141Y025496D01*
X020113Y025504D01*
X020087Y025517D01*
X020062Y025532D01*
X020040Y025551D01*
X020021Y025573D01*
X020004Y025596D01*
X019991Y025622D01*
X019982Y025650D01*
X019976Y025678D01*
X019974Y025707D01*
X020974Y025707D02*
X020976Y025736D01*
X020982Y025764D01*
X020991Y025792D01*
X021004Y025818D01*
X021021Y025841D01*
X021040Y025863D01*
X021062Y025882D01*
X021087Y025897D01*
X021113Y025910D01*
X021141Y025918D01*
X021169Y025923D01*
X021198Y025924D01*
X021227Y025921D01*
X021255Y025914D01*
X021282Y025904D01*
X021308Y025890D01*
X021331Y025873D01*
X021352Y025853D01*
X021370Y025830D01*
X021385Y025805D01*
X021396Y025778D01*
X021404Y025750D01*
X021408Y025721D01*
X021408Y025693D01*
X021404Y025664D01*
X021396Y025636D01*
X021385Y025609D01*
X021370Y025584D01*
X021352Y025561D01*
X021331Y025541D01*
X021308Y025524D01*
X021282Y025510D01*
X021255Y025500D01*
X021227Y025493D01*
X021198Y025490D01*
X021169Y025491D01*
X021141Y025496D01*
X021113Y025504D01*
X021087Y025517D01*
X021062Y025532D01*
X021040Y025551D01*
X021021Y025573D01*
X021004Y025596D01*
X020991Y025622D01*
X020982Y025650D01*
X020976Y025678D01*
X020974Y025707D01*
X020974Y026707D02*
X020976Y026736D01*
X020982Y026764D01*
X020991Y026792D01*
X021004Y026818D01*
X021021Y026841D01*
X021040Y026863D01*
X021062Y026882D01*
X021087Y026897D01*
X021113Y026910D01*
X021141Y026918D01*
X021169Y026923D01*
X021198Y026924D01*
X021227Y026921D01*
X021255Y026914D01*
X021282Y026904D01*
X021308Y026890D01*
X021331Y026873D01*
X021352Y026853D01*
X021370Y026830D01*
X021385Y026805D01*
X021396Y026778D01*
X021404Y026750D01*
X021408Y026721D01*
X021408Y026693D01*
X021404Y026664D01*
X021396Y026636D01*
X021385Y026609D01*
X021370Y026584D01*
X021352Y026561D01*
X021331Y026541D01*
X021308Y026524D01*
X021282Y026510D01*
X021255Y026500D01*
X021227Y026493D01*
X021198Y026490D01*
X021169Y026491D01*
X021141Y026496D01*
X021113Y026504D01*
X021087Y026517D01*
X021062Y026532D01*
X021040Y026551D01*
X021021Y026573D01*
X021004Y026596D01*
X020991Y026622D01*
X020982Y026650D01*
X020976Y026678D01*
X020974Y026707D01*
X021974Y026707D02*
X021976Y026736D01*
X021982Y026764D01*
X021991Y026792D01*
X022004Y026818D01*
X022021Y026841D01*
X022040Y026863D01*
X022062Y026882D01*
X022087Y026897D01*
X022113Y026910D01*
X022141Y026918D01*
X022169Y026923D01*
X022198Y026924D01*
X022227Y026921D01*
X022255Y026914D01*
X022282Y026904D01*
X022308Y026890D01*
X022331Y026873D01*
X022352Y026853D01*
X022370Y026830D01*
X022385Y026805D01*
X022396Y026778D01*
X022404Y026750D01*
X022408Y026721D01*
X022408Y026693D01*
X022404Y026664D01*
X022396Y026636D01*
X022385Y026609D01*
X022370Y026584D01*
X022352Y026561D01*
X022331Y026541D01*
X022308Y026524D01*
X022282Y026510D01*
X022255Y026500D01*
X022227Y026493D01*
X022198Y026490D01*
X022169Y026491D01*
X022141Y026496D01*
X022113Y026504D01*
X022087Y026517D01*
X022062Y026532D01*
X022040Y026551D01*
X022021Y026573D01*
X022004Y026596D01*
X021991Y026622D01*
X021982Y026650D01*
X021976Y026678D01*
X021974Y026707D01*
X021974Y025707D02*
X021976Y025736D01*
X021982Y025764D01*
X021991Y025792D01*
X022004Y025818D01*
X022021Y025841D01*
X022040Y025863D01*
X022062Y025882D01*
X022087Y025897D01*
X022113Y025910D01*
X022141Y025918D01*
X022169Y025923D01*
X022198Y025924D01*
X022227Y025921D01*
X022255Y025914D01*
X022282Y025904D01*
X022308Y025890D01*
X022331Y025873D01*
X022352Y025853D01*
X022370Y025830D01*
X022385Y025805D01*
X022396Y025778D01*
X022404Y025750D01*
X022408Y025721D01*
X022408Y025693D01*
X022404Y025664D01*
X022396Y025636D01*
X022385Y025609D01*
X022370Y025584D01*
X022352Y025561D01*
X022331Y025541D01*
X022308Y025524D01*
X022282Y025510D01*
X022255Y025500D01*
X022227Y025493D01*
X022198Y025490D01*
X022169Y025491D01*
X022141Y025496D01*
X022113Y025504D01*
X022087Y025517D01*
X022062Y025532D01*
X022040Y025551D01*
X022021Y025573D01*
X022004Y025596D01*
X021991Y025622D01*
X021982Y025650D01*
X021976Y025678D01*
X021974Y025707D01*
X022974Y025707D02*
X022976Y025736D01*
X022982Y025764D01*
X022991Y025792D01*
X023004Y025818D01*
X023021Y025841D01*
X023040Y025863D01*
X023062Y025882D01*
X023087Y025897D01*
X023113Y025910D01*
X023141Y025918D01*
X023169Y025923D01*
X023198Y025924D01*
X023227Y025921D01*
X023255Y025914D01*
X023282Y025904D01*
X023308Y025890D01*
X023331Y025873D01*
X023352Y025853D01*
X023370Y025830D01*
X023385Y025805D01*
X023396Y025778D01*
X023404Y025750D01*
X023408Y025721D01*
X023408Y025693D01*
X023404Y025664D01*
X023396Y025636D01*
X023385Y025609D01*
X023370Y025584D01*
X023352Y025561D01*
X023331Y025541D01*
X023308Y025524D01*
X023282Y025510D01*
X023255Y025500D01*
X023227Y025493D01*
X023198Y025490D01*
X023169Y025491D01*
X023141Y025496D01*
X023113Y025504D01*
X023087Y025517D01*
X023062Y025532D01*
X023040Y025551D01*
X023021Y025573D01*
X023004Y025596D01*
X022991Y025622D01*
X022982Y025650D01*
X022976Y025678D01*
X022974Y025707D01*
X022974Y026707D02*
X022976Y026736D01*
X022982Y026764D01*
X022991Y026792D01*
X023004Y026818D01*
X023021Y026841D01*
X023040Y026863D01*
X023062Y026882D01*
X023087Y026897D01*
X023113Y026910D01*
X023141Y026918D01*
X023169Y026923D01*
X023198Y026924D01*
X023227Y026921D01*
X023255Y026914D01*
X023282Y026904D01*
X023308Y026890D01*
X023331Y026873D01*
X023352Y026853D01*
X023370Y026830D01*
X023385Y026805D01*
X023396Y026778D01*
X023404Y026750D01*
X023408Y026721D01*
X023408Y026693D01*
X023404Y026664D01*
X023396Y026636D01*
X023385Y026609D01*
X023370Y026584D01*
X023352Y026561D01*
X023331Y026541D01*
X023308Y026524D01*
X023282Y026510D01*
X023255Y026500D01*
X023227Y026493D01*
X023198Y026490D01*
X023169Y026491D01*
X023141Y026496D01*
X023113Y026504D01*
X023087Y026517D01*
X023062Y026532D01*
X023040Y026551D01*
X023021Y026573D01*
X023004Y026596D01*
X022991Y026622D01*
X022982Y026650D01*
X022976Y026678D01*
X022974Y026707D01*
X030101Y037624D02*
X030103Y037674D01*
X030109Y037724D01*
X030119Y037773D01*
X030133Y037821D01*
X030150Y037868D01*
X030171Y037913D01*
X030196Y037957D01*
X030224Y037998D01*
X030256Y038037D01*
X030290Y038074D01*
X030327Y038108D01*
X030367Y038138D01*
X030409Y038165D01*
X030453Y038189D01*
X030499Y038210D01*
X030546Y038226D01*
X030594Y038239D01*
X030644Y038248D01*
X030693Y038253D01*
X030744Y038254D01*
X030794Y038251D01*
X030843Y038244D01*
X030892Y038233D01*
X030940Y038218D01*
X030986Y038200D01*
X031031Y038178D01*
X031074Y038152D01*
X031115Y038123D01*
X031154Y038091D01*
X031190Y038056D01*
X031222Y038018D01*
X031252Y037978D01*
X031279Y037935D01*
X031302Y037891D01*
X031321Y037845D01*
X031337Y037797D01*
X031349Y037748D01*
X031357Y037699D01*
X031361Y037649D01*
X031361Y037599D01*
X031357Y037549D01*
X031349Y037500D01*
X031337Y037451D01*
X031321Y037403D01*
X031302Y037357D01*
X031279Y037313D01*
X031252Y037270D01*
X031222Y037230D01*
X031190Y037192D01*
X031154Y037157D01*
X031115Y037125D01*
X031074Y037096D01*
X031031Y037070D01*
X030986Y037048D01*
X030940Y037030D01*
X030892Y037015D01*
X030843Y037004D01*
X030794Y036997D01*
X030744Y036994D01*
X030693Y036995D01*
X030644Y037000D01*
X030594Y037009D01*
X030546Y037022D01*
X030499Y037038D01*
X030453Y037059D01*
X030409Y037083D01*
X030367Y037110D01*
X030327Y037140D01*
X030290Y037174D01*
X030256Y037211D01*
X030224Y037250D01*
X030196Y037291D01*
X030171Y037335D01*
X030150Y037380D01*
X030133Y037427D01*
X030119Y037475D01*
X030109Y037524D01*
X030103Y037574D01*
X030101Y037624D01*
X036518Y032034D02*
X036518Y031561D01*
X037187Y034869D02*
X037189Y034919D01*
X037195Y034969D01*
X037205Y035018D01*
X037219Y035066D01*
X037236Y035113D01*
X037257Y035158D01*
X037282Y035202D01*
X037310Y035243D01*
X037342Y035282D01*
X037376Y035319D01*
X037413Y035353D01*
X037453Y035383D01*
X037495Y035410D01*
X037539Y035434D01*
X037585Y035455D01*
X037632Y035471D01*
X037680Y035484D01*
X037730Y035493D01*
X037779Y035498D01*
X037830Y035499D01*
X037880Y035496D01*
X037929Y035489D01*
X037978Y035478D01*
X038026Y035463D01*
X038072Y035445D01*
X038117Y035423D01*
X038160Y035397D01*
X038201Y035368D01*
X038240Y035336D01*
X038276Y035301D01*
X038308Y035263D01*
X038338Y035223D01*
X038365Y035180D01*
X038388Y035136D01*
X038407Y035090D01*
X038423Y035042D01*
X038435Y034993D01*
X038443Y034944D01*
X038447Y034894D01*
X038447Y034844D01*
X038443Y034794D01*
X038435Y034745D01*
X038423Y034696D01*
X038407Y034648D01*
X038388Y034602D01*
X038365Y034558D01*
X038338Y034515D01*
X038308Y034475D01*
X038276Y034437D01*
X038240Y034402D01*
X038201Y034370D01*
X038160Y034341D01*
X038117Y034315D01*
X038072Y034293D01*
X038026Y034275D01*
X037978Y034260D01*
X037929Y034249D01*
X037880Y034242D01*
X037830Y034239D01*
X037779Y034240D01*
X037730Y034245D01*
X037680Y034254D01*
X037632Y034267D01*
X037585Y034283D01*
X037539Y034304D01*
X037495Y034328D01*
X037453Y034355D01*
X037413Y034385D01*
X037376Y034419D01*
X037342Y034456D01*
X037310Y034495D01*
X037282Y034536D01*
X037257Y034580D01*
X037236Y034625D01*
X037219Y034672D01*
X037205Y034720D01*
X037195Y034769D01*
X037189Y034819D01*
X037187Y034869D01*
X037030Y037231D02*
X037032Y037287D01*
X037038Y037342D01*
X037048Y037396D01*
X037061Y037450D01*
X037079Y037503D01*
X037100Y037554D01*
X037124Y037604D01*
X037152Y037652D01*
X037184Y037698D01*
X037218Y037742D01*
X037256Y037783D01*
X037296Y037821D01*
X037339Y037856D01*
X037384Y037888D01*
X037432Y037917D01*
X037481Y037943D01*
X037532Y037965D01*
X037584Y037983D01*
X037638Y037997D01*
X037693Y038008D01*
X037748Y038015D01*
X037803Y038018D01*
X037859Y038017D01*
X037914Y038012D01*
X037969Y038003D01*
X038023Y037991D01*
X038076Y037974D01*
X038128Y037954D01*
X038178Y037930D01*
X038226Y037903D01*
X038273Y037873D01*
X038317Y037839D01*
X038359Y037802D01*
X038397Y037762D01*
X038434Y037720D01*
X038467Y037675D01*
X038496Y037629D01*
X038523Y037580D01*
X038545Y037529D01*
X038565Y037477D01*
X038580Y037423D01*
X038592Y037369D01*
X038600Y037314D01*
X038604Y037259D01*
X038604Y037203D01*
X038600Y037148D01*
X038592Y037093D01*
X038580Y037039D01*
X038565Y036985D01*
X038545Y036933D01*
X038523Y036882D01*
X038496Y036833D01*
X038467Y036787D01*
X038434Y036742D01*
X038397Y036700D01*
X038359Y036660D01*
X038317Y036623D01*
X038273Y036589D01*
X038226Y036559D01*
X038178Y036532D01*
X038128Y036508D01*
X038076Y036488D01*
X038023Y036471D01*
X037969Y036459D01*
X037914Y036450D01*
X037859Y036445D01*
X037803Y036444D01*
X037748Y036447D01*
X037693Y036454D01*
X037638Y036465D01*
X037584Y036479D01*
X037532Y036497D01*
X037481Y036519D01*
X037432Y036545D01*
X037384Y036574D01*
X037339Y036606D01*
X037296Y036641D01*
X037256Y036679D01*
X037218Y036720D01*
X037184Y036764D01*
X037152Y036810D01*
X037124Y036858D01*
X037100Y036908D01*
X037079Y036959D01*
X037061Y037012D01*
X037048Y037066D01*
X037038Y037120D01*
X037032Y037175D01*
X037030Y037231D01*
X037187Y021876D02*
X037189Y021926D01*
X037195Y021976D01*
X037205Y022025D01*
X037219Y022073D01*
X037236Y022120D01*
X037257Y022165D01*
X037282Y022209D01*
X037310Y022250D01*
X037342Y022289D01*
X037376Y022326D01*
X037413Y022360D01*
X037453Y022390D01*
X037495Y022417D01*
X037539Y022441D01*
X037585Y022462D01*
X037632Y022478D01*
X037680Y022491D01*
X037730Y022500D01*
X037779Y022505D01*
X037830Y022506D01*
X037880Y022503D01*
X037929Y022496D01*
X037978Y022485D01*
X038026Y022470D01*
X038072Y022452D01*
X038117Y022430D01*
X038160Y022404D01*
X038201Y022375D01*
X038240Y022343D01*
X038276Y022308D01*
X038308Y022270D01*
X038338Y022230D01*
X038365Y022187D01*
X038388Y022143D01*
X038407Y022097D01*
X038423Y022049D01*
X038435Y022000D01*
X038443Y021951D01*
X038447Y021901D01*
X038447Y021851D01*
X038443Y021801D01*
X038435Y021752D01*
X038423Y021703D01*
X038407Y021655D01*
X038388Y021609D01*
X038365Y021565D01*
X038338Y021522D01*
X038308Y021482D01*
X038276Y021444D01*
X038240Y021409D01*
X038201Y021377D01*
X038160Y021348D01*
X038117Y021322D01*
X038072Y021300D01*
X038026Y021282D01*
X037978Y021267D01*
X037929Y021256D01*
X037880Y021249D01*
X037830Y021246D01*
X037779Y021247D01*
X037730Y021252D01*
X037680Y021261D01*
X037632Y021274D01*
X037585Y021290D01*
X037539Y021311D01*
X037495Y021335D01*
X037453Y021362D01*
X037413Y021392D01*
X037376Y021426D01*
X037342Y021463D01*
X037310Y021502D01*
X037282Y021543D01*
X037257Y021587D01*
X037236Y021632D01*
X037219Y021679D01*
X037205Y021727D01*
X037195Y021776D01*
X037189Y021826D01*
X037187Y021876D01*
D13*
X036518Y024711D02*
X036518Y032034D01*
X038171Y032034D01*
X038171Y024711D01*
X036518Y024711D01*
D14*
X032095Y025617D02*
X032040Y025617D01*
X032040Y025437D01*
X031940Y025437D02*
X031940Y025617D01*
X031885Y025617D01*
X031940Y025617D02*
X031940Y025797D01*
X032040Y025797D02*
X032040Y025617D01*
X032040Y026145D02*
X032040Y026325D01*
X032095Y026325D01*
X032040Y026325D02*
X032040Y026505D01*
X031940Y026505D02*
X031940Y026325D01*
X031885Y026325D01*
X031940Y026325D02*
X031940Y026145D01*
X031940Y026854D02*
X031940Y027034D01*
X031885Y027034D01*
X031940Y027034D02*
X031940Y027214D01*
X032040Y027214D02*
X032040Y027034D01*
X032095Y027034D01*
X032040Y027034D02*
X032040Y026854D01*
X030832Y027141D02*
X030652Y027141D01*
X030652Y027086D01*
X030652Y027141D02*
X030472Y027141D01*
X030472Y027241D02*
X030652Y027241D01*
X030652Y027296D01*
X030652Y027241D02*
X030832Y027241D01*
X029808Y025372D02*
X029808Y025232D01*
X029528Y025232D02*
X029528Y025372D01*
X028891Y026027D02*
X028891Y026207D01*
X028946Y026207D01*
X028891Y026207D02*
X028891Y026387D01*
X028791Y026387D02*
X028791Y026207D01*
X028736Y026207D01*
X028791Y026207D02*
X028791Y026027D01*
X028517Y025520D02*
X028377Y025520D01*
X028377Y025240D02*
X028517Y025240D01*
X028751Y027996D02*
X028751Y028176D01*
X028696Y028176D01*
X028751Y028176D02*
X028751Y028356D01*
X028851Y028356D02*
X028851Y028176D01*
X028906Y028176D01*
X028851Y028176D02*
X028851Y027996D01*
X028565Y029094D02*
X028565Y029149D01*
X028745Y029149D01*
X028745Y029249D02*
X028565Y029249D01*
X028565Y029304D01*
X028565Y029249D02*
X028385Y029249D01*
X028385Y029149D02*
X028565Y029149D01*
X029173Y030507D02*
X029173Y030647D01*
X029453Y030647D02*
X029453Y030507D01*
X027375Y028079D02*
X027235Y028079D01*
X027235Y027799D02*
X027375Y027799D01*
X025796Y027428D02*
X025741Y027428D01*
X025741Y027608D01*
X025641Y027608D02*
X025641Y027428D01*
X025586Y027428D01*
X025641Y027428D02*
X025641Y027248D01*
X025741Y027248D02*
X025741Y027428D01*
X023991Y028599D02*
X023991Y028770D01*
X023935Y028826D01*
X023821Y028826D01*
X023765Y028770D01*
X023623Y028826D02*
X023453Y028826D01*
X023396Y028770D01*
X023453Y028713D01*
X023566Y028713D01*
X023623Y028656D01*
X023566Y028599D01*
X023396Y028599D01*
X023255Y028599D02*
X023085Y028599D01*
X023028Y028656D01*
X023085Y028713D01*
X023255Y028713D01*
X023255Y028770D02*
X023255Y028599D01*
X023255Y028770D02*
X023198Y028826D01*
X023085Y028826D01*
X022839Y028940D02*
X022839Y028599D01*
X022782Y028599D02*
X022896Y028599D01*
X022839Y028940D02*
X022782Y028940D01*
X022641Y028940D02*
X022414Y028940D01*
X022414Y028599D01*
X022414Y028770D02*
X022528Y028770D01*
X022865Y029099D02*
X023005Y029099D01*
X023005Y029379D02*
X022865Y029379D01*
X022865Y029768D02*
X023005Y029768D01*
X023005Y030048D02*
X022865Y030048D01*
X022885Y030319D02*
X022885Y030499D01*
X022830Y030499D01*
X022885Y030499D02*
X022885Y030679D01*
X022985Y030679D02*
X022985Y030499D01*
X023040Y030499D01*
X022985Y030499D02*
X022985Y030319D01*
X023005Y030988D02*
X022865Y030988D01*
X022865Y031268D02*
X023005Y031268D01*
X021667Y031776D02*
X021527Y031776D01*
X021527Y032056D02*
X021667Y032056D01*
X023101Y032799D02*
X023241Y032799D01*
X023241Y033079D02*
X023101Y033079D01*
X023101Y034729D02*
X023241Y034729D01*
X023241Y035009D02*
X023101Y035009D01*
X024331Y034899D02*
X024331Y034759D01*
X024611Y034759D02*
X024611Y034899D01*
X025523Y032608D02*
X025523Y032428D01*
X025468Y032428D01*
X025523Y032428D02*
X025523Y032248D01*
X025623Y032248D02*
X025623Y032428D01*
X025678Y032428D01*
X025623Y032428D02*
X025623Y032608D01*
X026654Y034129D02*
X026654Y034269D01*
X026934Y034269D02*
X026934Y034129D01*
X028189Y034090D02*
X028189Y034230D01*
X028469Y034230D02*
X028469Y034090D01*
X029685Y034051D02*
X029685Y034191D01*
X029965Y034191D02*
X029965Y034051D01*
X028458Y037130D02*
X028458Y037310D01*
X028513Y037310D01*
X028458Y037310D02*
X028458Y037490D01*
X028358Y037490D02*
X028358Y037310D01*
X028303Y037310D01*
X028358Y037310D02*
X028358Y037130D01*
X023395Y037270D02*
X023340Y037270D01*
X023340Y037090D01*
X023240Y037090D02*
X023240Y037270D01*
X023185Y037270D01*
X023240Y037270D02*
X023240Y037450D01*
X023340Y037450D02*
X023340Y037270D01*
X020123Y035863D02*
X019943Y035863D01*
X019943Y035918D01*
X019943Y035863D02*
X019763Y035863D01*
X019763Y035763D02*
X019943Y035763D01*
X019943Y035708D01*
X019943Y035763D02*
X020123Y035763D01*
X018733Y035167D02*
X018733Y034987D01*
X018788Y034987D01*
X018733Y034987D02*
X018733Y034807D01*
X018633Y034807D02*
X018633Y034987D01*
X018578Y034987D01*
X018633Y034987D02*
X018633Y035167D01*
X018574Y034536D02*
X018714Y034536D01*
X018714Y034256D02*
X018574Y034256D01*
X018705Y033521D02*
X018705Y033381D01*
X018425Y033381D02*
X018425Y033521D01*
X019094Y033521D02*
X019094Y033381D01*
X019374Y033381D02*
X019374Y033521D01*
X017415Y034256D02*
X017275Y034256D01*
X017275Y034536D02*
X017415Y034536D01*
X017395Y034807D02*
X017395Y034987D01*
X017450Y034987D01*
X017395Y034987D02*
X017395Y035167D01*
X017295Y035167D02*
X017295Y034987D01*
X017240Y034987D01*
X017295Y034987D02*
X017295Y034807D01*
X018043Y037090D02*
X018043Y037270D01*
X017988Y037270D01*
X018043Y037270D02*
X018043Y037450D01*
X018143Y037450D02*
X018143Y037270D01*
X018198Y037270D01*
X018143Y037270D02*
X018143Y037090D01*
X014329Y034499D02*
X014149Y034499D01*
X014149Y034554D01*
X014149Y034499D02*
X013969Y034499D01*
X013969Y034399D02*
X014149Y034399D01*
X014149Y034344D01*
X014149Y034399D02*
X014329Y034399D01*
X013320Y034261D02*
X013180Y034261D01*
X013180Y033981D02*
X013320Y033981D01*
X013320Y034610D02*
X013180Y034610D01*
X013180Y034890D02*
X013320Y034890D01*
X013300Y035870D02*
X013300Y036050D01*
X013355Y036050D01*
X013300Y036050D02*
X013300Y036230D01*
X013200Y036230D02*
X013200Y036050D01*
X013145Y036050D01*
X013200Y036050D02*
X013200Y035870D01*
X013200Y037169D02*
X013200Y037349D01*
X013145Y037349D01*
X013200Y037349D02*
X013200Y037529D01*
X013300Y037529D02*
X013300Y037349D01*
X013355Y037349D01*
X013300Y037349D02*
X013300Y037169D01*
X013338Y031150D02*
X013478Y031150D01*
X013478Y030870D02*
X013338Y030870D01*
X011422Y027655D02*
X011422Y027515D01*
X011142Y027515D02*
X011142Y027655D01*
X010792Y027655D02*
X010792Y027515D01*
X010512Y027515D02*
X010512Y027655D01*
X010162Y027655D02*
X010162Y027515D01*
X009882Y027515D02*
X009882Y027655D01*
X008193Y027655D02*
X008193Y027515D01*
X007913Y027515D02*
X007913Y027655D01*
X007603Y027635D02*
X007423Y027635D01*
X007423Y027690D01*
X007423Y027635D02*
X007243Y027635D01*
X007243Y027535D02*
X007423Y027535D01*
X007423Y027480D01*
X007423Y027535D02*
X007603Y027535D01*
X006934Y027535D02*
X006754Y027535D01*
X006754Y027480D01*
X006754Y027535D02*
X006574Y027535D01*
X006574Y027635D02*
X006754Y027635D01*
X006754Y027690D01*
X006754Y027635D02*
X006934Y027635D01*
X006304Y027635D02*
X006124Y027635D01*
X006124Y027690D01*
X006124Y027635D02*
X005944Y027635D01*
X005944Y027535D02*
X006124Y027535D01*
X006124Y027480D01*
X006124Y027535D02*
X006304Y027535D01*
X008937Y025844D02*
X008937Y025704D01*
X009217Y025704D02*
X009217Y025844D01*
X009178Y024545D02*
X009178Y024405D01*
X008898Y024405D02*
X008898Y024545D01*
X009342Y023631D02*
X009342Y023451D01*
X009287Y023451D01*
X009342Y023451D02*
X009342Y023271D01*
X009442Y023271D02*
X009442Y023451D01*
X009497Y023451D01*
X009442Y023451D02*
X009442Y023631D01*
X011180Y024543D02*
X011360Y024543D01*
X011360Y024488D01*
X011360Y024543D02*
X011540Y024543D01*
X011540Y024643D02*
X011360Y024643D01*
X011360Y024698D01*
X011360Y024643D02*
X011180Y024643D01*
X011220Y025743D02*
X011220Y025883D01*
X011500Y025883D02*
X011500Y025743D01*
X012013Y025776D02*
X012193Y025776D01*
X012193Y025721D01*
X012193Y025776D02*
X012373Y025776D01*
X012373Y025876D02*
X012193Y025876D01*
X012193Y025931D01*
X012193Y025876D02*
X012013Y025876D01*
X012964Y027051D02*
X012964Y027231D01*
X012909Y027231D01*
X012964Y027231D02*
X012964Y027411D01*
X013064Y027411D02*
X013064Y027231D01*
X013119Y027231D01*
X013064Y027231D02*
X013064Y027051D01*
X016784Y030371D02*
X016784Y030711D01*
X016954Y030711D01*
X017011Y030655D01*
X017011Y030541D01*
X016954Y030484D01*
X016784Y030484D01*
X016898Y030484D02*
X017011Y030371D01*
X017152Y030428D02*
X017152Y030541D01*
X017209Y030598D01*
X017323Y030598D01*
X017379Y030541D01*
X017379Y030484D01*
X017152Y030484D01*
X017152Y030428D02*
X017209Y030371D01*
X017323Y030371D01*
X017521Y030371D02*
X017691Y030371D01*
X017748Y030428D01*
X017691Y030484D01*
X017578Y030484D01*
X017521Y030541D01*
X017578Y030598D01*
X017748Y030598D01*
X017889Y030541D02*
X017946Y030598D01*
X018059Y030598D01*
X018116Y030541D01*
X018116Y030484D01*
X017889Y030484D01*
X017889Y030428D02*
X017889Y030541D01*
X017889Y030428D02*
X017946Y030371D01*
X018059Y030371D01*
X018314Y030428D02*
X018371Y030371D01*
X018314Y030428D02*
X018314Y030655D01*
X018257Y030598D02*
X018371Y030598D01*
X020031Y030673D02*
X020171Y030673D01*
X020171Y030953D02*
X020031Y030953D01*
X023765Y028940D02*
X023765Y028599D01*
X023666Y022655D02*
X023666Y022515D01*
X023386Y022515D02*
X023386Y022655D01*
X019283Y019262D02*
X019143Y019262D01*
X019143Y018982D02*
X019283Y018982D01*
X019267Y018402D02*
X019267Y018222D01*
X019322Y018222D01*
X019267Y018222D02*
X019267Y018042D01*
X019167Y018042D02*
X019167Y018222D01*
X019112Y018222D01*
X019167Y018222D02*
X019167Y018402D01*
X018646Y016884D02*
X018582Y016820D01*
X018646Y016884D02*
X018709Y016820D01*
X019416Y016113D02*
X019480Y016049D01*
X019416Y015986D01*
X018709Y015279D02*
X018646Y015215D01*
X018582Y015279D01*
X017875Y015986D02*
X017811Y016049D01*
X017875Y016113D01*
X016424Y016664D02*
X016369Y016664D01*
X016369Y016844D01*
X016269Y016844D02*
X016269Y016664D01*
X016214Y016664D01*
X016269Y016664D02*
X016269Y016484D01*
X016369Y016484D02*
X016369Y016664D01*
X016336Y015475D02*
X016196Y015475D01*
X016196Y015195D02*
X016336Y015195D01*
X031980Y029256D02*
X031980Y029436D01*
X031925Y029436D01*
X031980Y029436D02*
X031980Y029616D01*
X032080Y029616D02*
X032080Y029436D01*
X032135Y029436D01*
X032080Y029436D02*
X032080Y029256D01*
X032080Y029964D02*
X032080Y030144D01*
X032135Y030144D01*
X032080Y030144D02*
X032080Y030324D01*
X031980Y030324D02*
X031980Y030144D01*
X031925Y030144D01*
X031980Y030144D02*
X031980Y029964D01*
X033397Y037090D02*
X033397Y037270D01*
X033342Y037270D01*
X033397Y037270D02*
X033397Y037450D01*
X033497Y037450D02*
X033497Y037270D01*
X033552Y037270D01*
X033497Y037270D02*
X033497Y037090D01*
X008158Y037310D02*
X008103Y037310D01*
X008103Y037130D01*
X008003Y037130D02*
X008003Y037310D01*
X007948Y037310D01*
X008003Y037310D02*
X008003Y037490D01*
X008103Y037490D02*
X008103Y037310D01*
D15*
X008044Y037619D02*
X008178Y037752D01*
X008178Y037786D01*
X008144Y037819D01*
X008078Y037819D01*
X008044Y037786D01*
X007957Y037786D02*
X007923Y037819D01*
X007857Y037819D01*
X007823Y037786D01*
X007823Y037652D01*
X007857Y037619D01*
X007923Y037619D01*
X007957Y037652D01*
X008044Y037619D02*
X008178Y037619D01*
X008119Y036832D02*
X008153Y036799D01*
X008153Y036732D01*
X008119Y036699D01*
X008019Y036699D01*
X008019Y036632D02*
X008019Y036832D01*
X008119Y036832D01*
X008240Y036799D02*
X008274Y036832D01*
X008340Y036832D01*
X008374Y036799D01*
X008374Y036765D01*
X008340Y036732D01*
X008374Y036699D01*
X008374Y036665D01*
X008340Y036632D01*
X008274Y036632D01*
X008240Y036665D01*
X008307Y036732D02*
X008340Y036732D01*
X008461Y036799D02*
X008495Y036832D01*
X008561Y036832D01*
X008595Y036799D01*
X008595Y036765D01*
X008461Y036632D01*
X008595Y036632D01*
X008682Y036632D02*
X008749Y036699D01*
X008816Y036632D01*
X008816Y036832D01*
X008903Y036832D02*
X009003Y036832D01*
X009037Y036799D01*
X009037Y036732D01*
X009003Y036699D01*
X008903Y036699D01*
X008970Y036699D02*
X009037Y036632D01*
X009124Y036665D02*
X009158Y036632D01*
X009224Y036632D01*
X009258Y036665D01*
X009258Y036799D01*
X009224Y036832D01*
X009158Y036832D01*
X009124Y036799D01*
X009124Y036665D01*
X009345Y036665D02*
X009379Y036632D01*
X009445Y036632D01*
X009479Y036665D01*
X009479Y036799D01*
X009445Y036832D01*
X009379Y036832D01*
X009345Y036799D01*
X009345Y036665D01*
X009566Y036632D02*
X009566Y036832D01*
X009633Y036765D01*
X009700Y036832D01*
X009700Y036632D01*
X009787Y036665D02*
X009821Y036632D01*
X009887Y036632D01*
X009921Y036665D01*
X009921Y036699D01*
X009887Y036732D01*
X009854Y036732D01*
X009887Y036732D02*
X009921Y036765D01*
X009921Y036799D01*
X009887Y036832D01*
X009821Y036832D01*
X009787Y036799D01*
X010008Y036799D02*
X010042Y036832D01*
X010108Y036832D01*
X010142Y036799D01*
X010142Y036765D01*
X010008Y036632D01*
X010142Y036632D01*
X008903Y036632D02*
X008903Y036832D01*
X008682Y036832D02*
X008682Y036632D01*
X007932Y036665D02*
X007898Y036632D01*
X007832Y036632D01*
X007798Y036665D01*
X007832Y036732D02*
X007898Y036732D01*
X007932Y036699D01*
X007932Y036665D01*
X007832Y036732D02*
X007798Y036765D01*
X007798Y036799D01*
X007832Y036832D01*
X007898Y036832D01*
X007932Y036799D01*
X007711Y036832D02*
X007577Y036832D01*
X007577Y036632D01*
X007711Y036632D01*
X007644Y036732D02*
X007577Y036732D01*
X012386Y036253D02*
X012420Y036253D01*
X012553Y036119D01*
X012587Y036119D01*
X012553Y036032D02*
X012587Y035999D01*
X012587Y035932D01*
X012553Y035898D01*
X012420Y035898D01*
X012386Y035932D01*
X012386Y035999D01*
X012420Y036032D01*
X012386Y036119D02*
X012386Y036253D01*
X012427Y035562D02*
X012394Y035529D01*
X012394Y035462D01*
X012427Y035429D01*
X012427Y035341D02*
X012394Y035308D01*
X012394Y035208D01*
X012594Y035208D01*
X012594Y035308D01*
X012561Y035341D01*
X012427Y035341D01*
X012594Y035429D02*
X012461Y035562D01*
X012427Y035562D01*
X012594Y035562D02*
X012594Y035429D01*
X012645Y035124D02*
X012511Y035124D01*
X012511Y035024D01*
X012578Y035057D01*
X012611Y035057D01*
X012645Y035024D01*
X012645Y034957D01*
X012611Y034924D01*
X012545Y034924D01*
X012511Y034957D01*
X012424Y034924D02*
X012357Y034990D01*
X012390Y034990D02*
X012290Y034990D01*
X012290Y034924D02*
X012290Y035124D01*
X012390Y035124D01*
X012424Y035090D01*
X012424Y035024D01*
X012390Y034990D01*
X013038Y033825D02*
X013138Y033825D01*
X013172Y033791D01*
X013172Y033724D01*
X013138Y033691D01*
X013038Y033691D01*
X013038Y033624D02*
X013038Y033825D01*
X013105Y033691D02*
X013172Y033624D01*
X013259Y033658D02*
X013259Y033691D01*
X013293Y033724D01*
X013359Y033724D01*
X013393Y033691D01*
X013393Y033658D01*
X013359Y033624D01*
X013293Y033624D01*
X013259Y033658D01*
X013293Y033724D02*
X013259Y033758D01*
X013259Y033791D01*
X013293Y033825D01*
X013359Y033825D01*
X013393Y033791D01*
X013393Y033758D01*
X013359Y033724D01*
X014466Y034174D02*
X014499Y034140D01*
X014633Y034140D01*
X014666Y034174D01*
X014666Y034240D01*
X014633Y034274D01*
X014666Y034361D02*
X014666Y034495D01*
X014666Y034428D02*
X014466Y034428D01*
X014533Y034361D01*
X014499Y034274D02*
X014466Y034240D01*
X014466Y034174D01*
X014499Y034582D02*
X014466Y034616D01*
X014466Y034682D01*
X014499Y034716D01*
X014533Y034716D01*
X014666Y034582D01*
X014666Y034716D01*
X014089Y037158D02*
X013955Y037158D01*
X013922Y037192D01*
X013922Y037258D01*
X013955Y037292D01*
X013989Y037379D02*
X013922Y037446D01*
X014122Y037446D01*
X014122Y037379D02*
X014122Y037513D01*
X014089Y037292D02*
X014122Y037258D01*
X014122Y037192D01*
X014089Y037158D01*
X017115Y035463D02*
X017115Y035329D01*
X017148Y035296D01*
X017215Y035296D01*
X017248Y035329D01*
X017336Y035296D02*
X017469Y035296D01*
X017402Y035296D02*
X017402Y035496D01*
X017336Y035430D01*
X017248Y035463D02*
X017215Y035496D01*
X017148Y035496D01*
X017115Y035463D01*
X017557Y035463D02*
X017590Y035496D01*
X017657Y035496D01*
X017690Y035463D01*
X017557Y035329D01*
X017590Y035296D01*
X017657Y035296D01*
X017690Y035329D01*
X017690Y035463D01*
X017694Y035575D02*
X017828Y035575D01*
X017861Y035609D01*
X017861Y035675D01*
X017828Y035709D01*
X017828Y035796D02*
X017861Y035830D01*
X017861Y035896D01*
X017828Y035930D01*
X017694Y035930D01*
X017661Y035896D01*
X017661Y035830D01*
X017694Y035796D01*
X017727Y035796D01*
X017761Y035830D01*
X017761Y035930D01*
X017694Y035709D02*
X017661Y035675D01*
X017661Y035609D01*
X017694Y035575D01*
X017557Y035463D02*
X017557Y035329D01*
X017430Y034040D02*
X017363Y034006D01*
X017296Y033939D01*
X017396Y033939D01*
X017430Y033906D01*
X017430Y033873D01*
X017396Y033839D01*
X017330Y033839D01*
X017296Y033873D01*
X017296Y033939D01*
X017209Y033939D02*
X017175Y033906D01*
X017075Y033906D01*
X017075Y033839D02*
X017075Y034040D01*
X017175Y034040D01*
X017209Y034006D01*
X017209Y033939D01*
X017142Y033906D02*
X017209Y033839D01*
X017355Y033496D02*
X017388Y033496D01*
X017421Y033462D01*
X017421Y033362D01*
X017455Y033275D02*
X017488Y033275D01*
X017522Y033241D01*
X017522Y033174D01*
X017488Y033141D01*
X017421Y033174D02*
X017421Y033241D01*
X017455Y033275D01*
X017355Y033275D02*
X017321Y033241D01*
X017321Y033174D01*
X017355Y033141D01*
X017388Y033141D01*
X017421Y033174D01*
X017488Y033054D02*
X017321Y033054D01*
X017321Y032920D02*
X017488Y032920D01*
X017522Y032953D01*
X017522Y033020D01*
X017488Y033054D01*
X017532Y032751D02*
X017632Y032751D01*
X017665Y032717D01*
X017665Y032584D01*
X017632Y032551D01*
X017532Y032551D01*
X017532Y032751D01*
X017753Y032651D02*
X017853Y032651D01*
X017886Y032617D01*
X017886Y032584D01*
X017853Y032551D01*
X017786Y032551D01*
X017753Y032584D01*
X017753Y032651D01*
X017819Y032717D01*
X017886Y032751D01*
X018241Y032785D02*
X018342Y032785D01*
X018375Y032752D01*
X018375Y032685D01*
X018342Y032652D01*
X018241Y032652D01*
X018241Y032585D02*
X018241Y032785D01*
X018308Y032652D02*
X018375Y032585D01*
X018462Y032585D02*
X018596Y032585D01*
X018529Y032585D02*
X018529Y032785D01*
X018462Y032718D01*
X018683Y032752D02*
X018717Y032785D01*
X018784Y032785D01*
X018817Y032752D01*
X018817Y032718D01*
X018683Y032585D01*
X018817Y032585D01*
X018947Y032594D02*
X018947Y032795D01*
X019047Y032795D01*
X019080Y032761D01*
X019080Y032695D01*
X019047Y032661D01*
X018947Y032661D01*
X019014Y032661D02*
X019080Y032594D01*
X019168Y032594D02*
X019301Y032594D01*
X019235Y032594D02*
X019235Y032795D01*
X019168Y032728D01*
X019389Y032761D02*
X019422Y032795D01*
X019489Y032795D01*
X019522Y032761D01*
X019522Y032728D01*
X019489Y032695D01*
X019522Y032661D01*
X019522Y032628D01*
X019489Y032594D01*
X019422Y032594D01*
X019389Y032628D01*
X019456Y032695D02*
X019489Y032695D01*
X019387Y032064D02*
X019420Y032030D01*
X019420Y031964D01*
X019387Y031930D01*
X019387Y031843D02*
X019420Y031809D01*
X019420Y031743D01*
X019387Y031709D01*
X019253Y031709D01*
X019220Y031743D01*
X019220Y031809D01*
X019253Y031843D01*
X019387Y031843D01*
X019420Y031843D02*
X019353Y031776D01*
X019253Y031930D02*
X019220Y031964D01*
X019220Y032030D01*
X019253Y032064D01*
X019287Y032064D01*
X019320Y032030D01*
X019353Y032064D01*
X019387Y032064D01*
X019320Y032030D02*
X019320Y031997D01*
X019708Y030485D02*
X019808Y030485D01*
X019841Y030451D01*
X019841Y030384D01*
X019808Y030351D01*
X019708Y030351D01*
X019774Y030351D02*
X019841Y030284D01*
X019929Y030284D02*
X020062Y030284D01*
X019995Y030284D02*
X019995Y030485D01*
X019929Y030418D01*
X020150Y030418D02*
X020150Y030451D01*
X020183Y030485D01*
X020250Y030485D01*
X020283Y030451D01*
X020283Y030418D01*
X020250Y030384D01*
X020183Y030384D01*
X020150Y030418D01*
X020183Y030384D02*
X020150Y030351D01*
X020150Y030318D01*
X020183Y030284D01*
X020250Y030284D01*
X020283Y030318D01*
X020283Y030351D01*
X020250Y030384D01*
X019708Y030284D02*
X019708Y030485D01*
X021011Y030486D02*
X021045Y030519D01*
X021111Y030519D01*
X021145Y030486D01*
X021145Y030353D01*
X021111Y030319D01*
X021045Y030319D01*
X021011Y030353D01*
X021011Y030486D01*
X021078Y030386D02*
X021145Y030319D01*
X021232Y030419D02*
X021366Y030419D01*
X021332Y030319D02*
X021332Y030519D01*
X021232Y030419D01*
X021891Y029381D02*
X021858Y029348D01*
X021858Y029281D01*
X021891Y029248D01*
X021891Y029160D02*
X021858Y029127D01*
X021858Y029060D01*
X021891Y029027D01*
X021924Y029027D01*
X021958Y029060D01*
X021958Y029127D01*
X021991Y029160D01*
X022024Y029160D01*
X022058Y029127D01*
X022058Y029060D01*
X022024Y029027D01*
X022058Y029248D02*
X021924Y029381D01*
X021891Y029381D01*
X022058Y029381D02*
X022058Y029248D01*
X023611Y029182D02*
X023711Y029182D01*
X023744Y029215D01*
X023744Y029282D01*
X023711Y029315D01*
X023611Y029315D01*
X023611Y029115D01*
X023678Y029182D02*
X023744Y029115D01*
X023832Y029115D02*
X023965Y029248D01*
X023965Y029282D01*
X023932Y029315D01*
X023865Y029315D01*
X023832Y029282D01*
X023832Y029115D02*
X023965Y029115D01*
X024053Y029115D02*
X024186Y029115D01*
X024119Y029115D02*
X024119Y029315D01*
X024053Y029248D01*
X024086Y029745D02*
X024053Y029778D01*
X024186Y029912D01*
X024186Y029778D01*
X024153Y029745D01*
X024086Y029745D01*
X024053Y029778D02*
X024053Y029912D01*
X024086Y029945D01*
X024153Y029945D01*
X024186Y029912D01*
X023965Y029912D02*
X023932Y029945D01*
X023865Y029945D01*
X023832Y029912D01*
X023744Y029912D02*
X023744Y029845D01*
X023711Y029812D01*
X023611Y029812D01*
X023678Y029812D02*
X023744Y029745D01*
X023832Y029745D02*
X023965Y029878D01*
X023965Y029912D01*
X023965Y029745D02*
X023832Y029745D01*
X023744Y029912D02*
X023711Y029945D01*
X023611Y029945D01*
X023611Y029745D01*
X023644Y030454D02*
X023711Y030454D01*
X023744Y030487D01*
X023832Y030454D02*
X023965Y030454D01*
X023898Y030454D02*
X023898Y030654D01*
X023832Y030587D01*
X023744Y030620D02*
X023711Y030654D01*
X023644Y030654D01*
X023611Y030620D01*
X023611Y030487D01*
X023644Y030454D01*
X024053Y030487D02*
X024086Y030454D01*
X024153Y030454D01*
X024186Y030487D01*
X024186Y030520D01*
X024153Y030554D01*
X024053Y030554D01*
X024053Y030487D01*
X024053Y030554D02*
X024119Y030620D01*
X024186Y030654D01*
X024153Y031103D02*
X024186Y031137D01*
X024186Y031170D01*
X024153Y031203D01*
X024053Y031203D01*
X024053Y031137D01*
X024086Y031103D01*
X024153Y031103D01*
X024053Y031203D02*
X024119Y031270D01*
X024186Y031303D01*
X023898Y031303D02*
X023898Y031103D01*
X023832Y031103D02*
X023965Y031103D01*
X023832Y031237D02*
X023898Y031303D01*
X023744Y031270D02*
X023744Y031203D01*
X023711Y031170D01*
X023611Y031170D01*
X023678Y031170D02*
X023744Y031103D01*
X023611Y031103D02*
X023611Y031303D01*
X023711Y031303D01*
X023744Y031270D01*
X023731Y032133D02*
X023731Y032333D01*
X023797Y032333D02*
X023664Y032333D01*
X023885Y032333D02*
X024018Y032133D01*
X023885Y032133D02*
X024018Y032333D01*
X024032Y032531D02*
X023831Y032531D01*
X023831Y032631D01*
X023865Y032665D01*
X023932Y032665D01*
X023965Y032631D01*
X023965Y032531D01*
X023965Y032598D02*
X024032Y032665D01*
X024032Y032752D02*
X024032Y032886D01*
X024032Y032819D02*
X023831Y032819D01*
X023898Y032752D01*
X023932Y032973D02*
X023932Y033107D01*
X024032Y033073D02*
X023831Y033073D01*
X023932Y032973D01*
X023845Y033451D02*
X023845Y033551D01*
X023879Y033585D01*
X024012Y033585D01*
X024046Y033551D01*
X024046Y033451D01*
X023845Y033451D01*
X023845Y033672D02*
X023946Y033672D01*
X023912Y033739D01*
X023912Y033772D01*
X023946Y033806D01*
X024012Y033806D01*
X024046Y033772D01*
X024046Y033706D01*
X024012Y033672D01*
X023845Y033672D02*
X023845Y033806D01*
X023836Y034032D02*
X023836Y034133D01*
X023869Y034166D01*
X024003Y034166D01*
X024036Y034133D01*
X024036Y034032D01*
X023836Y034032D01*
X023936Y034253D02*
X023936Y034387D01*
X023836Y034354D02*
X023936Y034253D01*
X024036Y034354D02*
X023836Y034354D01*
X023850Y034700D02*
X023850Y034800D01*
X023883Y034833D01*
X023950Y034833D01*
X023983Y034800D01*
X023983Y034700D01*
X023983Y034766D02*
X024050Y034833D01*
X024017Y034921D02*
X024050Y034954D01*
X024050Y035021D01*
X024017Y035054D01*
X023983Y035054D01*
X023950Y035021D01*
X023950Y034987D01*
X023950Y035021D02*
X023917Y035054D01*
X023883Y035054D01*
X023850Y035021D01*
X023850Y034954D01*
X023883Y034921D01*
X023850Y034700D02*
X024050Y034700D01*
X024018Y035282D02*
X023885Y035482D01*
X023797Y035449D02*
X023797Y035382D01*
X023764Y035349D01*
X023664Y035349D01*
X023731Y035349D02*
X023797Y035282D01*
X023885Y035282D02*
X024018Y035482D01*
X023797Y035449D02*
X023764Y035482D01*
X023664Y035482D01*
X023664Y035282D01*
X023160Y035347D02*
X023160Y035447D01*
X023127Y035480D01*
X022993Y035480D01*
X022960Y035447D01*
X022960Y035347D01*
X023160Y035347D01*
X023160Y035568D02*
X023160Y035701D01*
X023160Y035635D02*
X022960Y035635D01*
X023027Y035568D01*
X022887Y036767D02*
X022753Y036767D01*
X022820Y036767D02*
X022820Y036967D01*
X022753Y036900D01*
X022666Y036967D02*
X022532Y036967D01*
X022532Y036767D01*
X022532Y036867D02*
X022599Y036867D01*
X023172Y037580D02*
X023238Y037580D01*
X023272Y037613D01*
X023359Y037613D02*
X023393Y037580D01*
X023459Y037580D01*
X023493Y037613D01*
X023493Y037680D01*
X023459Y037713D01*
X023426Y037713D01*
X023359Y037680D01*
X023359Y037780D01*
X023493Y037780D01*
X023272Y037746D02*
X023238Y037780D01*
X023172Y037780D01*
X023138Y037746D01*
X023138Y037613D01*
X023172Y037580D01*
X024843Y036272D02*
X024977Y036272D01*
X024910Y036272D02*
X024910Y036072D01*
X025064Y036072D02*
X025198Y036072D01*
X025131Y036072D02*
X025131Y036272D01*
X025064Y036205D01*
X024841Y035012D02*
X024841Y034878D01*
X024741Y034978D01*
X024941Y034978D01*
X024941Y034791D02*
X024874Y034724D01*
X024874Y034757D02*
X024874Y034657D01*
X024941Y034657D02*
X024741Y034657D01*
X024741Y034757D01*
X024774Y034791D01*
X024841Y034791D01*
X024874Y034757D01*
X025501Y034055D02*
X025601Y034055D01*
X025635Y034022D01*
X025635Y033888D01*
X025601Y033855D01*
X025501Y033855D01*
X025501Y034055D01*
X025722Y034022D02*
X025755Y034055D01*
X025822Y034055D01*
X025856Y034022D01*
X025856Y033988D01*
X025822Y033955D01*
X025856Y033922D01*
X025856Y033888D01*
X025822Y033855D01*
X025755Y033855D01*
X025722Y033888D01*
X025789Y033955D02*
X025822Y033955D01*
X026621Y033588D02*
X026621Y033388D01*
X026621Y033455D02*
X026721Y033455D01*
X026754Y033488D01*
X026754Y033555D01*
X026721Y033588D01*
X026621Y033588D01*
X026688Y033455D02*
X026754Y033388D01*
X026842Y033422D02*
X026875Y033388D01*
X026942Y033388D01*
X026975Y033422D01*
X026975Y033555D01*
X026942Y033588D01*
X026875Y033588D01*
X026842Y033555D01*
X026842Y033522D01*
X026875Y033488D01*
X026975Y033488D01*
X027410Y034956D02*
X027477Y034956D01*
X027510Y034989D01*
X027598Y034956D02*
X027731Y034956D01*
X027664Y034956D02*
X027664Y035156D01*
X027598Y035089D01*
X027510Y035122D02*
X027477Y035156D01*
X027410Y035156D01*
X027377Y035122D01*
X027377Y034989D01*
X027410Y034956D01*
X027819Y034989D02*
X027852Y034956D01*
X027919Y034956D01*
X027952Y034989D01*
X027952Y035022D01*
X027919Y035056D01*
X027885Y035056D01*
X027919Y035056D02*
X027952Y035089D01*
X027952Y035122D01*
X027919Y035156D01*
X027852Y035156D01*
X027819Y035122D01*
X028704Y034569D02*
X028704Y034502D01*
X028737Y034469D01*
X028870Y034469D01*
X028737Y034602D01*
X028870Y034602D01*
X028904Y034569D01*
X028904Y034502D01*
X028870Y034469D01*
X028904Y034381D02*
X028904Y034248D01*
X028904Y034314D02*
X028704Y034314D01*
X028770Y034248D01*
X028737Y034160D02*
X028804Y034160D01*
X028837Y034127D01*
X028837Y034027D01*
X028837Y034093D02*
X028904Y034160D01*
X028904Y034027D02*
X028704Y034027D01*
X028704Y034127D01*
X028737Y034160D01*
X028704Y034569D02*
X028737Y034602D01*
X028956Y033532D02*
X028923Y033499D01*
X028923Y033432D01*
X028956Y033399D01*
X028956Y033311D02*
X028923Y033278D01*
X028923Y033211D01*
X028956Y033178D01*
X029089Y033178D01*
X029123Y033211D01*
X029123Y033278D01*
X029089Y033311D01*
X029123Y033399D02*
X028989Y033532D01*
X028956Y033532D01*
X029123Y033532D02*
X029123Y033399D01*
X029123Y033097D02*
X029123Y033030D01*
X029123Y033064D02*
X028923Y033064D01*
X028923Y033097D02*
X028923Y033030D01*
X029653Y033309D02*
X029653Y033510D01*
X029753Y033510D01*
X029786Y033476D01*
X029786Y033410D01*
X029753Y033376D01*
X029653Y033376D01*
X029719Y033376D02*
X029786Y033309D01*
X029874Y033309D02*
X030007Y033309D01*
X029940Y033309D02*
X029940Y033510D01*
X029874Y033443D01*
X030094Y033443D02*
X030161Y033510D01*
X030161Y033309D01*
X030094Y033309D02*
X030228Y033309D01*
X030826Y030830D02*
X030826Y030697D01*
X030926Y030697D01*
X030892Y030764D01*
X030892Y030797D01*
X030926Y030830D01*
X030992Y030830D01*
X031026Y030797D01*
X031026Y030730D01*
X030992Y030697D01*
X030992Y030609D02*
X031026Y030576D01*
X031026Y030509D01*
X030992Y030476D01*
X030859Y030476D01*
X030826Y030509D01*
X030826Y030576D01*
X030859Y030609D01*
X030992Y030609D01*
X031026Y030609D02*
X030959Y030543D01*
X031504Y030601D02*
X031504Y030467D01*
X031538Y030434D01*
X031605Y030434D01*
X031638Y030467D01*
X031725Y030434D02*
X031859Y030434D01*
X031792Y030434D02*
X031792Y030634D01*
X031725Y030567D01*
X031638Y030601D02*
X031605Y030634D01*
X031538Y030634D01*
X031504Y030601D01*
X031946Y030601D02*
X031946Y030567D01*
X031980Y030534D01*
X032080Y030534D01*
X032080Y030467D02*
X032080Y030601D01*
X032047Y030634D01*
X031980Y030634D01*
X031946Y030601D01*
X031946Y030467D02*
X031980Y030434D01*
X032047Y030434D01*
X032080Y030467D01*
X031994Y029138D02*
X031994Y028938D01*
X032060Y028938D02*
X031927Y028938D01*
X031839Y028938D02*
X031706Y028938D01*
X031839Y029071D01*
X031839Y029105D01*
X031806Y029138D01*
X031739Y029138D01*
X031706Y029105D01*
X031618Y029105D02*
X031585Y029138D01*
X031518Y029138D01*
X031485Y029105D01*
X031485Y028971D01*
X031518Y028938D01*
X031585Y028938D01*
X031618Y028971D01*
X031927Y029071D02*
X031994Y029138D01*
X031122Y027531D02*
X031122Y027398D01*
X030988Y027531D01*
X030955Y027531D01*
X030922Y027498D01*
X030922Y027431D01*
X030955Y027398D01*
X030955Y027310D02*
X030988Y027310D01*
X031022Y027277D01*
X031055Y027310D01*
X031088Y027310D01*
X031122Y027277D01*
X031122Y027210D01*
X031088Y027177D01*
X031088Y027089D02*
X031122Y027056D01*
X031122Y026989D01*
X031088Y026956D01*
X030955Y026956D01*
X030922Y026989D01*
X030922Y027056D01*
X030955Y027089D01*
X030955Y027177D02*
X030922Y027210D01*
X030922Y027277D01*
X030955Y027310D01*
X031022Y027277D02*
X031022Y027244D01*
X030105Y026495D02*
X030072Y026529D01*
X030005Y026529D01*
X029972Y026495D01*
X029972Y026462D01*
X030005Y026428D01*
X030105Y026428D01*
X030105Y026362D02*
X030105Y026495D01*
X030105Y026362D02*
X030072Y026328D01*
X030005Y026328D01*
X029972Y026362D01*
X029884Y026362D02*
X029884Y026495D01*
X029851Y026529D01*
X029751Y026529D01*
X029751Y026328D01*
X029851Y026328D01*
X029884Y026362D01*
X029895Y026108D02*
X029928Y026075D01*
X029928Y026041D01*
X029895Y026008D01*
X029928Y025975D01*
X029928Y025941D01*
X029895Y025908D01*
X029828Y025908D01*
X029795Y025941D01*
X029707Y025908D02*
X029641Y025975D01*
X029674Y025975D02*
X029574Y025975D01*
X029574Y025908D02*
X029574Y026108D01*
X029674Y026108D01*
X029707Y026075D01*
X029707Y026008D01*
X029674Y025975D01*
X029795Y026075D02*
X029828Y026108D01*
X029895Y026108D01*
X029895Y026008D02*
X029861Y026008D01*
X030016Y026008D02*
X030082Y026041D01*
X030116Y026041D01*
X030149Y026008D01*
X030149Y025941D01*
X030116Y025908D01*
X030049Y025908D01*
X030016Y025941D01*
X030016Y026008D02*
X030016Y026108D01*
X030149Y026108D01*
X029088Y025969D02*
X029021Y025935D01*
X028954Y025869D01*
X029054Y025869D01*
X029088Y025835D01*
X029088Y025802D01*
X029054Y025769D01*
X028988Y025769D01*
X028954Y025802D01*
X028954Y025869D01*
X028867Y025902D02*
X028833Y025869D01*
X028867Y025835D01*
X028867Y025802D01*
X028833Y025769D01*
X028767Y025769D01*
X028733Y025802D01*
X028646Y025802D02*
X028612Y025769D01*
X028546Y025769D01*
X028512Y025802D01*
X028512Y025935D01*
X028546Y025969D01*
X028612Y025969D01*
X028646Y025935D01*
X028733Y025935D02*
X028767Y025969D01*
X028833Y025969D01*
X028867Y025935D01*
X028867Y025902D01*
X028833Y025869D02*
X028800Y025869D01*
X028680Y025024D02*
X028614Y025024D01*
X028580Y024990D01*
X028580Y024957D01*
X028614Y024924D01*
X028714Y024924D01*
X028714Y024990D02*
X028680Y025024D01*
X028714Y024990D02*
X028714Y024857D01*
X028680Y024824D01*
X028614Y024824D01*
X028580Y024857D01*
X028493Y024824D02*
X028359Y024824D01*
X028493Y024957D01*
X028493Y024990D01*
X028459Y025024D01*
X028393Y025024D01*
X028359Y024990D01*
X028272Y024990D02*
X028272Y024924D01*
X028238Y024890D01*
X028138Y024890D01*
X028138Y024824D02*
X028138Y025024D01*
X028238Y025024D01*
X028272Y024990D01*
X028205Y024890D02*
X028272Y024824D01*
X028066Y026980D02*
X027866Y026980D01*
X027866Y027080D01*
X027900Y027113D01*
X028033Y027113D01*
X028066Y027080D01*
X028066Y026980D01*
X028066Y027201D02*
X028033Y027201D01*
X027900Y027334D01*
X027866Y027334D01*
X027866Y027201D01*
X027159Y027310D02*
X027126Y027277D01*
X027059Y027277D01*
X027026Y027310D01*
X027092Y027377D02*
X027126Y027377D01*
X027159Y027343D01*
X027159Y027310D01*
X027126Y027377D02*
X027159Y027410D01*
X027159Y027443D01*
X027126Y027477D01*
X027059Y027477D01*
X027026Y027443D01*
X026938Y027443D02*
X026905Y027477D01*
X026838Y027477D01*
X026805Y027443D01*
X026717Y027443D02*
X026684Y027477D01*
X026617Y027477D01*
X026584Y027443D01*
X026584Y027310D01*
X026617Y027277D01*
X026684Y027277D01*
X026717Y027310D01*
X026805Y027277D02*
X026938Y027410D01*
X026938Y027443D01*
X026938Y027277D02*
X026805Y027277D01*
X026918Y028249D02*
X026918Y028449D01*
X027018Y028449D01*
X027051Y028416D01*
X027051Y028349D01*
X027018Y028316D01*
X026918Y028316D01*
X026985Y028316D02*
X027051Y028249D01*
X027139Y028282D02*
X027172Y028249D01*
X027239Y028249D01*
X027272Y028282D01*
X027272Y028316D01*
X027239Y028349D01*
X027206Y028349D01*
X027239Y028349D02*
X027272Y028382D01*
X027272Y028416D01*
X027239Y028449D01*
X027172Y028449D01*
X027139Y028416D01*
X027360Y028416D02*
X027393Y028449D01*
X027460Y028449D01*
X027493Y028416D01*
X027493Y028382D01*
X027360Y028249D01*
X027493Y028249D01*
X027587Y028302D02*
X027621Y028269D01*
X027687Y028269D01*
X027721Y028302D01*
X027808Y028269D02*
X027942Y028402D01*
X027942Y028435D01*
X027908Y028469D01*
X027842Y028469D01*
X027808Y028435D01*
X027721Y028435D02*
X027687Y028469D01*
X027621Y028469D01*
X027587Y028435D01*
X027587Y028302D01*
X027808Y028269D02*
X027942Y028269D01*
X028029Y028302D02*
X028063Y028269D01*
X028129Y028269D01*
X028163Y028302D01*
X028163Y028369D01*
X028129Y028402D01*
X028096Y028402D01*
X028029Y028369D01*
X028029Y028469D01*
X028163Y028469D01*
X028106Y028709D02*
X028240Y028709D01*
X028273Y028742D01*
X028273Y028809D01*
X028240Y028842D01*
X028273Y028930D02*
X028140Y029063D01*
X028106Y029063D01*
X028073Y029030D01*
X028073Y028963D01*
X028106Y028930D01*
X028106Y028842D02*
X028073Y028809D01*
X028073Y028742D01*
X028106Y028709D01*
X028273Y028930D02*
X028273Y029063D01*
X028273Y029151D02*
X028140Y029284D01*
X028106Y029284D01*
X028073Y029251D01*
X028073Y029184D01*
X028106Y029151D01*
X028273Y029151D02*
X028273Y029284D01*
X027873Y029118D02*
X027740Y028985D01*
X027773Y028952D01*
X027840Y028952D01*
X027873Y028985D01*
X027873Y029118D01*
X027840Y029152D01*
X027773Y029152D01*
X027740Y029118D01*
X027740Y028985D01*
X027652Y028952D02*
X027519Y028952D01*
X027652Y029085D01*
X027652Y029118D01*
X027619Y029152D01*
X027552Y029152D01*
X027519Y029118D01*
X027431Y029118D02*
X027398Y029152D01*
X027331Y029152D01*
X027298Y029118D01*
X027298Y028985D01*
X027331Y028952D01*
X027398Y028952D01*
X027431Y028985D01*
X027102Y029107D02*
X026969Y028974D01*
X026969Y028940D01*
X026881Y028940D02*
X026748Y028940D01*
X026814Y028940D02*
X026814Y029140D01*
X026748Y029074D01*
X026660Y029107D02*
X026627Y029140D01*
X026560Y029140D01*
X026527Y029107D01*
X026527Y028974D01*
X026560Y028940D01*
X026627Y028940D01*
X026660Y028974D01*
X026969Y029140D02*
X027102Y029140D01*
X027102Y029107D01*
X026173Y029406D02*
X026139Y029372D01*
X026073Y029372D01*
X026039Y029406D01*
X026173Y029539D01*
X026173Y029406D01*
X026173Y029539D02*
X026139Y029573D01*
X026073Y029573D01*
X026039Y029539D01*
X026039Y029406D01*
X025952Y029406D02*
X025918Y029372D01*
X025852Y029372D01*
X025818Y029406D01*
X025731Y029372D02*
X025664Y029439D01*
X025697Y029439D02*
X025597Y029439D01*
X025597Y029372D02*
X025597Y029573D01*
X025697Y029573D01*
X025731Y029539D01*
X025731Y029473D01*
X025697Y029439D01*
X025818Y029539D02*
X025852Y029573D01*
X025918Y029573D01*
X025952Y029539D01*
X025952Y029506D01*
X025918Y029473D01*
X025952Y029439D01*
X025952Y029406D01*
X025918Y029473D02*
X025885Y029473D01*
X025603Y029852D02*
X025470Y029852D01*
X025436Y029886D01*
X025436Y029952D01*
X025470Y029986D01*
X025503Y030073D02*
X025436Y030140D01*
X025636Y030140D01*
X025636Y030073D02*
X025636Y030207D01*
X025603Y030294D02*
X025570Y030294D01*
X025536Y030328D01*
X025536Y030394D01*
X025570Y030428D01*
X025603Y030428D01*
X025636Y030394D01*
X025636Y030328D01*
X025603Y030294D01*
X025536Y030328D02*
X025503Y030294D01*
X025470Y030294D01*
X025436Y030328D01*
X025436Y030394D01*
X025470Y030428D01*
X025503Y030428D01*
X025536Y030394D01*
X025603Y029986D02*
X025636Y029952D01*
X025636Y029886D01*
X025603Y029852D01*
X025110Y028389D02*
X025110Y028256D01*
X025010Y028356D01*
X025211Y028356D01*
X025211Y028168D02*
X025211Y028035D01*
X025077Y028168D01*
X025044Y028168D01*
X025010Y028135D01*
X025010Y028068D01*
X025044Y028035D01*
X025044Y027947D02*
X025010Y027914D01*
X025010Y027847D01*
X025044Y027814D01*
X025177Y027814D01*
X025211Y027847D01*
X025211Y027914D01*
X025177Y027947D01*
X024029Y026690D02*
X024029Y026557D01*
X023896Y026690D01*
X023863Y026690D01*
X023829Y026657D01*
X023829Y026590D01*
X023863Y026557D01*
X023829Y026469D02*
X023829Y026336D01*
X024029Y026336D01*
X023929Y026336D02*
X023929Y026403D01*
X026408Y023339D02*
X026508Y023238D01*
X026508Y023372D01*
X026608Y023339D02*
X026408Y023339D01*
X026441Y023151D02*
X026475Y023151D01*
X026508Y023118D01*
X026541Y023151D01*
X026575Y023151D01*
X026608Y023118D01*
X026608Y023051D01*
X026575Y023017D01*
X026575Y022930D02*
X026608Y022897D01*
X026608Y022830D01*
X026575Y022796D01*
X026441Y022796D01*
X026408Y022830D01*
X026408Y022897D01*
X026441Y022930D01*
X026441Y023017D02*
X026408Y023051D01*
X026408Y023118D01*
X026441Y023151D01*
X026508Y023118D02*
X026508Y023084D01*
X027772Y021365D02*
X027873Y021264D01*
X027873Y021398D01*
X027973Y021365D02*
X027772Y021365D01*
X027772Y021177D02*
X027973Y021043D01*
X027973Y021177D02*
X027772Y021043D01*
X032642Y025361D02*
X032676Y025328D01*
X032809Y025328D01*
X032842Y025361D01*
X032842Y025428D01*
X032809Y025461D01*
X032809Y025549D02*
X032842Y025582D01*
X032842Y025649D01*
X032809Y025682D01*
X032776Y025682D01*
X032742Y025649D01*
X032742Y025615D01*
X032742Y025649D02*
X032709Y025682D01*
X032676Y025682D01*
X032642Y025649D01*
X032642Y025582D01*
X032676Y025549D01*
X032676Y025461D02*
X032642Y025428D01*
X032642Y025361D01*
X032676Y025770D02*
X032709Y025770D01*
X032742Y025803D01*
X032742Y025870D01*
X032776Y025903D01*
X032809Y025903D01*
X032842Y025870D01*
X032842Y025803D01*
X032809Y025770D01*
X032776Y025770D01*
X032742Y025803D01*
X032742Y025870D02*
X032709Y025903D01*
X032676Y025903D01*
X032642Y025870D01*
X032642Y025803D01*
X032676Y025770D01*
X032656Y026056D02*
X032789Y026056D01*
X032823Y026089D01*
X032823Y026156D01*
X032789Y026189D01*
X032789Y026277D02*
X032823Y026310D01*
X032823Y026377D01*
X032789Y026410D01*
X032756Y026410D01*
X032723Y026377D01*
X032723Y026344D01*
X032723Y026377D02*
X032689Y026410D01*
X032656Y026410D01*
X032623Y026377D01*
X032623Y026310D01*
X032656Y026277D01*
X032656Y026189D02*
X032623Y026156D01*
X032623Y026089D01*
X032656Y026056D01*
X032623Y026498D02*
X032723Y026498D01*
X032689Y026565D01*
X032689Y026598D01*
X032723Y026631D01*
X032789Y026631D01*
X032823Y026598D01*
X032823Y026531D01*
X032789Y026498D01*
X032623Y026498D02*
X032623Y026631D01*
X032676Y026765D02*
X032809Y026765D01*
X032842Y026798D01*
X032842Y026865D01*
X032809Y026898D01*
X032809Y026986D02*
X032842Y027019D01*
X032842Y027086D01*
X032809Y027119D01*
X032776Y027119D01*
X032742Y027086D01*
X032742Y027052D01*
X032742Y027086D02*
X032709Y027119D01*
X032676Y027119D01*
X032642Y027086D01*
X032642Y027019D01*
X032676Y026986D01*
X032676Y026898D02*
X032642Y026865D01*
X032642Y026798D01*
X032676Y026765D01*
X032676Y027207D02*
X032642Y027240D01*
X032642Y027307D01*
X032676Y027340D01*
X032709Y027340D01*
X032742Y027307D01*
X032776Y027340D01*
X032809Y027340D01*
X032842Y027307D01*
X032842Y027240D01*
X032809Y027207D01*
X032742Y027273D02*
X032742Y027307D01*
X034294Y024653D02*
X034428Y024452D01*
X034515Y024452D02*
X034649Y024452D01*
X034582Y024452D02*
X034582Y024653D01*
X034515Y024586D01*
X034428Y024653D02*
X034294Y024452D01*
X029658Y027651D02*
X029658Y027751D01*
X029624Y027784D01*
X029491Y027784D01*
X029457Y027751D01*
X029457Y027651D01*
X029658Y027651D01*
X029624Y027872D02*
X029591Y027872D01*
X029558Y027905D01*
X029558Y027972D01*
X029591Y028005D01*
X029624Y028005D01*
X029658Y027972D01*
X029658Y027905D01*
X029624Y027872D01*
X029558Y027905D02*
X029524Y027872D01*
X029491Y027872D01*
X029457Y027905D01*
X029457Y027972D01*
X029491Y028005D01*
X029524Y028005D01*
X029558Y027972D01*
X029786Y029731D02*
X029919Y029731D01*
X030007Y029731D02*
X030140Y029731D01*
X030074Y029731D02*
X030074Y029931D01*
X030007Y029865D01*
X029786Y029931D02*
X029786Y029731D01*
X028938Y030048D02*
X028738Y030048D01*
X028738Y030148D01*
X028772Y030182D01*
X028838Y030182D01*
X028872Y030148D01*
X028872Y030048D01*
X028872Y030115D02*
X028938Y030182D01*
X028938Y030269D02*
X028938Y030402D01*
X028938Y030336D02*
X028738Y030336D01*
X028805Y030269D01*
X028805Y030490D02*
X028838Y030523D01*
X028838Y030623D01*
X028772Y030623D02*
X028905Y030623D01*
X028938Y030590D01*
X028938Y030523D01*
X028905Y030490D01*
X028805Y030490D02*
X028772Y030490D01*
X028738Y030523D01*
X028738Y030590D01*
X028772Y030623D01*
X024819Y031448D02*
X024819Y031514D01*
X024785Y031548D01*
X024819Y031635D02*
X024819Y031769D01*
X024819Y031702D02*
X024618Y031702D01*
X024685Y031635D01*
X024652Y031548D02*
X024618Y031514D01*
X024618Y031448D01*
X024652Y031414D01*
X024785Y031414D01*
X024819Y031448D01*
X024785Y031856D02*
X024819Y031890D01*
X024819Y031956D01*
X024785Y031990D01*
X024719Y031990D01*
X024685Y031956D01*
X024685Y031923D01*
X024719Y031856D01*
X024618Y031856D01*
X024618Y031990D01*
X024653Y032109D02*
X024786Y032109D01*
X024819Y032142D01*
X024819Y032209D01*
X024786Y032242D01*
X024819Y032330D02*
X024819Y032463D01*
X024819Y032396D02*
X024619Y032396D01*
X024686Y032330D01*
X024653Y032242D02*
X024619Y032209D01*
X024619Y032142D01*
X024653Y032109D01*
X024719Y032551D02*
X024719Y032684D01*
X024619Y032651D02*
X024719Y032551D01*
X024819Y032651D02*
X024619Y032651D01*
X026910Y036219D02*
X026910Y036419D01*
X026976Y036419D02*
X026843Y036419D01*
X027064Y036385D02*
X027097Y036419D01*
X027164Y036419D01*
X027197Y036385D01*
X027197Y036352D01*
X027064Y036219D01*
X027197Y036219D01*
X027609Y037177D02*
X027575Y037210D01*
X027575Y037277D01*
X027609Y037310D01*
X027609Y037398D02*
X027575Y037431D01*
X027575Y037498D01*
X027609Y037531D01*
X027642Y037531D01*
X027675Y037498D01*
X027709Y037531D01*
X027742Y037531D01*
X027775Y037498D01*
X027775Y037431D01*
X027742Y037398D01*
X027742Y037310D02*
X027775Y037277D01*
X027775Y037210D01*
X027742Y037177D01*
X027609Y037177D01*
X027675Y037465D02*
X027675Y037498D01*
X028372Y036458D02*
X028439Y036458D01*
X028472Y036425D01*
X028472Y036291D01*
X028439Y036258D01*
X028372Y036258D01*
X028339Y036291D01*
X028339Y036425D01*
X028372Y036458D01*
X028406Y036325D02*
X028472Y036258D01*
X028560Y036258D02*
X028693Y036258D01*
X028627Y036258D02*
X028627Y036458D01*
X028560Y036391D01*
X029874Y036425D02*
X029908Y036458D01*
X029974Y036458D01*
X030008Y036425D01*
X030008Y036291D01*
X029974Y036258D01*
X029908Y036258D01*
X029874Y036291D01*
X029874Y036425D01*
X029941Y036325D02*
X030008Y036258D01*
X030095Y036258D02*
X030229Y036391D01*
X030229Y036425D01*
X030195Y036458D01*
X030129Y036458D01*
X030095Y036425D01*
X030095Y036258D02*
X030229Y036258D01*
X032076Y036113D02*
X032076Y035913D01*
X032076Y035979D02*
X032176Y035979D01*
X032209Y036013D01*
X032209Y036080D01*
X032176Y036113D01*
X032076Y036113D01*
X032143Y035979D02*
X032209Y035913D01*
X032297Y035913D02*
X032430Y036046D01*
X032430Y036080D01*
X032397Y036113D01*
X032330Y036113D01*
X032297Y036080D01*
X032297Y035913D02*
X032430Y035913D01*
X033250Y037580D02*
X033317Y037580D01*
X033351Y037613D01*
X033438Y037613D02*
X033471Y037580D01*
X033538Y037580D01*
X033572Y037613D01*
X033572Y037646D01*
X033538Y037680D01*
X033438Y037680D01*
X033438Y037613D01*
X033438Y037680D02*
X033505Y037746D01*
X033572Y037780D01*
X033351Y037746D02*
X033317Y037780D01*
X033250Y037780D01*
X033217Y037746D01*
X033217Y037613D01*
X033250Y037580D01*
X021293Y035196D02*
X021160Y035196D01*
X021227Y035196D02*
X021227Y035396D01*
X021160Y035330D01*
X021072Y035363D02*
X021039Y035396D01*
X020972Y035396D01*
X020939Y035363D01*
X020939Y035229D01*
X020972Y035196D01*
X021039Y035196D01*
X021072Y035229D01*
X020858Y035196D02*
X020791Y035196D01*
X020825Y035196D02*
X020825Y035396D01*
X020858Y035396D02*
X020791Y035396D01*
X019633Y035571D02*
X019633Y035637D01*
X019599Y035671D01*
X019599Y035758D02*
X019566Y035758D01*
X019533Y035792D01*
X019533Y035858D01*
X019566Y035892D01*
X019599Y035892D01*
X019633Y035858D01*
X019633Y035792D01*
X019599Y035758D01*
X019533Y035792D02*
X019499Y035758D01*
X019466Y035758D01*
X019432Y035792D01*
X019432Y035858D01*
X019466Y035892D01*
X019499Y035892D01*
X019533Y035858D01*
X019466Y035671D02*
X019432Y035637D01*
X019432Y035571D01*
X019466Y035537D01*
X019599Y035537D01*
X019633Y035571D01*
X019560Y035215D02*
X019560Y035082D01*
X019560Y035148D02*
X019360Y035148D01*
X019427Y035082D01*
X019560Y034994D02*
X019560Y034861D01*
X019560Y034928D02*
X019360Y034928D01*
X019427Y034861D01*
X019393Y034773D02*
X019360Y034740D01*
X019360Y034673D01*
X019393Y034640D01*
X019527Y034640D01*
X019560Y034673D01*
X019560Y034740D01*
X019527Y034773D01*
X019309Y034560D02*
X019443Y034426D01*
X019476Y034426D01*
X019476Y034339D02*
X019410Y034272D01*
X019410Y034306D02*
X019410Y034206D01*
X019476Y034206D02*
X019276Y034206D01*
X019276Y034306D01*
X019309Y034339D01*
X019376Y034339D01*
X019410Y034306D01*
X019276Y034426D02*
X019276Y034560D01*
X019309Y034560D01*
X017522Y033462D02*
X017522Y033362D01*
X017321Y033362D01*
X017321Y033462D01*
X017355Y033496D01*
X017421Y033462D02*
X017455Y033496D01*
X017488Y033496D01*
X017522Y033462D01*
X016336Y029364D02*
X016336Y029230D01*
X016336Y029297D02*
X016135Y029297D01*
X016202Y029230D01*
X016169Y029143D02*
X016135Y029109D01*
X016135Y029043D01*
X016169Y029009D01*
X016202Y029009D01*
X016236Y029043D01*
X016236Y029109D01*
X016269Y029143D01*
X016302Y029143D01*
X016336Y029109D01*
X016336Y029043D01*
X016302Y029009D01*
X017342Y026698D02*
X017376Y026698D01*
X017409Y026664D01*
X017442Y026698D01*
X017476Y026698D01*
X017509Y026664D01*
X017509Y026598D01*
X017476Y026564D01*
X017509Y026477D02*
X017309Y026343D01*
X017309Y026477D02*
X017509Y026343D01*
X017342Y026564D02*
X017309Y026598D01*
X017309Y026664D01*
X017342Y026698D01*
X017409Y026664D02*
X017409Y026631D01*
X013598Y031341D02*
X013598Y031374D01*
X013732Y031508D01*
X013732Y031541D01*
X013598Y031541D01*
X013444Y031541D02*
X013444Y031341D01*
X013377Y031341D02*
X013511Y031341D01*
X013377Y031474D02*
X013444Y031541D01*
X013290Y031508D02*
X013290Y031441D01*
X013257Y031408D01*
X013156Y031408D01*
X013156Y031341D02*
X013156Y031541D01*
X013257Y031541D01*
X013290Y031508D01*
X013223Y031408D02*
X013290Y031341D01*
X012921Y030138D02*
X012955Y030105D01*
X012955Y030038D01*
X012921Y030005D01*
X012921Y029917D02*
X012955Y029884D01*
X012955Y029817D01*
X012921Y029784D01*
X012788Y029784D01*
X012754Y029817D01*
X012754Y029884D01*
X012788Y029917D01*
X012788Y030005D02*
X012754Y030038D01*
X012754Y030105D01*
X012788Y030138D01*
X012821Y030138D01*
X012855Y030105D01*
X012888Y030138D01*
X012921Y030138D01*
X012855Y030105D02*
X012855Y030072D01*
X012955Y029703D02*
X012955Y029637D01*
X012955Y029670D02*
X012754Y029670D01*
X012754Y029637D02*
X012754Y029703D01*
X011606Y028392D02*
X011472Y028392D01*
X011472Y028291D01*
X011539Y028325D01*
X011573Y028325D01*
X011606Y028291D01*
X011606Y028225D01*
X011573Y028191D01*
X011506Y028191D01*
X011472Y028225D01*
X011385Y028191D02*
X011251Y028191D01*
X011385Y028325D01*
X011385Y028358D01*
X011352Y028392D01*
X011285Y028392D01*
X011251Y028358D01*
X011164Y028358D02*
X011164Y028291D01*
X011131Y028258D01*
X011030Y028258D01*
X011030Y028191D02*
X011030Y028392D01*
X011131Y028392D01*
X011164Y028358D01*
X011097Y028258D02*
X011164Y028191D01*
X010918Y028310D02*
X010785Y028310D01*
X010885Y028410D01*
X010885Y028209D01*
X010698Y028209D02*
X010564Y028209D01*
X010698Y028343D01*
X010698Y028376D01*
X010664Y028410D01*
X010597Y028410D01*
X010564Y028376D01*
X010477Y028376D02*
X010477Y028310D01*
X010443Y028276D01*
X010343Y028276D01*
X010343Y028209D02*
X010343Y028410D01*
X010443Y028410D01*
X010477Y028376D01*
X010410Y028276D02*
X010477Y028209D01*
X010210Y028243D02*
X010176Y028209D01*
X010110Y028209D01*
X010076Y028243D01*
X009989Y028209D02*
X009855Y028209D01*
X009989Y028343D01*
X009989Y028376D01*
X009955Y028410D01*
X009889Y028410D01*
X009855Y028376D01*
X009768Y028376D02*
X009768Y028310D01*
X009734Y028276D01*
X009634Y028276D01*
X009634Y028209D02*
X009634Y028410D01*
X009734Y028410D01*
X009768Y028376D01*
X009701Y028276D02*
X009768Y028209D01*
X010076Y028376D02*
X010110Y028410D01*
X010176Y028410D01*
X010210Y028376D01*
X010210Y028343D01*
X010176Y028310D01*
X010210Y028276D01*
X010210Y028243D01*
X010176Y028310D02*
X010143Y028310D01*
X008359Y026900D02*
X008326Y026933D01*
X008259Y026933D01*
X008226Y026900D01*
X008138Y026900D02*
X008105Y026933D01*
X008038Y026933D01*
X008005Y026900D01*
X007917Y026900D02*
X007917Y026833D01*
X007884Y026800D01*
X007784Y026800D01*
X007851Y026800D02*
X007917Y026733D01*
X008005Y026733D02*
X008138Y026867D01*
X008138Y026900D01*
X008138Y026733D02*
X008005Y026733D01*
X007917Y026900D02*
X007884Y026933D01*
X007784Y026933D01*
X007784Y026733D01*
X008226Y026733D02*
X008359Y026867D01*
X008359Y026900D01*
X008359Y026733D02*
X008226Y026733D01*
X009368Y026023D02*
X009401Y026057D01*
X009435Y026057D01*
X009468Y026023D01*
X009468Y025956D01*
X009435Y025923D01*
X009401Y025923D01*
X009368Y025956D01*
X009368Y026023D01*
X009468Y026023D02*
X009502Y026057D01*
X009535Y026057D01*
X009568Y026023D01*
X009568Y025956D01*
X009535Y025923D01*
X009502Y025923D01*
X009468Y025956D01*
X009435Y025836D02*
X009401Y025836D01*
X009368Y025802D01*
X009368Y025735D01*
X009401Y025702D01*
X009401Y025615D02*
X009468Y025615D01*
X009502Y025581D01*
X009502Y025481D01*
X009568Y025481D02*
X009368Y025481D01*
X009368Y025581D01*
X009401Y025615D01*
X009502Y025548D02*
X009568Y025615D01*
X009568Y025702D02*
X009435Y025836D01*
X009568Y025836D02*
X009568Y025702D01*
X009632Y025395D02*
X009699Y025395D01*
X009732Y025362D01*
X009732Y025228D01*
X009699Y025195D01*
X009632Y025195D01*
X009599Y025228D01*
X009599Y025362D01*
X009632Y025395D01*
X009666Y025262D02*
X009732Y025195D01*
X009820Y025228D02*
X009853Y025195D01*
X009920Y025195D01*
X009953Y025228D01*
X009953Y025262D01*
X009920Y025295D01*
X009820Y025295D01*
X009820Y025228D01*
X009820Y025295D02*
X009886Y025362D01*
X009953Y025395D01*
X009852Y023991D02*
X009886Y023958D01*
X009886Y023925D01*
X009852Y023891D01*
X009886Y023858D01*
X009886Y023824D01*
X009852Y023791D01*
X009786Y023791D01*
X009752Y023824D01*
X009819Y023891D02*
X009852Y023891D01*
X009852Y023991D02*
X009786Y023991D01*
X009752Y023958D01*
X009665Y023991D02*
X009531Y023991D01*
X009598Y023991D02*
X009598Y023791D01*
X009462Y023122D02*
X009496Y023089D01*
X009362Y022956D01*
X009396Y022922D01*
X009462Y022922D01*
X009496Y022956D01*
X009496Y023089D01*
X009462Y023122D02*
X009396Y023122D01*
X009362Y023089D01*
X009362Y022956D01*
X009275Y023022D02*
X009141Y023022D01*
X009241Y023122D01*
X009241Y022922D01*
X009054Y022956D02*
X009020Y022922D01*
X008954Y022922D01*
X008920Y022956D01*
X008920Y023089D01*
X008954Y023122D01*
X009020Y023122D01*
X009054Y023089D01*
X008720Y024082D02*
X008520Y024082D01*
X008520Y024182D01*
X008553Y024215D01*
X008620Y024215D01*
X008654Y024182D01*
X008654Y024082D01*
X008654Y024149D02*
X008720Y024215D01*
X008687Y024303D02*
X008720Y024336D01*
X008720Y024403D01*
X008687Y024436D01*
X008654Y024436D01*
X008620Y024403D01*
X008620Y024370D01*
X008620Y024403D02*
X008587Y024436D01*
X008553Y024436D01*
X008520Y024403D01*
X008520Y024336D01*
X008553Y024303D01*
X008587Y024524D02*
X008520Y024591D01*
X008720Y024591D01*
X008720Y024657D02*
X008720Y024524D01*
X008683Y021861D02*
X008683Y021728D01*
X008550Y021861D01*
X008516Y021861D01*
X008483Y021828D01*
X008483Y021761D01*
X008516Y021728D01*
X008483Y021640D02*
X008683Y021507D01*
X008683Y021640D02*
X008483Y021507D01*
X011691Y024331D02*
X011725Y024298D01*
X011858Y024298D01*
X011892Y024331D01*
X011892Y024398D01*
X011858Y024431D01*
X011858Y024519D02*
X011892Y024552D01*
X011892Y024619D01*
X011858Y024652D01*
X011825Y024652D01*
X011792Y024619D01*
X011792Y024586D01*
X011792Y024619D02*
X011758Y024652D01*
X011725Y024652D01*
X011691Y024619D01*
X011691Y024552D01*
X011725Y024519D01*
X011725Y024431D02*
X011691Y024398D01*
X011691Y024331D01*
X011725Y024740D02*
X011758Y024740D01*
X011792Y024773D01*
X011792Y024873D01*
X011858Y024873D02*
X011725Y024873D01*
X011691Y024840D01*
X011691Y024773D01*
X011725Y024740D01*
X011858Y024740D02*
X011892Y024773D01*
X011892Y024840D01*
X011858Y024873D01*
X011864Y025520D02*
X011864Y025621D01*
X011830Y025654D01*
X011764Y025654D01*
X011730Y025621D01*
X011730Y025520D01*
X011930Y025520D01*
X011864Y025587D02*
X011930Y025654D01*
X011930Y025741D02*
X011797Y025875D01*
X011764Y025875D01*
X011730Y025842D01*
X011730Y025775D01*
X011764Y025741D01*
X011930Y025741D02*
X011930Y025875D01*
X011930Y025962D02*
X011897Y025962D01*
X011764Y026096D01*
X011730Y026096D01*
X011730Y025962D01*
X012469Y025979D02*
X012469Y026113D01*
X012502Y026113D01*
X012635Y025979D01*
X012669Y025979D01*
X012635Y025892D02*
X012669Y025858D01*
X012669Y025791D01*
X012635Y025758D01*
X012635Y025671D02*
X012669Y025637D01*
X012669Y025570D01*
X012635Y025537D01*
X012502Y025537D01*
X012469Y025570D01*
X012469Y025637D01*
X012502Y025671D01*
X012502Y025758D02*
X012469Y025791D01*
X012469Y025858D01*
X012502Y025892D01*
X012535Y025892D01*
X012569Y025858D01*
X012602Y025892D01*
X012635Y025892D01*
X012569Y025858D02*
X012569Y025825D01*
X012674Y026719D02*
X012740Y026719D01*
X012774Y026753D01*
X012861Y026753D02*
X012895Y026719D01*
X012961Y026719D01*
X012995Y026753D01*
X012995Y026786D01*
X012961Y026819D01*
X012928Y026819D01*
X012961Y026819D02*
X012995Y026853D01*
X012995Y026886D01*
X012961Y026919D01*
X012895Y026919D01*
X012861Y026886D01*
X012774Y026886D02*
X012740Y026919D01*
X012674Y026919D01*
X012640Y026886D01*
X012640Y026753D01*
X012674Y026719D01*
X013082Y026719D02*
X013216Y026719D01*
X013149Y026719D02*
X013149Y026919D01*
X013082Y026853D01*
X007808Y028223D02*
X007808Y028357D01*
X007775Y028390D01*
X007708Y028390D01*
X007675Y028357D01*
X007675Y028323D01*
X007708Y028290D01*
X007808Y028290D01*
X007808Y028223D02*
X007775Y028190D01*
X007708Y028190D01*
X007675Y028223D01*
X007587Y028190D02*
X007454Y028190D01*
X007587Y028323D01*
X007587Y028357D01*
X007554Y028390D01*
X007487Y028390D01*
X007454Y028357D01*
X007366Y028357D02*
X007333Y028390D01*
X007266Y028390D01*
X007233Y028357D01*
X007233Y028223D01*
X007266Y028190D01*
X007333Y028190D01*
X007366Y028223D01*
X007139Y028223D02*
X007106Y028190D01*
X007039Y028190D01*
X007006Y028223D01*
X007006Y028256D01*
X007039Y028290D01*
X007106Y028290D01*
X007139Y028256D01*
X007139Y028223D01*
X007106Y028290D02*
X007139Y028323D01*
X007139Y028357D01*
X007106Y028390D01*
X007039Y028390D01*
X007006Y028357D01*
X007006Y028323D01*
X007039Y028290D01*
X006918Y028323D02*
X006918Y028357D01*
X006885Y028390D01*
X006818Y028390D01*
X006785Y028357D01*
X006697Y028357D02*
X006664Y028390D01*
X006597Y028390D01*
X006564Y028357D01*
X006564Y028223D01*
X006597Y028190D01*
X006664Y028190D01*
X006697Y028223D01*
X006785Y028190D02*
X006918Y028323D01*
X006918Y028190D02*
X006785Y028190D01*
X006371Y028337D02*
X006238Y028203D01*
X006238Y028170D01*
X006150Y028170D02*
X006017Y028170D01*
X006150Y028304D01*
X006150Y028337D01*
X006117Y028370D01*
X006050Y028370D01*
X006017Y028337D01*
X005929Y028337D02*
X005896Y028370D01*
X005829Y028370D01*
X005796Y028337D01*
X005796Y028203D01*
X005829Y028170D01*
X005896Y028170D01*
X005929Y028203D01*
X006238Y028370D02*
X006371Y028370D01*
X006371Y028337D01*
X005567Y026803D02*
X005600Y026769D01*
X005467Y026636D01*
X005500Y026603D01*
X005567Y026603D01*
X005600Y026636D01*
X005600Y026769D01*
X005567Y026803D02*
X005500Y026803D01*
X005467Y026769D01*
X005467Y026636D01*
X005379Y026636D02*
X005346Y026603D01*
X005279Y026603D01*
X005246Y026636D01*
X005158Y026636D02*
X005125Y026603D01*
X005058Y026603D01*
X005025Y026636D01*
X005025Y026769D01*
X005058Y026803D01*
X005125Y026803D01*
X005158Y026769D01*
X005246Y026769D02*
X005279Y026803D01*
X005346Y026803D01*
X005379Y026769D01*
X005379Y026736D01*
X005346Y026703D01*
X005379Y026669D01*
X005379Y026636D01*
X005346Y026703D02*
X005313Y026703D01*
X004664Y028366D02*
X004698Y028399D01*
X004698Y028432D01*
X004664Y028466D01*
X004564Y028466D01*
X004564Y028399D01*
X004598Y028366D01*
X004664Y028366D01*
X004564Y028466D02*
X004631Y028533D01*
X004698Y028566D01*
X004477Y028533D02*
X004443Y028566D01*
X004377Y028566D01*
X004343Y028533D01*
X004256Y028533D02*
X004222Y028566D01*
X004156Y028566D01*
X004122Y028533D01*
X004122Y028399D01*
X004156Y028366D01*
X004222Y028366D01*
X004256Y028399D01*
X004343Y028366D02*
X004477Y028499D01*
X004477Y028533D01*
X004477Y028366D02*
X004343Y028366D01*
X017798Y037579D02*
X017831Y037546D01*
X017898Y037546D01*
X017931Y037579D01*
X018019Y037646D02*
X018152Y037646D01*
X018119Y037546D02*
X018119Y037746D01*
X018019Y037646D01*
X017931Y037713D02*
X017898Y037746D01*
X017831Y037746D01*
X017798Y037713D01*
X017798Y037579D01*
X018664Y037607D02*
X018831Y037607D01*
X018864Y037640D01*
X018864Y037707D01*
X018831Y037740D01*
X018664Y037740D01*
X018697Y037828D02*
X018730Y037828D01*
X018764Y037861D01*
X018764Y037928D01*
X018797Y037961D01*
X018831Y037961D01*
X018864Y037928D01*
X018864Y037861D01*
X018831Y037828D01*
X018697Y037828D02*
X018664Y037861D01*
X018664Y037928D01*
X018697Y037961D01*
X018664Y038049D02*
X018664Y038149D01*
X018697Y038182D01*
X018730Y038182D01*
X018764Y038149D01*
X018764Y038049D01*
X018864Y038049D02*
X018664Y038049D01*
X018764Y038149D02*
X018797Y038182D01*
X018831Y038182D01*
X018864Y038149D01*
X018864Y038049D01*
X018864Y038270D02*
X018864Y038403D01*
X018864Y038337D02*
X018664Y038337D01*
X018730Y038270D01*
X020953Y032484D02*
X021053Y032484D01*
X021087Y032451D01*
X021087Y032384D01*
X021053Y032351D01*
X020953Y032351D01*
X020953Y032284D02*
X020953Y032484D01*
X021020Y032351D02*
X021087Y032284D01*
X021174Y032284D02*
X021308Y032284D01*
X021241Y032284D02*
X021241Y032484D01*
X021174Y032418D01*
X021395Y032384D02*
X021462Y032418D01*
X021495Y032418D01*
X021529Y032384D01*
X021529Y032318D01*
X021495Y032284D01*
X021429Y032284D01*
X021395Y032318D01*
X021395Y032384D02*
X021395Y032484D01*
X021529Y032484D01*
D16*
X035947Y034357D03*
D17*
X035825Y035770D02*
X035431Y035770D01*
X036494Y035770D02*
X036888Y035770D01*
X036691Y035967D02*
X036691Y035573D01*
X003424Y019279D02*
X003424Y019170D01*
X003424Y019279D02*
X003316Y019387D01*
X002774Y019387D01*
X002774Y019062D01*
X002882Y018954D01*
X003099Y018954D01*
X003207Y019062D01*
X003207Y019387D01*
X003207Y019653D02*
X002557Y020087D01*
X002774Y018696D02*
X002774Y018587D01*
X002990Y018370D01*
X002774Y018370D02*
X003207Y018370D01*
X003099Y018104D02*
X002882Y018104D01*
X002774Y017996D01*
X002774Y017779D01*
X002882Y017671D01*
X003099Y017671D01*
X003207Y017779D01*
X003207Y017996D01*
X003099Y018104D01*
X003099Y017429D02*
X003207Y017429D01*
X003207Y017321D01*
X003099Y017321D01*
X003099Y017429D01*
X002665Y017055D02*
X003099Y016621D01*
X003207Y016621D01*
X003207Y016355D02*
X003207Y015921D01*
X003207Y016138D02*
X002557Y016138D01*
X002774Y015921D01*
X002665Y015655D02*
X003099Y015221D01*
X003207Y015330D01*
X003207Y015547D01*
X003099Y015655D01*
X002665Y015655D01*
X002557Y015547D01*
X002557Y015330D01*
X002665Y015221D01*
X003099Y015221D01*
X003207Y014955D02*
X003207Y014521D01*
X002774Y014955D01*
X002665Y014955D01*
X002557Y014847D01*
X002557Y014630D01*
X002665Y014521D01*
X002882Y014255D02*
X002774Y014147D01*
X002774Y013930D01*
X002990Y013930D02*
X002990Y014255D01*
X002882Y014255D02*
X003207Y014255D01*
X003207Y013930D01*
X003099Y013822D01*
X002990Y013930D01*
X002882Y013556D02*
X002774Y013447D01*
X002774Y013230D01*
X002882Y013122D01*
X002774Y012856D02*
X002774Y012530D01*
X002882Y012422D01*
X002990Y012530D01*
X002990Y012747D01*
X003099Y012856D01*
X003207Y012747D01*
X003207Y012422D01*
X003207Y013122D02*
X002557Y013122D01*
X002882Y013556D02*
X003207Y013556D01*
X002557Y012156D02*
X003207Y011722D01*
X003207Y011022D02*
X002557Y011456D01*
X002774Y010781D02*
X002882Y010781D01*
X002882Y010673D01*
X002774Y010673D01*
X002774Y010781D01*
X003099Y010781D02*
X003207Y010781D01*
X003207Y010673D01*
X003099Y010673D01*
X003099Y010781D01*
X003099Y010406D02*
X002990Y010298D01*
X002990Y010081D01*
X002882Y009973D01*
X002774Y010081D01*
X002774Y010406D01*
X003099Y010406D02*
X003207Y010298D01*
X003207Y009973D01*
X003099Y009707D02*
X003207Y009598D01*
X003207Y009273D01*
X003424Y009273D02*
X002774Y009273D01*
X002774Y009598D01*
X002882Y009707D01*
X003099Y009707D01*
X003207Y009023D02*
X003099Y008915D01*
X002665Y008915D01*
X002774Y009023D02*
X002774Y008806D01*
X002774Y008557D02*
X002774Y008340D01*
X002665Y008448D02*
X003099Y008448D01*
X003207Y008557D01*
X003207Y008074D02*
X002882Y008074D01*
X002774Y007965D01*
X002774Y007749D01*
X002882Y007640D01*
X002557Y007640D02*
X003207Y007640D01*
X002557Y016621D02*
X002557Y017055D01*
X002665Y017055D01*
D18*
X003093Y020971D02*
X008290Y020971D01*
X008290Y022900D01*
X008290Y023963D02*
X008290Y025144D01*
X008290Y026207D02*
X008290Y026483D01*
X003526Y026483D01*
X002935Y025853D02*
X002935Y022546D01*
X002936Y022546D02*
X002933Y022508D01*
X002927Y022470D01*
X002917Y022433D01*
X002903Y022397D01*
X002887Y022362D01*
X002867Y022330D01*
X002844Y022299D01*
X002818Y022270D01*
X002789Y022244D01*
X002758Y022221D01*
X002726Y022201D01*
X002691Y022185D01*
X002655Y022171D01*
X002618Y022161D01*
X002580Y022155D01*
X002542Y022152D01*
X002510Y022153D01*
X002479Y022149D01*
X002448Y022142D01*
X002418Y022131D01*
X002390Y022117D01*
X002364Y022099D01*
X002340Y022078D01*
X002319Y022054D01*
X002301Y022028D01*
X002287Y022000D01*
X002276Y021970D01*
X002269Y021939D01*
X002265Y021908D01*
X002266Y021876D01*
X002266Y021561D01*
X009707Y024199D02*
X009707Y024514D01*
X009707Y024199D02*
X009943Y024199D01*
X010573Y024199D02*
X010809Y024199D01*
X010809Y024514D01*
X010809Y025577D02*
X010573Y025577D01*
X010809Y025577D02*
X010809Y025892D01*
X009943Y025577D02*
X009707Y025577D01*
X009707Y025892D01*
X016542Y028711D02*
X016542Y029687D01*
X016935Y030199D02*
X018148Y030199D01*
X018542Y029687D02*
X018542Y028699D01*
X018148Y028199D02*
X016935Y028199D01*
X017042Y029199D02*
X017044Y029243D01*
X017050Y029287D01*
X017060Y029330D01*
X017073Y029372D01*
X017090Y029413D01*
X017111Y029452D01*
X017135Y029489D01*
X017162Y029524D01*
X017192Y029556D01*
X017225Y029586D01*
X017261Y029612D01*
X017298Y029636D01*
X017338Y029655D01*
X017379Y029672D01*
X017422Y029684D01*
X017465Y029693D01*
X017509Y029698D01*
X017553Y029699D01*
X017597Y029696D01*
X017641Y029689D01*
X017684Y029678D01*
X017726Y029664D01*
X017766Y029646D01*
X017805Y029624D01*
X017841Y029600D01*
X017875Y029572D01*
X017907Y029541D01*
X017936Y029507D01*
X017962Y029471D01*
X017984Y029433D01*
X018003Y029393D01*
X018018Y029351D01*
X018030Y029309D01*
X018038Y029265D01*
X018042Y029221D01*
X018042Y029177D01*
X018038Y029133D01*
X018030Y029089D01*
X018018Y029047D01*
X018003Y029005D01*
X017984Y028965D01*
X017962Y028927D01*
X017936Y028891D01*
X017907Y028857D01*
X017875Y028826D01*
X017841Y028798D01*
X017805Y028774D01*
X017766Y028752D01*
X017726Y028734D01*
X017684Y028720D01*
X017641Y028709D01*
X017597Y028702D01*
X017553Y028699D01*
X017509Y028700D01*
X017465Y028705D01*
X017422Y028714D01*
X017379Y028726D01*
X017338Y028743D01*
X017298Y028762D01*
X017261Y028786D01*
X017225Y028812D01*
X017192Y028842D01*
X017162Y028874D01*
X017135Y028909D01*
X017111Y028946D01*
X017090Y028985D01*
X017073Y029026D01*
X017060Y029068D01*
X017050Y029111D01*
X017044Y029155D01*
X017042Y029199D01*
X019549Y031758D02*
X019549Y032073D01*
X019786Y032073D01*
X019864Y032900D02*
X020061Y032900D01*
X019864Y032900D02*
X019864Y033136D01*
X020416Y032073D02*
X020652Y032073D01*
X020652Y031758D01*
X021046Y030971D02*
X021046Y030656D01*
X021282Y030656D01*
X021337Y030199D02*
X020124Y030199D01*
X019731Y029687D02*
X019731Y028711D01*
X020124Y028199D02*
X021337Y028199D01*
X021731Y028699D02*
X021731Y029687D01*
X021912Y030656D02*
X022148Y030656D01*
X022148Y030971D01*
X021754Y032900D02*
X021557Y032900D01*
X021754Y032900D02*
X021754Y033097D01*
X023105Y033467D02*
X023105Y033648D01*
X023227Y033740D01*
X023105Y033829D02*
X023105Y033648D01*
X023111Y033638D02*
X023227Y033562D01*
X023105Y034058D02*
X023105Y034239D01*
X023227Y034331D01*
X023105Y034420D02*
X023105Y034239D01*
X023111Y034229D02*
X023227Y034153D01*
X022660Y035282D02*
X022502Y035282D01*
X022502Y035794D01*
X021951Y035794D01*
X022055Y035947D02*
X022555Y035947D01*
X022502Y035794D02*
X022660Y035794D01*
X022502Y035282D02*
X021951Y035282D01*
X022055Y036547D02*
X022555Y036547D01*
X025022Y035813D02*
X025022Y035499D01*
X025022Y035813D02*
X025258Y035813D01*
X025888Y035813D02*
X026124Y035813D01*
X026124Y035499D01*
X026479Y035577D02*
X026479Y035262D01*
X026715Y035262D01*
X027345Y035262D02*
X027581Y035262D01*
X027581Y035577D01*
X028093Y035499D02*
X028093Y035813D01*
X028329Y035813D01*
X028959Y035813D02*
X029195Y035813D01*
X029195Y035499D01*
X029628Y035499D02*
X029628Y035813D01*
X029864Y035813D01*
X030494Y035813D02*
X030731Y035813D01*
X030731Y035499D01*
X028714Y033403D02*
X028714Y030823D01*
X027314Y030823D01*
X027314Y033403D01*
X028714Y033403D01*
X029668Y030577D02*
X029668Y030262D01*
X029786Y030262D01*
X029234Y029632D02*
X030494Y029632D01*
X030534Y030262D02*
X030534Y030577D01*
X030534Y030262D02*
X030416Y030262D01*
X030494Y028609D02*
X029234Y028609D01*
X029451Y027546D02*
X029451Y027388D01*
X028939Y027388D01*
X028939Y026837D01*
X028664Y026837D02*
X028664Y026995D01*
X028152Y026995D01*
X028152Y027546D01*
X028664Y027546D02*
X028664Y026995D01*
X028939Y027388D02*
X028939Y027546D01*
X029451Y027388D02*
X029451Y026837D01*
X029687Y026837D02*
X029687Y026995D01*
X030199Y026995D01*
X030199Y027546D01*
X029687Y027546D02*
X029687Y026995D01*
X030199Y026995D02*
X030199Y026837D01*
X030416Y025617D02*
X030416Y024987D01*
X030416Y024986D02*
X030422Y024968D01*
X030431Y024950D01*
X030443Y024935D01*
X030459Y024923D01*
X030476Y024914D01*
X030495Y024908D01*
X030514Y024906D01*
X030534Y024908D01*
X031085Y024908D02*
X031103Y024906D01*
X031120Y024907D01*
X031137Y024911D01*
X031153Y024918D01*
X031168Y024928D01*
X031180Y024940D01*
X031190Y024954D01*
X031198Y024970D01*
X031203Y024986D01*
X031203Y024987D02*
X031203Y025617D01*
X031198Y025633D01*
X031190Y025649D01*
X031180Y025663D01*
X031168Y025675D01*
X031153Y025685D01*
X031137Y025692D01*
X031120Y025696D01*
X031103Y025697D01*
X031085Y025695D01*
X030534Y025695D02*
X030514Y025697D01*
X030495Y025695D01*
X030476Y025689D01*
X030459Y025680D01*
X030443Y025668D01*
X030431Y025653D01*
X030422Y025635D01*
X030416Y025617D01*
X028152Y026837D02*
X028152Y026995D01*
X024771Y027126D02*
X024771Y026626D01*
X024171Y026626D02*
X024171Y027126D01*
X024208Y023307D02*
X024138Y023237D01*
X024138Y023027D01*
X024278Y023027D01*
X024348Y023097D01*
X024348Y023237D01*
X024278Y023307D01*
X024208Y023307D01*
X023998Y023167D02*
X024138Y023027D01*
X024068Y022847D02*
X024138Y022777D01*
X024208Y022847D01*
X024278Y022847D01*
X024348Y022777D01*
X024348Y022637D01*
X024278Y022567D01*
X024348Y022387D02*
X024208Y022247D01*
X024208Y022317D02*
X024208Y022106D01*
X024348Y022106D02*
X023928Y022106D01*
X023928Y022317D01*
X023998Y022387D01*
X024138Y022387D01*
X024208Y022317D01*
X023998Y022567D02*
X023928Y022637D01*
X023928Y022777D01*
X023998Y022847D01*
X024068Y022847D01*
X024138Y022777D02*
X024138Y022707D01*
X023998Y023167D02*
X023928Y023307D01*
X020710Y019406D02*
X020710Y018985D01*
X020850Y018985D02*
X020569Y018985D01*
X020389Y018985D02*
X020249Y019126D01*
X020319Y019126D02*
X020109Y019126D01*
X020109Y018985D02*
X020109Y019406D01*
X020319Y019406D01*
X020389Y019336D01*
X020389Y019196D01*
X020319Y019126D01*
X020569Y019266D02*
X020710Y019406D01*
X020614Y018472D02*
X020404Y018262D01*
X020684Y018262D01*
X020864Y018262D02*
X021144Y018262D01*
X021074Y018472D02*
X020864Y018262D01*
X021074Y018052D02*
X021074Y018472D01*
X020614Y018472D02*
X020614Y018052D01*
X020691Y017803D02*
X020481Y017593D01*
X020761Y017593D01*
X020691Y017383D02*
X020691Y017803D01*
X020941Y017733D02*
X021011Y017803D01*
X021152Y017803D01*
X021222Y017733D01*
X021222Y017663D01*
X021152Y017593D01*
X021222Y017523D01*
X021222Y017453D01*
X021152Y017383D01*
X021011Y017383D01*
X020941Y017453D01*
X021082Y017593D02*
X021152Y017593D01*
X020301Y017733D02*
X020231Y017803D01*
X020091Y017803D01*
X020021Y017733D01*
X020021Y017453D01*
X020091Y017383D01*
X020231Y017383D01*
X020301Y017453D01*
X020153Y018052D02*
X020224Y018122D01*
X020153Y018052D02*
X020013Y018052D01*
X019943Y018122D01*
X019943Y018402D01*
X020013Y018472D01*
X020153Y018472D01*
X020224Y018402D01*
X016869Y016319D02*
X016588Y016319D01*
X016588Y016109D01*
X016728Y016179D01*
X016798Y016179D01*
X016869Y016109D01*
X016869Y015969D01*
X016798Y015898D01*
X016658Y015898D01*
X016588Y015969D01*
X016408Y016109D02*
X016128Y016109D01*
X016338Y016319D01*
X016338Y015898D01*
X015948Y015969D02*
X015878Y015898D01*
X015738Y015898D01*
X015668Y015969D01*
X015668Y016249D01*
X015738Y016319D01*
X015878Y016319D01*
X015948Y016249D01*
X015821Y014957D02*
X015891Y014887D01*
X015891Y014747D01*
X015821Y014677D01*
X015611Y014677D01*
X015611Y014537D02*
X015611Y014957D01*
X015821Y014957D01*
X016072Y014887D02*
X016142Y014957D01*
X016282Y014957D01*
X016352Y014887D01*
X016352Y014817D01*
X016282Y014747D01*
X016352Y014677D01*
X016352Y014607D01*
X016282Y014537D01*
X016142Y014537D01*
X016072Y014607D01*
X015891Y014537D02*
X015751Y014677D01*
X016212Y014747D02*
X016282Y014747D01*
X016532Y014607D02*
X016532Y014537D01*
X016532Y014607D02*
X016812Y014887D01*
X016812Y014957D01*
X016532Y014957D01*
X020231Y029199D02*
X020233Y029243D01*
X020239Y029287D01*
X020249Y029330D01*
X020262Y029372D01*
X020279Y029413D01*
X020300Y029452D01*
X020324Y029489D01*
X020351Y029524D01*
X020381Y029556D01*
X020414Y029586D01*
X020450Y029612D01*
X020487Y029636D01*
X020527Y029655D01*
X020568Y029672D01*
X020611Y029684D01*
X020654Y029693D01*
X020698Y029698D01*
X020742Y029699D01*
X020786Y029696D01*
X020830Y029689D01*
X020873Y029678D01*
X020915Y029664D01*
X020955Y029646D01*
X020994Y029624D01*
X021030Y029600D01*
X021064Y029572D01*
X021096Y029541D01*
X021125Y029507D01*
X021151Y029471D01*
X021173Y029433D01*
X021192Y029393D01*
X021207Y029351D01*
X021219Y029309D01*
X021227Y029265D01*
X021231Y029221D01*
X021231Y029177D01*
X021227Y029133D01*
X021219Y029089D01*
X021207Y029047D01*
X021192Y029005D01*
X021173Y028965D01*
X021151Y028927D01*
X021125Y028891D01*
X021096Y028857D01*
X021064Y028826D01*
X021030Y028798D01*
X020994Y028774D01*
X020955Y028752D01*
X020915Y028734D01*
X020873Y028720D01*
X020830Y028709D01*
X020786Y028702D01*
X020742Y028699D01*
X020698Y028700D01*
X020654Y028705D01*
X020611Y028714D01*
X020568Y028726D01*
X020527Y028743D01*
X020487Y028762D01*
X020450Y028786D01*
X020414Y028812D01*
X020381Y028842D01*
X020351Y028874D01*
X020324Y028909D01*
X020300Y028946D01*
X020279Y028985D01*
X020262Y029026D01*
X020249Y029068D01*
X020239Y029111D01*
X020233Y029155D01*
X020231Y029199D01*
X018077Y033384D02*
X017896Y033384D01*
X017804Y033506D01*
X017715Y033384D02*
X017896Y033384D01*
X017906Y033390D02*
X017982Y033506D01*
X019864Y034593D02*
X019864Y034790D01*
X020061Y034790D01*
X025219Y034731D02*
X025770Y034731D01*
X025770Y034219D01*
X025219Y034219D01*
X025770Y034219D02*
X025927Y034219D01*
X025927Y034731D02*
X025770Y034731D01*
X013605Y035124D02*
X013447Y035124D01*
X013447Y035636D01*
X012896Y035636D01*
X012896Y035124D02*
X013447Y035124D01*
X013447Y035636D02*
X013605Y035636D01*
D19*
X012069Y035971D02*
X004392Y035971D01*
X004392Y028884D01*
X002030Y028884D01*
X002030Y035971D01*
X004392Y035971D01*
X004392Y028884D02*
X012069Y028884D01*
X012069Y035971D01*
X017691Y027191D02*
X017900Y027191D01*
X017691Y027191D02*
X017691Y025223D01*
X017900Y025223D01*
X018467Y025223D02*
X018916Y025223D01*
X019463Y025223D02*
X019908Y025223D01*
X020467Y025223D02*
X020916Y025223D01*
X021479Y025223D02*
X021912Y025223D01*
X022455Y025223D02*
X022884Y025223D01*
X023451Y025223D02*
X023691Y025223D01*
X023691Y027191D01*
X023459Y027191D01*
X022896Y027191D02*
X022467Y027191D01*
X021927Y027191D02*
X021463Y027191D01*
X020920Y027191D02*
X020455Y027191D01*
X019908Y027191D02*
X019463Y027191D01*
X018892Y027191D02*
X018463Y027191D01*
X025219Y026404D02*
X025219Y024750D01*
X026951Y024750D01*
X026951Y026404D01*
X025219Y026404D01*
X027267Y026080D02*
X027492Y025854D01*
X027492Y026155D01*
X027717Y026080D02*
X027267Y026080D01*
X027342Y025694D02*
X027267Y025619D01*
X027267Y025469D01*
X027342Y025394D01*
X027642Y025394D01*
X027717Y025469D01*
X027717Y025619D01*
X027642Y025694D01*
X027717Y025237D02*
X027717Y025087D01*
X027717Y025162D02*
X027267Y025162D01*
X027267Y025087D02*
X027267Y025237D01*
X028223Y024658D02*
X028223Y020670D01*
X028823Y020670D01*
X028823Y024658D01*
X028223Y024658D01*
X028823Y024658D02*
X031623Y024658D01*
X031623Y020670D01*
X028823Y020670D01*
X033762Y024790D02*
X035337Y024790D01*
X035337Y032034D01*
X033762Y032034D01*
X018558Y017051D02*
X018560Y017069D01*
X018566Y017087D01*
X018575Y017103D01*
X018587Y017116D01*
X018602Y017127D01*
X018619Y017135D01*
X018637Y017139D01*
X018655Y017139D01*
X018673Y017135D01*
X018690Y017127D01*
X018705Y017116D01*
X018717Y017103D01*
X018726Y017087D01*
X018732Y017069D01*
X018734Y017051D01*
X018732Y017033D01*
X018726Y017015D01*
X018717Y016999D01*
X018705Y016986D01*
X018690Y016975D01*
X018673Y016967D01*
X018655Y016963D01*
X018637Y016963D01*
X018619Y016967D01*
X018602Y016975D01*
X018587Y016986D01*
X018575Y016999D01*
X018566Y017015D01*
X018560Y017033D01*
X018558Y017051D01*
X011812Y022756D02*
X011632Y022756D01*
X011722Y022756D02*
X011722Y023026D01*
X011632Y022936D01*
X011518Y022891D02*
X011338Y022891D01*
X011473Y023026D01*
X011473Y022756D01*
X011223Y022801D02*
X011178Y022756D01*
X011088Y022756D01*
X011043Y022801D01*
X011043Y022981D01*
X011088Y023026D01*
X011178Y023026D01*
X011223Y022981D01*
D20*
X026754Y026207D03*
D21*
X030084Y025506D02*
X030119Y025541D01*
X030154Y025541D01*
X030189Y025506D01*
X030224Y025541D01*
X030259Y025541D01*
X030294Y025506D01*
X030294Y025436D01*
X030259Y025401D01*
X030189Y025471D02*
X030189Y025506D01*
X030084Y025506D02*
X030084Y025436D01*
X030119Y025401D01*
X030084Y025320D02*
X030084Y025250D01*
X030084Y025285D02*
X030259Y025285D01*
X030294Y025250D01*
X030294Y025215D01*
X030259Y025180D01*
X030259Y025099D02*
X030294Y025064D01*
X030294Y024994D01*
X030259Y024959D01*
X030189Y024994D02*
X030189Y025064D01*
X030224Y025099D01*
X030259Y025099D01*
X030189Y024994D02*
X030154Y024959D01*
X030119Y024959D01*
X030084Y024994D01*
X030084Y025064D01*
X030119Y025099D01*
M02*
